G04 Layer_Color=32768*
%FSLAX26Y26*%
%MOIN*%
%TF.FileFunction,Other,Mechanical_15*%
%TF.Part,Single*%
G01*
G75*
%TA.AperFunction,NonConductor*%
%ADD49C,0.003937*%
%ADD50C,0.001968*%
D49*
X1997874Y1854016D02*
X2037244D01*
X2017559Y1834331D02*
Y1873701D01*
X2136299Y1496614D02*
Y1571417D01*
X1978819Y1496614D02*
Y1571417D01*
X2136299D01*
X1978819Y1496614D02*
X2136299D01*
X2037874Y1534016D02*
X2077244D01*
X2057559Y1514331D02*
Y1553701D01*
X1505512Y1680315D02*
Y1719685D01*
X1485827Y1700000D02*
X1525197D01*
X1420000Y2280315D02*
Y2319685D01*
X1400315Y2300000D02*
X1439685D01*
X2622598Y2921260D02*
X2697401D01*
X2622598Y3078740D02*
X2697401D01*
X2622598Y2921260D02*
Y3078740D01*
X2697401Y2921260D02*
Y3078740D01*
X2660000Y2980315D02*
Y3019685D01*
X2640315Y3000000D02*
X2679685D01*
X2722598Y2921260D02*
X2797401D01*
X2722598Y3078740D02*
X2797401D01*
X2722598Y2921260D02*
Y3078740D01*
X2797401Y2921260D02*
Y3078740D01*
X2760000Y2980315D02*
Y3019685D01*
X2740315Y3000000D02*
X2779685D01*
X1202598Y2921260D02*
X1277401D01*
X1202598Y3078740D02*
X1277401D01*
X1202598Y2921260D02*
Y3078740D01*
X1277401Y2921260D02*
Y3078740D01*
X1240000Y2980315D02*
Y3019685D01*
X1220315Y3000000D02*
X1259685D01*
X1322598Y2921260D02*
X1397401D01*
X1322598Y3078740D02*
X1397401D01*
X1322598Y2921260D02*
Y3078740D01*
X1397401Y2921260D02*
Y3078740D01*
X1360000Y2980315D02*
Y3019685D01*
X1340315Y3000000D02*
X1379685D01*
X2141299Y2740000D02*
X2178701D01*
X2160000Y2721299D02*
Y2758701D01*
X2138347Y2692756D02*
Y2787244D01*
X2181654Y2692756D02*
Y2787244D01*
X2138347Y2692756D02*
X2181654D01*
X2138347Y2787244D02*
X2181654D01*
X1742599Y2898740D02*
X1817402D01*
X1742599Y2741260D02*
X1817402D01*
Y2898740D01*
X1742599Y2741260D02*
Y2898740D01*
X1780000Y2800315D02*
Y2839685D01*
X1760315Y2820000D02*
X1799685D01*
X2302599Y2858740D02*
X2377402D01*
X2302599Y2701260D02*
X2377402D01*
Y2858740D01*
X2302599Y2701260D02*
Y2858740D01*
X2340000Y2760315D02*
Y2799685D01*
X2320315Y2780000D02*
X2359685D01*
X2202599Y2858740D02*
X2277402D01*
X2202599Y2701260D02*
X2277402D01*
Y2858740D01*
X2202599Y2701260D02*
Y2858740D01*
X2240000Y2760315D02*
Y2799685D01*
X2220315Y2780000D02*
X2259685D01*
X2685827Y2785000D02*
X2725197D01*
X2705512Y2765315D02*
Y2804685D01*
X1965827Y2775000D02*
X2005197D01*
X1985512Y2755315D02*
Y2794685D01*
X1280315Y2780000D02*
X1319685D01*
X1300000Y2760315D02*
Y2799685D01*
X1461299Y1160000D02*
X1498701D01*
X1480000Y1141299D02*
Y1178701D01*
X1458347Y1112756D02*
Y1207244D01*
X1501654Y1112756D02*
Y1207244D01*
X1458347Y1112756D02*
X1501654D01*
X1458347Y1207244D02*
X1501654D01*
X2601260Y1302599D02*
Y1377402D01*
X2758740Y1302599D02*
Y1377402D01*
X2601260D02*
X2758740D01*
X2601260Y1302599D02*
X2758740D01*
X2660315Y1340000D02*
X2699685D01*
X2680000Y1320315D02*
Y1359685D01*
X2821299Y1252441D02*
X2858701D01*
X2840000Y1233740D02*
Y1271142D01*
X2861654Y1205197D02*
Y1299685D01*
X2818347Y1205197D02*
Y1299685D01*
X2861654D01*
X2818347Y1205197D02*
X2861654D01*
X2442599Y1278740D02*
X2517402D01*
X2442599Y1121260D02*
X2517402D01*
Y1278740D01*
X2442599Y1121260D02*
Y1278740D01*
X2480000Y1180315D02*
Y1219685D01*
X2460315Y1200000D02*
X2499685D01*
X2721260Y1042599D02*
Y1117402D01*
X2878740Y1042599D02*
Y1117402D01*
X2721260D02*
X2878740D01*
X2721260Y1042599D02*
X2878740D01*
X2780315Y1080000D02*
X2819685D01*
X2800000Y1060315D02*
Y1099685D01*
X1542598Y1061260D02*
X1617401D01*
X1542598Y1218740D02*
X1617401D01*
X1542598Y1061260D02*
Y1218740D01*
X1617401Y1061260D02*
Y1218740D01*
X1580000Y1120315D02*
Y1159685D01*
X1560315Y1140000D02*
X1599685D01*
X1341260Y1262599D02*
Y1337402D01*
X1498740Y1262599D02*
Y1337402D01*
X1341260D02*
X1498740D01*
X1341260Y1262599D02*
X1498740D01*
X1400315Y1300000D02*
X1439685D01*
X1420000Y1280315D02*
Y1319685D01*
X1518740Y1022598D02*
Y1097401D01*
X1361260Y1022598D02*
Y1097401D01*
Y1022598D02*
X1518740D01*
X1361260Y1097401D02*
X1518740D01*
X1420315Y1060000D02*
X1459685D01*
X1440000Y1040315D02*
Y1079685D01*
X1102599Y1358740D02*
X1177402D01*
X1102599Y1201260D02*
X1177402D01*
Y1358740D01*
X1102599Y1201260D02*
Y1358740D01*
X1140000Y1260315D02*
Y1299685D01*
X1120315Y1280000D02*
X1159685D01*
X1102599Y1198740D02*
X1177402D01*
X1102599Y1041260D02*
X1177402D01*
Y1198740D01*
X1102599Y1041260D02*
Y1198740D01*
X1140000Y1100315D02*
Y1139685D01*
X1120315Y1120000D02*
X1159685D01*
X1678740Y1262598D02*
Y1337401D01*
X1521260Y1262598D02*
Y1337401D01*
Y1262598D02*
X1678740D01*
X1521260Y1337401D02*
X1678740D01*
X1580315Y1300000D02*
X1619685D01*
X1600000Y1280315D02*
Y1319685D01*
X1320000Y1160315D02*
Y1199685D01*
X1300315Y1180000D02*
X1339685D01*
X2660000Y1180315D02*
Y1219685D01*
X2640315Y1200000D02*
X2679685D01*
X2501299Y2740000D02*
X2538701D01*
X2520000Y2721299D02*
Y2758701D01*
X2498347Y2692756D02*
Y2787244D01*
X2541654Y2692756D02*
Y2787244D01*
X2498347Y2692756D02*
X2541654D01*
X2498347Y2787244D02*
X2541654D01*
X2907559Y2801299D02*
Y2838701D01*
X2888858Y2820000D02*
X2926260D01*
X2860315Y2841654D02*
X2954803D01*
X2860315Y2798347D02*
X2954803D01*
X2860315D02*
Y2841654D01*
X2954803Y2798347D02*
Y2841654D01*
X1780000Y2681299D02*
Y2718701D01*
X1761299Y2700000D02*
X1798701D01*
X1732756Y2678347D02*
X1827244D01*
X1732756Y2721654D02*
X1827244D01*
Y2678347D02*
Y2721654D01*
X1732756Y2678347D02*
Y2721654D01*
X2141299Y2860000D02*
X2178701D01*
X2160000Y2841299D02*
Y2878701D01*
X2181653Y2812756D02*
Y2907244D01*
X2138346Y2812756D02*
Y2907244D01*
X2181653D01*
X2138346Y2812756D02*
X2181653D01*
X1100000Y2701299D02*
Y2738701D01*
X1081299Y2720000D02*
X1118701D01*
X1052756Y2698347D02*
X1147244D01*
X1052756Y2741654D02*
X1147244D01*
Y2698347D02*
Y2741654D01*
X1052756Y2698347D02*
Y2741654D01*
X1500000Y2781299D02*
Y2818701D01*
X1481299Y2800000D02*
X1518701D01*
X1452756Y2821653D02*
X1547244D01*
X1452756Y2778346D02*
X1547244D01*
X1452756D02*
Y2821653D01*
X1547244Y2778346D02*
Y2821653D01*
X1420000Y1901299D02*
Y1938701D01*
X1401299Y1920000D02*
X1438701D01*
X1372756Y1898347D02*
X1467244D01*
X1372756Y1941654D02*
X1467244D01*
Y1898347D02*
Y1941654D01*
X1372756Y1898347D02*
Y1941654D01*
X1300000Y1741299D02*
Y1778701D01*
X1281299Y1760000D02*
X1318701D01*
X1252756Y1738347D02*
X1347244D01*
X1252756Y1781654D02*
X1347244D01*
Y1738347D02*
Y1781654D01*
X1252756Y1738347D02*
Y1781654D01*
X1220000Y1841299D02*
Y1878701D01*
X1201299Y1860000D02*
X1238701D01*
X1172756Y1838347D02*
X1267244D01*
X1172756Y1881654D02*
X1267244D01*
Y1838347D02*
Y1881654D01*
X1172756Y1838347D02*
Y1881654D01*
X1300000Y1681299D02*
Y1718701D01*
X1281299Y1700000D02*
X1318701D01*
X1252756Y1678347D02*
X1347244D01*
X1252756Y1721654D02*
X1347244D01*
Y1678347D02*
Y1721654D01*
X1252756Y1678347D02*
Y1721654D01*
X1581299Y2300000D02*
X1618701D01*
X1600000Y2281299D02*
Y2318701D01*
X1578347Y2252756D02*
Y2347244D01*
X1621654Y2252756D02*
Y2347244D01*
X1578347Y2252756D02*
X1621654D01*
X1578347Y2347244D02*
X1621654D01*
X1581299Y2720000D02*
X1618701D01*
X1600000Y2701299D02*
Y2738701D01*
X1578347Y2672756D02*
Y2767244D01*
X1621654Y2672756D02*
Y2767244D01*
X1578347Y2672756D02*
X1621654D01*
X1578347Y2767244D02*
X1621654D01*
X1520000Y2641299D02*
Y2678701D01*
X1501299Y2660000D02*
X1538701D01*
X1472756Y2638347D02*
X1567244D01*
X1472756Y2681654D02*
X1567244D01*
Y2638347D02*
Y2681654D01*
X1472756Y2638347D02*
Y2681654D01*
X1200000Y2281299D02*
Y2318701D01*
X1181299Y2300000D02*
X1218701D01*
X1152756Y2321653D02*
X1247244D01*
X1152756Y2278346D02*
X1247244D01*
X1152756D02*
Y2321653D01*
X1247244Y2278346D02*
Y2321653D01*
X2420000Y1901299D02*
Y1938701D01*
X2401299Y1920000D02*
X2438701D01*
X2372756Y1898347D02*
X2467244D01*
X2372756Y1941654D02*
X2467244D01*
Y1898347D02*
Y1941654D01*
X2372756Y1898347D02*
Y1941654D01*
X2300000Y1741299D02*
Y1778701D01*
X2281299Y1760000D02*
X2318701D01*
X2252756Y1738347D02*
X2347244D01*
X2252756Y1781654D02*
X2347244D01*
Y1738347D02*
Y1781654D01*
X2252756Y1738347D02*
Y1781654D01*
X2220000Y1841299D02*
Y1878701D01*
X2201299Y1860000D02*
X2238701D01*
X2172756Y1838347D02*
X2267244D01*
X2172756Y1881654D02*
X2267244D01*
Y1838347D02*
Y1881654D01*
X2172756Y1838347D02*
Y1881654D01*
X2300000Y1681299D02*
Y1718701D01*
X2281299Y1700000D02*
X2318701D01*
X2252756Y1678347D02*
X2347244D01*
X2252756Y1721654D02*
X2347244D01*
Y1678347D02*
Y1721654D01*
X2252756Y1678347D02*
Y1721654D01*
X2581299Y2300000D02*
X2618701D01*
X2600000Y2281299D02*
Y2318701D01*
X2578347Y2252756D02*
Y2347244D01*
X2621654Y2252756D02*
Y2347244D01*
X2578347Y2252756D02*
X2621654D01*
X2578347Y2347244D02*
X2621654D01*
X2901299Y2680000D02*
X2938701D01*
X2920000Y2661299D02*
Y2698701D01*
X2898347Y2632756D02*
Y2727244D01*
X2941654Y2632756D02*
Y2727244D01*
X2898347Y2632756D02*
X2941654D01*
X2898347Y2727244D02*
X2941654D01*
X2920000Y2521299D02*
Y2558701D01*
X2901299Y2540000D02*
X2938701D01*
X2872756Y2518347D02*
X2967244D01*
X2872756Y2561654D02*
X2967244D01*
Y2518347D02*
Y2561654D01*
X2872756Y2518347D02*
Y2561654D01*
X2200000Y2281299D02*
Y2318701D01*
X2181299Y2300000D02*
X2218701D01*
X2152756Y2321653D02*
X2247244D01*
X2152756Y2278346D02*
X2247244D01*
X2152756D02*
Y2321653D01*
X2247244Y2278346D02*
Y2321653D01*
X1202598Y2481260D02*
X1277401D01*
X1202598Y2638740D02*
X1277401D01*
X1202598Y2481260D02*
Y2638740D01*
X1277401Y2481260D02*
Y2638740D01*
X1240000Y2540315D02*
Y2579685D01*
X1220315Y2560000D02*
X1259685D01*
X1061260Y2022599D02*
Y2097402D01*
X1218740Y2022599D02*
Y2097402D01*
X1061260D02*
X1218740D01*
X1061260Y2022599D02*
X1218740D01*
X1120315Y2060000D02*
X1159685D01*
X1140000Y2040315D02*
Y2079685D01*
X2505512Y1680315D02*
Y1719685D01*
X2485827Y1700000D02*
X2525197D01*
X2420000Y2280315D02*
Y2319685D01*
X2400315Y2300000D02*
X2439685D01*
X2478740Y2502598D02*
Y2577401D01*
X2321260Y2502598D02*
Y2577401D01*
Y2502598D02*
X2478740D01*
X2321260Y2577401D02*
X2478740D01*
X2380315Y2540000D02*
X2419685D01*
X2400000Y2520315D02*
Y2559685D01*
X2061260Y2022599D02*
Y2097402D01*
X2218740Y2022599D02*
Y2097402D01*
X2061260D02*
X2218740D01*
X2061260Y2022599D02*
X2218740D01*
X2120315Y2060000D02*
X2159685D01*
X2140000Y2040315D02*
Y2079685D01*
X1720000Y2041299D02*
Y2078701D01*
X1701299Y2060000D02*
X1738701D01*
X1672756Y2038347D02*
X1767244D01*
X1672756Y2081654D02*
X1767244D01*
Y2038347D02*
Y2081654D01*
X1672756Y2038347D02*
Y2081654D01*
X1101260Y2342599D02*
Y2417402D01*
X1258740Y2342599D02*
Y2417402D01*
X1101260D02*
X1258740D01*
X1101260Y2342599D02*
X1258740D01*
X1160315Y2380000D02*
X1199685D01*
X1180000Y2360315D02*
Y2399685D01*
X1081260Y2122599D02*
Y2197402D01*
X1238740Y2122599D02*
Y2197402D01*
X1081260D02*
X1238740D01*
X1081260Y2122599D02*
X1238740D01*
X1140315Y2160000D02*
X1179685D01*
X1160000Y2140315D02*
Y2179685D01*
X1681260Y2362599D02*
Y2437402D01*
X1838740Y2362599D02*
Y2437402D01*
X1681260D02*
X1838740D01*
X1681260Y2362599D02*
X1838740D01*
X1740315Y2400000D02*
X1779685D01*
X1760000Y2380315D02*
Y2419685D01*
X1558740Y2502598D02*
Y2577401D01*
X1401260Y2502598D02*
Y2577401D01*
Y2502598D02*
X1558740D01*
X1401260Y2577401D02*
X1558740D01*
X1460315Y2540000D02*
X1499685D01*
X1480000Y2520315D02*
Y2559685D01*
X1582599Y2518740D02*
X1657402D01*
X1582599Y2361260D02*
X1657402D01*
Y2518740D01*
X1582599Y2361260D02*
Y2518740D01*
X1620000Y2420315D02*
Y2459685D01*
X1600315Y2440000D02*
X1639685D01*
X1862599Y2118740D02*
X1937402D01*
X1862599Y1961260D02*
X1937402D01*
Y2118740D01*
X1862599Y1961260D02*
Y2118740D01*
X1900000Y2020315D02*
Y2059685D01*
X1880315Y2040000D02*
X1919685D01*
X1698740Y1922598D02*
Y1997401D01*
X1541260Y1922598D02*
Y1997401D01*
Y1922598D02*
X1698740D01*
X1541260Y1997401D02*
X1698740D01*
X1600315Y1960000D02*
X1639685D01*
X1620000Y1940315D02*
Y1979685D01*
X1181260Y1542599D02*
Y1617402D01*
X1338740Y1542599D02*
Y1617402D01*
X1181260D02*
X1338740D01*
X1181260Y1542599D02*
X1338740D01*
X1240315Y1580000D02*
X1279685D01*
X1260000Y1560315D02*
Y1599685D01*
X1720000Y1461299D02*
Y1498701D01*
X1701299Y1480000D02*
X1738701D01*
X1672756Y1458347D02*
X1767244D01*
X1672756Y1501654D02*
X1767244D01*
Y1458347D02*
Y1501654D01*
X1672756Y1458347D02*
Y1501654D01*
X1862598Y1441260D02*
X1937401D01*
X1862598Y1598740D02*
X1937401D01*
X1862598Y1441260D02*
Y1598740D01*
X1937401Y1441260D02*
Y1598740D01*
X1900000Y1500315D02*
Y1539685D01*
X1880315Y1520000D02*
X1919685D01*
X1662599Y1718740D02*
X1737402D01*
X1662599Y1561260D02*
X1737402D01*
Y1718740D01*
X1662599Y1561260D02*
Y1718740D01*
X1700000Y1620315D02*
Y1659685D01*
X1680315Y1640000D02*
X1719685D01*
X1142598Y1661260D02*
X1217401D01*
X1142598Y1818740D02*
X1217401D01*
X1142598Y1661260D02*
Y1818740D01*
X1217401Y1661260D02*
Y1818740D01*
X1180000Y1720315D02*
Y1759685D01*
X1160315Y1740000D02*
X1199685D01*
X2862598Y1441260D02*
X2937401D01*
X2862598Y1598740D02*
X2937401D01*
X2862598Y1441260D02*
Y1598740D01*
X2937401Y1441260D02*
Y1598740D01*
X2900000Y1500315D02*
Y1539685D01*
X2880315Y1520000D02*
X2919685D01*
X2662599Y1718740D02*
X2737402D01*
X2662599Y1561260D02*
X2737402D01*
Y1718740D01*
X2662599Y1561260D02*
Y1718740D01*
X2700000Y1620315D02*
Y1659685D01*
X2680315Y1640000D02*
X2719685D01*
X2081260Y2122599D02*
Y2197402D01*
X2238740Y2122599D02*
Y2197402D01*
X2081260D02*
X2238740D01*
X2081260Y2122599D02*
X2238740D01*
X2140315Y2160000D02*
X2179685D01*
X2160000Y2140315D02*
Y2179685D01*
X2838740Y2502598D02*
Y2577401D01*
X2681260Y2502598D02*
Y2577401D01*
Y2502598D02*
X2838740D01*
X2681260Y2577401D02*
X2838740D01*
X2740315Y2540000D02*
X2779685D01*
X2760000Y2520315D02*
Y2559685D01*
X2142598Y1661260D02*
X2217401D01*
X2142598Y1818740D02*
X2217401D01*
X2142598Y1661260D02*
Y1818740D01*
X2217401Y1661260D02*
Y1818740D01*
X2180000Y1720315D02*
Y1759685D01*
X2160315Y1740000D02*
X2199685D01*
X2862599Y2118740D02*
X2937402D01*
X2862599Y1961260D02*
X2937402D01*
Y2118740D01*
X2862599Y1961260D02*
Y2118740D01*
X2900000Y2020315D02*
Y2059685D01*
X2880315Y2040000D02*
X2919685D01*
X2698740Y1922598D02*
Y1997401D01*
X2541260Y1922598D02*
Y1997401D01*
Y1922598D02*
X2698740D01*
X2541260Y1997401D02*
X2698740D01*
X2600315Y1960000D02*
X2639685D01*
X2620000Y1940315D02*
Y1979685D01*
X2681260Y2362599D02*
Y2437402D01*
X2838740Y2362599D02*
Y2437402D01*
X2681260D02*
X2838740D01*
X2681260Y2362599D02*
X2838740D01*
X2740315Y2400000D02*
X2779685D01*
X2760000Y2380315D02*
Y2419685D01*
X2582599Y2518740D02*
X2657402D01*
X2582599Y2361260D02*
X2657402D01*
Y2518740D01*
X2582599Y2361260D02*
Y2518740D01*
X2620000Y2420315D02*
Y2459685D01*
X2600315Y2440000D02*
X2639685D01*
X2181260Y1542599D02*
Y1617402D01*
X2338740Y1542599D02*
Y1617402D01*
X2181260D02*
X2338740D01*
X2181260Y1542599D02*
X2338740D01*
X2240315Y1580000D02*
X2279685D01*
X2260000Y1560315D02*
Y1599685D01*
X2101260Y2342599D02*
Y2417402D01*
X2258740Y2342599D02*
Y2417402D01*
X2101260D02*
X2258740D01*
X2101260Y2342599D02*
X2258740D01*
X2160315Y2380000D02*
X2199685D01*
X2180000Y2360315D02*
Y2399685D01*
X2720000Y1461299D02*
Y1498701D01*
X2701299Y1480000D02*
X2738701D01*
X2672756Y1458347D02*
X2767244D01*
X2672756Y1501654D02*
X2767244D01*
Y1458347D02*
Y1501654D01*
X2672756Y1458347D02*
Y1501654D01*
X2720000Y2041299D02*
Y2078701D01*
X2701299Y2060000D02*
X2738701D01*
X2672756Y2038347D02*
X2767244D01*
X2672756Y2081654D02*
X2767244D01*
Y2038347D02*
Y2081654D01*
X2672756Y2038347D02*
Y2081654D01*
X2298858Y1834016D02*
X2336260D01*
X2317559Y1815315D02*
Y1852716D01*
X2339213Y1786772D02*
Y1881260D01*
X2295905Y1786772D02*
Y1881260D01*
Y1786772D02*
X2339213D01*
X2295905Y1881260D02*
X2339213D01*
D50*
X2281339Y1590236D02*
Y2117795D01*
X1753780Y1590236D02*
Y2117795D01*
X2281339D01*
X1753780Y1590236D02*
X2281339D01*
X1357874Y1516929D02*
X1653150D01*
X1357874Y1883071D02*
X1653150D01*
Y1516929D02*
Y1883071D01*
X1357874Y1516929D02*
Y1883071D01*
X1272362Y2116929D02*
X1567638D01*
X1272362Y2483071D02*
X1567638D01*
Y2116929D02*
Y2483071D01*
X1272362Y2116929D02*
Y2483071D01*
X2557874Y2676732D02*
Y2893268D01*
X2853150Y2676732D02*
Y2893268D01*
X2557874D02*
X2853150D01*
X2557874Y2676732D02*
X2853150D01*
X1837874Y2666732D02*
Y2883268D01*
X2133150Y2666732D02*
Y2883268D01*
X1837874D02*
X2133150D01*
X1837874Y2666732D02*
X2133150D01*
X1152362Y2671732D02*
Y2888268D01*
X1447638Y2671732D02*
Y2888268D01*
X1152362D02*
X1447638D01*
X1152362Y2671732D02*
X1447638D01*
X1194016Y1109134D02*
X1445984D01*
X1194016Y1250866D02*
X1445984D01*
Y1109134D02*
Y1250866D01*
X1194016Y1109134D02*
Y1250866D01*
X2534016Y1129134D02*
X2785984D01*
X2534016Y1270866D02*
X2785984D01*
Y1129134D02*
Y1270866D01*
X2534016Y1129134D02*
Y1270866D01*
X2357874Y1516929D02*
X2653150D01*
X2357874Y1883071D02*
X2653150D01*
Y1516929D02*
Y1883071D01*
X2357874Y1516929D02*
Y1883071D01*
X2272362Y2116929D02*
X2567638D01*
X2272362Y2483071D02*
X2567638D01*
Y2116929D02*
Y2483071D01*
X2272362Y2116929D02*
Y2483071D01*
%TF.MD5,f8b4a717b05ec46e9c0fc9c259bfaaa0*%
M02*
