G04 Layer_Color=255*
%FSLAX26Y26*%
%MOIN*%
%TF.FileFunction,Pads,Bot*%
%TF.Part,Single*%
G01*
G75*
%TA.AperFunction,SMDPad,CuDef*%
%ADD12R,0.035433X0.031496*%
%ADD13R,0.043307X0.066929*%
%TA.AperFunction,ComponentPad*%
%ADD19C,0.059055*%
%ADD20R,0.059055X0.059055*%
%ADD21C,0.055118*%
%ADD22R,0.059055X0.059055*%
%TA.AperFunction,ViaPad*%
%ADD23C,0.160000*%
%TA.AperFunction,SMDPad,CuDef*%
%ADD25O,0.062992X0.021654*%
%ADD26O,0.021654X0.062992*%
D12*
X2317559Y1806457D02*
D03*
Y1861575D02*
D03*
D13*
X2110709Y1534016D02*
D03*
X2004409D02*
D03*
D19*
X2040000Y1120000D02*
D03*
X1900000Y2980000D02*
D03*
X2000000D02*
D03*
X2100000D02*
D03*
X2200000D02*
D03*
X1080000Y1640000D02*
D03*
Y1540000D02*
D03*
Y1440000D02*
D03*
X1840000Y1320000D02*
D03*
X1940000D02*
D03*
X2040000D02*
D03*
X2140000D02*
D03*
X2240000D02*
D03*
D20*
X2140000Y1120000D02*
D03*
X1800000Y2980000D02*
D03*
X2340000Y1320000D02*
D03*
D21*
X1190000Y1460000D02*
D03*
X1490000D02*
D03*
X1280000Y2060000D02*
D03*
X1580000D02*
D03*
X2190000Y1460000D02*
D03*
X2490000D02*
D03*
X2280000Y2060000D02*
D03*
X2580000D02*
D03*
D22*
X1080000Y1740000D02*
D03*
D23*
X1100000Y3200000D02*
D03*
X2900000D02*
D03*
D25*
X2240000Y2011496D02*
D03*
Y1980000D02*
D03*
Y1948504D02*
D03*
Y1917008D02*
D03*
Y1885512D02*
D03*
Y1854016D02*
D03*
Y1822520D02*
D03*
Y1791024D02*
D03*
Y1759528D02*
D03*
Y1728032D02*
D03*
Y1696535D02*
D03*
X1795118D02*
D03*
Y1728032D02*
D03*
Y1759528D02*
D03*
Y1791024D02*
D03*
Y1822520D02*
D03*
Y1854016D02*
D03*
Y1885512D02*
D03*
Y1917008D02*
D03*
Y1948504D02*
D03*
Y1980000D02*
D03*
Y2011496D02*
D03*
D26*
X2175039Y1631575D02*
D03*
X2143543D02*
D03*
X2112047D02*
D03*
X2080551D02*
D03*
X2049055D02*
D03*
X2017559D02*
D03*
X1986063D02*
D03*
X1954567D02*
D03*
X1923071D02*
D03*
X1891575D02*
D03*
X1860079D02*
D03*
Y2076457D02*
D03*
X1891575D02*
D03*
X1923071D02*
D03*
X1954567D02*
D03*
X1986063D02*
D03*
X2017559D02*
D03*
X2049055D02*
D03*
X2080551D02*
D03*
X2112047D02*
D03*
X2143543D02*
D03*
X2175039D02*
D03*
%TF.MD5,9b059ac9a075c0aa6a932e3d06ab468d*%
M02*
