G04 Layer_Color=8388736*
%FSLAX26Y26*%
%MOIN*%
%TF.FileFunction,Soldermask,Top*%
%TF.Part,Single*%
G01*
G75*
%TA.AperFunction,SMDPad,CuDef*%
%ADD32O,0.094614X0.031622*%
%ADD33R,0.074929X0.051307*%
%ADD34R,0.043433X0.039496*%
%ADD35R,0.051307X0.074929*%
%ADD36O,0.074929X0.025716*%
%ADD37R,0.039496X0.043433*%
%ADD38R,0.041465X0.070992*%
%TA.AperFunction,ComponentPad*%
%ADD39C,0.067055*%
%ADD40R,0.067055X0.067055*%
%ADD41C,0.063118*%
%ADD42R,0.067055X0.067055*%
%TA.AperFunction,ViaPad*%
%ADD43C,0.168000*%
%ADD44C,0.058000*%
D32*
X1600000Y1550000D02*
D03*
Y1600000D02*
D03*
Y1650000D02*
D03*
Y1700000D02*
D03*
Y1750000D02*
D03*
Y1800000D02*
D03*
Y1850000D02*
D03*
X1411024Y1550000D02*
D03*
Y1600000D02*
D03*
Y1650000D02*
D03*
Y1700000D02*
D03*
Y1750000D02*
D03*
Y1800000D02*
D03*
Y1850000D02*
D03*
X1514488Y2150000D02*
D03*
Y2200000D02*
D03*
Y2250000D02*
D03*
Y2300000D02*
D03*
Y2350000D02*
D03*
Y2400000D02*
D03*
Y2450000D02*
D03*
X1325512Y2150000D02*
D03*
Y2200000D02*
D03*
Y2250000D02*
D03*
Y2300000D02*
D03*
Y2350000D02*
D03*
Y2400000D02*
D03*
Y2450000D02*
D03*
X2611024Y2860000D02*
D03*
Y2810000D02*
D03*
Y2760000D02*
D03*
Y2710000D02*
D03*
X2800000Y2860000D02*
D03*
Y2810000D02*
D03*
Y2760000D02*
D03*
Y2710000D02*
D03*
X1891024Y2850000D02*
D03*
Y2800000D02*
D03*
Y2750000D02*
D03*
Y2700000D02*
D03*
X2080000Y2850000D02*
D03*
Y2800000D02*
D03*
Y2750000D02*
D03*
Y2700000D02*
D03*
X1205512Y2855000D02*
D03*
Y2805000D02*
D03*
Y2755000D02*
D03*
Y2705000D02*
D03*
X1394488Y2855000D02*
D03*
Y2805000D02*
D03*
Y2755000D02*
D03*
Y2705000D02*
D03*
X2600000Y1550000D02*
D03*
Y1600000D02*
D03*
Y1650000D02*
D03*
Y1700000D02*
D03*
Y1750000D02*
D03*
Y1800000D02*
D03*
Y1850000D02*
D03*
X2411024Y1550000D02*
D03*
Y1600000D02*
D03*
Y1650000D02*
D03*
Y1700000D02*
D03*
Y1750000D02*
D03*
Y1800000D02*
D03*
Y1850000D02*
D03*
X2514488Y2150000D02*
D03*
Y2200000D02*
D03*
Y2250000D02*
D03*
Y2300000D02*
D03*
Y2350000D02*
D03*
Y2400000D02*
D03*
Y2450000D02*
D03*
X2325512Y2150000D02*
D03*
Y2200000D02*
D03*
Y2250000D02*
D03*
Y2300000D02*
D03*
Y2350000D02*
D03*
Y2400000D02*
D03*
Y2450000D02*
D03*
D33*
X2660000Y2946850D02*
D03*
Y3053150D02*
D03*
X2760000Y2946850D02*
D03*
Y3053150D02*
D03*
X1240000Y2946850D02*
D03*
Y3053150D02*
D03*
X1360000Y2946850D02*
D03*
Y3053150D02*
D03*
X1780000Y2873150D02*
D03*
Y2766850D02*
D03*
X2340000Y2833150D02*
D03*
Y2726850D02*
D03*
X2240000Y2833150D02*
D03*
Y2726850D02*
D03*
X2480000Y1253150D02*
D03*
Y1146850D02*
D03*
X1580000Y1086850D02*
D03*
Y1193150D02*
D03*
X1140000Y1333150D02*
D03*
Y1226850D02*
D03*
Y1173150D02*
D03*
Y1066850D02*
D03*
X1240000Y2506850D02*
D03*
Y2613150D02*
D03*
X1620000Y2493150D02*
D03*
Y2386850D02*
D03*
X1900000Y2093150D02*
D03*
Y1986850D02*
D03*
Y1466850D02*
D03*
Y1573150D02*
D03*
X1700000Y1693150D02*
D03*
Y1586850D02*
D03*
X1180000Y1686850D02*
D03*
Y1793150D02*
D03*
X2900000Y1466850D02*
D03*
Y1573150D02*
D03*
X2700000Y1693150D02*
D03*
Y1586850D02*
D03*
X2180000Y1686850D02*
D03*
Y1793150D02*
D03*
X2900000Y2093150D02*
D03*
Y1986850D02*
D03*
X2620000Y2493150D02*
D03*
Y2386850D02*
D03*
D34*
X2160000Y2712441D02*
D03*
Y2767559D02*
D03*
X1480000Y1132441D02*
D03*
Y1187559D02*
D03*
X2840000Y1280000D02*
D03*
Y1224882D02*
D03*
X2520000Y2712441D02*
D03*
Y2767559D02*
D03*
X2160000Y2887559D02*
D03*
Y2832441D02*
D03*
X1600000Y2272441D02*
D03*
Y2327559D02*
D03*
Y2692441D02*
D03*
Y2747559D02*
D03*
X2600000Y2272441D02*
D03*
Y2327559D02*
D03*
X2920000Y2652441D02*
D03*
Y2707559D02*
D03*
D35*
X2626850Y1340000D02*
D03*
X2733150D02*
D03*
X2746850Y1080000D02*
D03*
X2853150D02*
D03*
X1366850Y1300000D02*
D03*
X1473150D02*
D03*
X1493150Y1060000D02*
D03*
X1386850D02*
D03*
X1653150Y1300000D02*
D03*
X1546850D02*
D03*
X1086850Y2060000D02*
D03*
X1193150D02*
D03*
X2453150Y2540000D02*
D03*
X2346850D02*
D03*
X2086850Y2060000D02*
D03*
X2193150D02*
D03*
X1126850Y2380000D02*
D03*
X1233150D02*
D03*
X1106850Y2160000D02*
D03*
X1213150D02*
D03*
X1706850Y2400000D02*
D03*
X1813150D02*
D03*
X1533150Y2540000D02*
D03*
X1426850D02*
D03*
X1673150Y1960000D02*
D03*
X1566850D02*
D03*
X1206850Y1580000D02*
D03*
X1313150D02*
D03*
X2106850Y2160000D02*
D03*
X2213150D02*
D03*
X2813150Y2540000D02*
D03*
X2706850D02*
D03*
X2673150Y1960000D02*
D03*
X2566850D02*
D03*
X2706850Y2400000D02*
D03*
X2813150D02*
D03*
X2206850Y1580000D02*
D03*
X2313150D02*
D03*
X2126850Y2380000D02*
D03*
X2233150D02*
D03*
D36*
X1402677Y1141614D02*
D03*
Y1167205D02*
D03*
Y1192795D02*
D03*
Y1218386D02*
D03*
X1237323Y1141614D02*
D03*
Y1167205D02*
D03*
Y1192795D02*
D03*
Y1218386D02*
D03*
X2742677Y1161614D02*
D03*
Y1187205D02*
D03*
Y1212795D02*
D03*
Y1238386D02*
D03*
X2577323Y1161614D02*
D03*
Y1187205D02*
D03*
Y1212795D02*
D03*
Y1238386D02*
D03*
D37*
X2880000Y2820000D02*
D03*
X2935118D02*
D03*
X1807559Y2700000D02*
D03*
X1752441D02*
D03*
X1127559Y2720000D02*
D03*
X1072441D02*
D03*
X1472441Y2800000D02*
D03*
X1527559D02*
D03*
X1447559Y1920000D02*
D03*
X1392441D02*
D03*
X1327559Y1760000D02*
D03*
X1272441D02*
D03*
X1247559Y1860000D02*
D03*
X1192441D02*
D03*
X1327559Y1700000D02*
D03*
X1272441D02*
D03*
X1547559Y2660000D02*
D03*
X1492441D02*
D03*
X1172441Y2300000D02*
D03*
X1227559D02*
D03*
X2447559Y1920000D02*
D03*
X2392441D02*
D03*
X2327559Y1760000D02*
D03*
X2272441D02*
D03*
X2247559Y1860000D02*
D03*
X2192441D02*
D03*
X2327559Y1700000D02*
D03*
X2272441D02*
D03*
X2947559Y2540000D02*
D03*
X2892441D02*
D03*
X2172441Y2300000D02*
D03*
X2227559D02*
D03*
X1747559Y2060000D02*
D03*
X1692441D02*
D03*
X1747559Y1480000D02*
D03*
X1692441D02*
D03*
X2747559D02*
D03*
X2692441D02*
D03*
X2747559Y2060000D02*
D03*
X2692441D02*
D03*
D38*
X1720000Y1246929D02*
D03*
Y1113071D02*
D03*
X1800000Y1726929D02*
D03*
Y1593071D02*
D03*
Y2153071D02*
D03*
Y2286929D02*
D03*
X1700000Y2153071D02*
D03*
Y2286929D02*
D03*
X2800000Y1726929D02*
D03*
Y1593071D02*
D03*
Y2153071D02*
D03*
Y2286929D02*
D03*
X2700000Y2153071D02*
D03*
Y2286929D02*
D03*
D39*
X2040000Y1120000D02*
D03*
X1900000Y2980000D02*
D03*
X2000000D02*
D03*
X2100000D02*
D03*
X2200000D02*
D03*
X1080000Y1640000D02*
D03*
Y1540000D02*
D03*
Y1440000D02*
D03*
X1840000Y1320000D02*
D03*
X1940000D02*
D03*
X2040000D02*
D03*
X2140000D02*
D03*
X2240000D02*
D03*
D40*
X2140000Y1120000D02*
D03*
X1800000Y2980000D02*
D03*
X2340000Y1320000D02*
D03*
D41*
X1190000Y1460000D02*
D03*
X1490000D02*
D03*
X1280000Y2060000D02*
D03*
X1580000D02*
D03*
X2190000Y1460000D02*
D03*
X2490000D02*
D03*
X2280000Y2060000D02*
D03*
X2580000D02*
D03*
D42*
X1080000Y1740000D02*
D03*
D43*
X1100000Y3200000D02*
D03*
X2900000D02*
D03*
D44*
X1700000Y1100000D02*
D03*
X1600000Y1460000D02*
D03*
X2620000Y2240000D02*
D03*
X2800000Y2540000D02*
D03*
Y2680000D02*
D03*
X2960000Y3000000D02*
D03*
X2240000Y2300000D02*
D03*
X1420000Y2700000D02*
D03*
X1580000Y2600000D02*
D03*
X2080000Y2540000D02*
D03*
Y2700000D02*
D03*
X2420000Y2780000D02*
D03*
X2160000Y2820000D02*
D03*
X2080000Y2860000D02*
D03*
X2880000Y2820000D02*
D03*
X1460000Y2800000D02*
D03*
X1820000Y2680000D02*
D03*
X2520000Y2300000D02*
D03*
X2600000Y2700000D02*
D03*
X1180000D02*
D03*
Y1960000D02*
D03*
X1220000Y1780000D02*
D03*
X1200000Y1580000D02*
D03*
X1160000Y2280000D02*
D03*
X1540000Y2300000D02*
D03*
X1060000Y1320000D02*
D03*
X1620000Y2220000D02*
D03*
X1260000Y2300000D02*
D03*
X2320000Y1860000D02*
D03*
X1600000Y1820000D02*
D03*
X2600000D02*
D03*
X1340000Y1700000D02*
D03*
X2340000D02*
D03*
X2940000Y1040000D02*
D03*
Y1140000D02*
D03*
X2840000Y1340000D02*
D03*
X2940000Y1240000D02*
D03*
Y1340000D02*
D03*
%TF.MD5,ea21fc189e2e80e3f34128d68224421f*%
M02*
