G04 Layer_Color=16711935*
%FSLAX26Y26*%
%MOIN*%
%TF.FileFunction,Other,Mechanical_13*%
%TF.Part,Single*%
G01*
G75*
%TA.AperFunction,NonConductor*%
%ADD49C,0.003937*%
D49*
X2198661Y2015433D02*
G03*
X2198661Y2015433I-19685J0D01*
G01*
X1481890Y1837795D02*
G03*
X1481890Y1837795I-19685J0D01*
G01*
X1396378Y2437795D02*
G03*
X1396378Y2437795I-19685J0D01*
G01*
X2681890Y2847992D02*
G03*
X2681890Y2847992I-19685J0D01*
G01*
X1961890Y2837992D02*
G03*
X1961890Y2837992I-19685J0D01*
G01*
X1276378Y2842992D02*
G03*
X1276378Y2842992I-19685J0D01*
G01*
X1314094Y1205591D02*
G03*
X1314094Y1205591I-19685J0D01*
G01*
X2654095Y1225591D02*
G03*
X2654095Y1225591I-19685J0D01*
G01*
X2481890Y1837795D02*
G03*
X2481890Y1837795I-19685J0D01*
G01*
X2396378Y2437795D02*
G03*
X2396378Y2437795I-19685J0D01*
G01*
X2214409Y1657165D02*
Y2050866D01*
X1820709Y1657165D02*
Y2050866D01*
X2214409D01*
X1820709Y1657165D02*
X2214409D01*
X2124488Y1498583D02*
Y1569449D01*
X1990630Y1498583D02*
Y1569449D01*
X2124488D01*
X1990630Y1498583D02*
X2124488D01*
X1426772Y1527756D02*
X1584252D01*
X1426772Y1872244D02*
X1584252D01*
Y1527756D02*
Y1872244D01*
X1426772Y1527756D02*
Y1872244D01*
X1341260Y2127756D02*
X1498740D01*
X1341260Y2472244D02*
X1498740D01*
Y2127756D02*
Y2472244D01*
X1341260Y2127756D02*
Y2472244D01*
X2624567Y2933071D02*
X2695433D01*
X2624567Y3066929D02*
X2695433D01*
X2624567Y2933071D02*
Y3066929D01*
X2695433Y2933071D02*
Y3066929D01*
X2724567Y2933071D02*
X2795433D01*
X2724567Y3066929D02*
X2795433D01*
X2724567Y2933071D02*
Y3066929D01*
X2795433Y2933071D02*
Y3066929D01*
X1204567Y2933071D02*
X1275433D01*
X1204567Y3066929D02*
X1275433D01*
X1204567Y2933071D02*
Y3066929D01*
X1275433Y2933071D02*
Y3066929D01*
X1324567Y2933071D02*
X1395433D01*
X1324567Y3066929D02*
X1395433D01*
X1324567Y2933071D02*
Y3066929D01*
X1395433Y2933071D02*
Y3066929D01*
X2141299Y2705551D02*
Y2774449D01*
X2178701Y2705551D02*
Y2774449D01*
X2141299Y2705551D02*
X2178701D01*
X2141299Y2774449D02*
X2178701D01*
X1744567Y2886929D02*
X1815433D01*
X1744567Y2753071D02*
X1815433D01*
Y2886929D01*
X1744567Y2753071D02*
Y2886929D01*
X2304567Y2846929D02*
X2375433D01*
X2304567Y2713071D02*
X2375433D01*
Y2846929D01*
X2304567Y2713071D02*
Y2846929D01*
X2204567D02*
X2275433D01*
X2204567Y2713071D02*
X2275433D01*
Y2846929D01*
X2204567Y2713071D02*
Y2846929D01*
X2626772Y2686575D02*
Y2883425D01*
X2784252Y2686575D02*
Y2883425D01*
X2626772D02*
X2784252D01*
X2626772Y2686575D02*
X2784252D01*
X1906772Y2676575D02*
Y2873425D01*
X2064252Y2676575D02*
Y2873425D01*
X1906772D02*
X2064252D01*
X1906772Y2676575D02*
X2064252D01*
X1221260Y2681575D02*
Y2878425D01*
X1378740Y2681575D02*
Y2878425D01*
X1221260D02*
X1378740D01*
X1221260Y2681575D02*
X1378740D01*
X1461299Y1125551D02*
Y1194449D01*
X1498701Y1125551D02*
Y1194449D01*
X1461299Y1125551D02*
X1498701D01*
X1461299Y1194449D02*
X1498701D01*
X2613071Y1304567D02*
Y1375433D01*
X2746929Y1304567D02*
Y1375433D01*
X2613071D02*
X2746929D01*
X2613071Y1304567D02*
X2746929D01*
X2858701Y1217992D02*
Y1286890D01*
X2821299Y1217992D02*
Y1286890D01*
X2858701D01*
X2821299Y1217992D02*
X2858701D01*
X2444567Y1266929D02*
X2515433D01*
X2444567Y1133071D02*
X2515433D01*
Y1266929D01*
X2444567Y1133071D02*
Y1266929D01*
X2733071Y1044567D02*
Y1115433D01*
X2866929Y1044567D02*
Y1115433D01*
X2733071D02*
X2866929D01*
X2733071Y1044567D02*
X2866929D01*
X1544567Y1073071D02*
X1615433D01*
X1544567Y1206929D02*
X1615433D01*
X1544567Y1073071D02*
Y1206929D01*
X1615433Y1073071D02*
Y1206929D01*
X1353071Y1264567D02*
Y1335433D01*
X1486929Y1264567D02*
Y1335433D01*
X1353071D02*
X1486929D01*
X1353071Y1264567D02*
X1486929D01*
X1506929Y1024567D02*
Y1095433D01*
X1373071Y1024567D02*
Y1095433D01*
Y1024567D02*
X1506929D01*
X1373071Y1095433D02*
X1506929D01*
X1104567Y1346929D02*
X1175433D01*
X1104567Y1213071D02*
X1175433D01*
Y1346929D01*
X1104567Y1213071D02*
Y1346929D01*
Y1186929D02*
X1175433D01*
X1104567Y1053071D02*
X1175433D01*
Y1186929D01*
X1104567Y1053071D02*
Y1186929D01*
X1666929Y1264567D02*
Y1335433D01*
X1533071Y1264567D02*
Y1335433D01*
Y1264567D02*
X1666929D01*
X1533071Y1335433D02*
X1666929D01*
X1258976Y1118976D02*
X1381024D01*
X1258976Y1241024D02*
X1381024D01*
Y1118976D02*
Y1241024D01*
X1258976Y1118976D02*
Y1241024D01*
X2598976Y1138976D02*
X2721024D01*
X2598976Y1261024D02*
X2721024D01*
Y1138976D02*
Y1261024D01*
X2598976Y1138976D02*
Y1261024D01*
X2501299Y2705551D02*
Y2774449D01*
X2538701Y2705551D02*
Y2774449D01*
X2501299Y2705551D02*
X2538701D01*
X2501299Y2774449D02*
X2538701D01*
X2873110Y2838701D02*
X2942008D01*
X2873110Y2801299D02*
X2942008D01*
X2873110D02*
Y2838701D01*
X2942008Y2801299D02*
Y2838701D01*
X1745551Y2681299D02*
X1814449D01*
X1745551Y2718701D02*
X1814449D01*
Y2681299D02*
Y2718701D01*
X1745551Y2681299D02*
Y2718701D01*
X2178701Y2825551D02*
Y2894449D01*
X2141299Y2825551D02*
Y2894449D01*
X2178701D01*
X2141299Y2825551D02*
X2178701D01*
X1065551Y2701299D02*
X1134449D01*
X1065551Y2738701D02*
X1134449D01*
Y2701299D02*
Y2738701D01*
X1065551Y2701299D02*
Y2738701D01*
X1465551Y2818701D02*
X1534449D01*
X1465551Y2781299D02*
X1534449D01*
X1465551D02*
Y2818701D01*
X1534449Y2781299D02*
Y2818701D01*
X1385551Y1901299D02*
X1454449D01*
X1385551Y1938701D02*
X1454449D01*
Y1901299D02*
Y1938701D01*
X1385551Y1901299D02*
Y1938701D01*
X1265551Y1741299D02*
X1334449D01*
X1265551Y1778701D02*
X1334449D01*
Y1741299D02*
Y1778701D01*
X1265551Y1741299D02*
Y1778701D01*
X1185551Y1841299D02*
X1254449D01*
X1185551Y1878701D02*
X1254449D01*
Y1841299D02*
Y1878701D01*
X1185551Y1841299D02*
Y1878701D01*
X1265551Y1681299D02*
X1334449D01*
X1265551Y1718701D02*
X1334449D01*
Y1681299D02*
Y1718701D01*
X1265551Y1681299D02*
Y1718701D01*
X1581299Y2265551D02*
Y2334449D01*
X1618701Y2265551D02*
Y2334449D01*
X1581299Y2265551D02*
X1618701D01*
X1581299Y2334449D02*
X1618701D01*
X1581299Y2685551D02*
Y2754449D01*
X1618701Y2685551D02*
Y2754449D01*
X1581299Y2685551D02*
X1618701D01*
X1581299Y2754449D02*
X1618701D01*
X1485551Y2641299D02*
X1554449D01*
X1485551Y2678701D02*
X1554449D01*
Y2641299D02*
Y2678701D01*
X1485551Y2641299D02*
Y2678701D01*
X1165551Y2318701D02*
X1234449D01*
X1165551Y2281299D02*
X1234449D01*
X1165551D02*
Y2318701D01*
X1234449Y2281299D02*
Y2318701D01*
X2385551Y1901299D02*
X2454449D01*
X2385551Y1938701D02*
X2454449D01*
Y1901299D02*
Y1938701D01*
X2385551Y1901299D02*
Y1938701D01*
X2265551Y1741299D02*
X2334449D01*
X2265551Y1778701D02*
X2334449D01*
Y1741299D02*
Y1778701D01*
X2265551Y1741299D02*
Y1778701D01*
X2185551Y1841299D02*
X2254449D01*
X2185551Y1878701D02*
X2254449D01*
Y1841299D02*
Y1878701D01*
X2185551Y1841299D02*
Y1878701D01*
X2265551Y1681299D02*
X2334449D01*
X2265551Y1718701D02*
X2334449D01*
Y1681299D02*
Y1718701D01*
X2265551Y1681299D02*
Y1718701D01*
X2581299Y2265551D02*
Y2334449D01*
X2618701Y2265551D02*
Y2334449D01*
X2581299Y2265551D02*
X2618701D01*
X2581299Y2334449D02*
X2618701D01*
X2901299Y2645551D02*
Y2714449D01*
X2938701Y2645551D02*
Y2714449D01*
X2901299Y2645551D02*
X2938701D01*
X2901299Y2714449D02*
X2938701D01*
X2885551Y2521299D02*
X2954449D01*
X2885551Y2558701D02*
X2954449D01*
Y2521299D02*
Y2558701D01*
X2885551Y2521299D02*
Y2558701D01*
X2165551Y2318701D02*
X2234449D01*
X2165551Y2281299D02*
X2234449D01*
X2165551D02*
Y2318701D01*
X2234449Y2281299D02*
Y2318701D01*
X1204567Y2493071D02*
X1275433D01*
X1204567Y2626929D02*
X1275433D01*
X1204567Y2493071D02*
Y2626929D01*
X1275433Y2493071D02*
Y2626929D01*
X1073071Y2024567D02*
Y2095433D01*
X1206929Y2024567D02*
Y2095433D01*
X1073071D02*
X1206929D01*
X1073071Y2024567D02*
X1206929D01*
X2426772Y1527756D02*
X2584252D01*
X2426772Y1872244D02*
X2584252D01*
Y1527756D02*
Y1872244D01*
X2426772Y1527756D02*
Y1872244D01*
X2341260Y2127756D02*
X2498740D01*
X2341260Y2472244D02*
X2498740D01*
Y2127756D02*
Y2472244D01*
X2341260Y2127756D02*
Y2472244D01*
X2466929Y2504567D02*
Y2575433D01*
X2333071Y2504567D02*
Y2575433D01*
Y2504567D02*
X2466929D01*
X2333071Y2575433D02*
X2466929D01*
X2073071Y2024567D02*
Y2095433D01*
X2206929Y2024567D02*
Y2095433D01*
X2073071D02*
X2206929D01*
X2073071Y2024567D02*
X2206929D01*
X1685551Y2041299D02*
X1754449D01*
X1685551Y2078701D02*
X1754449D01*
Y2041299D02*
Y2078701D01*
X1685551Y2041299D02*
Y2078701D01*
X1113071Y2344567D02*
Y2415433D01*
X1246929Y2344567D02*
Y2415433D01*
X1113071D02*
X1246929D01*
X1113071Y2344567D02*
X1246929D01*
X1093071Y2124567D02*
Y2195433D01*
X1226929Y2124567D02*
Y2195433D01*
X1093071D02*
X1226929D01*
X1093071Y2124567D02*
X1226929D01*
X1693071Y2364567D02*
Y2435433D01*
X1826929Y2364567D02*
Y2435433D01*
X1693071D02*
X1826929D01*
X1693071Y2364567D02*
X1826929D01*
X1546929Y2504567D02*
Y2575433D01*
X1413071Y2504567D02*
Y2575433D01*
Y2504567D02*
X1546929D01*
X1413071Y2575433D02*
X1546929D01*
X1584567Y2506929D02*
X1655433D01*
X1584567Y2373071D02*
X1655433D01*
Y2506929D01*
X1584567Y2373071D02*
Y2506929D01*
X1864567Y2106929D02*
X1935433D01*
X1864567Y1973071D02*
X1935433D01*
Y2106929D01*
X1864567Y1973071D02*
Y2106929D01*
X1686929Y1924567D02*
Y1995433D01*
X1553071Y1924567D02*
Y1995433D01*
Y1924567D02*
X1686929D01*
X1553071Y1995433D02*
X1686929D01*
X1193071Y1544567D02*
Y1615433D01*
X1326929Y1544567D02*
Y1615433D01*
X1193071D02*
X1326929D01*
X1193071Y1544567D02*
X1326929D01*
X1685551Y1461299D02*
X1754449D01*
X1685551Y1498701D02*
X1754449D01*
Y1461299D02*
Y1498701D01*
X1685551Y1461299D02*
Y1498701D01*
X1864567Y1453071D02*
X1935433D01*
X1864567Y1586929D02*
X1935433D01*
X1864567Y1453071D02*
Y1586929D01*
X1935433Y1453071D02*
Y1586929D01*
X1664567Y1706929D02*
X1735433D01*
X1664567Y1573071D02*
X1735433D01*
Y1706929D01*
X1664567Y1573071D02*
Y1706929D01*
X1144567Y1673071D02*
X1215433D01*
X1144567Y1806929D02*
X1215433D01*
X1144567Y1673071D02*
Y1806929D01*
X1215433Y1673071D02*
Y1806929D01*
X2864567Y1453071D02*
X2935433D01*
X2864567Y1586929D02*
X2935433D01*
X2864567Y1453071D02*
Y1586929D01*
X2935433Y1453071D02*
Y1586929D01*
X2664567Y1706929D02*
X2735433D01*
X2664567Y1573071D02*
X2735433D01*
Y1706929D01*
X2664567Y1573071D02*
Y1706929D01*
X2093071Y2124567D02*
Y2195433D01*
X2226929Y2124567D02*
Y2195433D01*
X2093071D02*
X2226929D01*
X2093071Y2124567D02*
X2226929D01*
X2826929Y2504567D02*
Y2575433D01*
X2693071Y2504567D02*
Y2575433D01*
Y2504567D02*
X2826929D01*
X2693071Y2575433D02*
X2826929D01*
X2144567Y1673071D02*
X2215433D01*
X2144567Y1806929D02*
X2215433D01*
X2144567Y1673071D02*
Y1806929D01*
X2215433Y1673071D02*
Y1806929D01*
X2864567Y2106929D02*
X2935433D01*
X2864567Y1973071D02*
X2935433D01*
Y2106929D01*
X2864567Y1973071D02*
Y2106929D01*
X2686929Y1924567D02*
Y1995433D01*
X2553071Y1924567D02*
Y1995433D01*
Y1924567D02*
X2686929D01*
X2553071Y1995433D02*
X2686929D01*
X2693071Y2364567D02*
Y2435433D01*
X2826929Y2364567D02*
Y2435433D01*
X2693071D02*
X2826929D01*
X2693071Y2364567D02*
X2826929D01*
X2584567Y2506929D02*
X2655433D01*
X2584567Y2373071D02*
X2655433D01*
Y2506929D01*
X2584567Y2373071D02*
Y2506929D01*
X2193071Y1544567D02*
Y1615433D01*
X2326929Y1544567D02*
Y1615433D01*
X2193071D02*
X2326929D01*
X2193071Y1544567D02*
X2326929D01*
X2113071Y2344567D02*
Y2415433D01*
X2246929Y2344567D02*
Y2415433D01*
X2113071D02*
X2246929D01*
X2113071Y2344567D02*
X2246929D01*
X2685551Y1461299D02*
X2754449D01*
X2685551Y1498701D02*
X2754449D01*
Y1461299D02*
Y1498701D01*
X2685551Y1461299D02*
Y1498701D01*
Y2041299D02*
X2754449D01*
X2685551Y2078701D02*
X2754449D01*
Y2041299D02*
Y2078701D01*
X2685551Y2041299D02*
Y2078701D01*
X2336260Y1799567D02*
Y1868465D01*
X2298858Y1799567D02*
Y1868465D01*
Y1799567D02*
X2336260D01*
X2298858Y1868465D02*
X2336260D01*
%TF.MD5,b667ee650eac940428bffdf4b64172ac*%
M02*
