G04 Layer_Color=16711935*
%FSLAX26Y26*%
%MOIN*%
%TF.FileFunction,Soldermask,Bot*%
%TF.Part,Single*%
G01*
G75*
%TA.AperFunction,SMDPad,CuDef*%
%ADD35R,0.039496X0.043433*%
%ADD36R,0.051307X0.074929*%
%ADD37R,0.074929X0.051307*%
%ADD38O,0.094614X0.031622*%
%ADD39R,0.070992X0.041465*%
%ADD40R,0.043433X0.039496*%
%TA.AperFunction,ComponentPad*%
%ADD44C,0.063118*%
%TA.AperFunction,ViaPad*%
%ADD45C,0.168000*%
%TA.AperFunction,ComponentPad*%
%ADD46C,0.067055*%
%ADD47R,0.067055X0.067055*%
%ADD48R,0.067055X0.067055*%
%TA.AperFunction,ViaPad*%
%ADD49C,0.033000*%
%TA.AperFunction,SMDPad,CuDef*%
%ADD51O,0.031622X0.094614*%
%ADD52O,0.074929X0.025716*%
D35*
X2264882Y2160000D02*
D03*
X2320000D02*
D03*
X2504882Y2240000D02*
D03*
X2560000D02*
D03*
X2197322Y2000000D02*
D03*
X2252442D02*
D03*
X2324882Y2240000D02*
D03*
X2380000D02*
D03*
X2360000Y2000000D02*
D03*
X2304882D02*
D03*
X2724882Y2020000D02*
D03*
X2780000D02*
D03*
X2095118Y2740000D02*
D03*
X2040000D02*
D03*
X1940000Y2380000D02*
D03*
X1995118D02*
D03*
X1507560Y2860000D02*
D03*
X1452442D02*
D03*
X2500590Y2465512D02*
D03*
X2555708D02*
D03*
X2060000Y1280000D02*
D03*
X2004882D02*
D03*
X1332440Y1686300D02*
D03*
X1387560D02*
D03*
D36*
X2099292Y2200000D02*
D03*
X2205590D02*
D03*
X2239292Y2080000D02*
D03*
X2345590D02*
D03*
X2745590Y1760000D02*
D03*
X2639292D02*
D03*
X2745590Y2280000D02*
D03*
X2639292D02*
D03*
X2199292Y1780000D02*
D03*
X2305590D02*
D03*
X2419292Y1760000D02*
D03*
X2525590D02*
D03*
X1533150Y2480000D02*
D03*
X1426850D02*
D03*
X2466850Y2840000D02*
D03*
X2573150D02*
D03*
X1833150Y1520000D02*
D03*
X1726850D02*
D03*
Y1620000D02*
D03*
X1833150D02*
D03*
X1806850Y1260000D02*
D03*
X1913150D02*
D03*
X1493150Y1426300D02*
D03*
X1386850D02*
D03*
D37*
X2112442Y1986850D02*
D03*
Y2093150D02*
D03*
X2752442Y2193150D02*
D03*
Y2086850D02*
D03*
X2739370Y1953150D02*
D03*
Y1846850D02*
D03*
X2167560Y2573150D02*
D03*
Y2466850D02*
D03*
Y2753150D02*
D03*
Y2646850D02*
D03*
X1847560Y2546850D02*
D03*
Y2653150D02*
D03*
X1640000Y2813150D02*
D03*
Y2706850D02*
D03*
Y2526850D02*
D03*
Y2633150D02*
D03*
X2360000Y2506850D02*
D03*
Y2613150D02*
D03*
Y2793150D02*
D03*
Y2686850D02*
D03*
X1640000Y1619448D02*
D03*
Y1513150D02*
D03*
X1600000Y1446300D02*
D03*
Y1340000D02*
D03*
X1260000Y1406850D02*
D03*
Y1513150D02*
D03*
Y1593150D02*
D03*
Y1699448D02*
D03*
X2120000Y1366850D02*
D03*
Y1473150D02*
D03*
D38*
X2439370Y1850000D02*
D03*
Y1900000D02*
D03*
Y1950000D02*
D03*
Y2000000D02*
D03*
Y2050000D02*
D03*
Y2100000D02*
D03*
Y2150000D02*
D03*
X2628346Y1850000D02*
D03*
Y1900000D02*
D03*
Y1950000D02*
D03*
Y2000000D02*
D03*
Y2050000D02*
D03*
Y2100000D02*
D03*
Y2150000D02*
D03*
D39*
X2172442Y1900000D02*
D03*
X2306300D02*
D03*
X1506930Y1333150D02*
D03*
X1373070D02*
D03*
D40*
X2840000Y2152442D02*
D03*
Y2207560D02*
D03*
X1847560Y2467560D02*
D03*
Y2412442D02*
D03*
X1340000Y2652440D02*
D03*
Y2707560D02*
D03*
X2660000Y2667560D02*
D03*
Y2612442D02*
D03*
D44*
X1140000Y1890000D02*
D03*
Y2190000D02*
D03*
X2920000Y2230000D02*
D03*
Y1930000D02*
D03*
X1060000Y1890000D02*
D03*
Y2190000D02*
D03*
X2920000Y2630000D02*
D03*
Y2330000D02*
D03*
X1060000Y2670000D02*
D03*
Y2370000D02*
D03*
X2820000Y2630000D02*
D03*
Y2330000D02*
D03*
D45*
X1100000Y2900000D02*
D03*
X2900000D02*
D03*
Y1100000D02*
D03*
X1100000D02*
D03*
D46*
X1560000Y1140000D02*
D03*
X1891850Y2854488D02*
D03*
X1991850D02*
D03*
X2091850D02*
D03*
X2191850D02*
D03*
X2120000Y1140000D02*
D03*
X2220000D02*
D03*
X2320000D02*
D03*
X2420000D02*
D03*
X2520000D02*
D03*
X2860000Y1600000D02*
D03*
Y1700000D02*
D03*
X1140000Y1460000D02*
D03*
Y1780000D02*
D03*
D47*
X1660000Y1140000D02*
D03*
X1791850Y2854488D02*
D03*
X2620000Y1140000D02*
D03*
D48*
X2860000Y1800000D02*
D03*
X1140000Y1360000D02*
D03*
Y1680000D02*
D03*
D49*
X2562000Y2000000D02*
D03*
X2528000Y2051000D02*
D03*
X2598000Y2221000D02*
D03*
X2655000Y2544000D02*
D03*
X2291000Y2088000D02*
D03*
X1813000Y1985000D02*
D03*
X1664000Y2290000D02*
D03*
X1300000Y1757000D02*
D03*
X1426000Y2936000D02*
D03*
X2443000Y2480000D02*
D03*
X1482000Y1647000D02*
D03*
X2412000Y2358024D02*
D03*
X2258000Y2433000D02*
D03*
X1466000Y2253070D02*
D03*
X1633440Y1806220D02*
D03*
X1843308Y1928780D02*
D03*
X1970000Y1615000D02*
D03*
X1820000Y1610000D02*
D03*
X2745000Y1760000D02*
D03*
X2740000Y1840000D02*
D03*
X2785000Y2020000D02*
D03*
X2305000Y2000000D02*
D03*
X2040000Y2735000D02*
D03*
X2090000Y2465000D02*
D03*
X1345000Y2710000D02*
D03*
X1400000Y2010000D02*
D03*
Y1880000D02*
D03*
X2270000Y2755000D02*
D03*
X1735000Y2645000D02*
D03*
X1240000Y2585000D02*
D03*
X2245000Y2605000D02*
D03*
X2650000Y2625000D02*
D03*
X2450000Y1470000D02*
D03*
X2640000D02*
D03*
X1425000Y1135000D02*
D03*
X1410000Y1015000D02*
D03*
X1910000Y1135000D02*
D03*
X1895000Y1020000D02*
D03*
X1235000Y2340000D02*
D03*
D51*
X1939410Y2654488D02*
D03*
X1989410D02*
D03*
X2039410D02*
D03*
X2089410D02*
D03*
X1939410Y2465512D02*
D03*
X1989410D02*
D03*
X2039410D02*
D03*
X2089410D02*
D03*
X1555000Y2585512D02*
D03*
X1505000D02*
D03*
X1455000D02*
D03*
X1405000D02*
D03*
X1555000Y2774488D02*
D03*
X1505000D02*
D03*
X1455000D02*
D03*
X1405000D02*
D03*
X2445000Y2734488D02*
D03*
X2495000D02*
D03*
X2545000D02*
D03*
X2595000D02*
D03*
X2445000Y2545512D02*
D03*
X2495000D02*
D03*
X2545000D02*
D03*
X2595000D02*
D03*
D52*
X1380000Y1519448D02*
D03*
Y1545040D02*
D03*
Y1570630D02*
D03*
Y1596220D02*
D03*
X1545354Y1519448D02*
D03*
Y1545040D02*
D03*
Y1570630D02*
D03*
Y1596220D02*
D03*
X2002678Y1458386D02*
D03*
Y1432796D02*
D03*
Y1407204D02*
D03*
Y1381614D02*
D03*
X1837322Y1458386D02*
D03*
Y1432796D02*
D03*
Y1407204D02*
D03*
Y1381614D02*
D03*
%TF.MD5,71913ef1566f93be14411decf7f23960*%
M02*
