G04 Layer_Color=32896*
%FSLAX26Y26*%
%MOIN*%
%TF.FileFunction,Legend,Bot*%
%TF.Part,Single*%
G01*
G75*
%TA.AperFunction,NonConductor*%
%ADD29C,0.009842*%
%ADD31C,0.007874*%
%ADD33C,0.004000*%
%ADD34C,0.003000*%
%ADD50C,0.015748*%
D29*
X1766968Y2208465D02*
G03*
X1766968Y2208465I-4921J0D01*
G01*
X2126968Y2628465D02*
G03*
X2126968Y2628465I-4921J0D01*
G01*
X1842244Y1351102D02*
G03*
X1842244Y1351102I-4921J0D01*
G01*
X1550276Y1626732D02*
G03*
X1550276Y1626732I-4921J0D01*
G01*
X2416457Y2734488D02*
G03*
X2416457Y2734488I-4921J0D01*
G01*
X1593386Y2585512D02*
G03*
X1593386Y2585512I-4921J0D01*
G01*
X2548268Y1993465D02*
G03*
X2548268Y1993465I-4921J0D01*
G01*
D31*
X1702992Y2001574D02*
Y2198426D01*
X1632126Y2001574D02*
Y2198426D01*
X1702992D01*
X1632126Y2001574D02*
X1702992D01*
X1418032Y2044252D02*
Y2075748D01*
X1477086Y2044252D02*
Y2075748D01*
X1591812Y2309528D02*
X1623308D01*
X1591812Y2250472D02*
X1623308D01*
X1771812D02*
X1803308D01*
X1771812Y2309528D02*
X1803308D01*
X2062992Y2421574D02*
Y2618426D01*
X1992126Y2421574D02*
Y2618426D01*
X2062992D01*
X1992126Y2421574D02*
X2062992D01*
X1778032Y2464252D02*
Y2495748D01*
X1837086Y2464252D02*
Y2495748D01*
X1951812Y2729528D02*
X1983308D01*
X1951812Y2670472D02*
X1983308D01*
X2131812D02*
X2163308D01*
X2131812Y2729528D02*
X2163308D01*
X2090472Y1404252D02*
Y1435748D01*
X2149528Y1404252D02*
Y1435748D01*
X1230472Y1630552D02*
Y1662048D01*
X1289528Y1630552D02*
Y1662048D01*
X1230472Y1444252D02*
Y1475748D01*
X1289528Y1444252D02*
Y1475748D01*
X1886536Y1358976D02*
Y1481024D01*
X1953464Y1358976D02*
Y1481024D01*
X1886536Y1358976D02*
X1953464D01*
X1886536Y1481024D02*
X1953464D01*
X1496142Y1496812D02*
Y1618858D01*
X1429212Y1496812D02*
Y1618858D01*
X1496142D01*
X1429212Y1496812D02*
X1496142D01*
X1497086Y1297716D02*
Y1305590D01*
X1382914Y1297716D02*
Y1305590D01*
Y1360708D02*
Y1368582D01*
X1497086Y1360708D02*
Y1368582D01*
X1459686Y1297716D02*
Y1368582D01*
X1382914D02*
X1497086D01*
X1382914Y1297716D02*
X1497086D01*
X1629528Y1377402D02*
Y1408898D01*
X1570472Y1377402D02*
Y1408898D01*
X1424252Y1396772D02*
X1455748D01*
X1424252Y1455826D02*
X1455748D01*
X1844252Y1289528D02*
X1875748D01*
X1844252Y1230472D02*
X1875748D01*
X1764252Y1649528D02*
X1795748D01*
X1764252Y1590474D02*
X1795748D01*
X1764252Y1490472D02*
X1795748D01*
X1764252Y1549528D02*
X1795748D01*
X1669528Y1550550D02*
Y1582046D01*
X1610472Y1550550D02*
Y1582046D01*
X2389528Y2724252D02*
Y2755748D01*
X2330472Y2724252D02*
Y2755748D01*
Y2544252D02*
Y2575748D01*
X2389528Y2544252D02*
Y2575748D01*
X2504252Y2869528D02*
X2535748D01*
X2504252Y2810472D02*
X2535748D01*
X2618426Y2604566D02*
Y2675434D01*
X2421574Y2604566D02*
Y2675434D01*
Y2604566D02*
X2618426D01*
X2421574Y2675434D02*
X2618426D01*
X1610472Y2564252D02*
Y2595748D01*
X1669528Y2564252D02*
Y2595748D01*
Y2744252D02*
Y2775748D01*
X1610472Y2744252D02*
Y2775748D01*
X1464252Y2450472D02*
X1495748D01*
X1464252Y2509528D02*
X1495748D01*
X1381574Y2644566D02*
Y2715434D01*
X1578426Y2644566D02*
Y2715434D01*
X1381574D02*
X1578426D01*
X1381574Y2644566D02*
X1578426D01*
X2371694Y1599528D02*
X2403190D01*
X2371694Y1540472D02*
X2403190D01*
X2151694Y1619528D02*
X2183190D01*
X2151694Y1560472D02*
X2183190D01*
X2683898Y1694252D02*
Y1725748D01*
X2624842Y1694252D02*
Y1725748D01*
X2696968Y1934252D02*
Y1965748D01*
X2637914Y1934252D02*
Y1965748D01*
X2591694Y2060472D02*
X2623190D01*
X2591694Y2119528D02*
X2623190D01*
X2484292Y1636772D02*
Y1983228D01*
X2413426Y1636772D02*
Y1983228D01*
X2484292D01*
X2413426Y1636772D02*
X2484292D01*
X2591694Y1540472D02*
X2623190D01*
X2591694Y1599528D02*
X2623190D01*
X2191694Y1919528D02*
X2223190D01*
X2191694Y1860472D02*
X2223190D01*
X2097284Y1737560D02*
Y1745434D01*
X2211456Y1737560D02*
Y1745434D01*
Y1674566D02*
Y1682440D01*
X2097284Y1674566D02*
Y1682440D01*
X2134686Y1674566D02*
Y1745434D01*
X2097284Y1674566D02*
X2211456D01*
X2097284Y1745434D02*
X2211456D01*
X1997914Y1834252D02*
Y1865748D01*
X2056968Y1834252D02*
Y1865748D01*
X2051694Y2039528D02*
X2083190D01*
X2051694Y1980472D02*
X2083190D01*
D33*
X1684118Y2114994D02*
Y2098332D01*
X1680786Y2095000D01*
X1674121D01*
X1670789Y2098332D01*
Y2114994D01*
X1664124Y2111661D02*
X1660792Y2114994D01*
X1654128D01*
X1650795Y2111661D01*
Y2108329D01*
X1654128Y2104997D01*
X1657460D01*
X1654128D01*
X1650795Y2101664D01*
Y2098332D01*
X1654128Y2095000D01*
X1660792D01*
X1664124Y2098332D01*
X1378789Y2129661D02*
X1382121Y2132994D01*
X1388786D01*
X1392118Y2129661D01*
Y2116332D01*
X1388786Y2113000D01*
X1382121D01*
X1378789Y2116332D01*
X1372124Y2113000D02*
X1365460D01*
X1368792D01*
Y2132994D01*
X1372124Y2129661D01*
X1342134Y2132994D02*
X1355463D01*
Y2122997D01*
X1348799Y2126329D01*
X1345466D01*
X1342134Y2122997D01*
Y2116332D01*
X1345466Y2113000D01*
X1352131D01*
X1355463Y2116332D01*
X2044559Y2534994D02*
Y2518332D01*
X2041227Y2515000D01*
X2034562D01*
X2031230Y2518332D01*
Y2534994D01*
X2024565Y2531661D02*
X2021233Y2534994D01*
X2014569D01*
X2011236Y2531661D01*
Y2528329D01*
X2014569Y2524997D01*
X2017901D01*
X2014569D01*
X2011236Y2521665D01*
Y2518332D01*
X2014569Y2515000D01*
X2021233D01*
X2024565Y2518332D01*
X1739230Y2549661D02*
X1742562Y2552994D01*
X1749227D01*
X1752559Y2549661D01*
Y2536332D01*
X1749227Y2533000D01*
X1742562D01*
X1739230Y2536332D01*
X1732565Y2533000D02*
X1725901D01*
X1729233D01*
Y2552994D01*
X1732565Y2549661D01*
X1702575Y2552994D02*
X1715904D01*
Y2542997D01*
X1709240Y2546329D01*
X1705907D01*
X1702575Y2542997D01*
Y2536332D01*
X1705907Y2533000D01*
X1712572D01*
X1715904Y2536332D01*
X1479000Y1570994D02*
Y1554332D01*
X1475668Y1551000D01*
X1469003D01*
X1465671Y1554332D01*
Y1570994D01*
X1459006D02*
X1445678D01*
Y1567661D01*
X1459006Y1554332D01*
Y1551000D01*
X1937000Y1426994D02*
Y1410332D01*
X1933668Y1407000D01*
X1927003D01*
X1923671Y1410332D01*
Y1426994D01*
X1903678D02*
X1910342Y1423661D01*
X1917006Y1416997D01*
Y1410332D01*
X1913674Y1407000D01*
X1907010D01*
X1903678Y1410332D01*
Y1413665D01*
X1907010Y1416997D01*
X1917006D01*
X1377000Y1753994D02*
Y1734000D01*
X1363671D01*
X1343678D02*
X1357006D01*
X1343678Y1747329D01*
Y1750661D01*
X1347010Y1753994D01*
X1353674D01*
X1357006Y1750661D01*
X2046000Y1347994D02*
Y1328000D01*
X2032671D01*
X2026006D02*
X2019342D01*
X2022674D01*
Y1347994D01*
X2026006Y1344661D01*
X2532000Y2649994D02*
Y2633332D01*
X2528668Y2630000D01*
X2522003D01*
X2518671Y2633332D01*
Y2649994D01*
X2502010Y2630000D02*
Y2649994D01*
X2512006Y2639997D01*
X2498677D01*
X1501000Y2689994D02*
Y2673332D01*
X1497668Y2670000D01*
X1491003D01*
X1487671Y2673332D01*
Y2689994D01*
X1471010Y2670000D02*
Y2689994D01*
X1481006Y2679997D01*
X1467678D01*
X2466000Y1824994D02*
Y1808332D01*
X2462668Y1805000D01*
X2456003D01*
X2452671Y1808332D01*
Y1824994D01*
X2432677Y1805000D02*
X2446006D01*
X2432677Y1818329D01*
Y1821661D01*
X2436010Y1824994D01*
X2442674D01*
X2446006Y1821661D01*
X2450671Y2114661D02*
X2454003Y2117994D01*
X2460668D01*
X2464000Y2114661D01*
Y2101332D01*
X2460668Y2098000D01*
X2454003D01*
X2450671Y2101332D01*
X2444006Y2117994D02*
X2430677D01*
Y2114661D01*
X2444006Y2101332D01*
Y2098000D01*
D34*
X1466118Y2053000D02*
Y2067995D01*
X1458620D01*
X1456121Y2065496D01*
Y2060498D01*
X1458620Y2057998D01*
X1466118D01*
X1461120D02*
X1456121Y2053000D01*
X1451123D02*
X1446124D01*
X1448624D01*
Y2067995D01*
X1451123Y2065496D01*
X1438627Y2055499D02*
X1436128Y2053000D01*
X1431129D01*
X1428630Y2055499D01*
Y2065496D01*
X1431129Y2067995D01*
X1436128D01*
X1438627Y2065496D01*
Y2062997D01*
X1436128Y2060498D01*
X1428630D01*
X1626118Y2273000D02*
Y2287995D01*
X1618621D01*
X1616121Y2285496D01*
Y2280498D01*
X1618621Y2277998D01*
X1626118D01*
X1621120D02*
X1616121Y2273000D01*
X1611123D02*
X1606125D01*
X1608624D01*
Y2287995D01*
X1611123Y2285496D01*
X1598627D02*
X1596128Y2287995D01*
X1591129D01*
X1588630Y2285496D01*
Y2282997D01*
X1591129Y2280498D01*
X1588630Y2277998D01*
Y2275499D01*
X1591129Y2273000D01*
X1596128D01*
X1598627Y2275499D01*
Y2277998D01*
X1596128Y2280498D01*
X1598627Y2282997D01*
Y2285496D01*
X1596128Y2280498D02*
X1591129D01*
X1806118Y2273000D02*
Y2287995D01*
X1798621D01*
X1796121Y2285496D01*
Y2280498D01*
X1798621Y2277998D01*
X1806118D01*
X1801120D02*
X1796121Y2273000D01*
X1791123D02*
X1786125D01*
X1788624D01*
Y2287995D01*
X1791123Y2285496D01*
X1778627Y2287995D02*
X1768630D01*
Y2285496D01*
X1778627Y2275499D01*
Y2273000D01*
X1826559Y2473000D02*
Y2487995D01*
X1819061D01*
X1816562Y2485496D01*
Y2480498D01*
X1819061Y2477999D01*
X1826559D01*
X1821561D02*
X1816562Y2473000D01*
X1811564D02*
X1806565D01*
X1809065D01*
Y2487995D01*
X1811564Y2485496D01*
X1799068Y2475499D02*
X1796569Y2473000D01*
X1791570D01*
X1789071Y2475499D01*
Y2485496D01*
X1791570Y2487995D01*
X1796569D01*
X1799068Y2485496D01*
Y2482997D01*
X1796569Y2480498D01*
X1789071D01*
X1986559Y2693000D02*
Y2707995D01*
X1979062D01*
X1976562Y2705496D01*
Y2700498D01*
X1979062Y2697999D01*
X1986559D01*
X1981561D02*
X1976562Y2693000D01*
X1971564D02*
X1966566D01*
X1969065D01*
Y2707995D01*
X1971564Y2705496D01*
X1959068D02*
X1956569Y2707995D01*
X1951570D01*
X1949071Y2705496D01*
Y2702997D01*
X1951570Y2700498D01*
X1949071Y2697999D01*
Y2695499D01*
X1951570Y2693000D01*
X1956569D01*
X1959068Y2695499D01*
Y2697999D01*
X1956569Y2700498D01*
X1959068Y2702997D01*
Y2705496D01*
X1956569Y2700498D02*
X1951570D01*
X2166559Y2693000D02*
Y2707995D01*
X2159062D01*
X2156562Y2705496D01*
Y2700498D01*
X2159062Y2697999D01*
X2166559D01*
X2161561D02*
X2156562Y2693000D01*
X2151564D02*
X2146566D01*
X2149065D01*
Y2707995D01*
X2151564Y2705496D01*
X2139068Y2707995D02*
X2129071D01*
Y2705496D01*
X2139068Y2695499D01*
Y2693000D01*
X1620000Y1386000D02*
Y1400995D01*
X1612502D01*
X1610003Y1398496D01*
Y1393498D01*
X1612502Y1390998D01*
X1620000D01*
X1615002D02*
X1610003Y1386000D01*
X1595008D02*
X1605005D01*
X1595008Y1395997D01*
Y1398496D01*
X1597507Y1400995D01*
X1602506D01*
X1605005Y1398496D01*
X1590010Y1400995D02*
X1580013D01*
Y1398496D01*
X1590010Y1388499D01*
Y1386000D01*
X1280000Y1453000D02*
Y1467995D01*
X1272502D01*
X1270003Y1465496D01*
Y1460498D01*
X1272502Y1457998D01*
X1280000D01*
X1275002D02*
X1270003Y1453000D01*
X1255008D02*
X1265005D01*
X1255008Y1462997D01*
Y1465496D01*
X1257507Y1467995D01*
X1262506D01*
X1265005Y1465496D01*
X1240013Y1467995D02*
X1245011Y1465496D01*
X1250010Y1460498D01*
Y1455499D01*
X1247510Y1453000D01*
X1242512D01*
X1240013Y1455499D01*
Y1457998D01*
X1242512Y1460498D01*
X1250010D01*
X1280000Y1639000D02*
Y1653995D01*
X1272502D01*
X1270003Y1651496D01*
Y1646498D01*
X1272502Y1643998D01*
X1280000D01*
X1275002D02*
X1270003Y1639000D01*
X1255008D02*
X1265005D01*
X1255008Y1648997D01*
Y1651496D01*
X1257507Y1653995D01*
X1262506D01*
X1265005Y1651496D01*
X1240013Y1653995D02*
X1250010D01*
Y1646498D01*
X1245011Y1648997D01*
X1242512D01*
X1240013Y1646498D01*
Y1641499D01*
X1242512Y1639000D01*
X1247510D01*
X1250010Y1641499D01*
X2140000Y1413000D02*
Y1427995D01*
X2132502D01*
X2130003Y1425496D01*
Y1420498D01*
X2132502Y1417998D01*
X2140000D01*
X2135002D02*
X2130003Y1413000D01*
X2115008D02*
X2125005D01*
X2115008Y1422997D01*
Y1425496D01*
X2117507Y1427995D01*
X2122506D01*
X2125005Y1425496D01*
X2102512Y1413000D02*
Y1427995D01*
X2110010Y1420498D01*
X2100013D01*
X1450003Y1431496D02*
X1452502Y1433995D01*
X1457501D01*
X1460000Y1431496D01*
Y1421499D01*
X1457501Y1419000D01*
X1452502D01*
X1450003Y1421499D01*
X1435008Y1419000D02*
X1445005D01*
X1435008Y1428997D01*
Y1431496D01*
X1437507Y1433995D01*
X1442506D01*
X1445005Y1431496D01*
X1422512Y1419000D02*
Y1433995D01*
X1430010Y1426498D01*
X1420013D01*
X1650003Y1571496D02*
X1652502Y1573995D01*
X1657501D01*
X1660000Y1571496D01*
Y1561499D01*
X1657501Y1559000D01*
X1652502D01*
X1650003Y1561499D01*
X1635008Y1559000D02*
X1645005D01*
X1635008Y1568997D01*
Y1571496D01*
X1637507Y1573995D01*
X1642506D01*
X1645005Y1571496D01*
X1630010D02*
X1627510Y1573995D01*
X1622512D01*
X1620013Y1571496D01*
Y1568997D01*
X1622512Y1566498D01*
X1625011D01*
X1622512D01*
X1620013Y1563998D01*
Y1561499D01*
X1622512Y1559000D01*
X1627510D01*
X1630010Y1561499D01*
X1790003Y1625496D02*
X1792502Y1627995D01*
X1797501D01*
X1800000Y1625496D01*
Y1615499D01*
X1797501Y1613000D01*
X1792502D01*
X1790003Y1615499D01*
X1775008Y1613000D02*
X1785005D01*
X1775008Y1622997D01*
Y1625496D01*
X1777507Y1627995D01*
X1782506D01*
X1785005Y1625496D01*
X1760013Y1613000D02*
X1770010D01*
X1760013Y1622997D01*
Y1625496D01*
X1762512Y1627995D01*
X1767510D01*
X1770010Y1625496D01*
X1867003Y1265496D02*
X1869502Y1267995D01*
X1874501D01*
X1877000Y1265496D01*
Y1255499D01*
X1874501Y1253000D01*
X1869502D01*
X1867003Y1255499D01*
X1852008Y1253000D02*
X1862005D01*
X1852008Y1262997D01*
Y1265496D01*
X1854507Y1267995D01*
X1859506D01*
X1862005Y1265496D01*
X1847010Y1253000D02*
X1842011D01*
X1844510D01*
Y1267995D01*
X1847010Y1265496D01*
X1790003Y1525496D02*
X1792502Y1527995D01*
X1797501D01*
X1800000Y1525496D01*
Y1515499D01*
X1797501Y1513000D01*
X1792502D01*
X1790003Y1515499D01*
X1775008Y1513000D02*
X1785005D01*
X1775008Y1522997D01*
Y1525496D01*
X1777507Y1527995D01*
X1782506D01*
X1785005Y1525496D01*
X1770010D02*
X1767510Y1527995D01*
X1762512D01*
X1760013Y1525496D01*
Y1515499D01*
X1762512Y1513000D01*
X1767510D01*
X1770010Y1515499D01*
Y1525496D01*
X2540000Y2833000D02*
Y2847995D01*
X2532502D01*
X2530003Y2845496D01*
Y2840498D01*
X2532502Y2837998D01*
X2540000D01*
X2535002D02*
X2530003Y2833000D01*
X2515008D02*
X2525005D01*
X2515008Y2842997D01*
Y2845496D01*
X2517507Y2847995D01*
X2522506D01*
X2525005Y2845496D01*
X2500013Y2833000D02*
X2510010D01*
X2500013Y2842997D01*
Y2845496D01*
X2502512Y2847995D01*
X2507510D01*
X2510010Y2845496D01*
X1500000Y2473000D02*
Y2487995D01*
X1492502D01*
X1490003Y2485496D01*
Y2480498D01*
X1492502Y2477998D01*
X1500000D01*
X1495002D02*
X1490003Y2473000D01*
X1475008D02*
X1485005D01*
X1475008Y2482997D01*
Y2485496D01*
X1477507Y2487995D01*
X1482506D01*
X1485005Y2485496D01*
X1460013Y2473000D02*
X1470010D01*
X1460013Y2482997D01*
Y2485496D01*
X1462512Y2487995D01*
X1467510D01*
X1470010Y2485496D01*
X2377000Y2553000D02*
Y2567995D01*
X2369502D01*
X2367003Y2565496D01*
Y2560498D01*
X2369502Y2557998D01*
X2377000D01*
X2372002D02*
X2367003Y2553000D01*
X2352008D02*
X2362005D01*
X2352008Y2562997D01*
Y2565496D01*
X2354507Y2567995D01*
X2359506D01*
X2362005Y2565496D01*
X2347010Y2553000D02*
X2342011D01*
X2344510D01*
Y2567995D01*
X2347010Y2565496D01*
X1657000Y2753000D02*
Y2767995D01*
X1649502D01*
X1647003Y2765496D01*
Y2760498D01*
X1649502Y2757998D01*
X1657000D01*
X1652002D02*
X1647003Y2753000D01*
X1632008D02*
X1642005D01*
X1632008Y2762997D01*
Y2765496D01*
X1634507Y2767995D01*
X1639506D01*
X1642005Y2765496D01*
X1627010Y2753000D02*
X1622011D01*
X1624510D01*
Y2767995D01*
X1627010Y2765496D01*
X2380000Y2733000D02*
Y2747995D01*
X2372502D01*
X2370003Y2745496D01*
Y2740498D01*
X2372502Y2737998D01*
X2380000D01*
X2375002D02*
X2370003Y2733000D01*
X2355008D02*
X2365005D01*
X2355008Y2742997D01*
Y2745496D01*
X2357507Y2747995D01*
X2362506D01*
X2365005Y2745496D01*
X2350010D02*
X2347510Y2747995D01*
X2342512D01*
X2340013Y2745496D01*
Y2735499D01*
X2342512Y2733000D01*
X2347510D01*
X2350010Y2735499D01*
Y2745496D01*
X1660000Y2573000D02*
Y2587995D01*
X1652502D01*
X1650003Y2585496D01*
Y2580498D01*
X1652502Y2577998D01*
X1660000D01*
X1655002D02*
X1650003Y2573000D01*
X1635008D02*
X1645005D01*
X1635008Y2582997D01*
Y2585496D01*
X1637507Y2587995D01*
X1642506D01*
X1645005Y2585496D01*
X1630010D02*
X1627510Y2587995D01*
X1622512D01*
X1620013Y2585496D01*
Y2575499D01*
X1622512Y2573000D01*
X1627510D01*
X1630010Y2575499D01*
Y2585496D01*
X2673000Y1703000D02*
Y1717995D01*
X2665502D01*
X2663003Y1715496D01*
Y1710498D01*
X2665502Y1707998D01*
X2673000D01*
X2668002D02*
X2663003Y1703000D01*
X2658005D02*
X2653006D01*
X2655506D01*
Y1717995D01*
X2658005Y1715496D01*
X2635512Y1717995D02*
X2640510Y1715496D01*
X2645509Y1710498D01*
Y1705499D01*
X2643010Y1703000D01*
X2638011D01*
X2635512Y1705499D01*
Y1707998D01*
X2638011Y1710498D01*
X2645509D01*
X2086000Y2003000D02*
Y2017995D01*
X2078502D01*
X2076003Y2015496D01*
Y2010498D01*
X2078502Y2007998D01*
X2086000D01*
X2081002D02*
X2076003Y2003000D01*
X2071005D02*
X2066006D01*
X2068506D01*
Y2017995D01*
X2071005Y2015496D01*
X2048512Y2017995D02*
X2058509D01*
Y2010498D01*
X2053510Y2012997D01*
X2051011D01*
X2048512Y2010498D01*
Y2005499D01*
X2051011Y2003000D01*
X2056010D01*
X2058509Y2005499D01*
X2686000Y1943000D02*
Y1957995D01*
X2678502D01*
X2676003Y1955496D01*
Y1950498D01*
X2678502Y1947998D01*
X2686000D01*
X2681002D02*
X2676003Y1943000D01*
X2671005D02*
X2666006D01*
X2668506D01*
Y1957995D01*
X2671005Y1955496D01*
X2651011Y1943000D02*
Y1957995D01*
X2658509Y1950498D01*
X2648512D01*
X2186000Y1583000D02*
Y1597995D01*
X2178502D01*
X2176003Y1595496D01*
Y1590498D01*
X2178502Y1587998D01*
X2186000D01*
X2181002D02*
X2176003Y1583000D01*
X2171005D02*
X2166006D01*
X2168506D01*
Y1597995D01*
X2171005Y1595496D01*
X2158509D02*
X2156010Y1597995D01*
X2151011D01*
X2148512Y1595496D01*
Y1592997D01*
X2151011Y1590498D01*
X2153510D01*
X2151011D01*
X2148512Y1587998D01*
Y1585499D01*
X2151011Y1583000D01*
X2156010D01*
X2158509Y1585499D01*
X2406000Y1563000D02*
Y1577995D01*
X2398502D01*
X2396003Y1575496D01*
Y1570498D01*
X2398502Y1567998D01*
X2406000D01*
X2401002D02*
X2396003Y1563000D01*
X2391005D02*
X2386006D01*
X2388506D01*
Y1577995D01*
X2391005Y1575496D01*
X2368512Y1563000D02*
X2378509D01*
X2368512Y1572997D01*
Y1575496D01*
X2371011Y1577995D01*
X2376010D01*
X2378509Y1575496D01*
X2044000Y1843000D02*
Y1857995D01*
X2036502D01*
X2034003Y1855496D01*
Y1850498D01*
X2036502Y1847998D01*
X2044000D01*
X2039002D02*
X2034003Y1843000D01*
X2029005D02*
X2024006D01*
X2026506D01*
Y1857995D01*
X2029005Y1855496D01*
X2016509Y1843000D02*
X2011510D01*
X2014010D01*
Y1857995D01*
X2016509Y1855496D01*
X2226000Y1883000D02*
Y1897995D01*
X2218502D01*
X2216003Y1895496D01*
Y1890498D01*
X2218502Y1887998D01*
X2226000D01*
X2221002D02*
X2216003Y1883000D01*
X2211005D02*
X2206006D01*
X2208506D01*
Y1897995D01*
X2211005Y1895496D01*
X2198509D02*
X2196010Y1897995D01*
X2191011D01*
X2188512Y1895496D01*
Y1885499D01*
X2191011Y1883000D01*
X2196010D01*
X2198509Y1885499D01*
Y1895496D01*
X2620000Y1563000D02*
Y1577995D01*
X2612502D01*
X2610003Y1575496D01*
Y1570498D01*
X2612502Y1567998D01*
X2620000D01*
X2615002D02*
X2610003Y1563000D01*
X2605005Y1565499D02*
X2602506Y1563000D01*
X2597507D01*
X2595008Y1565499D01*
Y1575496D01*
X2597507Y1577995D01*
X2602506D01*
X2605005Y1575496D01*
Y1572997D01*
X2602506Y1570498D01*
X2595008D01*
X2620000Y2083000D02*
Y2097995D01*
X2612502D01*
X2610003Y2095496D01*
Y2090498D01*
X2612502Y2087998D01*
X2620000D01*
X2615002D02*
X2610003Y2083000D01*
X2605005Y2095496D02*
X2602506Y2097995D01*
X2597507D01*
X2595008Y2095496D01*
Y2092997D01*
X2597507Y2090498D01*
X2595008Y2087998D01*
Y2085499D01*
X2597507Y2083000D01*
X2602506D01*
X2605005Y2085499D01*
Y2087998D01*
X2602506Y2090498D01*
X2605005Y2092997D01*
Y2095496D01*
X2602506Y2090498D02*
X2597507D01*
D50*
X1679370Y2166929D02*
G03*
X1679370Y2166929I-7874J0D01*
G01*
X2039370Y2586929D02*
G03*
X2039370Y2586929I-7874J0D01*
G01*
X2460945Y2643937D02*
G03*
X2460945Y2643937I-7874J0D01*
G01*
X1554803Y2676063D02*
G03*
X1554803Y2676063I-7874J0D01*
G01*
%TF.MD5,29d68d041f25f893c6d6854ac535df42*%
M02*
