G04 Layer_Color=32896*
%FSLAX26Y26*%
%MOIN*%
%TF.FileFunction,Legend,Bot*%
%TF.Part,Single*%
G01*
G75*
%TA.AperFunction,NonConductor*%
%ADD35C,0.009842*%
%ADD37C,0.007874*%
%ADD38C,0.005000*%
D35*
X1614921Y2578465D02*
G03*
X1614921Y2578465I-4921J0D01*
G01*
X2317472Y2262535D02*
G03*
X2317472Y2262535I-4921J0D01*
G01*
X1616032Y1712465D02*
G03*
X1616032Y1712465I-4921J0D01*
G01*
X2318583Y1396535D02*
G03*
X2318583Y1396535I-4921J0D01*
G01*
D37*
X1079598Y2513086D02*
X1087472D01*
X1079598Y2398914D02*
X1087472D01*
X1016606D02*
X1024480D01*
X1016606Y2513086D02*
X1024480D01*
X1016606Y2475684D02*
X1087472D01*
X1016606Y2398914D02*
Y2513086D01*
X1087472Y2398914D02*
Y2513086D01*
X2734070Y2446086D02*
X2741946D01*
X2734070Y2331914D02*
X2741946D01*
X2671078D02*
X2678952D01*
X2671078Y2446086D02*
X2678952D01*
X2671078Y2408686D02*
X2741944D01*
X2671078Y2331914D02*
Y2446086D01*
X2741944Y2331914D02*
Y2446086D01*
X1171764Y2491472D02*
X1203260D01*
X1171764Y2550528D02*
X1203260D01*
X1346566Y2545252D02*
Y2576748D01*
X1287512Y2545252D02*
Y2576748D01*
X1736764Y2266472D02*
X1768260D01*
X1736764Y2325528D02*
X1768260D01*
X1261292Y2465528D02*
X1292788D01*
X1261292Y2406472D02*
X1292788D01*
X1738142Y2176472D02*
X1769638D01*
X1738142Y2235528D02*
X1769638D01*
X1741292Y2436472D02*
X1772788D01*
X1741292Y2495528D02*
X1772788D01*
X1857512Y2405252D02*
Y2436748D01*
X1916568Y2405252D02*
Y2436748D01*
X2681984Y2173252D02*
Y2204748D01*
X2741040Y2173252D02*
Y2204748D01*
X2155764Y2593528D02*
X2187260D01*
X2155764Y2534472D02*
X2187260D01*
X2568834Y2253252D02*
Y2284748D01*
X2627890Y2253252D02*
Y2284748D01*
X2455764Y2248528D02*
X2487260D01*
X2455764Y2189472D02*
X2487260D01*
X2625764Y2524472D02*
X2657260D01*
X2625764Y2583528D02*
X2657260D01*
X2026040Y2228252D02*
Y2259748D01*
X1966984Y2228252D02*
Y2259748D01*
X2156292Y2420528D02*
X2187788D01*
X2156292Y2361472D02*
X2187788D01*
X2038418Y2585252D02*
Y2616748D01*
X1979362Y2585252D02*
Y2616748D01*
X2117890Y2228252D02*
Y2259748D01*
X2058834Y2228252D02*
Y2259748D01*
X1550944Y2221772D02*
Y2568228D01*
X1480078Y2221772D02*
Y2568228D01*
X1550944D01*
X1480078Y2221772D02*
X1550944D01*
X2371606Y2272772D02*
Y2619228D01*
X2442472Y2272772D02*
Y2619228D01*
X2371606Y2272772D02*
X2442472D01*
X2371606Y2619228D02*
X2442472D01*
X1080708Y1647086D02*
X1088582D01*
X1080708Y1532914D02*
X1088582D01*
X1017716D02*
X1025590D01*
X1017716Y1647086D02*
X1025590D01*
X1017716Y1609686D02*
X1088582D01*
X1017716Y1532914D02*
Y1647086D01*
X1088582Y1532914D02*
Y1647086D01*
X2735182Y1580086D02*
X2743056D01*
X2735182Y1465914D02*
X2743056D01*
X2672188D02*
X2680064D01*
X2672188Y1580086D02*
X2680064D01*
X2672188Y1542686D02*
X2743056D01*
X2672188Y1465914D02*
Y1580086D01*
X2743056Y1465914D02*
Y1580086D01*
X1172874Y1625472D02*
X1204370D01*
X1172874Y1684528D02*
X1204370D01*
X1347678Y1679252D02*
Y1710748D01*
X1288622Y1679252D02*
Y1710748D01*
X1737874Y1400472D02*
X1769370D01*
X1737874Y1459528D02*
X1769370D01*
X1262402Y1599528D02*
X1293898D01*
X1262402Y1540472D02*
X1293898D01*
X1739252Y1310472D02*
X1770748D01*
X1739252Y1369528D02*
X1770748D01*
X1742402Y1570472D02*
X1773898D01*
X1742402Y1629528D02*
X1773898D01*
X1858622Y1539252D02*
Y1570748D01*
X1917678Y1539252D02*
Y1570748D01*
X2683094Y1307252D02*
Y1338748D01*
X2742150Y1307252D02*
Y1338748D01*
X2156874Y1727528D02*
X2188370D01*
X2156874Y1668472D02*
X2188370D01*
X2569944Y1387252D02*
Y1418748D01*
X2629000Y1387252D02*
Y1418748D01*
X2456874Y1382528D02*
X2488370D01*
X2456874Y1323472D02*
X2488370D01*
X2626874Y1658472D02*
X2658370D01*
X2626874Y1717528D02*
X2658370D01*
X2027150Y1362252D02*
Y1393748D01*
X1968094Y1362252D02*
Y1393748D01*
X2157402Y1554528D02*
X2188898D01*
X2157402Y1495472D02*
X2188898D01*
X2039528Y1719252D02*
Y1750748D01*
X1980472Y1719252D02*
Y1750748D01*
X2119000Y1362252D02*
Y1393748D01*
X2059944Y1362252D02*
Y1393748D01*
X1552056Y1355772D02*
Y1702228D01*
X1481188Y1355772D02*
Y1702228D01*
X1552056D01*
X1481188Y1355772D02*
X1552056D01*
X2372716Y1406772D02*
Y1753228D01*
X2443582Y1406772D02*
Y1753228D01*
X2372716Y1406772D02*
X2443582D01*
X2372716Y1753228D02*
X2443582D01*
X1206064Y1417560D02*
Y1425434D01*
X1320236Y1417560D02*
Y1425434D01*
Y1354566D02*
Y1362442D01*
X1206064Y1354566D02*
Y1362442D01*
X1243464Y1354566D02*
Y1425434D01*
X1206064Y1354566D02*
X1320236D01*
X1206064Y1425434D02*
X1320236D01*
X1204952Y2283560D02*
Y2291434D01*
X1319126Y2283560D02*
Y2291434D01*
Y2220566D02*
Y2228440D01*
X1204952Y2220566D02*
Y2228440D01*
X1242354Y2220566D02*
Y2291434D01*
X1204952Y2220566D02*
X1319126D01*
X1204952Y2291434D02*
X1319126D01*
D38*
X2423551Y2450994D02*
Y2434332D01*
X2420219Y2431000D01*
X2413554D01*
X2410222Y2434332D01*
Y2450994D01*
X2390229Y2431000D02*
X2403558D01*
X2390229Y2444329D01*
Y2447661D01*
X2393561Y2450994D01*
X2400225D01*
X2403558Y2447661D01*
X2424661Y1584994D02*
Y1568332D01*
X2421329Y1565000D01*
X2414665D01*
X2411332Y1568332D01*
Y1584994D01*
X2391339Y1565000D02*
X2404668D01*
X2391339Y1578329D01*
Y1581661D01*
X2394671Y1584994D01*
X2401336D01*
X2404668Y1581661D01*
X1528661Y2409994D02*
Y2393332D01*
X1525329Y2390000D01*
X1518665D01*
X1515332Y2393332D01*
Y2409994D01*
X1508668Y2390000D02*
X1502003D01*
X1505336D01*
Y2409994D01*
X1508668Y2406661D01*
X1529772Y1543994D02*
Y1527332D01*
X1526439Y1524000D01*
X1519775D01*
X1516443Y1527332D01*
Y1543994D01*
X1509778Y1524000D02*
X1503114D01*
X1506446D01*
Y1543994D01*
X1509778Y1540661D01*
X2107551Y2237000D02*
Y2251995D01*
X2100054D01*
X2097554Y2249496D01*
Y2244498D01*
X2100054Y2241998D01*
X2107551D01*
X2102553D02*
X2097554Y2237000D01*
X2092556D02*
X2087558D01*
X2090057D01*
Y2251995D01*
X2092556Y2249496D01*
X2070063Y2251995D02*
X2075062Y2249496D01*
X2080060Y2244498D01*
Y2239499D01*
X2077561Y2237000D01*
X2072562D01*
X2070063Y2239499D01*
Y2241998D01*
X2072562Y2244498D01*
X2080060D01*
X2108661Y1371000D02*
Y1385995D01*
X2101164D01*
X2098665Y1383496D01*
Y1378498D01*
X2101164Y1375998D01*
X2108661D01*
X2103663D02*
X2098665Y1371000D01*
X2093666D02*
X2088668D01*
X2091167D01*
Y1385995D01*
X2093666Y1383496D01*
X2071173Y1385995D02*
X2076172Y1383496D01*
X2081170Y1378498D01*
Y1373499D01*
X2078671Y1371000D01*
X2073673D01*
X2071173Y1373499D01*
Y1375998D01*
X2073673Y1378498D01*
X2081170D01*
X2027890Y2594000D02*
Y2608995D01*
X2020392D01*
X2017893Y2606496D01*
Y2601497D01*
X2020392Y2598998D01*
X2027890D01*
X2022891D02*
X2017893Y2594000D01*
X2012895D02*
X2007896D01*
X2010395D01*
Y2608995D01*
X2012895Y2606496D01*
X1990402Y2608995D02*
X2000399D01*
Y2601497D01*
X1995400Y2603997D01*
X1992901D01*
X1990402Y2601497D01*
Y2596499D01*
X1992901Y2594000D01*
X1997899D01*
X2000399Y2596499D01*
X2029000Y1728000D02*
Y1742995D01*
X2021502D01*
X2019003Y1740496D01*
Y1735498D01*
X2021502Y1732998D01*
X2029000D01*
X2024002D02*
X2019003Y1728000D01*
X2014005D02*
X2009006D01*
X2011506D01*
Y1742995D01*
X2014005Y1740496D01*
X1991512Y1742995D02*
X2001509D01*
Y1735498D01*
X1996510Y1737997D01*
X1994011D01*
X1991512Y1735498D01*
Y1730499D01*
X1994011Y1728000D01*
X1999010D01*
X2001509Y1730499D01*
X2190551Y2384000D02*
Y2398995D01*
X2183054D01*
X2180554Y2396496D01*
Y2391498D01*
X2183054Y2388998D01*
X2190551D01*
X2185553D02*
X2180554Y2384000D01*
X2175556D02*
X2170558D01*
X2173057D01*
Y2398995D01*
X2175556Y2396496D01*
X2155562Y2384000D02*
Y2398995D01*
X2163060Y2391498D01*
X2153063D01*
X2191661Y1518000D02*
Y1532995D01*
X2184164D01*
X2181665Y1530496D01*
Y1525498D01*
X2184164Y1522998D01*
X2191661D01*
X2186663D02*
X2181665Y1518000D01*
X2176666D02*
X2171668D01*
X2174167D01*
Y1532995D01*
X2176666Y1530496D01*
X2156673Y1518000D02*
Y1532995D01*
X2164170Y1525498D01*
X2154173D01*
X2015551Y2237000D02*
Y2251995D01*
X2008054D01*
X2005554Y2249496D01*
Y2244498D01*
X2008054Y2241998D01*
X2015551D01*
X2010553D02*
X2005554Y2237000D01*
X2000556D02*
X1995558D01*
X1998057D01*
Y2251995D01*
X2000556Y2249496D01*
X1988060D02*
X1985561Y2251995D01*
X1980562D01*
X1978063Y2249496D01*
Y2246997D01*
X1980562Y2244498D01*
X1983062D01*
X1980562D01*
X1978063Y2241998D01*
Y2239499D01*
X1980562Y2237000D01*
X1985561D01*
X1988060Y2239499D01*
X2016661Y1371000D02*
Y1385995D01*
X2009164D01*
X2006665Y1383496D01*
Y1378498D01*
X2009164Y1375998D01*
X2016661D01*
X2011663D02*
X2006665Y1371000D01*
X2001666D02*
X1996668D01*
X1999167D01*
Y1385995D01*
X2001666Y1383496D01*
X1989170D02*
X1986671Y1385995D01*
X1981673D01*
X1979173Y1383496D01*
Y1380997D01*
X1981673Y1378498D01*
X1984172D01*
X1981673D01*
X1979173Y1375998D01*
Y1373499D01*
X1981673Y1371000D01*
X1986671D01*
X1989170Y1373499D01*
X2660551Y2547000D02*
Y2561995D01*
X2653054D01*
X2650554Y2559496D01*
Y2554498D01*
X2653054Y2551998D01*
X2660551D01*
X2655553D02*
X2650554Y2547000D01*
X2645556D02*
X2640558D01*
X2643057D01*
Y2561995D01*
X2645556Y2559496D01*
X2623063Y2547000D02*
X2633060D01*
X2623063Y2556997D01*
Y2559496D01*
X2625562Y2561995D01*
X2630561D01*
X2633060Y2559496D01*
X2661661Y1681000D02*
Y1695995D01*
X2654164D01*
X2651665Y1693496D01*
Y1688498D01*
X2654164Y1685998D01*
X2661661D01*
X2656663D02*
X2651665Y1681000D01*
X2646666D02*
X2641668D01*
X2644167D01*
Y1695995D01*
X2646666Y1693496D01*
X2624173Y1681000D02*
X2634170D01*
X2624173Y1690997D01*
Y1693496D01*
X2626673Y1695995D01*
X2631671D01*
X2634170Y1693496D01*
X2487551Y2212000D02*
Y2226995D01*
X2480054D01*
X2477554Y2224496D01*
Y2219498D01*
X2480054Y2216998D01*
X2487551D01*
X2482553D02*
X2477554Y2212000D01*
X2472556D02*
X2467558D01*
X2470057D01*
Y2226995D01*
X2472556Y2224496D01*
X2460060Y2212000D02*
X2455062D01*
X2457561D01*
Y2226995D01*
X2460060Y2224496D01*
X2488661Y1346000D02*
Y1360995D01*
X2481164D01*
X2478665Y1358496D01*
Y1353498D01*
X2481164Y1350998D01*
X2488661D01*
X2483663D02*
X2478665Y1346000D01*
X2473666D02*
X2468668D01*
X2471167D01*
Y1360995D01*
X2473666Y1358496D01*
X2461170Y1346000D02*
X2456172D01*
X2458671D01*
Y1360995D01*
X2461170Y1358496D01*
X2617551Y2262000D02*
Y2276995D01*
X2610054D01*
X2607554Y2274496D01*
Y2269498D01*
X2610054Y2266998D01*
X2617551D01*
X2612553D02*
X2607554Y2262000D01*
X2602556D02*
X2597558D01*
X2600057D01*
Y2276995D01*
X2602556Y2274496D01*
X2590060D02*
X2587561Y2276995D01*
X2582562D01*
X2580063Y2274496D01*
Y2264499D01*
X2582562Y2262000D01*
X2587561D01*
X2590060Y2264499D01*
Y2274496D01*
X2618661Y1396000D02*
Y1410995D01*
X2611164D01*
X2608665Y1408496D01*
Y1403498D01*
X2611164Y1400998D01*
X2618661D01*
X2613663D02*
X2608665Y1396000D01*
X2603666D02*
X2598668D01*
X2601167D01*
Y1410995D01*
X2603666Y1408496D01*
X2591170D02*
X2588671Y1410995D01*
X2583673D01*
X2581173Y1408496D01*
Y1398499D01*
X2583673Y1396000D01*
X2588671D01*
X2591170Y1398499D01*
Y1408496D01*
X2188551Y2554000D02*
Y2573994D01*
X2178554D01*
X2175222Y2570661D01*
Y2563997D01*
X2178554Y2560664D01*
X2188551D01*
X2181887D02*
X2175222Y2554000D01*
X2168558Y2557332D02*
X2165225Y2554000D01*
X2158561D01*
X2155229Y2557332D01*
Y2570661D01*
X2158561Y2573994D01*
X2165225D01*
X2168558Y2570661D01*
Y2567329D01*
X2165225Y2563997D01*
X2155229D01*
X2189661Y1688000D02*
Y1707994D01*
X2179665D01*
X2176332Y1704661D01*
Y1697997D01*
X2179665Y1694665D01*
X2189661D01*
X2182997D02*
X2176332Y1688000D01*
X2169668Y1691332D02*
X2166336Y1688000D01*
X2159671D01*
X2156339Y1691332D01*
Y1704661D01*
X2159671Y1707994D01*
X2166336D01*
X2169668Y1704661D01*
Y1701329D01*
X2166336Y1697997D01*
X2156339D01*
X2728551Y2179000D02*
Y2198994D01*
X2718554D01*
X2715222Y2195661D01*
Y2188997D01*
X2718554Y2185664D01*
X2728551D01*
X2721887D02*
X2715222Y2179000D01*
X2708558Y2195661D02*
X2705225Y2198994D01*
X2698561D01*
X2695229Y2195661D01*
Y2192329D01*
X2698561Y2188997D01*
X2695229Y2185664D01*
Y2182332D01*
X2698561Y2179000D01*
X2705225D01*
X2708558Y2182332D01*
Y2185664D01*
X2705225Y2188997D01*
X2708558Y2192329D01*
Y2195661D01*
X2705225Y2188997D02*
X2698561D01*
X2729661Y1313000D02*
Y1332994D01*
X2719665D01*
X2716332Y1329661D01*
Y1322997D01*
X2719665Y1319665D01*
X2729661D01*
X2722997D02*
X2716332Y1313000D01*
X2709668Y1329661D02*
X2706336Y1332994D01*
X2699671D01*
X2696339Y1329661D01*
Y1326329D01*
X2699671Y1322997D01*
X2696339Y1319665D01*
Y1316332D01*
X2699671Y1313000D01*
X2706336D01*
X2709668Y1316332D01*
Y1319665D01*
X2706336Y1322997D01*
X2709668Y1326329D01*
Y1329661D01*
X2706336Y1322997D02*
X2699671D01*
X1903717Y2411000D02*
Y2430994D01*
X1893720D01*
X1890388Y2427661D01*
Y2420997D01*
X1893720Y2417664D01*
X1903717D01*
X1897052D02*
X1890388Y2411000D01*
X1883723Y2430994D02*
X1870394D01*
Y2427661D01*
X1883723Y2414332D01*
Y2411000D01*
X1904827Y1545000D02*
Y1564994D01*
X1894830D01*
X1891498Y1561661D01*
Y1554997D01*
X1894830Y1551665D01*
X1904827D01*
X1898162D02*
X1891498Y1545000D01*
X1884833Y1564994D02*
X1871505D01*
Y1561661D01*
X1884833Y1548332D01*
Y1545000D01*
X1773717Y2456000D02*
Y2475994D01*
X1763720D01*
X1760388Y2472661D01*
Y2465997D01*
X1763720Y2462664D01*
X1773717D01*
X1767052D02*
X1760388Y2456000D01*
X1740394Y2475994D02*
X1747059Y2472661D01*
X1753723Y2465997D01*
Y2459332D01*
X1750391Y2456000D01*
X1743726D01*
X1740394Y2459332D01*
Y2462664D01*
X1743726Y2465997D01*
X1753723D01*
X1774827Y1590000D02*
Y1609994D01*
X1764830D01*
X1761498Y1606661D01*
Y1599997D01*
X1764830Y1596665D01*
X1774827D01*
X1768162D02*
X1761498Y1590000D01*
X1741505Y1609994D02*
X1748169Y1606661D01*
X1754833Y1599997D01*
Y1593332D01*
X1751501Y1590000D01*
X1744837D01*
X1741505Y1593332D01*
Y1596665D01*
X1744837Y1599997D01*
X1754833D01*
X1770890Y2196000D02*
Y2215993D01*
X1760893D01*
X1757561Y2212661D01*
Y2205997D01*
X1760893Y2202664D01*
X1770890D01*
X1764225D02*
X1757561Y2196000D01*
X1737567Y2215993D02*
X1750896D01*
Y2205997D01*
X1744232Y2209329D01*
X1740899D01*
X1737567Y2205997D01*
Y2199332D01*
X1740899Y2196000D01*
X1747564D01*
X1750896Y2199332D01*
X1772000Y1330000D02*
Y1349994D01*
X1762003D01*
X1758671Y1346661D01*
Y1339997D01*
X1762003Y1336665D01*
X1772000D01*
X1765335D02*
X1758671Y1330000D01*
X1738678Y1349994D02*
X1752006D01*
Y1339997D01*
X1745342Y1343329D01*
X1742010D01*
X1738678Y1339997D01*
Y1333332D01*
X1742010Y1330000D01*
X1748674D01*
X1752006Y1333332D01*
X1293717Y2426000D02*
Y2445994D01*
X1283720D01*
X1280388Y2442661D01*
Y2435997D01*
X1283720Y2432664D01*
X1293717D01*
X1287052D02*
X1280388Y2426000D01*
X1263726D02*
Y2445994D01*
X1273723Y2435997D01*
X1260394D01*
X1294827Y1560000D02*
Y1579994D01*
X1284830D01*
X1281498Y1576661D01*
Y1569997D01*
X1284830Y1566665D01*
X1294827D01*
X1288162D02*
X1281498Y1560000D01*
X1264837D02*
Y1579994D01*
X1274833Y1569997D01*
X1261505D01*
X1769662Y2286000D02*
Y2305994D01*
X1759665D01*
X1756333Y2302661D01*
Y2295997D01*
X1759665Y2292664D01*
X1769662D01*
X1762997D02*
X1756333Y2286000D01*
X1749668Y2302661D02*
X1746336Y2305994D01*
X1739671D01*
X1736339Y2302661D01*
Y2299329D01*
X1739671Y2295997D01*
X1743004D01*
X1739671D01*
X1736339Y2292664D01*
Y2289332D01*
X1739671Y2286000D01*
X1746336D01*
X1749668Y2289332D01*
X1770772Y1420000D02*
Y1439994D01*
X1760775D01*
X1757443Y1436661D01*
Y1429997D01*
X1760775Y1426665D01*
X1770772D01*
X1764107D02*
X1757443Y1420000D01*
X1750778Y1436661D02*
X1747446Y1439994D01*
X1740782D01*
X1737449Y1436661D01*
Y1433329D01*
X1740782Y1429997D01*
X1744114D01*
X1740782D01*
X1737449Y1426665D01*
Y1423332D01*
X1740782Y1420000D01*
X1747446D01*
X1750778Y1423332D01*
X1333717Y2551000D02*
Y2570994D01*
X1323720D01*
X1320388Y2567661D01*
Y2560997D01*
X1323720Y2557664D01*
X1333717D01*
X1327052D02*
X1320388Y2551000D01*
X1300394D02*
X1313723D01*
X1300394Y2564329D01*
Y2567661D01*
X1303726Y2570994D01*
X1310391D01*
X1313723Y2567661D01*
X1334827Y1685000D02*
Y1704994D01*
X1324830D01*
X1321498Y1701661D01*
Y1694997D01*
X1324830Y1691665D01*
X1334827D01*
X1328162D02*
X1321498Y1685000D01*
X1301504D02*
X1314833D01*
X1301504Y1698329D01*
Y1701661D01*
X1304836Y1704994D01*
X1311501D01*
X1314833Y1701661D01*
X1200662Y2511000D02*
Y2530994D01*
X1190665D01*
X1187333Y2527661D01*
Y2520997D01*
X1190665Y2517664D01*
X1200662D01*
X1193997D02*
X1187333Y2511000D01*
X1180668D02*
X1174004D01*
X1177336D01*
Y2530994D01*
X1180668Y2527661D01*
X1201772Y1645000D02*
Y1664994D01*
X1191775D01*
X1188443Y1661661D01*
Y1654997D01*
X1191775Y1651665D01*
X1201772D01*
X1195107D02*
X1188443Y1645000D01*
X1181778D02*
X1175114D01*
X1178446D01*
Y1664994D01*
X1181778Y1661661D01*
X2723551Y2398994D02*
Y2379000D01*
X2713554D01*
X2710222Y2382332D01*
Y2395661D01*
X2713554Y2398994D01*
X2723551D01*
X2703558Y2395661D02*
X2700225Y2398994D01*
X2693561D01*
X2690229Y2395661D01*
Y2392329D01*
X2693561Y2388997D01*
X2696893D01*
X2693561D01*
X2690229Y2385664D01*
Y2382332D01*
X2693561Y2379000D01*
X2700225D01*
X2703558Y2382332D01*
X2724661Y1532994D02*
Y1513000D01*
X2714665D01*
X2711332Y1516332D01*
Y1529661D01*
X2714665Y1532994D01*
X2724661D01*
X2704668Y1529661D02*
X2701336Y1532994D01*
X2694671D01*
X2691339Y1529661D01*
Y1526329D01*
X2694671Y1522997D01*
X2698003D01*
X2694671D01*
X2691339Y1519665D01*
Y1516332D01*
X2694671Y1513000D01*
X2701336D01*
X2704668Y1516332D01*
X1295000Y2269994D02*
Y2250000D01*
X1285003D01*
X1281671Y2253332D01*
Y2266661D01*
X1285003Y2269994D01*
X1295000D01*
X1261678Y2250000D02*
X1275006D01*
X1261678Y2263329D01*
Y2266661D01*
X1265010Y2269994D01*
X1271674D01*
X1275006Y2266661D01*
X1305000Y1404994D02*
Y1385000D01*
X1295003D01*
X1291671Y1388332D01*
Y1401661D01*
X1295003Y1404994D01*
X1305000D01*
X1271678Y1385000D02*
X1285006D01*
X1271678Y1398329D01*
Y1401661D01*
X1275010Y1404994D01*
X1281674D01*
X1285006Y1401661D01*
X1065717Y2465994D02*
Y2446000D01*
X1055720D01*
X1052388Y2449332D01*
Y2462661D01*
X1055720Y2465994D01*
X1065717D01*
X1045723Y2446000D02*
X1039059D01*
X1042391D01*
Y2465994D01*
X1045723Y2462661D01*
X1066827Y1599994D02*
Y1580000D01*
X1056830D01*
X1053498Y1583332D01*
Y1596661D01*
X1056830Y1599994D01*
X1066827D01*
X1046833Y1580000D02*
X1040169D01*
X1043501D01*
Y1599994D01*
X1046833Y1596661D01*
X2200222Y2234661D02*
X2203554Y2237994D01*
X2210219D01*
X2213551Y2234661D01*
Y2221332D01*
X2210219Y2218000D01*
X2203554D01*
X2200222Y2221332D01*
X2193558Y2237994D02*
X2180229D01*
Y2234661D01*
X2193558Y2221332D01*
Y2218000D01*
X2201332Y1368661D02*
X2204665Y1371994D01*
X2211329D01*
X2214661Y1368661D01*
Y1355332D01*
X2211329Y1352000D01*
X2204665D01*
X2201332Y1355332D01*
X2194668Y1371994D02*
X2181339D01*
Y1368661D01*
X2194668Y1355332D01*
Y1352000D01*
X1165388Y2425661D02*
X1168720Y2428994D01*
X1175384D01*
X1178717Y2425661D01*
Y2412332D01*
X1175384Y2409000D01*
X1168720D01*
X1165388Y2412332D01*
X1145394Y2409000D02*
X1158723D01*
X1145394Y2422329D01*
Y2425661D01*
X1148726Y2428994D01*
X1155391D01*
X1158723Y2425661D01*
X1166498Y1559661D02*
X1169830Y1562994D01*
X1176495D01*
X1179827Y1559661D01*
Y1546332D01*
X1176495Y1543000D01*
X1169830D01*
X1166498Y1546332D01*
X1146504Y1543000D02*
X1159833D01*
X1146504Y1556329D01*
Y1559661D01*
X1149836Y1562994D01*
X1156501D01*
X1159833Y1559661D01*
%TF.MD5,0350aaf4d3aee350faeddba10c3ac946*%
M02*
