G04 Layer_Color=32896*
%FSLAX26Y26*%
%MOIN*%
%TF.FileFunction,Legend,Bot*%
%TF.Part,Single*%
G01*
G75*
%TA.AperFunction,NonConductor*%
%ADD33C,0.009842*%
%ADD37C,0.007874*%
%ADD38C,0.005000*%
D33*
X1616032Y1712465D02*
G03*
X1616032Y1712465I-4921J0D01*
G01*
X2318583Y1396535D02*
G03*
X2318583Y1396535I-4921J0D01*
G01*
X2317472Y2262535D02*
G03*
X2317472Y2262535I-4921J0D01*
G01*
X1614921Y2578465D02*
G03*
X1614921Y2578465I-4921J0D01*
G01*
D37*
X1320236Y1354566D02*
Y1362442D01*
Y1354566D02*
X1206064D01*
Y1362442D01*
X1243464Y1354566D02*
Y1425434D01*
X1206064D02*
X1320236D01*
Y1417560D01*
X1481188Y1355772D02*
X1552056D01*
Y1702228D01*
X1481188D01*
Y1355772D01*
X1293898Y1540472D02*
X1262402D01*
Y1599528D02*
X1293898D01*
X1206064Y1425434D02*
Y1417560D01*
X1347678Y1679252D02*
Y1710748D01*
X1288622D02*
Y1679252D01*
X1204370Y1684528D02*
X1172874D01*
Y1625472D02*
X1204370D01*
X1088582Y1609686D02*
X1017716D01*
Y1647086D02*
X1025590D01*
X1017716D02*
Y1532914D01*
X1025590D01*
X1080708D02*
X1088582D01*
Y1647086D01*
X1080708D01*
X1550944Y2221772D02*
Y2568228D01*
X1480078D01*
Y2221772D01*
X1550944D01*
X1738142Y2176472D02*
X1769638D01*
Y2235528D02*
X1738142D01*
X1736764Y2266472D02*
X1768260D01*
Y2325528D02*
X1736764D01*
X1857512Y2405252D02*
Y2436748D01*
X1916568D02*
Y2405252D01*
X2038418Y2585252D02*
Y2616748D01*
X2155764Y2593528D02*
X2187260D01*
Y2534472D02*
X2155764D01*
X2156292Y2420528D02*
X2187788D01*
Y2361472D02*
X2156292D01*
X2117890Y2259748D02*
Y2228252D01*
X2058834D02*
Y2259748D01*
X2026040D02*
Y2228252D01*
X1966984D02*
Y2259748D01*
X1772788Y2436472D02*
X1741292D01*
Y2495528D02*
X1772788D01*
X1979362Y2585252D02*
Y2616748D01*
X2371606Y2272772D02*
X2442472D01*
Y2619228D01*
X2371606D01*
Y2272772D01*
X2455764Y2189472D02*
X2487260D01*
X2568834Y2253252D02*
Y2284748D01*
X2694472Y2175252D02*
Y2206748D01*
X2627890Y2253252D02*
Y2284748D01*
X2753528Y2175252D02*
Y2206748D01*
X2755432Y2330914D02*
Y2445086D01*
X2755434D02*
X2747558D01*
X2755432Y2407686D02*
X2684566D01*
Y2445086D02*
X2692440D01*
X2684566D02*
Y2330914D01*
X2692440D01*
X2747558D02*
X2755434D01*
X2666748Y2528472D02*
X2635252D01*
Y2587528D02*
X2666748D01*
X2487260Y2248528D02*
X2455764D01*
X2020528Y1752748D02*
Y1721252D01*
X2156874Y1668472D02*
X2188370D01*
X2188898Y1554528D02*
X2157402D01*
Y1495472D02*
X2188898D01*
X2119000Y1393748D02*
Y1362252D01*
X2059944D02*
Y1393748D01*
X2027150D02*
Y1362252D01*
X1968094D02*
Y1393748D01*
X1917678Y1539252D02*
Y1570748D01*
X1858622D02*
Y1539252D01*
X1773898Y1629528D02*
X1742402D01*
Y1570472D02*
X1773898D01*
X1769370Y1459528D02*
X1737874D01*
Y1400472D02*
X1769370D01*
X1765748Y1329528D02*
X1734252D01*
Y1270472D02*
X1765748D01*
X2156874Y1727528D02*
X2188370D01*
X2372716Y1753228D02*
X2443582D01*
Y1406772D01*
X2372716D01*
Y1753228D01*
X2569944Y1418748D02*
Y1387252D01*
X2629000D02*
Y1418748D01*
X2672188Y1465914D02*
Y1580086D01*
X2680064D01*
X2672188Y1542686D02*
X2743056D01*
Y1580086D02*
Y1465914D01*
X2735182D01*
X2742150Y1338748D02*
Y1307252D01*
X2680064Y1465914D02*
X2672188D01*
X2683094Y1338748D02*
Y1307252D01*
X2735182Y1580086D02*
X2743056D01*
X2658370Y1658472D02*
X2626874D01*
Y1717528D02*
X2658370D01*
X2488370Y1382528D02*
X2456874D01*
Y1323472D02*
X2488370D01*
X1961472Y1721252D02*
Y1752748D01*
X1319126Y2220566D02*
Y2228440D01*
Y2220566D02*
X1204952D01*
Y2228440D01*
X1242354Y2220566D02*
Y2291434D01*
X1204952D02*
X1319126D01*
Y2283560D01*
X1204952D02*
Y2291434D01*
X1261292Y2406472D02*
X1292788D01*
Y2465528D02*
X1261292D01*
X1203260Y2491472D02*
X1171764D01*
X1203260Y2550528D02*
X1171764D01*
X1287512Y2545252D02*
Y2576748D01*
X1346566D02*
Y2545252D01*
X1087472Y2513086D02*
Y2398914D01*
X1079598D01*
X1024480D02*
X1016606D01*
Y2513086D01*
X1024480D01*
X1079598D02*
X1087472D01*
Y2475684D02*
X1016606D01*
D38*
X1305000Y1385000D02*
X1295003D01*
X1291671Y1388332D01*
Y1401661D01*
X1295003Y1404994D01*
X1305000D01*
Y1385000D01*
X1285006Y1401661D02*
X1281674Y1404994D01*
X1275010D01*
X1271678Y1401661D01*
Y1398329D01*
X1285006Y1385000D01*
X1271678D01*
X1265010Y1560000D02*
Y1579994D01*
X1275006Y1569997D01*
X1261678D01*
X1281671D02*
X1285003Y1566665D01*
X1295000D01*
Y1560000D02*
Y1579994D01*
X1285003D01*
X1281671Y1576661D01*
Y1569997D01*
X1288335Y1566665D02*
X1281671Y1560000D01*
X1301678Y1685000D02*
X1315006D01*
X1301678Y1698329D01*
Y1701661D01*
X1305010Y1704994D01*
X1311674D01*
X1315006Y1701661D01*
X1321671D02*
Y1694997D01*
X1325003Y1691665D01*
X1335000D01*
Y1685000D02*
Y1704994D01*
X1325003D01*
X1321671Y1701661D01*
X1328335Y1691665D02*
X1321671Y1685000D01*
X1202000Y1664994D02*
X1192003D01*
X1188671Y1661661D01*
Y1654997D01*
X1192003Y1651665D01*
X1202000D01*
Y1645000D02*
Y1664994D01*
X1195335Y1651665D02*
X1188671Y1645000D01*
X1182006D02*
X1175342D01*
X1178674D01*
Y1664994D01*
X1182006Y1661661D01*
X1169000Y1560661D02*
Y1547332D01*
X1165668Y1544000D01*
X1159003D01*
X1155671Y1547332D01*
X1149006Y1544000D02*
X1135678Y1557329D01*
Y1560661D01*
X1139010Y1563994D01*
X1145674D01*
X1149006Y1560661D01*
X1155671D02*
X1159003Y1563994D01*
X1165668D01*
X1169000Y1560661D01*
X1149006Y1544000D02*
X1135678D01*
X1066000Y1580000D02*
X1056003D01*
X1052671Y1583332D01*
Y1596661D01*
X1056003Y1599994D01*
X1066000D01*
Y1580000D01*
X1046006D02*
X1039342D01*
X1042674D01*
Y1599994D01*
X1046006Y1596661D01*
X1506674Y1543994D02*
X1510006Y1540661D01*
X1506674Y1543994D02*
Y1524000D01*
X1503342D01*
X1510006D01*
X1520003D02*
X1516671Y1527332D01*
Y1543994D01*
X1530000D02*
Y1527332D01*
X1526668Y1524000D01*
X1520003D01*
X1733678Y1309994D02*
X1747006D01*
Y1299997D01*
X1740342Y1303329D01*
X1737010D01*
X1733678Y1299997D01*
Y1293332D01*
X1737010Y1290000D01*
X1743674D01*
X1747006Y1293332D01*
X1753671Y1290000D02*
X1760335Y1296665D01*
X1757003D02*
X1767000D01*
Y1290000D02*
Y1309994D01*
X1757003D01*
X1753671Y1306661D01*
Y1299997D01*
X1757003Y1296665D01*
X1978512Y1373499D02*
X1981011Y1371000D01*
X1986010D01*
X1988509Y1373499D01*
X1996006Y1371000D02*
X1998506D01*
Y1385995D01*
X2001005Y1383496D01*
X2006003D02*
Y1378498D01*
X2008502Y1375998D01*
X2016000D01*
Y1371000D02*
Y1385995D01*
X2008502D01*
X2006003Y1383496D01*
X2011002Y1375998D02*
X2006003Y1371000D01*
X2001005D02*
X1996006D01*
X1988509Y1383496D02*
X1986010Y1385995D01*
X1981011D01*
X1978512Y1383496D01*
Y1380997D01*
X1981011Y1378498D01*
X1983510D01*
X1981011D01*
X1978512Y1375998D01*
Y1373499D01*
X2070512D02*
Y1375998D01*
X2073011Y1378498D01*
X2080509D01*
Y1373499D01*
X2078010Y1371000D01*
X2073011D01*
X2070512Y1373499D01*
Y1385995D02*
X2075510Y1383496D01*
X2080509Y1378498D01*
X2088006Y1371000D02*
X2090506D01*
Y1385995D01*
X2093005Y1383496D01*
X2098003D02*
Y1378498D01*
X2100502Y1375998D01*
X2108000D01*
Y1371000D02*
Y1385995D01*
X2100502D01*
X2098003Y1383496D01*
Y1371000D02*
X2103002Y1375998D01*
X2181677Y1371994D02*
Y1368661D01*
X2195006Y1355332D01*
Y1352000D01*
Y1371994D02*
X2181677D01*
X2201671Y1368661D02*
X2205003Y1371994D01*
X2211668D01*
X2215000Y1368661D01*
Y1355332D01*
X2211668Y1352000D01*
X2205003D01*
X2201671Y1355332D01*
X2459010Y1360995D02*
X2461509Y1358496D01*
X2459010Y1360995D02*
Y1346000D01*
X2456510D01*
X2461509D01*
X2469006D02*
X2471506D01*
Y1360995D01*
X2474005Y1358496D01*
X2479003D02*
Y1353498D01*
X2481502Y1350998D01*
X2489000D01*
Y1346000D02*
Y1360995D01*
X2481502D01*
X2479003Y1358496D01*
X2484002Y1350998D02*
X2479003Y1346000D01*
X2474005D02*
X2469006D01*
X2580512Y1398499D02*
X2583011Y1396000D01*
X2588010D01*
X2590509Y1398499D01*
Y1408496D01*
X2588010Y1410995D01*
X2583011D01*
X2580512Y1408496D01*
Y1398499D01*
X2598006Y1396000D02*
X2600506D01*
Y1410995D01*
X2603005Y1408496D01*
X2608003D02*
Y1403498D01*
X2610502Y1400998D01*
X2618000D01*
X2613002D02*
X2608003Y1396000D01*
X2603005D02*
X2598006D01*
X2618000D02*
Y1410995D01*
X2610502D01*
X2608003Y1408496D01*
X2699010Y1332994D02*
X2695677Y1329661D01*
Y1326329D01*
X2699010Y1322997D01*
X2695677Y1319665D01*
Y1316332D01*
X2699010Y1313000D01*
X2705674D01*
X2709006Y1316332D01*
Y1319665D01*
X2705674Y1322997D01*
X2709006Y1326329D01*
Y1329661D01*
X2705674Y1332994D01*
X2699010D01*
Y1322997D02*
X2705674D01*
X2715671D02*
X2719003Y1319665D01*
X2729000D01*
Y1313000D02*
Y1332994D01*
X2719003D01*
X2715671Y1329661D01*
Y1322997D01*
X2722336Y1319665D02*
X2715671Y1313000D01*
X2714003Y1513000D02*
X2710671Y1516332D01*
Y1529661D01*
X2714003Y1532994D01*
X2724000D01*
Y1513000D01*
X2714003D01*
X2700674D02*
X2704006Y1516332D01*
X2700674Y1513000D02*
X2694010D01*
X2690677Y1516332D01*
Y1519665D01*
X2694010Y1522997D01*
X2697342D01*
X2694010D01*
X2690677Y1526329D01*
Y1529661D01*
X2694010Y1532994D01*
X2700674D01*
X2704006Y1529661D01*
X2661000Y1681000D02*
Y1695995D01*
X2653502D01*
X2651003Y1693496D01*
Y1688498D01*
X2653502Y1685998D01*
X2661000D01*
X2656002D02*
X2651003Y1681000D01*
X2646005D02*
X2641006D01*
X2643506D01*
Y1695995D01*
X2646005Y1693496D01*
X2633509D02*
X2631010Y1695995D01*
X2626011D01*
X2623512Y1693496D01*
Y1690997D01*
X2633509Y1681000D01*
X2623512D01*
X2425000Y1584994D02*
Y1568332D01*
X2421668Y1565000D01*
X2415003D01*
X2411671Y1568332D01*
Y1584994D01*
X2405006Y1581661D02*
X2401674Y1584994D01*
X2395010D01*
X2391677Y1581661D01*
Y1578329D01*
X2405006Y1565000D01*
X2391677D01*
X2189000Y1707994D02*
X2179003D01*
X2175671Y1704661D01*
Y1697997D01*
X2179003Y1694665D01*
X2189000D01*
Y1688000D02*
Y1707994D01*
X2169006Y1704661D02*
Y1701329D01*
X2165674Y1697997D01*
X2155677D01*
Y1691332D02*
Y1704661D01*
X2159010Y1707994D01*
X2165674D01*
X2169006Y1704661D01*
Y1691332D02*
X2165674Y1688000D01*
X2159010D01*
X2155677Y1691332D01*
X2175671Y1688000D02*
X2182336Y1694665D01*
X2184502Y1532995D02*
X2182003Y1530496D01*
Y1525498D01*
X2184502Y1522998D01*
X2192000D01*
Y1518000D02*
Y1532995D01*
X2184502D01*
X2174506D02*
X2177005Y1530496D01*
X2174506Y1532995D02*
Y1518000D01*
X2172006D01*
X2177005D01*
X2182003D02*
X2187002Y1522998D01*
X2164509Y1525498D02*
X2154512D01*
X2157011Y1518000D02*
Y1532995D01*
X2164509Y1525498D01*
X2093005Y1371000D02*
X2088006D01*
X1905000Y1545000D02*
Y1564994D01*
X1895003D01*
X1891671Y1561661D01*
Y1554997D01*
X1895003Y1551665D01*
X1905000D01*
X1898335D02*
X1891671Y1545000D01*
X1885006D02*
Y1548332D01*
X1871678Y1561661D01*
Y1564994D01*
X1885006D01*
X1775000Y1609994D02*
X1765003D01*
X1761671Y1606661D01*
Y1599997D01*
X1765003Y1596665D01*
X1775000D01*
Y1590000D02*
Y1609994D01*
X1748342Y1606661D02*
X1755006Y1599997D01*
Y1593332D01*
X1751674Y1590000D01*
X1745010D01*
X1741678Y1593332D01*
Y1596665D01*
X1745010Y1599997D01*
X1755006D01*
X1768335Y1596665D02*
X1761671Y1590000D01*
X1760003Y1439994D02*
X1756671Y1436661D01*
Y1429997D01*
X1760003Y1426665D01*
X1770000D01*
Y1420000D02*
Y1439994D01*
X1760003D01*
X1750006Y1436661D02*
X1746674Y1439994D01*
X1740010D01*
X1736678Y1436661D01*
Y1433329D01*
X1740010Y1429997D01*
X1743342D01*
X1740010D01*
X1736678Y1426665D01*
Y1423332D01*
X1740010Y1420000D01*
X1746674D01*
X1750006Y1423332D01*
X1756671Y1420000D02*
X1763335Y1426665D01*
X1748342Y1606661D02*
X1741678Y1609994D01*
X1972512Y1732499D02*
X1975011Y1730000D01*
X1980010D01*
X1982509Y1732499D01*
Y1737498D02*
X1977510Y1739997D01*
X1975011D01*
X1972512Y1737498D01*
Y1732499D01*
Y1744995D02*
X1982509D01*
Y1737498D01*
X1990006Y1730000D02*
X1992506D01*
Y1744995D01*
X1995005Y1742496D01*
Y1730000D02*
X1990006D01*
X2000003D02*
X2005002Y1734998D01*
X2002502D02*
X2010000D01*
Y1730000D02*
Y1744995D01*
X2002502D01*
X2000003Y1742496D01*
Y1737498D01*
X2002502Y1734998D01*
X1771000Y2196000D02*
Y2215994D01*
X1761003D01*
X1757671Y2212661D01*
Y2205997D01*
X1761003Y2202664D01*
X1771000D01*
X1764335D02*
X1757671Y2196000D01*
X1747674D02*
X1751006Y2199332D01*
X1747674Y2196000D02*
X1741010D01*
X1737678Y2199332D01*
Y2205997D01*
X1741010Y2209329D01*
X1744342D01*
X1751006Y2205997D01*
Y2215994D01*
X1737678D01*
X1739010Y2286000D02*
X1745674D01*
X1749006Y2289332D01*
X1755671Y2286000D02*
X1762335Y2292664D01*
X1759003D02*
X1769000D01*
Y2286000D02*
Y2305994D01*
X1759003D01*
X1755671Y2302661D01*
Y2295997D01*
X1759003Y2292664D01*
X1742342Y2295997D02*
X1739010D01*
X1742342D01*
X1739010D02*
X1735678Y2292664D01*
Y2289332D01*
X1739010Y2286000D01*
Y2295997D02*
X1735678Y2299329D01*
Y2302661D01*
X1739010Y2305994D01*
X1745674D01*
X1749006Y2302661D01*
X1884006Y2411000D02*
Y2414332D01*
X1870678Y2427661D01*
Y2430994D01*
X1884006D01*
X1894003D02*
X1890671Y2427661D01*
Y2420997D01*
X1894003Y2417664D01*
X1904000D01*
Y2411000D02*
Y2430994D01*
X1894003D01*
X1897335Y2417664D02*
X1890671Y2411000D01*
X1990512Y2596499D02*
X1993011Y2594000D01*
X1998010D01*
X2000509Y2596499D01*
X2008006Y2594000D02*
X2010506D01*
Y2608995D01*
X2013005Y2606496D01*
X2018003D02*
Y2601498D01*
X2020502Y2598998D01*
X2028000D01*
Y2594000D02*
Y2608995D01*
X2020502D01*
X2018003Y2606496D01*
X2000509Y2608995D02*
Y2601498D01*
X1995510Y2603997D01*
X1993011D01*
X1990512Y2601498D01*
Y2596499D01*
X2008006Y2594000D02*
X2013005D01*
X2018003D02*
X2023002Y2598998D01*
X2154677Y2570661D02*
X2158010Y2573994D01*
X2164674D01*
X2168006Y2570661D01*
Y2567329D01*
X2164674Y2563997D01*
X2154677D01*
Y2557332D02*
Y2570661D01*
Y2557332D02*
X2158010Y2554000D01*
X2164674D01*
X2168006Y2557332D01*
X2174671Y2554000D02*
X2181336Y2560664D01*
X2178003D02*
X2188000D01*
Y2554000D02*
Y2573994D01*
X2178003D01*
X2174671Y2570661D01*
Y2563997D01*
X2178003Y2560664D01*
X2000509Y2608995D02*
X1990512D01*
X1774000Y2475994D02*
X1764003D01*
X1760671Y2472661D01*
Y2465997D01*
X1764003Y2462664D01*
X1774000D01*
Y2456000D02*
Y2475994D01*
X1767335Y2462664D02*
X1760671Y2456000D01*
X1754006Y2459332D02*
X1750674Y2456000D01*
X1744010D01*
X1740678Y2459332D01*
Y2462664D01*
X1744010Y2465997D01*
X1754006D01*
Y2459332D01*
Y2465997D02*
X1747342Y2472661D01*
X1740678Y2475994D01*
X1980011Y2251995D02*
X1977512Y2249496D01*
Y2246997D01*
X1980011Y2244498D01*
X1982510D01*
X1980011D01*
X1977512Y2241998D01*
Y2239499D01*
X1980011Y2237000D01*
X1985010D01*
X1987509Y2239499D01*
X1995006Y2237000D02*
X1997506D01*
Y2251995D01*
X2000005Y2249496D01*
X2005003D02*
Y2244498D01*
X2007502Y2241998D01*
X2015000D01*
Y2237000D02*
Y2251995D01*
X2007502D01*
X2005003Y2249496D01*
X2010002Y2241998D02*
X2005003Y2237000D01*
X2000005D02*
X1995006D01*
X1987509Y2249496D02*
X1985010Y2251995D01*
X1980011D01*
X2069512D02*
X2074510Y2249496D01*
X2079509Y2244498D01*
Y2239499D01*
X2077010Y2237000D01*
X2072011D01*
X2069512Y2239499D01*
Y2241998D01*
X2072011Y2244498D01*
X2079509D01*
X2087006Y2237000D02*
X2089506D01*
Y2251995D01*
X2092005Y2249496D01*
X2097003D02*
Y2244498D01*
X2099502Y2241998D01*
X2107000D01*
Y2237000D02*
Y2251995D01*
X2099502D01*
X2097003Y2249496D01*
Y2237000D02*
X2102002Y2241998D01*
X2180677Y2237994D02*
Y2234661D01*
X2194006Y2221332D01*
Y2218000D01*
Y2237994D02*
X2180677D01*
X2200671Y2234661D02*
X2204003Y2237994D01*
X2210668D01*
X2214000Y2234661D01*
Y2221332D01*
X2210668Y2218000D01*
X2204003D01*
X2200671Y2221332D01*
X2191000Y2384000D02*
Y2398995D01*
X2183502D01*
X2181003Y2396496D01*
Y2391498D01*
X2183502Y2388998D01*
X2191000D01*
X2186002D02*
X2181003Y2384000D01*
X2176005D02*
X2171006D01*
X2173506D01*
Y2398995D01*
X2176005Y2396496D01*
X2163509Y2391498D02*
X2153512D01*
X2156011Y2384000D02*
Y2398995D01*
X2163509Y2391498D01*
X2092005Y2237000D02*
X2087006D01*
X2390677Y2431000D02*
X2404006D01*
X2390677Y2444329D01*
Y2447661D01*
X2394010Y2450994D01*
X2400674D01*
X2404006Y2447661D01*
X2410671Y2450994D02*
Y2434332D01*
X2414003Y2431000D01*
X2420668D01*
X2424000Y2434332D01*
Y2450994D01*
X2458010Y2226995D02*
X2460509Y2224496D01*
X2458010Y2226995D02*
Y2212000D01*
X2455510D01*
X2460509D01*
X2468006D02*
X2470506D01*
Y2226995D01*
X2473005Y2224496D01*
X2478003D02*
Y2219498D01*
X2480502Y2216998D01*
X2488000D01*
Y2212000D02*
Y2226995D01*
X2480502D01*
X2478003Y2224496D01*
X2483002Y2216998D02*
X2478003Y2212000D01*
X2473005D02*
X2468006D01*
X2579512Y2264499D02*
X2582011Y2262000D01*
X2587010D01*
X2589509Y2264499D01*
Y2274496D01*
X2587010Y2276995D01*
X2582011D01*
X2579512Y2274496D01*
Y2264499D01*
X2597006Y2262000D02*
X2599506D01*
Y2276995D01*
X2602005Y2274496D01*
X2607003D02*
Y2269498D01*
X2609502Y2266998D01*
X2617000D01*
Y2262000D02*
Y2276995D01*
X2609502D01*
X2607003Y2274496D01*
X2612002Y2266998D02*
X2607003Y2262000D01*
X2602005D02*
X2597006D01*
X2707677Y2197661D02*
Y2194329D01*
X2711010Y2190997D01*
X2707677Y2187664D01*
Y2184332D01*
X2711010Y2181000D01*
X2717674D01*
X2721006Y2184332D01*
Y2187664D01*
X2717674Y2190997D01*
X2721006Y2194329D01*
Y2197661D01*
X2717674Y2200994D01*
X2711010D01*
X2707677Y2197661D01*
X2711010Y2190997D02*
X2717674D01*
X2727671D02*
X2731003Y2187664D01*
X2741000D01*
Y2181000D02*
Y2200994D01*
X2731003D01*
X2727671Y2197661D01*
Y2190997D01*
X2734336Y2187664D02*
X2727671Y2181000D01*
X2727003Y2378000D02*
X2723671Y2381332D01*
Y2394661D01*
X2727003Y2397994D01*
X2737000D01*
Y2378000D01*
X2727003D01*
X2713674D02*
X2717006Y2381332D01*
X2713674Y2378000D02*
X2707010D01*
X2703677Y2381332D01*
Y2384664D01*
X2707010Y2387997D01*
X2710342D01*
X2707010D01*
X2703677Y2391329D01*
Y2394661D01*
X2707010Y2397994D01*
X2713674D01*
X2717006Y2394661D01*
X2670000Y2551000D02*
Y2565995D01*
X2662502D01*
X2660003Y2563496D01*
Y2558498D01*
X2662502Y2555998D01*
X2670000D01*
X2665002D02*
X2660003Y2551000D01*
X2655005D02*
X2650006D01*
X2652506D01*
Y2565995D01*
X2655005Y2563496D01*
X2642509D02*
X2640010Y2565995D01*
X2635011D01*
X2632512Y2563496D01*
Y2560997D01*
X2642509Y2551000D01*
X2632512D01*
X1529000Y2409994D02*
Y2393332D01*
X1525668Y2390000D01*
X1519003D01*
X1515671Y2393332D01*
Y2409994D01*
X1509006Y2406661D02*
X1505674Y2409994D01*
Y2390000D01*
X1502342D01*
X1509006D01*
X1334000Y2551000D02*
Y2570994D01*
X1324003D01*
X1320671Y2567661D01*
Y2560997D01*
X1324003Y2557664D01*
X1334000D01*
X1327335D02*
X1320671Y2551000D01*
X1314006D02*
X1300678Y2564329D01*
Y2567661D01*
X1304010Y2570994D01*
X1310674D01*
X1314006Y2567661D01*
Y2551000D02*
X1300678D01*
X1201000Y2530994D02*
X1191003D01*
X1187671Y2527661D01*
Y2520997D01*
X1191003Y2517664D01*
X1201000D01*
Y2511000D02*
Y2530994D01*
X1264010Y2445994D02*
X1274006Y2435997D01*
X1260678D01*
X1264010Y2445994D02*
Y2426000D01*
X1280671D02*
X1287335Y2432664D01*
X1284003D02*
X1294000D01*
Y2426000D02*
Y2445994D01*
X1284003D01*
X1280671Y2442661D01*
Y2435997D01*
X1284003Y2432664D01*
X1194335Y2517664D02*
X1187671Y2511000D01*
X1181006D02*
X1174342D01*
X1177674D01*
Y2530994D01*
X1181006Y2527661D01*
X1179000Y2425661D02*
Y2412332D01*
X1175668Y2409000D01*
X1169003D01*
X1165671Y2412332D01*
X1159006Y2409000D02*
X1145678Y2422329D01*
Y2425661D01*
X1149010Y2428994D01*
X1155674D01*
X1159006Y2425661D01*
X1165671D02*
X1169003Y2428994D01*
X1175668D01*
X1179000Y2425661D01*
X1159006Y2409000D02*
X1145678D01*
X1065000Y2446000D02*
X1055003D01*
X1051671Y2449332D01*
Y2462661D01*
X1055003Y2465994D01*
X1065000D01*
Y2446000D01*
X1045006D02*
X1038342D01*
X1041674D01*
Y2465994D01*
X1045006Y2462661D01*
X1261678Y2266661D02*
X1265010Y2269994D01*
X1271674D01*
X1275006Y2266661D01*
X1281671D02*
X1285003Y2269994D01*
X1295000D01*
Y2250000D01*
X1285003D01*
X1281671Y2253332D01*
Y2266661D01*
X1261678D02*
Y2263329D01*
X1275006Y2250000D01*
X1261678D01*
%TF.MD5,0d75e7c9c40517c311952992bac45bb9*%
M02*
