G04 Layer_Physical_Order=1*
G04 Layer_Color=255*
%FSLAX26Y26*%
%MOIN*%
%TF.FileFunction,Copper,L1,Top,Signal*%
%TF.Part,Single*%
G01*
G75*
%TA.AperFunction,SMDPad,CuDef*%
%ADD10O,0.023622X0.086614*%
%ADD11R,0.043307X0.066929*%
%ADD12R,0.066929X0.043307*%
%ADD13R,0.033465X0.062992*%
%ADD14O,0.066929X0.017716*%
%ADD15O,0.086614X0.023622*%
G04:AMPARAMS|DCode=16|XSize=55.118mil|YSize=43.307mil|CornerRadius=0mil|HoleSize=0mil|Usage=FLASHONLY|Rotation=45.000|XOffset=0mil|YOffset=0mil|HoleType=Round|Shape=Rectangle|*
%AMROTATEDRECTD16*
4,1,4,-0.004176,-0.034799,-0.034799,-0.004176,0.004176,0.034799,0.034799,0.004176,-0.004176,-0.034799,0.0*
%
%ADD16ROTATEDRECTD16*%

%ADD17R,0.043307X0.055118*%
%ADD18R,0.031496X0.035433*%
G04:AMPARAMS|DCode=19|XSize=66.929mil|YSize=43.307mil|CornerRadius=0mil|HoleSize=0mil|Usage=FLASHONLY|Rotation=135.000|XOffset=0mil|YOffset=0mil|HoleType=Round|Shape=Rectangle|*
%AMROTATEDRECTD19*
4,1,4,0.038974,-0.008352,0.008352,-0.038974,-0.038974,0.008352,-0.008352,0.038974,0.038974,-0.008352,0.0*
%
%ADD19ROTATEDRECTD19*%

G04:AMPARAMS|DCode=20|XSize=21.654mil|YSize=62.992mil|CornerRadius=0mil|HoleSize=0mil|Usage=FLASHONLY|Rotation=135.000|XOffset=0mil|YOffset=0mil|HoleType=Round|Shape=Round|*
%AMOVALD20*
21,1,0.041339,0.021654,0.000000,0.000000,225.0*
1,1,0.021654,0.014615,0.014615*
1,1,0.021654,-0.014615,-0.014615*
%
%ADD20OVALD20*%

G04:AMPARAMS|DCode=21|XSize=21.654mil|YSize=62.992mil|CornerRadius=0mil|HoleSize=0mil|Usage=FLASHONLY|Rotation=45.000|XOffset=0mil|YOffset=0mil|HoleType=Round|Shape=Round|*
%AMOVALD21*
21,1,0.041339,0.021654,0.000000,0.000000,135.0*
1,1,0.021654,0.014615,-0.014615*
1,1,0.021654,-0.014615,0.014615*
%
%ADD21OVALD21*%

%ADD22R,0.011024X0.019685*%
%ADD23R,0.062992X0.035433*%
%TA.AperFunction,Conductor*%
%ADD24C,0.010000*%
%TA.AperFunction,ComponentPad*%
%ADD25C,0.055118*%
%ADD26C,0.059055*%
%ADD27R,0.059055X0.059055*%
%ADD28R,0.059055X0.059055*%
%TA.AperFunction,ViaPad*%
%ADD29C,0.100000*%
%ADD30C,0.025000*%
%ADD31C,0.019685*%
G36*
X1601301Y1452430D02*
Y1368684D01*
X1602077Y1364782D01*
X1604287Y1361474D01*
X1641471Y1324290D01*
X1644778Y1322080D01*
X1648680Y1321304D01*
X1706000D01*
X1709902Y1322080D01*
X1713210Y1324290D01*
X1715420Y1327598D01*
X1716196Y1331500D01*
Y1335634D01*
X1734134D01*
X1737439Y1336292D01*
X1791496Y1282234D01*
Y1231535D01*
X1844803D01*
Y1308465D01*
X1794105D01*
X1746766Y1355803D01*
X1744126Y1359755D01*
X1743671Y1360059D01*
Y1365059D01*
X1744126Y1365363D01*
X1747188Y1369947D01*
X1748264Y1375354D01*
X1747188Y1380761D01*
X1744126Y1385345D01*
X1743671Y1385649D01*
Y1390649D01*
X1744126Y1390953D01*
X1747188Y1395537D01*
X1748264Y1400944D01*
X1747188Y1406351D01*
X1744126Y1410935D01*
X1746524Y1415346D01*
X1747350Y1416340D01*
X1856535D01*
Y1405197D01*
X1900000D01*
Y1394803D01*
X1856535D01*
Y1341496D01*
X1900000D01*
X1900000Y1220000D01*
X1750000Y1220000D01*
X1585412Y1220000D01*
X1580412Y1220919D01*
X1580412Y1331774D01*
X1580304Y1332034D01*
X1580386Y1332304D01*
X1579525Y1333914D01*
X1578827Y1335600D01*
X1578566Y1335708D01*
X1578433Y1335957D01*
X1573433Y1340060D01*
X1573164Y1340142D01*
X1573007Y1340377D01*
X1571216Y1340733D01*
X1569469Y1341263D01*
X1569221Y1341130D01*
X1568944Y1341185D01*
X1568247Y1341046D01*
X1520101D01*
X1516272Y1341808D01*
X1513478Y1343675D01*
X1511612Y1346468D01*
X1510956Y1349764D01*
X1511612Y1353060D01*
X1513478Y1355853D01*
X1516272Y1357720D01*
X1520101Y1358482D01*
X1568247D01*
X1568944Y1358343D01*
X1569221Y1358398D01*
X1569469Y1358265D01*
X1571216Y1358795D01*
X1573007Y1359151D01*
X1573164Y1359386D01*
X1573433Y1359468D01*
X1578433Y1363571D01*
X1578566Y1363820D01*
X1578827Y1363928D01*
X1579525Y1365614D01*
X1580386Y1367224D01*
X1580304Y1367494D01*
X1580412Y1367755D01*
Y1367818D01*
X1581834Y1369947D01*
X1582910Y1375354D01*
X1581834Y1380761D01*
X1580412Y1382890D01*
X1580412Y1393408D01*
X1581834Y1395537D01*
X1582910Y1400944D01*
X1581834Y1406351D01*
X1580412Y1408480D01*
Y1408545D01*
X1580304Y1408806D01*
X1580386Y1409076D01*
X1579525Y1410686D01*
X1578827Y1412372D01*
X1578566Y1412480D01*
X1578433Y1412729D01*
X1573433Y1416832D01*
X1573163Y1416914D01*
X1573007Y1417149D01*
X1571216Y1417505D01*
X1569469Y1418035D01*
X1569221Y1417902D01*
X1568944Y1417957D01*
X1568247Y1417818D01*
X1520101D01*
X1516527Y1418529D01*
X1515906Y1418406D01*
X1513867Y1418812D01*
X1510905Y1421171D01*
Y1447306D01*
X1528706Y1465107D01*
X1530916Y1468414D01*
X1531692Y1472316D01*
Y1476535D01*
X1577195D01*
X1601301Y1452430D01*
D02*
G37*
G36*
X2103731Y2118404D02*
X1955790Y1970464D01*
X1953580Y1967156D01*
X1952804Y1963254D01*
Y1922935D01*
X1873096Y1843227D01*
X1871663Y1843512D01*
X1865488Y1842284D01*
X1860253Y1838786D01*
X1831022Y1809555D01*
X1827524Y1804320D01*
X1826296Y1798145D01*
X1826533Y1796952D01*
X1812813Y1783232D01*
X1804176Y1791870D01*
X1758130Y1745824D01*
X1795824Y1708130D01*
X1827498Y1739804D01*
X1840777D01*
X1900536Y1680044D01*
X1903844Y1677834D01*
X1907746Y1677058D01*
X2153025D01*
X2155208Y1673790D01*
X2172143Y1656856D01*
X2171575Y1654000D01*
X2172933Y1647172D01*
X2176801Y1641383D01*
X2182590Y1637515D01*
X2189418Y1636157D01*
X2196246Y1637515D01*
X2202035Y1641383D01*
X2205903Y1647172D01*
X2207261Y1654000D01*
X2205903Y1660828D01*
X2202035Y1666617D01*
X2196246Y1670485D01*
X2189418Y1671843D01*
X2186562Y1671275D01*
X2172614Y1685223D01*
Y1688215D01*
X2208463Y1724064D01*
X2161060Y1771468D01*
X2162896Y1776127D01*
X2166876Y1776541D01*
X2170127Y1773290D01*
X2173434Y1771080D01*
X2177336Y1770304D01*
X2195277D01*
X2215790Y1749790D01*
X2219098Y1747580D01*
X2223000Y1746804D01*
X2883777D01*
X2894804Y1735777D01*
Y1706148D01*
X2890185Y1704235D01*
X2887210Y1707210D01*
X2883902Y1709420D01*
X2883432Y1709513D01*
X2880160Y1717413D01*
X2874625Y1724625D01*
X2867413Y1730160D01*
X2859014Y1733639D01*
X2850000Y1734825D01*
X2840986Y1733639D01*
X2832587Y1730160D01*
X2825375Y1724625D01*
X2819840Y1717413D01*
X2816361Y1709014D01*
X2815175Y1700000D01*
X2816361Y1690986D01*
X2819840Y1682587D01*
X2825375Y1675375D01*
X2832587Y1669840D01*
X2840986Y1666361D01*
X2850000Y1665175D01*
X2859014Y1666361D01*
X2867413Y1669840D01*
X2874625Y1675375D01*
X2875069Y1675954D01*
X2879804Y1674346D01*
Y1534527D01*
X2815472D01*
Y1510196D01*
X2093223D01*
X1984210Y1619210D01*
X1980902Y1621420D01*
X1977000Y1622196D01*
X1764223D01*
X1718196Y1668223D01*
Y1893057D01*
X1723196Y1895730D01*
X1724901Y1894590D01*
X1731077Y1893362D01*
X1733427Y1893829D01*
X1737679Y1889577D01*
X1737212Y1887229D01*
X1738440Y1881053D01*
X1741938Y1875818D01*
X1747173Y1872320D01*
X1753349Y1871092D01*
X1755697Y1871559D01*
X1759949Y1867307D01*
X1759482Y1864957D01*
X1760710Y1858781D01*
X1764208Y1853546D01*
X1769443Y1850048D01*
X1775619Y1848820D01*
X1777969Y1849287D01*
X1782221Y1845035D01*
X1781754Y1842687D01*
X1782982Y1836511D01*
X1786480Y1831276D01*
X1791715Y1827778D01*
X1797891Y1826550D01*
X1804066Y1827778D01*
X1809301Y1831276D01*
X1838532Y1860507D01*
X1842030Y1865742D01*
X1843258Y1871917D01*
X1842030Y1878093D01*
X1838532Y1883328D01*
X1833297Y1886826D01*
X1827121Y1888054D01*
X1824771Y1887587D01*
X1820519Y1891839D01*
X1820986Y1894187D01*
X1819758Y1900363D01*
X1816260Y1905598D01*
X1811025Y1909096D01*
X1804849Y1910324D01*
X1802501Y1909857D01*
X1798249Y1914109D01*
X1798716Y1916459D01*
X1797488Y1922635D01*
X1793990Y1927870D01*
X1788755Y1931368D01*
X1782579Y1932596D01*
X1780229Y1932129D01*
X1775977Y1936381D01*
X1776444Y1938729D01*
X1775216Y1944905D01*
X1771718Y1950140D01*
X1766483Y1953638D01*
X1760307Y1954866D01*
X1757957Y1954399D01*
X1753705Y1958651D01*
X1754172Y1961001D01*
X1752944Y1967177D01*
X1749446Y1972412D01*
X1744211Y1975910D01*
X1738035Y1977138D01*
X1731860Y1975910D01*
X1726625Y1972412D01*
X1697394Y1943181D01*
X1693896Y1937946D01*
X1692668Y1931771D01*
X1693896Y1925595D01*
X1697394Y1920360D01*
X1697804Y1920086D01*
Y1664000D01*
X1698580Y1660098D01*
X1700790Y1656790D01*
X1752790Y1604790D01*
X1756098Y1602580D01*
X1760000Y1601804D01*
X1972777D01*
X2081790Y1492790D01*
X2085098Y1490580D01*
X2089000Y1489804D01*
X2815472D01*
Y1470196D01*
X2082497D01*
X1960678Y1592016D01*
X1957370Y1594226D01*
X1953468Y1595002D01*
X1721417D01*
X1680196Y1636223D01*
Y1995227D01*
X1711911Y2026942D01*
X1726625Y2012228D01*
X1731860Y2008730D01*
X1738035Y2007502D01*
X1744211Y2008730D01*
X1749446Y2012228D01*
X1752944Y2017463D01*
X1754172Y2023639D01*
X1753705Y2025989D01*
X1757957Y2030241D01*
X1760307Y2029774D01*
X1766483Y2031002D01*
X1771718Y2034500D01*
X1775216Y2039735D01*
X1776444Y2045911D01*
X1775977Y2048259D01*
X1780229Y2052511D01*
X1782579Y2052044D01*
X1788755Y2053272D01*
X1793990Y2056770D01*
X1797488Y2062005D01*
X1798716Y2068181D01*
X1798249Y2070531D01*
X1802501Y2074783D01*
X1804849Y2074316D01*
X1811025Y2075544D01*
X1816260Y2079042D01*
X1819758Y2084277D01*
X1820986Y2090453D01*
X1820519Y2092801D01*
X1824771Y2097053D01*
X1827121Y2096586D01*
X1833297Y2097814D01*
X1838532Y2101312D01*
X1842030Y2106547D01*
X1843258Y2112723D01*
X1842791Y2115073D01*
X1847043Y2119325D01*
X1849391Y2118858D01*
X1855567Y2120086D01*
X1860802Y2123584D01*
X1864300Y2128819D01*
X1865528Y2134995D01*
X1865061Y2137343D01*
X1869313Y2141595D01*
X1871663Y2141128D01*
X1877839Y2142356D01*
X1883074Y2145854D01*
X1886572Y2151089D01*
X1887800Y2157265D01*
X1887333Y2159615D01*
X1891585Y2163867D01*
X1893933Y2163400D01*
X1900109Y2164628D01*
X1905344Y2168126D01*
X1908842Y2173361D01*
X1910070Y2179537D01*
X1909603Y2181885D01*
X1913855Y2186137D01*
X1916205Y2185670D01*
X1922381Y2186898D01*
X1927616Y2190396D01*
X1931114Y2195631D01*
X1932342Y2201807D01*
X1931875Y2204157D01*
X1936127Y2208409D01*
X1938475Y2207942D01*
X1944651Y2209170D01*
X1949886Y2212668D01*
X1953384Y2217903D01*
X1954612Y2224079D01*
X1954145Y2226429D01*
X1958397Y2230681D01*
X1960747Y2230214D01*
X1966923Y2231442D01*
X1972158Y2234940D01*
X1975349Y2239715D01*
X1976662Y2240533D01*
X1980452Y2241683D01*
X2103731Y2118404D01*
D02*
G37*
G36*
X1300000Y1425000D02*
X1400007D01*
X1403189Y1421818D01*
Y1415504D01*
X1403966Y1411602D01*
X1406176Y1408295D01*
X1412034Y1402437D01*
X1415341Y1400227D01*
X1419243Y1399450D01*
X1494457D01*
X1498358Y1400227D01*
X1501666Y1402437D01*
X1507919Y1408690D01*
X1510129Y1411997D01*
X1515471Y1413221D01*
X1519568Y1412406D01*
X1568780D01*
X1570000Y1412649D01*
X1575000Y1408545D01*
X1575000Y1367755D01*
X1570000Y1363651D01*
X1568780Y1363894D01*
X1519568D01*
X1514160Y1362818D01*
X1509576Y1359755D01*
X1506514Y1355171D01*
X1505438Y1349764D01*
X1506514Y1344357D01*
X1509576Y1339773D01*
X1514160Y1336710D01*
X1519568Y1335634D01*
X1568780D01*
X1570000Y1335877D01*
X1575000Y1331774D01*
X1575000Y1220000D01*
X1400000D01*
X1400000Y1100000D01*
X1300000D01*
Y1300000D01*
X1200000D01*
Y1313858D01*
X1215118D01*
Y1390786D01*
X1200000D01*
Y1475000D01*
X1205483D01*
X1208960Y1471440D01*
Y1441755D01*
X1229984D01*
Y1471284D01*
X1268016D01*
Y1441755D01*
X1289040D01*
Y1471440D01*
X1292517Y1475000D01*
X1300000D01*
Y1425000D01*
D02*
G37*
G36*
X3000000Y1000000D02*
X1000000D01*
Y1500000D01*
X1131496D01*
Y1451535D01*
X1184803D01*
Y1500000D01*
X1200000D01*
Y1480412D01*
X1196173Y1478827D01*
X1194588Y1475000D01*
Y1390786D01*
X1196173Y1386960D01*
X1200000Y1385374D01*
Y1319270D01*
X1196173Y1317684D01*
X1194588Y1313858D01*
Y1300000D01*
X1196173Y1296173D01*
X1200000Y1294588D01*
X1294588D01*
Y1100000D01*
X1296173Y1096173D01*
X1300000Y1094588D01*
X1400000D01*
X1403827Y1096173D01*
X1405412Y1100000D01*
X1405412Y1214588D01*
X1575000D01*
X1578653Y1216101D01*
X1579434Y1215596D01*
X1584434Y1214677D01*
X1584937Y1214785D01*
X1585412Y1214588D01*
X1750000Y1214588D01*
X1900000Y1214588D01*
X1903827Y1216173D01*
X1905412Y1220000D01*
Y1235197D01*
X1933465D01*
Y1288504D01*
X1905412D01*
Y1341496D01*
X1903827Y1345323D01*
X1900000Y1346909D01*
Y1389391D01*
X1903827Y1390977D01*
X1905412Y1394803D01*
Y1405197D01*
X1933465D01*
Y1458504D01*
X1856535D01*
Y1436732D01*
X1800000D01*
Y1500000D01*
X1740158D01*
Y1510867D01*
X1698662D01*
Y1500000D01*
X1582569D01*
X1579803Y1502766D01*
Y1548269D01*
X1674312D01*
X1680725Y1541856D01*
X1680157Y1539000D01*
X1681515Y1532172D01*
X1685383Y1526383D01*
X1691172Y1522515D01*
X1698000Y1521157D01*
X1704828Y1522515D01*
X1710617Y1526383D01*
X1714485Y1532172D01*
X1715843Y1539000D01*
X1714485Y1545828D01*
X1710617Y1551617D01*
X1706137Y1554610D01*
X1707654Y1559610D01*
X1934777D01*
X2017804Y1476583D01*
Y1248000D01*
X2018580Y1244098D01*
X2020790Y1240790D01*
X2057790Y1203790D01*
X2061098Y1201580D01*
X2065000Y1200804D01*
X2184777D01*
X2219351Y1166230D01*
X2216361Y1159014D01*
X2215175Y1150000D01*
X2216361Y1140986D01*
X2219840Y1132587D01*
X2225375Y1125375D01*
X2232587Y1119840D01*
X2240986Y1116361D01*
X2250000Y1115175D01*
X2259014Y1116361D01*
X2267413Y1119840D01*
X2274625Y1125375D01*
X2280160Y1132587D01*
X2283639Y1140986D01*
X2284825Y1150000D01*
X2283639Y1159014D01*
X2280160Y1167413D01*
X2274625Y1174625D01*
X2267413Y1180160D01*
X2259014Y1183639D01*
X2250000Y1184825D01*
X2240986Y1183639D01*
X2233770Y1180649D01*
X2196210Y1218210D01*
X2192902Y1220420D01*
X2189000Y1221196D01*
X2161536D01*
X2160542Y1226196D01*
X2161420Y1226560D01*
X2168221Y1231779D01*
X2173440Y1238580D01*
X2176721Y1246500D01*
X2177840Y1255000D01*
X2176721Y1263500D01*
X2173440Y1271420D01*
X2168221Y1278221D01*
X2161420Y1283440D01*
X2153500Y1286721D01*
X2145000Y1287840D01*
X2136500Y1286721D01*
X2128580Y1283440D01*
X2121779Y1278221D01*
X2116560Y1271420D01*
X2113279Y1263500D01*
X2112160Y1255000D01*
X2113279Y1246500D01*
X2116560Y1238580D01*
X2121779Y1231779D01*
X2128580Y1226560D01*
X2129458Y1226196D01*
X2128464Y1221196D01*
X2069223D01*
X2038196Y1252223D01*
Y1478588D01*
X2043196Y1480659D01*
X2071064Y1452790D01*
X2074372Y1450580D01*
X2078274Y1449804D01*
X2890000D01*
X2894804Y1445662D01*
Y1412223D01*
X2849777Y1367196D01*
X2757000D01*
X2753098Y1366420D01*
X2749790Y1364210D01*
X2566230Y1180649D01*
X2559014Y1183639D01*
X2550000Y1184825D01*
X2540986Y1183639D01*
X2532587Y1180160D01*
X2525375Y1174625D01*
X2519840Y1167413D01*
X2516361Y1159014D01*
X2515175Y1150000D01*
X2516361Y1140986D01*
X2519840Y1132587D01*
X2525375Y1125375D01*
X2532587Y1119840D01*
X2540986Y1116361D01*
X2550000Y1115175D01*
X2559014Y1116361D01*
X2567413Y1119840D01*
X2574625Y1125375D01*
X2580160Y1132587D01*
X2583639Y1140986D01*
X2584825Y1150000D01*
X2583639Y1159014D01*
X2580649Y1166230D01*
X2761223Y1346804D01*
X2854000D01*
X2857902Y1347580D01*
X2861210Y1349790D01*
X2912210Y1400790D01*
X2914420Y1404098D01*
X2915196Y1408000D01*
Y1740000D01*
X2914420Y1743902D01*
X2912210Y1747210D01*
X2895210Y1764210D01*
X2891902Y1766420D01*
X2888000Y1767196D01*
X2258128D01*
X2256214Y1771815D01*
X2283629Y1799230D01*
X2229232Y1853627D01*
X2209476Y1833871D01*
X2202093Y1841254D01*
X2202378Y1842687D01*
X2201911Y1845035D01*
X2206163Y1849287D01*
X2208513Y1848820D01*
X2214689Y1850048D01*
X2219924Y1853546D01*
X2223422Y1858781D01*
X2224650Y1864957D01*
X2224183Y1867307D01*
X2228435Y1871559D01*
X2230783Y1871092D01*
X2236959Y1872320D01*
X2242194Y1875818D01*
X2245692Y1881053D01*
X2246920Y1887229D01*
X2246453Y1889577D01*
X2250705Y1893829D01*
X2253055Y1893362D01*
X2259231Y1894590D01*
X2264466Y1898088D01*
X2267964Y1903323D01*
X2269192Y1909499D01*
X2268725Y1911849D01*
X2272977Y1916101D01*
X2275325Y1915634D01*
X2281501Y1916862D01*
X2286736Y1920360D01*
X2290234Y1925595D01*
X2291462Y1931771D01*
X2290234Y1937946D01*
X2286736Y1943181D01*
X2257505Y1972412D01*
X2252270Y1975910D01*
X2246095Y1977138D01*
X2239919Y1975910D01*
X2234684Y1972412D01*
X2231186Y1967177D01*
X2229958Y1961001D01*
X2230425Y1958651D01*
X2226173Y1954399D01*
X2223825Y1954866D01*
X2217649Y1953638D01*
X2212414Y1950140D01*
X2208916Y1944905D01*
X2207688Y1938729D01*
X2208155Y1936381D01*
X2203903Y1932129D01*
X2201553Y1932596D01*
X2195377Y1931368D01*
X2190142Y1927870D01*
X2186644Y1922635D01*
X2185416Y1916459D01*
X2185883Y1914109D01*
X2181631Y1909857D01*
X2179282Y1910324D01*
X2173107Y1909096D01*
X2167872Y1905598D01*
X2164374Y1900363D01*
X2163376Y1895345D01*
X2160098Y1892726D01*
X2158492Y1891956D01*
X2157196Y1892493D01*
Y1969000D01*
X2156420Y1972902D01*
X2154210Y1976210D01*
X2119210Y2011210D01*
X2115902Y2013420D01*
X2112000Y2014196D01*
X2056000D01*
X2052098Y2013420D01*
X2048790Y2011210D01*
X1984790Y1947210D01*
X1982580Y1943902D01*
X1981804Y1940000D01*
Y1741475D01*
X1981737Y1741376D01*
X1981403Y1741205D01*
X1975761Y1743937D01*
X1975656Y1744467D01*
X1972158Y1749702D01*
X1966923Y1753200D01*
X1960747Y1754428D01*
X1958397Y1753961D01*
X1954145Y1758213D01*
X1954612Y1760561D01*
X1953384Y1766737D01*
X1949886Y1771972D01*
X1944651Y1775470D01*
X1938475Y1776698D01*
X1936127Y1776231D01*
X1931875Y1780483D01*
X1932342Y1782833D01*
X1931114Y1789009D01*
X1927616Y1794244D01*
X1922381Y1797742D01*
X1916205Y1798970D01*
X1913855Y1798503D01*
X1909603Y1802755D01*
X1910070Y1805103D01*
X1908842Y1811279D01*
X1905344Y1816514D01*
X1900109Y1820012D01*
X1893933Y1821240D01*
X1891585Y1820773D01*
X1888247Y1824111D01*
X1888322Y1829615D01*
X1970210Y1911502D01*
X1972420Y1914810D01*
X1973196Y1918712D01*
Y1959031D01*
X2125360Y2111194D01*
X2133308Y2119143D01*
X2134741Y2118858D01*
X2137089Y2119325D01*
X2141341Y2115073D01*
X2140874Y2112723D01*
X2142102Y2106547D01*
X2145600Y2101312D01*
X2150835Y2097814D01*
X2157011Y2096586D01*
X2159361Y2097053D01*
X2163613Y2092801D01*
X2163146Y2090453D01*
X2164374Y2084277D01*
X2167872Y2079042D01*
X2173107Y2075544D01*
X2179283Y2074316D01*
X2181631Y2074783D01*
X2185883Y2070531D01*
X2185416Y2068181D01*
X2186644Y2062005D01*
X2190142Y2056770D01*
X2195377Y2053272D01*
X2201553Y2052044D01*
X2203903Y2052511D01*
X2208155Y2048259D01*
X2207688Y2045911D01*
X2208916Y2039735D01*
X2212414Y2034500D01*
X2217649Y2031002D01*
X2223825Y2029774D01*
X2226173Y2030241D01*
X2230425Y2025989D01*
X2229958Y2023639D01*
X2231186Y2017463D01*
X2234684Y2012228D01*
X2239919Y2008730D01*
X2246095Y2007502D01*
X2252270Y2008730D01*
X2257505Y2012228D01*
X2286736Y2041459D01*
X2290234Y2046694D01*
X2291462Y2052869D01*
X2290234Y2059045D01*
X2286736Y2064280D01*
X2281501Y2067778D01*
X2275325Y2069006D01*
X2272977Y2068539D01*
X2268725Y2072791D01*
X2269192Y2075141D01*
X2267964Y2081317D01*
X2264466Y2086552D01*
X2259231Y2090050D01*
X2253055Y2091278D01*
X2250705Y2090811D01*
X2246453Y2095063D01*
X2246920Y2097411D01*
X2245692Y2103587D01*
X2242194Y2108822D01*
X2236959Y2112320D01*
X2230783Y2113548D01*
X2228435Y2113081D01*
X2224183Y2117333D01*
X2224650Y2119683D01*
X2223422Y2125859D01*
X2219924Y2131094D01*
X2214689Y2134592D01*
X2208513Y2135820D01*
X2206163Y2135353D01*
X2201911Y2139605D01*
X2202378Y2141953D01*
X2201150Y2148129D01*
X2198402Y2152242D01*
X2197695Y2153709D01*
X2198338Y2158919D01*
X2204187Y2164768D01*
X2215824Y2153130D01*
X2261870Y2199176D01*
X2245196Y2215849D01*
Y2315000D01*
X2244420Y2318902D01*
X2242210Y2322210D01*
X2169210Y2395210D01*
X2165902Y2397420D01*
X2162000Y2398196D01*
X2114223D01*
X2089210Y2423210D01*
X2085902Y2425420D01*
X2082000Y2426196D01*
X2039223D01*
X2002196Y2463223D01*
Y2609804D01*
X2027736D01*
X2029022Y2607880D01*
X2034583Y2604164D01*
X2041142Y2602860D01*
X2104134D01*
X2110693Y2604164D01*
X2116254Y2607880D01*
X2117540Y2609804D01*
X2131968D01*
Y2587441D01*
X2185276D01*
Y2647364D01*
X2207560D01*
X2211462Y2648140D01*
X2212523Y2648849D01*
X2216000Y2648157D01*
X2222828Y2649515D01*
X2228617Y2653383D01*
X2232485Y2659172D01*
X2232564Y2659568D01*
X2238095Y2661748D01*
X2239804Y2660518D01*
Y2580223D01*
X2226615Y2567034D01*
X2221615Y2569105D01*
Y2579803D01*
X2144686D01*
Y2564282D01*
X2139686Y2563734D01*
X2126210Y2577210D01*
X2122902Y2579420D01*
X2119000Y2580196D01*
X2117540D01*
X2116254Y2582120D01*
X2110693Y2585836D01*
X2104134Y2587140D01*
X2041142D01*
X2034583Y2585836D01*
X2029022Y2582120D01*
X2025306Y2576559D01*
X2024002Y2570000D01*
X2025306Y2563441D01*
X2029022Y2557880D01*
X2034583Y2554164D01*
X2041142Y2552860D01*
X2104134D01*
X2110693Y2554164D01*
X2116254Y2557880D01*
X2116661Y2557920D01*
X2128640Y2545940D01*
X2131948Y2543730D01*
X2135850Y2542954D01*
X2144686D01*
Y2530196D01*
X2117540D01*
X2116254Y2532120D01*
X2110693Y2535836D01*
X2104134Y2537140D01*
X2041142D01*
X2034583Y2535836D01*
X2029022Y2532120D01*
X2025306Y2526559D01*
X2024002Y2520000D01*
X2025306Y2513441D01*
X2029022Y2507880D01*
X2034583Y2504164D01*
X2041142Y2502860D01*
X2104134D01*
X2110693Y2504164D01*
X2116254Y2507880D01*
X2117540Y2509804D01*
X2227000D01*
X2230902Y2510580D01*
X2234210Y2512790D01*
X2270804Y2549385D01*
X2275804Y2547397D01*
Y2497073D01*
X2235777Y2457046D01*
X2221615D01*
Y2473503D01*
X2144686D01*
Y2420197D01*
X2221615D01*
Y2436654D01*
X2240000D01*
X2243902Y2437430D01*
X2247210Y2439640D01*
X2293210Y2485640D01*
X2295420Y2488948D01*
X2296196Y2492850D01*
Y2716766D01*
X2298617Y2718383D01*
X2302485Y2724172D01*
X2302648Y2724995D01*
X2308197Y2727259D01*
X2309804Y2726159D01*
Y2713700D01*
X2310580Y2709798D01*
X2312790Y2706490D01*
X2316098Y2704280D01*
X2320000Y2703504D01*
X2321535D01*
Y2687046D01*
X2346616D01*
Y2676653D01*
X2321535D01*
Y2623347D01*
X2321535D01*
X2323115Y2619534D01*
X2308790Y2605210D01*
X2306580Y2601902D01*
X2305804Y2598000D01*
Y2498000D01*
X2306580Y2494098D01*
X2308790Y2490790D01*
X2312098Y2488580D01*
X2316000Y2487804D01*
X2320197D01*
Y2428385D01*
X2373503D01*
Y2501804D01*
X2426497D01*
Y2428385D01*
X2479803D01*
Y2480561D01*
X2479902Y2480580D01*
X2483210Y2482790D01*
X2532837Y2532418D01*
X2534913Y2531030D01*
X2541472Y2529726D01*
X2548031Y2531030D01*
X2553592Y2534746D01*
X2557308Y2540307D01*
X2558612Y2546866D01*
Y2609858D01*
X2557308Y2616417D01*
X2553592Y2621978D01*
X2551668Y2623264D01*
Y2664314D01*
X2556668Y2666385D01*
X2591313Y2631740D01*
X2589396Y2626586D01*
X2584913Y2625694D01*
X2579352Y2621978D01*
X2575636Y2616417D01*
X2574332Y2609858D01*
Y2546866D01*
X2575636Y2540307D01*
X2579352Y2534746D01*
X2581276Y2533460D01*
Y2527167D01*
X2577318Y2523210D01*
X2575108Y2519902D01*
X2574332Y2516000D01*
Y2494409D01*
X2557874D01*
Y2429291D01*
X2568329D01*
X2570400Y2424291D01*
X2394790Y2248682D01*
X2392580Y2245374D01*
X2391804Y2241472D01*
Y2110234D01*
X2389383Y2108617D01*
X2385515Y2102828D01*
X2384157Y2096000D01*
X2385515Y2089172D01*
X2389383Y2083383D01*
X2395172Y2079515D01*
X2402000Y2078157D01*
X2408828Y2079515D01*
X2414617Y2083383D01*
X2418485Y2089172D01*
X2419843Y2096000D01*
X2418485Y2102828D01*
X2414617Y2108617D01*
X2412196Y2110234D01*
Y2237249D01*
X2591738Y2416790D01*
X2593948Y2420098D01*
X2594724Y2424000D01*
Y2429291D01*
X2606804D01*
Y1940223D01*
X2513777Y1847196D01*
X2359234D01*
X2357617Y1849617D01*
X2351828Y1853485D01*
X2345000Y1854843D01*
X2338172Y1853485D01*
X2332383Y1849617D01*
X2328515Y1843828D01*
X2327157Y1837000D01*
X2328515Y1830172D01*
X2332383Y1824383D01*
X2338172Y1820515D01*
X2345000Y1819157D01*
X2351828Y1820515D01*
X2357617Y1824383D01*
X2359234Y1826804D01*
X2518000D01*
X2521902Y1827580D01*
X2525210Y1829790D01*
X2624210Y1928790D01*
X2626420Y1932098D01*
X2627196Y1936000D01*
Y2620472D01*
X2626420Y2624374D01*
X2624210Y2627682D01*
X2551668Y2700223D01*
Y2722436D01*
X2553592Y2723722D01*
X2557308Y2729283D01*
X2558612Y2735842D01*
Y2798834D01*
X2557308Y2805393D01*
X2553592Y2810954D01*
X2548031Y2814670D01*
X2541472Y2815974D01*
X2534913Y2814670D01*
X2529352Y2810954D01*
X2525636Y2805393D01*
X2524332Y2798834D01*
Y2735842D01*
X2525636Y2729283D01*
X2529352Y2723722D01*
X2531276Y2722436D01*
Y2700214D01*
X2526276Y2698143D01*
X2505462Y2718958D01*
X2503897Y2722946D01*
X2505091Y2725966D01*
X2507308Y2729283D01*
X2508612Y2735842D01*
Y2798834D01*
X2507308Y2805393D01*
X2503860Y2810553D01*
X2504892Y2812098D01*
X2505668Y2816000D01*
Y2829291D01*
X2522126D01*
Y2894409D01*
X2468818D01*
Y2894196D01*
X2455234D01*
X2453617Y2896617D01*
X2447828Y2900485D01*
X2441000Y2901843D01*
X2434172Y2900485D01*
X2428383Y2896617D01*
X2424515Y2890828D01*
X2423157Y2884000D01*
X2424515Y2877172D01*
X2428383Y2871383D01*
X2434172Y2867515D01*
X2441000Y2866157D01*
X2447828Y2867515D01*
X2453617Y2871383D01*
X2455234Y2873804D01*
X2468818D01*
Y2829291D01*
X2485276D01*
Y2820223D01*
X2484262Y2819210D01*
X2482052Y2815902D01*
X2481331Y2812276D01*
X2479352Y2810954D01*
X2475636Y2805393D01*
X2474332Y2798834D01*
Y2735842D01*
X2475636Y2729283D01*
X2476089Y2728606D01*
X2473732Y2724196D01*
X2459212D01*
X2456855Y2728606D01*
X2457308Y2729283D01*
X2458612Y2735842D01*
Y2798834D01*
X2457308Y2805393D01*
X2453592Y2810954D01*
X2451668Y2812240D01*
Y2820000D01*
X2450892Y2823902D01*
X2448682Y2827210D01*
X2445374Y2829420D01*
X2441472Y2830196D01*
X2398465D01*
Y2846653D01*
X2321535D01*
Y2796196D01*
X2300223D01*
X2250196Y2846223D01*
Y2890000D01*
X2249420Y2893902D01*
X2247210Y2897210D01*
X2243902Y2899420D01*
X2240000Y2900196D01*
X2140000D01*
X2136098Y2899420D01*
X2132790Y2897210D01*
X2116230Y2880649D01*
X2109014Y2883639D01*
X2100000Y2884825D01*
X2090986Y2883639D01*
X2082587Y2880160D01*
X2075375Y2874625D01*
X2069840Y2867413D01*
X2066361Y2859014D01*
X2065175Y2850000D01*
X2066361Y2840986D01*
X2069840Y2832587D01*
X2075375Y2825375D01*
X2082587Y2819840D01*
X2090986Y2816361D01*
X2100000Y2815175D01*
X2109014Y2816361D01*
X2117413Y2819840D01*
X2124625Y2825375D01*
X2130160Y2832587D01*
X2133639Y2840986D01*
X2134825Y2850000D01*
X2133639Y2859014D01*
X2130649Y2866230D01*
X2144223Y2879804D01*
X2165472D01*
Y2815472D01*
X2186233D01*
X2186320Y2815400D01*
X2187567Y2812756D01*
X2184280Y2808196D01*
X1969000D01*
X1965098Y2807420D01*
X1961790Y2805210D01*
X1897790Y2741210D01*
X1895580Y2737902D01*
X1894804Y2734000D01*
Y2674000D01*
X1895580Y2670098D01*
X1897790Y2666790D01*
X1924774Y2639807D01*
X1921717Y2635836D01*
X1915158Y2637140D01*
X1880941D01*
X1855196Y2662885D01*
Y2671535D01*
X1871653D01*
Y2748465D01*
X1818347D01*
Y2671535D01*
X1834804D01*
Y2658662D01*
X1835580Y2654760D01*
X1837790Y2651452D01*
X1848363Y2640880D01*
X1846911Y2636095D01*
X1845607Y2635836D01*
X1840046Y2632120D01*
X1836330Y2626559D01*
X1835026Y2620000D01*
X1836330Y2613441D01*
X1840046Y2607880D01*
X1845607Y2604164D01*
X1852166Y2602860D01*
X1873466D01*
Y2587140D01*
X1852166D01*
X1845607Y2585836D01*
X1840046Y2582120D01*
X1836330Y2576559D01*
X1835026Y2570000D01*
X1836330Y2563441D01*
X1840046Y2557880D01*
X1845607Y2554164D01*
X1852166Y2552860D01*
X1915158D01*
X1921717Y2554164D01*
X1922394Y2554617D01*
X1926804Y2552260D01*
Y2537740D01*
X1922394Y2535383D01*
X1921717Y2535836D01*
X1915158Y2537140D01*
X1852166D01*
X1845607Y2535836D01*
X1840046Y2532120D01*
X1836330Y2526559D01*
X1835196Y2520856D01*
X1830196Y2521349D01*
Y2528000D01*
X1829420Y2531902D01*
X1827210Y2535210D01*
X1774210Y2588210D01*
X1770902Y2590420D01*
X1767000Y2591196D01*
X1678465D01*
Y2639803D01*
X1650196D01*
Y2650197D01*
X1678465D01*
Y2703503D01*
X1601535D01*
Y2650197D01*
X1629804D01*
Y2639803D01*
X1601535D01*
Y2635239D01*
X1596535Y2633722D01*
X1596210Y2634210D01*
X1543210Y2687210D01*
X1539902Y2689420D01*
X1536000Y2690196D01*
X1436751D01*
X1421220Y2705727D01*
X1424364Y2710433D01*
X1425668Y2716992D01*
Y2779984D01*
X1424364Y2786543D01*
X1420648Y2792104D01*
X1418724Y2793390D01*
Y2798777D01*
X1422682Y2802734D01*
X1424892Y2806042D01*
X1425668Y2809944D01*
Y2832441D01*
X1442126D01*
Y2897559D01*
X1388819D01*
Y2832441D01*
X1405276D01*
Y2814167D01*
X1401318Y2810210D01*
X1399108Y2806902D01*
X1398332Y2803000D01*
Y2793390D01*
X1396408Y2792104D01*
X1392692Y2786543D01*
X1391388Y2779984D01*
Y2716992D01*
X1392692Y2710433D01*
X1396408Y2704872D01*
X1396549Y2703440D01*
X1289790Y2596682D01*
X1287580Y2593374D01*
X1286804Y2589472D01*
Y2302223D01*
X1274290Y2289710D01*
X1272080Y2286402D01*
X1271304Y2282500D01*
Y2204234D01*
X1268883Y2202617D01*
X1265015Y2196828D01*
X1263657Y2190000D01*
X1265015Y2183172D01*
X1268883Y2177383D01*
X1271304Y2175766D01*
Y2025500D01*
X1272080Y2021598D01*
X1274290Y2018290D01*
X1368725Y1923856D01*
X1368157Y1921000D01*
X1369515Y1914172D01*
X1373383Y1908383D01*
X1379172Y1904515D01*
X1386000Y1903157D01*
X1392828Y1904515D01*
X1398617Y1908383D01*
X1402485Y1914172D01*
X1403843Y1921000D01*
X1402485Y1927828D01*
X1398617Y1933617D01*
X1392828Y1937485D01*
X1386000Y1938843D01*
X1383144Y1938275D01*
X1291696Y2029723D01*
Y2175766D01*
X1294117Y2177383D01*
X1297985Y2183172D01*
X1299343Y2190000D01*
X1297985Y2196828D01*
X1294117Y2202617D01*
X1291696Y2204234D01*
Y2251352D01*
X1296315Y2253265D01*
X1487804Y2061777D01*
Y1544234D01*
X1485383Y1542617D01*
X1481515Y1536828D01*
X1480157Y1530000D01*
X1481515Y1523172D01*
X1485383Y1517383D01*
X1491172Y1513515D01*
X1498000Y1512157D01*
X1504828Y1513515D01*
X1506301Y1514499D01*
X1511301Y1511827D01*
Y1500000D01*
X1500000D01*
Y1465239D01*
X1493500Y1458739D01*
X1491290Y1455431D01*
X1490514Y1451529D01*
Y1420123D01*
X1490233Y1419842D01*
X1423581D01*
Y1426041D01*
X1422805Y1429943D01*
X1420595Y1433251D01*
X1358465Y1495381D01*
X1360379Y1500000D01*
X1400000D01*
Y1504588D01*
X1403827Y1506173D01*
X1405412Y1510000D01*
Y1800000D01*
X1403827Y1803827D01*
X1400000Y1805412D01*
X1250000D01*
X1000000Y1805412D01*
Y3000000D01*
X3000000D01*
Y1000000D01*
D02*
G37*
G36*
X1400000Y1510000D02*
X1288724Y1510000D01*
Y1516560D01*
X1289040D01*
Y1546245D01*
X1268016D01*
Y1516716D01*
X1249670D01*
Y1546245D01*
X1249354D01*
Y1640935D01*
X1271703Y1663284D01*
X1301188D01*
Y1708716D01*
X1259692D01*
Y1680111D01*
X1231948Y1652368D01*
X1229803Y1649156D01*
X1225504Y1647465D01*
X1225503Y1647465D01*
X1172197D01*
Y1570535D01*
X1209276D01*
Y1546245D01*
X1208960D01*
Y1516560D01*
X1212504D01*
Y1510000D01*
X1078505Y1510000D01*
Y1528465D01*
X1025198D01*
Y1509999D01*
X1000000D01*
X1000000Y1800000D01*
X1250000Y1800000D01*
X1400000D01*
Y1510000D01*
D02*
G37*
G36*
X2233479Y2703102D02*
X2231016Y2698494D01*
X2230000Y2698696D01*
X2193164D01*
X2189262Y2697920D01*
X2185954Y2695710D01*
X2173001Y2682756D01*
X2162963D01*
X2147954Y2697766D01*
Y2748465D01*
X2094646D01*
Y2671535D01*
X2145345D01*
X2151530Y2665350D01*
X2153191Y2664241D01*
X2154515Y2658494D01*
X2151412Y2655392D01*
X2149520Y2652559D01*
X2131968D01*
Y2630196D01*
X2117540D01*
X2116254Y2632120D01*
X2110693Y2635836D01*
X2104134Y2637140D01*
X2041142D01*
X2034583Y2635836D01*
X2029022Y2632120D01*
X2027736Y2630196D01*
X1992000D01*
X1988098Y2629420D01*
X1984790Y2627210D01*
X1982580Y2623902D01*
X1981804Y2620000D01*
Y2459000D01*
X1982580Y2455098D01*
X1984790Y2451790D01*
X2027790Y2408790D01*
X2031098Y2406580D01*
X2035000Y2405804D01*
X2077777D01*
X2102790Y2380790D01*
X2106098Y2378580D01*
X2110000Y2377804D01*
X2157777D01*
X2224804Y2310777D01*
Y2241452D01*
X2224176Y2236870D01*
Y2236870D01*
X2224176Y2236869D01*
X2178130Y2190824D01*
X2189768Y2179187D01*
X2184777Y2174196D01*
X2176344D01*
X2175382Y2175636D01*
X2170147Y2179134D01*
X2163971Y2180362D01*
X2157796Y2179134D01*
X2152561Y2175636D01*
X2151121Y2174196D01*
X2149356D01*
X2145454Y2173420D01*
X2142146Y2171210D01*
X2139936Y2167902D01*
X2139160Y2164000D01*
Y2162235D01*
X2123330Y2146405D01*
X2119832Y2141170D01*
X2119341Y2138703D01*
X2113916Y2137057D01*
X2092261Y2158712D01*
X2093907Y2164137D01*
X2096374Y2164628D01*
X2101609Y2168126D01*
X2130840Y2197357D01*
X2134338Y2202592D01*
X2135566Y2208767D01*
X2134338Y2214943D01*
X2130840Y2220178D01*
X2125605Y2223676D01*
X2119429Y2224904D01*
X2117079Y2224437D01*
X2112827Y2228689D01*
X2113294Y2231037D01*
X2112066Y2237213D01*
X2108568Y2242448D01*
X2103333Y2245946D01*
X2097157Y2247174D01*
X2094809Y2246707D01*
X2090557Y2250959D01*
X2091024Y2253309D01*
X2089796Y2259485D01*
X2086298Y2264720D01*
X2081063Y2268218D01*
X2074887Y2269446D01*
X2072537Y2268979D01*
X2068285Y2273231D01*
X2068752Y2275579D01*
X2067524Y2281755D01*
X2064026Y2286990D01*
X2058791Y2290488D01*
X2052615Y2291716D01*
X2046440Y2290488D01*
X2041205Y2286990D01*
X2011974Y2257759D01*
X2008476Y2252524D01*
X2007986Y2250059D01*
X2002561Y2248413D01*
X1911764Y2339210D01*
X1908456Y2341420D01*
X1904554Y2342196D01*
X1584223D01*
X1550235Y2376185D01*
X1552148Y2380804D01*
X1686766D01*
X1688383Y2378383D01*
X1694172Y2374515D01*
X1701000Y2373157D01*
X1707828Y2374515D01*
X1713617Y2378383D01*
X1717485Y2384172D01*
X1718843Y2391000D01*
X1717485Y2397828D01*
X1713617Y2403617D01*
X1707828Y2407485D01*
X1701000Y2408843D01*
X1694172Y2407485D01*
X1688383Y2403617D01*
X1686766Y2401196D01*
X1549751D01*
X1523126Y2427822D01*
X1525039Y2432441D01*
X1531181D01*
Y2497559D01*
X1514724D01*
Y2505777D01*
X1515738Y2506790D01*
X1517948Y2510098D01*
X1518724Y2514000D01*
Y2514610D01*
X1520648Y2515896D01*
X1524364Y2521457D01*
X1525668Y2528016D01*
Y2591008D01*
X1524364Y2597567D01*
X1520648Y2603128D01*
X1515087Y2606844D01*
X1508528Y2608148D01*
X1503086Y2607066D01*
X1500403Y2609903D01*
X1499781Y2611118D01*
X1500485Y2612172D01*
X1501843Y2619000D01*
X1500485Y2625828D01*
X1496617Y2631617D01*
X1490828Y2635485D01*
X1484000Y2636843D01*
X1477172Y2635485D01*
X1471383Y2631617D01*
X1469766Y2629196D01*
X1469528D01*
X1465626Y2628420D01*
X1462318Y2626210D01*
X1451318Y2615210D01*
X1449108Y2611902D01*
X1448332Y2608000D01*
Y2604414D01*
X1446408Y2603128D01*
X1442692Y2597567D01*
X1441388Y2591008D01*
Y2528016D01*
X1442692Y2521457D01*
X1446408Y2515896D01*
X1451969Y2512180D01*
X1458528Y2510876D01*
X1465087Y2512180D01*
X1470648Y2515896D01*
X1474364Y2521457D01*
X1475668Y2528016D01*
Y2591008D01*
X1474364Y2597567D01*
X1473385Y2599032D01*
X1476989Y2602637D01*
X1477172Y2602515D01*
X1484000Y2601157D01*
X1489856Y2602322D01*
X1492247Y2599934D01*
X1493162Y2598270D01*
X1492692Y2597567D01*
X1491388Y2591008D01*
Y2528016D01*
X1492692Y2521457D01*
X1496408Y2515896D01*
X1496430Y2515881D01*
X1495108Y2513902D01*
X1494332Y2510000D01*
Y2497559D01*
X1477874D01*
Y2432441D01*
X1494332D01*
Y2407472D01*
X1495108Y2403570D01*
X1497318Y2400262D01*
X1572790Y2324790D01*
X1610804Y2286777D01*
Y1644806D01*
Y1616000D01*
X1611580Y1612098D01*
X1613790Y1608790D01*
X1649301Y1573280D01*
X1647387Y1568660D01*
X1527354D01*
X1523453Y1567884D01*
X1520145Y1565674D01*
X1514287Y1559816D01*
X1513196Y1558184D01*
X1508196Y1559700D01*
Y2066000D01*
X1507420Y2069902D01*
X1505210Y2073210D01*
X1295919Y2282500D01*
X1304210Y2290790D01*
X1306420Y2294098D01*
X1307196Y2298000D01*
Y2585249D01*
X1410028Y2688081D01*
X1421765Y2676344D01*
X1421687Y2669508D01*
X1421000Y2668843D01*
X1414172Y2667485D01*
X1408383Y2663617D01*
X1404515Y2657828D01*
X1403157Y2651000D01*
X1403725Y2648144D01*
X1327790Y2572210D01*
X1325580Y2568902D01*
X1324804Y2565000D01*
Y2310234D01*
X1322383Y2308617D01*
X1318515Y2302828D01*
X1317157Y2296000D01*
X1318515Y2289172D01*
X1322383Y2283383D01*
X1328172Y2279515D01*
X1335000Y2278157D01*
X1341828Y2279515D01*
X1347617Y2283383D01*
X1351485Y2289172D01*
X1352843Y2296000D01*
X1351485Y2302828D01*
X1347617Y2308617D01*
X1345196Y2310234D01*
Y2560777D01*
X1418144Y2633725D01*
X1421000Y2633157D01*
X1427828Y2634515D01*
X1433617Y2638383D01*
X1437485Y2644172D01*
X1438843Y2651000D01*
X1437485Y2657828D01*
X1433617Y2663617D01*
X1431663Y2664922D01*
X1432197Y2667937D01*
X1433357Y2669804D01*
X1531777D01*
X1578804Y2622777D01*
Y2599236D01*
X1577649Y2598802D01*
X1573804Y2598405D01*
X1570648Y2603128D01*
X1565087Y2606844D01*
X1558528Y2608148D01*
X1551969Y2606844D01*
X1546408Y2603128D01*
X1542692Y2597567D01*
X1541388Y2591008D01*
Y2528016D01*
X1542692Y2521457D01*
X1546408Y2515896D01*
X1548332Y2514610D01*
Y2506850D01*
X1549108Y2502948D01*
X1551318Y2499640D01*
X1554626Y2497430D01*
X1558528Y2496654D01*
X1601535D01*
Y2480197D01*
X1678465D01*
Y2533503D01*
X1601535D01*
Y2517046D01*
X1576720D01*
X1574948Y2520360D01*
X1574481Y2522046D01*
X1575668Y2528016D01*
Y2581953D01*
X1580668Y2583470D01*
X1581790Y2581790D01*
X1589790Y2573790D01*
X1593098Y2571580D01*
X1597000Y2570804D01*
X1762777D01*
X1809804Y2523777D01*
Y2450000D01*
Y2437559D01*
X1793347D01*
Y2372441D01*
X1846653D01*
Y2437559D01*
X1830196D01*
Y2445777D01*
X1841397Y2456977D01*
X1845607Y2454164D01*
X1852166Y2452860D01*
X1915158D01*
X1921717Y2454164D01*
X1927278Y2457880D01*
X1930994Y2463441D01*
X1932298Y2470000D01*
X1930994Y2476559D01*
X1927278Y2482120D01*
X1921717Y2485836D01*
X1915158Y2487140D01*
X1852166D01*
X1845607Y2485836D01*
X1840046Y2482120D01*
X1838570Y2479912D01*
X1836098Y2479420D01*
X1835196Y2478817D01*
X1830196Y2481490D01*
Y2518651D01*
X1835196Y2519144D01*
X1836330Y2513441D01*
X1840046Y2507880D01*
X1845607Y2504164D01*
X1852166Y2502860D01*
X1915158D01*
X1921717Y2504164D01*
X1927278Y2507880D01*
X1928564Y2509804D01*
X1929000D01*
X1932902Y2510580D01*
X1936210Y2512790D01*
X1944210Y2520790D01*
X1946420Y2524098D01*
X1947196Y2528000D01*
Y2642000D01*
X1946420Y2645902D01*
X1944210Y2649210D01*
X1926884Y2666535D01*
X1928955Y2671535D01*
X1977954D01*
Y2699804D01*
X1988347D01*
Y2671535D01*
X2041653D01*
Y2748465D01*
X2037417D01*
X2035503Y2753084D01*
X2052223Y2769804D01*
X2166777D01*
X2233479Y2703102D01*
D02*
G37*
%LPC*%
G36*
X1635000Y1177840D02*
X1626500Y1176721D01*
X1618580Y1173440D01*
X1611779Y1168221D01*
X1606560Y1161420D01*
X1603279Y1153500D01*
X1602160Y1145000D01*
X1603279Y1136500D01*
X1606560Y1128580D01*
X1611779Y1121779D01*
X1618580Y1116560D01*
X1626500Y1113279D01*
X1635000Y1112160D01*
X1643500Y1113279D01*
X1651420Y1116560D01*
X1658221Y1121779D01*
X1663440Y1128580D01*
X1666721Y1136500D01*
X1667840Y1145000D01*
X1666721Y1153500D01*
X1663440Y1161420D01*
X1658221Y1168221D01*
X1651420Y1173440D01*
X1643500Y1176721D01*
X1635000Y1177840D01*
D02*
G37*
G36*
X1935000D02*
X1926500Y1176721D01*
X1918580Y1173440D01*
X1911779Y1168221D01*
X1906560Y1161420D01*
X1903279Y1153500D01*
X1902160Y1145000D01*
X1903279Y1136500D01*
X1906560Y1128580D01*
X1911779Y1121779D01*
X1918580Y1116560D01*
X1926500Y1113279D01*
X1935000Y1112160D01*
X1943500Y1113279D01*
X1951420Y1116560D01*
X1958221Y1121779D01*
X1963440Y1128580D01*
X1966721Y1136500D01*
X1967840Y1145000D01*
X1966721Y1153500D01*
X1963440Y1161420D01*
X1958221Y1168221D01*
X1951420Y1173440D01*
X1943500Y1176721D01*
X1935000Y1177840D01*
D02*
G37*
G36*
X1100000Y1155475D02*
X1085642Y1153584D01*
X1072263Y1148042D01*
X1060774Y1139226D01*
X1051958Y1127737D01*
X1046416Y1114358D01*
X1044525Y1100000D01*
X1046416Y1085642D01*
X1051958Y1072263D01*
X1060774Y1060774D01*
X1072263Y1051958D01*
X1085642Y1046416D01*
X1100000Y1044525D01*
X1114358Y1046416D01*
X1127737Y1051958D01*
X1139226Y1060774D01*
X1148042Y1072263D01*
X1153584Y1085642D01*
X1155475Y1100000D01*
X1153584Y1114358D01*
X1148042Y1127737D01*
X1139226Y1139226D01*
X1127737Y1148042D01*
X1114358Y1153584D01*
X1100000Y1155475D01*
D02*
G37*
G36*
X2900000D02*
X2885642Y1153584D01*
X2872263Y1148042D01*
X2860773Y1139226D01*
X2851958Y1127737D01*
X2846416Y1114358D01*
X2844525Y1100000D01*
X2846416Y1085642D01*
X2851958Y1072263D01*
X2860773Y1060774D01*
X2872263Y1051958D01*
X2885642Y1046416D01*
X2900000Y1044525D01*
X2914358Y1046416D01*
X2927737Y1051958D01*
X2939227Y1060774D01*
X2948042Y1072263D01*
X2953584Y1085642D01*
X2955475Y1100000D01*
X2953584Y1114358D01*
X2948042Y1127737D01*
X2939227Y1139226D01*
X2927737Y1148042D01*
X2914358Y1153584D01*
X2900000Y1155475D01*
D02*
G37*
G36*
X2650000Y1184825D02*
X2640986Y1183639D01*
X2632587Y1180160D01*
X2625375Y1174625D01*
X2619840Y1167413D01*
X2616361Y1159014D01*
X2615175Y1150000D01*
X2616361Y1140986D01*
X2619840Y1132587D01*
X2625375Y1125375D01*
X2632587Y1119840D01*
X2640986Y1116361D01*
X2650000Y1115175D01*
X2659014Y1116361D01*
X2667413Y1119840D01*
X2674625Y1125375D01*
X2680160Y1132587D01*
X2683639Y1140986D01*
X2684825Y1150000D01*
X2683639Y1159014D01*
X2680160Y1167413D01*
X2674625Y1174625D01*
X2667413Y1180160D01*
X2659014Y1183639D01*
X2650000Y1184825D01*
D02*
G37*
G36*
X2450000D02*
X2440986Y1183639D01*
X2432587Y1180160D01*
X2425375Y1174625D01*
X2419840Y1167413D01*
X2416361Y1159014D01*
X2415175Y1150000D01*
X2416361Y1140986D01*
X2419840Y1132587D01*
X2425375Y1125375D01*
X2432587Y1119840D01*
X2440986Y1116361D01*
X2450000Y1115175D01*
X2459014Y1116361D01*
X2467413Y1119840D01*
X2474625Y1125375D01*
X2480160Y1132587D01*
X2483639Y1140986D01*
X2484825Y1150000D01*
X2483639Y1159014D01*
X2480160Y1167413D01*
X2474625Y1174625D01*
X2467413Y1180160D01*
X2459014Y1183639D01*
X2450000Y1184825D01*
D02*
G37*
G36*
X2420000Y1421843D02*
X2413172Y1420485D01*
X2407383Y1416617D01*
X2403515Y1410828D01*
X2402157Y1404000D01*
X2403515Y1397172D01*
X2407383Y1391383D01*
X2413172Y1387515D01*
X2420000Y1386157D01*
X2422856Y1386725D01*
X2434804Y1374777D01*
Y1286018D01*
X2428580Y1283440D01*
X2421779Y1278221D01*
X2416560Y1271420D01*
X2413279Y1263500D01*
X2412160Y1255000D01*
X2413279Y1246500D01*
X2416560Y1238580D01*
X2421779Y1231779D01*
X2428580Y1226560D01*
X2436500Y1223279D01*
X2445000Y1222160D01*
X2453500Y1223279D01*
X2461420Y1226560D01*
X2468221Y1231779D01*
X2473440Y1238580D01*
X2476721Y1246500D01*
X2477840Y1255000D01*
X2476721Y1263500D01*
X2473440Y1271420D01*
X2468221Y1278221D01*
X2461420Y1283440D01*
X2455196Y1286018D01*
Y1379000D01*
X2454420Y1382902D01*
X2452210Y1386210D01*
X2437275Y1401144D01*
X2437843Y1404000D01*
X2436485Y1410828D01*
X2432617Y1416617D01*
X2426828Y1420485D01*
X2420000Y1421843D01*
D02*
G37*
G36*
X2184528Y1184527D02*
X2115472D01*
Y1115473D01*
X2184528D01*
Y1184527D01*
D02*
G37*
G36*
X1697000Y2918196D02*
X1594850D01*
X1590948Y2917420D01*
X1587640Y2915210D01*
X1570895Y2898465D01*
X1520197D01*
Y2838668D01*
X1507000D01*
X1503098Y2837892D01*
X1499790Y2835682D01*
X1460784Y2796676D01*
X1458528Y2797124D01*
X1451969Y2795820D01*
X1446408Y2792104D01*
X1442692Y2786543D01*
X1441388Y2779984D01*
Y2716992D01*
X1442692Y2710433D01*
X1446408Y2704872D01*
X1451969Y2701156D01*
X1458528Y2699852D01*
X1465087Y2701156D01*
X1470648Y2704872D01*
X1474364Y2710433D01*
X1475668Y2716992D01*
Y2779984D01*
X1475214Y2782267D01*
X1511223Y2818276D01*
X1546850D01*
X1550752Y2819052D01*
X1554060Y2821262D01*
X1554242Y2821535D01*
X1573504D01*
Y2872234D01*
X1599073Y2897804D01*
X1626496D01*
Y2854916D01*
X1583777Y2812196D01*
X1518528D01*
X1514626Y2811420D01*
X1511318Y2809210D01*
X1501318Y2799210D01*
X1499108Y2795902D01*
X1498651Y2793603D01*
X1496408Y2792104D01*
X1492692Y2786543D01*
X1491388Y2779984D01*
Y2716992D01*
X1492692Y2710433D01*
X1496408Y2704872D01*
X1501969Y2701156D01*
X1508528Y2699852D01*
X1515087Y2701156D01*
X1520648Y2704872D01*
X1524364Y2710433D01*
X1525668Y2716992D01*
Y2779984D01*
X1524364Y2786543D01*
X1524189Y2786804D01*
X1526862Y2791804D01*
X1540904D01*
X1543261Y2787394D01*
X1542692Y2786543D01*
X1541388Y2779984D01*
Y2716992D01*
X1542692Y2710433D01*
X1546408Y2704872D01*
X1551969Y2701156D01*
X1558528Y2699852D01*
X1565087Y2701156D01*
X1570648Y2704872D01*
X1574364Y2710433D01*
X1575668Y2716992D01*
Y2751209D01*
X1596535Y2772076D01*
X1601535Y2770835D01*
Y2756497D01*
X1678465D01*
Y2809803D01*
X1616756D01*
X1614842Y2814423D01*
X1623285Y2822866D01*
X1626497Y2821535D01*
Y2821535D01*
X1677195D01*
X1703940Y2794790D01*
X1707248Y2792580D01*
X1711150Y2791804D01*
X1826000D01*
X1829902Y2792580D01*
X1833210Y2794790D01*
X1867666Y2829246D01*
X1872655Y2828919D01*
X1875375Y2825375D01*
X1882587Y2819840D01*
X1890986Y2816361D01*
X1900000Y2815175D01*
X1909014Y2816361D01*
X1917413Y2819840D01*
X1924625Y2825375D01*
X1930160Y2832587D01*
X1933639Y2840986D01*
X1934825Y2850000D01*
X1933639Y2859014D01*
X1930160Y2867413D01*
X1924625Y2874625D01*
X1917413Y2880160D01*
X1909014Y2883639D01*
X1900000Y2884825D01*
X1890986Y2883639D01*
X1882587Y2880160D01*
X1875375Y2874625D01*
X1869840Y2867413D01*
X1866361Y2859014D01*
X1866023Y2856442D01*
X1821777Y2812196D01*
X1812023D01*
X1811029Y2817196D01*
X1817413Y2819840D01*
X1824625Y2825375D01*
X1830160Y2832587D01*
X1833639Y2840986D01*
X1834825Y2850000D01*
X1833639Y2859014D01*
X1830160Y2867413D01*
X1824625Y2874625D01*
X1817413Y2880160D01*
X1809014Y2883639D01*
X1800000Y2884825D01*
X1790986Y2883639D01*
X1782587Y2880160D01*
X1775375Y2874625D01*
X1769840Y2867413D01*
X1766851Y2860196D01*
X1759223D01*
X1704210Y2915210D01*
X1700902Y2917420D01*
X1697000Y2918196D01*
D02*
G37*
G36*
X2693934Y2763906D02*
X2685434Y2762787D01*
X2677514Y2759506D01*
X2670713Y2754287D01*
X2665494Y2747486D01*
X2662213Y2739566D01*
X2661094Y2731066D01*
X2662213Y2722566D01*
X2665494Y2714646D01*
X2670713Y2707845D01*
X2677514Y2702626D01*
X2685434Y2699345D01*
X2693934Y2698226D01*
X2702434Y2699345D01*
X2710354Y2702626D01*
X2717155Y2707845D01*
X2722374Y2714646D01*
X2725655Y2722566D01*
X2726774Y2731066D01*
X2725655Y2739566D01*
X2722374Y2747486D01*
X2717155Y2754287D01*
X2710354Y2759506D01*
X2702434Y2762787D01*
X2693934Y2763906D01*
D02*
G37*
G36*
X2730000Y2052840D02*
X2721500Y2051721D01*
X2713580Y2048440D01*
X2706779Y2043221D01*
X2701560Y2036420D01*
X2698279Y2028500D01*
X2697160Y2020000D01*
X2698279Y2011500D01*
X2701560Y2003580D01*
X2706779Y1996779D01*
X2713580Y1991560D01*
X2721500Y1988279D01*
X2730000Y1987160D01*
X2738500Y1988279D01*
X2746420Y1991560D01*
X2753221Y1996779D01*
X2758440Y2003580D01*
X2761721Y2011500D01*
X2762840Y2020000D01*
X2761721Y2028500D01*
X2758440Y2036420D01*
X2753221Y2043221D01*
X2746420Y2048440D01*
X2738500Y2051721D01*
X2730000Y2052840D01*
D02*
G37*
G36*
X2900000Y2955475D02*
X2885642Y2953584D01*
X2872263Y2948042D01*
X2860773Y2939227D01*
X2851958Y2927737D01*
X2846416Y2914358D01*
X2844525Y2900000D01*
X2846416Y2885642D01*
X2851958Y2872263D01*
X2860773Y2860773D01*
X2872263Y2851958D01*
X2885642Y2846416D01*
X2900000Y2844525D01*
X2914358Y2846416D01*
X2927737Y2851958D01*
X2939227Y2860773D01*
X2948042Y2872263D01*
X2953584Y2885642D01*
X2955475Y2900000D01*
X2953584Y2914358D01*
X2948042Y2927737D01*
X2939227Y2939227D01*
X2927737Y2948042D01*
X2914358Y2953584D01*
X2900000Y2955475D01*
D02*
G37*
G36*
X1100000D02*
X1085642Y2953584D01*
X1072263Y2948042D01*
X1060774Y2939227D01*
X1051958Y2927737D01*
X1046416Y2914358D01*
X1044525Y2900000D01*
X1046416Y2885642D01*
X1051958Y2872263D01*
X1060774Y2860773D01*
X1072263Y2851958D01*
X1085642Y2846416D01*
X1100000Y2844525D01*
X1114358Y2846416D01*
X1127737Y2851958D01*
X1139226Y2860773D01*
X1148042Y2872263D01*
X1153584Y2885642D01*
X1155475Y2900000D01*
X1153584Y2914358D01*
X1148042Y2927737D01*
X1139226Y2939227D01*
X1127737Y2948042D01*
X1114358Y2953584D01*
X1100000Y2955475D01*
D02*
G37*
G36*
X2000000Y2884825D02*
X1990986Y2883639D01*
X1982587Y2880160D01*
X1975375Y2874625D01*
X1969840Y2867413D01*
X1966361Y2859014D01*
X1965175Y2850000D01*
X1966361Y2840986D01*
X1969840Y2832587D01*
X1975375Y2825375D01*
X1982587Y2819840D01*
X1990986Y2816361D01*
X2000000Y2815175D01*
X2009014Y2816361D01*
X2017413Y2819840D01*
X2024625Y2825375D01*
X2030160Y2832587D01*
X2033639Y2840986D01*
X2034825Y2850000D01*
X2033639Y2859014D01*
X2030160Y2867413D01*
X2024625Y2874625D01*
X2017413Y2880160D01*
X2009014Y2883639D01*
X2000000Y2884825D01*
D02*
G37*
G36*
X1150000Y2017840D02*
X1141500Y2016721D01*
X1133580Y2013440D01*
X1126779Y2008221D01*
X1121560Y2001420D01*
X1118279Y1993500D01*
X1117160Y1985000D01*
X1118279Y1976500D01*
X1121560Y1968580D01*
X1126779Y1961779D01*
X1133580Y1956560D01*
X1141500Y1953279D01*
X1150000Y1952160D01*
X1158500Y1953279D01*
X1166420Y1956560D01*
X1173221Y1961779D01*
X1178440Y1968580D01*
X1181721Y1976500D01*
X1182840Y1985000D01*
X1181721Y1993500D01*
X1178440Y2001420D01*
X1173221Y2008221D01*
X1166420Y2013440D01*
X1158500Y2016721D01*
X1150000Y2017840D01*
D02*
G37*
G36*
X2884528Y2334528D02*
X2815472D01*
Y2279892D01*
X2781790Y2246210D01*
X2779580Y2242902D01*
X2778804Y2239000D01*
Y1948223D01*
X2744724Y1914143D01*
X2738500Y1916721D01*
X2730000Y1917840D01*
X2721500Y1916721D01*
X2713580Y1913440D01*
X2706779Y1908221D01*
X2701560Y1901420D01*
X2698279Y1893500D01*
X2697160Y1885000D01*
X2698279Y1876500D01*
X2701560Y1868580D01*
X2706779Y1861779D01*
X2713580Y1856560D01*
X2721500Y1853279D01*
X2730000Y1852160D01*
X2738500Y1853279D01*
X2746420Y1856560D01*
X2753221Y1861779D01*
X2758440Y1868580D01*
X2761721Y1876500D01*
X2762840Y1885000D01*
X2761721Y1893500D01*
X2759143Y1899724D01*
X2796210Y1936790D01*
X2798420Y1940098D01*
X2799196Y1944000D01*
Y2234777D01*
X2829892Y2265472D01*
X2884528D01*
Y2334528D01*
D02*
G37*
G36*
X2430000Y1917840D02*
X2421500Y1916721D01*
X2413580Y1913440D01*
X2406779Y1908221D01*
X2401560Y1901420D01*
X2398279Y1893500D01*
X2397160Y1885000D01*
X2398279Y1876500D01*
X2401560Y1868580D01*
X2406779Y1861779D01*
X2413580Y1856560D01*
X2421500Y1853279D01*
X2430000Y1852160D01*
X2438500Y1853279D01*
X2446420Y1856560D01*
X2453221Y1861779D01*
X2458440Y1868580D01*
X2461721Y1876500D01*
X2462840Y1885000D01*
X2461721Y1893500D01*
X2458440Y1901420D01*
X2453221Y1908221D01*
X2446420Y1913440D01*
X2438500Y1916721D01*
X2430000Y1917840D01*
D02*
G37*
G36*
Y2052840D02*
X2421500Y2051721D01*
X2413580Y2048440D01*
X2406779Y2043221D01*
X2401560Y2036420D01*
X2398279Y2028500D01*
X2397160Y2020000D01*
X2398279Y2011500D01*
X2401560Y2003580D01*
X2406779Y1996779D01*
X2413580Y1991560D01*
X2421500Y1988279D01*
X2430000Y1987160D01*
X2438500Y1988279D01*
X2446420Y1991560D01*
X2453221Y1996779D01*
X2458440Y2003580D01*
X2461721Y2011500D01*
X2462840Y2020000D01*
X2461721Y2028500D01*
X2458440Y2036420D01*
X2453221Y2043221D01*
X2446420Y2048440D01*
X2438500Y2051721D01*
X2430000Y2052840D01*
D02*
G37*
G36*
X2906066Y2551774D02*
X2897566Y2550655D01*
X2889646Y2547374D01*
X2882845Y2542155D01*
X2877626Y2535354D01*
X2874345Y2527434D01*
X2873226Y2518934D01*
X2874345Y2510434D01*
X2877626Y2502514D01*
X2882845Y2495713D01*
X2889646Y2490494D01*
X2895870Y2487916D01*
Y2060289D01*
X2870108Y2034527D01*
X2815472D01*
Y1965473D01*
X2884528D01*
Y2020108D01*
X2913276Y2048856D01*
X2915486Y2052164D01*
X2916262Y2056066D01*
Y2487916D01*
X2922486Y2490494D01*
X2929287Y2495713D01*
X2934506Y2502514D01*
X2937787Y2510434D01*
X2938906Y2518934D01*
X2937787Y2527434D01*
X2934506Y2535354D01*
X2929287Y2542155D01*
X2922486Y2547374D01*
X2914566Y2550655D01*
X2906066Y2551774D01*
D02*
G37*
G36*
X1450000Y2017840D02*
X1441500Y2016721D01*
X1433580Y2013440D01*
X1426779Y2008221D01*
X1421560Y2001420D01*
X1418279Y1993500D01*
X1417160Y1985000D01*
X1418279Y1976500D01*
X1421560Y1968580D01*
X1426779Y1961779D01*
X1433580Y1956560D01*
X1441500Y1953279D01*
X1450000Y1952160D01*
X1458500Y1953279D01*
X1466420Y1956560D01*
X1473221Y1961779D01*
X1478440Y1968580D01*
X1481721Y1976500D01*
X1482840Y1985000D01*
X1481721Y1993500D01*
X1478440Y2001420D01*
X1473221Y2008221D01*
X1466420Y2013440D01*
X1458500Y2016721D01*
X1450000Y2017840D01*
D02*
G37*
%LPD*%
D10*
X2541472Y2578362D02*
D03*
X2591472D02*
D03*
X2491472D02*
D03*
X2441472D02*
D03*
X2541472Y2767338D02*
D03*
X2591472D02*
D03*
X2491472D02*
D03*
X2441472D02*
D03*
X1558528Y2748488D02*
D03*
X1508528D02*
D03*
X1458528D02*
D03*
X1408528D02*
D03*
Y2559512D02*
D03*
X1458528D02*
D03*
X1508528D02*
D03*
X1558528D02*
D03*
D11*
X1294764Y1352322D02*
D03*
X1158150Y1490000D02*
D03*
X1188464Y1352322D02*
D03*
X1051852Y1490000D02*
D03*
X1198850Y1609000D02*
D03*
X1305150D02*
D03*
X1446850Y1515000D02*
D03*
X1553150D02*
D03*
X1536850Y1270000D02*
D03*
X1643150D02*
D03*
X1711850D02*
D03*
X1818150D02*
D03*
X2453150Y2466850D02*
D03*
X2346850D02*
D03*
X2121300Y2710000D02*
D03*
X2015000D02*
D03*
X1951300D02*
D03*
X1845000D02*
D03*
X1653150Y2860000D02*
D03*
X1546850D02*
D03*
D12*
X1456850Y1335000D02*
D03*
Y1441300D02*
D03*
X1895000Y1261850D02*
D03*
Y1368150D02*
D03*
Y1431850D02*
D03*
Y1538150D02*
D03*
X2183150Y2446850D02*
D03*
Y2553150D02*
D03*
X2360000Y2543700D02*
D03*
Y2650000D02*
D03*
Y2713700D02*
D03*
Y2820000D02*
D03*
X1640000Y2783150D02*
D03*
Y2676850D02*
D03*
Y2613150D02*
D03*
Y2506850D02*
D03*
D13*
X1800000Y1353070D02*
D03*
Y1486930D02*
D03*
D14*
X1544174Y1349764D02*
D03*
Y1375354D02*
D03*
Y1400944D02*
D03*
Y1426536D02*
D03*
X1709528Y1375354D02*
D03*
Y1349764D02*
D03*
Y1400944D02*
D03*
Y1426536D02*
D03*
D15*
X2072638Y2470000D02*
D03*
Y2520000D02*
D03*
Y2570000D02*
D03*
Y2620000D02*
D03*
X1883662D02*
D03*
Y2570000D02*
D03*
Y2520000D02*
D03*
Y2470000D02*
D03*
D16*
X1758242Y1791758D02*
D03*
X1800000Y1750000D02*
D03*
X2220000Y2195000D02*
D03*
X2178242Y2236758D02*
D03*
D17*
X1820000Y2405000D02*
D03*
X1879056D02*
D03*
X2158622Y2620000D02*
D03*
X2217678D02*
D03*
X2495472Y2861850D02*
D03*
X2554528D02*
D03*
X2525472Y2461850D02*
D03*
X2584528D02*
D03*
X1504528Y2465000D02*
D03*
X1445472D02*
D03*
X1474528Y2865000D02*
D03*
X1415472D02*
D03*
D18*
X1664292Y1488150D02*
D03*
X1719410D02*
D03*
X1335558Y1686000D02*
D03*
X1280440D02*
D03*
D19*
X2162418Y1732416D02*
D03*
X2237584Y1807582D02*
D03*
D20*
X1879318Y1790488D02*
D03*
X1901590Y1768218D02*
D03*
X1923860Y1745946D02*
D03*
X1946132Y1723676D02*
D03*
X1857048Y1812760D02*
D03*
X1834776Y1835030D02*
D03*
X1812506Y1857302D02*
D03*
X1767964Y1901844D02*
D03*
X1745692Y1924114D02*
D03*
X1723420Y1946386D02*
D03*
X1790234Y1879572D02*
D03*
X2171626Y2127338D02*
D03*
X2193898Y2105068D02*
D03*
X2149356Y2149610D02*
D03*
X2127084Y2171880D02*
D03*
X2104814Y2194152D02*
D03*
X2216168Y2082796D02*
D03*
X2238440Y2060526D02*
D03*
X2260710Y2038254D02*
D03*
X2082542Y2216422D02*
D03*
X2060272Y2238694D02*
D03*
X2038000Y2260964D02*
D03*
D21*
X2038000Y1723676D02*
D03*
X2060272Y1745946D02*
D03*
X2082542Y1768218D02*
D03*
X2104814Y1790488D02*
D03*
X2127084Y1812760D02*
D03*
X2149356Y1835030D02*
D03*
X2171626Y1857302D02*
D03*
X2193898Y1879572D02*
D03*
X2216168Y1901844D02*
D03*
X2238440Y1924114D02*
D03*
X2260710Y1946386D02*
D03*
X1901590Y2216422D02*
D03*
X1923860Y2238694D02*
D03*
X1946132Y2260966D02*
D03*
X1879318Y2194152D02*
D03*
X1857048Y2171880D02*
D03*
X1834776Y2149610D02*
D03*
X1812506Y2127338D02*
D03*
X1790234Y2105068D02*
D03*
X1767964Y2082796D02*
D03*
X1745692Y2060526D02*
D03*
X1723420Y2038254D02*
D03*
D22*
X1219472Y1456598D02*
D03*
X1239158D02*
D03*
X1258842D02*
D03*
X1278528D02*
D03*
Y1531402D02*
D03*
X1258842D02*
D03*
X1239158D02*
D03*
X1219472D02*
D03*
D23*
X1249000Y1494000D02*
D03*
D24*
X1419243Y1409646D02*
X1494457D01*
X1500709Y1415899D01*
Y1451529D01*
X1521496Y1472316D01*
Y1552607D01*
X1527354Y1558465D01*
X1678535D01*
X1698000Y1539000D01*
X1699000Y1538000D01*
X1696000Y1569806D02*
X1939000D01*
X2028000Y1480806D01*
Y1248000D01*
X2065000Y1211000D01*
X2189000D01*
X2250000Y1150000D01*
X2445000Y1255000D02*
Y1379000D01*
X2420000Y1404000D01*
X2550000Y1150000D02*
X2757000Y1357000D01*
X2854000D01*
X2905000Y1408000D01*
Y1740000D01*
X2888000Y1757000D01*
X2223000D01*
X2199500Y1780500D01*
X2177336D01*
X2170836Y1787000D01*
X2150000D01*
X2127084Y1809916D01*
Y1812760D01*
X2149356Y1820000D02*
X2178000D01*
X2186656Y1803000D01*
X2149356Y1820000D02*
Y1835030D01*
X2154000Y1865000D02*
X2171626D01*
Y1857302D01*
X2221346Y1807582D01*
X2237584D01*
X2345000Y1837000D02*
X2518000D01*
X2617000Y1936000D01*
Y2620472D01*
X2541472Y2696000D01*
Y2767338D01*
Y2668528D02*
X2496000Y2714000D01*
X2432000D01*
X2419000Y2727000D01*
Y2768000D01*
X2401000Y2786000D01*
X2296000D01*
X2240000Y2842000D01*
Y2890000D01*
X2140000D01*
X2100000Y2850000D01*
X2189000Y2798000D02*
X2232778Y2754222D01*
X2299778D01*
X2320000Y2734000D01*
Y2713700D01*
X2360000D01*
Y2711742D01*
X2356812D01*
Y2650000D01*
X2360000D01*
X2336000Y2618000D02*
X2404000D01*
Y2747000D01*
X2381778Y2769222D01*
X2245778D01*
X2200000Y2815000D01*
Y2850000D01*
X2286000Y2731000D02*
Y2492850D01*
X2240000Y2446850D01*
X2183150D01*
X2162000Y2388000D02*
X2235000Y2315000D01*
Y2210000D01*
X2220000Y2195000D01*
X2189000Y2164000D01*
X2149356D01*
Y2149610D01*
X2118150Y2118404D01*
X1963000Y1963254D01*
Y1918712D01*
X1857048Y1812760D01*
Y1798000D01*
X1842000D01*
X1800000Y1756000D01*
Y1750000D01*
X1845000D01*
X1907746Y1687254D01*
X2153672D01*
X2162418Y1696000D01*
Y1732416D01*
X2104814Y1790488D02*
Y1805000D01*
X2090000D01*
Y1856000D01*
X2067000Y1783760D02*
Y1952000D01*
X2076000Y1961000D01*
X2083000D01*
X2147000Y1872000D02*
X2154000Y1865000D01*
X2147000Y1872000D02*
Y1969000D01*
X2112000Y2004000D01*
X2056000D01*
X1992000Y1940000D01*
Y1722000D01*
X1977000Y1612000D02*
X2089000Y1500000D01*
X2850000D01*
X2890000Y1460000D02*
Y1690000D01*
X2880000Y1700000D01*
X2850000D01*
X2730000Y1885000D02*
X2789000Y1944000D01*
Y2239000D01*
X2850000Y2300000D01*
X2906066Y2518934D02*
Y2056066D01*
X2850000Y2000000D01*
X2584528Y2424000D02*
Y2461850D01*
Y2516000D01*
X2591472Y2522944D01*
Y2578362D01*
X2541472D02*
Y2668528D01*
Y2578362D02*
Y2555472D01*
X2476000Y2490000D01*
X2453150D01*
Y2466850D01*
X2584528Y2424000D02*
X2402000Y2241472D01*
Y2096000D01*
X2162000Y2388000D02*
X2110000D01*
X2082000Y2416000D01*
X2035000D01*
X1992000Y2459000D01*
Y2620000D01*
X2072638D01*
X2158622D01*
Y2648182D01*
X2168000Y2657560D01*
X2207560D01*
X2216000Y2666000D01*
X2230000Y2688500D02*
X2250000Y2668500D01*
Y2576000D01*
X2227150Y2553150D01*
X2183150D01*
X2135850D01*
X2119000Y2570000D01*
X2072638D01*
Y2520000D02*
X2227000D01*
X2265000Y2558000D01*
Y2686000D01*
X2171000Y2780000D01*
X2048000D01*
X2015000Y2747000D01*
Y2710000D01*
X1951300D01*
X1905000Y2734000D02*
X1969000Y2798000D01*
X2189000D01*
X2121300Y2710000D02*
X2158740Y2672560D01*
X2177224D01*
X2193164Y2688500D01*
X2230000D01*
X2316000Y2598000D02*
X2336000Y2618000D01*
X2316000Y2598000D02*
Y2498000D01*
X2346850D01*
Y2504000D01*
X2354850Y2512000D01*
X2475472D01*
X2491472Y2528000D01*
Y2578362D01*
X2441472D02*
X2417662D01*
X2383000Y2543700D01*
X2360000D01*
X2346850Y2498000D02*
Y2466850D01*
X2118150Y2118404D02*
X1904554Y2332000D01*
X1580000D01*
X1621000Y2291000D01*
Y1644806D01*
X1696000Y1569806D01*
X1678535Y1558465D02*
X1621000Y1616000D01*
Y1644806D01*
X1670000Y1632000D02*
X1717194Y1584806D01*
X1953468D01*
X2078274Y1460000D01*
X2890000D01*
X2189418Y1654000D02*
X2162418Y1681000D01*
Y1696000D01*
X2082542Y1768218D02*
X2067000Y1783760D01*
X1977000Y1612000D02*
X1760000D01*
X1708000Y1664000D01*
Y1930966D01*
X1723420Y1946386D01*
Y2038254D02*
X1708804D01*
X1670000Y1999450D01*
Y1632000D01*
X1553150Y1515000D02*
X1611496Y1456654D01*
Y1368684D01*
X1648680Y1331500D01*
X1706000D01*
Y1350000D01*
X1709528Y1349764D02*
X1738386D01*
X1818150Y1270000D01*
X1709528Y1375354D02*
X1672000D01*
X1658000Y1361354D01*
Y1354000D01*
X1709528Y1400944D02*
X1683844D01*
X1666063Y1418725D01*
Y1434347D01*
X1677110Y1445394D01*
X1681000D01*
X1717000Y1481394D01*
Y1483000D01*
X1709528Y1426536D02*
X1886536D01*
X1892000Y1432000D01*
X1527000Y1443000D02*
X1524000D01*
X1498000Y1530000D02*
Y2066000D01*
X1281500Y2282500D01*
X1297000Y2298000D01*
Y2589472D01*
X1408528Y2701000D01*
Y2704000D01*
Y2748488D01*
Y2803000D01*
X1415472Y2809944D01*
Y2865000D01*
X1458528Y2780000D02*
X1507000Y2828472D01*
X1546850D01*
Y2860000D01*
X1594850Y2908000D01*
X1697000D01*
X1755000Y2850000D01*
X1800000D01*
X1874000D02*
X1900000D01*
X1905000Y2734000D02*
Y2674000D01*
X1937000Y2642000D01*
Y2528000D01*
X1929000Y2520000D01*
X1883662D01*
Y2570000D02*
Y2620000D01*
X1845000Y2658662D01*
Y2710000D01*
X1826000Y2802000D02*
X1874000Y2850000D01*
X1826000Y2802000D02*
X1711150D01*
X1653150Y2860000D01*
Y2848000D01*
X1634000D01*
X1588000Y2802000D01*
X1518528D01*
X1508528Y2792000D01*
Y2748488D01*
X1558528D02*
X1593190Y2783150D01*
X1640000D01*
Y2676850D02*
Y2613150D01*
Y2506850D02*
X1558528D01*
Y2559512D01*
X1508528D02*
Y2514000D01*
X1504528Y2510000D01*
Y2465000D01*
Y2432000D01*
X1545528Y2391000D01*
X1701000D01*
X1820000Y2405000D02*
Y2450000D01*
Y2528000D01*
X1767000Y2581000D01*
X1597000D01*
X1589000Y2589000D01*
Y2627000D01*
X1536000Y2680000D01*
X1432528D01*
X1408528Y2704000D01*
X1458528Y2748488D02*
Y2780000D01*
X1421000Y2651000D02*
X1335000Y2565000D01*
Y2296000D01*
X1281500Y2282500D02*
Y2190000D01*
Y2025500D01*
X1386000Y1921000D01*
X1279000Y1685000D02*
X1239158Y1645158D01*
Y1531402D01*
X1258842D02*
Y1544511D01*
X1265575Y1551245D01*
X1288182D01*
X1413385Y1426041D01*
Y1415504D01*
X1419243Y1409646D01*
X1201000Y1604000D02*
X1219472Y1585528D01*
Y1531402D01*
X1278528D02*
Y1507528D01*
X1266000Y1495000D01*
X1278528Y1482472D01*
Y1456598D01*
X1267000Y1491000D02*
X1264748Y1494000D01*
X1265000D02*
X1266000Y1495000D01*
X1249000Y1494000D02*
X1233252D01*
X1232000Y1495000D02*
X1219472Y1482472D01*
Y1456598D01*
X1580000Y2332000D02*
X1504528Y2407472D01*
Y2432000D01*
X1458528Y2559512D02*
Y2608000D01*
X1469528Y2619000D01*
X1484000D01*
X1820000Y2450000D02*
X1840000Y2470000D01*
X1883662D01*
X2360000Y2820000D02*
X2441472D01*
Y2767338D01*
X2491472D02*
Y2812000D01*
X2495472Y2816000D01*
Y2861850D01*
Y2884000D01*
X2441000D01*
D25*
X1635000Y1145000D02*
D03*
X1935000D02*
D03*
X2145000Y1255000D02*
D03*
X2445000D02*
D03*
X2730000Y1885000D02*
D03*
Y2020000D02*
D03*
X2430000D02*
D03*
Y1885000D02*
D03*
X2906066Y2518934D02*
D03*
X2693934Y2731066D02*
D03*
X1450000Y1985000D02*
D03*
X1150000D02*
D03*
D26*
X1450000Y1150000D02*
D03*
X2250000D02*
D03*
X2350000D02*
D03*
X2450000D02*
D03*
X2550000D02*
D03*
X2650000D02*
D03*
X2850000Y1600000D02*
D03*
Y1700000D02*
D03*
Y2100000D02*
D03*
Y2400000D02*
D03*
X2100000Y2850000D02*
D03*
X2000000D02*
D03*
X1900000D02*
D03*
X1800000D02*
D03*
D27*
X2850000Y1500000D02*
D03*
Y2000000D02*
D03*
Y2300000D02*
D03*
D28*
X1350000Y1150000D02*
D03*
X2150000D02*
D03*
X2200000Y2850000D02*
D03*
D29*
X1100000Y1100000D02*
D03*
X2900000D02*
D03*
Y2900000D02*
D03*
X1100000D02*
D03*
D30*
X1524000Y1443000D02*
D03*
X1658000Y1354000D02*
D03*
X1698000Y1539000D02*
D03*
X1498000Y1530000D02*
D03*
X1439000Y1839000D02*
D03*
X1386000Y1921000D02*
D03*
X1568000Y2094000D02*
D03*
X1335000Y2296000D02*
D03*
X1270000Y2351000D02*
D03*
X1281500Y2190000D02*
D03*
X1701000Y2391000D02*
D03*
X1905000Y2081000D02*
D03*
X2083000Y1961000D02*
D03*
X2090000Y1856000D02*
D03*
X2186656Y1803000D02*
D03*
X2189418Y1654000D02*
D03*
X2158000Y1606000D02*
D03*
X2345000Y1837000D02*
D03*
X2402000Y2096000D02*
D03*
X2157000Y2199000D02*
D03*
X1992000Y1722000D02*
D03*
X1989000Y1638000D02*
D03*
X1996000Y1430000D02*
D03*
X2074000Y1332000D02*
D03*
X2252000Y1242000D02*
D03*
X2200000Y1078000D02*
D03*
X2420000Y1404000D02*
D03*
X2501000Y1576000D02*
D03*
X2728000Y1272000D02*
D03*
X2216000Y2666000D02*
D03*
X2286000Y2731000D02*
D03*
X2441000Y2884000D02*
D03*
X1484000Y2619000D02*
D03*
X1421000Y2651000D02*
D03*
D31*
X1233252Y1494000D02*
D03*
X1264748D02*
D03*
%TF.MD5,390efc01942628d343833ccdaa9c41bf*%
M02*
