G04 Layer_Color=8421504*
%FSLAX26Y26*%
%MOIN*%
%TF.FileFunction,Paste,Top*%
%TF.Part,Single*%
G01*
G75*
%TA.AperFunction,SMDPad,CuDef*%
%ADD10R,0.035433X0.031496*%
%ADD11R,0.031496X0.035433*%
%ADD12O,0.086614X0.023622*%
%ADD13R,0.043307X0.066929*%
%ADD14R,0.066929X0.043307*%
%ADD15O,0.066929X0.017716*%
%ADD16R,0.033465X0.062992*%
%ADD17O,0.021654X0.062992*%
%ADD18O,0.062992X0.021654*%
D10*
X2270000Y1907560D02*
D03*
Y1852440D02*
D03*
X1705000Y2710590D02*
D03*
Y2765708D02*
D03*
X2685000Y2710590D02*
D03*
Y2765708D02*
D03*
X1485000Y2232442D02*
D03*
Y2287560D02*
D03*
X2090000Y2232442D02*
D03*
Y2287560D02*
D03*
X1690000Y1882560D02*
D03*
Y1827440D02*
D03*
X2385000Y2432442D02*
D03*
Y2487560D02*
D03*
X1780000Y2432442D02*
D03*
Y2487560D02*
D03*
X1545000Y1219292D02*
D03*
Y1274410D02*
D03*
D11*
X1542560Y2633150D02*
D03*
X1487440D02*
D03*
X2522560D02*
D03*
X2467440D02*
D03*
X2287442Y1233072D02*
D03*
X2342560D02*
D03*
D12*
X2304488Y2350000D02*
D03*
Y2400000D02*
D03*
Y2450000D02*
D03*
Y2500000D02*
D03*
X2115512Y2350000D02*
D03*
Y2400000D02*
D03*
Y2450000D02*
D03*
Y2500000D02*
D03*
X1699488Y2350000D02*
D03*
Y2400000D02*
D03*
Y2450000D02*
D03*
Y2500000D02*
D03*
X1510512Y2350000D02*
D03*
Y2400000D02*
D03*
Y2450000D02*
D03*
Y2500000D02*
D03*
X2599488Y2693150D02*
D03*
Y2743150D02*
D03*
Y2793150D02*
D03*
Y2843150D02*
D03*
X2410512Y2693150D02*
D03*
Y2743150D02*
D03*
Y2793150D02*
D03*
Y2843150D02*
D03*
X1619488Y2693150D02*
D03*
Y2743150D02*
D03*
Y2793150D02*
D03*
Y2843150D02*
D03*
X1430512Y2693150D02*
D03*
Y2743150D02*
D03*
Y2793150D02*
D03*
Y2843150D02*
D03*
D13*
X2008150Y1560000D02*
D03*
X1901850D02*
D03*
X2161850Y2265000D02*
D03*
X2268150D02*
D03*
X2401850Y2350000D02*
D03*
X2508150D02*
D03*
X2346850Y2265000D02*
D03*
X2453150D02*
D03*
X1556850D02*
D03*
X1663150D02*
D03*
X1796850Y2350000D02*
D03*
X1903150D02*
D03*
X1741850Y2265000D02*
D03*
X1848150D02*
D03*
X2556850Y2930000D02*
D03*
X2663150D02*
D03*
X2443150D02*
D03*
X2336850D02*
D03*
X1463150D02*
D03*
X1356850D02*
D03*
X1576850D02*
D03*
X1683150D02*
D03*
X1651850Y1366850D02*
D03*
X1758150D02*
D03*
X1651850Y1126850D02*
D03*
X1758150D02*
D03*
X2581850Y1253070D02*
D03*
X2688150D02*
D03*
X2301850Y1513070D02*
D03*
X2408150D02*
D03*
X2508150Y1253070D02*
D03*
X2401850D02*
D03*
X2588150Y1513070D02*
D03*
X2481850D02*
D03*
D14*
X2310000Y2711850D02*
D03*
Y2818150D02*
D03*
X1330000Y2711850D02*
D03*
Y2818150D02*
D03*
X1885000Y1193700D02*
D03*
Y1300000D02*
D03*
X2675000Y1339922D02*
D03*
Y1446220D02*
D03*
X2315000Y1299922D02*
D03*
Y1406220D02*
D03*
D15*
X1787678Y1208464D02*
D03*
Y1234056D02*
D03*
Y1259646D02*
D03*
Y1285236D02*
D03*
X1622322Y1208464D02*
D03*
Y1234056D02*
D03*
Y1259646D02*
D03*
Y1285236D02*
D03*
X2577678Y1354686D02*
D03*
Y1380276D02*
D03*
Y1405866D02*
D03*
Y1431456D02*
D03*
X2412322Y1354686D02*
D03*
Y1380276D02*
D03*
Y1405866D02*
D03*
Y1431456D02*
D03*
D16*
X2215000Y1326142D02*
D03*
Y1460000D02*
D03*
D17*
X1822520Y2092440D02*
D03*
X1854016D02*
D03*
X1885512D02*
D03*
X1917008D02*
D03*
X1948504D02*
D03*
X1980000D02*
D03*
X2011496D02*
D03*
X2042992D02*
D03*
X2074488D02*
D03*
X2105984D02*
D03*
X2137480D02*
D03*
Y1647560D02*
D03*
X2105984D02*
D03*
X2074488D02*
D03*
X2042992D02*
D03*
X2011496D02*
D03*
X1980000D02*
D03*
X1948504D02*
D03*
X1917008D02*
D03*
X1885512D02*
D03*
X1854016D02*
D03*
X1822520D02*
D03*
D18*
X2202442Y2027480D02*
D03*
Y1995984D02*
D03*
Y1964488D02*
D03*
Y1932992D02*
D03*
Y1901496D02*
D03*
Y1870000D02*
D03*
Y1838504D02*
D03*
Y1807008D02*
D03*
Y1775512D02*
D03*
Y1744016D02*
D03*
Y1712520D02*
D03*
X1757560D02*
D03*
Y1744016D02*
D03*
Y1775512D02*
D03*
Y1807008D02*
D03*
Y1838504D02*
D03*
Y1870000D02*
D03*
Y1901496D02*
D03*
Y1932992D02*
D03*
Y1964488D02*
D03*
Y1995984D02*
D03*
Y2027480D02*
D03*
%TF.MD5,3850984ac62a039c0f068bd56082e493*%
M02*
