G04 Layer_Physical_Order=1*
G04 Layer_Color=255*
%FSLAX26Y26*%
%MOIN*%
%TF.FileFunction,Copper,L1,Top,Signal*%
%TF.Part,Single*%
G01*
G75*
%TA.AperFunction,SMDPad,CuDef*%
%ADD10R,0.035433X0.031496*%
%ADD11R,0.031496X0.035433*%
%ADD12O,0.086614X0.023622*%
%ADD13R,0.043307X0.066929*%
%ADD14R,0.066929X0.043307*%
%ADD15O,0.066929X0.017716*%
%ADD16R,0.033465X0.062992*%
%ADD17O,0.021654X0.062992*%
%ADD18O,0.062992X0.021654*%
%TA.AperFunction,Conductor*%
%ADD19C,0.010000*%
%TA.AperFunction,ComponentPad*%
%ADD20R,0.059055X0.059055*%
%ADD21C,0.059055*%
%ADD22R,0.059055X0.059055*%
%TA.AperFunction,ViaPad*%
%ADD23C,0.100000*%
%TA.AperFunction,ComponentPad*%
%ADD24C,0.055118*%
%TA.AperFunction,ViaPad*%
%ADD25C,0.025000*%
G36*
X3000000Y1000000D02*
X1000000Y1000000D01*
Y3000000D01*
X1315108D01*
X1316442Y2997714D01*
X1316959Y2995000D01*
X1279326Y2957368D01*
X1277116Y2954060D01*
X1276340Y2950158D01*
Y2755316D01*
X1277116Y2751414D01*
X1279326Y2748107D01*
X1291535Y2735897D01*
Y2685197D01*
X1368465D01*
Y2704764D01*
X1380468D01*
X1383141Y2699764D01*
X1382515Y2698828D01*
X1381157Y2692000D01*
X1382515Y2685172D01*
X1386383Y2679383D01*
X1392172Y2675515D01*
X1399000Y2674157D01*
X1405828Y2675515D01*
X1406568Y2676010D01*
X1430161D01*
X1466692Y2639479D01*
Y2610434D01*
X1506614D01*
Y2572863D01*
X1449994Y2516244D01*
X1447784Y2512936D01*
X1447008Y2509034D01*
Y2398036D01*
X1447008Y2398036D01*
X1447008Y2398035D01*
X1447346Y2396337D01*
X1447784Y2394134D01*
X1447784Y2394134D01*
Y2394134D01*
X1448620Y2392883D01*
X1449994Y2390826D01*
X1449995Y2390826D01*
X1449995Y2390826D01*
X1464843Y2375980D01*
X1466339Y2374980D01*
X1468150Y2373770D01*
X1468151Y2373770D01*
X1468151Y2373770D01*
X1469582Y2373485D01*
X1472052Y2372994D01*
X1487190D01*
X1491092Y2373770D01*
X1494400Y2375980D01*
X1501279Y2382860D01*
X1542008D01*
X1548567Y2384164D01*
X1549212Y2384595D01*
X1553622Y2382238D01*
Y2367762D01*
X1549212Y2365405D01*
X1548567Y2365836D01*
X1542008Y2367140D01*
X1479016D01*
X1472457Y2365836D01*
X1466896Y2362120D01*
X1463180Y2356559D01*
X1461876Y2350000D01*
X1463180Y2343441D01*
X1466896Y2337880D01*
X1472457Y2334164D01*
X1473010Y2334054D01*
X1475580Y2328902D01*
X1474804Y2325000D01*
Y2308308D01*
X1462284D01*
Y2266812D01*
X1507716D01*
Y2308308D01*
X1495196D01*
Y2320777D01*
X1507279Y2332860D01*
X1542008D01*
X1548567Y2334164D01*
X1549212Y2334595D01*
X1553622Y2332238D01*
Y2303465D01*
X1530197D01*
Y2226535D01*
X1583504D01*
Y2303465D01*
X1574014D01*
Y2423182D01*
X1573238Y2427084D01*
X1571028Y2430392D01*
X1557866Y2443553D01*
X1559148Y2450000D01*
X1557844Y2456559D01*
X1554128Y2462120D01*
X1548567Y2465836D01*
X1542008Y2467140D01*
X1520708D01*
Y2482860D01*
X1542008D01*
X1548567Y2484164D01*
X1554128Y2487880D01*
X1557844Y2493441D01*
X1559148Y2500000D01*
X1557844Y2506559D01*
X1554128Y2512120D01*
X1548567Y2515836D01*
X1542008Y2517140D01*
X1486262D01*
X1484349Y2521760D01*
X1524020Y2561430D01*
X1526230Y2564738D01*
X1527006Y2568640D01*
Y2605434D01*
X1537560D01*
Y2633150D01*
Y2660867D01*
X1527006D01*
Y2876338D01*
X1526230Y2880240D01*
X1524020Y2883548D01*
X1492764Y2914804D01*
X1494835Y2919804D01*
X1550197D01*
Y2891535D01*
X1603504D01*
Y2963268D01*
X1656496D01*
Y2898916D01*
X1617871Y2860290D01*
X1587992D01*
X1581433Y2858986D01*
X1575872Y2855270D01*
X1572156Y2849709D01*
X1570852Y2843150D01*
X1572156Y2836591D01*
X1575872Y2831030D01*
X1581433Y2827314D01*
X1587992Y2826010D01*
X1650984D01*
X1657543Y2827314D01*
X1663104Y2831030D01*
X1666820Y2836591D01*
X1668124Y2843150D01*
X1666820Y2849709D01*
X1663104Y2855270D01*
X1657543Y2858986D01*
X1653317Y2859826D01*
X1651527Y2865108D01*
X1677955Y2891535D01*
X1709803D01*
Y2963268D01*
X1775313D01*
X1870417Y2868164D01*
X1869840Y2867413D01*
X1866361Y2859014D01*
X1865175Y2850000D01*
X1866361Y2840986D01*
X1869840Y2832587D01*
X1875150Y2825668D01*
X1874815Y2823727D01*
X1873777Y2820668D01*
X1838751D01*
X1828715Y2830704D01*
X1830160Y2832587D01*
X1833639Y2840986D01*
X1834825Y2850000D01*
X1833639Y2859014D01*
X1830160Y2867413D01*
X1824625Y2874625D01*
X1817413Y2880160D01*
X1809014Y2883639D01*
X1800000Y2884825D01*
X1790986Y2883639D01*
X1782587Y2880160D01*
X1775375Y2874625D01*
X1769840Y2867413D01*
X1766361Y2859014D01*
X1765175Y2850000D01*
X1766361Y2840986D01*
X1769840Y2832587D01*
X1775375Y2825375D01*
X1782587Y2819840D01*
X1790986Y2816361D01*
X1800000Y2815175D01*
X1809014Y2816361D01*
X1812695Y2817886D01*
X1827318Y2803262D01*
X1830626Y2801052D01*
X1834528Y2800276D01*
X1916372D01*
X1920274Y2801052D01*
X1923582Y2803262D01*
X1946738Y2826418D01*
X1948948Y2829726D01*
X1949724Y2833628D01*
Y2866372D01*
X1948948Y2870274D01*
X1946738Y2873582D01*
X1825319Y2995000D01*
X1825836Y2997714D01*
X1827170Y3000000D01*
X3000000Y3000000D01*
X3000000Y1000000D01*
D02*
G37*
%LPC*%
G36*
X2241732Y1367638D02*
X2220000D01*
Y1331142D01*
X2241732D01*
Y1367638D01*
D02*
G37*
G36*
X2210000D02*
X2188268D01*
Y1331142D01*
X2210000D01*
Y1367638D01*
D02*
G37*
G36*
X1753150Y1410314D02*
X1726496D01*
Y1371850D01*
X1753150D01*
Y1410314D01*
D02*
G37*
G36*
X2333503Y1556534D02*
X2306850D01*
Y1518070D01*
X2333503D01*
Y1556534D01*
D02*
G37*
G36*
X2296850D02*
X2270197D01*
Y1518070D01*
X2296850D01*
Y1556534D01*
D02*
G37*
G36*
X1789803Y1410314D02*
X1763150D01*
Y1371850D01*
X1789803D01*
Y1410314D01*
D02*
G37*
G36*
Y1361850D02*
X1763150D01*
Y1323386D01*
X1789803D01*
Y1361850D01*
D02*
G37*
G36*
X2358465Y1331575D02*
X2320000D01*
Y1304922D01*
X2358465D01*
Y1331575D01*
D02*
G37*
G36*
X1812284Y1304464D02*
X1792678D01*
Y1290236D01*
X1830517D01*
X1830048Y1292594D01*
X1825880Y1298832D01*
X1819642Y1303000D01*
X1812284Y1304464D01*
D02*
G37*
G36*
X1646928D02*
X1627322D01*
Y1290236D01*
X1665161D01*
X1664692Y1292594D01*
X1660524Y1298832D01*
X1654286Y1303000D01*
X1646928Y1304464D01*
D02*
G37*
G36*
X1753150Y1361850D02*
X1726496D01*
Y1323386D01*
X1753150D01*
Y1361850D01*
D02*
G37*
G36*
X1928465Y1331653D02*
X1890000D01*
Y1305000D01*
X1928465D01*
Y1331653D01*
D02*
G37*
G36*
X1880000D02*
X1841535D01*
Y1305000D01*
X1880000D01*
Y1331653D01*
D02*
G37*
G36*
X2845000Y1595000D02*
X2810790D01*
X2811490Y1589681D01*
X2815473Y1580066D01*
X2821809Y1571809D01*
X2830066Y1565473D01*
X2839681Y1561490D01*
X2845000Y1560790D01*
Y1595000D01*
D02*
G37*
G36*
Y1639210D02*
X2839681Y1638510D01*
X2830066Y1634527D01*
X2821809Y1628191D01*
X2815473Y1619934D01*
X2811490Y1610319D01*
X2810790Y1605000D01*
X2845000D01*
Y1639210D01*
D02*
G37*
G36*
X2562000Y1613946D02*
Y1597000D01*
X2578946D01*
X2578195Y1600779D01*
X2573222Y1608222D01*
X2565779Y1613195D01*
X2562000Y1613946D01*
D02*
G37*
G36*
X2552000D02*
X2548221Y1613195D01*
X2540778Y1608222D01*
X2535805Y1600779D01*
X2535054Y1597000D01*
X2552000D01*
Y1613946D01*
D02*
G37*
G36*
X2235000Y1637946D02*
Y1621000D01*
X2251946D01*
X2251195Y1624779D01*
X2246222Y1632222D01*
X2238779Y1637195D01*
X2235000Y1637946D01*
D02*
G37*
G36*
X2225000D02*
X2221221Y1637195D01*
X2213778Y1632222D01*
X2208805Y1624779D01*
X2208054Y1621000D01*
X2225000D01*
Y1637946D01*
D02*
G37*
G36*
X2855000Y1639210D02*
Y1605000D01*
X2889210D01*
X2888510Y1610319D01*
X2884527Y1619934D01*
X2878191Y1628191D01*
X2869934Y1634527D01*
X2860319Y1638510D01*
X2855000Y1639210D01*
D02*
G37*
G36*
X2251946Y1611000D02*
X2235000D01*
Y1594054D01*
X2238779Y1594805D01*
X2246222Y1599778D01*
X2251195Y1607221D01*
X2251946Y1611000D01*
D02*
G37*
G36*
X2578946Y1587000D02*
X2562000D01*
Y1570054D01*
X2565779Y1570805D01*
X2573222Y1575778D01*
X2578195Y1583221D01*
X2578946Y1587000D01*
D02*
G37*
G36*
X2552000D02*
X2535054D01*
X2535805Y1583221D01*
X2540778Y1575778D01*
X2548221Y1570805D01*
X2552000Y1570054D01*
Y1587000D01*
D02*
G37*
G36*
X2889210Y1595000D02*
X2855000D01*
Y1560790D01*
X2860319Y1561490D01*
X2869934Y1565473D01*
X2878191Y1571809D01*
X2884527Y1580066D01*
X2888510Y1589681D01*
X2889210Y1595000D01*
D02*
G37*
G36*
X2225000Y1611000D02*
X2208054D01*
X2208805Y1607221D01*
X2213778Y1599778D01*
X2221221Y1594805D01*
X2225000Y1594054D01*
Y1611000D01*
D02*
G37*
G36*
X1364000Y1619843D02*
X1357172Y1618485D01*
X1351383Y1614617D01*
X1347515Y1608828D01*
X1346157Y1602000D01*
X1347515Y1595172D01*
X1351383Y1589383D01*
X1357172Y1585515D01*
X1364000Y1584157D01*
X1370828Y1585515D01*
X1376617Y1589383D01*
X1380485Y1595172D01*
X1381843Y1602000D01*
X1380485Y1608828D01*
X1376617Y1614617D01*
X1370828Y1618485D01*
X1364000Y1619843D01*
D02*
G37*
G36*
X1716000Y1613843D02*
X1709172Y1612485D01*
X1703383Y1608617D01*
X1699515Y1602828D01*
X1698157Y1596000D01*
X1699515Y1589172D01*
X1703383Y1583383D01*
X1709172Y1579515D01*
X1716000Y1578157D01*
X1722828Y1579515D01*
X1728617Y1583383D01*
X1732485Y1589172D01*
X1733843Y1596000D01*
X1732485Y1602828D01*
X1728617Y1608617D01*
X1722828Y1612485D01*
X1716000Y1613843D01*
D02*
G37*
G36*
X2503150Y1248070D02*
X2476497D01*
Y1209605D01*
X2503150D01*
Y1248070D01*
D02*
G37*
G36*
X2368308Y1228072D02*
X2347560D01*
Y1205355D01*
X2368308D01*
Y1228072D01*
D02*
G37*
G36*
X2337560D02*
X2316812D01*
Y1205355D01*
X2337560D01*
Y1228072D01*
D02*
G37*
G36*
X2613503Y1248070D02*
X2586850D01*
Y1209605D01*
X2613503D01*
Y1248070D01*
D02*
G37*
G36*
X2576850D02*
X2550197D01*
Y1209605D01*
X2576850D01*
Y1248070D01*
D02*
G37*
G36*
X2539803D02*
X2513150D01*
Y1209605D01*
X2539803D01*
Y1248070D01*
D02*
G37*
G36*
X1782678Y1203464D02*
X1744839D01*
X1745308Y1201106D01*
X1749476Y1194868D01*
X1755714Y1190700D01*
X1763072Y1189236D01*
X1782678D01*
Y1203464D01*
D02*
G37*
G36*
X1445000Y1189210D02*
X1439681Y1188510D01*
X1430066Y1184527D01*
X1421809Y1178191D01*
X1415473Y1169934D01*
X1411490Y1160319D01*
X1410790Y1155000D01*
X1445000D01*
Y1189210D01*
D02*
G37*
G36*
X1489210Y1145000D02*
X1455000D01*
Y1110790D01*
X1460319Y1111490D01*
X1469934Y1115473D01*
X1478191Y1121809D01*
X1484527Y1130066D01*
X1488510Y1139681D01*
X1489210Y1145000D01*
D02*
G37*
G36*
X1445000D02*
X1410790D01*
X1411490Y1139681D01*
X1415473Y1130066D01*
X1421809Y1121809D01*
X1430066Y1115473D01*
X1439681Y1111490D01*
X1445000Y1110790D01*
Y1145000D01*
D02*
G37*
G36*
X2355000Y1189210D02*
Y1155000D01*
X2389210D01*
X2388510Y1160319D01*
X2384527Y1169934D01*
X2378191Y1178191D01*
X2369934Y1184527D01*
X2360319Y1188510D01*
X2355000Y1189210D01*
D02*
G37*
G36*
X2345000D02*
X2339681Y1188510D01*
X2330066Y1184527D01*
X2321809Y1178191D01*
X2315473Y1169934D01*
X2311490Y1160319D01*
X2310790Y1155000D01*
X2345000D01*
Y1189210D01*
D02*
G37*
G36*
X1455000D02*
Y1155000D01*
X1489210D01*
X1488510Y1160319D01*
X1484527Y1169934D01*
X1478191Y1178191D01*
X1469934Y1184527D01*
X1460319Y1188510D01*
X1455000Y1189210D01*
D02*
G37*
G36*
X2337560Y1260789D02*
X2316812D01*
Y1238072D01*
X2337560D01*
Y1260789D01*
D02*
G37*
G36*
X1928465Y1295000D02*
X1890000D01*
Y1268347D01*
X1928465D01*
Y1295000D01*
D02*
G37*
G36*
X1880000D02*
X1841535D01*
Y1268347D01*
X1880000D01*
Y1295000D01*
D02*
G37*
G36*
X2358465Y1294922D02*
X2320000D01*
Y1268268D01*
X2358465D01*
Y1294922D01*
D02*
G37*
G36*
X1782678Y1304464D02*
X1763072D01*
X1755714Y1303000D01*
X1749476Y1298832D01*
X1745308Y1292594D01*
X1744839Y1290236D01*
X1782678D01*
Y1304464D01*
D02*
G37*
G36*
X2241732Y1321142D02*
X2220000D01*
Y1284646D01*
X2241732D01*
Y1321142D01*
D02*
G37*
G36*
X2210000D02*
X2188268D01*
Y1284646D01*
X2210000D01*
Y1321142D01*
D02*
G37*
G36*
X1450000Y1332840D02*
X1441500Y1331721D01*
X1433580Y1328440D01*
X1426779Y1323221D01*
X1421560Y1316420D01*
X1418279Y1308500D01*
X1417160Y1300000D01*
X1418279Y1291500D01*
X1421560Y1283580D01*
X1426779Y1276779D01*
X1433580Y1271560D01*
X1441500Y1268279D01*
X1450000Y1267160D01*
X1458500Y1268279D01*
X1466420Y1271560D01*
X1473221Y1276779D01*
X1478440Y1283580D01*
X1481721Y1291500D01*
X1482840Y1300000D01*
X1481721Y1308500D01*
X1478440Y1316420D01*
X1473221Y1323221D01*
X1466420Y1328440D01*
X1458500Y1331721D01*
X1450000Y1332840D01*
D02*
G37*
G36*
X2576850Y1296534D02*
X2550197D01*
Y1258070D01*
X2576850D01*
Y1296534D01*
D02*
G37*
G36*
X2503150D02*
X2476497D01*
Y1258070D01*
X2503150D01*
Y1296534D01*
D02*
G37*
G36*
X2368308Y1260789D02*
X2347560D01*
Y1238072D01*
X2368308D01*
Y1260789D01*
D02*
G37*
G36*
X1150000Y1332840D02*
X1141500Y1331721D01*
X1133580Y1328440D01*
X1126779Y1323221D01*
X1121560Y1316420D01*
X1118279Y1308500D01*
X1117160Y1300000D01*
X1118279Y1291500D01*
X1121560Y1283580D01*
X1126779Y1276779D01*
X1133580Y1271560D01*
X1141500Y1268279D01*
X1150000Y1267160D01*
X1158500Y1268279D01*
X1166420Y1271560D01*
X1173221Y1276779D01*
X1178440Y1283580D01*
X1181721Y1291500D01*
X1182840Y1300000D01*
X1181721Y1308500D01*
X1178440Y1316420D01*
X1173221Y1323221D01*
X1166420Y1328440D01*
X1158500Y1331721D01*
X1150000Y1332840D01*
D02*
G37*
G36*
X2539803Y1296534D02*
X2513150D01*
Y1258070D01*
X2539803D01*
Y1296534D01*
D02*
G37*
G36*
X2613503D02*
X2586850D01*
Y1258070D01*
X2613503D01*
Y1296534D01*
D02*
G37*
G36*
X2900000Y1155475D02*
X2885642Y1153584D01*
X2872263Y1148042D01*
X2860773Y1139226D01*
X2851958Y1127737D01*
X2846416Y1114358D01*
X2844525Y1100000D01*
X2846416Y1085642D01*
X2851958Y1072263D01*
X2860773Y1060774D01*
X2872263Y1051958D01*
X2885642Y1046416D01*
X2900000Y1044525D01*
X2914358Y1046416D01*
X2927737Y1051958D01*
X2939227Y1060774D01*
X2948042Y1072263D01*
X2953584Y1085642D01*
X2955475Y1100000D01*
X2953584Y1114358D01*
X2948042Y1127737D01*
X2939227Y1139226D01*
X2927737Y1148042D01*
X2914358Y1153584D01*
X2900000Y1155475D01*
D02*
G37*
G36*
X2845000Y2539210D02*
X2839681Y2538510D01*
X2830066Y2534527D01*
X2821809Y2528191D01*
X2815473Y2519934D01*
X2811490Y2510319D01*
X2810790Y2505000D01*
X2845000D01*
Y2539210D01*
D02*
G37*
G36*
X1370000Y2523843D02*
X1363172Y2522485D01*
X1357383Y2518617D01*
X1353515Y2512828D01*
X1352157Y2506000D01*
X1353515Y2499172D01*
X1357383Y2493383D01*
X1363172Y2489515D01*
X1370000Y2488157D01*
X1376828Y2489515D01*
X1382617Y2493383D01*
X1386485Y2499172D01*
X1387843Y2506000D01*
X1386485Y2512828D01*
X1382617Y2518617D01*
X1376828Y2522485D01*
X1370000Y2523843D01*
D02*
G37*
G36*
X1723000Y2519843D02*
X1716172Y2518485D01*
X1714160Y2517140D01*
X1667992D01*
X1661433Y2515836D01*
X1655872Y2512120D01*
X1652156Y2506559D01*
X1650852Y2500000D01*
X1652156Y2493441D01*
X1655872Y2487880D01*
X1661433Y2484164D01*
X1667992Y2482860D01*
X1725573D01*
X1728082Y2480350D01*
X1731390Y2478140D01*
X1735292Y2477364D01*
X1757284D01*
Y2466812D01*
X1802716D01*
Y2508308D01*
X1757284D01*
Y2497756D01*
X1749966D01*
X1748124Y2500000D01*
X1746820Y2506559D01*
X1743104Y2512120D01*
X1737543Y2515836D01*
X1732203Y2516898D01*
X1729828Y2518485D01*
X1723000Y2519843D01*
D02*
G37*
G36*
X1568308Y2628150D02*
X1547560D01*
Y2605434D01*
X1568308D01*
Y2628150D01*
D02*
G37*
G36*
X2000000Y2884825D02*
X1990986Y2883639D01*
X1982587Y2880160D01*
X1975375Y2874625D01*
X1969840Y2867413D01*
X1966361Y2859014D01*
X1965175Y2850000D01*
X1966361Y2840986D01*
X1969840Y2832587D01*
X1975375Y2825375D01*
X1982587Y2819840D01*
X1989804Y2816851D01*
Y2447223D01*
X1933631Y2391051D01*
X1929803Y2388465D01*
Y2388465D01*
X1929803Y2388465D01*
X1876496D01*
Y2311535D01*
X1929803D01*
Y2358384D01*
X2007210Y2435790D01*
X2009420Y2439098D01*
X2010196Y2443000D01*
Y2816851D01*
X2017413Y2819840D01*
X2018164Y2820417D01*
X2224356Y2614225D01*
X2224580Y2613098D01*
X2226790Y2609790D01*
X2230098Y2607580D01*
X2234000Y2606804D01*
X2342777D01*
X2377304Y2572277D01*
Y2541500D01*
X2378080Y2537598D01*
X2380290Y2534290D01*
X2401653Y2512927D01*
X2399740Y2508308D01*
X2373566D01*
X2371902Y2509420D01*
X2368000Y2510196D01*
X2349390D01*
X2348104Y2512120D01*
X2342543Y2515836D01*
X2335984Y2517140D01*
X2272992D01*
X2266433Y2515836D01*
X2260872Y2512120D01*
X2257156Y2506559D01*
X2255852Y2500000D01*
X2257156Y2493441D01*
X2260872Y2487880D01*
X2266433Y2484164D01*
X2272992Y2482860D01*
X2335984D01*
X2342543Y2484164D01*
X2348104Y2487880D01*
X2349390Y2489804D01*
X2362284D01*
Y2466812D01*
X2407433D01*
X2410707Y2463051D01*
X2410194Y2458190D01*
X2390000D01*
Y2432442D01*
Y2406694D01*
X2412716D01*
Y2423943D01*
X2417716Y2426014D01*
X2481497Y2362234D01*
Y2311535D01*
X2534803D01*
Y2388465D01*
X2484105D01*
X2431196Y2441373D01*
Y2477147D01*
X2436196Y2478664D01*
X2436383Y2478383D01*
X2442172Y2474515D01*
X2449000Y2473157D01*
X2455828Y2474515D01*
X2461617Y2478383D01*
X2465485Y2484172D01*
X2466843Y2491000D01*
X2466275Y2493856D01*
X2494210Y2521790D01*
X2496420Y2525098D01*
X2497196Y2529000D01*
Y2575434D01*
X2498617Y2576383D01*
X2502485Y2582172D01*
X2503843Y2589000D01*
X2502485Y2595828D01*
X2499407Y2600434D01*
X2500876Y2604486D01*
X2501622Y2605434D01*
X2517560D01*
Y2628150D01*
X2496812D01*
Y2611183D01*
X2492204Y2607890D01*
X2488663Y2609135D01*
X2488188Y2610434D01*
X2488188Y2611506D01*
Y2655867D01*
X2459143D01*
X2443751Y2671258D01*
X2445397Y2676684D01*
X2448567Y2677314D01*
X2454128Y2681030D01*
X2457844Y2686591D01*
X2459148Y2693150D01*
X2457844Y2699709D01*
X2454128Y2705270D01*
X2448567Y2708986D01*
X2442008Y2710290D01*
X2425119D01*
X2424828Y2710485D01*
X2418000Y2711843D01*
X2411172Y2710485D01*
X2410881Y2710290D01*
X2379016D01*
X2372457Y2708986D01*
X2366896Y2705270D01*
X2363180Y2699709D01*
X2361876Y2693150D01*
X2363180Y2686591D01*
X2366896Y2681030D01*
X2372457Y2677314D01*
X2379016Y2676010D01*
X2410161D01*
X2429529Y2656642D01*
X2427066Y2652034D01*
X2423000Y2652843D01*
X2416172Y2651485D01*
X2410383Y2647617D01*
X2406515Y2641828D01*
X2405157Y2635000D01*
X2406515Y2628172D01*
X2406804Y2627740D01*
Y2569234D01*
X2404383Y2567617D01*
X2402696Y2565092D01*
X2397696Y2566608D01*
Y2576500D01*
X2396920Y2580402D01*
X2394710Y2583710D01*
X2354210Y2624210D01*
X2350902Y2626420D01*
X2347000Y2627196D01*
X2240223D01*
X2031528Y2835891D01*
X2033639Y2840986D01*
X2034825Y2850000D01*
X2033639Y2859014D01*
X2030160Y2867413D01*
X2024625Y2874625D01*
X2017413Y2880160D01*
X2009014Y2883639D01*
X2000000Y2884825D01*
D02*
G37*
G36*
X2855000Y2539210D02*
Y2505000D01*
X2889210D01*
X2888510Y2510319D01*
X2884527Y2519934D01*
X2878191Y2528191D01*
X2869934Y2534527D01*
X2860319Y2538510D01*
X2855000Y2539210D01*
D02*
G37*
G36*
X2889210Y2495000D02*
X2855000D01*
Y2460790D01*
X2860319Y2461490D01*
X2869934Y2465473D01*
X2878191Y2471809D01*
X2884527Y2480066D01*
X2888510Y2489681D01*
X2889210Y2495000D01*
D02*
G37*
G36*
X2884528Y2434528D02*
X2815472D01*
Y2365472D01*
X2884528D01*
Y2434528D01*
D02*
G37*
G36*
X2335984Y2372238D02*
X2309488D01*
Y2355000D01*
X2357228D01*
X2356530Y2358510D01*
X2351709Y2365725D01*
X2344494Y2370546D01*
X2335984Y2372238D01*
D02*
G37*
G36*
X1730984D02*
X1704488D01*
Y2355000D01*
X1752228D01*
X1751530Y2358510D01*
X1746709Y2365725D01*
X1739494Y2370546D01*
X1730984Y2372238D01*
D02*
G37*
G36*
X2845000Y2495000D02*
X2810790D01*
X2811490Y2489681D01*
X2815473Y2480066D01*
X2821809Y2471809D01*
X2830066Y2465473D01*
X2839681Y2461490D01*
X2845000Y2460790D01*
Y2495000D01*
D02*
G37*
G36*
X1807716Y2458190D02*
X1785000D01*
Y2437442D01*
X1807716D01*
Y2458190D01*
D02*
G37*
G36*
Y2427442D02*
X1785000D01*
Y2406694D01*
X1807716D01*
Y2427442D01*
D02*
G37*
G36*
X2548308Y2628150D02*
X2527560D01*
Y2605434D01*
X2548308D01*
Y2628150D01*
D02*
G37*
G36*
X2689803Y2968465D02*
X2636497D01*
Y2894578D01*
X2602209Y2860290D01*
X2567992D01*
X2561433Y2858986D01*
X2555872Y2855270D01*
X2552156Y2849709D01*
X2550852Y2843150D01*
X2552156Y2836591D01*
X2555872Y2831030D01*
X2561433Y2827314D01*
X2567992Y2826010D01*
X2630984D01*
X2637543Y2827314D01*
X2643104Y2831030D01*
X2646820Y2836591D01*
X2648124Y2843150D01*
X2646820Y2849709D01*
X2643104Y2855270D01*
X2637543Y2858986D01*
X2636238Y2859245D01*
X2634787Y2864030D01*
X2662293Y2891535D01*
X2689803D01*
Y2968465D01*
D02*
G37*
G36*
X2363503D02*
X2310197D01*
Y2891535D01*
X2349045D01*
X2375827Y2864754D01*
X2374181Y2859329D01*
X2372457Y2858986D01*
X2366896Y2855270D01*
X2363180Y2849709D01*
X2361876Y2843150D01*
X2363180Y2836591D01*
X2366896Y2831030D01*
X2372457Y2827314D01*
X2379016Y2826010D01*
X2442008D01*
X2448567Y2827314D01*
X2454128Y2831030D01*
X2457844Y2836591D01*
X2459148Y2843150D01*
X2457844Y2849709D01*
X2454128Y2855270D01*
X2448567Y2858986D01*
X2442008Y2860290D01*
X2409129D01*
X2363503Y2905916D01*
Y2968465D01*
D02*
G37*
G36*
X2234528Y2884528D02*
X2165472D01*
Y2815472D01*
X2220108D01*
X2249640Y2785940D01*
X2252948Y2783730D01*
X2256850Y2782954D01*
X2365610D01*
X2366896Y2781030D01*
X2372457Y2777314D01*
X2379016Y2776010D01*
X2442008D01*
X2448567Y2777314D01*
X2454128Y2781030D01*
X2457844Y2786591D01*
X2459148Y2793150D01*
X2457844Y2799709D01*
X2454128Y2805270D01*
X2448567Y2808986D01*
X2442008Y2810290D01*
X2379016D01*
X2372457Y2808986D01*
X2366896Y2805270D01*
X2365610Y2803346D01*
X2348465D01*
Y2844803D01*
X2271535D01*
Y2803346D01*
X2261073D01*
X2234528Y2829892D01*
Y2884528D01*
D02*
G37*
G36*
X2583503Y2968465D02*
X2530197D01*
Y2937196D01*
X2498000D01*
X2494421Y2936484D01*
X2469803Y2938279D01*
Y2968465D01*
X2416497D01*
Y2891535D01*
X2469803D01*
Y2914162D01*
X2473465Y2917566D01*
X2487804Y2916521D01*
Y2732296D01*
X2488580Y2728394D01*
X2490790Y2725086D01*
X2548559Y2667318D01*
X2548569Y2665606D01*
X2543898Y2660867D01*
X2527560Y2660867D01*
Y2638150D01*
X2548308D01*
Y2655881D01*
X2548308Y2656457D01*
X2553047Y2661128D01*
X2554759Y2661118D01*
X2555804Y2660073D01*
Y2312813D01*
X2484423Y2241432D01*
X2479803Y2243346D01*
Y2303465D01*
X2463025D01*
X2462570Y2305752D01*
X2460360Y2309060D01*
X2428503Y2340916D01*
Y2388465D01*
X2377805D01*
X2371113Y2395156D01*
Y2406694D01*
X2380000D01*
Y2432442D01*
Y2458190D01*
X2357284D01*
Y2454720D01*
X2352284Y2454228D01*
X2351820Y2456559D01*
X2348104Y2462120D01*
X2342543Y2465836D01*
X2335984Y2467140D01*
X2272992D01*
X2266433Y2465836D01*
X2260872Y2462120D01*
X2257156Y2456559D01*
X2255852Y2450000D01*
X2257156Y2443441D01*
X2260872Y2437880D01*
X2266433Y2434164D01*
X2272992Y2432860D01*
X2325721D01*
X2336607Y2421974D01*
X2336527Y2421356D01*
X2334369Y2417140D01*
X2272992D01*
X2266433Y2415836D01*
X2260872Y2412120D01*
X2257156Y2406559D01*
X2255852Y2400000D01*
X2257134Y2393553D01*
X2237886Y2374305D01*
X2232485Y2375828D01*
X2228617Y2381617D01*
X2227196Y2382566D01*
Y2493777D01*
X2290223Y2556804D01*
X2330766D01*
X2332383Y2554383D01*
X2338172Y2550515D01*
X2345000Y2549157D01*
X2351828Y2550515D01*
X2357617Y2554383D01*
X2361485Y2560172D01*
X2362843Y2567000D01*
X2361485Y2573828D01*
X2357617Y2579617D01*
X2351828Y2583485D01*
X2345000Y2584843D01*
X2338172Y2583485D01*
X2332383Y2579617D01*
X2330766Y2577196D01*
X2286000D01*
X2282098Y2576420D01*
X2278790Y2574210D01*
X2209790Y2505210D01*
X2207580Y2501902D01*
X2206804Y2498000D01*
Y2383903D01*
X2203383Y2381617D01*
X2199515Y2375828D01*
X2198157Y2369000D01*
X2199515Y2362172D01*
X2203383Y2356383D01*
X2209172Y2352515D01*
X2216000Y2351157D01*
X2222828Y2352515D01*
X2227804Y2355840D01*
X2230856Y2354921D01*
X2232804Y2353650D01*
Y2290150D01*
X2233580Y2286248D01*
X2235790Y2282940D01*
X2241497Y2277234D01*
Y2226535D01*
X2294803D01*
Y2254804D01*
X2320197D01*
Y2226535D01*
X2373503D01*
Y2303465D01*
X2320197D01*
Y2275196D01*
X2294803D01*
Y2303465D01*
X2253196D01*
Y2332053D01*
X2258196Y2333654D01*
X2264482Y2329454D01*
X2272992Y2327762D01*
X2299488D01*
Y2350000D01*
Y2372238D01*
X2272992D01*
X2271415Y2371925D01*
X2268952Y2376533D01*
X2275279Y2382860D01*
X2335984D01*
X2342543Y2384164D01*
X2346451Y2386775D01*
X2347599Y2386833D01*
X2351626Y2385979D01*
X2352524Y2385495D01*
X2353708Y2383723D01*
X2375197Y2362234D01*
Y2311535D01*
X2428503D01*
X2428503Y2311535D01*
Y2311535D01*
X2432068Y2308512D01*
X2432497Y2308084D01*
X2430583Y2303465D01*
X2426497D01*
Y2226535D01*
X2462993D01*
X2464907Y2221916D01*
X2459879Y2216888D01*
X2117716D01*
Y2227442D01*
X2090000D01*
Y2232442D01*
X2085000D01*
Y2258190D01*
X2072400D01*
Y2266812D01*
X2112716D01*
Y2296297D01*
X2122722Y2306302D01*
X2124932Y2309610D01*
X2125708Y2313512D01*
Y2332860D01*
X2147008D01*
X2153567Y2334164D01*
X2154212Y2334595D01*
X2158622Y2332238D01*
Y2303465D01*
X2135197D01*
Y2226535D01*
X2188503D01*
Y2303465D01*
X2179014D01*
Y2411182D01*
X2178238Y2415084D01*
X2176028Y2418392D01*
X2158896Y2435523D01*
X2159128Y2437880D01*
X2162844Y2443441D01*
X2164148Y2450000D01*
X2162844Y2456559D01*
X2159128Y2462120D01*
X2153567Y2465836D01*
X2147008Y2467140D01*
X2125708D01*
Y2482860D01*
X2147008D01*
X2153567Y2484164D01*
X2159128Y2487880D01*
X2162844Y2493441D01*
X2164148Y2500000D01*
X2162844Y2506559D01*
X2159128Y2512120D01*
X2153567Y2515836D01*
X2147008Y2517140D01*
X2084016D01*
X2077457Y2515836D01*
X2071896Y2512120D01*
X2068180Y2506559D01*
X2066876Y2500000D01*
X2068180Y2493441D01*
X2071896Y2487880D01*
X2077457Y2484164D01*
X2084016Y2482860D01*
X2105316D01*
Y2467140D01*
X2084016D01*
X2077457Y2465836D01*
X2071896Y2462120D01*
X2068180Y2456559D01*
X2066876Y2450000D01*
X2068180Y2443441D01*
X2071896Y2437880D01*
X2077457Y2434164D01*
X2084016Y2432860D01*
X2132721D01*
X2143441Y2422140D01*
X2141369Y2417140D01*
X2084016D01*
X2077457Y2415836D01*
X2071896Y2412120D01*
X2068180Y2406559D01*
X2066876Y2400000D01*
X2068180Y2393441D01*
X2071896Y2387880D01*
X2072320Y2383570D01*
X2054994Y2366244D01*
X2052784Y2362936D01*
X2052008Y2359034D01*
Y2212630D01*
X2052784Y2208728D01*
X2054994Y2205420D01*
X2060932Y2199482D01*
X2064240Y2197272D01*
X2068142Y2196496D01*
X2366544D01*
X2368457Y2191877D01*
X2270856Y2094275D01*
X2268000Y2094843D01*
X2261172Y2093485D01*
X2255383Y2089617D01*
X2251515Y2083828D01*
X2250157Y2077000D01*
X2251515Y2070172D01*
X2255383Y2064383D01*
X2261172Y2060515D01*
X2268000Y2059157D01*
X2274828Y2060515D01*
X2280617Y2064383D01*
X2284485Y2070172D01*
X2285843Y2077000D01*
X2285275Y2079856D01*
X2386915Y2181496D01*
X2470316D01*
X2474218Y2182272D01*
X2477526Y2184482D01*
X2719925Y2426884D01*
X2719926Y2426884D01*
X2722136Y2430192D01*
X2722912Y2434094D01*
Y2730480D01*
X2722136Y2734382D01*
X2719926Y2737690D01*
X2714068Y2743548D01*
X2710760Y2745758D01*
X2707716Y2746363D01*
Y2786456D01*
X2682963D01*
X2669060Y2800360D01*
X2665752Y2802570D01*
X2661850Y2803346D01*
X2644390D01*
X2643104Y2805270D01*
X2637543Y2808986D01*
X2630984Y2810290D01*
X2567992D01*
X2561433Y2808986D01*
X2555872Y2805270D01*
X2552156Y2799709D01*
X2550852Y2793150D01*
X2552156Y2786591D01*
X2555872Y2781030D01*
X2561433Y2777314D01*
X2567992Y2776010D01*
X2630984D01*
X2637543Y2777314D01*
X2643104Y2781030D01*
X2644390Y2782954D01*
X2657627D01*
X2662284Y2778297D01*
Y2746534D01*
X2647451D01*
X2646820Y2749709D01*
X2643104Y2755270D01*
X2637543Y2758986D01*
X2630984Y2760290D01*
X2567992D01*
X2561433Y2758986D01*
X2555872Y2755270D01*
X2552156Y2749709D01*
X2550852Y2743150D01*
X2552156Y2736591D01*
X2555872Y2731030D01*
X2561433Y2727314D01*
X2567992Y2726010D01*
X2601531D01*
X2607153Y2720388D01*
X2605382Y2715421D01*
X2605356Y2715388D01*
X2604488D01*
Y2693150D01*
Y2670912D01*
X2630984D01*
X2639494Y2672604D01*
X2646709Y2677425D01*
X2651530Y2684640D01*
X2652284Y2688430D01*
X2657284Y2687937D01*
Y2684842D01*
X2680000D01*
Y2710590D01*
X2690000D01*
Y2684842D01*
X2702520D01*
Y2438317D01*
X2580815Y2316611D01*
X2576196Y2318525D01*
Y2362209D01*
X2581196Y2363153D01*
X2584383Y2358383D01*
X2590172Y2354515D01*
X2597000Y2353157D01*
X2603828Y2354515D01*
X2609617Y2358383D01*
X2613485Y2364172D01*
X2614843Y2371000D01*
X2613485Y2377828D01*
X2609617Y2383617D01*
X2603828Y2387485D01*
X2597000Y2388843D01*
X2590172Y2387485D01*
X2584383Y2383617D01*
X2581196Y2378847D01*
X2576196Y2379791D01*
Y2664296D01*
X2575874Y2665912D01*
X2579162Y2670912D01*
X2594488D01*
Y2693150D01*
Y2715388D01*
X2567992D01*
X2559482Y2713695D01*
X2552267Y2708875D01*
X2548520Y2703267D01*
X2542789Y2701926D01*
X2508196Y2736519D01*
Y2916804D01*
X2530197D01*
Y2891535D01*
X2583503D01*
Y2968465D01*
D02*
G37*
G36*
X2900000Y2955475D02*
X2885642Y2953584D01*
X2872263Y2948042D01*
X2860773Y2939227D01*
X2851958Y2927737D01*
X2846416Y2914358D01*
X2844525Y2900000D01*
X2846416Y2885642D01*
X2851958Y2872263D01*
X2860773Y2860773D01*
X2872263Y2851958D01*
X2885642Y2846416D01*
X2900000Y2844525D01*
X2914358Y2846416D01*
X2927737Y2851958D01*
X2939227Y2860773D01*
X2948042Y2872263D01*
X2953584Y2885642D01*
X2955475Y2900000D01*
X2953584Y2914358D01*
X2948042Y2927737D01*
X2939227Y2939227D01*
X2927737Y2948042D01*
X2914358Y2953584D01*
X2900000Y2955475D01*
D02*
G37*
G36*
X1100000D02*
X1085642Y2953584D01*
X1072263Y2948042D01*
X1060774Y2939227D01*
X1051958Y2927737D01*
X1046416Y2914358D01*
X1044525Y2900000D01*
X1046416Y2885642D01*
X1051958Y2872263D01*
X1060774Y2860773D01*
X1072263Y2851958D01*
X1085642Y2846416D01*
X1100000Y2844525D01*
X1114358Y2846416D01*
X1127737Y2851958D01*
X1139226Y2860773D01*
X1148042Y2872263D01*
X1153584Y2885642D01*
X1155475Y2900000D01*
X1153584Y2914358D01*
X1148042Y2927737D01*
X1139226Y2939227D01*
X1127737Y2948042D01*
X1114358Y2953584D01*
X1100000Y2955475D01*
D02*
G37*
G36*
X1650984Y2810290D02*
X1587992D01*
X1581433Y2808986D01*
X1575872Y2805270D01*
X1572156Y2799709D01*
X1570852Y2793150D01*
X1572156Y2786591D01*
X1575872Y2781030D01*
X1581433Y2777314D01*
X1587992Y2776010D01*
X1650984D01*
X1657543Y2777314D01*
X1663104Y2781030D01*
X1664390Y2782954D01*
X1671627D01*
X1682284Y2772297D01*
Y2744960D01*
X1727716D01*
Y2768297D01*
X1731144Y2771725D01*
X1734000Y2771157D01*
X1740828Y2772515D01*
X1746617Y2776383D01*
X1750485Y2782172D01*
X1751843Y2789000D01*
X1750485Y2795828D01*
X1746617Y2801617D01*
X1740828Y2805485D01*
X1734000Y2806843D01*
X1727172Y2805485D01*
X1721383Y2801617D01*
X1717515Y2795828D01*
X1716157Y2789000D01*
X1714069Y2786456D01*
X1696963D01*
X1683060Y2800360D01*
X1679752Y2802570D01*
X1675850Y2803346D01*
X1664390D01*
X1663104Y2805270D01*
X1657543Y2808986D01*
X1650984Y2810290D01*
D02*
G37*
G36*
X1732716Y2705590D02*
X1710000D01*
Y2684842D01*
X1732716D01*
Y2705590D01*
D02*
G37*
G36*
X1650984Y2760290D02*
X1587992D01*
X1581433Y2758986D01*
X1575872Y2755270D01*
X1572156Y2749709D01*
X1570852Y2743150D01*
X1572156Y2736591D01*
X1575872Y2731030D01*
X1576297Y2726718D01*
X1558972Y2709394D01*
X1556762Y2706086D01*
X1555986Y2702184D01*
Y2684116D01*
X1556337Y2682352D01*
X1556762Y2680215D01*
X1556762Y2680214D01*
X1558972Y2676906D01*
X1558973Y2676906D01*
X1571216Y2664662D01*
X1567940Y2660867D01*
X1563460Y2660867D01*
X1547560D01*
Y2638150D01*
X1568308D01*
Y2655880D01*
X1568308Y2660499D01*
X1572104Y2663774D01*
X1580086Y2655791D01*
X1580086Y2655790D01*
X1582064Y2654469D01*
X1583394Y2653580D01*
X1583394Y2653580D01*
X1583394Y2653580D01*
X1587295Y2652804D01*
X1881766D01*
X1883383Y2650383D01*
X1889172Y2646515D01*
X1896000Y2645157D01*
X1902828Y2646515D01*
X1908617Y2650383D01*
X1912485Y2656172D01*
X1913843Y2663000D01*
X1912485Y2669828D01*
X1908617Y2675617D01*
X1902828Y2679485D01*
X1896000Y2680843D01*
X1889172Y2679485D01*
X1883383Y2675617D01*
X1881766Y2673196D01*
X1668694D01*
X1667224Y2678196D01*
X1671530Y2684640D01*
X1672284Y2688430D01*
X1677284Y2687937D01*
Y2684842D01*
X1700000D01*
Y2705590D01*
X1677284D01*
Y2698363D01*
X1672284Y2697870D01*
X1671530Y2701660D01*
X1666709Y2708875D01*
X1659494Y2713695D01*
X1650984Y2715388D01*
X1624488D01*
Y2693150D01*
X1614488D01*
Y2715388D01*
X1600338D01*
X1598425Y2720008D01*
X1604427Y2726010D01*
X1650984D01*
X1657543Y2727314D01*
X1663104Y2731030D01*
X1666820Y2736591D01*
X1668124Y2743150D01*
X1666820Y2749709D01*
X1663104Y2755270D01*
X1657543Y2758986D01*
X1650984Y2760290D01*
D02*
G37*
G36*
X2517560Y2660867D02*
X2496812D01*
Y2638150D01*
X2517560D01*
Y2660867D01*
D02*
G37*
G36*
X2100000Y2884825D02*
X2090986Y2883639D01*
X2082587Y2880160D01*
X2075375Y2874625D01*
X2069840Y2867413D01*
X2066361Y2859014D01*
X2065175Y2850000D01*
X2066361Y2840986D01*
X2069840Y2832587D01*
X2075375Y2825375D01*
X2082587Y2819840D01*
X2090986Y2816361D01*
X2100000Y2815175D01*
X2109014Y2816361D01*
X2116230Y2819351D01*
X2199640Y2735940D01*
X2202948Y2733730D01*
X2206850Y2732954D01*
X2271535D01*
Y2685197D01*
X2348465D01*
Y2732954D01*
X2365610D01*
X2366896Y2731030D01*
X2372457Y2727314D01*
X2379016Y2726010D01*
X2442008D01*
X2448567Y2727314D01*
X2454128Y2731030D01*
X2457844Y2736591D01*
X2459148Y2743150D01*
X2457844Y2749709D01*
X2454128Y2755270D01*
X2448567Y2758986D01*
X2442008Y2760290D01*
X2379016D01*
X2372457Y2758986D01*
X2366896Y2755270D01*
X2365610Y2753346D01*
X2211073D01*
X2130649Y2833770D01*
X2133639Y2840986D01*
X2134825Y2850000D01*
X2133639Y2859014D01*
X2130160Y2867413D01*
X2124625Y2874625D01*
X2117413Y2880160D01*
X2109014Y2883639D01*
X2100000Y2884825D01*
D02*
G37*
G36*
X1732716Y2736338D02*
X1710000D01*
Y2715590D01*
X1732716D01*
Y2736338D01*
D02*
G37*
G36*
X1700000D02*
X1677284D01*
Y2715590D01*
X1700000D01*
Y2736338D01*
D02*
G37*
G36*
X1250000Y2082840D02*
X1241500Y2081721D01*
X1233580Y2078440D01*
X1226779Y2073221D01*
X1221560Y2066420D01*
X1218279Y2058500D01*
X1217160Y2050000D01*
X1218279Y2041500D01*
X1221560Y2033580D01*
X1226779Y2026779D01*
X1233580Y2021560D01*
X1241500Y2018279D01*
X1250000Y2017160D01*
X1258500Y2018279D01*
X1266420Y2021560D01*
X1273221Y2026779D01*
X1278440Y2033580D01*
X1281721Y2041500D01*
X1282840Y2050000D01*
X1281721Y2058500D01*
X1278440Y2066420D01*
X1273221Y2073221D01*
X1266420Y2078440D01*
X1258500Y2081721D01*
X1250000Y2082840D01*
D02*
G37*
G36*
X2700000Y2032840D02*
X2691500Y2031721D01*
X2683580Y2028440D01*
X2676779Y2023221D01*
X2671560Y2016420D01*
X2668279Y2008500D01*
X2667160Y2000000D01*
X2668279Y1991500D01*
X2671560Y1983580D01*
X2676779Y1976779D01*
X2683580Y1971560D01*
X2691500Y1968279D01*
X2700000Y1967160D01*
X2708500Y1968279D01*
X2716420Y1971560D01*
X2723221Y1976779D01*
X2728440Y1983580D01*
X2731721Y1991500D01*
X2732840Y2000000D01*
X2731721Y2008500D01*
X2728440Y2016420D01*
X2723221Y2023221D01*
X2716420Y2028440D01*
X2708500Y2031721D01*
X2700000Y2032840D01*
D02*
G37*
G36*
X2400000D02*
X2391500Y2031721D01*
X2383580Y2028440D01*
X2376779Y2023221D01*
X2371560Y2016420D01*
X2368279Y2008500D01*
X2367160Y2000000D01*
X2368279Y1991500D01*
X2371560Y1983580D01*
X2376779Y1976779D01*
X2383580Y1971560D01*
X2391500Y1968279D01*
X2400000Y1967160D01*
X2408500Y1968279D01*
X2416420Y1971560D01*
X2423221Y1976779D01*
X2428440Y1983580D01*
X2431721Y1991500D01*
X2432840Y2000000D01*
X2431721Y2008500D01*
X2428440Y2016420D01*
X2423221Y2023221D01*
X2416420Y2028440D01*
X2408500Y2031721D01*
X2400000Y2032840D01*
D02*
G37*
G36*
Y2132840D02*
X2391500Y2131721D01*
X2383580Y2128440D01*
X2376779Y2123221D01*
X2371560Y2116420D01*
X2368279Y2108500D01*
X2367160Y2100000D01*
X2368279Y2091500D01*
X2371560Y2083580D01*
X2376779Y2076779D01*
X2383580Y2071560D01*
X2391500Y2068279D01*
X2400000Y2067160D01*
X2408500Y2068279D01*
X2416420Y2071560D01*
X2423221Y2076779D01*
X2428440Y2083580D01*
X2431721Y2091500D01*
X2432840Y2100000D01*
X2431721Y2108500D01*
X2428440Y2116420D01*
X2423221Y2123221D01*
X2416420Y2128440D01*
X2408500Y2131721D01*
X2400000Y2132840D01*
D02*
G37*
G36*
X2889210Y2095000D02*
X2855000D01*
Y2060790D01*
X2860319Y2061490D01*
X2869934Y2065473D01*
X2878191Y2071809D01*
X2884527Y2080066D01*
X2888510Y2089681D01*
X2889210Y2095000D01*
D02*
G37*
G36*
X2845000D02*
X2810790D01*
X2811490Y2089681D01*
X2815473Y2080066D01*
X2821809Y2071809D01*
X2830066Y2065473D01*
X2839681Y2061490D01*
X2845000Y2060790D01*
Y2095000D01*
D02*
G37*
G36*
X2884528Y2034527D02*
X2815472D01*
Y1965473D01*
X2884528D01*
Y2034527D01*
D02*
G37*
G36*
X2297716Y1902560D02*
X2275000D01*
Y1881812D01*
X2297716D01*
Y1902560D01*
D02*
G37*
G36*
X1685000Y1877560D02*
X1662284D01*
Y1856812D01*
X1685000D01*
Y1877560D01*
D02*
G37*
G36*
X1100000Y1155475D02*
X1085642Y1153584D01*
X1072263Y1148042D01*
X1060774Y1139226D01*
X1051958Y1127737D01*
X1046416Y1114358D01*
X1044525Y1100000D01*
X1046416Y1085642D01*
X1051958Y1072263D01*
X1060774Y1060774D01*
X1072263Y1051958D01*
X1085642Y1046416D01*
X1100000Y1044525D01*
X1114358Y1046416D01*
X1127737Y1051958D01*
X1139226Y1060774D01*
X1148042Y1072263D01*
X1153584Y1085642D01*
X1155475Y1100000D01*
X1153584Y1114358D01*
X1148042Y1127737D01*
X1139226Y1139226D01*
X1127737Y1148042D01*
X1114358Y1153584D01*
X1100000Y1155475D01*
D02*
G37*
G36*
X1250000Y1982840D02*
X1241500Y1981721D01*
X1233580Y1978440D01*
X1226779Y1973221D01*
X1221560Y1966420D01*
X1218279Y1958500D01*
X1217160Y1950000D01*
X1218279Y1941500D01*
X1221560Y1933580D01*
X1226779Y1926779D01*
X1233580Y1921560D01*
X1241500Y1918279D01*
X1250000Y1917160D01*
X1258500Y1918279D01*
X1266420Y1921560D01*
X1273221Y1926779D01*
X1278440Y1933580D01*
X1281721Y1941500D01*
X1282840Y1950000D01*
X1281721Y1958500D01*
X1278440Y1966420D01*
X1273221Y1973221D01*
X1266420Y1978440D01*
X1258500Y1981721D01*
X1250000Y1982840D01*
D02*
G37*
G36*
X2297716Y1933308D02*
X2275000D01*
Y1912560D01*
X2297716D01*
Y1933308D01*
D02*
G37*
G36*
X1685000Y1908308D02*
X1662284D01*
Y1887560D01*
X1685000D01*
Y1908308D01*
D02*
G37*
G36*
X2700000Y2132840D02*
X2691500Y2131721D01*
X2683580Y2128440D01*
X2676779Y2123221D01*
X2671560Y2116420D01*
X2668279Y2108500D01*
X2667160Y2100000D01*
X2668279Y2091500D01*
X2671560Y2083580D01*
X2676779Y2076779D01*
X2683580Y2071560D01*
X2691500Y2068279D01*
X2700000Y2067160D01*
X2708500Y2068279D01*
X2716420Y2071560D01*
X2723221Y2076779D01*
X2728440Y2083580D01*
X2731721Y2091500D01*
X2732840Y2100000D01*
X2731721Y2108500D01*
X2728440Y2116420D01*
X2723221Y2123221D01*
X2716420Y2128440D01*
X2708500Y2131721D01*
X2700000Y2132840D01*
D02*
G37*
G36*
X2117716Y2258190D02*
X2095000D01*
Y2237442D01*
X2117716D01*
Y2258190D01*
D02*
G37*
G36*
X1480000D02*
X1457284D01*
Y2237442D01*
X1480000D01*
Y2258190D01*
D02*
G37*
G36*
X1730984Y2467140D02*
X1667992D01*
X1661433Y2465836D01*
X1655872Y2462120D01*
X1652156Y2456559D01*
X1650852Y2450000D01*
X1652156Y2443441D01*
X1655872Y2437880D01*
X1661433Y2434164D01*
X1667992Y2432860D01*
X1714551D01*
X1725651Y2421760D01*
X1723738Y2417140D01*
X1667992D01*
X1661433Y2415836D01*
X1655872Y2412120D01*
X1654586Y2410196D01*
X1653000D01*
X1649098Y2409420D01*
X1645790Y2407210D01*
X1629286Y2390706D01*
X1627076Y2387398D01*
X1626300Y2383496D01*
Y2291654D01*
X1627076Y2287752D01*
X1629286Y2284444D01*
X1636496Y2277234D01*
Y2226535D01*
X1689803D01*
Y2254804D01*
X1715197D01*
Y2226535D01*
X1768504D01*
Y2303465D01*
X1715197D01*
Y2275196D01*
X1689803D01*
Y2303465D01*
X1646692D01*
Y2333619D01*
X1651692Y2335136D01*
X1652267Y2334275D01*
X1659482Y2329454D01*
X1667992Y2327762D01*
X1694488D01*
Y2350000D01*
Y2372238D01*
X1667992D01*
X1659482Y2370546D01*
X1652267Y2365725D01*
X1651692Y2364864D01*
X1646692Y2366381D01*
Y2379273D01*
X1655351Y2387931D01*
X1655872Y2387880D01*
X1661433Y2384164D01*
X1667992Y2382860D01*
X1730984D01*
X1737543Y2384164D01*
X1743104Y2387880D01*
X1746820Y2393441D01*
X1746971Y2394203D01*
X1751756Y2395655D01*
X1770197Y2377214D01*
Y2311535D01*
X1823504D01*
Y2317374D01*
X1828123Y2319288D01*
X1837954Y2309457D01*
Y2303465D01*
X1821496D01*
Y2226535D01*
X1874803D01*
Y2303465D01*
X1858346D01*
Y2313680D01*
X1857570Y2317582D01*
X1855360Y2320890D01*
X1823504Y2352746D01*
Y2388465D01*
X1787785D01*
X1774175Y2402075D01*
X1775000Y2404067D01*
Y2432442D01*
Y2458190D01*
X1752284D01*
Y2454720D01*
X1747284Y2454228D01*
X1746820Y2456559D01*
X1743104Y2462120D01*
X1737543Y2465836D01*
X1730984Y2467140D01*
D02*
G37*
G36*
X2357228Y2345000D02*
X2309488D01*
Y2327762D01*
X2335984D01*
X2344494Y2329454D01*
X2351709Y2334275D01*
X2356530Y2341490D01*
X2357228Y2345000D01*
D02*
G37*
G36*
X1752228D02*
X1704488D01*
Y2327762D01*
X1730984D01*
X1739494Y2329454D01*
X1746709Y2334275D01*
X1751530Y2341490D01*
X1752228Y2345000D01*
D02*
G37*
G36*
X1512716Y2258190D02*
X1490000D01*
Y2237442D01*
X1512716D01*
Y2258190D01*
D02*
G37*
G36*
Y2227442D02*
X1490000D01*
Y2206694D01*
X1512716D01*
Y2227442D01*
D02*
G37*
G36*
X1250000Y2182840D02*
X1241500Y2181721D01*
X1233580Y2178440D01*
X1226779Y2173221D01*
X1221560Y2166420D01*
X1218279Y2158500D01*
X1217160Y2150000D01*
X1218279Y2141500D01*
X1221560Y2133580D01*
X1226779Y2126779D01*
X1233580Y2121560D01*
X1241500Y2118279D01*
X1250000Y2117160D01*
X1258500Y2118279D01*
X1266420Y2121560D01*
X1273221Y2126779D01*
X1278440Y2133580D01*
X1281721Y2141500D01*
X1282840Y2150000D01*
X1281721Y2158500D01*
X1278440Y2166420D01*
X1273221Y2173221D01*
X1266420Y2178440D01*
X1258500Y2181721D01*
X1250000Y2182840D01*
D02*
G37*
G36*
X2855000Y2139210D02*
Y2105000D01*
X2889210D01*
X2888510Y2110319D01*
X2884527Y2119934D01*
X2878191Y2128191D01*
X2869934Y2134527D01*
X2860319Y2138510D01*
X2855000Y2139210D01*
D02*
G37*
G36*
X2845000D02*
X2839681Y2138510D01*
X2830066Y2134527D01*
X2821809Y2128191D01*
X2815473Y2119934D01*
X2811490Y2110319D01*
X2810790Y2105000D01*
X2845000D01*
Y2139210D01*
D02*
G37*
G36*
X1480000Y2227442D02*
X1457284D01*
Y2206694D01*
X1480000D01*
Y2227442D01*
D02*
G37*
G36*
X2137480Y2129246D02*
X2131305Y2128018D01*
X2126070Y2124520D01*
X2124739Y2122528D01*
X2118725D01*
X2117394Y2124520D01*
X2112159Y2128018D01*
X2105984Y2129246D01*
X2099809Y2128018D01*
X2094574Y2124520D01*
X2093243Y2122528D01*
X2087229D01*
X2085898Y2124520D01*
X2080663Y2128018D01*
X2074488Y2129246D01*
X2068313Y2128018D01*
X2063078Y2124520D01*
X2061747Y2122528D01*
X2055733D01*
X2054402Y2124520D01*
X2049167Y2128018D01*
X2042992Y2129246D01*
X2036817Y2128018D01*
X2031582Y2124520D01*
X2030251Y2122528D01*
X2024237D01*
X2022906Y2124520D01*
X2017671Y2128018D01*
X2011496Y2129246D01*
X2005321Y2128018D01*
X2000086Y2124520D01*
X1998755Y2122528D01*
X1992741D01*
X1991410Y2124520D01*
X1986175Y2128018D01*
X1980000Y2129246D01*
X1973825Y2128018D01*
X1968590Y2124520D01*
X1967259Y2122528D01*
X1961245D01*
X1959914Y2124520D01*
X1954679Y2128018D01*
X1948504Y2129246D01*
X1942329Y2128018D01*
X1937094Y2124520D01*
X1935763Y2122528D01*
X1929749D01*
X1928418Y2124520D01*
X1923183Y2128018D01*
X1917008Y2129246D01*
X1910833Y2128018D01*
X1905598Y2124520D01*
X1904267Y2122528D01*
X1898253D01*
X1896922Y2124520D01*
X1891687Y2128018D01*
X1885512Y2129246D01*
X1879337Y2128018D01*
X1874102Y2124520D01*
X1872771Y2122528D01*
X1866757D01*
X1865426Y2124520D01*
X1860191Y2128018D01*
X1854016Y2129246D01*
X1847841Y2128018D01*
X1842606Y2124520D01*
X1841275Y2122528D01*
X1835261D01*
X1833930Y2124520D01*
X1828695Y2128018D01*
X1822520Y2129246D01*
X1816345Y2128018D01*
X1811110Y2124520D01*
X1807611Y2119285D01*
X1806383Y2113109D01*
Y2071771D01*
X1807611Y2065595D01*
X1811110Y2060360D01*
X1812324Y2059549D01*
Y2042318D01*
X1812421Y2041831D01*
X1808169Y2037579D01*
X1807682Y2037676D01*
X1790451D01*
X1789640Y2038890D01*
X1784405Y2042389D01*
X1778229Y2043617D01*
X1736891D01*
X1730715Y2042389D01*
X1725480Y2038890D01*
X1721982Y2033655D01*
X1720754Y2027480D01*
X1721982Y2021305D01*
X1725480Y2016070D01*
X1727472Y2014739D01*
Y2008725D01*
X1725480Y2007394D01*
X1721982Y2002159D01*
X1720754Y1995984D01*
X1721982Y1989809D01*
X1725480Y1984574D01*
X1727472Y1983243D01*
Y1977229D01*
X1725480Y1975898D01*
X1721982Y1970663D01*
X1720754Y1964488D01*
X1721982Y1958313D01*
X1725480Y1953078D01*
X1727472Y1951747D01*
Y1945733D01*
X1725480Y1944402D01*
X1721982Y1939167D01*
X1720754Y1932992D01*
X1721982Y1926817D01*
X1725480Y1921582D01*
X1727472Y1920251D01*
Y1914237D01*
X1725480Y1912906D01*
X1722598Y1908593D01*
X1717716Y1908308D01*
X1717716Y1908308D01*
X1717716Y1908308D01*
X1695000D01*
Y1882560D01*
Y1856812D01*
X1717716D01*
X1719606Y1855975D01*
X1721921Y1850320D01*
X1721012Y1848700D01*
X1690000D01*
X1687427Y1848188D01*
X1667284D01*
Y1806692D01*
X1675804D01*
Y1795234D01*
X1673383Y1793617D01*
X1669515Y1787828D01*
X1668157Y1781000D01*
X1669515Y1774172D01*
X1673383Y1768383D01*
X1679172Y1764515D01*
X1686000Y1763157D01*
X1692828Y1764515D01*
X1698617Y1768383D01*
X1702485Y1774172D01*
X1703843Y1781000D01*
X1702485Y1787828D01*
X1698617Y1793617D01*
X1696196Y1795234D01*
Y1806692D01*
X1712716D01*
Y1828308D01*
X1724669D01*
X1725480Y1827094D01*
X1727472Y1825763D01*
Y1819749D01*
X1725480Y1818418D01*
X1721982Y1813183D01*
X1720754Y1807008D01*
X1721982Y1800833D01*
X1725480Y1795598D01*
X1727472Y1794267D01*
Y1788253D01*
X1725480Y1786922D01*
X1721982Y1781687D01*
X1720754Y1775512D01*
X1721982Y1769337D01*
X1725480Y1764102D01*
X1727472Y1762771D01*
Y1756757D01*
X1725480Y1755426D01*
X1721982Y1750191D01*
X1720754Y1744016D01*
X1721982Y1737841D01*
X1725480Y1732606D01*
X1727472Y1731275D01*
Y1725261D01*
X1725480Y1723930D01*
X1722291Y1719157D01*
X1720969Y1718338D01*
X1717187Y1717190D01*
X1560196Y1874179D01*
Y1918982D01*
X1566420Y1921560D01*
X1573221Y1926779D01*
X1578440Y1933580D01*
X1581721Y1941500D01*
X1582840Y1950000D01*
X1581721Y1958500D01*
X1578440Y1966420D01*
X1573221Y1973221D01*
X1566420Y1978440D01*
X1558500Y1981721D01*
X1550000Y1982840D01*
X1541500Y1981721D01*
X1533580Y1978440D01*
X1526779Y1973221D01*
X1521560Y1966420D01*
X1518279Y1958500D01*
X1517160Y1950000D01*
X1518279Y1941500D01*
X1521560Y1933580D01*
X1526779Y1926779D01*
X1533580Y1921560D01*
X1539804Y1918982D01*
Y1879890D01*
X1535185Y1877976D01*
X1510196Y1902965D01*
Y1995777D01*
X1535276Y2020857D01*
X1541500Y2018279D01*
X1550000Y2017160D01*
X1558500Y2018279D01*
X1566420Y2021560D01*
X1573221Y2026779D01*
X1578440Y2033580D01*
X1581721Y2041500D01*
X1582840Y2050000D01*
X1581721Y2058500D01*
X1578440Y2066420D01*
X1573221Y2073221D01*
X1566420Y2078440D01*
X1558500Y2081721D01*
X1550000Y2082840D01*
X1541500Y2081721D01*
X1533580Y2078440D01*
X1526779Y2073221D01*
X1521560Y2066420D01*
X1518279Y2058500D01*
X1517160Y2050000D01*
X1518279Y2041500D01*
X1520857Y2035276D01*
X1492790Y2007210D01*
X1490580Y2003902D01*
X1489804Y2000000D01*
Y1898742D01*
X1490580Y1894840D01*
X1492790Y1891532D01*
X1785470Y1598854D01*
X1788778Y1596644D01*
X1792680Y1595868D01*
X1875197D01*
Y1521535D01*
X1889443D01*
X1889515Y1521172D01*
X1893383Y1515383D01*
X1899172Y1511515D01*
X1906000Y1510157D01*
X1912828Y1511515D01*
X1918617Y1515383D01*
X1922485Y1521172D01*
X1922557Y1521535D01*
X1928504D01*
Y1598464D01*
X1928504D01*
X1926996Y1603465D01*
X1927420Y1604098D01*
X1928196Y1608000D01*
Y1615332D01*
X1928418Y1615480D01*
X1929749Y1617472D01*
X1934469D01*
X1938308Y1613526D01*
Y1257086D01*
X1939084Y1253184D01*
X1941294Y1249876D01*
X2095883Y1095287D01*
X2093970Y1090668D01*
X2002451D01*
X1923465Y1169655D01*
Y1220353D01*
X1846536D01*
Y1220354D01*
X1846338Y1220272D01*
X1841338Y1223613D01*
Y1227322D01*
X1840562Y1231224D01*
X1838352Y1234532D01*
X1835044Y1236742D01*
X1831142Y1237518D01*
X1825725D01*
X1825338Y1239463D01*
X1822275Y1244047D01*
X1821821Y1244351D01*
Y1249351D01*
X1822275Y1249655D01*
X1825338Y1254239D01*
X1826414Y1259646D01*
X1825338Y1265053D01*
X1822463Y1269357D01*
X1825880Y1271640D01*
X1830048Y1277878D01*
X1830517Y1280236D01*
X1787678D01*
X1744839D01*
X1745308Y1277878D01*
X1749476Y1271640D01*
X1752893Y1269357D01*
X1750018Y1265053D01*
X1748942Y1259646D01*
X1750018Y1254239D01*
X1753081Y1249655D01*
X1753535Y1249351D01*
Y1244351D01*
X1753081Y1244047D01*
X1750018Y1239463D01*
X1748942Y1234056D01*
X1750018Y1228649D01*
X1752894Y1224344D01*
X1749476Y1222060D01*
X1745308Y1215822D01*
X1744839Y1213464D01*
X1787678D01*
Y1208464D01*
X1792678D01*
Y1189236D01*
X1812284D01*
X1819642Y1190700D01*
X1825880Y1194868D01*
X1827787Y1197722D01*
X1834214Y1198367D01*
X1846090Y1186490D01*
X1846535Y1186193D01*
Y1167046D01*
X1846654D01*
X1848568Y1162427D01*
X1789423Y1103282D01*
X1784803Y1105196D01*
Y1165314D01*
X1736105D01*
X1685746Y1215674D01*
X1682438Y1217884D01*
X1678536Y1218660D01*
X1657830D01*
X1656463Y1221845D01*
Y1223760D01*
X1656919Y1224065D01*
X1659982Y1228649D01*
X1661058Y1234056D01*
X1659982Y1239463D01*
X1656919Y1244047D01*
X1656465Y1244351D01*
Y1249351D01*
X1656919Y1249655D01*
X1659982Y1254239D01*
X1661058Y1259646D01*
X1659982Y1265053D01*
X1657107Y1269357D01*
X1660524Y1271640D01*
X1664692Y1277878D01*
X1665161Y1280236D01*
X1622322D01*
Y1285236D01*
X1617322D01*
Y1304464D01*
X1597716D01*
X1596253Y1304173D01*
X1593790Y1308781D01*
X1620577Y1335568D01*
X1625197Y1333654D01*
Y1328386D01*
X1678504D01*
Y1405314D01*
X1625197D01*
Y1368423D01*
X1623380Y1367210D01*
X1551329Y1295158D01*
X1522284D01*
Y1271703D01*
X1510074Y1259493D01*
X1507864Y1256185D01*
X1507088Y1252283D01*
Y1199402D01*
X1507864Y1195500D01*
X1510074Y1192192D01*
X1582626Y1119640D01*
X1585933Y1117430D01*
X1589835Y1116654D01*
X1625197D01*
Y1093582D01*
X1420837D01*
X1384527Y1129892D01*
Y1184527D01*
X1315473D01*
Y1115473D01*
X1370108D01*
X1409404Y1076176D01*
X1412712Y1073966D01*
X1416614Y1073190D01*
X1783946D01*
X1787848Y1073966D01*
X1791156Y1076176D01*
X1882026Y1167046D01*
X1897234D01*
X1991018Y1073262D01*
X1994326Y1071052D01*
X1998228Y1070276D01*
X2636372D01*
X2640274Y1071052D01*
X2643581Y1073262D01*
X2722014Y1151692D01*
X2724224Y1155000D01*
X2725000Y1158902D01*
Y1226416D01*
X2724224Y1230318D01*
X2722014Y1233626D01*
X2714803Y1240836D01*
Y1291534D01*
X2664105D01*
X2647029Y1308610D01*
X2651688Y1313268D01*
X2713465D01*
Y1366575D01*
X2653346D01*
X2651432Y1371195D01*
X2655936Y1375698D01*
X2658146Y1379006D01*
X2658922Y1382908D01*
Y1408000D01*
X2658146Y1411902D01*
X2656365Y1414566D01*
X2657709Y1419492D01*
X2657740Y1419566D01*
X2713465D01*
Y1472873D01*
X2670546D01*
X2623140Y1520280D01*
X2619832Y1522490D01*
X2615930Y1523266D01*
X2614803D01*
Y1551534D01*
X2561497D01*
X2561497Y1551535D01*
Y1551535D01*
X2557905Y1554514D01*
X2548675Y1563744D01*
X2545367Y1565954D01*
X2541465Y1566730D01*
X2451615D01*
X2447713Y1565954D01*
X2444405Y1563744D01*
X2432195Y1551534D01*
X2381497D01*
Y1500836D01*
X2350857Y1470196D01*
X2333503D01*
Y1508070D01*
X2301850D01*
X2270197D01*
Y1470196D01*
X2236732D01*
Y1496496D01*
X2193268D01*
Y1423504D01*
X2236732D01*
Y1449804D01*
X2355080D01*
X2358982Y1450580D01*
X2362290Y1452790D01*
X2384105Y1474605D01*
X2429876D01*
X2431314Y1474605D01*
X2435379Y1470184D01*
X2435337Y1468891D01*
X2412032Y1445586D01*
X2387716D01*
X2382309Y1444510D01*
X2377724Y1441447D01*
X2374662Y1436863D01*
X2374275Y1434920D01*
X2315000D01*
X2311098Y1434144D01*
X2309197Y1432873D01*
X2276535D01*
Y1379566D01*
X2304434D01*
X2306348Y1374947D01*
X2264327Y1332928D01*
X2264326Y1332928D01*
X2262116Y1329620D01*
X2261340Y1325718D01*
Y1248976D01*
X2261340Y1248976D01*
X2261340Y1248975D01*
X2261649Y1247423D01*
X2262116Y1245074D01*
X2262117Y1245074D01*
Y1245074D01*
X2262785Y1244073D01*
X2264326Y1241766D01*
X2264327Y1241766D01*
X2266694Y1239399D01*
Y1210355D01*
X2308190D01*
Y1255789D01*
X2281732D01*
Y1268268D01*
X2310000D01*
Y1299922D01*
Y1331575D01*
X2298346D01*
X2296433Y1336195D01*
X2324609Y1364370D01*
X2372376D01*
X2372832Y1363516D01*
X2374518Y1359370D01*
X2373586Y1354686D01*
X2374662Y1349279D01*
X2377724Y1344695D01*
X2382309Y1341632D01*
X2387716Y1340556D01*
X2402126D01*
Y1291534D01*
X2375197D01*
Y1214605D01*
X2428503D01*
Y1291534D01*
X2422518D01*
Y1340556D01*
X2436928D01*
X2442336Y1341632D01*
X2446919Y1344695D01*
X2449982Y1349279D01*
X2451058Y1354686D01*
X2449982Y1360093D01*
X2446919Y1364677D01*
X2446465Y1364981D01*
Y1369981D01*
X2446919Y1370285D01*
X2449982Y1374869D01*
X2451058Y1380276D01*
X2449982Y1385683D01*
X2447107Y1389987D01*
X2450524Y1392270D01*
X2454692Y1398508D01*
X2455161Y1400866D01*
X2412322D01*
Y1410866D01*
X2455161D01*
X2454692Y1413224D01*
X2450524Y1419462D01*
X2447107Y1421745D01*
X2449982Y1426049D01*
X2451058Y1431456D01*
X2449982Y1436863D01*
X2446919Y1441447D01*
X2445052Y1442695D01*
X2444145Y1448860D01*
X2469891Y1474605D01*
X2508503D01*
Y1546339D01*
X2537242D01*
X2561497Y1522084D01*
Y1474605D01*
X2573698D01*
X2576371Y1469605D01*
X2574515Y1466828D01*
X2573157Y1460000D01*
X2574515Y1453172D01*
X2576243Y1450586D01*
X2573571Y1445586D01*
X2553072D01*
X2547664Y1444510D01*
X2543081Y1441447D01*
X2540018Y1436863D01*
X2538942Y1431456D01*
X2540018Y1426049D01*
X2543081Y1421465D01*
X2543535Y1421161D01*
Y1416161D01*
X2543081Y1415857D01*
X2540018Y1411273D01*
X2538942Y1405866D01*
X2540018Y1400459D01*
X2543081Y1395875D01*
X2543535Y1395571D01*
Y1390571D01*
X2543081Y1390267D01*
X2540018Y1385683D01*
X2539282Y1381985D01*
X2527002Y1369706D01*
X2524792Y1366398D01*
X2524016Y1362496D01*
Y1346874D01*
X2524792Y1342972D01*
X2527002Y1339664D01*
X2545876Y1320790D01*
X2549184Y1318580D01*
X2553086Y1317804D01*
X2608997D01*
X2661497Y1265304D01*
Y1214605D01*
X2704608D01*
Y1163125D01*
X2689284Y1147801D01*
X2686384Y1149232D01*
X2684777Y1150366D01*
X2683639Y1159014D01*
X2680160Y1167413D01*
X2674625Y1174625D01*
X2667413Y1180160D01*
X2659014Y1183639D01*
X2650000Y1184825D01*
X2640986Y1183639D01*
X2632587Y1180160D01*
X2625375Y1174625D01*
X2619840Y1167413D01*
X2616361Y1159014D01*
X2615175Y1150000D01*
X2616361Y1140986D01*
X2619840Y1132587D01*
X2625375Y1125375D01*
X2632587Y1119840D01*
X2640986Y1116361D01*
X2649633Y1115223D01*
X2650771Y1113612D01*
X2652198Y1110717D01*
X2632149Y1090668D01*
X2511620D01*
X2509706Y1095287D01*
X2533770Y1119351D01*
X2540986Y1116361D01*
X2550000Y1115175D01*
X2559014Y1116361D01*
X2567413Y1119840D01*
X2574625Y1125375D01*
X2580160Y1132587D01*
X2583639Y1140986D01*
X2584825Y1150000D01*
X2583639Y1159014D01*
X2580160Y1167413D01*
X2574625Y1174625D01*
X2567413Y1180160D01*
X2559014Y1183639D01*
X2550000Y1184825D01*
X2540986Y1183639D01*
X2532587Y1180160D01*
X2525375Y1174625D01*
X2519840Y1167413D01*
X2516361Y1159014D01*
X2515175Y1150000D01*
X2516361Y1140986D01*
X2519351Y1133770D01*
X2491249Y1105668D01*
X2426620D01*
X2424706Y1110287D01*
X2433770Y1119351D01*
X2440986Y1116361D01*
X2450000Y1115175D01*
X2459014Y1116361D01*
X2467413Y1119840D01*
X2474625Y1125375D01*
X2480160Y1132587D01*
X2483639Y1140986D01*
X2484825Y1150000D01*
X2483639Y1159014D01*
X2480160Y1167413D01*
X2474625Y1174625D01*
X2467413Y1180160D01*
X2459014Y1183639D01*
X2450000Y1184825D01*
X2440986Y1183639D01*
X2432587Y1180160D01*
X2425375Y1174625D01*
X2419840Y1167413D01*
X2416361Y1159014D01*
X2415175Y1150000D01*
X2416361Y1140986D01*
X2419351Y1133770D01*
X2406249Y1120668D01*
X2383619D01*
X2381153Y1125668D01*
X2384527Y1130066D01*
X2388510Y1139681D01*
X2389210Y1145000D01*
X2310790D01*
X2311490Y1139681D01*
X2315473Y1130066D01*
X2318847Y1125668D01*
X2316381Y1120668D01*
X2276223D01*
X2275185Y1123727D01*
X2274850Y1125668D01*
X2280160Y1132587D01*
X2283639Y1140986D01*
X2284825Y1150000D01*
X2283639Y1159014D01*
X2280160Y1167413D01*
X2274625Y1174625D01*
X2267413Y1180160D01*
X2259014Y1183639D01*
X2250000Y1184825D01*
X2240986Y1183639D01*
X2232587Y1180160D01*
X2225375Y1174625D01*
X2219840Y1167413D01*
X2216361Y1159014D01*
X2215175Y1150000D01*
X2216361Y1140986D01*
X2219840Y1132587D01*
X2225150Y1125668D01*
X2224815Y1123727D01*
X2223777Y1120668D01*
X2184528D01*
Y1184527D01*
X2129892D01*
X2018196Y1296223D01*
Y1521535D01*
X2034803D01*
Y1598465D01*
X2018346D01*
Y1612433D01*
X2022906Y1615480D01*
X2024237Y1617472D01*
X2030251D01*
X2031582Y1615480D01*
X2036817Y1611982D01*
X2042992Y1610754D01*
X2049167Y1611982D01*
X2054402Y1615480D01*
X2055733Y1617472D01*
X2061747D01*
X2063078Y1615480D01*
X2068313Y1611982D01*
X2074488Y1610754D01*
X2080663Y1611982D01*
X2085898Y1615480D01*
X2087229Y1617472D01*
X2093243D01*
X2094574Y1615480D01*
X2099809Y1611982D01*
X2105984Y1610754D01*
X2112159Y1611982D01*
X2117394Y1615480D01*
X2118725Y1617472D01*
X2124739D01*
X2126070Y1615480D01*
X2131305Y1611982D01*
X2137480Y1610754D01*
X2143655Y1611982D01*
X2148890Y1615480D01*
X2152389Y1620715D01*
X2153617Y1626891D01*
Y1662363D01*
X2158470Y1666496D01*
X2678085D01*
X2815472Y1529108D01*
Y1465473D01*
X2884528D01*
Y1534527D01*
X2838892D01*
X2696543Y1676877D01*
X2698456Y1681496D01*
X2820678D01*
X2825375Y1675375D01*
X2832587Y1669840D01*
X2840986Y1666361D01*
X2850000Y1665175D01*
X2859014Y1666361D01*
X2867413Y1669840D01*
X2874625Y1675375D01*
X2880160Y1682587D01*
X2883639Y1690986D01*
X2884825Y1700000D01*
X2883639Y1709014D01*
X2880160Y1717413D01*
X2874625Y1724625D01*
X2867413Y1730160D01*
X2859014Y1733639D01*
X2850000Y1734825D01*
X2840986Y1733639D01*
X2832587Y1730160D01*
X2825375Y1724625D01*
X2819840Y1717413D01*
X2816361Y1709014D01*
X2815423Y1701888D01*
X2240345D01*
X2238479Y1705379D01*
X2238128Y1706888D01*
X2239248Y1712520D01*
X2238020Y1718695D01*
X2234522Y1723930D01*
X2232530Y1725261D01*
Y1731275D01*
X2234522Y1732606D01*
X2238020Y1737841D01*
X2239248Y1744016D01*
X2238020Y1750191D01*
X2234522Y1755426D01*
X2232530Y1756757D01*
Y1762771D01*
X2234522Y1764102D01*
X2238020Y1769337D01*
X2239248Y1775512D01*
X2238020Y1781687D01*
X2234522Y1786922D01*
X2232530Y1788253D01*
Y1794267D01*
X2234522Y1795598D01*
X2238020Y1800833D01*
X2239248Y1807008D01*
X2238020Y1813183D01*
X2234522Y1818418D01*
X2232530Y1819749D01*
Y1825763D01*
X2234522Y1827094D01*
X2238020Y1832329D01*
X2239248Y1838504D01*
X2238020Y1844679D01*
X2234522Y1849914D01*
X2232530Y1851245D01*
Y1855965D01*
X2236476Y1859804D01*
X2247284D01*
Y1831692D01*
X2283914D01*
X2287172Y1829515D01*
X2294000Y1828157D01*
X2300828Y1829515D01*
X2306617Y1833383D01*
X2310485Y1839172D01*
X2311843Y1846000D01*
X2310485Y1852828D01*
X2306617Y1858617D01*
X2300828Y1862485D01*
X2294000Y1863843D01*
X2292716Y1864896D01*
Y1873188D01*
X2263231D01*
X2259607Y1876812D01*
X2259796Y1878486D01*
X2261321Y1881812D01*
X2265000D01*
Y1907560D01*
Y1933308D01*
X2242284D01*
X2238568Y1936410D01*
X2238020Y1939167D01*
X2234522Y1944402D01*
X2232530Y1945733D01*
Y1951747D01*
X2234522Y1953078D01*
X2238020Y1958313D01*
X2239248Y1964488D01*
X2238020Y1970663D01*
X2234522Y1975898D01*
X2232530Y1977229D01*
Y1983243D01*
X2234522Y1984574D01*
X2238020Y1989809D01*
X2239248Y1995984D01*
X2238020Y2002159D01*
X2234522Y2007394D01*
X2232530Y2008725D01*
Y2014739D01*
X2234522Y2016070D01*
X2238020Y2021305D01*
X2239248Y2027480D01*
X2238020Y2033655D01*
X2234522Y2038890D01*
X2229287Y2042389D01*
X2223111Y2043617D01*
X2181773D01*
X2175597Y2042389D01*
X2170362Y2038890D01*
X2166864Y2033655D01*
X2165636Y2027480D01*
X2166864Y2021305D01*
X2170362Y2016070D01*
X2172354Y2014739D01*
Y2008725D01*
X2170362Y2007394D01*
X2166864Y2002159D01*
X2165636Y1995984D01*
X2166864Y1989809D01*
X2170362Y1984574D01*
X2172354Y1983243D01*
Y1977229D01*
X2170362Y1975898D01*
X2166864Y1970663D01*
X2165636Y1964488D01*
X2166864Y1958313D01*
X2170362Y1953078D01*
X2172354Y1951747D01*
Y1945733D01*
X2170362Y1944402D01*
X2166864Y1939167D01*
X2165636Y1932992D01*
X2166864Y1926817D01*
X2168814Y1923899D01*
X2168197Y1917473D01*
X2166758Y1916511D01*
X2162154Y1909622D01*
X2161533Y1906496D01*
X2202442D01*
Y1896496D01*
X2161533D01*
X2162154Y1893370D01*
X2166758Y1886481D01*
X2168197Y1885519D01*
X2168814Y1879093D01*
X2166864Y1876175D01*
X2165636Y1870000D01*
X2166864Y1863825D01*
X2170362Y1858590D01*
X2172354Y1857259D01*
Y1851245D01*
X2170362Y1849914D01*
X2166864Y1844679D01*
X2165636Y1838504D01*
X2166864Y1832329D01*
X2170362Y1827094D01*
X2172354Y1825763D01*
Y1819749D01*
X2170362Y1818418D01*
X2166864Y1813183D01*
X2165636Y1807008D01*
X2166864Y1800833D01*
X2170362Y1795598D01*
X2172354Y1794267D01*
Y1788253D01*
X2170362Y1786922D01*
X2166864Y1781687D01*
X2165636Y1775512D01*
X2166864Y1769337D01*
X2170362Y1764102D01*
X2172354Y1762771D01*
Y1756757D01*
X2170362Y1755426D01*
X2166864Y1750191D01*
X2165636Y1744016D01*
X2166864Y1737841D01*
X2170362Y1732606D01*
X2172354Y1731275D01*
Y1725261D01*
X2170362Y1723930D01*
X2167172Y1719156D01*
X2165855Y1718337D01*
X2162068Y1717189D01*
X1832716Y2046541D01*
Y2059549D01*
X1833930Y2060360D01*
X1835261Y2062352D01*
X1841275D01*
X1842606Y2060360D01*
X1847841Y2056862D01*
X1854016Y2055634D01*
X1860191Y2056862D01*
X1865426Y2060360D01*
X1866757Y2062352D01*
X1872771D01*
X1874102Y2060360D01*
X1879337Y2056862D01*
X1885512Y2055634D01*
X1891687Y2056862D01*
X1896922Y2060360D01*
X1898253Y2062352D01*
X1904267D01*
X1905598Y2060360D01*
X1910833Y2056862D01*
X1917008Y2055634D01*
X1923183Y2056862D01*
X1928418Y2060360D01*
X1929749Y2062352D01*
X1935763D01*
X1937094Y2060360D01*
X1942329Y2056862D01*
X1948504Y2055634D01*
X1954679Y2056862D01*
X1959914Y2060360D01*
X1961245Y2062352D01*
X1967259D01*
X1968590Y2060360D01*
X1973825Y2056862D01*
X1980000Y2055634D01*
X1986175Y2056862D01*
X1991410Y2060360D01*
X1992741Y2062352D01*
X1998755D01*
X2000086Y2060360D01*
X2005321Y2056862D01*
X2011496Y2055634D01*
X2017671Y2056862D01*
X2022906Y2060360D01*
X2024237Y2062352D01*
X2030251D01*
X2031582Y2060360D01*
X2036817Y2056862D01*
X2042992Y2055634D01*
X2049167Y2056862D01*
X2054402Y2060360D01*
X2055733Y2062352D01*
X2061747D01*
X2063078Y2060360D01*
X2068313Y2056862D01*
X2074488Y2055634D01*
X2080663Y2056862D01*
X2085898Y2060360D01*
X2087229Y2062352D01*
X2093243D01*
X2094574Y2060360D01*
X2099809Y2056862D01*
X2105984Y2055634D01*
X2112159Y2056862D01*
X2117394Y2060360D01*
X2118725Y2062352D01*
X2124739D01*
X2126070Y2060360D01*
X2131305Y2056862D01*
X2137480Y2055634D01*
X2143655Y2056862D01*
X2148890Y2060360D01*
X2152389Y2065595D01*
X2153617Y2071771D01*
Y2113109D01*
X2152389Y2119285D01*
X2148890Y2124520D01*
X2143655Y2128018D01*
X2137480Y2129246D01*
D02*
G37*
G36*
X1550000Y2182840D02*
X1541500Y2181721D01*
X1533580Y2178440D01*
X1526779Y2173221D01*
X1521560Y2166420D01*
X1518279Y2158500D01*
X1517160Y2150000D01*
X1518279Y2141500D01*
X1521560Y2133580D01*
X1526779Y2126779D01*
X1533580Y2121560D01*
X1541500Y2118279D01*
X1550000Y2117160D01*
X1558500Y2118279D01*
X1566420Y2121560D01*
X1573221Y2126779D01*
X1578440Y2133580D01*
X1581721Y2141500D01*
X1582840Y2150000D01*
X1581721Y2158500D01*
X1578440Y2166420D01*
X1573221Y2173221D01*
X1566420Y2178440D01*
X1558500Y2181721D01*
X1550000Y2182840D01*
D02*
G37*
%LPD*%
G36*
X2132810Y1687933D02*
X2131662Y1684151D01*
X2130843Y1682829D01*
X2126070Y1679640D01*
X2124739Y1677648D01*
X2118725D01*
X2117394Y1679640D01*
X2112159Y1683138D01*
X2105984Y1684366D01*
X2099809Y1683138D01*
X2094574Y1679640D01*
X2093243Y1677648D01*
X2087229D01*
X2085898Y1679640D01*
X2080663Y1683138D01*
X2074488Y1684366D01*
X2068313Y1683138D01*
X2063078Y1679640D01*
X2061747Y1677648D01*
X2055733D01*
X2054402Y1679640D01*
X2049167Y1683138D01*
X2042992Y1684366D01*
X2036817Y1683138D01*
X2031582Y1679640D01*
X2030251Y1677648D01*
X2024237D01*
X2022906Y1679640D01*
X2017671Y1683138D01*
X2011496Y1684366D01*
X2005321Y1683138D01*
X2000086Y1679640D01*
X1998755Y1677648D01*
X1992741D01*
X1991410Y1679640D01*
X1986175Y1683138D01*
X1980000Y1684366D01*
X1973825Y1683138D01*
X1968590Y1679640D01*
X1967259Y1677648D01*
X1961245D01*
X1959914Y1679640D01*
X1954679Y1683138D01*
X1948504Y1684366D01*
X1942329Y1683138D01*
X1937094Y1679640D01*
X1935763Y1677648D01*
X1929749D01*
X1928418Y1679640D01*
X1923183Y1683138D01*
X1917008Y1684366D01*
X1910833Y1683138D01*
X1907202Y1680712D01*
X1904015Y1684596D01*
X1945123Y1725704D01*
X1948383Y1725383D01*
X1954172Y1721515D01*
X1961000Y1720157D01*
X1967828Y1721515D01*
X1973617Y1725383D01*
X1977485Y1731172D01*
X1978843Y1738000D01*
X1977485Y1744828D01*
X1973617Y1750617D01*
X1967828Y1754485D01*
X1961000Y1755843D01*
X1954172Y1754485D01*
X1948383Y1750617D01*
X1946766Y1748196D01*
X1943000D01*
X1939098Y1747420D01*
X1935790Y1745210D01*
X1878349Y1687768D01*
X1869852Y1696266D01*
X1866544Y1698476D01*
X1862642Y1699252D01*
X1794412D01*
X1791739Y1704252D01*
X1793138Y1706345D01*
X1794366Y1712520D01*
X1793138Y1718695D01*
X1789640Y1723930D01*
X1787648Y1725261D01*
Y1731275D01*
X1789640Y1732606D01*
X1793138Y1737841D01*
X1794366Y1744016D01*
X1793138Y1750191D01*
X1789640Y1755426D01*
X1787648Y1756757D01*
Y1762771D01*
X1789640Y1764102D01*
X1793138Y1769337D01*
X1794366Y1775512D01*
X1793138Y1781687D01*
X1789640Y1786922D01*
X1787648Y1788253D01*
Y1794267D01*
X1789640Y1795598D01*
X1793138Y1800833D01*
X1794366Y1807008D01*
X1793138Y1813183D01*
X1789640Y1818418D01*
X1787648Y1819749D01*
Y1825763D01*
X1789640Y1827094D01*
X1793138Y1832329D01*
X1794366Y1838504D01*
X1793138Y1844679D01*
X1791188Y1847597D01*
X1791805Y1854023D01*
X1793245Y1854985D01*
X1797848Y1861874D01*
X1798469Y1865000D01*
X1757560D01*
Y1875000D01*
X1798469D01*
X1797848Y1878126D01*
X1793245Y1885015D01*
X1791805Y1885977D01*
X1791188Y1892403D01*
X1793138Y1895321D01*
X1794366Y1901496D01*
X1793138Y1907671D01*
X1789640Y1912906D01*
X1787648Y1914237D01*
Y1920251D01*
X1789640Y1921582D01*
X1793138Y1926817D01*
X1794366Y1932992D01*
X1793138Y1939167D01*
X1789640Y1944402D01*
X1787648Y1945733D01*
Y1951747D01*
X1789640Y1953078D01*
X1793138Y1958313D01*
X1794366Y1964488D01*
X1793138Y1970663D01*
X1789640Y1975898D01*
X1787648Y1977229D01*
Y1983243D01*
X1789640Y1984574D01*
X1793138Y1989809D01*
X1794366Y1995984D01*
X1793138Y2002159D01*
X1789640Y2007394D01*
X1787648Y2008725D01*
Y2013445D01*
X1791594Y2017284D01*
X1803459D01*
X2132810Y1687933D01*
D02*
G37*
%LPC*%
G36*
X1941000Y1862843D02*
X1934172Y1861485D01*
X1928383Y1857617D01*
X1926766Y1855196D01*
X1838757D01*
X1836828Y1856485D01*
X1830000Y1857843D01*
X1823172Y1856485D01*
X1817383Y1852617D01*
X1813515Y1846828D01*
X1812157Y1840000D01*
X1813515Y1833172D01*
X1817383Y1827383D01*
X1823172Y1823515D01*
X1830000Y1822157D01*
X1836828Y1823515D01*
X1842617Y1827383D01*
X1846485Y1833172D01*
X1846809Y1834804D01*
X1926766D01*
X1928383Y1832383D01*
X1934172Y1828515D01*
X1941000Y1827157D01*
X1947828Y1828515D01*
X1953617Y1832383D01*
X1957485Y1838172D01*
X1958843Y1845000D01*
X1957485Y1851828D01*
X1953617Y1857617D01*
X1947828Y1861485D01*
X1941000Y1862843D01*
D02*
G37*
%LPD*%
D10*
X2270000Y1907560D02*
D03*
Y1852440D02*
D03*
X1705000Y2710590D02*
D03*
Y2765708D02*
D03*
X2685000Y2710590D02*
D03*
Y2765708D02*
D03*
X1485000Y2232442D02*
D03*
Y2287560D02*
D03*
X2090000Y2232442D02*
D03*
Y2287560D02*
D03*
X1690000Y1882560D02*
D03*
Y1827440D02*
D03*
X2385000Y2432442D02*
D03*
Y2487560D02*
D03*
X1780000Y2432442D02*
D03*
Y2487560D02*
D03*
X1545000Y1219292D02*
D03*
Y1274410D02*
D03*
D11*
X1542560Y2633150D02*
D03*
X1487440D02*
D03*
X2522560D02*
D03*
X2467440D02*
D03*
X2287442Y1233072D02*
D03*
X2342560D02*
D03*
D12*
X2304488Y2350000D02*
D03*
Y2400000D02*
D03*
Y2450000D02*
D03*
Y2500000D02*
D03*
X2115512Y2350000D02*
D03*
Y2400000D02*
D03*
Y2450000D02*
D03*
Y2500000D02*
D03*
X1699488Y2350000D02*
D03*
Y2400000D02*
D03*
Y2450000D02*
D03*
Y2500000D02*
D03*
X1510512Y2350000D02*
D03*
Y2400000D02*
D03*
Y2450000D02*
D03*
Y2500000D02*
D03*
X2599488Y2693150D02*
D03*
Y2743150D02*
D03*
Y2793150D02*
D03*
Y2843150D02*
D03*
X2410512Y2693150D02*
D03*
Y2743150D02*
D03*
Y2793150D02*
D03*
Y2843150D02*
D03*
X1619488Y2693150D02*
D03*
Y2743150D02*
D03*
Y2793150D02*
D03*
Y2843150D02*
D03*
X1430512Y2693150D02*
D03*
Y2743150D02*
D03*
Y2793150D02*
D03*
Y2843150D02*
D03*
D13*
X2008150Y1560000D02*
D03*
X1901850D02*
D03*
X2161850Y2265000D02*
D03*
X2268150D02*
D03*
X2401850Y2350000D02*
D03*
X2508150D02*
D03*
X2346850Y2265000D02*
D03*
X2453150D02*
D03*
X1556850D02*
D03*
X1663150D02*
D03*
X1796850Y2350000D02*
D03*
X1903150D02*
D03*
X1741850Y2265000D02*
D03*
X1848150D02*
D03*
X2556850Y2930000D02*
D03*
X2663150D02*
D03*
X2443150D02*
D03*
X2336850D02*
D03*
X1463150D02*
D03*
X1356850D02*
D03*
X1576850D02*
D03*
X1683150D02*
D03*
X1651850Y1366850D02*
D03*
X1758150D02*
D03*
X1651850Y1126850D02*
D03*
X1758150D02*
D03*
X2581850Y1253070D02*
D03*
X2688150D02*
D03*
X2301850Y1513070D02*
D03*
X2408150D02*
D03*
X2508150Y1253070D02*
D03*
X2401850D02*
D03*
X2588150Y1513070D02*
D03*
X2481850D02*
D03*
D14*
X2310000Y2711850D02*
D03*
Y2818150D02*
D03*
X1330000Y2711850D02*
D03*
Y2818150D02*
D03*
X1885000Y1193700D02*
D03*
Y1300000D02*
D03*
X2675000Y1339922D02*
D03*
Y1446220D02*
D03*
X2315000Y1299922D02*
D03*
Y1406220D02*
D03*
D15*
X1787678Y1208464D02*
D03*
Y1234056D02*
D03*
Y1259646D02*
D03*
Y1285236D02*
D03*
X1622322Y1208464D02*
D03*
Y1234056D02*
D03*
Y1259646D02*
D03*
Y1285236D02*
D03*
X2577678Y1354686D02*
D03*
Y1380276D02*
D03*
Y1405866D02*
D03*
Y1431456D02*
D03*
X2412322Y1354686D02*
D03*
Y1380276D02*
D03*
Y1405866D02*
D03*
Y1431456D02*
D03*
D16*
X2215000Y1326142D02*
D03*
Y1460000D02*
D03*
D17*
X1822520Y2092440D02*
D03*
X1854016D02*
D03*
X1885512D02*
D03*
X1917008D02*
D03*
X1948504D02*
D03*
X1980000D02*
D03*
X2011496D02*
D03*
X2042992D02*
D03*
X2074488D02*
D03*
X2105984D02*
D03*
X2137480D02*
D03*
Y1647560D02*
D03*
X2105984D02*
D03*
X2074488D02*
D03*
X2042992D02*
D03*
X2011496D02*
D03*
X1980000D02*
D03*
X1948504D02*
D03*
X1917008D02*
D03*
X1885512D02*
D03*
X1854016D02*
D03*
X1822520D02*
D03*
D18*
X2202442Y2027480D02*
D03*
Y1995984D02*
D03*
Y1964488D02*
D03*
Y1932992D02*
D03*
Y1901496D02*
D03*
Y1870000D02*
D03*
Y1838504D02*
D03*
Y1807008D02*
D03*
Y1775512D02*
D03*
Y1744016D02*
D03*
Y1712520D02*
D03*
X1757560D02*
D03*
Y1744016D02*
D03*
Y1775512D02*
D03*
Y1807008D02*
D03*
Y1838504D02*
D03*
Y1870000D02*
D03*
Y1901496D02*
D03*
Y1932992D02*
D03*
Y1964488D02*
D03*
Y1995984D02*
D03*
Y2027480D02*
D03*
D19*
X2357284Y2412550D02*
Y2415716D01*
X2322000Y2451000D02*
X2357284Y2415716D01*
X2318000Y2451000D02*
X2322000D01*
X2404000Y2351000D02*
X2453150Y2301850D01*
Y2265000D02*
Y2301850D01*
X1663150Y2265000D02*
X1730000D01*
X1732000Y2267000D01*
X2268150Y2265000D02*
X2339000D01*
X2342000Y2262000D01*
X1510512Y2450000D02*
Y2497512D01*
X1519000Y2451000D02*
X1536000D01*
X1563818Y2423182D01*
Y2271968D02*
Y2423182D01*
X1556850Y2265000D02*
X1563818Y2271968D01*
X2115512Y2450000D02*
Y2490512D01*
X2131000Y2449000D02*
X2168818Y2411182D01*
X2161850Y2265000D02*
X2168818Y2271968D01*
X1463150Y2930000D02*
X1576850D01*
X2401000Y1265000D02*
X2412322Y1276322D01*
Y1354686D01*
X1622322Y1208464D02*
X1678536D01*
X1755000Y1132000D01*
X1683150Y2911150D02*
Y2930000D01*
X2336850Y2918150D02*
Y2930000D01*
Y2918150D02*
X2409000Y2846000D01*
X2410512Y2843150D01*
X2410472Y1110472D02*
X2450000Y1150000D01*
X2116330Y1110472D02*
X2410472D01*
X1976496Y1250306D02*
X2116330Y1110472D01*
X1976496Y1250306D02*
Y1641496D01*
X1980000Y1645000D02*
Y1647560D01*
X1330000Y2711850D02*
Y2714960D01*
X1399960D02*
X1428000Y2743000D01*
X1430512Y2743150D01*
X1286536Y2755316D02*
X1330000Y2711850D01*
X1286536Y2755316D02*
Y2950158D01*
X1324842Y2988464D01*
X1817436D01*
X1939528Y2866372D01*
Y2833628D02*
Y2866372D01*
X1916372Y2810472D02*
X1939528Y2833628D01*
X1834528Y2810472D02*
X1916372D01*
X1798000Y2847000D02*
X1834528Y2810472D01*
X1798000Y2847000D02*
X1800000Y2850000D01*
X2307850Y2711850D02*
X2310000D01*
X1330000Y2818150D02*
X1399850D01*
X1429000Y2789000D02*
X1430512Y2793150D01*
X1325196Y2822952D02*
X1330000Y2818150D01*
X1325196Y2822952D02*
Y2967606D01*
X1331054Y2973464D01*
X1779536D01*
X1901000Y2852000D01*
X1900000Y2850000D02*
X1901000Y2852000D01*
X1792680Y1606064D02*
X1894138D01*
X1896076Y1608000D01*
X1918000D01*
Y1641000D01*
X1917000Y1642000D02*
X1918000Y1641000D01*
X1919000Y1658000D02*
X1921000D01*
X1923000Y1660000D01*
X1888000Y1283102D02*
Y1297000D01*
X1787678Y1208464D02*
X1813362D01*
X2000000Y2443000D02*
Y2850000D01*
X2010000Y1646000D02*
X2011496Y1647560D01*
X2008150Y1644150D02*
X2010000Y1646000D01*
X2008000Y1292000D02*
Y1550000D01*
Y1292000D02*
X2150000Y1150000D01*
X1545000Y1219292D02*
Y1227322D01*
X2271536Y1248976D02*
X2287442Y1233072D01*
X2271536Y1248976D02*
Y1325718D01*
X2320386Y1374566D01*
X2393566D01*
X2400000Y1381000D01*
X2407000D01*
X1619488Y2793150D02*
X1675850D01*
X1703000Y2766000D01*
X2413000Y2687590D02*
X2467440Y2633150D01*
X1436000Y2684590D02*
X1487440Y2633150D01*
X1436000Y2684590D02*
Y2691000D01*
X2588150Y1513070D02*
X2615930D01*
X1787678Y1234056D02*
X1791000Y1234000D01*
X1797678Y1227322D01*
X1831142D01*
Y1215858D02*
Y1227322D01*
Y1215858D02*
X1853300Y1193700D01*
X1885000D01*
Y1184440D02*
Y1193700D01*
X1783946Y1083386D02*
X1885000Y1184440D01*
X1416614Y1083386D02*
X1783946D01*
X1350000Y1150000D02*
X1416614Y1083386D01*
X2481000Y1500134D02*
Y1506000D01*
X2412322Y1431456D02*
X2481000Y1500134D01*
X2268000Y2077000D02*
X2382692Y2191692D01*
X2470316D01*
X2712716Y2434094D01*
Y2730480D01*
X2706858Y2736338D02*
X2712716Y2730480D01*
X2625622Y2736338D02*
X2706858D01*
X2608000Y2733960D02*
X2615622Y2726338D01*
X2608000Y2733960D02*
Y2740000D01*
X1706000Y2449000D02*
X1712830D01*
X1848150Y2265000D02*
Y2313680D01*
X1796850Y2350000D02*
X1804340Y2357490D01*
X1653000Y2400000D02*
X1699488D01*
X1636496Y2383496D02*
X1653000Y2400000D01*
X1636496Y2291654D02*
Y2383496D01*
Y2291654D02*
X1663150Y2265000D01*
X1463150Y2930000D02*
X1516810Y2876338D01*
Y2568640D02*
Y2876338D01*
X1457204Y2509034D02*
X1516810Y2568640D01*
X1457204Y2398036D02*
Y2509034D01*
Y2398036D02*
X1472052Y2383190D01*
X1487190D01*
X1502000Y2398000D01*
X2498000Y2732296D02*
Y2926000D01*
X2068142Y2206692D02*
X2464102D01*
X2062204Y2212630D02*
X2068142Y2206692D01*
X2062204Y2212630D02*
Y2359034D01*
X2103170Y2400000D01*
X2115512D01*
X2443150Y2930000D02*
X2498000Y2926000D01*
Y2927000D01*
X2599488Y2843150D02*
X2663150Y2906812D01*
Y2930000D01*
X1430512Y2843150D02*
Y2856338D01*
X1356850Y2930000D02*
X1430512Y2856338D01*
X2495472Y1095472D02*
X2550000Y1150000D01*
X2110118Y1095472D02*
X2495472D01*
X1948504Y1257086D02*
X2110118Y1095472D01*
X1948504Y1257086D02*
Y1647560D01*
X1822520Y2042318D02*
Y2092440D01*
Y2042318D02*
X2173146Y1691692D01*
X2841692D01*
X2850000Y1700000D01*
X1807682Y2027480D02*
X2158470Y1676692D01*
X1757560Y2027480D02*
X1807682D01*
X2100000Y2850000D02*
X2206850Y2743150D01*
X2335000Y2793150D02*
X2410512D01*
X2310000Y2818150D02*
X2311425Y2819575D01*
X2200000Y2850000D02*
X2256850Y2793150D01*
X1730902Y1689056D02*
X1862642D01*
X1550000Y1869956D02*
X1730902Y1689056D01*
X1550000Y1869956D02*
Y1950000D01*
X1885512Y1647560D02*
Y1680512D01*
X1587296Y2663000D02*
X1894970D01*
X1566182Y2684116D02*
X1587296Y2663000D01*
X1566182Y2684116D02*
Y2702184D01*
X1603998Y2740000D01*
X1618000D01*
X1619488Y2743150D01*
X1735292Y2487560D02*
X1780000D01*
X1567268Y1274410D02*
X1582032Y1259646D01*
X2648726Y1382908D02*
Y1408000D01*
X2577678Y1354686D02*
X2620504D01*
X2648726Y1382908D01*
X1510000Y2350000D02*
X1510512D01*
X1485000Y2325000D02*
X1510000Y2350000D01*
X1485000Y2287560D02*
Y2325000D01*
X1787678Y1234056D02*
Y1259646D01*
X2577000Y1405866D02*
X2577678D01*
X2577000Y1380276D02*
X2577678D01*
X2688150Y1253070D02*
X2714804Y1226416D01*
Y1158902D02*
Y1226416D01*
X1998228Y1080472D02*
X2636372D01*
X1885000Y1193700D02*
X1998228Y1080472D01*
X2636372D02*
X2714804Y1158902D01*
X2553086Y1328000D02*
X2613220D01*
X2534212Y1346874D02*
X2553086Y1328000D01*
X2534212Y1346874D02*
Y1362496D01*
X2551992Y1380276D01*
X1545000Y1274410D02*
X1567268D01*
X2206850Y2743150D02*
X2339150D01*
X2410512D01*
X2311425Y2819575D02*
X2311501Y2819489D01*
X2256850Y2793150D02*
X2335000D01*
X2311501Y2819489D02*
X2335000Y2793150D01*
X1330000Y2714960D02*
X1399960D01*
X2307850Y2711850D02*
X2339150Y2743150D01*
X1510512Y2497512D02*
X1516000Y2503000D01*
X1712830Y2449000D02*
X1804340Y2357490D01*
X1848150Y2313680D01*
X1545000Y1227322D02*
X1613322D01*
X1625000Y1239000D01*
X2315000Y1424724D02*
X2397724D01*
X1614000Y2842000D02*
X1683150Y2911150D01*
X1399850Y2818150D02*
X1429000Y2789000D01*
X2408150Y1513070D02*
X2451615Y1556535D01*
X2541465D01*
X2578000Y1520000D02*
X2588000D01*
X2215000Y1460000D02*
X2355080D01*
X2589000Y1432000D02*
X2590000Y1433000D01*
X2577678Y1431456D02*
X2625270D01*
X1589835Y1126850D02*
X1651850D01*
X1517283Y1199402D02*
X1589835Y1126850D01*
X1517283Y1199402D02*
Y1252283D01*
X1545000Y1274410D02*
X1630590Y1360000D01*
X1686000Y1781000D02*
Y1820000D01*
X1836000Y1845000D02*
X1941000D01*
X1894970Y2663000D02*
X1896560Y2661410D01*
X2599488Y2793150D02*
X2661850D01*
X2304488Y2500000D02*
X2368000D01*
X2168818Y2271968D02*
Y2411182D01*
X2115512Y2490512D02*
X2128000Y2503000D01*
X2387500Y2541500D02*
Y2576500D01*
X2347000Y2617000D02*
X2387500Y2576500D01*
X2234000Y2617000D02*
X2236000D01*
X2347000D01*
X2010000Y2843000D02*
X2236000Y2617000D01*
X2217000Y2372000D02*
Y2498000D01*
X2421000Y2437150D02*
X2508150Y2350000D01*
X2421000Y2437150D02*
Y2508000D01*
X2387500Y2541500D02*
X2421000Y2508000D01*
X1901000Y2344000D02*
X2000000Y2443000D01*
X2464102Y2206692D02*
X2566000Y2308590D01*
Y2664296D01*
X2498000Y2732296D02*
X2566000Y2664296D01*
X2498000Y2927000D02*
X2564000D01*
X2243000Y2290150D02*
X2268150Y2265000D01*
X2243000Y2290150D02*
Y2365000D01*
X2282000Y2404000D01*
X2346850Y2265000D02*
X2357796Y2275944D01*
X2282000Y2404000D02*
X2305000D01*
X2360918Y2390932D02*
X2401850Y2350000D01*
X2360918Y2390932D02*
Y2408918D01*
X2357284Y2412550D02*
X2360917Y2408917D01*
X2449000Y2491000D02*
X2487000Y2529000D01*
Y2588000D01*
X1500000Y1898742D02*
X1792680Y1606064D01*
X1500000Y1898742D02*
Y2000000D01*
X1550000Y2050000D01*
X1710000Y2765000D02*
X1734000Y2789000D01*
X1709000Y2765000D02*
X1710000D01*
X2663922Y1339922D02*
X2675000D01*
X2633000Y1309000D02*
X2663922Y1339922D01*
X2286000Y2567000D02*
X2345000D01*
X2217000Y2498000D02*
X2286000Y2567000D01*
X2417000Y2629000D02*
X2423000Y2635000D01*
X2417000Y2559000D02*
Y2629000D01*
X1943000Y1738000D02*
X1961000D01*
X1885512Y1680512D02*
X1943000Y1738000D01*
X2615622Y2726338D02*
X2625622Y2736338D01*
X1862642Y1689056D02*
X1884000Y1667698D01*
X2541465Y1556535D02*
X2578000Y1520000D01*
X2355080Y1460000D02*
X2408150Y1513070D01*
X2661780Y1433000D02*
X2675000Y1446220D01*
X2615930Y1513070D02*
X2677000Y1452000D01*
X2590000Y1433000D02*
X2661780D01*
X2625270Y1431456D02*
X2648726Y1408000D01*
X2008150Y1560000D02*
Y1644150D01*
X1830000Y1839000D02*
X1836000Y1845000D01*
X2397724Y1424724D02*
X2406000Y1433000D01*
X2315000Y1406220D02*
Y1424724D01*
X2682308Y1676692D02*
X2851000Y1508000D01*
X2158470Y1676692D02*
X2682308D01*
X2577000Y1380276D02*
Y1405866D01*
X2551992Y1380276D02*
X2577000D01*
X2613220Y1328000D02*
X2688150Y1253070D01*
X2661850Y2793150D02*
X2691000Y2764000D01*
X1721442Y2501410D02*
X1735292Y2487560D01*
X2368000Y2500000D02*
X2385000Y2483000D01*
X2252000Y1870000D02*
X2273000Y1849000D01*
X2202442Y1870000D02*
X2252000D01*
X1690000Y1838504D02*
X1757560D01*
X1690000Y1827440D02*
Y1838504D01*
X1686000Y1820000D02*
X1689000Y1823000D01*
X1630590Y1360000D02*
X1659000D01*
X1517283Y1252283D02*
X1540000Y1275000D01*
X1582032Y1259646D02*
X1622322D01*
X1976496Y1641496D02*
X1980000Y1645000D01*
X1690000Y1880669D02*
Y1882560D01*
X1746331Y1880669D02*
X1757000Y1870000D01*
X2089000Y2287000D02*
X2115512Y2313512D01*
Y2350000D01*
X2413000Y2687590D02*
X2414755Y2689840D01*
X2418000Y2694000D01*
X1690000Y1880669D02*
X1746331D01*
D20*
X2150000Y1150000D02*
D03*
X2200000Y2850000D02*
D03*
X1350000Y1150000D02*
D03*
D21*
X2250000D02*
D03*
X2350000D02*
D03*
X2450000D02*
D03*
X2550000D02*
D03*
X2650000D02*
D03*
X1800000Y2850000D02*
D03*
X1900000D02*
D03*
X2000000D02*
D03*
X2100000D02*
D03*
X2850000Y1600000D02*
D03*
Y1700000D02*
D03*
Y2500000D02*
D03*
Y2100000D02*
D03*
X1450000Y1150000D02*
D03*
D22*
X2850000Y1500000D02*
D03*
Y2400000D02*
D03*
Y2000000D02*
D03*
D23*
X1100000Y1100000D02*
D03*
X2900000D02*
D03*
Y2900000D02*
D03*
X1100000D02*
D03*
D24*
X1150000Y1300000D02*
D03*
X1450000D02*
D03*
X1250000Y2150000D02*
D03*
X1550000D02*
D03*
X2400000Y2000000D02*
D03*
X2700000D02*
D03*
Y2100000D02*
D03*
X2400000D02*
D03*
X1250000Y2050000D02*
D03*
X1550000D02*
D03*
X1250000Y1950000D02*
D03*
X1550000D02*
D03*
D25*
X2591000Y1460000D02*
D03*
X1364000Y1602000D02*
D03*
X2268000Y2077000D02*
D03*
X1716000Y1596000D02*
D03*
X2597000Y2371000D02*
D03*
X1723000Y2502000D02*
D03*
X1484000Y2287000D02*
D03*
X2114000Y2349000D02*
D03*
X1653000Y1126000D02*
D03*
X2294000Y1846000D02*
D03*
X1686000Y1781000D02*
D03*
X1906000Y1528000D02*
D03*
X1941000Y1845000D02*
D03*
X1830000Y1840000D02*
D03*
X1370000Y2506000D02*
D03*
X1896000Y2663000D02*
D03*
X2686000Y2767000D02*
D03*
X2384000Y2486000D02*
D03*
X2216000Y2369000D02*
D03*
X2417000Y2555000D02*
D03*
X2486000Y2589000D02*
D03*
X2449000Y2491000D02*
D03*
X2683000Y1453000D02*
D03*
X1734000Y2789000D02*
D03*
X2345000Y2567000D02*
D03*
X2418000Y2694000D02*
D03*
X2423000Y2635000D02*
D03*
X1961000Y1738000D02*
D03*
X1399000Y2692000D02*
D03*
X2557000Y1592000D02*
D03*
X2230000Y1616000D02*
D03*
%TF.MD5,12d3098cdba8b98abd05b73fa5f2a1b9*%
M02*
