G04 Layer_Color=65535*
%FSLAX26Y26*%
%MOIN*%
%TF.FileFunction,Legend,Top*%
%TF.Part,Single*%
G01*
G75*
%TA.AperFunction,NonConductor*%
%ADD40C,0.003937*%
%ADD41C,0.023622*%
%ADD42C,0.009842*%
%ADD43C,0.015748*%
%ADD44C,0.007874*%
%ADD45C,0.005000*%
%ADD46C,0.015000*%
%ADD47C,0.010000*%
D40*
X1203724Y1436913D02*
G03*
X1203724Y1436913I-1968J0D01*
G01*
D41*
X1811789Y1992320D02*
G03*
X1811789Y1992320I-11811J0D01*
G01*
D42*
X1549095Y1457047D02*
G03*
X1549095Y1457047I-4921J0D01*
G01*
X1705375Y1969353D02*
G03*
X1705375Y1969353I-4921J0D01*
G01*
X2412929Y2578362D02*
G03*
X2412929Y2578362I-4921J0D01*
G01*
X1888583Y2653465D02*
G03*
X1888583Y2653465I-4921J0D01*
G01*
X1596913Y2748488D02*
G03*
X1596913Y2748488I-4921J0D01*
G01*
D43*
X2457417Y2668914D02*
G03*
X2457417Y2668914I-7874J0D01*
G01*
X1982087Y2611929D02*
G03*
X1982087Y2611929I-7874J0D01*
G01*
X1558331Y2657937D02*
G03*
X1558331Y2657937I-7874J0D01*
G01*
D44*
X1300000Y1100000D02*
X1500000D01*
Y1200000D01*
X1300000D01*
Y1100000D01*
X1574252Y1240472D02*
X1605748D01*
Y1299528D02*
X1574252D01*
X1685000Y1175000D02*
X1885000D01*
Y1115000D01*
X1685000D01*
Y1145000D01*
Y1175000D01*
Y1145000D02*
X1676000D01*
X1749252Y1240472D02*
X1780748D01*
Y1299528D02*
X1749252D01*
X1885000Y1145000D02*
X1894000D01*
X1924528Y1299252D02*
Y1330748D01*
Y1469252D02*
Y1500748D01*
X1865472D02*
Y1469252D01*
X1835434Y1477086D02*
X1827560D01*
X1835434D02*
Y1362914D01*
X1827560D01*
X1865472Y1330748D02*
Y1299252D01*
X1772442Y1362914D02*
X1764566D01*
Y1477086D01*
X1772442D01*
X1746968Y1474370D02*
Y1501930D01*
X1764566Y1400316D02*
X1835434D01*
X1660316Y1449174D02*
Y1327126D01*
X1593386D01*
Y1449174D01*
X1660316D01*
X1515748Y1544528D02*
X1484252D01*
Y1485472D02*
X1515748D01*
X1486378Y1403898D02*
Y1372402D01*
X1427322D02*
Y1403898D01*
X1265748Y1615527D02*
X1234252D01*
X1250883Y1649220D02*
Y1676780D01*
X1265748Y1556473D02*
X1234252D01*
X1201756Y1535339D02*
Y1523724D01*
X1296244D02*
Y1535339D01*
Y1464276D02*
Y1452661D01*
X1201756D02*
Y1464276D01*
X1225866Y1381850D02*
X1257362D01*
Y1322796D02*
X1225866D01*
X1120747Y1460472D02*
X1089251D01*
X1120747Y1519528D02*
X1089251D01*
X1400000Y1955000D02*
Y2015000D01*
X1200000D01*
Y1985000D01*
Y1955000D01*
X1400000D01*
Y1985000D02*
X1409000D01*
X1200000D02*
X1191000D01*
X1744300Y1992320D02*
X1992066Y2240086D01*
X2239832Y1992320D01*
X1992066Y1744554D01*
X1744300Y1992320D01*
X2167985Y1779743D02*
X2190257Y1802015D01*
X2209743Y1737985D02*
X2232015Y1760257D01*
X2480000Y1855000D02*
Y1885000D01*
Y1915000D01*
X2680000D01*
Y1855000D01*
X2480000D01*
Y1885000D02*
X2471000D01*
X2480000Y1990000D02*
Y2050000D01*
X2680000D01*
Y2020000D01*
X2689000D01*
X2680000D02*
Y1990000D01*
X2480000D01*
Y2020000D02*
X2471000D01*
X2680000Y1885000D02*
X2689000D01*
X2800000Y1750000D02*
X2900000D01*
Y1450000D01*
X2800000D01*
Y1750000D01*
X2900000Y1950000D02*
Y2150000D01*
X2800000D01*
Y1950000D01*
X2900000D01*
Y2250000D02*
Y2450000D01*
X2800000D01*
Y2250000D01*
X2900000D01*
X2877074Y2547926D02*
X2870710Y2554290D01*
X2849498Y2533076D02*
X2891924Y2575502D01*
X2750502Y2716924D01*
X2729290Y2695710D01*
X2708076Y2674498D01*
X2849498Y2533076D01*
X2729290Y2695710D02*
X2722926Y2702074D01*
X2614898Y2708284D02*
Y2637418D01*
X2418048D01*
Y2708284D01*
X2614898D01*
X2415748Y2496378D02*
X2384252D01*
Y2437322D02*
X2415748D01*
X2389528Y2581102D02*
Y2612598D01*
X2330472D02*
Y2581102D01*
X2212678Y2515748D02*
Y2484252D01*
X2153622Y2515748D02*
Y2484252D01*
X2013582Y2446574D02*
Y2643426D01*
X1942716D01*
Y2446574D01*
X2013582D01*
X2052402Y2680472D02*
X2083898D01*
Y2739528D02*
X2052402D01*
X1913898D02*
X1882402D01*
Y2680472D02*
X1913898D01*
X1750000Y2800000D02*
X2250000D01*
Y2900000D01*
X1750000D01*
Y2800000D01*
X1615748Y2830472D02*
X1584252D01*
Y2889528D02*
X1615748D01*
X1610472Y2745748D02*
Y2714252D01*
X1669528D02*
Y2745748D01*
X1581952Y2689434D02*
Y2618566D01*
X1385102D01*
Y2689434D01*
X1581952D01*
X1610472Y2575748D02*
Y2544252D01*
X1669528D02*
Y2575748D01*
X2330472Y2751102D02*
Y2782598D01*
X2389528D02*
Y2751102D01*
X2195000Y1285000D02*
X2395000D01*
Y1225000D01*
X2195000D01*
Y1255000D01*
Y1285000D01*
Y1255000D02*
X2186000D01*
X2100000Y1200000D02*
X2700000D01*
Y1100000D01*
X2100000D01*
Y1200000D01*
X2395000Y1255000D02*
X2404000D01*
D45*
X1223000Y1347499D02*
X1225499Y1345000D01*
X1230498D01*
X1232997Y1347499D01*
X1237995Y1345000D02*
X1242994D01*
X1240494D01*
Y1359995D01*
X1237995Y1357496D01*
X1232997D02*
X1230498Y1359995D01*
X1225499D01*
X1223000Y1357496D01*
Y1347499D01*
X1250491D02*
X1252990Y1345000D01*
X1257989D01*
X1260488Y1347499D01*
Y1357496D01*
X1257989Y1359995D01*
X1252990D01*
X1250491Y1357496D01*
Y1354997D01*
X1252990Y1352498D01*
X1260488D01*
X1124987Y1485499D02*
X1122488Y1483000D01*
X1117490D01*
X1114990Y1485499D01*
Y1495496D01*
X1117490Y1497995D01*
X1122488D01*
X1124987Y1495496D01*
Y1485499D01*
X1109992Y1483000D02*
X1099995D01*
X1109992Y1492997D01*
Y1495496D01*
X1107493Y1497995D01*
X1102494D01*
X1099995Y1495496D01*
X1094997D02*
X1092498Y1497995D01*
X1087499D01*
X1085000Y1495496D01*
Y1485499D01*
X1087499Y1483000D01*
X1092498D01*
X1094997Y1485499D01*
X1230000Y1579000D02*
Y1593995D01*
X1237498D01*
X1239997Y1591496D01*
Y1586498D01*
X1237498Y1583998D01*
X1230000D01*
X1234998D02*
X1239997Y1579000D01*
X1244995D02*
X1254992Y1588997D01*
Y1591496D01*
X1252493Y1593995D01*
X1247494D01*
X1244995Y1591496D01*
Y1579000D02*
X1254992D01*
X1267488D02*
Y1593995D01*
X1259990Y1586498D01*
X1269987D01*
X1310000Y1533994D02*
Y1517332D01*
X1313332Y1514000D01*
X1319997D01*
X1323329Y1517332D01*
Y1533994D01*
X1336658Y1530661D02*
X1329994Y1523997D01*
Y1517332D01*
X1333326Y1514000D01*
X1339990D01*
X1343322Y1517332D01*
Y1520665D01*
X1339990Y1523997D01*
X1329994D01*
X1336658Y1530661D02*
X1343322Y1533994D01*
X1480000Y1522995D02*
X1487498D01*
X1489997Y1520496D01*
Y1515498D01*
X1487498Y1512998D01*
X1480000D01*
Y1508000D02*
Y1522995D01*
X1484998Y1512998D02*
X1489997Y1508000D01*
X1494995D02*
X1504992Y1517997D01*
Y1520496D01*
X1502493Y1522995D01*
X1497494D01*
X1494995Y1520496D01*
Y1508000D02*
X1504992D01*
X1509990Y1510499D02*
X1512490Y1508000D01*
X1517488D01*
X1519987Y1510499D01*
Y1512998D01*
X1517488Y1515498D01*
X1509990D01*
Y1510499D01*
Y1515498D02*
X1514989Y1520496D01*
X1519987Y1522995D01*
X1471490Y1395995D02*
X1468990Y1393496D01*
X1463992D02*
X1461493Y1395995D01*
X1456494D01*
X1453995Y1393496D01*
X1448997D02*
X1446498Y1395995D01*
X1441499D01*
X1439000Y1393496D01*
Y1383499D01*
X1441499Y1381000D01*
X1446498D01*
X1448997Y1383499D01*
X1453995Y1381000D02*
X1463992Y1390997D01*
Y1393496D01*
X1471490Y1395995D02*
Y1381000D01*
X1473989D01*
X1468990D01*
X1463992D02*
X1453995D01*
X1572499Y1277995D02*
X1570000Y1275496D01*
Y1265499D01*
X1572499Y1263000D01*
X1577498D01*
X1579997Y1265499D01*
X1584995Y1263000D02*
X1594992Y1272997D01*
Y1275496D01*
X1592493Y1277995D01*
X1587494D01*
X1584995Y1275496D01*
X1579997D02*
X1577498Y1277995D01*
X1572499D01*
X1584995Y1263000D02*
X1594992D01*
X1599990D02*
X1609987Y1272997D01*
Y1275496D01*
X1607488Y1277995D01*
X1602490D01*
X1599990Y1275496D01*
Y1263000D02*
X1609987D01*
X1758000Y1154994D02*
X1767997D01*
X1771329Y1151661D01*
Y1144997D01*
X1767997Y1141665D01*
X1758000D01*
Y1135000D02*
Y1154994D01*
X1764665Y1141665D02*
X1771329Y1135000D01*
X1781326D02*
X1777994Y1138332D01*
X1781326Y1135000D02*
X1787990D01*
X1791322Y1138332D01*
Y1141665D01*
X1787990Y1144997D01*
X1784658D01*
X1787990D01*
X1791322Y1148329D01*
Y1151661D01*
X1787990Y1154994D01*
X1781326D01*
X1777994Y1151661D01*
X1797987D02*
X1801319Y1154994D01*
X1807984D01*
X1811316Y1151661D01*
Y1148329D01*
X1807984Y1144997D01*
X1804651D01*
X1807984D01*
X1811316Y1141665D01*
Y1138332D01*
X1807984Y1135000D01*
X1801319D01*
X1797987Y1138332D01*
X1774990Y1263000D02*
Y1265499D01*
X1784987Y1275496D01*
Y1277995D01*
X1774990D01*
X1769992Y1275496D02*
X1767493Y1277995D01*
X1762494D01*
X1759995Y1275496D01*
X1754997D02*
Y1270498D01*
X1752498Y1267998D01*
X1745000D01*
Y1263000D02*
Y1277995D01*
X1752498D01*
X1754997Y1275496D01*
X1749998Y1267998D02*
X1754997Y1263000D01*
X1759995D02*
X1769992Y1272997D01*
Y1275496D01*
Y1263000D02*
X1759995D01*
X1875000Y1310499D02*
X1877499Y1308000D01*
X1882498D01*
X1884997Y1310499D01*
X1889995Y1308000D02*
X1899992Y1317997D01*
Y1320496D01*
X1897493Y1322995D01*
X1892494D01*
X1889995Y1320496D01*
X1884997D02*
X1882498Y1322995D01*
X1877499D01*
X1875000Y1320496D01*
Y1310499D01*
X1889995Y1308000D02*
X1899992D01*
X1907490D02*
X1904990Y1310499D01*
X1907490Y1308000D02*
X1912488D01*
X1914987Y1310499D01*
Y1312998D01*
X1912488Y1315498D01*
X1909989D01*
X1912488D01*
X1914987Y1317997D01*
Y1320496D01*
X1912488Y1322995D01*
X1907490D01*
X1904990Y1320496D01*
X1907490Y1478000D02*
X1904990Y1480499D01*
Y1485498D02*
X1909989Y1487997D01*
X1912488D01*
X1914987Y1485498D01*
Y1480499D01*
X1912488Y1478000D01*
X1907490D01*
X1904990Y1485498D02*
Y1492995D01*
X1914987D01*
X1899992Y1490496D02*
X1897493Y1492995D01*
X1892494D01*
X1889995Y1490496D01*
X1884997D02*
Y1485498D01*
X1882498Y1482998D01*
X1875000D01*
Y1478000D02*
Y1492995D01*
X1882498D01*
X1884997Y1490496D01*
X1879998Y1482998D02*
X1884997Y1478000D01*
X1889995D02*
X1899992Y1487997D01*
Y1490496D01*
Y1478000D02*
X1889995D01*
X1812990Y1429994D02*
X1802994Y1419997D01*
X1816322D01*
X1812990Y1429994D02*
Y1410000D01*
X1792997D02*
X1796329Y1413332D01*
Y1426661D01*
X1792997Y1429994D01*
X1783000D01*
Y1410000D01*
X1792997D01*
X1638992Y1398995D02*
Y1396496D01*
X1628995Y1386499D01*
Y1384000D01*
X1621498D02*
X1623997Y1386499D01*
Y1398995D01*
X1628995D02*
X1638992D01*
X1614000D02*
Y1386499D01*
X1616499Y1384000D01*
X1621498D01*
X2180000Y1763000D02*
Y1777995D01*
X2187498D01*
X2189997Y1775496D01*
Y1770498D01*
X2187498Y1767998D01*
X2180000D01*
X2184998D02*
X2189997Y1763000D01*
X2194995D02*
X2204992Y1772997D01*
Y1775496D01*
X2202493Y1777995D01*
X2197494D01*
X2194995Y1775496D01*
Y1763000D02*
X2204992D01*
X2212490D02*
X2209990Y1765499D01*
X2212490Y1763000D02*
X2217488D01*
X2219987Y1765499D01*
Y1767998D01*
X2217488Y1770498D01*
X2214989D01*
X2217488D01*
X2219987Y1772997D01*
Y1775496D01*
X2217488Y1777995D01*
X2212490D01*
X2209990Y1775496D01*
X2557000Y1875000D02*
Y1894994D01*
X2566997D01*
X2570329Y1891661D01*
Y1884997D01*
X2566997Y1881665D01*
X2557000D01*
X2563664D02*
X2570329Y1875000D01*
X2580326D02*
X2576994Y1878332D01*
X2580326Y1875000D02*
X2586990D01*
X2590323Y1878332D01*
Y1881665D01*
X2586990Y1884997D01*
X2583658D01*
X2586990D01*
X2590323Y1888329D01*
Y1891661D01*
X2586990Y1894994D01*
X2580326D01*
X2576994Y1891661D01*
X2596987D02*
X2600319Y1894994D01*
Y1875000D01*
X2603651D01*
X2596987D01*
X2602984Y2010000D02*
X2596319D01*
X2592987Y2013332D01*
Y2016665D01*
X2596319Y2019997D01*
X2592987Y2023329D01*
Y2026661D01*
X2596319Y2029994D01*
X2602984D01*
X2606316Y2026661D01*
Y2023329D01*
X2602984Y2019997D01*
X2606316Y2016665D01*
Y2013332D01*
X2602984Y2010000D01*
Y2019997D02*
X2596319D01*
X2586323Y2023329D02*
Y2026661D01*
X2582990Y2029994D01*
X2576326D01*
X2572994Y2026661D01*
X2566329D02*
Y2019997D01*
X2562997Y2016665D01*
X2553000D01*
Y2010000D02*
Y2029994D01*
X2562997D01*
X2566329Y2026661D01*
X2559664Y2016665D02*
X2566329Y2010000D01*
X2572994D02*
X2586323Y2023329D01*
Y2010000D02*
X2572994D01*
X2419987Y2459000D02*
X2409990D01*
X2419987Y2468997D01*
Y2471496D01*
X2417488Y2473995D01*
X2412490D01*
X2409990Y2471496D01*
X2404992D02*
X2402493Y2473995D01*
X2397494D01*
X2394995Y2471496D01*
X2389997D02*
Y2466498D01*
X2387498Y2463998D01*
X2380000D01*
Y2459000D02*
Y2473995D01*
X2387498D01*
X2389997Y2471496D01*
X2384998Y2463998D02*
X2389997Y2459000D01*
X2394995D02*
X2404992Y2468997D01*
Y2471496D01*
Y2459000D02*
X2394995D01*
X2379987Y2591499D02*
X2377488Y2589000D01*
X2372490D01*
X2369990Y2591499D01*
Y2601496D01*
X2372490Y2603995D01*
X2377488D01*
X2379987Y2601496D01*
Y2591499D01*
X2364992Y2589000D02*
X2354995D01*
X2364992Y2598997D01*
Y2601496D01*
X2362493Y2603995D01*
X2357494D01*
X2354995Y2601496D01*
X2349997D02*
Y2596498D01*
X2347498Y2593998D01*
X2340000D01*
Y2589000D02*
Y2603995D01*
X2347498D01*
X2349997Y2601496D01*
X2344998Y2593998D02*
X2349997Y2589000D01*
X2495000Y2666332D02*
X2498332Y2663000D01*
X2504997D01*
X2508329Y2666332D01*
Y2682994D01*
X2514994Y2672997D02*
X2528323D01*
X2524990Y2682994D02*
X2514994Y2672997D01*
X2524990Y2682994D02*
Y2663000D01*
X2495000Y2666332D02*
Y2682994D01*
X2377989Y2759000D02*
X2375490D01*
Y2773995D01*
X2372990Y2771496D01*
X2367992D02*
X2365493Y2773995D01*
X2360494D01*
X2357995Y2771496D01*
X2352997D02*
Y2766498D01*
X2350498Y2763998D01*
X2343000D01*
Y2759000D02*
Y2773995D01*
X2350498D01*
X2352997Y2771496D01*
X2347998Y2763998D02*
X2352997Y2759000D01*
X2357995D02*
X2367992Y2768997D01*
Y2771496D01*
Y2759000D02*
X2357995D01*
X2372990D02*
X2377989D01*
X2201488Y2505496D02*
Y2502997D01*
X2198989Y2500498D01*
X2201488Y2497998D01*
Y2495499D01*
X2198989Y2493000D01*
X2193990D01*
X2191491Y2495499D01*
Y2497998D01*
X2193990Y2500498D01*
X2191491Y2502997D01*
Y2505496D01*
X2193990Y2507995D01*
X2198989D01*
X2201488Y2505496D01*
X2198989Y2500498D02*
X2193990D01*
X2173997D02*
X2171498Y2497998D01*
X2164000D01*
Y2493000D02*
Y2507995D01*
X2171498D01*
X2173997Y2505496D01*
Y2500498D01*
X2178995Y2505496D02*
X2181494Y2507995D01*
Y2493000D01*
X2183994D01*
X2178995D01*
X2173997D02*
X2168998Y2497998D01*
X1990990Y2540000D02*
X1984326D01*
X1980994Y2543332D01*
X1974329D02*
Y2559994D01*
X1980994Y2556661D02*
X1984326Y2559994D01*
X1990990D01*
X1994322Y2556661D01*
Y2553329D01*
X1990990Y2549997D01*
X1987658D01*
X1990990D01*
X1994322Y2546664D01*
Y2543332D01*
X1990990Y2540000D01*
X1970997D02*
X1974329Y2543332D01*
X1970997Y2540000D02*
X1964332D01*
X1961000Y2543332D01*
Y2559994D01*
X2049000Y2703000D02*
Y2717995D01*
X2056498D01*
X2058997Y2715496D01*
Y2710498D01*
X2056498Y2707998D01*
X2049000D01*
X2053998D02*
X2058997Y2703000D01*
X2063995D02*
X2068994D01*
X2066494D01*
Y2717995D01*
X2063995Y2715496D01*
X2076491D02*
Y2712997D01*
X2078990Y2710498D01*
X2086488D01*
Y2705499D02*
Y2715496D01*
X2083989Y2717995D01*
X2078990D01*
X2076491Y2715496D01*
Y2705499D02*
X2078990Y2703000D01*
X2083989D01*
X2086488Y2705499D01*
X1916488Y2715496D02*
X1906491Y2705499D01*
Y2703000D01*
Y2717995D02*
X1916488D01*
Y2715496D01*
X1896494Y2717995D02*
X1893995Y2715496D01*
X1888997D02*
Y2710498D01*
X1886498Y2707998D01*
X1879000D01*
Y2703000D02*
Y2717995D01*
X1886498D01*
X1888997Y2715496D01*
X1896494Y2717995D02*
Y2703000D01*
X1898994D01*
X1893995D01*
X1888997D02*
X1883998Y2707998D01*
X1619987Y2853000D02*
X1609990D01*
X1619987Y2862997D01*
Y2865496D01*
X1617488Y2867995D01*
X1612490D01*
X1609990Y2865496D01*
X1604992D02*
X1602493Y2867995D01*
X1597494D01*
X1594995Y2865496D01*
X1589997D02*
Y2860498D01*
X1587498Y2857998D01*
X1580000D01*
Y2853000D02*
Y2867995D01*
X1587498D01*
X1589997Y2865496D01*
X1584998Y2857998D02*
X1589997Y2853000D01*
X1594995D02*
X1604992Y2862997D01*
Y2865496D01*
Y2853000D02*
X1594995D01*
X1620000Y2737995D02*
X1627498D01*
X1629997Y2735496D01*
Y2730498D01*
X1627498Y2727998D01*
X1620000D01*
Y2723000D02*
Y2737995D01*
X1624998Y2727998D02*
X1629997Y2723000D01*
X1634995D02*
X1644992Y2732997D01*
Y2735496D01*
X1642493Y2737995D01*
X1637494D01*
X1634995Y2735496D01*
Y2723000D02*
X1644992D01*
X1652490D02*
X1649990Y2725499D01*
Y2735496D01*
X1652490Y2737995D01*
X1657488D01*
X1659987Y2735496D01*
Y2725499D01*
X1657488Y2723000D01*
X1652490D01*
X1500990Y2663994D02*
X1490994Y2653997D01*
X1504322D01*
X1500990Y2663994D02*
Y2644000D01*
X1623000Y2567995D02*
X1630498D01*
X1632997Y2565496D01*
Y2560498D01*
X1630498Y2557998D01*
X1623000D01*
Y2553000D02*
Y2567995D01*
X1627998Y2557998D02*
X1632997Y2553000D01*
X1637995D02*
X1647992Y2562997D01*
Y2565496D01*
X1645493Y2567995D01*
X1640494D01*
X1637995Y2565496D01*
Y2553000D02*
X1647992D01*
X1652990D02*
X1657989D01*
X1655490D01*
Y2567995D01*
X1652990Y2565496D01*
X1480997Y2644000D02*
X1484329Y2647332D01*
Y2663994D01*
X1471000D02*
Y2647332D01*
X1474332Y2644000D01*
X1480997D01*
X1296326Y1994994D02*
X1302990D01*
X1306322Y1991661D01*
Y1988329D01*
X1302990Y1984997D01*
X1299658D01*
X1302990D01*
X1306322Y1981665D01*
Y1978332D01*
X1302990Y1975000D01*
X1296326D01*
X1292994Y1978332D01*
X1286329Y1975000D02*
X1279665Y1981665D01*
X1282997D02*
X1273000D01*
Y1975000D02*
Y1994994D01*
X1282997D01*
X1286329Y1991661D01*
Y1984997D01*
X1282997Y1981665D01*
X1292994Y1991661D02*
X1296326Y1994994D01*
X1312987Y1991661D02*
X1316319Y1994994D01*
X1322984D01*
X1326316Y1991661D01*
Y1988329D01*
X1312987Y1975000D01*
X1326316D01*
X2268000Y1264994D02*
X2277997D01*
X2281329Y1261661D01*
Y1254997D01*
X2277997Y1251665D01*
X2268000D01*
Y1245000D02*
Y1264994D01*
X2274664Y1251665D02*
X2281329Y1245000D01*
X2287994D02*
X2301323Y1258329D01*
Y1261661D01*
X2297990Y1264994D01*
X2291326D01*
X2287994Y1261661D01*
Y1245000D02*
X2301323D01*
X2307987Y1248332D02*
X2311319Y1245000D01*
X2317984D01*
X2321316Y1248332D01*
Y1261661D01*
X2317984Y1264994D01*
X2311319D01*
X2307987Y1261661D01*
Y1258329D01*
X2311319Y1254997D01*
X2321316D01*
X2845000Y2660000D02*
Y2679994D01*
X2854997D01*
X2858329Y2676661D01*
Y2669997D01*
X2854997Y2666664D01*
X2845000D01*
X2851664D02*
X2858329Y2660000D01*
X2868326D02*
X2864994Y2663332D01*
X2868326Y2660000D02*
X2874990D01*
X2878323Y2663332D01*
Y2666664D01*
X2874990Y2669997D01*
X2871658D01*
X2874990D01*
X2878323Y2673329D01*
Y2676661D01*
X2874990Y2679994D01*
X2868326D01*
X2864994Y2676661D01*
X2884987D02*
X2888319Y2679994D01*
X2894984D01*
X2898316Y2676661D01*
Y2663332D01*
X2894984Y2660000D01*
X2888319D01*
X2884987Y2663332D01*
Y2676661D01*
D46*
X1951632Y1952000D02*
Y1991987D01*
X1978290Y2018645D01*
Y2031974D01*
X1924974D02*
Y2018645D01*
X1951632Y1991987D01*
X2004948Y1965329D02*
X2018277Y1952000D01*
X2044935D01*
X2058264Y1965329D01*
Y2018645D01*
X2044935Y2031974D01*
X2018277D01*
X2004948Y2018645D01*
Y1965329D01*
X2084922Y1952000D02*
Y2031974D01*
X2138238Y1952000D01*
Y2031974D01*
X1898316D02*
Y1952000D01*
X1845000D02*
Y2031974D01*
X1871658Y2005316D01*
X1898316Y2031974D01*
D47*
X1360000Y1006000D02*
Y1065981D01*
X1389990D01*
X1399987Y1055984D01*
Y1035990D01*
X1389990Y1025994D01*
X1360000D01*
X1419981Y1006000D02*
X1439974D01*
X1429977D01*
Y1065981D01*
X1419981Y1055984D01*
X2350000Y1065981D02*
X2379990D01*
X2389987Y1055984D01*
Y1035990D01*
X2379990Y1025994D01*
X2350000D01*
Y1006000D02*
Y1065981D01*
X2429974Y1055984D02*
X2409981Y1035990D01*
Y1015997D01*
X2419977Y1006000D01*
X2439971D01*
X2449968Y1015997D01*
Y1025994D01*
X2439971Y1035990D01*
X2409981D01*
X2429974Y1055984D02*
X2449968Y1065981D01*
X2934019Y1550000D02*
Y1579990D01*
X2944016Y1589987D01*
X2964010D01*
X2974006Y1579990D01*
Y1550000D01*
X2994000D02*
X2934019D01*
Y1639971D02*
X2964010Y1609981D01*
Y1649968D01*
X2994000Y1639971D02*
X2934019D01*
Y2000000D02*
Y2029990D01*
X2944016Y2039987D01*
X2964010D01*
X2974006Y2029990D01*
Y2000000D01*
X2994000D02*
X2934019D01*
X2944016Y2059981D02*
X2934019Y2069977D01*
Y2089971D01*
X2944016Y2099968D01*
X2954013D01*
X2964010Y2089971D01*
Y2079974D01*
Y2089971D01*
X2974006Y2099968D01*
X2984003D01*
X2994000Y2089971D01*
Y2069977D01*
X2984003Y2059981D01*
X2974006Y2300000D02*
Y2329990D01*
X2964010Y2339987D01*
X2944016D01*
X2934019Y2329990D01*
Y2300000D01*
X2994000D01*
Y2359981D02*
X2954013Y2399968D01*
X2944016D01*
X2934019Y2389971D01*
Y2369977D01*
X2944016Y2359981D01*
X2994000D02*
Y2399968D01*
X2050000Y2934019D02*
X2020010D01*
X2010013Y2944016D01*
Y2964010D01*
X2020010Y2974006D01*
X2050000D01*
Y2994000D02*
Y2934019D01*
X1990019D02*
Y2964010D01*
X1970026Y2954013D01*
X1960029D01*
X1950032Y2964010D01*
Y2984003D01*
X1960029Y2994000D01*
X1980023D01*
X1990019Y2984003D01*
Y2934019D02*
X1950032D01*
%TF.MD5,0d8397bd88fb74433cac9e41ab9a5a8f*%
M02*
