G04 Layer_Color=8421504*
%FSLAX26Y26*%
%MOIN*%
%TF.FileFunction,Paste,Top*%
%TF.Part,Single*%
G01*
G75*
%TA.AperFunction,SMDPad,CuDef*%
%ADD10O,0.086614X0.023622*%
%ADD11R,0.043307X0.066929*%
%ADD12O,0.062992X0.021654*%
%ADD13O,0.021654X0.062992*%
%ADD14R,0.062992X0.033465*%
%ADD15R,0.033465X0.062992*%
%ADD16R,0.031496X0.035433*%
%ADD17R,0.035433X0.031496*%
%ADD18R,0.066929X0.043307*%
D10*
X2322834Y2630000D02*
D03*
Y2580000D02*
D03*
Y2530000D02*
D03*
Y2480000D02*
D03*
Y2430000D02*
D03*
Y2380000D02*
D03*
Y2330000D02*
D03*
X2511812Y2630000D02*
D03*
Y2580000D02*
D03*
Y2530000D02*
D03*
Y2480000D02*
D03*
Y2430000D02*
D03*
Y2380000D02*
D03*
Y2330000D02*
D03*
X1481024Y2603070D02*
D03*
Y2553070D02*
D03*
Y2503070D02*
D03*
Y2453070D02*
D03*
Y2403070D02*
D03*
Y2353070D02*
D03*
Y2303070D02*
D03*
X1670000Y2603070D02*
D03*
Y2553070D02*
D03*
Y2503070D02*
D03*
Y2453070D02*
D03*
Y2403070D02*
D03*
Y2353070D02*
D03*
Y2303070D02*
D03*
X1539844Y1763070D02*
D03*
Y1713070D02*
D03*
Y1663070D02*
D03*
Y1613070D02*
D03*
Y1563070D02*
D03*
Y1513070D02*
D03*
Y1463070D02*
D03*
X1728820Y1763070D02*
D03*
Y1713070D02*
D03*
Y1663070D02*
D03*
Y1613070D02*
D03*
Y1563070D02*
D03*
Y1513070D02*
D03*
Y1463070D02*
D03*
D11*
X2274408Y1390000D02*
D03*
X2380708D02*
D03*
X2365590Y2720000D02*
D03*
X2471890D02*
D03*
X2211890Y2540000D02*
D03*
X2105590D02*
D03*
X2331890Y2240000D02*
D03*
X2225590D02*
D03*
X2651890Y2720000D02*
D03*
X2545590D02*
D03*
X2724960Y2620000D02*
D03*
X2618662D02*
D03*
X1523780Y2693070D02*
D03*
X1630080D02*
D03*
X1810080D02*
D03*
X1703780D02*
D03*
X1983780Y2213070D02*
D03*
X2090080D02*
D03*
X1883150Y2593070D02*
D03*
X1776850D02*
D03*
X1490080Y2213070D02*
D03*
X1383780D02*
D03*
X1370080Y2513070D02*
D03*
X1263780D02*
D03*
X1962600Y1813070D02*
D03*
X2068900D02*
D03*
X1822600Y1693070D02*
D03*
X1928900D02*
D03*
X1649450Y1393070D02*
D03*
X1755750D02*
D03*
X1521340Y1893070D02*
D03*
X1415040D02*
D03*
X1955750Y1413070D02*
D03*
X1849450D02*
D03*
X1528900Y1373070D02*
D03*
X1422600D02*
D03*
D12*
X2730708Y1847480D02*
D03*
Y1815984D02*
D03*
Y1784488D02*
D03*
Y1752992D02*
D03*
Y1721496D02*
D03*
Y1690000D02*
D03*
Y1658504D02*
D03*
Y1627008D02*
D03*
Y1595512D02*
D03*
Y1564016D02*
D03*
Y1532520D02*
D03*
X2285826D02*
D03*
Y1564016D02*
D03*
Y1595512D02*
D03*
Y1627008D02*
D03*
Y1658504D02*
D03*
Y1690000D02*
D03*
Y1721496D02*
D03*
Y1752992D02*
D03*
Y1784488D02*
D03*
Y1815984D02*
D03*
Y1847480D02*
D03*
D13*
X2665748Y1467560D02*
D03*
X2634250D02*
D03*
X2602754D02*
D03*
X2571258D02*
D03*
X2539762D02*
D03*
X2508266D02*
D03*
X2476770D02*
D03*
X2445274D02*
D03*
X2413778D02*
D03*
X2382282D02*
D03*
X2350786D02*
D03*
Y1912442D02*
D03*
X2382282D02*
D03*
X2413778D02*
D03*
X2445274D02*
D03*
X2476770D02*
D03*
X2508266D02*
D03*
X2539762D02*
D03*
X2571258D02*
D03*
X2602754D02*
D03*
X2634250D02*
D03*
X2665748D02*
D03*
D14*
X1896930Y2233070D02*
D03*
X1763072D02*
D03*
X2738740Y2260000D02*
D03*
X2604882D02*
D03*
X1861892Y1513070D02*
D03*
X1995750D02*
D03*
D15*
X1850000Y2480000D02*
D03*
Y2346140D02*
D03*
X2691812Y2506930D02*
D03*
Y2373070D02*
D03*
D16*
X2226300Y2460000D02*
D03*
X2171182D02*
D03*
Y2400000D02*
D03*
X2226300D02*
D03*
X2542676Y1390000D02*
D03*
X2487558D02*
D03*
X2498740Y2220000D02*
D03*
X2443622D02*
D03*
X1384488Y2433070D02*
D03*
X1329370D02*
D03*
X1656930Y2193070D02*
D03*
X1601812D02*
D03*
X1329370Y2373070D02*
D03*
X1384488D02*
D03*
X1268190Y1833070D02*
D03*
X1323308D02*
D03*
X1848190Y1773070D02*
D03*
X1903308D02*
D03*
X1788190Y1853070D02*
D03*
X1843308D02*
D03*
X1608190D02*
D03*
X1663308D02*
D03*
X1388190Y1633070D02*
D03*
X1443308D02*
D03*
X1970158Y1613070D02*
D03*
X1915040D02*
D03*
X1815042D02*
D03*
X1870160D02*
D03*
X2475118Y1975000D02*
D03*
X2420000D02*
D03*
D17*
X2165590Y2272440D02*
D03*
Y2327560D02*
D03*
X2598740Y2492440D02*
D03*
Y2547560D02*
D03*
X1323780Y2245512D02*
D03*
Y2300630D02*
D03*
X1756930Y2465512D02*
D03*
Y2520630D02*
D03*
D18*
X2840000Y2253150D02*
D03*
Y2146850D02*
D03*
X1988740Y2466850D02*
D03*
Y2573150D02*
D03*
X1196930Y2259920D02*
D03*
Y2366220D02*
D03*
X1428820Y1459920D02*
D03*
Y1566220D02*
D03*
X2055750Y1706220D02*
D03*
Y1599920D02*
D03*
X1415750Y1699920D02*
D03*
Y1806220D02*
D03*
%TF.MD5,ebe949506f114a948ac5f0fe700ac769*%
M02*
