G04 Layer_Color=128*
%FSLAX26Y26*%
%MOIN*%
%TF.FileFunction,Paste,Bot*%
%TF.Part,Single*%
G01*
G75*
%TA.AperFunction,SMDPad,CuDef*%
%ADD10O,0.086614X0.023622*%
%ADD11R,0.043307X0.066929*%
%ADD14R,0.062992X0.033465*%
%ADD16R,0.031496X0.035433*%
%ADD17R,0.035433X0.031496*%
%ADD18R,0.066929X0.043307*%
%ADD27O,0.066929X0.017716*%
%ADD28O,0.023622X0.086614*%
D10*
X1762048Y2175000D02*
D03*
Y2125000D02*
D03*
Y2075000D02*
D03*
Y2025000D02*
D03*
X1573070Y2175000D02*
D03*
Y2125000D02*
D03*
Y2075000D02*
D03*
Y2025000D02*
D03*
X2122048Y2595000D02*
D03*
Y2545000D02*
D03*
Y2495000D02*
D03*
Y2445000D02*
D03*
X1933070Y2595000D02*
D03*
Y2545000D02*
D03*
Y2495000D02*
D03*
Y2445000D02*
D03*
X2543346Y1960000D02*
D03*
Y1910000D02*
D03*
Y1860000D02*
D03*
Y1810000D02*
D03*
Y1760000D02*
D03*
Y1710000D02*
D03*
Y1660000D02*
D03*
X2354370Y1960000D02*
D03*
Y1910000D02*
D03*
Y1860000D02*
D03*
Y1810000D02*
D03*
Y1760000D02*
D03*
Y1710000D02*
D03*
Y1660000D02*
D03*
D11*
X1660708Y2280000D02*
D03*
X1554410D02*
D03*
X1734410D02*
D03*
X1840708D02*
D03*
X2020708Y2700000D02*
D03*
X1914410D02*
D03*
X2094410D02*
D03*
X2200708D02*
D03*
X1386850Y1426300D02*
D03*
X1493150D02*
D03*
X1913150Y1260000D02*
D03*
X1806850D02*
D03*
X1833150Y1620000D02*
D03*
X1726850D02*
D03*
Y1520000D02*
D03*
X1833150D02*
D03*
X2573150Y2840000D02*
D03*
X2466850D02*
D03*
X1426850Y2480000D02*
D03*
X1533150D02*
D03*
X2440590Y1570000D02*
D03*
X2334292D02*
D03*
X2220590Y1590000D02*
D03*
X2114292D02*
D03*
X2554292Y2090000D02*
D03*
X2660590D02*
D03*
X2554292Y1570000D02*
D03*
X2660590D02*
D03*
X2260590Y1890000D02*
D03*
X2154292D02*
D03*
X2120590Y2010000D02*
D03*
X2014292D02*
D03*
D14*
X1373070Y1333150D02*
D03*
X1506930D02*
D03*
X2221300Y1710000D02*
D03*
X2087442D02*
D03*
D16*
X1495118Y2180000D02*
D03*
X1440000D02*
D03*
X1855118Y2600000D02*
D03*
X1800000D02*
D03*
X1387560Y1686300D02*
D03*
X1332440D02*
D03*
X2004882Y1280000D02*
D03*
X2060000D02*
D03*
X2555708Y2465512D02*
D03*
X2500590D02*
D03*
X1452442Y2860000D02*
D03*
X1507560D02*
D03*
X2695000Y1830000D02*
D03*
X2639882D02*
D03*
X2219882Y1810000D02*
D03*
X2275000D02*
D03*
X2295000Y2050000D02*
D03*
X2239882D02*
D03*
X2167442Y1810000D02*
D03*
X2112322D02*
D03*
X2475000Y2050000D02*
D03*
X2419882D02*
D03*
X2235000Y1970000D02*
D03*
X2179882D02*
D03*
D17*
X1367558Y2012442D02*
D03*
Y2067560D02*
D03*
X1847558Y2012442D02*
D03*
Y2067560D02*
D03*
X1727558Y2432442D02*
D03*
Y2487560D02*
D03*
X2207558Y2432442D02*
D03*
Y2487560D02*
D03*
X2660000Y2612442D02*
D03*
Y2667560D02*
D03*
X1340000Y2707560D02*
D03*
Y2652440D02*
D03*
X2755000Y2017560D02*
D03*
Y1962442D02*
D03*
D18*
X1447560Y2113150D02*
D03*
Y2006850D02*
D03*
X1807560Y2533150D02*
D03*
Y2426850D02*
D03*
X2120000Y1473150D02*
D03*
Y1366850D02*
D03*
X1260000Y1699448D02*
D03*
Y1593150D02*
D03*
Y1513150D02*
D03*
Y1406850D02*
D03*
X1600000Y1340000D02*
D03*
Y1446300D02*
D03*
X1640000Y1513150D02*
D03*
Y1619448D02*
D03*
X2360000Y2686850D02*
D03*
Y2793150D02*
D03*
Y2613150D02*
D03*
Y2506850D02*
D03*
X1640000Y2633150D02*
D03*
Y2526850D02*
D03*
Y2706850D02*
D03*
Y2813150D02*
D03*
X2654370Y1656850D02*
D03*
Y1763150D02*
D03*
X2667442Y1896850D02*
D03*
Y2003150D02*
D03*
X2027442Y1903150D02*
D03*
Y1796850D02*
D03*
D27*
X1837322Y1381614D02*
D03*
Y1407204D02*
D03*
Y1432796D02*
D03*
Y1458386D02*
D03*
X2002678Y1381614D02*
D03*
Y1407204D02*
D03*
Y1432796D02*
D03*
Y1458386D02*
D03*
X1545354Y1596220D02*
D03*
Y1570630D02*
D03*
Y1545040D02*
D03*
Y1519448D02*
D03*
X1380000Y1596220D02*
D03*
Y1570630D02*
D03*
Y1545040D02*
D03*
Y1519448D02*
D03*
D28*
X2595000Y2545512D02*
D03*
X2545000D02*
D03*
X2495000D02*
D03*
X2445000D02*
D03*
X2595000Y2734488D02*
D03*
X2545000D02*
D03*
X2495000D02*
D03*
X2445000D02*
D03*
X1405000Y2774488D02*
D03*
X1455000D02*
D03*
X1505000D02*
D03*
X1555000D02*
D03*
X1405000Y2585512D02*
D03*
X1455000D02*
D03*
X1505000D02*
D03*
X1555000D02*
D03*
%TF.MD5,762c34f41e08c6d05ec629a8826c0b79*%
M02*
