G04 Layer_Physical_Order=3*
G04 Layer_Color=128*
%FSLAX26Y26*%
%MOIN*%
%TF.FileFunction,Copper,L3,Inr,Plane*%
%TF.Part,Single*%
G01*
G75*
%TA.AperFunction,NonConductor*%
%ADD32C,0.040000*%
%TA.AperFunction,ViaPad*%
%ADD33C,0.123000*%
%TA.AperFunction,ComponentPad*%
%ADD34C,0.075433*%
%ADD35C,0.073465*%
%TA.AperFunction,ViaPad*%
%ADD36C,0.057000*%
%ADD37C,0.047874*%
D32*
X960000Y960000D02*
X960000Y3040000D01*
X3040000Y3040000D01*
X3040000Y960000D01*
X960000D01*
D33*
X1100000Y1100000D02*
D03*
X2900000D02*
D03*
Y2900000D02*
D03*
X1100000D02*
D03*
D34*
X1350000Y1150000D02*
D03*
X1450000D02*
D03*
X2150000D02*
D03*
X2250000D02*
D03*
X2350000D02*
D03*
X2450000D02*
D03*
X2550000D02*
D03*
X2650000D02*
D03*
X2850000Y1500000D02*
D03*
Y1600000D02*
D03*
Y1700000D02*
D03*
Y2000000D02*
D03*
Y2100000D02*
D03*
Y2300000D02*
D03*
Y2400000D02*
D03*
X2200000Y2850000D02*
D03*
X2100000D02*
D03*
X2000000D02*
D03*
X1900000D02*
D03*
X1800000D02*
D03*
D35*
X1635000Y1145000D02*
D03*
X1935000D02*
D03*
X2145000Y1255000D02*
D03*
X2445000D02*
D03*
X2730000Y1885000D02*
D03*
Y2020000D02*
D03*
X2430000D02*
D03*
Y1885000D02*
D03*
X2906066Y2518934D02*
D03*
X2693934Y2731066D02*
D03*
X1450000Y1985000D02*
D03*
X1150000D02*
D03*
D36*
X1244000Y1421000D02*
D03*
X1353000Y1543000D02*
D03*
X1287000Y1567000D02*
D03*
X1169000Y1432000D02*
D03*
X1700000Y1525000D02*
D03*
X1805000Y1750000D02*
D03*
X2041302Y1984000D02*
D03*
X2025000Y2095000D02*
D03*
X2220000Y2195000D02*
D03*
X2336000Y2187000D02*
D03*
X2486000Y1966000D02*
D03*
X2220000Y1610000D02*
D03*
X2165000Y1730000D02*
D03*
X2595000Y1585000D02*
D03*
X2712622Y1335000D02*
D03*
X2798000Y1198000D02*
D03*
X2715000Y2125000D02*
D03*
X2505000Y2450000D02*
D03*
X2241000Y2707000D02*
D03*
X2235000Y2640000D02*
D03*
X2185000Y2730000D02*
D03*
X2160000Y2620000D02*
D03*
X2235000Y2485000D02*
D03*
X2495000Y2860000D02*
D03*
X2711000Y2857000D02*
D03*
X1705000Y2390000D02*
D03*
X1775000Y2200000D02*
D03*
X1542000Y2499000D02*
D03*
X1505000Y2465000D02*
D03*
X1589000Y2592000D02*
D03*
D37*
X1233252Y1494000D02*
D03*
X1264748D02*
D03*
%TF.MD5,ca1fb6e20b916eccbc1d0a8591af8c2b*%
M02*
