G04 Layer_Physical_Order=2*
G04 Layer_Color=32768*
%FSLAX26Y26*%
%MOIN*%
%TF.FileFunction,Copper,L2,Inr,Plane*%
%TF.Part,Single*%
G01*
G75*
%TA.AperFunction,NonConductor*%
%ADD32C,0.040000*%
%TA.AperFunction,ComponentPad*%
%ADD33C,0.073465*%
%ADD34C,0.075433*%
%TA.AperFunction,ViaPad*%
%ADD35C,0.123000*%
%ADD36C,0.057000*%
%ADD37C,0.047874*%
D32*
X960000Y960000D02*
X3040000D01*
X3040000Y3040000D01*
X960000Y3040000D01*
X960000Y960000D01*
D33*
X1635000Y1145000D02*
D03*
X1935000D02*
D03*
X2145000Y1255000D02*
D03*
X2445000D02*
D03*
X2730000Y1885000D02*
D03*
Y2020000D02*
D03*
X2430000D02*
D03*
Y1885000D02*
D03*
X2906066Y2518934D02*
D03*
X2693934Y2731066D02*
D03*
X1450000Y1985000D02*
D03*
X1150000D02*
D03*
D34*
X1350000Y1150000D02*
D03*
X1450000D02*
D03*
X2150000D02*
D03*
X2350000D02*
D03*
X2450000D02*
D03*
X2550000D02*
D03*
X2650000D02*
D03*
X2850000Y1500000D02*
D03*
Y1600000D02*
D03*
Y1700000D02*
D03*
Y2000000D02*
D03*
Y2100000D02*
D03*
Y2300000D02*
D03*
Y2400000D02*
D03*
X2200000Y2850000D02*
D03*
X2100000D02*
D03*
X2000000D02*
D03*
X1900000D02*
D03*
X1800000D02*
D03*
D35*
X1100000Y1100000D02*
D03*
X2900000D02*
D03*
Y2900000D02*
D03*
X1100000D02*
D03*
D36*
X1330000Y1485000D02*
D03*
X1640000Y1265000D02*
D03*
X1710000Y1270000D02*
D03*
X1895000Y1260000D02*
D03*
X2595000Y1585000D02*
D03*
X2712622Y1335000D02*
D03*
X2798000Y1198000D02*
D03*
X2486000Y1966000D02*
D03*
X2715000Y2125000D02*
D03*
X2578000Y2260000D02*
D03*
X2585000Y2490000D02*
D03*
X2505000Y2450000D02*
D03*
X2235000Y2640000D02*
D03*
X2185000Y2730000D02*
D03*
X1820000Y2405000D02*
D03*
X1775000Y2200000D02*
D03*
X2041302Y1984000D02*
D03*
X2025000Y2095000D02*
D03*
X1589000Y2592000D02*
D03*
X1354000Y2742000D02*
D03*
X1415000Y2870000D02*
D03*
X1325000Y2350000D02*
D03*
D37*
X1233252Y1494000D02*
D03*
X1264748D02*
D03*
%TF.MD5,52daf669c379b41912f3f70a095d87b9*%
M02*
