G04 Layer_Color=16711935*
%FSLAX26Y26*%
%MOIN*%
%TF.FileFunction,Soldermask,Bot*%
%TF.Part,Single*%
G01*
G75*
%TA.AperFunction,SMDPad,CuDef*%
%ADD42R,0.051307X0.074929*%
%ADD43R,0.074929X0.051307*%
%ADD44R,0.041465X0.070992*%
%ADD46O,0.094614X0.031622*%
%ADD48R,0.051307X0.063118*%
%TA.AperFunction,ComponentPad*%
%ADD55C,0.063118*%
%ADD56C,0.067055*%
%ADD57R,0.067055X0.067055*%
%ADD58R,0.067055X0.067055*%
%TA.AperFunction,ViaPad*%
%ADD59C,0.108000*%
%ADD60C,0.033000*%
%ADD61C,0.030512*%
%TA.AperFunction,SMDPad,CuDef*%
%ADD62R,0.070992X0.041465*%
%ADD63R,0.063118X0.051307*%
D42*
X1331300Y1570000D02*
D03*
X1241772Y1655000D02*
D03*
X1225000Y1570000D02*
D03*
X1135472Y1655000D02*
D03*
X1696850Y1300000D02*
D03*
X1700472Y1430000D02*
D03*
X1803150Y1300000D02*
D03*
X1806772Y1430000D02*
D03*
X1811300Y1600000D02*
D03*
X1705000D02*
D03*
X2120000Y1525000D02*
D03*
X2226300D02*
D03*
X2225772Y1698000D02*
D03*
X2119472D02*
D03*
X2419472Y1353000D02*
D03*
X2525772D02*
D03*
X2695772Y1688000D02*
D03*
X2589472D02*
D03*
X2524662Y2219000D02*
D03*
X2418362D02*
D03*
X2225190Y2391000D02*
D03*
X2118890D02*
D03*
X2224662Y2564000D02*
D03*
X2118362D02*
D03*
X1810190Y2466000D02*
D03*
X1703890D02*
D03*
X1699362Y2296000D02*
D03*
X1700740Y2206000D02*
D03*
X1807040D02*
D03*
X1805662Y2296000D02*
D03*
X1330190Y2436000D02*
D03*
X1240662Y2521000D02*
D03*
X1223890Y2436000D02*
D03*
X1134362Y2521000D02*
D03*
X2597850Y2558000D02*
D03*
X2704150D02*
D03*
D43*
X1318150Y1641850D02*
D03*
Y1748150D02*
D03*
X1888150Y1501850D02*
D03*
X1997622Y1431150D02*
D03*
Y1324850D02*
D03*
X2089472D02*
D03*
Y1431150D02*
D03*
X1991000Y1683850D02*
D03*
Y1790150D02*
D03*
X1888150Y1608150D02*
D03*
X2088362Y2190850D02*
D03*
Y2297150D02*
D03*
X1996512D02*
D03*
Y2190850D02*
D03*
X1887040Y2367850D02*
D03*
Y2474150D02*
D03*
X2008890Y2547850D02*
D03*
Y2654150D02*
D03*
X2598362Y2215850D02*
D03*
Y2322150D02*
D03*
X2724000Y2137850D02*
D03*
Y2244150D02*
D03*
X2599472Y1456150D02*
D03*
Y1349850D02*
D03*
X2712622Y1269850D02*
D03*
Y1376150D02*
D03*
X1317040Y2614150D02*
D03*
Y2507850D02*
D03*
D44*
X1053150Y1523070D02*
D03*
Y1656930D02*
D03*
X1052040Y2389070D02*
D03*
Y2522930D02*
D03*
X2707622Y1456072D02*
D03*
Y1589930D02*
D03*
X2720000Y2321070D02*
D03*
Y2454930D02*
D03*
D46*
X1422134Y1379000D02*
D03*
Y1429000D02*
D03*
Y1479000D02*
D03*
Y1529000D02*
D03*
Y1579000D02*
D03*
Y1629000D02*
D03*
Y1679000D02*
D03*
X1611110Y1479000D02*
D03*
Y1429000D02*
D03*
Y1379000D02*
D03*
Y1529000D02*
D03*
Y1579000D02*
D03*
Y1629000D02*
D03*
Y1679000D02*
D03*
X1610000Y2245000D02*
D03*
Y2295000D02*
D03*
Y2345000D02*
D03*
Y2395000D02*
D03*
Y2445000D02*
D03*
Y2495000D02*
D03*
Y2545000D02*
D03*
X1421024D02*
D03*
Y2495000D02*
D03*
Y2445000D02*
D03*
Y2395000D02*
D03*
Y2345000D02*
D03*
Y2295000D02*
D03*
Y2245000D02*
D03*
X2313662Y1480000D02*
D03*
Y1430000D02*
D03*
Y1530000D02*
D03*
Y1580000D02*
D03*
Y1630000D02*
D03*
Y1680000D02*
D03*
Y1730000D02*
D03*
X2502638Y1580000D02*
D03*
Y1530000D02*
D03*
Y1480000D02*
D03*
Y1430000D02*
D03*
Y1630000D02*
D03*
Y1680000D02*
D03*
Y1730000D02*
D03*
X2501528Y2296000D02*
D03*
Y2346000D02*
D03*
Y2396000D02*
D03*
Y2446000D02*
D03*
Y2496000D02*
D03*
Y2546000D02*
D03*
Y2596000D02*
D03*
X2312552D02*
D03*
Y2546000D02*
D03*
Y2496000D02*
D03*
Y2446000D02*
D03*
Y2396000D02*
D03*
Y2346000D02*
D03*
Y2296000D02*
D03*
D48*
X1327678Y1485000D02*
D03*
X1268622D02*
D03*
X1181528Y1486000D02*
D03*
X1122472D02*
D03*
X1703622Y1525000D02*
D03*
X1762678D02*
D03*
X1833622Y1680000D02*
D03*
X1892678D02*
D03*
X1994944Y1523000D02*
D03*
X2054000D02*
D03*
X2168622Y1430000D02*
D03*
X2227678D02*
D03*
X2219528Y1610000D02*
D03*
X2160472D02*
D03*
X2089528D02*
D03*
X2030472D02*
D03*
X1762678Y1680000D02*
D03*
X1703622D02*
D03*
X2226568Y2296000D02*
D03*
X2167512D02*
D03*
X2052890Y2389000D02*
D03*
X2160472Y2475000D02*
D03*
X2219528D02*
D03*
X2084528D02*
D03*
X2025472D02*
D03*
X1993834Y2389000D02*
D03*
X1891566Y2546000D02*
D03*
X1832512D02*
D03*
X1761566D02*
D03*
X1702512D02*
D03*
Y2391000D02*
D03*
X1761568D02*
D03*
X1326566Y2351000D02*
D03*
X1267512D02*
D03*
X1191566D02*
D03*
X1132512D02*
D03*
X2535472Y1275000D02*
D03*
X2594528D02*
D03*
X2593418Y2141000D02*
D03*
X2534362D02*
D03*
D55*
X1635000Y1145000D02*
D03*
X1935000D02*
D03*
X2145000Y1255000D02*
D03*
X2445000D02*
D03*
X2730000Y1885000D02*
D03*
Y2020000D02*
D03*
X2430000D02*
D03*
Y1885000D02*
D03*
X2924066Y2558934D02*
D03*
X2711934Y2771066D02*
D03*
X1450000Y1985000D02*
D03*
X1150000D02*
D03*
D56*
X1450000Y1150000D02*
D03*
X2250000D02*
D03*
X2350000D02*
D03*
X2450000D02*
D03*
X2550000D02*
D03*
X2650000D02*
D03*
X2850000Y1600000D02*
D03*
Y1700000D02*
D03*
Y2100000D02*
D03*
Y2400000D02*
D03*
X2100000Y2850000D02*
D03*
X2000000D02*
D03*
X1900000D02*
D03*
X1800000D02*
D03*
D57*
X2850000Y1500000D02*
D03*
Y2000000D02*
D03*
Y2300000D02*
D03*
D58*
X1350000Y1150000D02*
D03*
X2150000D02*
D03*
X2200000Y2850000D02*
D03*
D59*
X1100000Y1100000D02*
D03*
X2900000D02*
D03*
Y2900000D02*
D03*
X1100000D02*
D03*
D60*
X1347000Y1390000D02*
D03*
X1490000Y1285000D02*
D03*
X1726000Y1100000D02*
D03*
X1829000Y1186000D02*
D03*
X1770000Y1375000D02*
D03*
X1950000Y1579000D02*
D03*
X1975000Y1632000D02*
D03*
X1815000Y1545000D02*
D03*
X1648000Y1710000D02*
D03*
X1747000Y1830000D02*
D03*
X1565000Y1923000D02*
D03*
X1552000Y2125000D02*
D03*
X1534000Y2266000D02*
D03*
X1505332Y2360000D02*
D03*
X1665000Y2413000D02*
D03*
X1458528Y2666528D02*
D03*
X1478000Y2322000D02*
D03*
X1986000Y2376000D02*
D03*
X1980000Y2445000D02*
D03*
X2188000Y2370000D02*
D03*
X2056000Y2137000D02*
D03*
X2062000Y1962000D02*
D03*
X2169000Y1665000D02*
D03*
X2372000Y1472000D02*
D03*
X2424000Y1490000D02*
D03*
X2439000Y1412000D02*
D03*
X2499000Y1580000D02*
D03*
X2308000Y1779000D02*
D03*
X2580000Y1951000D02*
D03*
X2520000Y2030000D02*
D03*
X2724000Y2134000D02*
D03*
X2500000Y2346000D02*
D03*
X2349000Y2252000D02*
D03*
X2504000Y2693000D02*
D03*
X2495472Y2918000D02*
D03*
X2204000Y2680000D02*
D03*
X2173000Y2733000D02*
D03*
X2750000Y1765000D02*
D03*
X2776000Y1641000D02*
D03*
X2740000Y1490000D02*
D03*
X1492000Y1529000D02*
D03*
X1067000Y1590000D02*
D03*
D61*
X1229316Y1494000D02*
D03*
X1268686D02*
D03*
D62*
X1330078Y1390000D02*
D03*
X1196220D02*
D03*
X1328968Y2256000D02*
D03*
X1195110D02*
D03*
D63*
X1901000Y1350472D02*
D03*
Y1409528D02*
D03*
X2594472Y1523472D02*
D03*
Y1582528D02*
D03*
X1911512Y2214472D02*
D03*
Y2273528D02*
D03*
X2593362Y2389472D02*
D03*
Y2448528D02*
D03*
%TF.MD5,0840d9b205f267709cb380149b877b49*%
M02*
