G04 Layer_Color=8421504*
%FSLAX26Y26*%
%MOIN*%
%TF.FileFunction,Paste,Top*%
%TF.Part,Single*%
G01*
G75*
%TA.AperFunction,SMDPad,CuDef*%
%ADD10R,0.031496X0.035433*%
%ADD11R,0.043307X0.066929*%
%ADD12R,0.066929X0.043307*%
%ADD13O,0.086614X0.023622*%
%ADD14R,0.035433X0.031496*%
%ADD15R,0.033465X0.062992*%
%ADD16O,0.066929X0.017716*%
D10*
X2692441Y2060000D02*
D03*
X2747559D02*
D03*
X2692441Y1480000D02*
D03*
X2747559D02*
D03*
X1692441D02*
D03*
X1747559D02*
D03*
X1692441Y2060000D02*
D03*
X1747559D02*
D03*
X2227559Y2300000D02*
D03*
X2172441D02*
D03*
X2892441Y2540000D02*
D03*
X2947559D02*
D03*
X2272441Y1700000D02*
D03*
X2327559D02*
D03*
X2192441Y1860000D02*
D03*
X2247559D02*
D03*
X2272441Y1760000D02*
D03*
X2327559D02*
D03*
X2392441Y1920000D02*
D03*
X2447559D02*
D03*
X1227559Y2300000D02*
D03*
X1172441D02*
D03*
X1492441Y2660000D02*
D03*
X1547559D02*
D03*
X1272441Y1700000D02*
D03*
X1327559D02*
D03*
X1192441Y1860000D02*
D03*
X1247559D02*
D03*
X1272441Y1760000D02*
D03*
X1327559D02*
D03*
X1392441Y1920000D02*
D03*
X1447559D02*
D03*
X1527559Y2800000D02*
D03*
X1472441D02*
D03*
X1072441Y2720000D02*
D03*
X1127559D02*
D03*
X1752441Y2700000D02*
D03*
X1807559D02*
D03*
X2935118Y2820000D02*
D03*
X2880000D02*
D03*
D11*
X2233150Y2380000D02*
D03*
X2126850D02*
D03*
X2313150Y1580000D02*
D03*
X2206850D02*
D03*
X2813150Y2400000D02*
D03*
X2706850D02*
D03*
X2566850Y1960000D02*
D03*
X2673150D02*
D03*
X2706850Y2540000D02*
D03*
X2813150D02*
D03*
X2213150Y2160000D02*
D03*
X2106850D02*
D03*
X1313150Y1580000D02*
D03*
X1206850D02*
D03*
X1566850Y1960000D02*
D03*
X1673150D02*
D03*
X1426850Y2540000D02*
D03*
X1533150D02*
D03*
X1813150Y2400000D02*
D03*
X1706850D02*
D03*
X1213150Y2160000D02*
D03*
X1106850D02*
D03*
X1233150Y2380000D02*
D03*
X1126850D02*
D03*
X2193150Y2060000D02*
D03*
X2086850D02*
D03*
X2346850Y2540000D02*
D03*
X2453150D02*
D03*
X1193150Y2060000D02*
D03*
X1086850D02*
D03*
X1546850Y1300000D02*
D03*
X1653150D02*
D03*
X1386850Y1060000D02*
D03*
X1493150D02*
D03*
X1473150Y1300000D02*
D03*
X1366850D02*
D03*
X2853150Y1080000D02*
D03*
X2746850D02*
D03*
X2733150Y1340000D02*
D03*
X2626850D02*
D03*
D12*
X2620000Y2386850D02*
D03*
Y2493150D02*
D03*
X2900000Y1986850D02*
D03*
Y2093150D02*
D03*
X2180000Y1793150D02*
D03*
Y1686850D02*
D03*
X2700000Y1586850D02*
D03*
Y1693150D02*
D03*
X2900000Y1573150D02*
D03*
Y1466850D02*
D03*
X1180000Y1793150D02*
D03*
Y1686850D02*
D03*
X1700000Y1586850D02*
D03*
Y1693150D02*
D03*
X1900000Y1573150D02*
D03*
Y1466850D02*
D03*
Y1986850D02*
D03*
Y2093150D02*
D03*
X1620000Y2386850D02*
D03*
Y2493150D02*
D03*
X1240000Y2613150D02*
D03*
Y2506850D02*
D03*
X1140000Y1066850D02*
D03*
Y1173150D02*
D03*
Y1226850D02*
D03*
Y1333150D02*
D03*
X1580000Y1193150D02*
D03*
Y1086850D02*
D03*
X2480000Y1146850D02*
D03*
Y1253150D02*
D03*
X2240000Y2726850D02*
D03*
Y2833150D02*
D03*
X2340000Y2726850D02*
D03*
Y2833150D02*
D03*
X1780000Y2766850D02*
D03*
Y2873150D02*
D03*
X1360000Y3053150D02*
D03*
Y2946850D02*
D03*
X1240000Y3053150D02*
D03*
Y2946850D02*
D03*
X2760000Y3053150D02*
D03*
Y2946850D02*
D03*
X2660000Y3053150D02*
D03*
Y2946850D02*
D03*
D13*
X2325512Y2450000D02*
D03*
Y2400000D02*
D03*
Y2350000D02*
D03*
Y2300000D02*
D03*
Y2250000D02*
D03*
Y2200000D02*
D03*
Y2150000D02*
D03*
X2514488Y2450000D02*
D03*
Y2400000D02*
D03*
Y2350000D02*
D03*
Y2300000D02*
D03*
Y2250000D02*
D03*
Y2200000D02*
D03*
Y2150000D02*
D03*
X2411024Y1850000D02*
D03*
Y1800000D02*
D03*
Y1750000D02*
D03*
Y1700000D02*
D03*
Y1650000D02*
D03*
Y1600000D02*
D03*
Y1550000D02*
D03*
X2600000Y1850000D02*
D03*
Y1800000D02*
D03*
Y1750000D02*
D03*
Y1700000D02*
D03*
Y1650000D02*
D03*
Y1600000D02*
D03*
Y1550000D02*
D03*
X1394488Y2705000D02*
D03*
Y2755000D02*
D03*
Y2805000D02*
D03*
Y2855000D02*
D03*
X1205512Y2705000D02*
D03*
Y2755000D02*
D03*
Y2805000D02*
D03*
Y2855000D02*
D03*
X2080000Y2700000D02*
D03*
Y2750000D02*
D03*
Y2800000D02*
D03*
Y2850000D02*
D03*
X1891024Y2700000D02*
D03*
Y2750000D02*
D03*
Y2800000D02*
D03*
Y2850000D02*
D03*
X2800000Y2710000D02*
D03*
Y2760000D02*
D03*
Y2810000D02*
D03*
Y2860000D02*
D03*
X2611024Y2710000D02*
D03*
Y2760000D02*
D03*
Y2810000D02*
D03*
Y2860000D02*
D03*
X1325512Y2450000D02*
D03*
Y2400000D02*
D03*
Y2350000D02*
D03*
Y2300000D02*
D03*
Y2250000D02*
D03*
Y2200000D02*
D03*
Y2150000D02*
D03*
X1514488Y2450000D02*
D03*
Y2400000D02*
D03*
Y2350000D02*
D03*
Y2300000D02*
D03*
Y2250000D02*
D03*
Y2200000D02*
D03*
Y2150000D02*
D03*
X1411024Y1850000D02*
D03*
Y1800000D02*
D03*
Y1750000D02*
D03*
Y1700000D02*
D03*
Y1650000D02*
D03*
Y1600000D02*
D03*
Y1550000D02*
D03*
X1600000Y1850000D02*
D03*
Y1800000D02*
D03*
Y1750000D02*
D03*
Y1700000D02*
D03*
Y1650000D02*
D03*
Y1600000D02*
D03*
Y1550000D02*
D03*
D14*
X2920000Y2707559D02*
D03*
Y2652441D02*
D03*
X2600000Y2327559D02*
D03*
Y2272441D02*
D03*
X1600000Y2747559D02*
D03*
Y2692441D02*
D03*
Y2327559D02*
D03*
Y2272441D02*
D03*
X2160000Y2832441D02*
D03*
Y2887559D02*
D03*
X2520000Y2767559D02*
D03*
Y2712441D02*
D03*
X2840000Y1224882D02*
D03*
Y1280000D02*
D03*
X1480000Y1187559D02*
D03*
Y1132441D02*
D03*
X2160000Y2767559D02*
D03*
Y2712441D02*
D03*
D15*
X2700000Y2286929D02*
D03*
Y2153071D02*
D03*
X2800000Y2286929D02*
D03*
Y2153071D02*
D03*
Y1593071D02*
D03*
Y1726929D02*
D03*
X1700000Y2286929D02*
D03*
Y2153071D02*
D03*
X1800000Y2286929D02*
D03*
Y2153071D02*
D03*
Y1593071D02*
D03*
Y1726929D02*
D03*
X1720000Y1113071D02*
D03*
Y1246929D02*
D03*
D16*
X2577323Y1238386D02*
D03*
Y1212795D02*
D03*
Y1187205D02*
D03*
Y1161614D02*
D03*
X2742677Y1238386D02*
D03*
Y1212795D02*
D03*
Y1187205D02*
D03*
Y1161614D02*
D03*
X1237323Y1218386D02*
D03*
Y1192795D02*
D03*
Y1167205D02*
D03*
Y1141614D02*
D03*
X1402677Y1218386D02*
D03*
Y1192795D02*
D03*
Y1167205D02*
D03*
Y1141614D02*
D03*
%TF.MD5,367ec60f314a49221f9ad9e3306bc5c6*%
M02*
