G04 Layer_Physical_Order=2*
G04 Layer_Color=16711680*
%FSLAX26Y26*%
%MOIN*%
%TF.FileFunction,Copper,L2,Bot,Signal*%
%TF.Part,Single*%
G01*
G75*
%TA.AperFunction,SMDPad,CuDef*%
%ADD11R,0.043307X0.066929*%
%ADD12R,0.066929X0.043307*%
%ADD13R,0.033465X0.062992*%
%ADD15O,0.086614X0.023622*%
%ADD17R,0.043307X0.055118*%
%TA.AperFunction,Conductor*%
%ADD24C,0.010000*%
%TA.AperFunction,ComponentPad*%
%ADD25C,0.055118*%
%ADD26C,0.059055*%
%ADD27R,0.059055X0.059055*%
%ADD28R,0.059055X0.059055*%
%TA.AperFunction,ViaPad*%
%ADD29C,0.100000*%
%ADD30C,0.025000*%
%ADD31C,0.019685*%
%TA.AperFunction,SMDPad,CuDef*%
%ADD32R,0.062992X0.033465*%
%TA.AperFunction,ConnectorPad*%
%ADD33R,0.033465X0.062992*%
%TA.AperFunction,SMDPad,CuDef*%
%ADD34R,0.055118X0.043307*%
G36*
X3000000Y1000000D02*
X1000000D01*
Y3000000D01*
X3000000D01*
Y1000000D01*
D02*
G37*
%LPC*%
G36*
X2884528Y2034527D02*
X2815472D01*
Y1965473D01*
X2884528D01*
Y2034527D01*
D02*
G37*
G36*
X1730275Y1712559D02*
X1676968D01*
Y1690196D01*
X1657000D01*
X1655538Y1689905D01*
X1654726Y1691120D01*
X1649165Y1694836D01*
X1642606Y1696140D01*
X1579614D01*
X1573055Y1694836D01*
X1567494Y1691120D01*
X1563778Y1685559D01*
X1562474Y1679000D01*
X1563778Y1672441D01*
X1567494Y1666880D01*
X1573055Y1663164D01*
X1579614Y1661860D01*
X1600914D01*
Y1646140D01*
X1579614D01*
X1573055Y1644836D01*
X1567494Y1641120D01*
X1566208Y1639196D01*
X1557803D01*
X1553901Y1638420D01*
X1550593Y1636210D01*
X1548383Y1632902D01*
X1547607Y1629000D01*
Y1494410D01*
X1548383Y1490508D01*
X1550593Y1487201D01*
X1551804Y1485990D01*
Y1483000D01*
X1552580Y1479098D01*
X1554790Y1475790D01*
X1558790Y1471790D01*
X1562098Y1469580D01*
X1566000Y1468804D01*
X1566208D01*
X1567494Y1466880D01*
X1573055Y1463164D01*
X1579614Y1461860D01*
X1642606D01*
X1649165Y1463164D01*
X1654726Y1466880D01*
X1656012Y1468804D01*
X1668959D01*
X1673818Y1468464D01*
X1673819Y1463804D01*
Y1440196D01*
X1656000D01*
X1655421Y1440081D01*
X1654726Y1441120D01*
X1649165Y1444836D01*
X1642606Y1446140D01*
X1579614D01*
X1573055Y1444836D01*
X1567494Y1441120D01*
X1563778Y1435559D01*
X1562474Y1429000D01*
X1563778Y1422441D01*
X1567494Y1416880D01*
X1573055Y1413164D01*
X1579614Y1411860D01*
X1642606D01*
X1649165Y1413164D01*
X1654726Y1416880D01*
X1656167Y1419036D01*
X1658902Y1419580D01*
X1659237Y1419804D01*
X1673819D01*
Y1391535D01*
X1712517D01*
X1720588Y1383465D01*
X1718517Y1378465D01*
X1675197D01*
Y1348106D01*
X1673854Y1347210D01*
X1671644Y1343902D01*
X1671201Y1341674D01*
X1652223D01*
X1645696Y1348201D01*
Y1362474D01*
X1649165Y1363164D01*
X1654726Y1366880D01*
X1658442Y1372441D01*
X1659746Y1379000D01*
X1658442Y1385559D01*
X1654726Y1391120D01*
X1649165Y1394836D01*
X1642606Y1396140D01*
X1579614D01*
X1573055Y1394836D01*
X1567494Y1391120D01*
X1566208Y1389196D01*
X1539190D01*
X1496696Y1431690D01*
Y1468500D01*
X1495920Y1472402D01*
X1493710Y1475710D01*
X1483210Y1486210D01*
X1479902Y1488420D01*
X1476000Y1489196D01*
X1467036D01*
X1465750Y1491120D01*
X1460189Y1494836D01*
X1453630Y1496140D01*
X1390638D01*
X1384079Y1494836D01*
X1378518Y1491120D01*
X1374802Y1485559D01*
X1373498Y1479000D01*
X1374802Y1472441D01*
X1378518Y1466880D01*
X1384079Y1463164D01*
X1390638Y1461860D01*
X1453630D01*
X1460189Y1463164D01*
X1465750Y1466880D01*
X1467036Y1468804D01*
X1471777D01*
X1476304Y1464277D01*
Y1427467D01*
X1477080Y1423565D01*
X1479290Y1420257D01*
X1527757Y1371790D01*
X1531065Y1369580D01*
X1534967Y1368804D01*
X1566208D01*
X1567494Y1366880D01*
X1573055Y1363164D01*
X1579614Y1361860D01*
X1600914D01*
Y1168890D01*
X1601690Y1164988D01*
X1603900Y1161680D01*
X1605857Y1159724D01*
X1603279Y1153500D01*
X1602160Y1145000D01*
X1603279Y1136500D01*
X1606560Y1128580D01*
X1611779Y1121779D01*
X1618580Y1116560D01*
X1626500Y1113279D01*
X1635000Y1112160D01*
X1643500Y1113279D01*
X1651420Y1116560D01*
X1658221Y1121779D01*
X1663440Y1128580D01*
X1666721Y1136500D01*
X1667840Y1145000D01*
X1666721Y1153500D01*
X1663440Y1161420D01*
X1658221Y1168221D01*
X1651420Y1173440D01*
X1643500Y1176721D01*
X1635000Y1177840D01*
X1626500Y1176721D01*
X1625463Y1176291D01*
X1621306Y1179069D01*
Y1336829D01*
X1625941Y1339787D01*
X1626306Y1339738D01*
X1628290Y1336768D01*
X1640790Y1324268D01*
X1644098Y1322058D01*
X1648000Y1321282D01*
X1675197D01*
Y1301535D01*
X1723804D01*
Y1184000D01*
X1724580Y1180098D01*
X1726790Y1176790D01*
X1765790Y1137790D01*
X1769098Y1135580D01*
X1773000Y1134804D01*
X1903982D01*
X1906560Y1128580D01*
X1911779Y1121779D01*
X1918580Y1116560D01*
X1926500Y1113279D01*
X1935000Y1112160D01*
X1943500Y1113279D01*
X1951420Y1116560D01*
X1958221Y1121779D01*
X1963440Y1128580D01*
X1966721Y1136500D01*
X1967840Y1145000D01*
X1966721Y1153500D01*
X1963440Y1161420D01*
X1958221Y1168221D01*
X1951420Y1173440D01*
X1943500Y1176721D01*
X1935000Y1177840D01*
X1926500Y1176721D01*
X1918580Y1173440D01*
X1911779Y1168221D01*
X1906560Y1161420D01*
X1903982Y1155196D01*
X1777223D01*
X1744196Y1188223D01*
Y1384472D01*
X1743420Y1388374D01*
X1741210Y1391682D01*
X1727126Y1405766D01*
X1727126Y1468464D01*
X1731985Y1468804D01*
X1851000D01*
X1854902Y1469580D01*
X1858210Y1471790D01*
X1861616Y1475197D01*
X1926614D01*
Y1528504D01*
X1849686D01*
Y1492105D01*
X1846777Y1489196D01*
X1733931D01*
X1730275Y1492441D01*
Y1557559D01*
X1730276Y1557559D01*
X1731654Y1561536D01*
X1731654D01*
X1731653Y1561988D01*
Y1638465D01*
X1678347D01*
Y1610196D01*
X1668000D01*
X1664098Y1609420D01*
X1660790Y1607210D01*
X1648541Y1594960D01*
X1642606Y1596140D01*
X1579614D01*
X1573055Y1594836D01*
X1572409Y1594404D01*
X1567999Y1596761D01*
Y1611239D01*
X1572409Y1613596D01*
X1573055Y1613164D01*
X1579614Y1611860D01*
X1642606D01*
X1649165Y1613164D01*
X1654726Y1616880D01*
X1658442Y1622441D01*
X1659746Y1629000D01*
X1658442Y1635559D01*
X1654726Y1641120D01*
X1649165Y1644836D01*
X1642606Y1646140D01*
X1621306D01*
Y1661860D01*
X1642606D01*
X1649165Y1663164D01*
X1654726Y1666880D01*
X1656014Y1668807D01*
X1659902Y1669580D01*
X1660237Y1669804D01*
X1676968D01*
Y1647441D01*
X1730275D01*
Y1712559D01*
D02*
G37*
G36*
X2625921Y2416126D02*
X2560803D01*
Y2399668D01*
X2554751D01*
X2551210Y2403210D01*
X2547902Y2405420D01*
X2546802Y2405639D01*
X2545144Y2408120D01*
X2539583Y2411836D01*
X2533024Y2413140D01*
X2470032D01*
X2463473Y2411836D01*
X2457912Y2408120D01*
X2454196Y2402559D01*
X2452892Y2396000D01*
X2454196Y2389441D01*
X2457912Y2383880D01*
X2463473Y2380164D01*
X2470032Y2378860D01*
X2533024D01*
X2539583Y2380164D01*
X2543080Y2382501D01*
X2543318Y2382262D01*
X2546626Y2380052D01*
X2550528Y2379276D01*
X2560803D01*
Y2362818D01*
X2583166D01*
Y2358000D01*
X2583942Y2354098D01*
X2584139Y2353803D01*
X2581466Y2348803D01*
X2559898D01*
X2559898Y2348804D01*
Y2348804D01*
X2555228Y2350027D01*
X2552046Y2353210D01*
X2548738Y2355420D01*
X2546674Y2355830D01*
X2545144Y2358120D01*
X2539583Y2361836D01*
X2533024Y2363140D01*
X2470032D01*
X2463473Y2361836D01*
X2457912Y2358120D01*
X2454196Y2352559D01*
X2452892Y2346000D01*
X2454196Y2339441D01*
X2457912Y2333880D01*
X2463473Y2330164D01*
X2470032Y2328860D01*
X2533024D01*
X2539583Y2330164D01*
X2539640Y2330202D01*
X2544640Y2327530D01*
Y2313760D01*
X2540230Y2311403D01*
X2539583Y2311836D01*
X2533024Y2313140D01*
X2470032D01*
X2463473Y2311836D01*
X2457912Y2308120D01*
X2454196Y2302559D01*
X2452892Y2296000D01*
X2454196Y2289441D01*
X2457912Y2283880D01*
X2463473Y2280164D01*
X2470032Y2278860D01*
X2482804D01*
Y2175000D01*
X2483580Y2171098D01*
X2485790Y2167790D01*
X2496790Y2156790D01*
X2500098Y2154580D01*
X2504000Y2153804D01*
X2507709D01*
Y2108441D01*
X2524166D01*
Y2062585D01*
X2491777Y2030196D01*
X2461018D01*
X2458440Y2036420D01*
X2453221Y2043221D01*
X2446420Y2048440D01*
X2438500Y2051721D01*
X2430000Y2052840D01*
X2421500Y2051721D01*
X2413580Y2048440D01*
X2406779Y2043221D01*
X2401560Y2036420D01*
X2398982Y2030196D01*
X2069500D01*
X2065598Y2029420D01*
X2062290Y2027210D01*
X2022290Y1987210D01*
X2020080Y1983902D01*
X2019304Y1980000D01*
Y1916500D01*
X2020080Y1912598D01*
X2022290Y1909290D01*
X2072725Y1858856D01*
X2072157Y1856000D01*
X2073515Y1849172D01*
X2077383Y1843383D01*
X2083172Y1839515D01*
X2090000Y1838157D01*
X2096828Y1839515D01*
X2102617Y1843383D01*
X2106485Y1849172D01*
X2107843Y1856000D01*
X2106485Y1862828D01*
X2102617Y1868617D01*
X2096828Y1872485D01*
X2090000Y1873843D01*
X2087144Y1873275D01*
X2039696Y1920723D01*
Y1975777D01*
X2073723Y2009804D01*
X2398982D01*
X2401560Y2003580D01*
X2406564Y1997058D01*
X2406255Y1995249D01*
X2405164Y1992065D01*
X2102555Y1993696D01*
X2102527Y1993690D01*
X2102500Y1993696D01*
X2072000D01*
X2068098Y1992920D01*
X2064790Y1990710D01*
X2049790Y1975710D01*
X2047580Y1972402D01*
X2046804Y1968500D01*
Y1936000D01*
X2047580Y1932098D01*
X2049790Y1928791D01*
X2169936Y1808643D01*
X2168813Y1803000D01*
X2170171Y1796172D01*
X2174039Y1790383D01*
X2179828Y1786515D01*
X2186656Y1785157D01*
X2193484Y1786515D01*
X2199273Y1790383D01*
X2203141Y1796172D01*
X2204499Y1803000D01*
X2203141Y1809828D01*
X2199273Y1815617D01*
X2193484Y1819485D01*
X2186656Y1820843D01*
X2186588Y1820829D01*
X2067204Y1940215D01*
X2067633Y1945042D01*
X2072196Y1947172D01*
X2076172Y1944515D01*
X2083000Y1943157D01*
X2089828Y1944515D01*
X2095617Y1948383D01*
X2097234Y1950804D01*
X2388314D01*
X2390385Y1945804D01*
X2360790Y1916210D01*
X2358580Y1912902D01*
X2357804Y1909000D01*
Y1855505D01*
X2352804Y1852832D01*
X2351828Y1853485D01*
X2345000Y1854843D01*
X2338172Y1853485D01*
X2332383Y1849617D01*
X2328515Y1843828D01*
X2327157Y1837000D01*
X2327725Y1834144D01*
X2252777Y1759196D01*
X2052512D01*
X2048465Y1761497D01*
X2048465Y1764196D01*
Y1814803D01*
X1971535D01*
Y1798346D01*
X1617150D01*
X1613248Y1797570D01*
X1609940Y1795360D01*
X1503777Y1689196D01*
X1467036D01*
X1465750Y1691120D01*
X1460189Y1694836D01*
X1453630Y1696140D01*
X1390638D01*
X1390061Y1696025D01*
X1386196Y1699198D01*
Y1724150D01*
X1385420Y1728052D01*
X1383210Y1731360D01*
X1359210Y1755360D01*
X1356614Y1757094D01*
Y1774803D01*
X1279686D01*
Y1721496D01*
X1356614D01*
Y1722583D01*
X1361234Y1724497D01*
X1365804Y1719927D01*
Y1679000D01*
X1366580Y1675098D01*
X1368790Y1671790D01*
X1372098Y1669580D01*
X1376000Y1668804D01*
X1377232D01*
X1378518Y1666880D01*
X1384079Y1663164D01*
X1390638Y1661860D01*
X1453630D01*
X1460189Y1663164D01*
X1465750Y1666880D01*
X1467036Y1668804D01*
X1508000D01*
X1511902Y1669580D01*
X1515210Y1671790D01*
X1621373Y1777954D01*
X1968000D01*
X1971535Y1774418D01*
X1971535Y1761497D01*
X1967488Y1759196D01*
X1911678D01*
X1907776Y1758420D01*
X1904468Y1756210D01*
X1885468Y1737210D01*
X1883258Y1733902D01*
X1882482Y1730000D01*
Y1712559D01*
X1866024D01*
Y1656969D01*
X1861024Y1654296D01*
X1860275Y1654796D01*
Y1712559D01*
X1806968D01*
Y1690196D01*
X1789332D01*
Y1712559D01*
X1736024D01*
Y1647441D01*
X1789332D01*
Y1669804D01*
X1806968D01*
Y1647441D01*
X1834440D01*
X1849686Y1632195D01*
Y1581496D01*
X1926614D01*
Y1634803D01*
X1875916D01*
X1868278Y1642441D01*
X1870349Y1647441D01*
X1919332D01*
Y1712559D01*
X1902874D01*
Y1725777D01*
X1915901Y1738804D01*
X1973175D01*
X1973846Y1738289D01*
X1975932Y1733804D01*
X1974442Y1731886D01*
X1972098Y1731420D01*
X1968790Y1729210D01*
X1944790Y1705210D01*
X1942580Y1701902D01*
X1941804Y1698000D01*
Y1462804D01*
X1942580Y1458902D01*
X1944790Y1455594D01*
X1948098Y1453384D01*
X1952000Y1452608D01*
X2030891D01*
Y1409578D01*
X2012790Y1391477D01*
X2010580Y1388169D01*
X2009804Y1384268D01*
Y1382000D01*
X2010580Y1378098D01*
X2012790Y1374790D01*
X2031077Y1356504D01*
X2030049Y1351504D01*
X1959158D01*
Y1351504D01*
X1955785Y1350107D01*
X1950210Y1355682D01*
X1946902Y1357892D01*
X1945181Y1358234D01*
Y1375126D01*
X1880063D01*
Y1321819D01*
X1945181D01*
Y1325339D01*
X1949800Y1327252D01*
X1959158Y1317895D01*
Y1298197D01*
X2007804D01*
Y1131000D01*
X2008580Y1127098D01*
X2010790Y1123790D01*
X2039790Y1094790D01*
X2043098Y1092580D01*
X2047000Y1091804D01*
X2264000D01*
X2267902Y1092580D01*
X2271210Y1094790D01*
X2302210Y1125790D01*
X2304420Y1129098D01*
X2305196Y1133000D01*
Y1259777D01*
X2346223Y1300804D01*
X2419472D01*
X2423374Y1301580D01*
X2426682Y1303790D01*
X2428892Y1307098D01*
X2429668Y1311000D01*
Y1314535D01*
X2446126D01*
Y1365234D01*
X2467695Y1386804D01*
X2499119D01*
Y1314535D01*
X2552425D01*
Y1339654D01*
X2561008D01*
Y1323197D01*
X2589276D01*
Y1318167D01*
X2587318Y1316210D01*
X2585108Y1312902D01*
X2584332Y1309000D01*
Y1307559D01*
X2567874D01*
Y1245196D01*
X2562126D01*
Y1307559D01*
X2508818D01*
Y1285196D01*
X2465000D01*
X2461098Y1284420D01*
X2460316Y1283897D01*
X2453500Y1286721D01*
X2445000Y1287840D01*
X2436500Y1286721D01*
X2428580Y1283440D01*
X2421779Y1278221D01*
X2416560Y1271420D01*
X2413279Y1263500D01*
X2412160Y1255000D01*
X2413279Y1246500D01*
X2416560Y1238580D01*
X2421779Y1231779D01*
X2428580Y1226560D01*
X2436500Y1223279D01*
X2445000Y1222160D01*
X2453500Y1223279D01*
X2461420Y1226560D01*
X2468221Y1231779D01*
X2473440Y1238580D01*
X2476721Y1246500D01*
X2477840Y1255000D01*
X2477207Y1259804D01*
X2481302Y1264804D01*
X2508818D01*
Y1242441D01*
X2525492D01*
X2526052Y1239626D01*
X2528262Y1236318D01*
X2536790Y1227790D01*
X2540098Y1225580D01*
X2544000Y1224804D01*
X2752000D01*
X2755902Y1225580D01*
X2759210Y1227790D01*
X2778300Y1246880D01*
X2780510Y1250188D01*
X2781286Y1254090D01*
Y1897910D01*
X2780510Y1901812D01*
X2778300Y1905120D01*
X2718434Y1964985D01*
X2720517Y1969974D01*
X2747754Y1969827D01*
X2790804Y1926777D01*
Y1156223D01*
X2750777Y1116196D01*
X2670877D01*
X2669179Y1121196D01*
X2674625Y1125375D01*
X2680160Y1132587D01*
X2683639Y1140986D01*
X2684825Y1150000D01*
X2683639Y1159014D01*
X2680160Y1167413D01*
X2674625Y1174625D01*
X2667413Y1180160D01*
X2659014Y1183639D01*
X2650000Y1184825D01*
X2640986Y1183639D01*
X2632587Y1180160D01*
X2625375Y1174625D01*
X2619840Y1167413D01*
X2616361Y1159014D01*
X2615175Y1150000D01*
X2616361Y1140986D01*
X2619840Y1132587D01*
X2625375Y1125375D01*
X2630821Y1121196D01*
X2629123Y1116196D01*
X2570877D01*
X2569179Y1121196D01*
X2574625Y1125375D01*
X2580160Y1132587D01*
X2583639Y1140986D01*
X2584825Y1150000D01*
X2583639Y1159014D01*
X2580160Y1167413D01*
X2574625Y1174625D01*
X2567413Y1180160D01*
X2559014Y1183639D01*
X2550000Y1184825D01*
X2540986Y1183639D01*
X2532587Y1180160D01*
X2525375Y1174625D01*
X2519840Y1167413D01*
X2516361Y1159014D01*
X2515175Y1150000D01*
X2516361Y1140986D01*
X2519840Y1132587D01*
X2525375Y1125375D01*
X2530821Y1121196D01*
X2529123Y1116196D01*
X2498223D01*
X2480649Y1133770D01*
X2483639Y1140986D01*
X2484825Y1150000D01*
X2483639Y1159014D01*
X2480160Y1167413D01*
X2474625Y1174625D01*
X2467413Y1180160D01*
X2459014Y1183639D01*
X2450000Y1184825D01*
X2440986Y1183639D01*
X2432587Y1180160D01*
X2425375Y1174625D01*
X2419840Y1167413D01*
X2416361Y1159014D01*
X2415175Y1150000D01*
X2416361Y1140986D01*
X2419840Y1132587D01*
X2425375Y1125375D01*
X2432587Y1119840D01*
X2440986Y1116361D01*
X2450000Y1115175D01*
X2459014Y1116361D01*
X2466230Y1119351D01*
X2486790Y1098790D01*
X2490098Y1096580D01*
X2494000Y1095804D01*
X2755000D01*
X2758902Y1096580D01*
X2762210Y1098790D01*
X2808210Y1144790D01*
X2810420Y1148098D01*
X2811196Y1152000D01*
Y1463726D01*
X2815472Y1465472D01*
X2816196Y1465473D01*
X2884528D01*
Y1534527D01*
X2816196D01*
X2815472Y1534528D01*
X2811196Y1536274D01*
Y1691914D01*
X2816196Y1692242D01*
X2816361Y1690986D01*
X2819840Y1682587D01*
X2825375Y1675375D01*
X2832587Y1669840D01*
X2840986Y1666361D01*
X2850000Y1665175D01*
X2859014Y1666361D01*
X2867413Y1669840D01*
X2874625Y1675375D01*
X2880160Y1682587D01*
X2883639Y1690986D01*
X2884825Y1700000D01*
X2883639Y1709014D01*
X2880160Y1717413D01*
X2874625Y1724625D01*
X2867413Y1730160D01*
X2859014Y1733639D01*
X2850000Y1734825D01*
X2840986Y1733639D01*
X2832587Y1730160D01*
X2825375Y1724625D01*
X2819840Y1717413D01*
X2816361Y1709014D01*
X2816196Y1707758D01*
X2811196Y1708086D01*
Y1931000D01*
X2810420Y1934902D01*
X2808210Y1938210D01*
X2759210Y1987210D01*
X2757571Y1988305D01*
X2755952Y1989399D01*
X2755925Y1989404D01*
X2755902Y1989420D01*
X2753977Y1989803D01*
X2752687Y1990066D01*
X2751762Y1991844D01*
X2751165Y1995201D01*
X2753221Y1996779D01*
X2758440Y2003580D01*
X2761721Y2011500D01*
X2762840Y2020000D01*
X2761721Y2028500D01*
X2758440Y2036420D01*
X2753221Y2043221D01*
X2746420Y2048440D01*
X2738500Y2051721D01*
X2730000Y2052840D01*
X2721500Y2051721D01*
X2715276Y2049143D01*
X2674196Y2090223D01*
Y2160777D01*
X2718722Y2205302D01*
X2720932Y2208610D01*
X2721708Y2212512D01*
Y2215497D01*
X2749977D01*
Y2268803D01*
X2673048D01*
Y2252346D01*
X2662223D01*
X2633360Y2281210D01*
X2630052Y2283420D01*
X2626150Y2284196D01*
X2580223D01*
X2573542Y2290877D01*
X2575456Y2295497D01*
X2636827D01*
Y2348803D01*
X2608558D01*
Y2353000D01*
X2607782Y2356902D01*
X2607169Y2357818D01*
X2609842Y2362818D01*
X2625921D01*
Y2416126D01*
D02*
G37*
G36*
X2884528Y2334528D02*
X2815472D01*
Y2265472D01*
X2884528D01*
Y2334528D01*
D02*
G37*
G36*
X1268426Y1693465D02*
X1215119D01*
Y1616535D01*
X1268426D01*
Y1638084D01*
X1273426Y1640155D01*
X1278940Y1634640D01*
X1279686Y1634142D01*
Y1615197D01*
X1356614D01*
Y1626745D01*
X1361614Y1628816D01*
X1368640Y1621790D01*
X1371948Y1619580D01*
X1375850Y1618804D01*
X1377232D01*
X1378518Y1616880D01*
X1384079Y1613164D01*
X1390638Y1611860D01*
X1453630D01*
X1460189Y1613164D01*
X1465750Y1616880D01*
X1469466Y1622441D01*
X1470770Y1629000D01*
X1469466Y1635559D01*
X1465750Y1641120D01*
X1460189Y1644836D01*
X1453630Y1646140D01*
X1390638D01*
X1384079Y1644836D01*
X1378518Y1641120D01*
X1378182Y1641087D01*
X1370210Y1649060D01*
X1366902Y1651270D01*
X1363000Y1652046D01*
X1356614D01*
Y1668504D01*
X1279686D01*
Y1668116D01*
X1274685Y1664861D01*
X1273000Y1665196D01*
X1268426D01*
Y1693465D01*
D02*
G37*
G36*
X2900000Y1155475D02*
X2885642Y1153584D01*
X2872263Y1148042D01*
X2860773Y1139226D01*
X2851958Y1127737D01*
X2846416Y1114358D01*
X2844525Y1100000D01*
X2846416Y1085642D01*
X2851958Y1072263D01*
X2860773Y1060774D01*
X2872263Y1051958D01*
X2885642Y1046416D01*
X2900000Y1044525D01*
X2914358Y1046416D01*
X2927737Y1051958D01*
X2939227Y1060774D01*
X2948042Y1072263D01*
X2953584Y1085642D01*
X2955475Y1100000D01*
X2953584Y1114358D01*
X2948042Y1127737D01*
X2939227Y1139226D01*
X2927737Y1148042D01*
X2914358Y1153584D01*
X2900000Y1155475D01*
D02*
G37*
G36*
X1100000D02*
X1085642Y1153584D01*
X1072263Y1148042D01*
X1060774Y1139226D01*
X1051958Y1127737D01*
X1046416Y1114358D01*
X1044525Y1100000D01*
X1046416Y1085642D01*
X1051958Y1072263D01*
X1060774Y1060774D01*
X1072263Y1051958D01*
X1085642Y1046416D01*
X1100000Y1044525D01*
X1114358Y1046416D01*
X1127737Y1051958D01*
X1139226Y1060774D01*
X1148042Y1072263D01*
X1153584Y1085642D01*
X1155475Y1100000D01*
X1153584Y1114358D01*
X1148042Y1127737D01*
X1139226Y1139226D01*
X1127737Y1148042D01*
X1114358Y1153584D01*
X1100000Y1155475D01*
D02*
G37*
G36*
X1160000Y1711196D02*
X1026000D01*
X1022098Y1710420D01*
X1018790Y1708210D01*
X1016580Y1704902D01*
X1015804Y1701000D01*
Y1407000D01*
X1016580Y1403098D01*
X1018790Y1399790D01*
X1080790Y1337790D01*
X1084098Y1335580D01*
X1088000Y1334804D01*
X1214000D01*
X1217902Y1335580D01*
X1221210Y1337790D01*
X1263223Y1379804D01*
X1293582D01*
Y1368268D01*
X1366574D01*
X1366574Y1368267D01*
Y1368268D01*
X1371574Y1368889D01*
X1372000Y1368804D01*
X1377232D01*
X1378518Y1366880D01*
X1384079Y1363164D01*
X1390638Y1361860D01*
X1453630D01*
X1460189Y1363164D01*
X1465750Y1366880D01*
X1469466Y1372441D01*
X1470770Y1379000D01*
X1469466Y1385559D01*
X1465750Y1391120D01*
X1460189Y1394836D01*
X1453630Y1396140D01*
X1390638D01*
X1387196Y1395456D01*
X1382196Y1399133D01*
Y1408867D01*
X1387196Y1412544D01*
X1390638Y1411860D01*
X1453630D01*
X1460189Y1413164D01*
X1465750Y1416880D01*
X1469466Y1422441D01*
X1470770Y1429000D01*
X1469466Y1435559D01*
X1465750Y1441120D01*
X1460189Y1444836D01*
X1453630Y1446140D01*
X1390638D01*
X1384079Y1444836D01*
X1379730Y1441930D01*
X1218167D01*
X1212276Y1447822D01*
X1214189Y1452441D01*
X1219332D01*
Y1516338D01*
X1260000D01*
X1263902Y1517114D01*
X1267210Y1519324D01*
X1300027Y1552142D01*
X1304647Y1550228D01*
Y1531535D01*
X1332808D01*
X1336084Y1526535D01*
X1335758Y1524896D01*
Y1517559D01*
X1301024D01*
Y1452441D01*
X1354332D01*
Y1497814D01*
X1355374Y1499374D01*
X1356150Y1503276D01*
Y1514700D01*
X1367574D01*
X1371476Y1515476D01*
X1374784Y1517686D01*
X1378518Y1516880D01*
X1384079Y1513164D01*
X1390638Y1511860D01*
X1453630D01*
X1460189Y1513164D01*
X1465750Y1516880D01*
X1467704Y1519804D01*
X1483766D01*
X1485383Y1517383D01*
X1491172Y1513515D01*
X1498000Y1512157D01*
X1500856Y1512725D01*
X1513804Y1499777D01*
Y1457234D01*
X1511383Y1455617D01*
X1507515Y1449828D01*
X1506157Y1443000D01*
X1507515Y1436172D01*
X1511383Y1430383D01*
X1517172Y1426515D01*
X1524000Y1425157D01*
X1530828Y1426515D01*
X1536617Y1430383D01*
X1540485Y1436172D01*
X1541843Y1443000D01*
X1540485Y1449828D01*
X1536617Y1455617D01*
X1534196Y1457234D01*
Y1504000D01*
X1533420Y1507902D01*
X1531210Y1511210D01*
X1515275Y1527144D01*
X1515843Y1530000D01*
X1514485Y1536828D01*
X1510617Y1542617D01*
X1504828Y1546485D01*
X1498000Y1547843D01*
X1491172Y1546485D01*
X1485383Y1542617D01*
X1483766Y1540196D01*
X1466368D01*
X1465750Y1541120D01*
X1460189Y1544836D01*
X1453630Y1546140D01*
X1390638D01*
X1384079Y1544836D01*
X1378518Y1541120D01*
X1377232Y1539196D01*
X1371678D01*
X1367776Y1538420D01*
X1364468Y1536210D01*
X1363351Y1535092D01*
X1357954D01*
Y1559804D01*
X1372000D01*
X1375902Y1560580D01*
X1379210Y1562790D01*
X1381384Y1564965D01*
X1384079Y1563164D01*
X1390638Y1561860D01*
X1453630D01*
X1460189Y1563164D01*
X1465750Y1566880D01*
X1469466Y1572441D01*
X1470770Y1579000D01*
X1469466Y1585559D01*
X1465750Y1591120D01*
X1460189Y1594836D01*
X1453630Y1596140D01*
X1390638D01*
X1384079Y1594836D01*
X1378518Y1591120D01*
X1376403Y1587956D01*
X1373790Y1586210D01*
X1367777Y1580196D01*
X1357954D01*
Y1608465D01*
X1304647D01*
Y1580196D01*
X1303466D01*
X1299564Y1579420D01*
X1296256Y1577210D01*
X1255777Y1536730D01*
X1188781D01*
X1179604Y1545907D01*
Y1691592D01*
X1178828Y1695494D01*
X1176618Y1698802D01*
X1167210Y1708210D01*
X1163902Y1710420D01*
X1160000Y1711196D01*
D02*
G37*
G36*
X1384527Y1184527D02*
X1315473D01*
Y1115473D01*
X1384527D01*
Y1184527D01*
D02*
G37*
G36*
X2100000Y2884825D02*
X2090986Y2883639D01*
X2082587Y2880160D01*
X2075375Y2874625D01*
X2069840Y2867413D01*
X2066361Y2859014D01*
X2065175Y2850000D01*
X2066361Y2840986D01*
X2069840Y2832587D01*
X2075375Y2825375D01*
X2082587Y2819840D01*
X2090986Y2816361D01*
X2100000Y2815175D01*
X2109014Y2816361D01*
X2117413Y2819840D01*
X2124625Y2825375D01*
X2130160Y2832587D01*
X2133639Y2840986D01*
X2134825Y2850000D01*
X2133639Y2859014D01*
X2130160Y2867413D01*
X2124625Y2874625D01*
X2117413Y2880160D01*
X2109014Y2883639D01*
X2100000Y2884825D01*
D02*
G37*
G36*
X1900000D02*
X1890986Y2883639D01*
X1882587Y2880160D01*
X1875375Y2874625D01*
X1869840Y2867413D01*
X1866361Y2859014D01*
X1865175Y2850000D01*
X1866361Y2840986D01*
X1869840Y2832587D01*
X1875375Y2825375D01*
X1882587Y2819840D01*
X1890986Y2816361D01*
X1900000Y2815175D01*
X1909014Y2816361D01*
X1917413Y2819840D01*
X1924625Y2825375D01*
X1930160Y2832587D01*
X1933639Y2840986D01*
X1934825Y2850000D01*
X1933639Y2859014D01*
X1930160Y2867413D01*
X1924625Y2874625D01*
X1917413Y2880160D01*
X1909014Y2883639D01*
X1900000Y2884825D01*
D02*
G37*
G36*
X1800000D02*
X1790986Y2883639D01*
X1782587Y2880160D01*
X1775375Y2874625D01*
X1769840Y2867413D01*
X1766361Y2859014D01*
X1765175Y2850000D01*
X1766361Y2840986D01*
X1769840Y2832587D01*
X1775375Y2825375D01*
X1782587Y2819840D01*
X1790986Y2816361D01*
X1800000Y2815175D01*
X1809014Y2816361D01*
X1817413Y2819840D01*
X1824625Y2825375D01*
X1830160Y2832587D01*
X1833639Y2840986D01*
X1834825Y2850000D01*
X1833639Y2859014D01*
X1830160Y2867413D01*
X1824625Y2874625D01*
X1817413Y2880160D01*
X1809014Y2883639D01*
X1800000Y2884825D01*
D02*
G37*
G36*
X2900000Y2955475D02*
X2885642Y2953584D01*
X2872263Y2948042D01*
X2860773Y2939227D01*
X2851958Y2927737D01*
X2846416Y2914358D01*
X2844525Y2900000D01*
X2846416Y2885642D01*
X2851958Y2872263D01*
X2860773Y2860773D01*
X2872263Y2851958D01*
X2885642Y2846416D01*
X2900000Y2844525D01*
X2914358Y2846416D01*
X2927737Y2851958D01*
X2939227Y2860773D01*
X2948042Y2872263D01*
X2953584Y2885642D01*
X2955475Y2900000D01*
X2953584Y2914358D01*
X2948042Y2927737D01*
X2939227Y2939227D01*
X2927737Y2948042D01*
X2914358Y2953584D01*
X2900000Y2955475D01*
D02*
G37*
G36*
X1100000D02*
X1085642Y2953584D01*
X1072263Y2948042D01*
X1060774Y2939227D01*
X1051958Y2927737D01*
X1046416Y2914358D01*
X1044525Y2900000D01*
X1046416Y2885642D01*
X1051958Y2872263D01*
X1060774Y2860773D01*
X1072263Y2851958D01*
X1085642Y2846416D01*
X1100000Y2844525D01*
X1114358Y2846416D01*
X1127737Y2851958D01*
X1139226Y2860773D01*
X1148042Y2872263D01*
X1153584Y2885642D01*
X1155475Y2900000D01*
X1153584Y2914358D01*
X1148042Y2927737D01*
X1139226Y2939227D01*
X1127737Y2948042D01*
X1114358Y2953584D01*
X1100000Y2955475D01*
D02*
G37*
G36*
X2234528Y2884528D02*
X2165472D01*
Y2815472D01*
X2234528D01*
Y2884528D01*
D02*
G37*
G36*
X1729166Y2578559D02*
X1675859D01*
Y2556196D01*
X1656000D01*
X1654441Y2555886D01*
X1653616Y2557120D01*
X1648055Y2560836D01*
X1641496Y2562140D01*
X1578504D01*
X1571945Y2560836D01*
X1566384Y2557120D01*
X1562668Y2551559D01*
X1561364Y2545000D01*
X1562668Y2538441D01*
X1566384Y2532880D01*
X1571945Y2529164D01*
X1578504Y2527860D01*
X1599804D01*
Y2512140D01*
X1578504D01*
X1571945Y2510836D01*
X1566384Y2507120D01*
X1565098Y2505196D01*
X1560000D01*
X1556098Y2504420D01*
X1552790Y2502210D01*
X1544790Y2494210D01*
X1542580Y2490902D01*
X1541804Y2487000D01*
Y2353000D01*
X1542580Y2349098D01*
X1544790Y2345790D01*
X1552790Y2337790D01*
X1556098Y2335580D01*
X1560000Y2334804D01*
X1565098D01*
X1566384Y2332880D01*
X1571945Y2329164D01*
X1578504Y2327860D01*
X1641496D01*
X1648055Y2329164D01*
X1653616Y2332880D01*
X1654902Y2334804D01*
X1667849D01*
X1672708Y2334464D01*
X1672708Y2329804D01*
Y2306196D01*
X1655000D01*
X1654323Y2306061D01*
X1653616Y2307120D01*
X1648055Y2310836D01*
X1641496Y2312140D01*
X1578504D01*
X1571945Y2310836D01*
X1566384Y2307120D01*
X1565098Y2305196D01*
X1536000D01*
X1532098Y2304420D01*
X1528790Y2302210D01*
X1508790Y2282210D01*
X1506580Y2278902D01*
X1505804Y2275000D01*
Y2055223D01*
X1464724Y2014143D01*
X1458500Y2016721D01*
X1450000Y2017840D01*
X1441500Y2016721D01*
X1433580Y2013440D01*
X1427196Y2008542D01*
X1423971Y2009174D01*
X1422196Y2009777D01*
Y2111777D01*
X1496542Y2186122D01*
X1498752Y2189430D01*
X1499528Y2193332D01*
Y2325668D01*
X1498752Y2329570D01*
X1496542Y2332878D01*
X1477210Y2352210D01*
X1473902Y2354420D01*
X1470000Y2355196D01*
X1465926D01*
X1464640Y2357120D01*
X1459079Y2360836D01*
X1452520Y2362140D01*
X1389528D01*
X1382969Y2360836D01*
X1377408Y2357120D01*
X1373692Y2351559D01*
X1372388Y2345000D01*
X1373692Y2338441D01*
X1374250Y2337606D01*
X1371893Y2333196D01*
X1353219D01*
Y2363234D01*
X1371984Y2381998D01*
X1377408Y2382880D01*
X1382969Y2379164D01*
X1389528Y2377860D01*
X1452520D01*
X1459079Y2379164D01*
X1464640Y2382880D01*
X1468356Y2388441D01*
X1469660Y2395000D01*
X1468356Y2401559D01*
X1464640Y2407120D01*
X1459079Y2410836D01*
X1452520Y2412140D01*
X1389528D01*
X1382969Y2410836D01*
X1377408Y2407120D01*
X1376122Y2405196D01*
X1370566D01*
X1366664Y2404420D01*
X1363356Y2402210D01*
X1361843Y2400697D01*
X1356843Y2402768D01*
Y2425804D01*
X1371000D01*
X1374902Y2426580D01*
X1378210Y2428790D01*
X1380340Y2430921D01*
X1382969Y2429164D01*
X1389528Y2427860D01*
X1452520D01*
X1459079Y2429164D01*
X1464640Y2432880D01*
X1468356Y2438441D01*
X1469660Y2445000D01*
X1468356Y2451559D01*
X1464640Y2457120D01*
X1459079Y2460836D01*
X1452520Y2462140D01*
X1389528D01*
X1382969Y2460836D01*
X1377408Y2457120D01*
X1375205Y2453823D01*
X1372790Y2452210D01*
X1366777Y2446196D01*
X1356843D01*
Y2474465D01*
X1303536D01*
Y2402196D01*
X1243000D01*
X1239098Y2401420D01*
X1235790Y2399210D01*
X1227790Y2391210D01*
X1225580Y2387902D01*
X1224804Y2384000D01*
Y2312000D01*
X1225580Y2308098D01*
X1227790Y2304790D01*
X1283790Y2248790D01*
X1287098Y2246580D01*
X1291000Y2245804D01*
X1292472D01*
Y2235196D01*
X1281223D01*
X1253210Y2263210D01*
X1249902Y2265420D01*
X1246000Y2266196D01*
X1231606D01*
Y2277732D01*
X1158614D01*
Y2266196D01*
X1152735D01*
X1142708Y2276223D01*
Y2318441D01*
X1159166D01*
Y2383559D01*
X1105859D01*
Y2361196D01*
X1094333D01*
X1073772Y2381757D01*
Y2425566D01*
X1030308D01*
Y2352574D01*
X1073772D01*
X1073772Y2352574D01*
Y2352574D01*
X1077262Y2349429D01*
X1082900Y2343790D01*
X1086208Y2341580D01*
X1090110Y2340804D01*
X1105859D01*
Y2318441D01*
X1122316D01*
Y2272000D01*
X1123092Y2268098D01*
X1125302Y2264790D01*
X1141302Y2248790D01*
X1144610Y2246580D01*
X1148512Y2245804D01*
X1158614D01*
Y2234268D01*
X1231606D01*
Y2245804D01*
X1241777D01*
X1269790Y2217790D01*
X1273098Y2215580D01*
X1277000Y2214804D01*
X1364000D01*
X1367902Y2215580D01*
X1371210Y2217790D01*
X1382738Y2229319D01*
X1382969Y2229164D01*
X1389528Y2227860D01*
X1452520D01*
X1457325Y2228816D01*
X1459788Y2224207D01*
X1435777Y2200196D01*
X1295734D01*
X1294117Y2202617D01*
X1288328Y2206485D01*
X1281500Y2207843D01*
X1274672Y2206485D01*
X1268883Y2202617D01*
X1265015Y2196828D01*
X1263657Y2190000D01*
X1265015Y2183172D01*
X1268883Y2177383D01*
X1274672Y2173515D01*
X1281500Y2172157D01*
X1288328Y2173515D01*
X1294117Y2177383D01*
X1295734Y2179804D01*
X1440000D01*
X1443902Y2180580D01*
X1447210Y2182790D01*
X1474517Y2210097D01*
X1479136Y2208184D01*
Y2197555D01*
X1404790Y2123210D01*
X1276777Y1995196D01*
X1181018D01*
X1178440Y2001420D01*
X1173221Y2008221D01*
X1166420Y2013440D01*
X1158500Y2016721D01*
X1150000Y2017840D01*
X1141500Y2016721D01*
X1133580Y2013440D01*
X1126779Y2008221D01*
X1121560Y2001420D01*
X1118279Y1993500D01*
X1117160Y1985000D01*
X1118279Y1976500D01*
X1121560Y1968580D01*
X1126779Y1961779D01*
X1133580Y1956560D01*
X1141500Y1953279D01*
X1150000Y1952160D01*
X1158500Y1953279D01*
X1166420Y1956560D01*
X1173221Y1961779D01*
X1178440Y1968580D01*
X1181018Y1974804D01*
X1281000D01*
X1284902Y1975580D01*
X1288210Y1977790D01*
X1397185Y2086765D01*
X1401804Y2084852D01*
Y1938000D01*
X1402024Y1936896D01*
X1401801Y1936681D01*
X1397419Y1934417D01*
X1392828Y1937485D01*
X1386000Y1938843D01*
X1379172Y1937485D01*
X1373383Y1933617D01*
X1369515Y1927828D01*
X1368157Y1921000D01*
X1369515Y1914172D01*
X1373383Y1908383D01*
X1379172Y1904515D01*
X1386000Y1903157D01*
X1392828Y1904515D01*
X1398617Y1908383D01*
X1400234Y1910804D01*
X1831000D01*
X1834902Y1911580D01*
X1838210Y1913790D01*
X2010223Y2085804D01*
X2387766D01*
X2389383Y2083383D01*
X2395172Y2079515D01*
X2402000Y2078157D01*
X2408828Y2079515D01*
X2414617Y2083383D01*
X2418485Y2089172D01*
X2419843Y2096000D01*
X2418485Y2102828D01*
X2414617Y2108617D01*
X2408828Y2112485D01*
X2402000Y2113843D01*
X2395172Y2112485D01*
X2389383Y2108617D01*
X2387766Y2106196D01*
X2006000D01*
X2002098Y2105420D01*
X1998790Y2103210D01*
X1826777Y1931196D01*
X1499148D01*
X1497235Y1935815D01*
X1538210Y1976790D01*
X1540420Y1980098D01*
X1541196Y1984000D01*
Y2219777D01*
X1556223Y2234804D01*
X1565098D01*
X1566384Y2232880D01*
X1571945Y2229164D01*
X1578504Y2227860D01*
X1637721D01*
X1666790Y2198790D01*
X1670098Y2196580D01*
X1674000Y2195804D01*
X1674086D01*
Y2167535D01*
X1727393D01*
Y2244465D01*
X1674086D01*
Y2226866D01*
X1669467Y2224952D01*
X1656790Y2237630D01*
X1657332Y2238441D01*
X1658636Y2245000D01*
X1657332Y2251559D01*
X1653616Y2257120D01*
X1648055Y2260836D01*
X1641496Y2262140D01*
X1578504D01*
X1571945Y2260836D01*
X1566384Y2257120D01*
X1565098Y2255196D01*
X1552000D01*
X1548098Y2254420D01*
X1544790Y2252210D01*
X1530815Y2238235D01*
X1526196Y2240148D01*
Y2270777D01*
X1540223Y2284804D01*
X1565098D01*
X1566384Y2282880D01*
X1571945Y2279164D01*
X1578504Y2277860D01*
X1641496D01*
X1648055Y2279164D01*
X1653616Y2282880D01*
X1655040Y2285011D01*
X1657902Y2285580D01*
X1658237Y2285804D01*
X1672708D01*
Y2257535D01*
X1726015D01*
X1726016Y2334464D01*
X1730875Y2334804D01*
X1850000D01*
X1853902Y2335580D01*
X1857210Y2337790D01*
X1860616Y2341197D01*
X1925505D01*
Y2394503D01*
X1848575D01*
Y2357995D01*
X1845777Y2355196D01*
X1732821D01*
X1729166Y2358441D01*
Y2423559D01*
X1729166Y2423559D01*
X1730544Y2427536D01*
X1730544D01*
X1730543Y2427988D01*
Y2504465D01*
X1677236D01*
Y2476196D01*
X1667000D01*
X1663098Y2475420D01*
X1659790Y2473210D01*
X1647522Y2460942D01*
X1641496Y2462140D01*
X1578504D01*
X1571945Y2460836D01*
X1567196Y2457663D01*
X1564145Y2458581D01*
X1562196Y2459852D01*
Y2480148D01*
X1564145Y2481419D01*
X1567196Y2482337D01*
X1571945Y2479164D01*
X1578504Y2477860D01*
X1641496D01*
X1648055Y2479164D01*
X1653616Y2482880D01*
X1657332Y2488441D01*
X1658636Y2495000D01*
X1657332Y2501559D01*
X1653616Y2507120D01*
X1648055Y2510836D01*
X1641496Y2512140D01*
X1620196D01*
Y2527860D01*
X1641496D01*
X1648055Y2529164D01*
X1653616Y2532880D01*
X1654902Y2534804D01*
X1655000D01*
X1658902Y2535580D01*
X1659237Y2535804D01*
X1675859D01*
Y2513441D01*
X1729166D01*
Y2578559D01*
D02*
G37*
G36*
X2047354Y2680803D02*
X1970426D01*
Y2664346D01*
X1486940D01*
X1483038Y2663570D01*
X1479730Y2661360D01*
X1413790Y2595420D01*
X1411580Y2592112D01*
X1410804Y2588210D01*
Y2562140D01*
X1389528D01*
X1382969Y2560836D01*
X1377942Y2557477D01*
X1369196Y2566223D01*
Y2614150D01*
X1368420Y2618052D01*
X1366210Y2621360D01*
X1362902Y2623570D01*
X1359000Y2624346D01*
X1355505D01*
X1355505Y2640803D01*
X1360504Y2640804D01*
X1406766D01*
X1408383Y2638383D01*
X1414172Y2634515D01*
X1421000Y2633157D01*
X1427828Y2634515D01*
X1433617Y2638383D01*
X1437485Y2644172D01*
X1438843Y2651000D01*
X1437485Y2657828D01*
X1433617Y2663617D01*
X1427828Y2667485D01*
X1421000Y2668843D01*
X1414172Y2667485D01*
X1408383Y2663617D01*
X1406766Y2661196D01*
X1184000D01*
X1180098Y2660420D01*
X1176790Y2658210D01*
X1127152Y2608572D01*
X1124942Y2605264D01*
X1124166Y2601362D01*
Y2559465D01*
X1107708D01*
Y2531196D01*
X1097629D01*
X1095902Y2532350D01*
X1092000Y2533126D01*
X1073772D01*
Y2559426D01*
X1030308D01*
Y2486434D01*
X1073772D01*
Y2512734D01*
X1088301D01*
X1090028Y2511580D01*
X1093930Y2510804D01*
X1107708D01*
Y2482535D01*
X1124166D01*
Y2464204D01*
X1124942Y2460302D01*
X1127152Y2456994D01*
X1181370Y2402777D01*
Y2383559D01*
X1164912D01*
Y2318441D01*
X1218219D01*
Y2383559D01*
X1201762D01*
Y2407000D01*
X1200986Y2410902D01*
X1198776Y2414210D01*
X1144558Y2468427D01*
Y2482535D01*
X1161015D01*
Y2559465D01*
X1144558D01*
Y2597139D01*
X1188223Y2640804D01*
X1273576D01*
X1278575Y2640803D01*
X1278575Y2635804D01*
Y2587497D01*
X1348804D01*
Y2562000D01*
X1349580Y2558098D01*
X1351790Y2554790D01*
X1368790Y2537790D01*
X1372098Y2535580D01*
X1376000Y2534804D01*
X1376122D01*
X1377408Y2532880D01*
X1382969Y2529164D01*
X1389528Y2527860D01*
X1452520D01*
X1459079Y2529164D01*
X1464640Y2532880D01*
X1468356Y2538441D01*
X1469660Y2545000D01*
X1468356Y2551559D01*
X1464640Y2557120D01*
X1459079Y2560836D01*
X1452520Y2562140D01*
X1431196D01*
Y2583987D01*
X1462416Y2615206D01*
X1467200Y2613755D01*
X1467515Y2612172D01*
X1471383Y2606383D01*
X1477172Y2602515D01*
X1484000Y2601157D01*
X1486856Y2601725D01*
X1494790Y2593790D01*
X1498098Y2591580D01*
X1502000Y2590804D01*
X1881370D01*
Y2578559D01*
X1864912D01*
Y2522973D01*
X1859912Y2520300D01*
X1859166Y2520799D01*
Y2578559D01*
X1805859D01*
Y2556196D01*
X1788219D01*
Y2578559D01*
X1734912D01*
Y2513441D01*
X1788219D01*
Y2535804D01*
X1805859D01*
Y2513441D01*
X1833330D01*
X1848575Y2498195D01*
Y2447497D01*
X1925505D01*
Y2500803D01*
X1874806D01*
X1867168Y2508441D01*
X1869239Y2513441D01*
X1918219D01*
Y2578559D01*
X1901762D01*
Y2595434D01*
X1900986Y2599336D01*
X1898776Y2602644D01*
X1893210Y2608210D01*
X1889902Y2610420D01*
X1886000Y2611196D01*
X1506223D01*
X1501275Y2616144D01*
X1501843Y2619000D01*
X1500485Y2625828D01*
X1496617Y2631617D01*
X1490828Y2635485D01*
X1489245Y2635800D01*
X1487793Y2640584D01*
X1491163Y2643954D01*
X1970426D01*
Y2627497D01*
X2047354D01*
Y2680803D01*
D02*
G37*
G36*
X2441000Y2901843D02*
X2434172Y2900485D01*
X2428383Y2896617D01*
X2424515Y2890828D01*
X2423157Y2884000D01*
X2423725Y2881144D01*
X2302434Y2759854D01*
X2300224Y2756546D01*
X2299448Y2752644D01*
Y2749075D01*
X2294448Y2746402D01*
X2292828Y2747485D01*
X2286000Y2748843D01*
X2279172Y2747485D01*
X2273383Y2743617D01*
X2271766Y2741196D01*
X2123223D01*
X2030649Y2833770D01*
X2033639Y2840986D01*
X2034825Y2850000D01*
X2033639Y2859014D01*
X2030160Y2867413D01*
X2024625Y2874625D01*
X2017413Y2880160D01*
X2009014Y2883639D01*
X2000000Y2884825D01*
X1990986Y2883639D01*
X1982587Y2880160D01*
X1975375Y2874625D01*
X1969840Y2867413D01*
X1966361Y2859014D01*
X1965175Y2850000D01*
X1966361Y2840986D01*
X1969840Y2832587D01*
X1975375Y2825375D01*
X1982587Y2819840D01*
X1990986Y2816361D01*
X2000000Y2815175D01*
X2009014Y2816361D01*
X2016230Y2819351D01*
X2111790Y2723790D01*
X2115098Y2721580D01*
X2119000Y2720804D01*
X2271766D01*
X2273383Y2718383D01*
X2279172Y2714515D01*
X2282089Y2713935D01*
X2283735Y2708510D01*
X2238374Y2663149D01*
X2233766Y2665612D01*
X2233843Y2666000D01*
X2232485Y2672828D01*
X2228617Y2678617D01*
X2222828Y2682485D01*
X2216000Y2683843D01*
X2209172Y2682485D01*
X2203383Y2678617D01*
X2199515Y2672828D01*
X2198157Y2666000D01*
X2198725Y2663144D01*
X2185790Y2650210D01*
X2183580Y2646902D01*
X2182804Y2643000D01*
Y2603356D01*
Y2496000D01*
X2183580Y2492098D01*
X2185790Y2488790D01*
X2192874Y2481706D01*
Y2445196D01*
X2140223D01*
X2138196Y2447223D01*
Y2498000D01*
X2137420Y2501902D01*
X2135210Y2505210D01*
X2119210Y2521210D01*
X2115902Y2523420D01*
X2112000Y2524196D01*
X2047354D01*
Y2574503D01*
X1970426D01*
Y2521197D01*
X1982804D01*
Y2437000D01*
X1983580Y2433098D01*
X1985790Y2429790D01*
X1989098Y2427580D01*
X1993000Y2426804D01*
X2084528D01*
X2087285Y2427353D01*
X2090925Y2425305D01*
X2092236Y2424110D01*
Y2357196D01*
X2079544D01*
Y2421559D01*
X2026236D01*
Y2356441D01*
X2043026D01*
X2043470Y2354208D01*
X2045680Y2350900D01*
X2056790Y2339790D01*
X2060098Y2337580D01*
X2064000Y2336804D01*
X2216000D01*
X2219902Y2337580D01*
X2223210Y2339790D01*
X2232400Y2348980D01*
X2234610Y2352288D01*
X2234659Y2352535D01*
X2251843D01*
Y2380804D01*
X2266000D01*
X2269902Y2381580D01*
X2271140Y2382407D01*
X2274497Y2380164D01*
X2281056Y2378860D01*
X2344048D01*
X2350607Y2380164D01*
X2351394Y2380690D01*
X2355804Y2378333D01*
Y2363667D01*
X2351394Y2361310D01*
X2350607Y2361836D01*
X2344048Y2363140D01*
X2281056D01*
X2274497Y2361836D01*
X2268936Y2358120D01*
X2265220Y2352559D01*
X2263916Y2346000D01*
X2265220Y2339441D01*
X2268936Y2333880D01*
X2274497Y2330164D01*
X2281056Y2328860D01*
X2302356D01*
Y2313140D01*
X2281056D01*
X2274497Y2311836D01*
X2268936Y2308120D01*
X2267650Y2306196D01*
X2253222D01*
Y2328559D01*
X2199914D01*
Y2268196D01*
X2194166D01*
Y2328559D01*
X2140858D01*
Y2306196D01*
X2131461D01*
X2130902Y2306570D01*
X2127000Y2307346D01*
X2126827D01*
Y2323803D01*
X2049898D01*
Y2270497D01*
X2126827D01*
Y2284718D01*
X2128150Y2285804D01*
X2140858D01*
Y2263441D01*
X2157922D01*
X2158092Y2262586D01*
X2160302Y2259278D01*
X2168790Y2250790D01*
X2172098Y2248580D01*
X2174030Y2248196D01*
X2173538Y2243196D01*
X2054150D01*
X2050248Y2242420D01*
X2046940Y2240210D01*
X2024234Y2217503D01*
X1958048D01*
Y2217504D01*
X1954753Y2216139D01*
X1949210Y2221682D01*
X1945902Y2223892D01*
X1944071Y2224256D01*
Y2241126D01*
X1878953D01*
Y2187818D01*
X1944071D01*
Y2191449D01*
X1948690Y2193362D01*
X1958047Y2184005D01*
Y2164197D01*
X2034976D01*
Y2199407D01*
X2058373Y2222804D01*
X2391709D01*
Y2180535D01*
X2445015D01*
Y2257465D01*
X2428558D01*
Y2427777D01*
X2461585Y2460804D01*
X2546000D01*
X2549902Y2461580D01*
X2553210Y2463790D01*
X2560223Y2470804D01*
X2633777D01*
X2644804Y2459777D01*
Y2414000D01*
X2645580Y2410098D01*
X2647790Y2406790D01*
X2691395Y2363185D01*
X2689482Y2358566D01*
X2684780D01*
Y2285574D01*
X2728244D01*
Y2358566D01*
X2716708D01*
Y2362488D01*
X2715932Y2366390D01*
X2713722Y2369698D01*
X2665196Y2418223D01*
Y2464000D01*
X2664420Y2467902D01*
X2662210Y2471210D01*
X2645210Y2488210D01*
X2641902Y2490420D01*
X2638000Y2491196D01*
X2626148D01*
X2624235Y2495815D01*
X2649210Y2520790D01*
X2651420Y2524098D01*
X2652196Y2528000D01*
Y2571777D01*
X2663389Y2582970D01*
X2668008Y2581056D01*
Y2515535D01*
X2684466D01*
Y2510850D01*
X2685242Y2506948D01*
X2687452Y2503640D01*
X2693667Y2497426D01*
X2691596Y2492426D01*
X2684780D01*
Y2419434D01*
X2728244D01*
Y2492426D01*
X2716708D01*
Y2499000D01*
X2715932Y2502902D01*
X2713722Y2506210D01*
X2709396Y2510535D01*
X2711467Y2515535D01*
X2721316D01*
Y2588804D01*
X2821777D01*
X2876923Y2533658D01*
X2874345Y2527434D01*
X2873226Y2518934D01*
X2874345Y2510434D01*
X2877626Y2502514D01*
X2882845Y2495713D01*
X2889646Y2490494D01*
X2897566Y2487213D01*
X2906066Y2486094D01*
X2914566Y2487213D01*
X2922486Y2490494D01*
X2929287Y2495713D01*
X2934506Y2502514D01*
X2937787Y2510434D01*
X2938906Y2518934D01*
X2937787Y2527434D01*
X2934506Y2535354D01*
X2929287Y2542155D01*
X2922486Y2547374D01*
X2914566Y2550655D01*
X2906066Y2551774D01*
X2897566Y2550655D01*
X2891342Y2548077D01*
X2833210Y2606210D01*
X2829902Y2608420D01*
X2826000Y2609196D01*
X2665000D01*
X2661098Y2608420D01*
X2657790Y2606210D01*
X2642796Y2591215D01*
X2637531Y2593021D01*
X2637187Y2595767D01*
X2739210Y2697790D01*
X2741420Y2701098D01*
X2742196Y2705000D01*
Y2752000D01*
X2741420Y2755902D01*
X2739210Y2759210D01*
X2718210Y2780210D01*
X2714902Y2782420D01*
X2711000Y2783196D01*
X2546000D01*
X2542098Y2782420D01*
X2538790Y2780210D01*
X2364777Y2606196D01*
X2357454D01*
X2356168Y2608120D01*
X2350607Y2611836D01*
X2344048Y2613140D01*
X2281056D01*
X2274497Y2611836D01*
X2268936Y2608120D01*
X2265220Y2602559D01*
X2263916Y2596000D01*
X2265220Y2589441D01*
X2268936Y2583880D01*
X2274497Y2580164D01*
X2281056Y2578860D01*
X2344048D01*
X2350607Y2580164D01*
X2356168Y2583880D01*
X2357454Y2585804D01*
X2369000D01*
X2372902Y2586580D01*
X2376210Y2588790D01*
X2550223Y2762804D01*
X2673598D01*
X2675296Y2757804D01*
X2670713Y2754287D01*
X2665494Y2747486D01*
X2662916Y2741262D01*
X2553066D01*
X2549164Y2740486D01*
X2545856Y2738276D01*
X2363777Y2556196D01*
X2357454D01*
X2356168Y2558120D01*
X2350607Y2561836D01*
X2344048Y2563140D01*
X2281056D01*
X2275403Y2562016D01*
X2266210Y2571210D01*
X2262902Y2573420D01*
X2259000Y2574196D01*
X2251316D01*
Y2602465D01*
X2213061D01*
X2211147Y2607084D01*
X2316854Y2712790D01*
X2319064Y2716098D01*
X2319840Y2720000D01*
Y2748421D01*
X2438144Y2866725D01*
X2441000Y2866157D01*
X2447828Y2867515D01*
X2453617Y2871383D01*
X2457485Y2877172D01*
X2458843Y2884000D01*
X2457485Y2890828D01*
X2453617Y2896617D01*
X2447828Y2900485D01*
X2441000Y2901843D01*
D02*
G37*
G36*
X1267315Y2559465D02*
X1214008D01*
Y2482535D01*
X1267315D01*
Y2504194D01*
X1272315Y2506265D01*
X1277940Y2500640D01*
X1278575Y2500216D01*
Y2481197D01*
X1355505D01*
Y2492855D01*
X1360505Y2494926D01*
X1367640Y2487790D01*
X1370948Y2485580D01*
X1374850Y2484804D01*
X1376122D01*
X1377408Y2482880D01*
X1382969Y2479164D01*
X1389528Y2477860D01*
X1452520D01*
X1459079Y2479164D01*
X1464640Y2482880D01*
X1468356Y2488441D01*
X1469660Y2495000D01*
X1468356Y2501559D01*
X1464640Y2507120D01*
X1459079Y2510836D01*
X1452520Y2512140D01*
X1389528D01*
X1382969Y2510836D01*
X1377408Y2507120D01*
X1377172Y2507097D01*
X1369210Y2515060D01*
X1365902Y2517270D01*
X1362000Y2518046D01*
X1355505D01*
Y2534503D01*
X1278575D01*
Y2534189D01*
X1273575Y2530883D01*
X1272000Y2531196D01*
X1267315D01*
Y2559465D01*
D02*
G37*
%LPD*%
G36*
X2141968Y1397441D02*
X2158935D01*
X2159202Y1396098D01*
X2161412Y1392790D01*
X2174412Y1379790D01*
X2177720Y1377580D01*
X2181622Y1376804D01*
X2334852D01*
X2336765Y1372185D01*
X2240777Y1276196D01*
X2233000D01*
X2229098Y1275420D01*
X2225790Y1273210D01*
X2217777Y1265196D01*
X2176018D01*
X2173440Y1271420D01*
X2168221Y1278221D01*
X2161420Y1283440D01*
X2153500Y1286721D01*
X2145000Y1287840D01*
X2136500Y1286721D01*
X2128580Y1283440D01*
X2121779Y1278221D01*
X2116560Y1271420D01*
X2113279Y1263500D01*
X2112160Y1255000D01*
X2113279Y1246500D01*
X2116560Y1238580D01*
X2121779Y1231779D01*
X2128580Y1226560D01*
X2136500Y1223279D01*
X2145000Y1222160D01*
X2153500Y1223279D01*
X2161420Y1226560D01*
X2168221Y1231779D01*
X2173440Y1238580D01*
X2176018Y1244804D01*
X2222000D01*
X2225902Y1245580D01*
X2229210Y1247790D01*
X2237223Y1255804D01*
X2245000D01*
X2248902Y1256580D01*
X2252210Y1258790D01*
X2397454Y1404035D01*
X2402544Y1402054D01*
X2403515Y1397172D01*
X2404383Y1395874D01*
X2402026Y1391465D01*
X2392818D01*
Y1321196D01*
X2342000D01*
X2338098Y1320420D01*
X2334790Y1318210D01*
X2287790Y1271210D01*
X2285580Y1267902D01*
X2284804Y1264000D01*
Y1169266D01*
X2281361Y1167892D01*
X2279804Y1167876D01*
X2274625Y1174625D01*
X2267413Y1180160D01*
X2259014Y1183639D01*
X2250000Y1184825D01*
X2240986Y1183639D01*
X2232587Y1180160D01*
X2225375Y1174625D01*
X2219840Y1167413D01*
X2216361Y1159014D01*
X2215175Y1150000D01*
X2216361Y1140986D01*
X2219840Y1132587D01*
X2225375Y1125375D01*
X2232587Y1119840D01*
X2238971Y1117196D01*
X2237977Y1112196D01*
X2188170D01*
X2184528Y1115473D01*
Y1184527D01*
X2129892D01*
X2052196Y1262223D01*
Y1360000D01*
X2051420Y1363902D01*
X2049210Y1367210D01*
X2033285Y1383134D01*
X2048296Y1398145D01*
X2050506Y1401453D01*
X2051112Y1404496D01*
X2127936D01*
Y1418808D01*
X2129150Y1419804D01*
X2141968D01*
Y1397441D01*
D02*
G37*
G36*
X2199119Y1736464D02*
Y1674121D01*
X2194118Y1670908D01*
X2189418Y1671843D01*
X2182590Y1670485D01*
X2176801Y1666617D01*
X2172933Y1660828D01*
X2171575Y1654000D01*
X2172933Y1647172D01*
X2176801Y1641383D01*
X2182590Y1637515D01*
X2189418Y1636157D01*
X2192874Y1631747D01*
Y1579196D01*
X2121182D01*
Y1642559D01*
X2067874D01*
Y1577441D01*
X2079707D01*
X2080414Y1576196D01*
X2077505Y1571196D01*
X2055336D01*
X2054473Y1572441D01*
X2057090Y1577441D01*
X2062126D01*
Y1642559D01*
X2040332D01*
X2032314Y1650577D01*
X2034228Y1655197D01*
X2048465D01*
Y1708504D01*
X2010043D01*
X2007370Y1713504D01*
X2008485Y1715172D01*
X2009843Y1722000D01*
X2008485Y1728828D01*
X2005160Y1733804D01*
X2006079Y1736856D01*
X2007350Y1738804D01*
X2195088D01*
X2199119Y1736464D01*
D02*
G37*
G36*
X2700857Y1899724D02*
X2698279Y1893500D01*
X2697160Y1885000D01*
X2698279Y1876500D01*
X2700857Y1870276D01*
X2635790Y1805210D01*
X2633580Y1801902D01*
X2632804Y1798000D01*
Y1668223D01*
X2620745Y1656164D01*
X2616126Y1658078D01*
Y1726465D01*
X2562818D01*
Y1713134D01*
X2558199Y1711220D01*
X2548371Y1721048D01*
X2549970Y1723441D01*
X2551274Y1730000D01*
X2549970Y1736559D01*
X2546254Y1742120D01*
X2540693Y1745836D01*
X2534134Y1747140D01*
X2471142D01*
X2464583Y1745836D01*
X2459022Y1742120D01*
X2455306Y1736559D01*
X2454002Y1730000D01*
X2455306Y1723441D01*
X2459022Y1717880D01*
X2464583Y1714164D01*
X2471142Y1712860D01*
X2527721D01*
X2539387Y1701193D01*
X2536924Y1696585D01*
X2534134Y1697140D01*
X2471142D01*
X2464583Y1695836D01*
X2459022Y1692120D01*
X2457736Y1690196D01*
X2457000D01*
X2453098Y1689420D01*
X2449790Y1687210D01*
X2441790Y1679210D01*
X2439580Y1675902D01*
X2438804Y1672000D01*
Y1616000D01*
X2439580Y1612098D01*
X2441790Y1608790D01*
X2449790Y1600790D01*
X2453098Y1598580D01*
X2457000Y1597804D01*
X2550000D01*
X2553902Y1598580D01*
X2557210Y1600790D01*
X2561223Y1604804D01*
X2622804D01*
Y1566622D01*
X2623580Y1562720D01*
X2625790Y1559412D01*
X2688015Y1497187D01*
X2686102Y1492568D01*
X2685890D01*
Y1419576D01*
X2698551D01*
X2700412Y1416790D01*
X2709780Y1407423D01*
X2707866Y1402803D01*
X2674158D01*
X2674158Y1402804D01*
Y1402804D01*
X2669607Y1404220D01*
X2642618Y1431210D01*
X2639310Y1433420D01*
X2637936Y1433693D01*
Y1482803D01*
X2609668D01*
Y1487000D01*
X2608892Y1490902D01*
X2608279Y1491819D01*
X2610952Y1496819D01*
X2627031D01*
Y1550126D01*
X2561913D01*
Y1533668D01*
X2555751D01*
X2552210Y1537210D01*
X2548902Y1539420D01*
X2547929Y1539613D01*
X2546254Y1542120D01*
X2540693Y1545836D01*
X2534134Y1547140D01*
X2471142D01*
X2464583Y1545836D01*
X2459022Y1542120D01*
X2455306Y1536559D01*
X2454002Y1530000D01*
X2455306Y1523441D01*
X2459022Y1517880D01*
X2464583Y1514164D01*
X2471142Y1512860D01*
X2534134D01*
X2540693Y1514164D01*
X2544124Y1516457D01*
X2544318Y1516262D01*
X2547626Y1514052D01*
X2551528Y1513276D01*
X2561913D01*
Y1496819D01*
X2584276D01*
Y1492000D01*
X2585052Y1488098D01*
X2585249Y1487803D01*
X2582577Y1482803D01*
X2561008D01*
Y1455945D01*
X2556388Y1454031D01*
X2545921Y1464498D01*
X2546254Y1467880D01*
X2549970Y1473441D01*
X2551274Y1480000D01*
X2549970Y1486559D01*
X2546254Y1492120D01*
X2540693Y1495836D01*
X2534134Y1497140D01*
X2471142D01*
X2464583Y1495836D01*
X2459022Y1492120D01*
X2457543Y1489906D01*
X2455098Y1489420D01*
X2451790Y1487210D01*
X2411815Y1447235D01*
X2407196Y1449148D01*
Y1599000D01*
X2406420Y1602902D01*
X2404210Y1606210D01*
X2373210Y1637210D01*
X2369902Y1639420D01*
X2366000Y1640196D01*
X2358564D01*
X2357278Y1642120D01*
X2351717Y1645836D01*
X2345158Y1647140D01*
X2282166D01*
X2275607Y1645836D01*
X2270046Y1642120D01*
X2266330Y1636559D01*
X2265026Y1630000D01*
X2266330Y1623441D01*
X2270046Y1617880D01*
X2275607Y1614164D01*
X2282166Y1612860D01*
X2345158D01*
X2351717Y1614164D01*
X2357278Y1617880D01*
X2357461Y1618153D01*
X2363025Y1618555D01*
X2386804Y1594777D01*
Y1444223D01*
X2366109Y1423528D01*
X2361501Y1425991D01*
X2362298Y1430000D01*
X2360994Y1436559D01*
X2357278Y1442120D01*
X2351717Y1445836D01*
X2345158Y1447140D01*
X2323858D01*
Y1462860D01*
X2345158D01*
X2351717Y1464164D01*
X2357278Y1467880D01*
X2360994Y1473441D01*
X2362298Y1480000D01*
X2360994Y1486559D01*
X2357278Y1492120D01*
X2355700Y1493174D01*
X2356955Y1498350D01*
X2359060Y1498768D01*
X2362368Y1500978D01*
X2374180Y1512790D01*
X2376390Y1516098D01*
X2377166Y1520000D01*
Y1551812D01*
X2376390Y1555714D01*
X2374180Y1559022D01*
X2370872Y1561232D01*
X2366970Y1562008D01*
X2357490D01*
X2355973Y1567008D01*
X2357278Y1567880D01*
X2360994Y1573441D01*
X2362298Y1580000D01*
X2360994Y1586559D01*
X2357278Y1592120D01*
X2351717Y1595836D01*
X2345158Y1597140D01*
X2282166D01*
X2278924Y1596495D01*
X2258210Y1617210D01*
X2254902Y1619420D01*
X2251000Y1620196D01*
X2246182D01*
Y1642559D01*
X2215278D01*
X2206693Y1651144D01*
X2207261Y1654000D01*
X2206928Y1655670D01*
X2210101Y1659535D01*
X2252425D01*
Y1684084D01*
X2257425Y1686155D01*
X2265384Y1678197D01*
X2266330Y1673441D01*
X2270046Y1667880D01*
X2275607Y1664164D01*
X2282166Y1662860D01*
X2345158D01*
X2351717Y1664164D01*
X2357278Y1667880D01*
X2358564Y1669804D01*
X2382000D01*
X2385902Y1670580D01*
X2389210Y1672790D01*
X2437210Y1720790D01*
X2439420Y1724098D01*
X2440196Y1728000D01*
Y1853982D01*
X2446420Y1856560D01*
X2453221Y1861779D01*
X2458440Y1868580D01*
X2461721Y1876500D01*
X2462840Y1885000D01*
X2461721Y1893500D01*
X2458440Y1901420D01*
X2453221Y1908221D01*
X2446420Y1913440D01*
X2438500Y1916721D01*
X2430000Y1917840D01*
X2421500Y1916721D01*
X2413580Y1913440D01*
X2406779Y1908221D01*
X2401560Y1901420D01*
X2398279Y1893500D01*
X2397160Y1885000D01*
X2398279Y1876500D01*
X2401560Y1868580D01*
X2406779Y1861779D01*
X2413580Y1856560D01*
X2419804Y1853982D01*
Y1732223D01*
X2377777Y1690196D01*
X2358564D01*
X2357278Y1692120D01*
X2351717Y1695836D01*
X2345158Y1697140D01*
X2282166D01*
X2276421Y1695998D01*
X2267210Y1705210D01*
X2263902Y1707420D01*
X2260000Y1708196D01*
X2252425D01*
Y1736464D01*
X2256456Y1738804D01*
X2257000D01*
X2260902Y1739580D01*
X2264209Y1741790D01*
X2267355Y1738093D01*
X2266330Y1736559D01*
X2265026Y1730000D01*
X2266330Y1723441D01*
X2270046Y1717880D01*
X2275607Y1714164D01*
X2282166Y1712860D01*
X2345158D01*
X2351717Y1714164D01*
X2357278Y1717880D01*
X2360994Y1723441D01*
X2362298Y1730000D01*
X2360994Y1736559D01*
X2357278Y1742120D01*
X2357235Y1747816D01*
X2375210Y1765790D01*
X2377420Y1769098D01*
X2378196Y1773000D01*
Y1904777D01*
X2404223Y1930804D01*
X2669777D01*
X2700857Y1899724D01*
D02*
G37*
G36*
X2664790Y1337284D02*
X2668098Y1335074D01*
X2672000Y1334298D01*
X2756090D01*
X2760894Y1330156D01*
Y1258313D01*
X2747777Y1245196D01*
X2621182D01*
Y1307559D01*
X2612788D01*
X2609392Y1312559D01*
X2609668Y1313944D01*
Y1323197D01*
X2637936D01*
Y1357605D01*
X2642556Y1359519D01*
X2664790Y1337284D01*
D02*
G37*
G36*
X1971535Y1696583D02*
Y1655197D01*
X2000456D01*
X2000580Y1654570D01*
X2002790Y1651262D01*
X2007083Y1646969D01*
X2008818Y1642559D01*
X2008818D01*
X2008819Y1642559D01*
Y1577441D01*
X2025276D01*
Y1573528D01*
X2026052Y1569626D01*
X2028262Y1566318D01*
X2034402Y1560178D01*
X2032489Y1555559D01*
X2027347D01*
Y1490441D01*
X2043915D01*
X2044580Y1487098D01*
X2046790Y1483790D01*
X2056790Y1473790D01*
X2060098Y1471580D01*
X2064000Y1470804D01*
X2216000D01*
X2219902Y1471580D01*
X2223210Y1473790D01*
X2233510Y1484090D01*
X2235143Y1486535D01*
X2252954D01*
Y1514804D01*
X2267000D01*
X2270902Y1515580D01*
X2272195Y1516444D01*
X2275607Y1514164D01*
X2282166Y1512860D01*
X2309570D01*
X2311483Y1508240D01*
X2306452Y1503210D01*
X2304242Y1499902D01*
X2303693Y1497140D01*
X2282166D01*
X2275607Y1495836D01*
X2270046Y1492120D01*
X2266330Y1486559D01*
X2265026Y1480000D01*
X2266330Y1473441D01*
X2270046Y1467880D01*
X2275607Y1464164D01*
X2282166Y1462860D01*
X2303466D01*
Y1447140D01*
X2282166D01*
X2275607Y1445836D01*
X2270046Y1442120D01*
X2268760Y1440196D01*
X2254331D01*
Y1462559D01*
X2201024D01*
Y1403037D01*
X2198150Y1401330D01*
X2195276Y1403037D01*
Y1462559D01*
X2141968D01*
Y1440196D01*
X2132461D01*
X2131902Y1440570D01*
X2128000Y1441346D01*
X2127936D01*
Y1457803D01*
X2051112D01*
X2050506Y1460848D01*
X2048296Y1464155D01*
X2042438Y1470013D01*
X2039130Y1472223D01*
X2035229Y1472999D01*
X1962196D01*
Y1693777D01*
X1966916Y1698497D01*
X1971535Y1696583D01*
D02*
G37*
G36*
X1299912Y2318441D02*
X1332487D01*
X1332980Y2313441D01*
X1328172Y2312485D01*
X1322383Y2308617D01*
X1318515Y2302828D01*
X1317157Y2296000D01*
X1318515Y2289172D01*
X1322383Y2283383D01*
X1323357Y2282732D01*
X1321841Y2277732D01*
X1292472D01*
Y2275480D01*
X1287853Y2273567D01*
X1245196Y2316223D01*
Y2379777D01*
X1247223Y2381804D01*
X1299912D01*
Y2318441D01*
D02*
G37*
D11*
X1331300Y1570000D02*
D03*
X1241772Y1655000D02*
D03*
X1225000Y1570000D02*
D03*
X1135472Y1655000D02*
D03*
X1701850Y1340000D02*
D03*
X1808150D02*
D03*
X1806772Y1430000D02*
D03*
X1700472D02*
D03*
X1811300Y1600000D02*
D03*
X1705000D02*
D03*
X2120000Y1525000D02*
D03*
X2226300D02*
D03*
X2225772Y1698000D02*
D03*
X2119472D02*
D03*
X2419472Y1353000D02*
D03*
X2525772D02*
D03*
X2695772Y1688000D02*
D03*
X2589472D02*
D03*
X2524662Y2219000D02*
D03*
X2418362D02*
D03*
X2225190Y2391000D02*
D03*
X2118890D02*
D03*
X2224662Y2564000D02*
D03*
X2118362D02*
D03*
X1810190Y2466000D02*
D03*
X1703890D02*
D03*
X1699362Y2296000D02*
D03*
X1700740Y2206000D02*
D03*
X1807040D02*
D03*
X1805662Y2296000D02*
D03*
X1330190Y2436000D02*
D03*
X1240662Y2521000D02*
D03*
X1223890Y2436000D02*
D03*
X1134362Y2521000D02*
D03*
X2588362Y2554000D02*
D03*
X2694662D02*
D03*
D12*
X1318150Y1641850D02*
D03*
Y1748150D02*
D03*
X1888150Y1501850D02*
D03*
X1997622Y1431150D02*
D03*
Y1324850D02*
D03*
X2089472D02*
D03*
Y1431150D02*
D03*
X2010000Y1681850D02*
D03*
Y1788150D02*
D03*
X1888150Y1608150D02*
D03*
X2088362Y2190850D02*
D03*
Y2297150D02*
D03*
X1996512D02*
D03*
Y2190850D02*
D03*
X1887040Y2367850D02*
D03*
Y2474150D02*
D03*
X2008890Y2547850D02*
D03*
Y2654150D02*
D03*
X2598362Y2215850D02*
D03*
Y2322150D02*
D03*
X2711512Y2135850D02*
D03*
Y2242150D02*
D03*
X2599472Y1456150D02*
D03*
Y1349850D02*
D03*
X2712622Y1269850D02*
D03*
Y1376150D02*
D03*
X1317040Y2614150D02*
D03*
Y2507850D02*
D03*
D13*
X2707622Y1456072D02*
D03*
Y1589930D02*
D03*
X2706512Y2322070D02*
D03*
Y2455930D02*
D03*
D15*
X1422134Y1379000D02*
D03*
Y1429000D02*
D03*
Y1479000D02*
D03*
Y1529000D02*
D03*
Y1579000D02*
D03*
Y1629000D02*
D03*
Y1679000D02*
D03*
X1611110Y1479000D02*
D03*
Y1429000D02*
D03*
Y1379000D02*
D03*
Y1529000D02*
D03*
Y1579000D02*
D03*
Y1629000D02*
D03*
Y1679000D02*
D03*
X1610000Y2245000D02*
D03*
Y2295000D02*
D03*
Y2345000D02*
D03*
Y2395000D02*
D03*
Y2445000D02*
D03*
Y2495000D02*
D03*
Y2545000D02*
D03*
X1421024D02*
D03*
Y2495000D02*
D03*
Y2445000D02*
D03*
Y2395000D02*
D03*
Y2345000D02*
D03*
Y2295000D02*
D03*
Y2245000D02*
D03*
X2313662Y1480000D02*
D03*
Y1430000D02*
D03*
Y1530000D02*
D03*
Y1580000D02*
D03*
Y1630000D02*
D03*
Y1680000D02*
D03*
Y1730000D02*
D03*
X2502638Y1580000D02*
D03*
Y1530000D02*
D03*
Y1480000D02*
D03*
Y1430000D02*
D03*
Y1630000D02*
D03*
Y1680000D02*
D03*
Y1730000D02*
D03*
X2501528Y2296000D02*
D03*
Y2346000D02*
D03*
Y2396000D02*
D03*
Y2446000D02*
D03*
Y2496000D02*
D03*
Y2546000D02*
D03*
Y2596000D02*
D03*
X2312552D02*
D03*
Y2546000D02*
D03*
Y2496000D02*
D03*
Y2446000D02*
D03*
Y2396000D02*
D03*
Y2346000D02*
D03*
Y2296000D02*
D03*
D17*
X1327678Y1485000D02*
D03*
X1268622D02*
D03*
X1192678D02*
D03*
X1133622D02*
D03*
X1703622Y1525000D02*
D03*
X1762678D02*
D03*
X1833622Y1680000D02*
D03*
X1892678D02*
D03*
X1994944Y1523000D02*
D03*
X2054000D02*
D03*
X2168622Y1430000D02*
D03*
X2227678D02*
D03*
X2219528Y1610000D02*
D03*
X2160472D02*
D03*
X2094528D02*
D03*
X2035472D02*
D03*
X1762678Y1680000D02*
D03*
X1703622D02*
D03*
X2226568Y2296000D02*
D03*
X2167512D02*
D03*
X2052890Y2389000D02*
D03*
X2160472Y2475000D02*
D03*
X2219528D02*
D03*
X2084528D02*
D03*
X2025472D02*
D03*
X1993834Y2389000D02*
D03*
X1891566Y2546000D02*
D03*
X1832512D02*
D03*
X1761566D02*
D03*
X1702512D02*
D03*
Y2391000D02*
D03*
X1761568D02*
D03*
X1326566Y2351000D02*
D03*
X1267512D02*
D03*
X1191566D02*
D03*
X1132512D02*
D03*
X2535472Y1275000D02*
D03*
X2594528D02*
D03*
X2593418Y2141000D02*
D03*
X2534362D02*
D03*
D24*
X1330078Y1390000D02*
X1259000D01*
X1214000Y1345000D01*
X1088000D01*
X1026000Y1407000D01*
Y1701000D01*
X1160000D01*
X1169408Y1691592D01*
Y1541684D01*
X1184558Y1526534D01*
X1260000D01*
X1303466Y1570000D01*
X1331300D01*
X1372000D01*
X1381000Y1579000D01*
X1422134D01*
X1423134Y1530000D02*
X1498000D01*
X1524000Y1504000D01*
Y1443000D01*
X1501500Y1433680D02*
X1529680Y1405500D01*
X1646951D01*
X1664417Y1388034D01*
Y1360417D01*
X1658000Y1354000D01*
X1635500Y1343978D02*
Y1379000D01*
X1611110D01*
X1534967D01*
X1486500Y1427467D01*
Y1468500D01*
X1476000Y1479000D01*
X1422134D01*
Y1429000D02*
X1386576D01*
Y1431734D01*
X1213944D01*
X1192678Y1453000D01*
Y1485000D01*
Y1497200D01*
X1135472Y1554406D01*
Y1655000D01*
X1094930D01*
X1093000Y1656930D01*
X1053150D01*
Y1523070D02*
X1091220Y1485000D01*
X1133622D01*
Y1408000D01*
X1151622Y1390000D01*
X1196220D01*
X1211000D01*
Y1405000D01*
X1277266D01*
X1289000Y1416734D01*
X1372000D01*
Y1379000D01*
X1422134D01*
X1501500Y1433680D02*
Y1474713D01*
X1474213Y1502000D01*
X1364000D01*
X1360000Y1498000D01*
Y1447000D01*
X1301000D01*
X1292000Y1456000D01*
Y1466748D01*
X1267748Y1491000D01*
X1267000D01*
X1327678Y1485000D02*
X1345954Y1503276D01*
Y1524896D01*
X1367574D01*
X1371678Y1529000D01*
X1422134D01*
X1423134Y1530000D01*
X1557803Y1494410D02*
X1562000Y1490213D01*
Y1483000D01*
X1566000Y1479000D01*
X1611110D01*
X1851000D01*
X1873850Y1501850D01*
X1888150D01*
X1952000Y1462804D02*
X2035229D01*
X2041087Y1456946D01*
Y1405354D01*
X2020000Y1384268D01*
Y1382000D01*
X2042000Y1360000D01*
Y1258000D01*
X2150000Y1150000D01*
X2264000Y1102000D02*
X2295000Y1133000D01*
Y1264000D01*
X2342000Y1311000D01*
X2419472D01*
Y1353000D01*
X2463472Y1397000D01*
X2592000D01*
X2607494Y1381506D01*
X2643000D01*
Y1373494D01*
X2672000Y1344494D01*
X2756090D01*
Y1407806D01*
X2723816D01*
X2707622Y1424000D01*
Y1456072D01*
Y1492000D01*
X2633000Y1566622D01*
Y1615000D01*
X2557000D01*
X2550000Y1608000D01*
X2457000D01*
X2449000Y1616000D01*
Y1672000D01*
X2457000Y1680000D01*
X2502638D01*
Y1630000D02*
X2609000D01*
X2643000Y1664000D01*
Y1798000D01*
X2730000Y1885000D01*
X2674000Y1941000D01*
X2400000D01*
X2368000Y1909000D01*
Y1773000D01*
X2345000Y1750000D01*
Y1730000D01*
X2313662D01*
Y1680000D02*
X2382000D01*
X2430000Y1728000D01*
Y1885000D01*
X2502638Y1730000D02*
X2525000D01*
X2567000Y1688000D01*
X2589472D01*
X2594472Y1523472D02*
X2551528D01*
X2545000Y1530000D01*
X2502638D01*
X2594472Y1523472D02*
Y1492000D01*
X2599472Y1487000D01*
Y1456150D01*
X2556000Y1440000D02*
X2533000Y1463000D01*
X2502638D01*
Y1480000D01*
X2459000D01*
X2245000Y1266000D01*
X2233000D01*
X2222000Y1255000D01*
X2145000D01*
X2264000Y1102000D02*
X2047000D01*
X2018000Y1131000D01*
Y1324850D01*
X1997622D01*
X1966622D01*
X1943000Y1348472D01*
X1912622D01*
X2089472Y1431150D02*
X2128000D01*
X2129150Y1430000D01*
X2168622D01*
Y1400000D01*
X2181622Y1387000D01*
X2344000D01*
X2397000Y1440000D01*
Y1599000D01*
X2366000Y1630000D01*
X2313662D01*
Y1680000D02*
X2278000D01*
X2260000Y1698000D01*
X2225772D01*
X2219528Y1623890D02*
Y1610000D01*
X2251000D01*
X2281000Y1580000D01*
X2313662D01*
Y1530000D02*
X2272000D01*
X2267000Y1525000D01*
X2226300D01*
Y1491300D01*
X2216000Y1481000D01*
X2064000D01*
X2054000Y1491000D01*
Y1523000D01*
X2093000Y1525000D02*
X2120000D01*
X2104000Y1569000D02*
X2258000D01*
X2275188Y1551812D01*
X2366970D01*
Y1520000D01*
X2355158Y1508188D01*
X2325850D01*
X2313662Y1496000D01*
Y1480000D01*
Y1430000D01*
X2227678D01*
X2104000Y1569000D02*
X2094528Y1578472D01*
Y1610000D01*
X2035472D02*
Y1633000D01*
X2010000Y1658472D01*
Y1681850D01*
X2035472Y1610000D02*
Y1573528D01*
X2048000Y1561000D01*
X2086000D01*
X2093000Y1554000D01*
Y1525000D01*
X2189418Y1654000D02*
X2219528Y1623890D01*
X2257000Y1749000D02*
X2345000Y1837000D01*
X2257000Y1749000D02*
X1911678D01*
X1892678Y1730000D01*
Y1680000D01*
X1833622D02*
Y1662678D01*
X1888150Y1608150D01*
X1833622Y1680000D02*
X1762678D01*
X1703622D02*
X1657000D01*
X1656000Y1679000D01*
X1611110D01*
Y1629000D01*
X1557803D01*
Y1494410D01*
X1611110Y1379000D02*
Y1168890D01*
X1635000Y1145000D01*
X1773000D02*
X1935000D01*
X1701850Y1340000D02*
X1681064D01*
Y1331478D01*
X1648000D01*
X1635500Y1343978D01*
X1734000Y1384472D02*
Y1184000D01*
X1773000Y1145000D01*
X1734000Y1384472D02*
X1700472Y1418000D01*
Y1430000D01*
X1656000D01*
X1655000Y1429000D01*
X1611110D01*
Y1529000D02*
X1655000D01*
X1659000Y1525000D01*
X1698000D01*
X1647000Y1579000D02*
X1668000Y1600000D01*
X1705000D01*
X1617150Y1788150D02*
X2010000D01*
X2186656Y1803000D02*
X2183189Y1809808D01*
X2057000Y1936000D01*
Y1968500D01*
X2072000Y1983500D01*
X2102500D01*
X2752000Y1980000D01*
X2801000Y1931000D01*
Y1152000D01*
X2755000Y1106000D01*
X2494000D01*
X2450000Y1150000D01*
X2535472Y1243528D02*
Y1275000D01*
X2465000D01*
X2445000Y1255000D01*
X2535472Y1243528D02*
X2544000Y1235000D01*
X2752000D01*
X2771090Y1254090D01*
Y1897910D01*
X2708000Y1961000D01*
X2083000D01*
X2029500Y1980000D02*
X2069500Y2020000D01*
X2430000D01*
X2496000D01*
X2534362Y2058362D01*
Y2141000D01*
Y2164000D01*
X2504000D01*
X2493000Y2175000D01*
Y2296000D01*
X2501528D01*
X2554836Y2295164D02*
Y2336000D01*
X2544836Y2346000D01*
X2501528D01*
Y2396000D02*
X2544000D01*
X2550528Y2389472D01*
X2593362D01*
Y2358000D01*
X2598362Y2353000D01*
Y2322150D01*
X2554836Y2295164D02*
X2576000Y2274000D01*
X2626150D01*
X2658000Y2242150D01*
X2711512D01*
Y2212512D01*
X2664000Y2165000D01*
Y2086000D01*
X2730000Y2020000D01*
X2598362Y2215850D02*
Y2179944D01*
X2593418Y2175000D01*
Y2141000D01*
X2598362Y2215850D02*
X2562150D01*
X2559000Y2219000D01*
X2524662D01*
X2418362D02*
Y2233000D01*
Y2432000D01*
Y2527362D01*
X2437000Y2546000D01*
X2501528D01*
Y2596000D02*
X2523000D01*
X2565000Y2554000D01*
X2588362D01*
X2556000Y2481000D02*
X2638000D01*
X2655000Y2464000D01*
Y2414000D01*
X2706512Y2362488D01*
Y2322070D01*
Y2455930D02*
Y2499000D01*
X2694662Y2510850D01*
Y2554000D01*
X2665000Y2599000D02*
X2826000D01*
X2906066Y2518934D01*
X2732000Y2705000D02*
Y2752000D01*
X2711000Y2773000D01*
X2546000D01*
X2369000Y2596000D01*
X2312552D01*
Y2546000D02*
X2368000D01*
X2553066Y2731066D01*
X2693934D01*
X2732000Y2705000D02*
X2626000Y2599000D01*
Y2512000D01*
X2642000Y2528000D01*
Y2576000D01*
X2665000Y2599000D01*
X2626000Y2512000D02*
X2610000Y2496000D01*
X2501528D01*
X2546000Y2471000D02*
X2556000Y2481000D01*
X2546000Y2471000D02*
X2457362D01*
X2418362Y2432000D01*
X2312552Y2546000D02*
X2277000D01*
X2259000Y2564000D01*
X2224662D01*
X2219528Y2475000D02*
X2226000Y2463000D01*
X2263000D01*
X2280000Y2446000D01*
X2312552D01*
Y2496000D02*
X2365000D01*
X2381000Y2480000D01*
Y2287000D01*
X2352000Y2258000D01*
X2176000D01*
X2167512Y2266488D01*
Y2296000D01*
X2128150D01*
X2127000Y2297150D01*
X2088362D01*
X2054150Y2233000D02*
X2418362D01*
X2366000Y2346000D02*
Y2408000D01*
X2355000Y2419000D01*
X2275000D01*
X2259000Y2435000D01*
X2136000D01*
X2128000Y2443000D01*
Y2498000D01*
X2112000Y2514000D01*
X2035472D01*
X2025472Y2504000D01*
Y2475000D01*
X2084528D02*
Y2449362D01*
X2118890Y2415000D01*
Y2391000D01*
X2226568Y2296000D02*
X2312552D01*
Y2346000D01*
X2366000D01*
X2312552Y2396000D02*
X2271000D01*
X2266000Y2391000D01*
X2225190D01*
Y2356190D01*
X2216000Y2347000D01*
X2064000D01*
X2052890Y2358110D01*
Y2389000D01*
X2054150Y2233000D02*
X2012000Y2190850D01*
X1996512D01*
X1965622D01*
X1942000Y2214472D01*
X1911512D01*
X1887040Y2367850D02*
X1872850D01*
X1850000Y2345000D01*
X1610000D01*
X1560000D01*
X1552000Y2353000D01*
Y2487000D01*
X1560000Y2495000D01*
X1610000D01*
Y2545000D01*
X1655000D01*
X1656000Y2546000D01*
X1702512D01*
X1761566D02*
X1832512D01*
Y2528678D01*
X1887040Y2474150D01*
X1993000Y2437000D02*
Y2547850D01*
X2008890D01*
X2084528Y2449362D02*
Y2437000D01*
X1993000D01*
X1891566Y2546000D02*
Y2595434D01*
X1886000Y2601000D01*
X1502000D01*
X1484000Y2619000D01*
X1486940Y2654150D02*
X2008890D01*
X2193000Y2643000D02*
X2216000Y2666000D01*
X2309644Y2720000D02*
Y2752644D01*
X2441000Y2884000D01*
X2309644Y2720000D02*
X2193000Y2603356D01*
Y2643000D01*
Y2603356D02*
Y2496000D01*
X2226000Y2463000D01*
X2286000Y2731000D02*
X2119000D01*
X2000000Y2850000D01*
X1703890Y2466000D02*
X1667000D01*
X1646000Y2445000D01*
X1610000D01*
Y2395000D02*
X1658000Y2391000D01*
X1701000D01*
X1700740Y2206000D02*
X1674000D01*
X1635000Y2245000D01*
X1610000D01*
X1552000D01*
X1531000Y2224000D01*
Y1984000D01*
X1484000Y1937000D01*
X1413000D01*
X1412000Y1938000D01*
Y2116000D01*
X1489332Y2193332D01*
Y2325668D01*
X1470000Y2345000D01*
X1421024D01*
Y2395000D02*
X1370566D01*
X1326566Y2351000D01*
Y2332500D01*
X1336320D01*
X1345820Y2323000D01*
X1468332D01*
X1474332Y2317000D01*
Y2224332D01*
X1440000Y2190000D01*
X1281500D01*
X1328968Y2256000D02*
X1291000D01*
X1235000Y2312000D01*
Y2384000D01*
X1243000Y2392000D01*
X1322190D01*
X1330190Y2400000D01*
Y2436000D01*
X1371000D01*
X1380000Y2445000D01*
X1421024D01*
Y2495000D02*
X1374850D01*
X1362000Y2507850D01*
X1317040D01*
X1285150D01*
X1272000Y2521000D01*
X1240662D01*
X1376000Y2545000D02*
X1421000D01*
Y2588210D01*
X1486940Y2654150D01*
X1421000Y2651000D02*
X1184000D01*
X1134362Y2601362D01*
Y2521000D01*
Y2464204D01*
X1191566Y2407000D01*
Y2351000D01*
X1132512D02*
X1090110D01*
X1052040Y2389070D01*
X1132512Y2272000D02*
X1148512Y2256000D01*
X1195110D01*
X1246000D01*
X1277000Y2225000D01*
X1364000D01*
X1384000Y2245000D01*
X1421024D01*
Y2295000D02*
X1420024Y2296000D01*
X1335000D01*
X1412000Y2116000D02*
X1281000Y1985000D01*
X1150000D01*
X1318150Y1748150D02*
X1352000D01*
X1376000Y1724150D01*
Y1679000D01*
X1422134D01*
X1508000D01*
X1617150Y1788150D01*
X1611110Y1579000D02*
X1647000D01*
X1422134Y1629000D02*
X1375850D01*
X1363000Y1641850D01*
X1318150D01*
X1286150D01*
X1273000Y1655000D01*
X1241772D01*
X1450000Y1985000D02*
X1516000Y2051000D01*
Y2275000D01*
X1536000Y2295000D01*
X1610000D01*
X1654000D01*
X1655000Y2296000D01*
X1699362D01*
X1831000Y1921000D02*
X2006000Y2096000D01*
X2402000D01*
X2695772Y1688000D02*
Y1644850D01*
X2707622Y1633000D01*
Y1589930D01*
X2635408Y1424000D02*
X2683258Y1376150D01*
X2712622D01*
X2635408Y1424000D02*
X2556000D01*
Y1440000D01*
X2502638Y1430000D02*
X2446000D01*
X2420000Y1404000D01*
X2525772Y1353000D02*
Y1349850D01*
X2599472D01*
Y1313944D01*
X2594528Y1309000D01*
Y1275000D01*
X2090000Y1856000D02*
X2029500Y1916500D01*
Y1980000D01*
X1992000Y1722000D02*
X1976000D01*
X1952000Y1698000D01*
Y1462804D01*
X1831000Y1921000D02*
X1386000D01*
X1132512Y2272000D02*
Y2351000D01*
X1359000Y2562000D02*
X1376000Y2545000D01*
X1359000Y2562000D02*
Y2614150D01*
X1317040D01*
X1421000Y2545000D02*
X1421024D01*
X1134362Y2521000D02*
X1093930D01*
X1092000Y2522930D01*
X1052040D01*
D25*
X1635000Y1145000D02*
D03*
X1935000D02*
D03*
X2145000Y1255000D02*
D03*
X2445000D02*
D03*
X2730000Y1885000D02*
D03*
Y2020000D02*
D03*
X2430000D02*
D03*
Y1885000D02*
D03*
X2906066Y2518934D02*
D03*
X2693934Y2731066D02*
D03*
X1450000Y1985000D02*
D03*
X1150000D02*
D03*
D26*
X1450000Y1150000D02*
D03*
X2250000D02*
D03*
X2350000D02*
D03*
X2450000D02*
D03*
X2550000D02*
D03*
X2650000D02*
D03*
X2850000Y1600000D02*
D03*
Y1700000D02*
D03*
Y2100000D02*
D03*
Y2400000D02*
D03*
X2100000Y2850000D02*
D03*
X2000000D02*
D03*
X1900000D02*
D03*
X1800000D02*
D03*
D27*
X2850000Y1500000D02*
D03*
Y2000000D02*
D03*
Y2300000D02*
D03*
D28*
X1350000Y1150000D02*
D03*
X2150000D02*
D03*
X2200000Y2850000D02*
D03*
D29*
X1100000Y1100000D02*
D03*
X2900000D02*
D03*
Y2900000D02*
D03*
X1100000D02*
D03*
D30*
X1524000Y1443000D02*
D03*
X1658000Y1354000D02*
D03*
X1698000Y1539000D02*
D03*
X1498000Y1530000D02*
D03*
X1439000Y1839000D02*
D03*
X1386000Y1921000D02*
D03*
X1568000Y2094000D02*
D03*
X1335000Y2296000D02*
D03*
X1270000Y2351000D02*
D03*
X1281500Y2190000D02*
D03*
X1701000Y2391000D02*
D03*
X1905000Y2081000D02*
D03*
X2083000Y1961000D02*
D03*
X2090000Y1856000D02*
D03*
X2186656Y1803000D02*
D03*
X2189418Y1654000D02*
D03*
X2158000Y1606000D02*
D03*
X2345000Y1837000D02*
D03*
X2402000Y2096000D02*
D03*
X2157000Y2199000D02*
D03*
X1992000Y1722000D02*
D03*
X1989000Y1638000D02*
D03*
X1996000Y1430000D02*
D03*
X2074000Y1332000D02*
D03*
X2252000Y1242000D02*
D03*
X2200000Y1078000D02*
D03*
X2420000Y1404000D02*
D03*
X2501000Y1576000D02*
D03*
X2728000Y1272000D02*
D03*
X2216000Y2666000D02*
D03*
X2286000Y2731000D02*
D03*
X2441000Y2884000D02*
D03*
X1484000Y2619000D02*
D03*
X1421000Y2651000D02*
D03*
D31*
X1233252Y1494000D02*
D03*
X1264748D02*
D03*
D32*
X1330078Y1390000D02*
D03*
X1196220D02*
D03*
X1328968Y2256000D02*
D03*
X1195110D02*
D03*
D33*
X1053150Y1523070D02*
D03*
Y1656930D02*
D03*
X1052040Y2389070D02*
D03*
Y2522930D02*
D03*
D34*
X1912622Y1348472D02*
D03*
Y1407528D02*
D03*
X2594472Y1523472D02*
D03*
Y1582528D02*
D03*
X1911512Y2214472D02*
D03*
Y2273528D02*
D03*
X2593362Y2389472D02*
D03*
Y2448528D02*
D03*
%TF.MD5,c7f743f88c6156beb2839ebf98f7d5de*%
M02*
