G04 Layer_Color=65535*
%FSLAX26Y26*%
%MOIN*%
%TF.FileFunction,Legend,Top*%
%TF.Part,Single*%
G01*
G75*
%TA.AperFunction,NonConductor*%
%ADD28C,0.015748*%
%ADD29C,0.009842*%
%ADD30C,0.023622*%
%ADD31C,0.007874*%
%ADD32C,0.005000*%
%ADD33C,0.010000*%
%ADD34C,0.020000*%
D28*
X2213937Y2491929D02*
G03*
X2213937Y2491929I-7874J0D01*
G01*
X1608937D02*
G03*
X1608937Y2491929I-7874J0D01*
G01*
X2508937Y2835079D02*
G03*
X2508937Y2835079I-7874J0D01*
G01*
X1528937D02*
G03*
X1528937Y2835079I-7874J0D01*
G01*
D29*
X2120433Y2533465D02*
G03*
X2120433Y2533465I-4921J0D01*
G01*
X1515433D02*
G03*
X1515433Y2533465I-4921J0D01*
G01*
X2415433Y2876614D02*
G03*
X2415433Y2876614I-4921J0D01*
G01*
X1435433D02*
G03*
X1435433Y2876614I-4921J0D01*
G01*
X1792598Y1177953D02*
G03*
X1792598Y1177953I-4921J0D01*
G01*
X2582598Y1324173D02*
G03*
X2582598Y1324173I-4921J0D01*
G01*
X1762480Y2059961D02*
G03*
X1762480Y2059961I-4921J0D01*
G01*
D30*
X1855984Y2005827D02*
G03*
X1855984Y2005827I-11811J0D01*
G01*
D31*
X2700000Y1100000D02*
Y1200000D01*
X2100000Y1100000D02*
Y1200000D01*
X2700000D01*
X2100000Y1100000D02*
X2700000D01*
X2250000Y2800000D02*
Y2900000D01*
X1750000Y2800000D02*
X2250000D01*
X1750000Y2900000D02*
X2250000D01*
X1750000Y2800000D02*
Y2900000D01*
X2900000Y1450000D02*
Y1750000D01*
X2800000D02*
X2900000D01*
X2800000Y1450000D02*
Y1750000D01*
Y1450000D02*
X2900000D01*
X2800000Y2550000D02*
X2900000D01*
Y2350000D02*
Y2550000D01*
X2800000Y2350000D02*
X2900000D01*
X2800000D02*
Y2550000D01*
Y2150000D02*
X2900000D01*
Y1950000D02*
Y2150000D01*
X2800000Y1950000D02*
X2900000D01*
X2800000D02*
Y2150000D01*
X2174566Y2326574D02*
X2245434D01*
X2174566Y2523426D02*
X2245434D01*
Y2326574D02*
Y2523426D01*
X2174566Y2326574D02*
Y2523426D01*
X1939252Y1530472D02*
X1970748D01*
X1939252Y1589528D02*
X1970748D01*
X2199252Y2294528D02*
X2230748D01*
X2199252Y2235472D02*
X2230748D01*
X2439252Y2379528D02*
X2470748D01*
X2439252Y2320472D02*
X2470748D01*
X2384252Y2294528D02*
X2415748D01*
X2384252Y2235472D02*
X2415748D01*
X1594252Y2294528D02*
X1625748D01*
X1594252Y2235472D02*
X1625748D01*
X1834252Y2379528D02*
X1865748D01*
X1834252Y2320472D02*
X1865748D01*
X1779252Y2294528D02*
X1810748D01*
X1779252Y2235472D02*
X1810748D01*
X1569566Y2326574D02*
X1640434D01*
X1569566Y2523426D02*
X1640434D01*
Y2326574D02*
Y2523426D01*
X1569566Y2326574D02*
Y2523426D01*
X2594252Y2959528D02*
X2625748D01*
X2594252Y2900472D02*
X2625748D01*
X2374252D02*
X2405748D01*
X2374252Y2959528D02*
X2405748D01*
X2280472Y2749252D02*
Y2780748D01*
X2339528Y2749252D02*
Y2780748D01*
X2469566Y2669724D02*
X2540434D01*
X2469566Y2866574D02*
X2540434D01*
Y2669724D02*
Y2866574D01*
X2469566Y2669724D02*
Y2866574D01*
X1394252Y2900472D02*
X1425748D01*
X1394252Y2959528D02*
X1425748D01*
X1614252D02*
X1645748D01*
X1614252Y2900472D02*
X1645748D01*
X1300472Y2749252D02*
Y2780748D01*
X1359528Y2749252D02*
Y2780748D01*
X1489566Y2669724D02*
X1560434D01*
X1489566Y2866574D02*
X1560434D01*
Y2669724D02*
Y2866574D01*
X1489566Y2669724D02*
Y2866574D01*
X1855472Y1231102D02*
Y1262598D01*
X1914528Y1231102D02*
Y1262598D01*
X1689252Y1396378D02*
X1720748D01*
X1689252Y1337322D02*
X1720748D01*
X1689252Y1156378D02*
X1720748D01*
X1689252Y1097322D02*
X1720748D01*
X1738464Y1185826D02*
Y1307874D01*
X1671536Y1185826D02*
Y1307874D01*
Y1185826D02*
X1738464D01*
X1671536Y1307874D02*
X1738464D01*
X2619252Y1282598D02*
X2650748D01*
X2619252Y1223544D02*
X2650748D01*
X2645472Y1377322D02*
Y1408818D01*
X2704528Y1377322D02*
Y1408818D01*
X2339252Y1542598D02*
X2370748D01*
X2339252Y1483544D02*
X2370748D01*
X2179566Y1450158D02*
X2187440D01*
X2179566Y1335984D02*
X2187440D01*
X2242560D02*
X2250434D01*
X2242560Y1450158D02*
X2250434D01*
X2179566Y1412756D02*
X2250434D01*
Y1335984D02*
Y1450158D01*
X2179566Y1335984D02*
Y1450158D01*
X2439252Y1223544D02*
X2470748D01*
X2439252Y1282598D02*
X2470748D01*
X2285472Y1337322D02*
Y1368818D01*
X2344528Y1337322D02*
Y1368818D01*
X2519252Y1483544D02*
X2550748D01*
X2519252Y1542598D02*
X2550748D01*
X2528464Y1332048D02*
Y1454094D01*
X2461536Y1332048D02*
Y1454094D01*
Y1332048D02*
X2528464D01*
X2461536Y1454094D02*
X2528464D01*
X1200000Y1270000D02*
Y1300000D01*
Y1270000D02*
X1400000D01*
Y1330000D01*
X1200000D02*
X1400000D01*
X1200000Y1300000D02*
Y1330000D01*
X1400000Y1300000D02*
X1409000D01*
X1191000D02*
X1200000D01*
X1300000Y2120000D02*
Y2150000D01*
Y2120000D02*
X1500000D01*
Y2180000D01*
X1300000D02*
X1500000D01*
X1300000Y2150000D02*
Y2180000D01*
X1500000Y2150000D02*
X1509000D01*
X1291000D02*
X1300000D01*
X2450000Y1970000D02*
Y2000000D01*
Y1970000D02*
X2650000D01*
Y2030000D01*
X2450000D02*
X2650000D01*
X2450000Y2000000D02*
Y2030000D01*
X2650000Y2000000D02*
X2659000D01*
X2441000D02*
X2450000D01*
X2650000Y2100000D02*
Y2130000D01*
X2450000D02*
X2650000D01*
X2450000Y2070000D02*
Y2130000D01*
Y2070000D02*
X2650000D01*
Y2100000D01*
X2441000D02*
X2450000D01*
X2650000D02*
X2659000D01*
X1300000Y2020000D02*
Y2050000D01*
Y2020000D02*
X1500000D01*
Y2080000D01*
X1300000D02*
X1500000D01*
X1300000Y2050000D02*
Y2080000D01*
X1500000Y2050000D02*
X1509000D01*
X1291000D02*
X1300000D01*
Y1920000D02*
Y1950000D01*
Y1920000D02*
X1500000D01*
Y1980000D01*
X1300000D02*
X1500000D01*
X1300000Y1950000D02*
Y1980000D01*
X1500000Y1950000D02*
X1509000D01*
X1291000D02*
X1300000D01*
X1500000Y1100000D02*
Y1200000D01*
X1300000Y1100000D02*
X1500000D01*
X1300000D02*
Y1200000D01*
X1500000D01*
X1804804Y1694804D02*
X2155196D01*
X1804804Y2045196D02*
X2155196D01*
Y1694804D02*
Y2045196D01*
X1804804Y1694804D02*
Y2045196D01*
D32*
X2478000Y1400064D02*
Y1383403D01*
X2481332Y1380071D01*
X2487997D01*
X2491329Y1383403D01*
Y1400064D01*
X2497994D02*
X2511323D01*
Y1396732D01*
X2497994Y1383403D01*
Y1380071D01*
X1688000Y1253844D02*
Y1237183D01*
X1691332Y1233850D01*
X1697997D01*
X1701329Y1237183D01*
Y1253844D01*
X1721322D02*
X1714658Y1250512D01*
X1707994Y1243847D01*
Y1237183D01*
X1711326Y1233850D01*
X1717990D01*
X1721322Y1237183D01*
Y1240515D01*
X1717990Y1243847D01*
X1707994D01*
X1512000Y2780704D02*
Y2767374D01*
X1514666Y2764709D01*
X1519997D01*
X1522663Y2767374D01*
Y2780704D01*
X1535992Y2764709D02*
Y2780704D01*
X1527995Y2772706D01*
X1538658D01*
X2492000Y2781144D02*
Y2767815D01*
X2494666Y2765150D01*
X2499997D01*
X2502663Y2767815D01*
Y2781144D01*
X2515992Y2765150D02*
Y2781144D01*
X2507995Y2773147D01*
X2518658D01*
X1588000Y2439994D02*
Y2423332D01*
X1591332Y2420000D01*
X1597997D01*
X1601329Y2423332D01*
Y2439994D01*
X1607994Y2436661D02*
X1611326Y2439994D01*
X1617990D01*
X1621322Y2436661D01*
Y2433329D01*
X1617990Y2429997D01*
X1614658D01*
X1617990D01*
X1621322Y2426664D01*
Y2423332D01*
X1617990Y2420000D01*
X1611326D01*
X1607994Y2423332D01*
X2193000Y2439994D02*
Y2423332D01*
X2196332Y2420000D01*
X2202997D01*
X2206329Y2423332D01*
Y2439994D01*
X2212994Y2436661D02*
X2216326Y2439994D01*
X2222990D01*
X2226323Y2436661D01*
Y2433329D01*
X2222990Y2429997D01*
X2219658D01*
X2222990D01*
X2226323Y2426664D01*
Y2423332D01*
X2222990Y2420000D01*
X2216326D01*
X2212994Y2423332D01*
X1280000Y1293000D02*
Y1307995D01*
X1287498D01*
X1289997Y1305496D01*
Y1300498D01*
X1287498Y1297998D01*
X1280000D01*
X1284998D02*
X1289997Y1293000D01*
X1294995Y1305496D02*
X1297494Y1307995D01*
X1302493D01*
X1304992Y1305496D01*
Y1302997D01*
X1302493Y1300498D01*
X1299994D01*
X1302493D01*
X1304992Y1297998D01*
Y1295499D01*
X1302493Y1293000D01*
X1297494D01*
X1294995Y1295499D01*
X1309990Y1305496D02*
X1312490Y1307995D01*
X1317488D01*
X1319987Y1305496D01*
Y1302997D01*
X1317488Y1300498D01*
X1314989D01*
X1317488D01*
X1319987Y1297998D01*
Y1295499D01*
X1317488Y1293000D01*
X1312490D01*
X1309990Y1295499D01*
X1380000Y2143000D02*
Y2157995D01*
X1387498D01*
X1389997Y2155496D01*
Y2150498D01*
X1387498Y2147998D01*
X1380000D01*
X1384998D02*
X1389997Y2143000D01*
X1394995Y2155496D02*
X1397494Y2157995D01*
X1402493D01*
X1404992Y2155496D01*
Y2152997D01*
X1402493Y2150498D01*
X1399994D01*
X1402493D01*
X1404992Y2147998D01*
Y2145499D01*
X1402493Y2143000D01*
X1397494D01*
X1394995Y2145499D01*
X1419987Y2143000D02*
X1409990D01*
X1419987Y2152997D01*
Y2155496D01*
X1417488Y2157995D01*
X1412490D01*
X1409990Y2155496D01*
X2533000Y1993000D02*
Y2007995D01*
X2540498D01*
X2542997Y2005496D01*
Y2000498D01*
X2540498Y1997998D01*
X2533000D01*
X2537998D02*
X2542997Y1993000D01*
X2547995Y2005496D02*
X2550494Y2007995D01*
X2555493D01*
X2557992Y2005496D01*
Y2002997D01*
X2555493Y2000498D01*
X2552994D01*
X2555493D01*
X2557992Y1997998D01*
Y1995499D01*
X2555493Y1993000D01*
X2550494D01*
X2547995Y1995499D01*
X2562990Y1993000D02*
X2567989D01*
X2565490D01*
Y2007995D01*
X2562990Y2005496D01*
X2530000Y2093000D02*
Y2107995D01*
X2537498D01*
X2539997Y2105496D01*
Y2100498D01*
X2537498Y2097998D01*
X2530000D01*
X2534998D02*
X2539997Y2093000D01*
X2544995Y2105496D02*
X2547494Y2107995D01*
X2552493D01*
X2554992Y2105496D01*
Y2102997D01*
X2552493Y2100498D01*
X2549994D01*
X2552493D01*
X2554992Y2097998D01*
Y2095499D01*
X2552493Y2093000D01*
X2547494D01*
X2544995Y2095499D01*
X2559990Y2105496D02*
X2562490Y2107995D01*
X2567488D01*
X2569987Y2105496D01*
Y2095499D01*
X2567488Y2093000D01*
X2562490D01*
X2559990Y2095499D01*
Y2105496D01*
X1380000Y1943000D02*
Y1957995D01*
X1387498D01*
X1389997Y1955496D01*
Y1950498D01*
X1387498Y1947998D01*
X1380000D01*
X1384998D02*
X1389997Y1943000D01*
X1404992D02*
X1394995D01*
X1404992Y1952997D01*
Y1955496D01*
X1402493Y1957995D01*
X1397494D01*
X1394995Y1955496D01*
X1409990Y1945499D02*
X1412490Y1943000D01*
X1417488D01*
X1419987Y1945499D01*
Y1955496D01*
X1417488Y1957995D01*
X1412490D01*
X1409990Y1955496D01*
Y1952997D01*
X1412490Y1950498D01*
X1419987D01*
X1380000Y2043000D02*
Y2057995D01*
X1387498D01*
X1389997Y2055496D01*
Y2050498D01*
X1387498Y2047998D01*
X1380000D01*
X1384998D02*
X1389997Y2043000D01*
X1404992D02*
X1394995D01*
X1404992Y2052997D01*
Y2055496D01*
X1402493Y2057995D01*
X1397494D01*
X1394995Y2055496D01*
X1409990D02*
X1412490Y2057995D01*
X1417488D01*
X1419987Y2055496D01*
Y2052997D01*
X1417488Y2050498D01*
X1419987Y2047998D01*
Y2045499D01*
X1417488Y2043000D01*
X1412490D01*
X1409990Y2045499D01*
Y2047998D01*
X1412490Y2050498D01*
X1409990Y2052997D01*
Y2055496D01*
X1412490Y2050498D02*
X1417488D01*
X2515000Y1506071D02*
Y1521066D01*
X2522498D01*
X2524997Y1518567D01*
Y1513569D01*
X2522498Y1511069D01*
X2515000D01*
X2519999D02*
X2524997Y1506071D01*
X2539992D02*
X2529995D01*
X2539992Y1516068D01*
Y1518567D01*
X2537493Y1521066D01*
X2532495D01*
X2529995Y1518567D01*
X2544991Y1521066D02*
X2554987D01*
Y1518567D01*
X2544991Y1508570D01*
Y1506071D01*
X2295000Y1346071D02*
Y1361066D01*
X2302498D01*
X2304997Y1358567D01*
Y1353569D01*
X2302498Y1351069D01*
X2295000D01*
X2299999D02*
X2304997Y1346071D01*
X2319992D02*
X2309995D01*
X2319992Y1356068D01*
Y1358567D01*
X2317493Y1361066D01*
X2312495D01*
X2309995Y1358567D01*
X2334987Y1361066D02*
X2329989Y1358567D01*
X2324991Y1353569D01*
Y1348570D01*
X2327490Y1346071D01*
X2332488D01*
X2334987Y1348570D01*
Y1351069D01*
X2332488Y1353569D01*
X2324991D01*
X2435000Y1246071D02*
Y1261066D01*
X2442498D01*
X2444997Y1258567D01*
Y1253569D01*
X2442498Y1251069D01*
X2435000D01*
X2439999D02*
X2444997Y1246071D01*
X2459992D02*
X2449995D01*
X2459992Y1256068D01*
Y1258567D01*
X2457493Y1261066D01*
X2452495D01*
X2449995Y1258567D01*
X2474987Y1261066D02*
X2464991D01*
Y1253569D01*
X2469989Y1256068D01*
X2472488D01*
X2474987Y1253569D01*
Y1248570D01*
X2472488Y1246071D01*
X2467490D01*
X2464991Y1248570D01*
X1685000Y1119850D02*
Y1134846D01*
X1692498D01*
X1694997Y1132346D01*
Y1127348D01*
X1692498Y1124849D01*
X1685000D01*
X1689999D02*
X1694997Y1119850D01*
X1709992D02*
X1699995D01*
X1709992Y1129847D01*
Y1132346D01*
X1707493Y1134846D01*
X1702495D01*
X1699995Y1132346D01*
X1722488Y1119850D02*
Y1134846D01*
X1714991Y1127348D01*
X1724987D01*
X1935000Y1553000D02*
Y1567995D01*
X1942498D01*
X1944997Y1565496D01*
Y1560498D01*
X1942498Y1557998D01*
X1935000D01*
X1939998D02*
X1944997Y1553000D01*
X1959992D02*
X1949995D01*
X1959992Y1562997D01*
Y1565496D01*
X1957493Y1567995D01*
X1952494D01*
X1949995Y1565496D01*
X1964990D02*
X1967490Y1567995D01*
X1972488D01*
X1974987Y1565496D01*
Y1562997D01*
X1972488Y1560498D01*
X1969989D01*
X1972488D01*
X1974987Y1557998D01*
Y1555499D01*
X1972488Y1553000D01*
X1967490D01*
X1964990Y1555499D01*
X1310000Y2757709D02*
Y2772704D01*
X1317497D01*
X1319997Y2770205D01*
Y2765206D01*
X1317497Y2762707D01*
X1310000D01*
X1314998D02*
X1319997Y2757709D01*
X1334992D02*
X1324995D01*
X1334992Y2767706D01*
Y2770205D01*
X1332493Y2772704D01*
X1327494D01*
X1324995Y2770205D01*
X1349987Y2757709D02*
X1339990D01*
X1349987Y2767706D01*
Y2770205D01*
X1347488Y2772704D01*
X1342489D01*
X1339990Y2770205D01*
X2290000Y2757150D02*
Y2772145D01*
X2297498D01*
X2299997Y2769646D01*
Y2764647D01*
X2297498Y2762148D01*
X2290000D01*
X2294998D02*
X2299997Y2757150D01*
X2314992D02*
X2304995D01*
X2314992Y2767146D01*
Y2769646D01*
X2312493Y2772145D01*
X2307494D01*
X2304995Y2769646D01*
X2329987Y2757150D02*
X2319990D01*
X2329987Y2767146D01*
Y2769646D01*
X2327488Y2772145D01*
X2322490D01*
X2319990Y2769646D01*
X1613000Y2922709D02*
Y2937704D01*
X1620497D01*
X1622997Y2935205D01*
Y2930206D01*
X1620497Y2927707D01*
X1613000D01*
X1617998D02*
X1622997Y2922709D01*
X1637992D02*
X1627995D01*
X1637992Y2932706D01*
Y2935205D01*
X1635493Y2937704D01*
X1630494D01*
X1627995Y2935205D01*
X1642990Y2922709D02*
X1647989D01*
X1645489D01*
Y2937704D01*
X1642990Y2935205D01*
X2593000Y2922150D02*
Y2937145D01*
X2600498D01*
X2602997Y2934646D01*
Y2929647D01*
X2600498Y2927148D01*
X2593000D01*
X2597998D02*
X2602997Y2922150D01*
X2617992D02*
X2607995D01*
X2617992Y2932146D01*
Y2934646D01*
X2615493Y2937145D01*
X2610494D01*
X2607995Y2934646D01*
X2622990Y2922150D02*
X2627989D01*
X2625490D01*
Y2937145D01*
X2622990Y2934646D01*
X1390000Y2922709D02*
Y2937704D01*
X1397497D01*
X1399997Y2935205D01*
Y2930206D01*
X1397497Y2927707D01*
X1390000D01*
X1394998D02*
X1399997Y2922709D01*
X1414992D02*
X1404995D01*
X1414992Y2932706D01*
Y2935205D01*
X1412493Y2937704D01*
X1407494D01*
X1404995Y2935205D01*
X1419990D02*
X1422489Y2937704D01*
X1427488D01*
X1429987Y2935205D01*
Y2925208D01*
X1427488Y2922709D01*
X1422489D01*
X1419990Y2925208D01*
Y2935205D01*
X2370000Y2922150D02*
Y2937145D01*
X2377498D01*
X2379997Y2934646D01*
Y2929647D01*
X2377498Y2927148D01*
X2370000D01*
X2374998D02*
X2379997Y2922150D01*
X2394992D02*
X2384995D01*
X2394992Y2932146D01*
Y2934646D01*
X2392493Y2937145D01*
X2387494D01*
X2384995Y2934646D01*
X2399990D02*
X2402490Y2937145D01*
X2407488D01*
X2409987Y2934646D01*
Y2924649D01*
X2407488Y2922150D01*
X2402490D01*
X2399990Y2924649D01*
Y2934646D01*
X1776000Y2258000D02*
Y2272995D01*
X1783498D01*
X1785997Y2270496D01*
Y2265498D01*
X1783498Y2262998D01*
X1776000D01*
X1780998D02*
X1785997Y2258000D01*
X1790995D02*
X1795994D01*
X1793494D01*
Y2272995D01*
X1790995Y2270496D01*
X1803491Y2260499D02*
X1805990Y2258000D01*
X1810989D01*
X1813488Y2260499D01*
Y2270496D01*
X1810989Y2272995D01*
X1805990D01*
X1803491Y2270496D01*
Y2267997D01*
X1805990Y2265498D01*
X1813488D01*
X2381000Y2258000D02*
Y2272995D01*
X2388498D01*
X2390997Y2270496D01*
Y2265498D01*
X2388498Y2262998D01*
X2381000D01*
X2385998D02*
X2390997Y2258000D01*
X2395995D02*
X2400994D01*
X2398494D01*
Y2272995D01*
X2395995Y2270496D01*
X2408491Y2260499D02*
X2410990Y2258000D01*
X2415989D01*
X2418488Y2260499D01*
Y2270496D01*
X2415989Y2272995D01*
X2410990D01*
X2408491Y2270496D01*
Y2267997D01*
X2410990Y2265498D01*
X2418488D01*
X1831000Y2343000D02*
Y2357995D01*
X1838498D01*
X1840997Y2355496D01*
Y2350498D01*
X1838498Y2347998D01*
X1831000D01*
X1835998D02*
X1840997Y2343000D01*
X1845995D02*
X1850994D01*
X1848494D01*
Y2357995D01*
X1845995Y2355496D01*
X1858491D02*
X1860990Y2357995D01*
X1865989D01*
X1868488Y2355496D01*
Y2352997D01*
X1865989Y2350498D01*
X1868488Y2347998D01*
Y2345499D01*
X1865989Y2343000D01*
X1860990D01*
X1858491Y2345499D01*
Y2347998D01*
X1860990Y2350498D01*
X1858491Y2352997D01*
Y2355496D01*
X1860990Y2350498D02*
X1865989D01*
X2436000Y2343000D02*
Y2357995D01*
X2443498D01*
X2445997Y2355496D01*
Y2350498D01*
X2443498Y2347998D01*
X2436000D01*
X2440998D02*
X2445997Y2343000D01*
X2450995D02*
X2455994D01*
X2453494D01*
Y2357995D01*
X2450995Y2355496D01*
X2463491D02*
X2465990Y2357995D01*
X2470989D01*
X2473488Y2355496D01*
Y2352997D01*
X2470989Y2350498D01*
X2473488Y2347998D01*
Y2345499D01*
X2470989Y2343000D01*
X2465990D01*
X2463491Y2345499D01*
Y2347998D01*
X2465990Y2350498D01*
X2463491Y2352997D01*
Y2355496D01*
X2465990Y2350498D02*
X2470989D01*
X1591000Y2258000D02*
Y2272995D01*
X1598498D01*
X1600997Y2270496D01*
Y2265498D01*
X1598498Y2262998D01*
X1591000D01*
X1595998D02*
X1600997Y2258000D01*
X1605995D02*
X1610994D01*
X1608494D01*
Y2272995D01*
X1605995Y2270496D01*
X1618491Y2272995D02*
X1628488D01*
Y2270496D01*
X1618491Y2260499D01*
Y2258000D01*
X2196000D02*
Y2272995D01*
X2203498D01*
X2205997Y2270496D01*
Y2265498D01*
X2203498Y2262998D01*
X2196000D01*
X2200998D02*
X2205997Y2258000D01*
X2210995D02*
X2215994D01*
X2213494D01*
Y2272995D01*
X2210995Y2270496D01*
X2223491Y2272995D02*
X2233488D01*
Y2270496D01*
X2223491Y2260499D01*
Y2258000D01*
X2389000Y1243064D02*
Y1223071D01*
X2402329D01*
X2422323D02*
X2408994D01*
X2422323Y1236400D01*
Y1239732D01*
X2418990Y1243064D01*
X2412326D01*
X2408994Y1239732D01*
X1532000Y1340844D02*
Y1320850D01*
X1545329D01*
X1551994D02*
X1558658D01*
X1555326D01*
Y1340844D01*
X1551994Y1337512D01*
X2344997Y1518567D02*
X2342498Y1521066D01*
X2337499D01*
X2335000Y1518567D01*
Y1508570D01*
X2337499Y1506071D01*
X2342498D01*
X2344997Y1508570D01*
X2359992Y1506071D02*
X2349995D01*
X2359992Y1516068D01*
Y1518567D01*
X2357493Y1521066D01*
X2352495D01*
X2349995Y1518567D01*
X2364991D02*
X2367490Y1521066D01*
X2372488D01*
X2374987Y1518567D01*
Y1516068D01*
X2372488Y1513569D01*
X2369989D01*
X2372488D01*
X2374987Y1511069D01*
Y1508570D01*
X2372488Y1506071D01*
X2367490D01*
X2364991Y1508570D01*
X2664997Y1398567D02*
X2662498Y1401066D01*
X2657499D01*
X2655000Y1398567D01*
Y1388570D01*
X2657499Y1386071D01*
X2662498D01*
X2664997Y1388570D01*
X2679992Y1386071D02*
X2669995D01*
X2679992Y1396068D01*
Y1398567D01*
X2677493Y1401066D01*
X2672495D01*
X2669995Y1398567D01*
X2694987Y1386071D02*
X2684991D01*
X2694987Y1396068D01*
Y1398567D01*
X2692488Y1401066D01*
X2687490D01*
X2684991Y1398567D01*
X2627997Y1258567D02*
X2625498Y1261066D01*
X2620499D01*
X2618000Y1258567D01*
Y1248570D01*
X2620499Y1246071D01*
X2625498D01*
X2627997Y1248570D01*
X2642992Y1246071D02*
X2632995D01*
X2642992Y1256068D01*
Y1258567D01*
X2640493Y1261066D01*
X2635495D01*
X2632995Y1258567D01*
X2647991Y1246071D02*
X2652989D01*
X2650490D01*
Y1261066D01*
X2647991Y1258567D01*
X1694997Y1372346D02*
X1692498Y1374846D01*
X1687499D01*
X1685000Y1372346D01*
Y1362350D01*
X1687499Y1359850D01*
X1692498D01*
X1694997Y1362350D01*
X1709992Y1359850D02*
X1699995D01*
X1709992Y1369847D01*
Y1372346D01*
X1707493Y1374846D01*
X1702495D01*
X1699995Y1372346D01*
X1714991D02*
X1717490Y1374846D01*
X1722488D01*
X1724987Y1372346D01*
Y1362350D01*
X1722488Y1359850D01*
X1717490D01*
X1714991Y1362350D01*
Y1372346D01*
X1875997Y1252346D02*
X1873498Y1254846D01*
X1868499D01*
X1866000Y1252346D01*
Y1242350D01*
X1868499Y1239850D01*
X1873498D01*
X1875997Y1242350D01*
X1880995Y1239850D02*
X1885994D01*
X1883495D01*
Y1254846D01*
X1880995Y1252346D01*
X1893491Y1242350D02*
X1895991Y1239850D01*
X1900989D01*
X1903488Y1242350D01*
Y1252346D01*
X1900989Y1254846D01*
X1895991D01*
X1893491Y1252346D01*
Y1249847D01*
X1895991Y1247348D01*
X1903488D01*
D33*
X2106000Y1234000D02*
Y1293981D01*
X2135990D01*
X2145987Y1283984D01*
Y1263990D01*
X2135990Y1253994D01*
X2106000D01*
X2205968Y1293981D02*
X2185974Y1283984D01*
X2165981Y1263990D01*
Y1243997D01*
X2175977Y1234000D01*
X2195971D01*
X2205968Y1243997D01*
Y1253994D01*
X2195971Y1263990D01*
X2165981D01*
X1756000Y2934000D02*
Y2993981D01*
X1785990D01*
X1795987Y2983984D01*
Y2963990D01*
X1785990Y2953994D01*
X1756000D01*
X1855968Y2993981D02*
X1815981D01*
Y2963990D01*
X1835974Y2973987D01*
X1845971D01*
X1855968Y2963990D01*
Y2943997D01*
X1845971Y2934000D01*
X1825977D01*
X1815981Y2943997D01*
X2806500Y1783500D02*
Y1843481D01*
X2836490D01*
X2846487Y1833484D01*
Y1813490D01*
X2836490Y1803494D01*
X2806500D01*
X2896471Y1783500D02*
Y1843481D01*
X2866481Y1813490D01*
X2906468D01*
X2806500Y2583500D02*
Y2643481D01*
X2836490D01*
X2846487Y2633484D01*
Y2613490D01*
X2836490Y2603494D01*
X2806500D01*
X2866481Y2633484D02*
X2876477Y2643481D01*
X2896471D01*
X2906468Y2633484D01*
Y2623487D01*
X2896471Y2613490D01*
X2886474D01*
X2896471D01*
X2906468Y2603494D01*
Y2593497D01*
X2896471Y2583500D01*
X2876477D01*
X2866481Y2593497D01*
X2806500Y2183500D02*
Y2243481D01*
X2836490D01*
X2846487Y2233484D01*
Y2213490D01*
X2836490Y2203494D01*
X2806500D01*
X2906468Y2183500D02*
X2866481D01*
X2906468Y2223487D01*
Y2233484D01*
X2896471Y2243481D01*
X2876477D01*
X2866481Y2233484D01*
X1186000Y1120000D02*
Y1179981D01*
X1215990D01*
X1225987Y1169984D01*
Y1149990D01*
X1215990Y1139994D01*
X1186000D01*
X1245981Y1120000D02*
X1265974D01*
X1255977D01*
Y1179981D01*
X1245981Y1169984D01*
D34*
X1855000Y1820000D02*
Y1919968D01*
X1904984D01*
X1921645Y1903306D01*
Y1869984D01*
X1904984Y1853323D01*
X1855000D01*
X1954968Y1919968D02*
X1988290D01*
X1971629D01*
Y1820000D01*
X1954968D01*
X1988290D01*
X2104919Y1903306D02*
X2088258Y1919968D01*
X2054935D01*
X2038274Y1903306D01*
Y1836661D01*
X2054935Y1820000D01*
X2088258D01*
X2104919Y1836661D01*
%TF.MD5,5bd5e1eae257f081aec62450a686dd31*%
M02*
