G04 Layer_Physical_Order=1*
G04 Layer_Color=255*
%FSLAX26Y26*%
%MOIN*%
%TF.FileFunction,Copper,L1,Top,Signal*%
%TF.Part,Single*%
G01*
G75*
%TA.AperFunction,SMDPad,CuDef*%
G04:AMPARAMS|DCode=10|XSize=21.654mil|YSize=62.992mil|CornerRadius=0mil|HoleSize=0mil|Usage=FLASHONLY|Rotation=45.000|XOffset=0mil|YOffset=0mil|HoleType=Round|Shape=Round|*
%AMOVALD10*
21,1,0.041339,0.021654,0.000000,0.000000,135.0*
1,1,0.021654,0.014615,-0.014615*
1,1,0.021654,-0.014615,0.014615*
%
%ADD10OVALD10*%

G04:AMPARAMS|DCode=11|XSize=21.654mil|YSize=62.992mil|CornerRadius=0mil|HoleSize=0mil|Usage=FLASHONLY|Rotation=135.000|XOffset=0mil|YOffset=0mil|HoleType=Round|Shape=Round|*
%AMOVALD11*
21,1,0.041339,0.021654,0.000000,0.000000,225.0*
1,1,0.021654,0.014615,0.014615*
1,1,0.021654,-0.014615,-0.014615*
%
%ADD11OVALD11*%

G04:AMPARAMS|DCode=12|XSize=66.929mil|YSize=43.307mil|CornerRadius=0mil|HoleSize=0mil|Usage=FLASHONLY|Rotation=135.000|XOffset=0mil|YOffset=0mil|HoleType=Round|Shape=Rectangle|*
%AMROTATEDRECTD12*
4,1,4,0.038974,-0.008352,0.008352,-0.038974,-0.038974,0.008352,-0.008352,0.038974,0.038974,-0.008352,0.0*
%
%ADD12ROTATEDRECTD12*%

%ADD13R,0.043307X0.055118*%
%ADD14R,0.035433X0.031496*%
%ADD15R,0.031496X0.035433*%
G04:AMPARAMS|DCode=16|XSize=55.118mil|YSize=43.307mil|CornerRadius=0mil|HoleSize=0mil|Usage=FLASHONLY|Rotation=45.000|XOffset=0mil|YOffset=0mil|HoleType=Round|Shape=Rectangle|*
%AMROTATEDRECTD16*
4,1,4,-0.004176,-0.034799,-0.034799,-0.004176,0.004176,0.034799,0.034799,0.004176,-0.004176,-0.034799,0.0*
%
%ADD16ROTATEDRECTD16*%

%ADD17O,0.086614X0.023622*%
%ADD18R,0.043307X0.066929*%
%ADD19R,0.066929X0.043307*%
%ADD20O,0.017716X0.066929*%
%ADD21O,0.066929X0.017716*%
%ADD22R,0.033465X0.062992*%
%ADD23O,0.023622X0.086614*%
%TA.AperFunction,Conductor*%
%ADD24C,0.010000*%
%TA.AperFunction,ViaPad*%
%ADD25C,0.100000*%
%TA.AperFunction,ComponentPad*%
%ADD26R,0.059055X0.059055*%
%ADD27C,0.059055*%
%ADD28R,0.059055X0.059055*%
%ADD29C,0.055118*%
%TA.AperFunction,ViaPad*%
%ADD30C,0.025000*%
G36*
X3000000Y1000000D02*
X1000000D01*
Y1475000D01*
Y3000000D01*
X3000000D01*
Y1000000D01*
D02*
G37*
%LPC*%
G36*
X1233000Y1880843D02*
X1226172Y1879485D01*
X1220383Y1875617D01*
X1216515Y1869828D01*
X1215157Y1863000D01*
X1216223Y1857642D01*
X1085790Y1727210D01*
X1083580Y1723902D01*
X1082804Y1720000D01*
Y1575472D01*
X1083149Y1573736D01*
Y1548819D01*
X1130165D01*
X1132712Y1547116D01*
X1136614Y1546340D01*
X1221630D01*
X1225532Y1547116D01*
X1228840Y1549326D01*
X1256117Y1576603D01*
X1259817Y1577340D01*
X1264401Y1580402D01*
X1267464Y1584986D01*
X1268540Y1590394D01*
Y1639606D01*
X1267464Y1645014D01*
X1264401Y1649598D01*
X1262415Y1650925D01*
X1261462Y1657043D01*
X1278277Y1673858D01*
X1321418D01*
Y1750786D01*
X1268111D01*
Y1692530D01*
X1244241Y1668660D01*
X1209960D01*
X1206058Y1667884D01*
X1202750Y1665674D01*
X1200540Y1662366D01*
X1199764Y1658464D01*
Y1653047D01*
X1197821Y1652660D01*
X1193237Y1649598D01*
X1192655Y1648726D01*
X1187679Y1648236D01*
X1166677Y1669238D01*
X1168591Y1673858D01*
X1215118D01*
Y1750786D01*
X1161811D01*
Y1750196D01*
X1144148D01*
X1142235Y1754815D01*
X1232647Y1845227D01*
X1233000Y1845157D01*
X1239828Y1846515D01*
X1245617Y1850383D01*
X1249485Y1856172D01*
X1250843Y1863000D01*
X1249485Y1869828D01*
X1245617Y1875617D01*
X1239828Y1879485D01*
X1233000Y1880843D01*
D02*
G37*
G36*
X1871663Y1843512D02*
X1865488Y1842284D01*
X1860253Y1838786D01*
X1831022Y1809555D01*
X1827524Y1804320D01*
X1826296Y1798145D01*
X1826581Y1796712D01*
X1812957Y1783088D01*
X1804176Y1791870D01*
X1758130Y1745824D01*
X1795824Y1708130D01*
X1841870Y1754176D01*
X1827376Y1768669D01*
X1841000Y1782293D01*
X1842433Y1782008D01*
X1844781Y1782475D01*
X1849033Y1778223D01*
X1848566Y1775873D01*
X1849794Y1769697D01*
X1853292Y1764462D01*
X1858527Y1760964D01*
X1864703Y1759736D01*
X1867053Y1760203D01*
X1871305Y1755951D01*
X1870838Y1753603D01*
X1872066Y1747427D01*
X1875564Y1742192D01*
X1880799Y1738694D01*
X1886975Y1737466D01*
X1889323Y1737933D01*
X1893575Y1733681D01*
X1893108Y1731331D01*
X1894336Y1725155D01*
X1897834Y1719920D01*
X1903069Y1716422D01*
X1909245Y1715194D01*
X1911595Y1715661D01*
X1915847Y1711409D01*
X1915380Y1709061D01*
X1916608Y1702885D01*
X1920106Y1697650D01*
X1925341Y1694152D01*
X1931517Y1692924D01*
X1937692Y1694152D01*
X1942927Y1697650D01*
X1972158Y1726881D01*
X1975656Y1732116D01*
X1976884Y1738291D01*
X1975656Y1744467D01*
X1972158Y1749702D01*
X1966923Y1753200D01*
X1960747Y1754428D01*
X1958397Y1753961D01*
X1954145Y1758213D01*
X1954612Y1760561D01*
X1953384Y1766737D01*
X1949886Y1771972D01*
X1944651Y1775470D01*
X1938475Y1776698D01*
X1936127Y1776231D01*
X1931875Y1780483D01*
X1932342Y1782833D01*
X1931114Y1789009D01*
X1927616Y1794244D01*
X1922381Y1797742D01*
X1916205Y1798970D01*
X1913855Y1798503D01*
X1909603Y1802755D01*
X1910070Y1805103D01*
X1908842Y1811279D01*
X1905344Y1816514D01*
X1900109Y1820012D01*
X1893933Y1821240D01*
X1891585Y1820773D01*
X1887333Y1825025D01*
X1887800Y1827375D01*
X1886572Y1833551D01*
X1883074Y1838786D01*
X1877839Y1842284D01*
X1871663Y1843512D01*
D02*
G37*
G36*
X1330000Y1502843D02*
X1323172Y1501485D01*
X1317383Y1497617D01*
X1313515Y1491828D01*
X1312157Y1485000D01*
X1313515Y1478172D01*
X1317383Y1472383D01*
X1323172Y1468515D01*
X1330000Y1467157D01*
X1336828Y1468515D01*
X1342617Y1472383D01*
X1346485Y1478172D01*
X1347843Y1485000D01*
X1346485Y1491828D01*
X1342617Y1497617D01*
X1336828Y1501485D01*
X1330000Y1502843D01*
D02*
G37*
G36*
X1450000Y2017840D02*
X1441500Y2016721D01*
X1433580Y2013440D01*
X1426779Y2008221D01*
X1421560Y2001420D01*
X1418279Y1993500D01*
X1417160Y1985000D01*
X1418279Y1976500D01*
X1421560Y1968580D01*
X1426779Y1961779D01*
X1433580Y1956560D01*
X1441500Y1953279D01*
X1450000Y1952160D01*
X1458500Y1953279D01*
X1466420Y1956560D01*
X1473221Y1961779D01*
X1478440Y1968580D01*
X1481721Y1976500D01*
X1482840Y1985000D01*
X1481721Y1993500D01*
X1478440Y2001420D01*
X1473221Y2008221D01*
X1466420Y2013440D01*
X1458500Y2016721D01*
X1450000Y2017840D01*
D02*
G37*
G36*
X1150000D02*
X1141500Y2016721D01*
X1133580Y2013440D01*
X1126779Y2008221D01*
X1121560Y2001420D01*
X1118279Y1993500D01*
X1117160Y1985000D01*
X1118279Y1976500D01*
X1121560Y1968580D01*
X1126779Y1961779D01*
X1133580Y1956560D01*
X1141500Y1953279D01*
X1150000Y1952160D01*
X1158500Y1953279D01*
X1166420Y1956560D01*
X1173221Y1961779D01*
X1178440Y1968580D01*
X1181721Y1976500D01*
X1182840Y1985000D01*
X1181721Y1993500D01*
X1178440Y2001420D01*
X1173221Y2008221D01*
X1166420Y2013440D01*
X1158500Y2016721D01*
X1150000Y2017840D01*
D02*
G37*
G36*
X2430000Y1917840D02*
X2421500Y1916721D01*
X2413580Y1913440D01*
X2406779Y1908221D01*
X2401560Y1901420D01*
X2398279Y1893500D01*
X2397160Y1885000D01*
X2398279Y1876500D01*
X2401560Y1868580D01*
X2406779Y1861779D01*
X2413580Y1856560D01*
X2421500Y1853279D01*
X2430000Y1852160D01*
X2438500Y1853279D01*
X2446420Y1856560D01*
X2453221Y1861779D01*
X2458440Y1868580D01*
X2461721Y1876500D01*
X2462840Y1885000D01*
X2461721Y1893500D01*
X2458440Y1901420D01*
X2453221Y1908221D01*
X2446420Y1913440D01*
X2438500Y1916721D01*
X2430000Y1917840D01*
D02*
G37*
G36*
X1579803Y1553465D02*
X1526496D01*
Y1476535D01*
X1577195D01*
X1640868Y1412863D01*
Y1371496D01*
X1641644Y1367594D01*
X1643854Y1364286D01*
X1665350Y1342790D01*
X1668658Y1340580D01*
X1672560Y1339804D01*
X1674910D01*
X1674930Y1339773D01*
X1679514Y1336710D01*
X1684922Y1335634D01*
X1734134D01*
X1737439Y1336292D01*
X1791496Y1282234D01*
Y1236732D01*
X1759539D01*
X1738504Y1257767D01*
Y1308465D01*
X1685197D01*
Y1280196D01*
X1669803D01*
Y1308465D01*
X1616497D01*
X1616497Y1308465D01*
Y1308465D01*
X1612932Y1311488D01*
X1584695Y1339724D01*
X1584974Y1342554D01*
X1595210Y1352790D01*
X1597420Y1356098D01*
X1598196Y1360000D01*
Y1426536D01*
X1597420Y1430438D01*
X1595210Y1433746D01*
X1591902Y1435956D01*
X1588000Y1436732D01*
X1585127D01*
X1584649Y1437210D01*
X1582877Y1438394D01*
X1581342Y1439420D01*
X1581341Y1439420D01*
X1581341Y1439420D01*
X1579287Y1439828D01*
X1577440Y1440196D01*
X1571142D01*
X1568780Y1440666D01*
X1519568D01*
X1514160Y1439590D01*
X1509576Y1436527D01*
X1506514Y1431943D01*
X1505438Y1426536D01*
X1504177Y1425000D01*
X1300000D01*
Y1475000D01*
X1268391D01*
X1267464Y1479659D01*
X1264401Y1484244D01*
X1259817Y1487306D01*
X1254410Y1488382D01*
X1249003Y1487306D01*
X1244419Y1484244D01*
X1244114Y1483787D01*
X1239114D01*
X1238809Y1484244D01*
X1234225Y1487306D01*
X1228818Y1488382D01*
X1223411Y1487306D01*
X1218827Y1484244D01*
X1215764Y1479659D01*
X1214837Y1475000D01*
X1200000D01*
Y1300000D01*
X1300000D01*
Y1100000D01*
X1400000D01*
X1400000Y1225000D01*
X1575000D01*
Y1314048D01*
X1579619Y1315961D01*
X1616496Y1279084D01*
Y1231535D01*
X1669803D01*
Y1259804D01*
X1685197D01*
Y1231535D01*
X1735897D01*
X1748107Y1219326D01*
X1751414Y1217116D01*
X1755316Y1216340D01*
X1866536D01*
X1870438Y1217116D01*
X1873746Y1219326D01*
X1889616Y1235197D01*
X1933465D01*
Y1288504D01*
X1883326D01*
X1821732Y1350097D01*
Y1389566D01*
X1778268D01*
Y1330834D01*
X1773648Y1328921D01*
X1746766Y1355803D01*
X1744126Y1359755D01*
X1739542Y1362818D01*
X1734134Y1363894D01*
X1684922D01*
X1679514Y1362818D01*
X1676305Y1360674D01*
X1661260Y1375719D01*
Y1402576D01*
X1665879Y1404489D01*
X1671131Y1399237D01*
X1671868Y1395537D01*
X1674930Y1390953D01*
X1679514Y1387890D01*
X1684922Y1386814D01*
X1734134D01*
X1739542Y1387890D01*
X1744126Y1390953D01*
X1747188Y1395537D01*
X1748264Y1400944D01*
X1747188Y1406351D01*
X1744126Y1410935D01*
X1743669Y1411240D01*
Y1416240D01*
X1744126Y1416545D01*
X1747188Y1421129D01*
X1747293Y1421654D01*
X1856535D01*
Y1405197D01*
X1933465D01*
Y1458504D01*
X1856535D01*
Y1442046D01*
X1721850D01*
X1717948Y1441270D01*
X1717044Y1440666D01*
X1692878D01*
X1690964Y1445285D01*
X1711113Y1465434D01*
X1740158D01*
Y1510867D01*
X1717617D01*
X1714944Y1515867D01*
X1716485Y1518172D01*
X1717843Y1525000D01*
X1716485Y1531828D01*
X1712617Y1537617D01*
X1706828Y1541485D01*
X1700000Y1542843D01*
X1693172Y1541485D01*
X1687383Y1537617D01*
X1683515Y1531828D01*
X1682157Y1525000D01*
X1683515Y1518172D01*
X1687383Y1512383D01*
X1693172Y1508515D01*
X1698662Y1507423D01*
Y1481821D01*
X1658854Y1442014D01*
X1656644Y1438706D01*
X1655868Y1434804D01*
Y1433234D01*
X1651249Y1431321D01*
X1579803Y1502766D01*
Y1553465D01*
D02*
G37*
G36*
X1635000Y1177840D02*
X1626500Y1176721D01*
X1618580Y1173440D01*
X1611779Y1168221D01*
X1606560Y1161420D01*
X1603279Y1153500D01*
X1602160Y1145000D01*
X1603279Y1136500D01*
X1606560Y1128580D01*
X1611779Y1121779D01*
X1618580Y1116560D01*
X1626500Y1113279D01*
X1635000Y1112160D01*
X1643500Y1113279D01*
X1651420Y1116560D01*
X1658221Y1121779D01*
X1663440Y1128580D01*
X1666721Y1136500D01*
X1667840Y1145000D01*
X1666721Y1153500D01*
X1663440Y1161420D01*
X1658221Y1168221D01*
X1651420Y1173440D01*
X1643500Y1176721D01*
X1635000Y1177840D01*
D02*
G37*
G36*
X2900000Y1155475D02*
X2885642Y1153584D01*
X2872263Y1148042D01*
X2860773Y1139226D01*
X2851958Y1127737D01*
X2846416Y1114358D01*
X2844525Y1100000D01*
X2846416Y1085642D01*
X2851958Y1072263D01*
X2860773Y1060774D01*
X2872263Y1051958D01*
X2885642Y1046416D01*
X2900000Y1044525D01*
X2914358Y1046416D01*
X2927737Y1051958D01*
X2939227Y1060774D01*
X2948042Y1072263D01*
X2953584Y1085642D01*
X2955475Y1100000D01*
X2953584Y1114358D01*
X2948042Y1127737D01*
X2939227Y1139226D01*
X2927737Y1148042D01*
X2914358Y1153584D01*
X2900000Y1155475D01*
D02*
G37*
G36*
X1100000D02*
X1085642Y1153584D01*
X1072263Y1148042D01*
X1060774Y1139226D01*
X1051958Y1127737D01*
X1046416Y1114358D01*
X1044525Y1100000D01*
X1046416Y1085642D01*
X1051958Y1072263D01*
X1060774Y1060774D01*
X1072263Y1051958D01*
X1085642Y1046416D01*
X1100000Y1044525D01*
X1114358Y1046416D01*
X1127737Y1051958D01*
X1139226Y1060774D01*
X1148042Y1072263D01*
X1153584Y1085642D01*
X1155475Y1100000D01*
X1153584Y1114358D01*
X1148042Y1127737D01*
X1139226Y1139226D01*
X1127737Y1148042D01*
X1114358Y1153584D01*
X1100000Y1155475D01*
D02*
G37*
G36*
X2712622Y1352843D02*
X2705794Y1351485D01*
X2700005Y1347617D01*
X2696137Y1341828D01*
X2694779Y1335000D01*
X2696137Y1328172D01*
X2700005Y1322383D01*
X2705794Y1318515D01*
X2712622Y1317157D01*
X2719450Y1318515D01*
X2725239Y1322383D01*
X2726856Y1324804D01*
X2747777D01*
X2787804Y1284777D01*
Y1212234D01*
X2785383Y1210617D01*
X2781515Y1204828D01*
X2780157Y1198000D01*
X2781515Y1191172D01*
X2785383Y1185383D01*
X2791172Y1181515D01*
X2798000Y1180157D01*
X2804828Y1181515D01*
X2810617Y1185383D01*
X2814485Y1191172D01*
X2815843Y1198000D01*
X2814485Y1204828D01*
X2810617Y1210617D01*
X2808196Y1212234D01*
Y1289000D01*
X2807420Y1292902D01*
X2805210Y1296210D01*
X2759210Y1342210D01*
X2755902Y1344420D01*
X2752000Y1345196D01*
X2726856D01*
X2725239Y1347617D01*
X2719450Y1351485D01*
X2712622Y1352843D01*
D02*
G37*
G36*
X2650000Y1184825D02*
X2640986Y1183639D01*
X2632587Y1180160D01*
X2625375Y1174625D01*
X2619840Y1167413D01*
X2616361Y1159014D01*
X2615175Y1150000D01*
X2616361Y1140986D01*
X2619840Y1132587D01*
X2625375Y1125375D01*
X2632587Y1119840D01*
X2640986Y1116361D01*
X2650000Y1115175D01*
X2659014Y1116361D01*
X2667413Y1119840D01*
X2674625Y1125375D01*
X2680160Y1132587D01*
X2683639Y1140986D01*
X2684825Y1150000D01*
X2683639Y1159014D01*
X2680160Y1167413D01*
X2674625Y1174625D01*
X2667413Y1180160D01*
X2659014Y1183639D01*
X2650000Y1184825D01*
D02*
G37*
G36*
X1935000Y1177840D02*
X1926500Y1176721D01*
X1918580Y1173440D01*
X1911779Y1168221D01*
X1906560Y1161420D01*
X1903279Y1153500D01*
X1902160Y1145000D01*
X1903279Y1136500D01*
X1906560Y1128580D01*
X1911779Y1121779D01*
X1918580Y1116560D01*
X1926500Y1113279D01*
X1935000Y1112160D01*
X1943500Y1113279D01*
X1951420Y1116560D01*
X1958221Y1121779D01*
X1963440Y1128580D01*
X1966721Y1136500D01*
X1967840Y1145000D01*
X1966721Y1153500D01*
X1963440Y1161420D01*
X1958221Y1168221D01*
X1951420Y1173440D01*
X1943500Y1176721D01*
X1935000Y1177840D01*
D02*
G37*
G36*
X2906066Y2551774D02*
X2897566Y2550655D01*
X2889646Y2547374D01*
X2882845Y2542155D01*
X2877626Y2535354D01*
X2874345Y2527434D01*
X2873226Y2518934D01*
X2874345Y2510434D01*
X2877626Y2502514D01*
X2882845Y2495713D01*
X2889646Y2490494D01*
X2895870Y2487916D01*
Y2060289D01*
X2870108Y2034527D01*
X2815472D01*
Y1965473D01*
X2884528D01*
Y2020108D01*
X2913276Y2048856D01*
X2915486Y2052164D01*
X2916262Y2056066D01*
Y2487916D01*
X2922486Y2490494D01*
X2929287Y2495713D01*
X2934506Y2502514D01*
X2937787Y2510434D01*
X2938906Y2518934D01*
X2937787Y2527434D01*
X2934506Y2535354D01*
X2929287Y2542155D01*
X2922486Y2547374D01*
X2914566Y2550655D01*
X2906066Y2551774D01*
D02*
G37*
G36*
X2668000Y2910196D02*
X2522000D01*
X2518098Y2909420D01*
X2514790Y2907210D01*
X2501990Y2894409D01*
X2468818D01*
Y2829291D01*
X2481276D01*
Y2812240D01*
X2479352Y2810954D01*
X2475636Y2805393D01*
X2474332Y2798834D01*
Y2735842D01*
X2475636Y2729283D01*
X2479352Y2723722D01*
X2484913Y2720006D01*
X2491472Y2718702D01*
X2498031Y2720006D01*
X2503592Y2723722D01*
X2507308Y2729283D01*
X2508612Y2735842D01*
Y2798834D01*
X2507308Y2805393D01*
X2505668Y2807847D01*
Y2829291D01*
X2522126D01*
Y2885706D01*
X2526223Y2889804D01*
X2663777D01*
X2693725Y2859856D01*
X2693157Y2857000D01*
X2694515Y2850172D01*
X2698383Y2844383D01*
X2704172Y2840515D01*
X2711000Y2839157D01*
X2717828Y2840515D01*
X2723617Y2844383D01*
X2727485Y2850172D01*
X2728843Y2857000D01*
X2727485Y2863828D01*
X2723617Y2869617D01*
X2717828Y2873485D01*
X2711000Y2874843D01*
X2708144Y2874275D01*
X2675210Y2907210D01*
X2671902Y2909420D01*
X2668000Y2910196D01*
D02*
G37*
G36*
X2541472Y2815974D02*
X2534913Y2814670D01*
X2529352Y2810954D01*
X2525636Y2805393D01*
X2524332Y2798834D01*
Y2735842D01*
X2525636Y2729283D01*
X2529352Y2723722D01*
X2531276Y2722436D01*
Y2707528D01*
X2532052Y2703626D01*
X2534262Y2700318D01*
X2604604Y2629977D01*
X2604240Y2627558D01*
X2598825Y2625164D01*
X2598031Y2625694D01*
X2591472Y2626998D01*
X2584913Y2625694D01*
X2579352Y2621978D01*
X2575636Y2616417D01*
X2574332Y2609858D01*
Y2546866D01*
X2574332Y2546864D01*
Y2503919D01*
X2572383Y2502617D01*
X2568515Y2496828D01*
X2568034Y2494409D01*
X2557874D01*
Y2429291D01*
X2574332D01*
Y2362223D01*
X2570790Y2358682D01*
X2568580Y2355374D01*
X2567804Y2351472D01*
Y2274234D01*
X2565383Y2272617D01*
X2561515Y2266828D01*
X2560157Y2260000D01*
X2561515Y2253172D01*
X2565383Y2247383D01*
X2571172Y2243515D01*
X2578000Y2242157D01*
X2584828Y2243515D01*
X2590617Y2247383D01*
X2594485Y2253172D01*
X2595843Y2260000D01*
X2594485Y2266828D01*
X2590617Y2272617D01*
X2588196Y2274234D01*
Y2347249D01*
X2591738Y2350790D01*
X2593948Y2354098D01*
X2594724Y2358000D01*
Y2429291D01*
X2606804D01*
Y2101223D01*
X2488856Y1983275D01*
X2486000Y1983843D01*
X2482315Y1983110D01*
X2478056Y1987294D01*
X2478196Y1988000D01*
Y2038000D01*
X2477420Y2041902D01*
X2475210Y2045210D01*
X2455210Y2065210D01*
X2451902Y2067420D01*
X2448000Y2068196D01*
X2344000D01*
X2340098Y2067420D01*
X2336790Y2065210D01*
X2284587Y2013006D01*
X2264816D01*
X2262902Y2017625D01*
X2286736Y2041459D01*
X2290234Y2046694D01*
X2291462Y2052869D01*
X2290234Y2059045D01*
X2286736Y2064280D01*
X2281501Y2067778D01*
X2275325Y2069006D01*
X2272977Y2068539D01*
X2268725Y2072791D01*
X2269192Y2075141D01*
X2267964Y2081317D01*
X2264466Y2086552D01*
X2259231Y2090050D01*
X2253055Y2091278D01*
X2250705Y2090811D01*
X2246453Y2095063D01*
X2246920Y2097411D01*
X2245692Y2103587D01*
X2242194Y2108822D01*
X2236959Y2112320D01*
X2230783Y2113548D01*
X2228435Y2113081D01*
X2224183Y2117333D01*
X2224650Y2119683D01*
X2223422Y2125859D01*
X2219924Y2131094D01*
X2214689Y2134592D01*
X2208513Y2135820D01*
X2206163Y2135353D01*
X2201911Y2139605D01*
X2202378Y2141953D01*
X2201150Y2148129D01*
X2198402Y2152242D01*
X2197695Y2153709D01*
X2198338Y2158919D01*
X2204187Y2164768D01*
X2215824Y2153130D01*
X2249498Y2186804D01*
X2318196D01*
X2319515Y2180172D01*
X2323383Y2174383D01*
X2329172Y2170515D01*
X2336000Y2169157D01*
X2342828Y2170515D01*
X2348617Y2174383D01*
X2352485Y2180172D01*
X2353843Y2187000D01*
X2352485Y2193828D01*
X2348617Y2199617D01*
X2342828Y2203485D01*
X2336000Y2204843D01*
X2333119Y2204270D01*
X2329902Y2206420D01*
X2326000Y2207196D01*
X2253849D01*
X2224176Y2236870D01*
X2193945Y2206639D01*
X2192844Y2206420D01*
X2189536Y2204210D01*
X2165404Y2180077D01*
X2163971Y2180362D01*
X2157796Y2179134D01*
X2152561Y2175636D01*
X2151121Y2174196D01*
X2149356D01*
X2145454Y2173420D01*
X2142146Y2171210D01*
X2139936Y2167902D01*
X2139160Y2164000D01*
Y2162235D01*
X2123330Y2146405D01*
X2119832Y2141170D01*
X2118604Y2134995D01*
X2119832Y2128819D01*
X2123330Y2123584D01*
X2128565Y2120086D01*
X2134741Y2118858D01*
X2137089Y2119325D01*
X2141341Y2115073D01*
X2140874Y2112723D01*
X2142102Y2106547D01*
X2145600Y2101312D01*
X2150835Y2097814D01*
X2157011Y2096586D01*
X2159361Y2097053D01*
X2163613Y2092801D01*
X2163146Y2090453D01*
X2164374Y2084277D01*
X2167872Y2079042D01*
X2173107Y2075544D01*
X2179283Y2074316D01*
X2181631Y2074783D01*
X2185883Y2070531D01*
X2185416Y2068181D01*
X2186644Y2062005D01*
X2190142Y2056770D01*
X2195377Y2053272D01*
X2201553Y2052044D01*
X2203903Y2052511D01*
X2208155Y2048259D01*
X2207688Y2045911D01*
X2208916Y2039735D01*
X2209680Y2038592D01*
X2207917Y2035870D01*
X2206374Y2034540D01*
X2203076Y2035196D01*
X1777486D01*
X1775506Y2038901D01*
X1775307Y2040196D01*
X1776444Y2045911D01*
X1775977Y2048259D01*
X1780229Y2052511D01*
X1782579Y2052044D01*
X1788755Y2053272D01*
X1793990Y2056770D01*
X1797488Y2062005D01*
X1798716Y2068181D01*
X1798249Y2070531D01*
X1802501Y2074783D01*
X1804849Y2074316D01*
X1811025Y2075544D01*
X1816260Y2079042D01*
X1819758Y2084277D01*
X1820986Y2090453D01*
X1820519Y2092801D01*
X1824771Y2097053D01*
X1827121Y2096586D01*
X1833297Y2097814D01*
X1838532Y2101312D01*
X1842030Y2106547D01*
X1843258Y2112723D01*
X1842791Y2115073D01*
X1847043Y2119325D01*
X1849391Y2118858D01*
X1855567Y2120086D01*
X1860802Y2123584D01*
X1864300Y2128819D01*
X1865528Y2134995D01*
X1865061Y2137343D01*
X1869313Y2141595D01*
X1871663Y2141128D01*
X1877839Y2142356D01*
X1883074Y2145854D01*
X1886572Y2151089D01*
X1887800Y2157265D01*
X1887333Y2159615D01*
X1891585Y2163867D01*
X1893933Y2163400D01*
X1900109Y2164628D01*
X1905344Y2168126D01*
X1908842Y2173361D01*
X1910070Y2179537D01*
X1909603Y2181885D01*
X1913855Y2186137D01*
X1916205Y2185670D01*
X1922381Y2186898D01*
X1927616Y2190396D01*
X1931114Y2195631D01*
X1932342Y2201807D01*
X1931875Y2204157D01*
X1936127Y2208409D01*
X1938475Y2207942D01*
X1944651Y2209170D01*
X1949886Y2212668D01*
X1953384Y2217903D01*
X1954612Y2224079D01*
X1954145Y2226429D01*
X1958397Y2230681D01*
X1960747Y2230214D01*
X1966923Y2231442D01*
X1972158Y2234940D01*
X1975656Y2240175D01*
X1976884Y2246351D01*
X1975656Y2252526D01*
X1972158Y2257761D01*
X1942927Y2286992D01*
X1937692Y2290490D01*
X1931517Y2291718D01*
X1925341Y2290490D01*
X1920106Y2286992D01*
X1916608Y2281757D01*
X1915380Y2275581D01*
X1915847Y2273231D01*
X1911595Y2268979D01*
X1909245Y2269446D01*
X1903069Y2268218D01*
X1897834Y2264720D01*
X1894336Y2259485D01*
X1893108Y2253309D01*
X1893575Y2250959D01*
X1889323Y2246707D01*
X1886975Y2247174D01*
X1880799Y2245946D01*
X1875564Y2242448D01*
X1872066Y2237213D01*
X1870838Y2231037D01*
X1871305Y2228689D01*
X1867053Y2224437D01*
X1864703Y2224904D01*
X1858527Y2223676D01*
X1853292Y2220178D01*
X1849794Y2214943D01*
X1848566Y2208767D01*
X1849033Y2206417D01*
X1844781Y2202165D01*
X1842433Y2202632D01*
X1836257Y2201404D01*
X1831022Y2197906D01*
X1827524Y2192671D01*
X1826296Y2186495D01*
X1826763Y2184147D01*
X1822511Y2179895D01*
X1820160Y2180362D01*
X1813985Y2179134D01*
X1808750Y2175636D01*
X1805252Y2170401D01*
X1804024Y2164225D01*
X1804491Y2161875D01*
X1800239Y2157623D01*
X1797891Y2158090D01*
X1791715Y2156862D01*
X1786480Y2153364D01*
X1782982Y2148129D01*
X1781754Y2141953D01*
X1782221Y2139605D01*
X1777969Y2135353D01*
X1775619Y2135820D01*
X1769443Y2134592D01*
X1764208Y2131094D01*
X1760710Y2125859D01*
X1759482Y2119683D01*
X1759949Y2117333D01*
X1755697Y2113081D01*
X1753349Y2113548D01*
X1747173Y2112320D01*
X1741938Y2108822D01*
X1738440Y2103587D01*
X1737212Y2097411D01*
X1737679Y2095063D01*
X1733427Y2090811D01*
X1731076Y2091278D01*
X1724901Y2090050D01*
X1719666Y2086552D01*
X1716168Y2081317D01*
X1714940Y2075141D01*
X1715407Y2072791D01*
X1711155Y2068539D01*
X1708805Y2069006D01*
X1702629Y2067778D01*
X1697394Y2064280D01*
X1693896Y2059045D01*
X1692668Y2052869D01*
X1693896Y2046694D01*
X1697394Y2041459D01*
X1713224Y2025629D01*
Y2025000D01*
X1714000Y2021098D01*
X1716210Y2017790D01*
X1719518Y2015580D01*
X1723420Y2014804D01*
X1724049D01*
X1726625Y2012228D01*
X1731860Y2008730D01*
X1738035Y2007502D01*
X1744211Y2008730D01*
X1749446Y2012228D01*
X1751167Y2014804D01*
X2198853D01*
X2216461Y1997196D01*
X2214390Y1992196D01*
X2158000D01*
X2154098Y1991420D01*
X2150790Y1989210D01*
X2104790Y1943210D01*
X2102580Y1939902D01*
X2101804Y1936000D01*
Y1839284D01*
X2101058Y1838786D01*
X2097560Y1833551D01*
X2096332Y1827375D01*
X2096799Y1825025D01*
X2093462Y1821688D01*
X2087957Y1821764D01*
X2051498Y1858223D01*
Y1969766D01*
X2053919Y1971383D01*
X2057787Y1977172D01*
X2059145Y1984000D01*
X2057787Y1990828D01*
X2053919Y1996617D01*
X2048130Y2000485D01*
X2041302Y2001843D01*
X2034474Y2000485D01*
X2028685Y1996617D01*
X2024817Y1990828D01*
X2023459Y1984000D01*
X2024817Y1977172D01*
X2028685Y1971383D01*
X2031106Y1969766D01*
Y1854000D01*
X2031882Y1850098D01*
X2034092Y1846790D01*
X2074347Y1806536D01*
X2074062Y1805103D01*
X2074529Y1802755D01*
X2070277Y1798503D01*
X2067927Y1798970D01*
X2061751Y1797742D01*
X2056516Y1794244D01*
X2053018Y1789009D01*
X2051790Y1782833D01*
X2052257Y1780483D01*
X2048005Y1776231D01*
X2045657Y1776698D01*
X2039481Y1775470D01*
X2034246Y1771972D01*
X2030748Y1766737D01*
X2029520Y1760561D01*
X2029987Y1758213D01*
X2025735Y1753961D01*
X2023385Y1754428D01*
X2017209Y1753200D01*
X2011974Y1749702D01*
X2008476Y1744467D01*
X2007248Y1738291D01*
X2008476Y1732116D01*
X2011974Y1726881D01*
X2041205Y1697650D01*
X2046440Y1694152D01*
X2052615Y1692924D01*
X2058791Y1694152D01*
X2064026Y1697650D01*
X2067524Y1702885D01*
X2068752Y1709061D01*
X2068285Y1711409D01*
X2072537Y1715661D01*
X2074887Y1715194D01*
X2081063Y1716422D01*
X2086298Y1719920D01*
X2089796Y1725155D01*
X2090750Y1729953D01*
X2094313Y1732708D01*
X2095730Y1733302D01*
X2096804Y1732857D01*
Y1220279D01*
X2088262Y1211738D01*
X2086052Y1208430D01*
X2085276Y1204528D01*
Y1110214D01*
X2080276Y1108143D01*
X1980196Y1208223D01*
Y1570000D01*
X1979420Y1573902D01*
X1977210Y1577210D01*
X1895210Y1659210D01*
X1891902Y1661420D01*
X1888000Y1662196D01*
X1757223D01*
X1719196Y1700223D01*
Y1892389D01*
X1724196Y1895061D01*
X1724901Y1894590D01*
X1731077Y1893362D01*
X1733427Y1893829D01*
X1737679Y1889577D01*
X1737212Y1887229D01*
X1738440Y1881053D01*
X1741938Y1875818D01*
X1747173Y1872320D01*
X1753349Y1871092D01*
X1755697Y1871559D01*
X1759949Y1867307D01*
X1759482Y1864957D01*
X1760710Y1858781D01*
X1764208Y1853546D01*
X1769443Y1850048D01*
X1775619Y1848820D01*
X1777969Y1849287D01*
X1782221Y1845035D01*
X1781754Y1842687D01*
X1782982Y1836511D01*
X1786480Y1831276D01*
X1791715Y1827778D01*
X1797891Y1826550D01*
X1804066Y1827778D01*
X1809301Y1831276D01*
X1838532Y1860507D01*
X1842030Y1865742D01*
X1843258Y1871917D01*
X1842030Y1878093D01*
X1838532Y1883328D01*
X1833297Y1886826D01*
X1827121Y1888054D01*
X1824771Y1887587D01*
X1820519Y1891839D01*
X1820986Y1894187D01*
X1819758Y1900363D01*
X1816260Y1905598D01*
X1811025Y1909096D01*
X1804849Y1910324D01*
X1802501Y1909857D01*
X1798249Y1914109D01*
X1798716Y1916459D01*
X1797488Y1922635D01*
X1793990Y1927870D01*
X1788755Y1931368D01*
X1782579Y1932596D01*
X1780229Y1932129D01*
X1775977Y1936381D01*
X1776444Y1938729D01*
X1775216Y1944905D01*
X1771718Y1950140D01*
X1766483Y1953638D01*
X1760307Y1954866D01*
X1757957Y1954399D01*
X1753705Y1958651D01*
X1754172Y1961001D01*
X1752944Y1967177D01*
X1749446Y1972412D01*
X1744211Y1975910D01*
X1738035Y1977138D01*
X1731860Y1975910D01*
X1726625Y1972412D01*
X1697394Y1943181D01*
X1693896Y1937946D01*
X1692668Y1931771D01*
X1693896Y1925595D01*
X1697394Y1920360D01*
X1698804Y1919418D01*
Y1696000D01*
X1699580Y1692098D01*
X1701790Y1688790D01*
X1745790Y1644790D01*
X1749098Y1642580D01*
X1753000Y1641804D01*
X1883777D01*
X1959804Y1565777D01*
Y1204000D01*
X1960580Y1200098D01*
X1962790Y1196790D01*
X2086318Y1073262D01*
X2089626Y1071052D01*
X2093528Y1070276D01*
X2550472D01*
X2554374Y1071052D01*
X2557682Y1073262D01*
X2597210Y1112790D01*
X2599420Y1116098D01*
X2600196Y1120000D01*
Y1307761D01*
X2782239Y1489804D01*
X2815472D01*
Y1465473D01*
X2884528D01*
Y1534527D01*
X2815472D01*
Y1510196D01*
X2778016D01*
X2774114Y1509420D01*
X2770806Y1507210D01*
X2582790Y1319194D01*
X2580580Y1315886D01*
X2579804Y1311984D01*
Y1175654D01*
X2575069Y1174046D01*
X2574625Y1174625D01*
X2567413Y1180160D01*
X2560196Y1183149D01*
Y1686552D01*
X2559420Y1690454D01*
X2557210Y1693762D01*
X2263357Y1987614D01*
X2265428Y1992614D01*
X2288810D01*
X2292712Y1993390D01*
X2296020Y1995600D01*
X2348223Y2047804D01*
X2405223D01*
X2405826Y2046029D01*
X2406458Y2042804D01*
X2401560Y2036420D01*
X2398279Y2028500D01*
X2397160Y2020000D01*
X2398279Y2011500D01*
X2401560Y2003580D01*
X2406779Y1996779D01*
X2413580Y1991560D01*
X2421500Y1988279D01*
X2430000Y1987160D01*
X2438500Y1988279D01*
X2446420Y1991560D01*
X2450310Y1994545D01*
X2455396Y1993410D01*
X2456069Y1992875D01*
X2456101Y1990521D01*
X2455790Y1990210D01*
X2453580Y1986902D01*
X2452804Y1983000D01*
Y1957000D01*
X2453580Y1953098D01*
X2455790Y1949790D01*
X2712790Y1692790D01*
X2716098Y1690580D01*
X2720000Y1689804D01*
X2816851D01*
X2819840Y1682587D01*
X2825375Y1675375D01*
X2832587Y1669840D01*
X2840986Y1666361D01*
X2850000Y1665175D01*
X2859014Y1666361D01*
X2867413Y1669840D01*
X2874625Y1675375D01*
X2880160Y1682587D01*
X2883639Y1690986D01*
X2884825Y1700000D01*
X2883639Y1709014D01*
X2880160Y1717413D01*
X2874625Y1724625D01*
X2867413Y1730160D01*
X2859014Y1733639D01*
X2850000Y1734825D01*
X2840986Y1733639D01*
X2832587Y1730160D01*
X2825375Y1724625D01*
X2819840Y1717413D01*
X2816851Y1710196D01*
X2724223D01*
X2489969Y1944451D01*
X2491420Y1949235D01*
X2492828Y1949515D01*
X2498617Y1953383D01*
X2502485Y1959172D01*
X2503843Y1966000D01*
X2503275Y1968856D01*
X2624210Y2089790D01*
X2626420Y2093098D01*
X2627196Y2097000D01*
Y2632000D01*
X2626420Y2635902D01*
X2624210Y2639210D01*
X2551668Y2711751D01*
Y2722436D01*
X2553592Y2723722D01*
X2557308Y2729283D01*
X2558612Y2735842D01*
Y2798834D01*
X2557308Y2805393D01*
X2553592Y2810954D01*
X2548031Y2814670D01*
X2541472Y2815974D01*
D02*
G37*
G36*
X1100000Y2955475D02*
X1085642Y2953584D01*
X1072263Y2948042D01*
X1060774Y2939227D01*
X1051958Y2927737D01*
X1046416Y2914358D01*
X1044525Y2900000D01*
X1046416Y2885642D01*
X1051958Y2872263D01*
X1060774Y2860773D01*
X1072263Y2851958D01*
X1085642Y2846416D01*
X1100000Y2844525D01*
X1114358Y2846416D01*
X1127737Y2851958D01*
X1139226Y2860773D01*
X1148042Y2872263D01*
X1153584Y2885642D01*
X1155475Y2900000D01*
X1153584Y2914358D01*
X1148042Y2927737D01*
X1139226Y2939227D01*
X1127737Y2948042D01*
X1114358Y2953584D01*
X1100000Y2955475D01*
D02*
G37*
G36*
X1442126Y2897559D02*
X1388819D01*
Y2832441D01*
X1398332D01*
Y2793390D01*
X1396408Y2792104D01*
X1392692Y2786543D01*
X1391388Y2779984D01*
Y2752196D01*
X1368234D01*
X1366617Y2754617D01*
X1360828Y2758485D01*
X1354000Y2759843D01*
X1347172Y2758485D01*
X1341383Y2754617D01*
X1337515Y2748828D01*
X1336157Y2742000D01*
X1337515Y2735172D01*
X1341383Y2729383D01*
X1347172Y2725515D01*
X1354000Y2724157D01*
X1360828Y2725515D01*
X1366617Y2729383D01*
X1368234Y2731804D01*
X1391388D01*
Y2716992D01*
X1392692Y2710433D01*
X1396408Y2704872D01*
X1401969Y2701156D01*
X1408528Y2699852D01*
X1415087Y2701156D01*
X1420648Y2704872D01*
X1424364Y2710433D01*
X1425668Y2716992D01*
Y2779984D01*
X1424364Y2786543D01*
X1420648Y2792104D01*
X1418724Y2793390D01*
Y2832441D01*
X1442126D01*
Y2897559D01*
D02*
G37*
G36*
X1697000Y2918196D02*
X1594850D01*
X1590948Y2917420D01*
X1587640Y2915210D01*
X1570895Y2898465D01*
X1520197D01*
Y2838668D01*
X1507000D01*
X1503098Y2837892D01*
X1499790Y2835682D01*
X1460784Y2796676D01*
X1458528Y2797124D01*
X1451969Y2795820D01*
X1446408Y2792104D01*
X1442692Y2786543D01*
X1441388Y2779984D01*
Y2716992D01*
X1442692Y2710433D01*
X1446408Y2704872D01*
X1451969Y2701156D01*
X1458528Y2699852D01*
X1465087Y2701156D01*
X1470648Y2704872D01*
X1474364Y2710433D01*
X1475668Y2716992D01*
Y2779984D01*
X1475214Y2782267D01*
X1511223Y2818276D01*
X1546850D01*
X1550752Y2819052D01*
X1554060Y2821262D01*
X1554242Y2821535D01*
X1573504D01*
Y2872234D01*
X1599073Y2897804D01*
X1626496D01*
Y2854916D01*
X1583777Y2812196D01*
X1518528D01*
X1514626Y2811420D01*
X1511318Y2809210D01*
X1501318Y2799210D01*
X1499108Y2795902D01*
X1498651Y2793603D01*
X1496408Y2792104D01*
X1492692Y2786543D01*
X1491388Y2779984D01*
Y2716992D01*
X1492692Y2710433D01*
X1496408Y2704872D01*
X1501969Y2701156D01*
X1508528Y2699852D01*
X1515087Y2701156D01*
X1520648Y2704872D01*
X1524364Y2710433D01*
X1525668Y2716992D01*
Y2779984D01*
X1524364Y2786543D01*
X1524189Y2786804D01*
X1526862Y2791804D01*
X1540904D01*
X1543261Y2787394D01*
X1542692Y2786543D01*
X1541388Y2779984D01*
Y2716992D01*
X1542692Y2710433D01*
X1546408Y2704872D01*
X1551969Y2701156D01*
X1558528Y2699852D01*
X1565087Y2701156D01*
X1570648Y2704872D01*
X1574364Y2710433D01*
X1575668Y2716992D01*
Y2751209D01*
X1596535Y2772076D01*
X1601535Y2770835D01*
Y2756497D01*
X1678465D01*
Y2809803D01*
X1616756D01*
X1614842Y2814423D01*
X1623285Y2822866D01*
X1626497Y2821535D01*
Y2821535D01*
X1677195D01*
X1703940Y2794790D01*
X1707248Y2792580D01*
X1711150Y2791804D01*
X1826000D01*
X1829902Y2792580D01*
X1833210Y2794790D01*
X1867666Y2829246D01*
X1872655Y2828919D01*
X1875375Y2825375D01*
X1882587Y2819840D01*
X1890986Y2816361D01*
X1900000Y2815175D01*
X1909014Y2816361D01*
X1917413Y2819840D01*
X1923859Y2824787D01*
X1927003Y2823893D01*
X1928889Y2822718D01*
X1929262Y2819681D01*
X1903777Y2794196D01*
X1845000D01*
X1841098Y2793420D01*
X1837790Y2791210D01*
X1805790Y2759210D01*
X1803580Y2755902D01*
X1802804Y2752000D01*
Y2544000D01*
X1803580Y2540098D01*
X1805790Y2536790D01*
X1829790Y2512790D01*
X1833098Y2510580D01*
X1837000Y2509804D01*
X1838760D01*
X1840046Y2507880D01*
X1845607Y2504164D01*
X1852166Y2502860D01*
X1915158D01*
X1921717Y2504164D01*
X1927278Y2507880D01*
X1930994Y2513441D01*
X1932298Y2520000D01*
X1930994Y2526559D01*
X1927278Y2532120D01*
X1921717Y2535836D01*
X1915158Y2537140D01*
X1852166D01*
X1845607Y2535836D01*
X1840046Y2532120D01*
X1839366Y2532053D01*
X1823196Y2548223D01*
Y2671535D01*
X1834804D01*
Y2658662D01*
X1835580Y2654760D01*
X1837790Y2651452D01*
X1848363Y2640880D01*
X1846911Y2636095D01*
X1845607Y2635836D01*
X1840046Y2632120D01*
X1836330Y2626559D01*
X1835026Y2620000D01*
X1836330Y2613441D01*
X1840046Y2607880D01*
X1845607Y2604164D01*
X1852166Y2602860D01*
X1873466D01*
Y2587140D01*
X1852166D01*
X1845607Y2585836D01*
X1840046Y2582120D01*
X1836330Y2576559D01*
X1835026Y2570000D01*
X1836330Y2563441D01*
X1840046Y2557880D01*
X1845607Y2554164D01*
X1852166Y2552860D01*
X1915158D01*
X1921717Y2554164D01*
X1927278Y2557880D01*
X1930994Y2563441D01*
X1932298Y2570000D01*
X1930994Y2576559D01*
X1927278Y2582120D01*
X1921717Y2585836D01*
X1915158Y2587140D01*
X1893858D01*
Y2602860D01*
X1915158D01*
X1921717Y2604164D01*
X1927278Y2607880D01*
X1930994Y2613441D01*
X1931670Y2616840D01*
X1937095Y2618486D01*
X1944804Y2610777D01*
Y2502000D01*
X1945580Y2498098D01*
X1947790Y2494790D01*
X2001790Y2440790D01*
X2005098Y2438580D01*
X2009000Y2437804D01*
X2117000D01*
X2120902Y2438580D01*
X2124210Y2440790D01*
X2139686Y2456266D01*
X2141854Y2455945D01*
X2144686Y2454489D01*
Y2420197D01*
X2221615D01*
Y2466883D01*
X2226615Y2469556D01*
X2228172Y2468515D01*
X2235000Y2467157D01*
X2241828Y2468515D01*
X2247617Y2472383D01*
X2251485Y2478172D01*
X2252843Y2485000D01*
X2251485Y2491828D01*
X2247617Y2497617D01*
X2241828Y2501485D01*
X2235278Y2502787D01*
X2234527Y2503926D01*
X2232953Y2507534D01*
X2266804Y2541385D01*
X2271804Y2539314D01*
Y2504000D01*
X2272580Y2500098D01*
X2274790Y2496790D01*
X2312790Y2458790D01*
X2316098Y2456580D01*
X2320000Y2455804D01*
X2320197D01*
Y2428385D01*
X2373503D01*
Y2501804D01*
X2426497D01*
Y2428385D01*
X2479803D01*
Y2480561D01*
X2479902Y2480580D01*
X2483210Y2482790D01*
X2532837Y2532418D01*
X2534913Y2531030D01*
X2541472Y2529726D01*
X2548031Y2531030D01*
X2553592Y2534746D01*
X2557308Y2540307D01*
X2558612Y2546866D01*
Y2609858D01*
X2557308Y2616417D01*
X2553592Y2621978D01*
X2551668Y2623264D01*
Y2624000D01*
X2550892Y2627902D01*
X2548682Y2631210D01*
X2540682Y2639210D01*
X2537374Y2641420D01*
X2533472Y2642196D01*
X2468223D01*
X2421196Y2689223D01*
Y2727613D01*
X2422351Y2728048D01*
X2426196Y2728445D01*
X2429352Y2723722D01*
X2434913Y2720006D01*
X2441472Y2718702D01*
X2448031Y2720006D01*
X2453592Y2723722D01*
X2457308Y2729283D01*
X2458612Y2735842D01*
Y2798834D01*
X2457308Y2805393D01*
X2453592Y2810954D01*
X2451668Y2812240D01*
Y2820000D01*
X2450892Y2823902D01*
X2448682Y2827210D01*
X2445374Y2829420D01*
X2441472Y2830196D01*
X2398465D01*
Y2846653D01*
X2326196D01*
Y2848000D01*
X2325420Y2851902D01*
X2323210Y2855210D01*
X2266682Y2911738D01*
X2263374Y2913948D01*
X2259472Y2914724D01*
X2154000D01*
X2150098Y2913948D01*
X2146790Y2911738D01*
X2138262Y2903210D01*
X2137199Y2901618D01*
X2116230Y2880649D01*
X2109014Y2883639D01*
X2100000Y2884825D01*
X2090986Y2883639D01*
X2082587Y2880160D01*
X2075375Y2874625D01*
X2069840Y2867413D01*
X2066981Y2860510D01*
X2061742Y2858677D01*
X2023210Y2897210D01*
X2019902Y2899420D01*
X2016000Y2900196D01*
X1982000D01*
X1978098Y2899420D01*
X1974790Y2897210D01*
X1938258Y2860677D01*
X1932433Y2861924D01*
X1930160Y2867413D01*
X1924625Y2874625D01*
X1917413Y2880160D01*
X1909014Y2883639D01*
X1900000Y2884825D01*
X1890986Y2883639D01*
X1882587Y2880160D01*
X1875375Y2874625D01*
X1869840Y2867413D01*
X1866361Y2859014D01*
X1866023Y2856442D01*
X1821777Y2812196D01*
X1812023D01*
X1811029Y2817196D01*
X1817413Y2819840D01*
X1824625Y2825375D01*
X1830160Y2832587D01*
X1833639Y2840986D01*
X1834825Y2850000D01*
X1833639Y2859014D01*
X1830160Y2867413D01*
X1824625Y2874625D01*
X1817413Y2880160D01*
X1809014Y2883639D01*
X1800000Y2884825D01*
X1790986Y2883639D01*
X1782587Y2880160D01*
X1775375Y2874625D01*
X1769840Y2867413D01*
X1766851Y2860196D01*
X1759223D01*
X1704210Y2915210D01*
X1700902Y2917420D01*
X1697000Y2918196D01*
D02*
G37*
G36*
X2693934Y2763906D02*
X2685434Y2762787D01*
X2677514Y2759506D01*
X2670713Y2754287D01*
X2665494Y2747486D01*
X2662213Y2739566D01*
X2661094Y2731066D01*
X2662213Y2722566D01*
X2665494Y2714646D01*
X2670713Y2707845D01*
X2677514Y2702626D01*
X2685434Y2699345D01*
X2693934Y2698226D01*
X2702434Y2699345D01*
X2710354Y2702626D01*
X2717155Y2707845D01*
X2722374Y2714646D01*
X2725655Y2722566D01*
X2726774Y2731066D01*
X2725655Y2739566D01*
X2722374Y2747486D01*
X2717155Y2754287D01*
X2710354Y2759506D01*
X2702434Y2762787D01*
X2693934Y2763906D01*
D02*
G37*
G36*
X1678465Y2703503D02*
X1601535D01*
Y2650197D01*
X1629804D01*
Y2639803D01*
X1601535D01*
Y2609974D01*
X1597126Y2607617D01*
X1595828Y2608485D01*
X1589000Y2609843D01*
X1586144Y2609275D01*
X1570210Y2625210D01*
X1566902Y2627420D01*
X1563000Y2628196D01*
X1468528D01*
X1464626Y2627420D01*
X1461318Y2625210D01*
X1451318Y2615210D01*
X1449108Y2611902D01*
X1448332Y2608000D01*
Y2604414D01*
X1446408Y2603128D01*
X1442692Y2597567D01*
X1441388Y2591008D01*
Y2528016D01*
X1442692Y2521457D01*
X1446408Y2515896D01*
X1451969Y2512180D01*
X1458528Y2510876D01*
X1465087Y2512180D01*
X1470648Y2515896D01*
X1474364Y2521457D01*
X1475668Y2528016D01*
Y2591008D01*
X1474364Y2597567D01*
X1470648Y2603128D01*
X1470592Y2603698D01*
X1474408Y2607804D01*
X1494406D01*
X1495816Y2604511D01*
X1496191Y2602804D01*
X1492692Y2597567D01*
X1491388Y2591008D01*
Y2528016D01*
X1492692Y2521457D01*
X1496408Y2515896D01*
X1498332Y2514610D01*
Y2506887D01*
X1497318Y2506210D01*
X1495108Y2502902D01*
X1494332Y2499000D01*
Y2497559D01*
X1477874D01*
Y2432441D01*
X1531181D01*
Y2479626D01*
X1536182Y2482315D01*
X1542000Y2481157D01*
X1548828Y2482515D01*
X1554617Y2486383D01*
X1558485Y2492172D01*
X1559843Y2499000D01*
X1559105Y2502708D01*
X1562443Y2507977D01*
X1562736Y2508135D01*
X1563802Y2508307D01*
X1572468Y2499640D01*
X1575776Y2497430D01*
X1579678Y2496654D01*
X1601535D01*
Y2480197D01*
X1678465D01*
Y2533503D01*
X1601535D01*
Y2517046D01*
X1583901D01*
X1575214Y2525733D01*
X1575668Y2528016D01*
Y2573847D01*
X1580668Y2576520D01*
X1582172Y2575515D01*
X1589000Y2574157D01*
X1595828Y2575515D01*
X1601617Y2579383D01*
X1605485Y2585172D01*
X1605748Y2586497D01*
X1678465D01*
Y2639803D01*
X1650196D01*
Y2650197D01*
X1678465D01*
Y2703503D01*
D02*
G37*
G36*
X2900000Y2955475D02*
X2885642Y2953584D01*
X2872263Y2948042D01*
X2860773Y2939227D01*
X2851958Y2927737D01*
X2846416Y2914358D01*
X2844525Y2900000D01*
X2846416Y2885642D01*
X2851958Y2872263D01*
X2860773Y2860773D01*
X2872263Y2851958D01*
X2885642Y2846416D01*
X2900000Y2844525D01*
X2914358Y2846416D01*
X2927737Y2851958D01*
X2939227Y2860773D01*
X2948042Y2872263D01*
X2953584Y2885642D01*
X2955475Y2900000D01*
X2953584Y2914358D01*
X2948042Y2927737D01*
X2939227Y2939227D01*
X2927737Y2948042D01*
X2914358Y2953584D01*
X2900000Y2955475D01*
D02*
G37*
G36*
X2052615Y2291716D02*
X2046440Y2290488D01*
X2041205Y2286990D01*
X2011974Y2257759D01*
X2008476Y2252524D01*
X2007248Y2246349D01*
X2008476Y2240173D01*
X2011974Y2234938D01*
X2017209Y2231440D01*
X2023385Y2230212D01*
X2025735Y2230679D01*
X2029987Y2226427D01*
X2029520Y2224079D01*
X2030748Y2217903D01*
X2034246Y2212668D01*
X2039481Y2209170D01*
X2045657Y2207942D01*
X2048005Y2208409D01*
X2052257Y2204157D01*
X2051790Y2201807D01*
X2053018Y2195631D01*
X2056516Y2190396D01*
X2061751Y2186898D01*
X2067927Y2185670D01*
X2070277Y2186137D01*
X2074529Y2181885D01*
X2074062Y2179537D01*
X2075290Y2173361D01*
X2078788Y2168126D01*
X2084023Y2164628D01*
X2090199Y2163400D01*
X2096374Y2164628D01*
X2101609Y2168126D01*
X2130840Y2197357D01*
X2134338Y2202592D01*
X2135566Y2208767D01*
X2134338Y2214943D01*
X2130840Y2220178D01*
X2125605Y2223676D01*
X2119429Y2224904D01*
X2117079Y2224437D01*
X2112827Y2228689D01*
X2113294Y2231037D01*
X2112066Y2237213D01*
X2108568Y2242448D01*
X2103333Y2245946D01*
X2097157Y2247174D01*
X2094809Y2246707D01*
X2090557Y2250959D01*
X2091024Y2253309D01*
X2089796Y2259485D01*
X2086298Y2264720D01*
X2081063Y2268218D01*
X2074887Y2269446D01*
X2072537Y2268979D01*
X2068285Y2273231D01*
X2068752Y2275579D01*
X2067524Y2281755D01*
X2064026Y2286990D01*
X2058791Y2290488D01*
X2052615Y2291716D01*
D02*
G37*
G36*
X2884528Y2334528D02*
X2815472D01*
Y2279892D01*
X2760790Y2225210D01*
X2758580Y2221902D01*
X2757804Y2218000D01*
Y2044777D01*
X2756029Y2044174D01*
X2752804Y2043542D01*
X2746420Y2048440D01*
X2738500Y2051721D01*
X2730000Y2052840D01*
X2721500Y2051721D01*
X2713580Y2048440D01*
X2706779Y2043221D01*
X2701560Y2036420D01*
X2698279Y2028500D01*
X2697160Y2020000D01*
X2698279Y2011500D01*
X2701560Y2003580D01*
X2706779Y1996779D01*
X2713580Y1991560D01*
X2721500Y1988279D01*
X2730000Y1987160D01*
X2738500Y1988279D01*
X2746420Y1991560D01*
X2752804Y1996458D01*
X2756029Y1995826D01*
X2757804Y1995223D01*
Y1927223D01*
X2744724Y1914143D01*
X2738500Y1916721D01*
X2730000Y1917840D01*
X2721500Y1916721D01*
X2713580Y1913440D01*
X2706779Y1908221D01*
X2701560Y1901420D01*
X2698279Y1893500D01*
X2697160Y1885000D01*
X2698279Y1876500D01*
X2701560Y1868580D01*
X2706779Y1861779D01*
X2713580Y1856560D01*
X2721500Y1853279D01*
X2730000Y1852160D01*
X2738500Y1853279D01*
X2746420Y1856560D01*
X2753221Y1861779D01*
X2758440Y1868580D01*
X2761721Y1876500D01*
X2762840Y1885000D01*
X2761721Y1893500D01*
X2759143Y1899724D01*
X2775210Y1915790D01*
X2777420Y1919098D01*
X2778196Y1923000D01*
Y2213777D01*
X2829892Y2265472D01*
X2884528D01*
Y2334528D01*
D02*
G37*
G36*
X1852000Y2497196D02*
X1850000D01*
X1846098Y2496420D01*
X1842790Y2494210D01*
X1840580Y2490902D01*
X1839804Y2487000D01*
Y2481758D01*
X1836330Y2476559D01*
X1835026Y2470000D01*
X1835118Y2469537D01*
X1812790Y2447210D01*
X1810580Y2443902D01*
X1809804Y2440000D01*
Y2437559D01*
X1793347D01*
Y2372441D01*
X1846653D01*
Y2437559D01*
X1838511D01*
X1836598Y2442178D01*
X1848090Y2453671D01*
X1852166Y2452860D01*
X1915158D01*
X1921717Y2454164D01*
X1927278Y2457880D01*
X1930994Y2463441D01*
X1932298Y2470000D01*
X1930994Y2476559D01*
X1927278Y2482120D01*
X1921717Y2485836D01*
X1915158Y2487140D01*
X1862168D01*
X1861420Y2490902D01*
X1859210Y2494210D01*
X1855902Y2496420D01*
X1852000Y2497196D01*
D02*
G37*
G36*
X1705000Y2407843D02*
X1698172Y2406485D01*
X1692383Y2402617D01*
X1688515Y2396828D01*
X1687157Y2390000D01*
X1688515Y2383172D01*
X1692383Y2377383D01*
X1698172Y2373515D01*
X1705000Y2372157D01*
X1711828Y2373515D01*
X1717617Y2377383D01*
X1721485Y2383172D01*
X1722843Y2390000D01*
X1721485Y2396828D01*
X1717617Y2402617D01*
X1711828Y2406485D01*
X1705000Y2407843D01*
D02*
G37*
G36*
X1325000Y2367843D02*
X1318172Y2366485D01*
X1312383Y2362617D01*
X1308515Y2356828D01*
X1307157Y2350000D01*
X1308515Y2343172D01*
X1312383Y2337383D01*
X1318172Y2333515D01*
X1325000Y2332157D01*
X1331828Y2333515D01*
X1337617Y2337383D01*
X1341485Y2343172D01*
X1342843Y2350000D01*
X1341485Y2356828D01*
X1337617Y2362617D01*
X1331828Y2366485D01*
X1325000Y2367843D01*
D02*
G37*
%LPD*%
G36*
X1263083Y1473944D02*
X1263960Y1472632D01*
X1264564Y1471173D01*
X1265076Y1470961D01*
X1265384Y1470500D01*
X1265870Y1470403D01*
Y1425040D01*
X1266946Y1419632D01*
X1270009Y1415049D01*
X1274593Y1411986D01*
X1280000Y1410910D01*
X1285407Y1411986D01*
X1289991Y1415049D01*
X1292304Y1418510D01*
X1294135Y1419770D01*
X1298285Y1420299D01*
X1300000Y1419588D01*
X1418386D01*
Y1414647D01*
X1495314D01*
Y1419588D01*
X1504177D01*
X1504438Y1419696D01*
X1504708Y1419614D01*
X1506318Y1420475D01*
X1506813Y1420680D01*
X1509576Y1416545D01*
X1514160Y1413482D01*
X1519568Y1412406D01*
X1568780D01*
X1570000Y1412649D01*
X1575000Y1408545D01*
Y1369325D01*
X1569438Y1363763D01*
X1568780Y1363894D01*
X1519568D01*
X1514160Y1362818D01*
X1509576Y1359755D01*
X1506514Y1355171D01*
X1505438Y1349764D01*
X1506514Y1344357D01*
X1509576Y1339773D01*
X1514160Y1336710D01*
X1519568Y1335634D01*
X1559947D01*
X1571650Y1323930D01*
X1571983Y1322660D01*
X1572060Y1320846D01*
X1571173Y1317875D01*
X1570761Y1316880D01*
X1570000Y1316119D01*
Y1315042D01*
X1569588Y1314048D01*
Y1230412D01*
X1400000D01*
X1396173Y1228827D01*
X1394588Y1225000D01*
X1394588Y1105412D01*
X1305412D01*
Y1300000D01*
X1303827Y1303827D01*
X1300000Y1305412D01*
X1205412D01*
Y1313858D01*
X1215118D01*
Y1390786D01*
X1205412D01*
Y1411344D01*
X1208635Y1411986D01*
X1213219Y1415049D01*
X1216282Y1419632D01*
X1217358Y1425040D01*
Y1470403D01*
X1217844Y1470500D01*
X1218152Y1470961D01*
X1218664Y1471173D01*
X1219268Y1472632D01*
X1220145Y1473944D01*
X1220355Y1475000D01*
X1262873D01*
X1263083Y1473944D01*
D02*
G37*
G36*
X2539804Y1682329D02*
Y1183149D01*
X2532587Y1180160D01*
X2525375Y1174625D01*
X2519840Y1167413D01*
X2516361Y1159014D01*
X2515175Y1150000D01*
X2516361Y1140986D01*
X2519840Y1132587D01*
X2525375Y1125375D01*
X2532587Y1119840D01*
X2540986Y1116361D01*
X2550000Y1115175D01*
X2559014Y1116361D01*
X2567413Y1119840D01*
X2571441Y1122931D01*
X2574745Y1119164D01*
X2546249Y1090668D01*
X2275620D01*
X2273706Y1095287D01*
X2307210Y1128790D01*
X2309420Y1132098D01*
X2310196Y1136000D01*
Y1214777D01*
X2340223Y1244804D01*
X2413982D01*
X2416560Y1238580D01*
X2421779Y1231779D01*
X2428580Y1226560D01*
X2436500Y1223279D01*
X2445000Y1222160D01*
X2453500Y1223279D01*
X2461420Y1226560D01*
X2467804Y1231458D01*
X2471029Y1230826D01*
X2472804Y1230223D01*
Y1187223D01*
X2466230Y1180649D01*
X2459014Y1183639D01*
X2450000Y1184825D01*
X2440986Y1183639D01*
X2432587Y1180160D01*
X2425375Y1174625D01*
X2419840Y1167413D01*
X2416361Y1159014D01*
X2415175Y1150000D01*
X2416361Y1140986D01*
X2419840Y1132587D01*
X2425375Y1125375D01*
X2432587Y1119840D01*
X2440986Y1116361D01*
X2450000Y1115175D01*
X2459014Y1116361D01*
X2467413Y1119840D01*
X2474625Y1125375D01*
X2480160Y1132587D01*
X2483639Y1140986D01*
X2484825Y1150000D01*
X2483639Y1159014D01*
X2480649Y1166230D01*
X2490210Y1175790D01*
X2492420Y1179098D01*
X2493196Y1183000D01*
Y1274000D01*
X2492420Y1277902D01*
X2490210Y1281210D01*
X2471210Y1300210D01*
X2467902Y1302420D01*
X2464000Y1303196D01*
X2337000D01*
X2333098Y1302420D01*
X2329790Y1300210D01*
X2189147Y1159566D01*
X2184528Y1161480D01*
Y1170108D01*
X2204770Y1190350D01*
X2206980Y1193658D01*
X2207756Y1197560D01*
Y1307560D01*
X2207196Y1310375D01*
Y1591495D01*
X2212196Y1594168D01*
X2213172Y1593515D01*
X2220000Y1592157D01*
X2226828Y1593515D01*
X2232617Y1597383D01*
X2236485Y1603172D01*
X2237843Y1610000D01*
X2236485Y1616828D01*
X2232617Y1622617D01*
X2226828Y1626485D01*
X2220000Y1627843D01*
X2213172Y1626485D01*
X2212196Y1625832D01*
X2207196Y1628505D01*
Y1659065D01*
X2233914Y1685782D01*
X2236124Y1689090D01*
X2236900Y1692992D01*
Y1764040D01*
X2241519Y1765953D01*
X2245935Y1761537D01*
X2283629Y1799231D01*
X2229232Y1853628D01*
X2210011Y1834408D01*
X2202271Y1842148D01*
X2202378Y1842687D01*
X2201911Y1845035D01*
X2206163Y1849287D01*
X2208513Y1848820D01*
X2214689Y1850048D01*
X2219924Y1853546D01*
X2223422Y1858781D01*
X2224650Y1864957D01*
X2224183Y1867307D01*
X2228435Y1871559D01*
X2230783Y1871092D01*
X2236959Y1872320D01*
X2242194Y1875818D01*
X2245692Y1881053D01*
X2246920Y1887229D01*
X2246453Y1889577D01*
X2250705Y1893829D01*
X2253055Y1893362D01*
X2259231Y1894590D01*
X2264466Y1898088D01*
X2267964Y1903323D01*
X2269192Y1909499D01*
X2268725Y1911849D01*
X2272977Y1916101D01*
X2275325Y1915634D01*
X2281501Y1916862D01*
X2286736Y1920360D01*
X2289927Y1925135D01*
X2291240Y1925953D01*
X2295030Y1927103D01*
X2539804Y1682329D01*
D02*
G37*
G36*
X1965430Y2851940D02*
X1965175Y2850000D01*
X1966361Y2840986D01*
X1969840Y2832587D01*
X1975375Y2825375D01*
X1982587Y2819840D01*
X1990986Y2816361D01*
X2000000Y2815175D01*
X2009014Y2816361D01*
X2016230Y2819351D01*
X2047790Y2787790D01*
X2051098Y2785580D01*
X2055000Y2784804D01*
X2184777D01*
X2239866Y2729715D01*
X2238220Y2724290D01*
X2234172Y2723485D01*
X2228383Y2719617D01*
X2224515Y2713828D01*
X2223157Y2707000D01*
X2223559Y2704979D01*
X2171140Y2652559D01*
X2131968D01*
Y2630196D01*
X2117540D01*
X2116254Y2632120D01*
X2110693Y2635836D01*
X2104134Y2637140D01*
X2041142D01*
X2034583Y2635836D01*
X2029022Y2632120D01*
X2025306Y2626559D01*
X2024002Y2620000D01*
X2025306Y2613441D01*
X2029022Y2607880D01*
X2034583Y2604164D01*
X2041142Y2602860D01*
X2104134D01*
X2110693Y2604164D01*
X2116254Y2607880D01*
X2117540Y2609804D01*
X2131968D01*
Y2587441D01*
X2185276D01*
Y2637856D01*
X2237310Y2689891D01*
X2241000Y2689157D01*
X2247828Y2690515D01*
X2248804Y2691168D01*
X2253804Y2688495D01*
Y2557223D01*
X2226615Y2530034D01*
X2221615Y2532105D01*
Y2579803D01*
X2144686D01*
Y2569427D01*
X2140229Y2567159D01*
X2125000Y2578244D01*
X2123905Y2578749D01*
X2122902Y2579420D01*
X2122116Y2579576D01*
X2121389Y2579912D01*
X2120183Y2579961D01*
X2119000Y2580196D01*
X2117540D01*
X2116254Y2582120D01*
X2110693Y2585836D01*
X2104134Y2587140D01*
X2041142D01*
X2034583Y2585836D01*
X2029022Y2582120D01*
X2025306Y2576559D01*
X2024002Y2570000D01*
X2025306Y2563441D01*
X2029022Y2557880D01*
X2034583Y2554164D01*
X2041142Y2552860D01*
X2104134D01*
X2110693Y2554164D01*
X2116254Y2557880D01*
X2117919Y2558176D01*
X2125688Y2552522D01*
X2125790Y2551209D01*
X2123580Y2547902D01*
X2122804Y2544000D01*
Y2531317D01*
X2117804Y2529800D01*
X2116254Y2532120D01*
X2110693Y2535836D01*
X2104134Y2537140D01*
X2041142D01*
X2034583Y2535836D01*
X2029022Y2532120D01*
X2023926Y2533493D01*
X2010196Y2547223D01*
Y2671535D01*
X2041653D01*
Y2748465D01*
X1988347D01*
Y2720196D01*
X1977954D01*
Y2748465D01*
X1924647D01*
Y2671535D01*
X1977954D01*
Y2699804D01*
X1988347D01*
Y2671535D01*
X1989804D01*
Y2543000D01*
X1990580Y2539098D01*
X1992790Y2535790D01*
X2015790Y2512790D01*
X2019098Y2510580D01*
X2023000Y2509804D01*
X2027736D01*
X2029022Y2507880D01*
X2034583Y2504164D01*
X2041142Y2502860D01*
X2104134D01*
X2110693Y2504164D01*
X2116254Y2507880D01*
X2117804Y2510200D01*
X2122804Y2508683D01*
Y2468223D01*
X2112777Y2458196D01*
X2013223D01*
X1965196Y2506223D01*
Y2615000D01*
X1964420Y2618902D01*
X1962210Y2622210D01*
X1888196Y2696223D01*
Y2719777D01*
X1924223Y2755804D01*
X2106080D01*
X2108007Y2753465D01*
X2105647Y2748465D01*
X2094646D01*
Y2671535D01*
X2147954D01*
Y2748465D01*
X2131496D01*
Y2756700D01*
X2130720Y2760602D01*
X2128510Y2763910D01*
X2119210Y2773210D01*
X2115902Y2775420D01*
X2112000Y2776196D01*
X1921686D01*
X1919480Y2780646D01*
X1919437Y2781018D01*
X1947210Y2808790D01*
X1949420Y2812098D01*
X1950196Y2816000D01*
Y2843777D01*
X1960694Y2854275D01*
X1965430Y2851940D01*
D02*
G37*
D10*
X1723420Y2038254D02*
D03*
X1745692Y2060526D02*
D03*
X1767964Y2082796D02*
D03*
X1790234Y2105068D02*
D03*
X1812506Y2127338D02*
D03*
X1834776Y2149610D02*
D03*
X1857048Y2171880D02*
D03*
X1879318Y2194152D02*
D03*
X1901590Y2216422D02*
D03*
X1923860Y2238694D02*
D03*
X1946132Y2260966D02*
D03*
X2260710Y1946386D02*
D03*
X2238440Y1924114D02*
D03*
X2216168Y1901844D02*
D03*
X2193898Y1879572D02*
D03*
X2171626Y1857302D02*
D03*
X2149356Y1835030D02*
D03*
X2127084Y1812760D02*
D03*
X2104814Y1790488D02*
D03*
X2082542Y1768218D02*
D03*
X2060272Y1745946D02*
D03*
X2038000Y1723676D02*
D03*
D11*
Y2260964D02*
D03*
X2060272Y2238694D02*
D03*
X2082542Y2216422D02*
D03*
X2104814Y2194152D02*
D03*
X2127084Y2171880D02*
D03*
X2149356Y2149610D02*
D03*
X2171626Y2127338D02*
D03*
X2193898Y2105068D02*
D03*
X2216168Y2082796D02*
D03*
X2238440Y2060526D02*
D03*
X2260710Y2038254D02*
D03*
X1946132Y1723676D02*
D03*
X1923860Y1745946D02*
D03*
X1901590Y1768218D02*
D03*
X1879318Y1790488D02*
D03*
X1857048Y1812760D02*
D03*
X1834776Y1835030D02*
D03*
X1812506Y1857302D02*
D03*
X1790234Y1879572D02*
D03*
X1767964Y1901844D02*
D03*
X1745692Y1924114D02*
D03*
X1723420Y1946386D02*
D03*
D12*
X2237583Y1807583D02*
D03*
X2162417Y1732417D02*
D03*
D13*
X1504528Y2465000D02*
D03*
X1445472D02*
D03*
X1415472Y2865000D02*
D03*
X1474528D02*
D03*
X2495472Y2861850D02*
D03*
X2554528D02*
D03*
X2584528Y2461850D02*
D03*
X2525472D02*
D03*
X2158622Y2620000D02*
D03*
X2217678D02*
D03*
X1820000Y2405000D02*
D03*
X1879056D02*
D03*
D14*
X1121614Y1644764D02*
D03*
Y1699882D02*
D03*
D15*
X1664292Y1488150D02*
D03*
X1719410D02*
D03*
D16*
X2220000Y2195000D02*
D03*
X2178242Y2236758D02*
D03*
X1800000Y1750000D02*
D03*
X1758242Y1791758D02*
D03*
D17*
X2072638Y2470000D02*
D03*
Y2520000D02*
D03*
Y2570000D02*
D03*
Y2620000D02*
D03*
X1883662Y2470000D02*
D03*
Y2520000D02*
D03*
Y2570000D02*
D03*
Y2620000D02*
D03*
D18*
X1845000Y2710000D02*
D03*
X1951300D02*
D03*
X2015000D02*
D03*
X2121300D02*
D03*
X1188464Y1712322D02*
D03*
X1294764D02*
D03*
Y1352322D02*
D03*
X1188464D02*
D03*
X1536850Y1270000D02*
D03*
X1643150D02*
D03*
X1446850Y1515000D02*
D03*
X1553150D02*
D03*
X1711850Y1270000D02*
D03*
X1818150D02*
D03*
X2453150Y2466850D02*
D03*
X2346850D02*
D03*
X1546850Y2860000D02*
D03*
X1653150D02*
D03*
D19*
X2183150Y2553150D02*
D03*
Y2446850D02*
D03*
X1121614Y1575472D02*
D03*
Y1469174D02*
D03*
X1456850Y1441300D02*
D03*
Y1335000D02*
D03*
X1895000Y1538150D02*
D03*
Y1431850D02*
D03*
Y1368150D02*
D03*
Y1261850D02*
D03*
X2360000Y2713700D02*
D03*
Y2820000D02*
D03*
Y2650000D02*
D03*
Y2543700D02*
D03*
X1640000Y2676850D02*
D03*
Y2783150D02*
D03*
Y2613150D02*
D03*
Y2506850D02*
D03*
D20*
X1203228Y1449646D02*
D03*
X1228818D02*
D03*
X1254410D02*
D03*
X1280000D02*
D03*
X1203228Y1615000D02*
D03*
X1228818D02*
D03*
X1254410D02*
D03*
X1280000D02*
D03*
D21*
X1544174Y1426536D02*
D03*
Y1400944D02*
D03*
Y1375354D02*
D03*
Y1349764D02*
D03*
X1709528Y1426536D02*
D03*
Y1400944D02*
D03*
Y1375354D02*
D03*
Y1349764D02*
D03*
D22*
X1800000Y1486930D02*
D03*
Y1353070D02*
D03*
D23*
X2591472Y2767338D02*
D03*
X2541472D02*
D03*
X2491472D02*
D03*
X2441472D02*
D03*
X2591472Y2578362D02*
D03*
X2541472D02*
D03*
X2491472D02*
D03*
X2441472D02*
D03*
X1408528Y2559512D02*
D03*
X1458528D02*
D03*
X1508528D02*
D03*
X1558528D02*
D03*
X1408528Y2748488D02*
D03*
X1458528D02*
D03*
X1508528D02*
D03*
X1558528D02*
D03*
D24*
X1569858Y1349764D02*
X1587638Y1367544D01*
Y1419804D01*
X1545000Y1430000D02*
X1577440D01*
X1544174Y1349764D02*
X1560236D01*
X1640000Y1270000D01*
X1560236Y1349764D02*
X1569858D01*
X1711850Y1270000D02*
X1755316Y1226536D01*
X1866536D01*
X1895000Y1261850D02*
Y1262410D01*
X1807410Y1350000D02*
X1895000Y1262410D01*
X1738150Y1350000D02*
X1818150Y1270000D01*
X1721850Y1431850D02*
X1895000D01*
X1666064Y1434804D02*
X1719410Y1488150D01*
X1666064Y1418724D02*
Y1434804D01*
Y1418724D02*
X1684788Y1400000D01*
X1553150Y1515000D02*
X1651064Y1417086D01*
Y1371496D02*
Y1417086D01*
Y1371496D02*
X1672560Y1350000D01*
X1121614Y1575472D02*
Y1643386D01*
Y1644764D02*
X1129764D01*
X1093898Y1672480D02*
X1121614Y1644764D01*
X1093898Y1672480D02*
Y1719772D01*
X1114126Y1740000D01*
X1165000D02*
X1190000Y1715000D01*
X1114126Y1740000D02*
X1165000D01*
X1121614Y1571536D02*
X1136614Y1556536D01*
X1221630D01*
X1255000Y1589906D01*
X1121614Y1699882D02*
X1184370Y1637126D01*
Y1582582D02*
Y1637126D01*
Y1582582D02*
X1195418Y1571536D01*
X1211040D01*
X1230000Y1590496D01*
X1203228Y1615000D02*
X1209960Y1621732D01*
Y1658464D01*
X1248464D01*
X1290000Y1700000D01*
Y1710000D01*
X1643150Y1270000D02*
X1710000D01*
X1711850D01*
X2584528Y2569528D02*
X2590000Y2575000D01*
X1820000Y2405000D02*
Y2440000D01*
X1850000Y2470000D01*
X1505000Y2465000D02*
X1508528Y2468528D01*
X1408528Y2748488D02*
Y2863528D01*
X1410000Y2865000D01*
X2158622Y2620000D02*
X2160000D01*
X1228818Y1615000D02*
X1230000D01*
X2491472Y2869472D02*
X2522000Y2900000D01*
X2668000D01*
X2711000Y2857000D01*
X2189000Y2164000D02*
X2220000Y2195000D01*
X2149356Y2149610D02*
Y2164000D01*
X2326000Y2197000D02*
X2336000Y2187000D01*
X1800000Y1755712D02*
X1857048Y1812760D01*
X2591472Y2547000D02*
Y2578362D01*
X2584528Y2540056D02*
X2591472Y2547000D01*
X2584528Y2358000D02*
Y2461850D01*
X2578000Y2351472D02*
X2584528Y2358000D01*
X2578000Y2260000D02*
Y2351472D01*
X1408528Y2742000D02*
Y2748488D01*
X1852000Y2470000D02*
X1883662D01*
X1850000Y2487000D02*
X1852000D01*
X1577764Y1349764D02*
X1588000Y1360000D01*
Y1426536D01*
X1640000Y2613150D02*
Y2676850D01*
X2360000Y2650000D02*
Y2713700D01*
X1951300Y2710000D02*
X2015000D01*
X1883662Y2570000D02*
Y2620000D01*
X2906066Y2056066D02*
Y2518934D01*
X2850000Y2000000D02*
X2906066Y2056066D01*
X1709528Y1426536D02*
X1716000D01*
X1715000Y1425000D02*
X1716000D01*
X2768000Y2218000D02*
X2850000Y2300000D01*
X2768000Y1923000D02*
Y2218000D01*
X2730000Y1885000D02*
X2768000Y1923000D01*
X2023000Y2520000D02*
X2072638D01*
Y2620000D02*
X2153000D01*
X2240000Y2707000D02*
X2241000D01*
X1294764Y1712322D02*
Y1722000D01*
X1290000Y1710000D02*
X1294000D01*
X2360000Y2543700D02*
X2383000D01*
X2417662Y2578362D01*
X2441472D01*
X1558528Y2528000D02*
Y2559512D01*
Y2528000D02*
X1579678Y2506850D01*
X1640000D01*
X2360000Y2820000D02*
X2441472D01*
Y2767338D02*
Y2820000D01*
X2346850Y2466850D02*
Y2504000D01*
X2354850Y2512000D01*
X2475472D01*
X2491472Y2528000D01*
Y2578362D01*
X1508528Y2748488D02*
Y2792000D01*
X1518528Y2802000D01*
X1588000D01*
X1634000Y2848000D01*
X1653150D02*
Y2860000D01*
X2453150Y2466850D02*
Y2490000D01*
X2476000D02*
X2541472Y2555472D01*
Y2578362D01*
X1458528Y2748488D02*
Y2780000D01*
X1507000Y2828472D01*
X1546850D02*
Y2860000D01*
X2171626Y1857302D02*
X2186242Y1842686D01*
X2121300Y2710000D02*
Y2756700D01*
X2112000Y2766000D02*
X2121300Y2756700D01*
X1920000Y2766000D02*
X2112000D01*
X1878000Y2724000D02*
X1920000Y2766000D01*
X1878000Y2692000D02*
Y2724000D01*
X2009000Y2448000D02*
X2117000D01*
X2133000Y2464000D01*
Y2544000D01*
X2142150Y2553150D01*
X2183150D01*
X1203228Y1449646D02*
Y1488228D01*
X1248000Y1533000D01*
X1264000D01*
X1280000Y1549000D01*
Y1615000D01*
X1563000Y2618000D02*
X1589000Y2592000D01*
X1468528Y2618000D02*
X1563000D01*
X1458528Y2608000D02*
X1468528Y2618000D01*
X1458528Y2559512D02*
Y2608000D01*
X2450000Y1150000D02*
X2483000Y1183000D01*
Y1274000D01*
X2464000Y1293000D02*
X2483000Y1274000D01*
X2337000Y1293000D02*
X2464000D01*
X2189528Y1145528D02*
X2337000Y1293000D01*
X2189528Y1110472D02*
Y1145528D01*
X2110472Y1110472D02*
X2189528D01*
X2110472D02*
Y1189528D01*
X2147000D01*
X2182560Y1225088D01*
Y1293000D01*
X2182000Y1293560D02*
X2182560Y1293000D01*
X2182000Y1293560D02*
Y1678000D01*
X2150000Y1150000D02*
X2197560Y1197560D01*
Y1307560D01*
X2197000Y1308120D02*
X2197560Y1307560D01*
X2197000Y1308120D02*
Y1663288D01*
X2226704Y1692992D01*
Y1793462D01*
X2112000Y1827844D02*
X2127084Y1812760D01*
X2112000Y1827844D02*
Y1936000D01*
X2158000Y1982000D01*
X2254552D01*
X2550000Y1686552D01*
Y1150000D02*
Y1686552D01*
X2041302Y1854000D02*
X2104814Y1790488D01*
X2041302Y1854000D02*
Y1984000D01*
X2320000Y2713700D02*
X2360000D01*
X2299000Y2734700D02*
X2320000Y2713700D01*
X2299000Y2734700D02*
Y2830056D01*
X2239528Y2889528D02*
X2299000Y2830056D01*
X2160472Y2889528D02*
X2239528D01*
X2160472Y2848000D02*
Y2889528D01*
X2122472Y2810000D02*
X2160472Y2848000D01*
X2080000Y2810000D02*
X2122472D01*
X2060000Y2830000D02*
X2080000Y2810000D01*
X2060000Y2830000D02*
Y2846000D01*
X2016000Y2890000D02*
X2060000Y2846000D01*
X1982000Y2890000D02*
X2016000D01*
X1940000Y2848000D02*
X1982000Y2890000D01*
X1940000Y2816000D02*
Y2848000D01*
X1908000Y2784000D02*
X1940000Y2816000D01*
X1845000Y2784000D02*
X1908000D01*
X1813000Y2752000D02*
X1845000Y2784000D01*
X1813000Y2544000D02*
Y2752000D01*
Y2544000D02*
X1837000Y2520000D01*
X1883662D01*
X2100000Y2850000D02*
X2145472Y2895472D01*
Y2896000D01*
X2154000Y2904528D01*
X2259472D01*
X2316000Y2848000D01*
Y2784000D02*
Y2848000D01*
Y2784000D02*
X2354000Y2746000D01*
X2401000D01*
X2411000Y2736000D01*
Y2685000D02*
Y2736000D01*
Y2685000D02*
X2464000Y2632000D01*
X2533472D01*
X2541472Y2624000D01*
Y2578362D02*
Y2624000D01*
X1845000Y2658662D02*
X1883662Y2620000D01*
X1845000Y2658662D02*
Y2710000D01*
X1558528Y2748488D02*
X1593190Y2783150D01*
X1640000D01*
X2798000Y1198000D02*
Y1289000D01*
X2752000Y1335000D02*
X2798000Y1289000D01*
X2712622Y1335000D02*
X2752000D01*
X2720000Y1700000D02*
X2850000D01*
X2463000Y1957000D02*
X2720000Y1700000D01*
X2463000Y1957000D02*
Y1983000D01*
X2468000Y1988000D01*
Y2038000D01*
X2448000Y2058000D02*
X2468000Y2038000D01*
X2344000Y2058000D02*
X2448000D01*
X2288810Y2002810D02*
X2344000Y2058000D01*
X2225266Y2002810D02*
X2288810D01*
X2203076Y2025000D02*
X2225266Y2002810D01*
X1723420Y2025000D02*
Y2038254D01*
X2778016Y1500000D02*
X2850000D01*
X2590000Y1311984D02*
X2778016Y1500000D01*
X2590000Y1120000D02*
Y1311984D01*
X2550472Y1080472D02*
X2590000Y1120000D01*
X2093528Y1080472D02*
X2550472D01*
X1753000Y1652000D02*
X1888000D01*
X1709000Y1696000D02*
X1753000Y1652000D01*
X1709000Y1696000D02*
Y1932000D01*
X1723420D02*
Y1946386D01*
X1546850Y2860000D02*
X1594850Y2908000D01*
X1697000D01*
X1755000Y2850000D01*
X1800000D01*
X1653150Y2860000D02*
X1711150Y2802000D01*
X1826000D01*
X1874000Y2850000D01*
X1900000D01*
X2346850Y2466000D02*
Y2466850D01*
X2282000Y2504000D02*
X2320000Y2466000D01*
X2282000Y2504000D02*
Y2734000D01*
X2200000Y2816000D02*
X2282000Y2734000D01*
X2200000Y2816000D02*
Y2850000D01*
X2082542Y1768218D02*
X2107000Y1743760D01*
Y1216056D02*
Y1743760D01*
X2095472Y1204528D02*
X2107000Y1216056D01*
X2095472Y1104000D02*
Y1204528D01*
Y1104000D02*
X2104000Y1095472D01*
X2259472D01*
X2300000Y1136000D01*
Y1219000D01*
X2336000Y1255000D01*
X2445000D01*
X2000000Y2850000D02*
X2055000Y2795000D01*
X2189000D01*
X2264000Y2720000D01*
Y2553000D02*
Y2720000D01*
X2183000Y2472000D02*
X2264000Y2553000D01*
X2183000Y2446850D02*
X2183150D01*
X1093000Y1720000D02*
X1233000Y1860000D01*
Y1863000D01*
X2486000Y1966000D02*
X2617000Y2097000D01*
Y2632000D01*
X2541472Y2707528D02*
X2617000Y2632000D01*
X2541472Y2707528D02*
Y2767338D01*
X2072638Y2570000D02*
X2119000D01*
X2142150Y2553150D01*
X1715000Y1425000D02*
X1721850Y1431850D01*
X1716000Y1425000D02*
Y1426536D01*
X1294000Y1710000D02*
Y1722000D01*
X1294764D01*
X1723420Y2025000D02*
X2203076D01*
X1507000Y2828472D02*
X1546850D01*
X2453150Y2490000D02*
X2476000D01*
X1634000Y2848000D02*
X1653150D01*
X2320000Y2466000D02*
X2346850D01*
X1280000Y1449646D02*
Y1549000D01*
X2149356Y2149610D02*
X2163746Y2164000D01*
X2196746Y2197000D01*
X2163746Y2164000D02*
X2189000D01*
X1569858Y1349764D02*
X1577764D01*
X1230000Y1590496D02*
Y1615000D01*
X1684788Y1400000D02*
X1710000D01*
X1544174Y1426536D02*
X1588000D01*
X1577440Y1430000D02*
X1587638Y1419804D01*
X1354000Y2742000D02*
X1408528D01*
X1800000Y1350000D02*
X1807410D01*
X1866536Y1226536D02*
X1900000Y1260000D01*
X1850000Y2470000D02*
Y2487000D01*
X1852000Y2470000D02*
Y2487000D01*
X2584528Y2461850D02*
Y2540056D01*
Y2461850D02*
Y2569528D01*
X1672560Y1350000D02*
X1738150D01*
X1970000Y1204000D02*
X2093528Y1080472D01*
X1970000Y1204000D02*
Y1570000D01*
X1888000Y1652000D02*
X1970000Y1570000D01*
X1709000Y1932000D02*
X1723420D01*
X1955000Y2502000D02*
X2009000Y2448000D01*
X1955000Y2502000D02*
Y2615000D01*
X1878000Y2692000D02*
X1955000Y2615000D01*
X2000000Y2543000D02*
X2023000Y2520000D01*
X2000000Y2543000D02*
Y2695000D01*
X2015000Y2710000D01*
X2183000Y2446850D02*
Y2472000D01*
X1093000Y1575472D02*
X1121614D01*
Y1571536D02*
Y1575472D01*
X1093000D02*
Y1720000D01*
X1120000Y1645000D02*
X1121614Y1643386D01*
X1255000Y1589906D02*
Y1615000D01*
X1504528Y2465000D02*
Y2499000D01*
X1508528Y2468528D02*
Y2559512D01*
X1800000Y1750000D02*
Y1755712D01*
X1504528Y2499000D02*
X1542000D01*
X2149356Y2164000D02*
X2163746D01*
X2196746Y2197000D02*
X2326000D01*
X2072638Y2620000D02*
X2158622D01*
X2153000D02*
X2240000Y2707000D01*
X2495472Y2770472D02*
Y2861850D01*
X2490000Y2765000D02*
X2495472Y2770472D01*
X2491472Y2767338D02*
Y2869472D01*
X2182000Y1678000D02*
X2211392Y1707392D01*
Y1768608D01*
X2150000Y1830000D02*
X2211392Y1768608D01*
X2222417Y1807583D02*
X2237583D01*
X2170000Y1860000D02*
X2222417Y1807583D01*
D25*
X1100000Y1100000D02*
D03*
X2900000D02*
D03*
Y2900000D02*
D03*
X1100000D02*
D03*
D26*
X2150000Y1150000D02*
D03*
X2200000Y2850000D02*
D03*
X1350000Y1150000D02*
D03*
D27*
X2250000D02*
D03*
X2350000D02*
D03*
X2450000D02*
D03*
X2550000D02*
D03*
X2650000D02*
D03*
X1800000Y2850000D02*
D03*
X1900000D02*
D03*
X2000000D02*
D03*
X2100000D02*
D03*
X1450000Y1150000D02*
D03*
X2850000Y1600000D02*
D03*
Y1700000D02*
D03*
Y2100000D02*
D03*
Y2400000D02*
D03*
D28*
Y1500000D02*
D03*
Y2000000D02*
D03*
Y2300000D02*
D03*
D29*
X1635000Y1145000D02*
D03*
X1935000D02*
D03*
X1150000Y1985000D02*
D03*
X1450000D02*
D03*
X2430000Y1885000D02*
D03*
X2730000D02*
D03*
X2145000Y1255000D02*
D03*
X2445000D02*
D03*
X2730000Y2020000D02*
D03*
X2430000D02*
D03*
X2693934Y2731066D02*
D03*
X2906066Y2518934D02*
D03*
D30*
X1190000Y1715000D02*
D03*
X1120000Y1575000D02*
D03*
X1895000Y1260000D02*
D03*
X1710000Y1270000D02*
D03*
X1640000Y1265000D02*
D03*
X1805000Y1750000D02*
D03*
X2220000Y2195000D02*
D03*
X2495000Y2860000D02*
D03*
X2585000Y2490000D02*
D03*
X2160000Y2620000D02*
D03*
X1820000Y2405000D02*
D03*
X1505000Y2465000D02*
D03*
X1415000Y2870000D02*
D03*
X1700000Y1525000D02*
D03*
X1330000Y1485000D02*
D03*
X2220000Y1610000D02*
D03*
X2235000Y2485000D02*
D03*
X1705000Y2390000D02*
D03*
X1325000Y2350000D02*
D03*
X2711000Y2857000D02*
D03*
X2336000Y2187000D02*
D03*
X1542000Y2499000D02*
D03*
X2578000Y2260000D02*
D03*
X1354000Y2742000D02*
D03*
X2241000Y2707000D02*
D03*
X1589000Y2592000D02*
D03*
X2041302Y1984000D02*
D03*
X2798000Y1198000D02*
D03*
X2712622Y1335000D02*
D03*
X1233000Y1863000D02*
D03*
X2486000Y1966000D02*
D03*
X2715000Y2125000D02*
D03*
X2595000Y1585000D02*
D03*
X1775000Y2200000D02*
D03*
X2025000Y2095000D02*
D03*
X2505000Y2450000D02*
D03*
X2235000Y2640000D02*
D03*
X2185000Y2730000D02*
D03*
X2165000Y1730000D02*
D03*
%TF.MD5,c4e40f8fb808fbab15b4201d050029be*%
M02*
