G04 Layer_Color=16711935*
%FSLAX26Y26*%
%MOIN*%
%TF.FileFunction,Soldermask,Bot*%
%TF.Part,Single*%
G01*
G75*
%TA.AperFunction,SMDPad,CuDef*%
%ADD35O,0.094614X0.031622*%
%ADD36R,0.051307X0.074929*%
%ADD39R,0.070992X0.041465*%
%ADD41R,0.039496X0.043433*%
%ADD42R,0.043433X0.039496*%
%ADD43R,0.074929X0.051307*%
%TA.AperFunction,ViaPad*%
%ADD44C,0.168000*%
%TA.AperFunction,ComponentPad*%
%ADD45R,0.067055X0.067055*%
%ADD46C,0.067055*%
%ADD47R,0.067055X0.067055*%
%ADD48C,0.063118*%
%TA.AperFunction,ViaPad*%
%ADD49C,0.033000*%
%TA.AperFunction,SMDPad,CuDef*%
%ADD51O,0.074929X0.025716*%
%ADD52O,0.031622X0.094614*%
D35*
X2628346Y2150000D02*
D03*
Y2100000D02*
D03*
Y2050000D02*
D03*
Y2000000D02*
D03*
Y1950000D02*
D03*
Y1900000D02*
D03*
Y1850000D02*
D03*
X2439370Y2150000D02*
D03*
Y2100000D02*
D03*
Y2050000D02*
D03*
Y2000000D02*
D03*
Y1950000D02*
D03*
Y1900000D02*
D03*
Y1850000D02*
D03*
D36*
X1386850Y1426300D02*
D03*
X1493150D02*
D03*
X1913150Y1260000D02*
D03*
X1806850D02*
D03*
X1833150Y1620000D02*
D03*
X1726850D02*
D03*
Y1520000D02*
D03*
X1833150D02*
D03*
X2573150Y2840000D02*
D03*
X2466850D02*
D03*
X1426850Y2480000D02*
D03*
X1533150D02*
D03*
X2525590Y1760000D02*
D03*
X2419292D02*
D03*
X2305590Y1780000D02*
D03*
X2199292D02*
D03*
X2639292Y2280000D02*
D03*
X2745590D02*
D03*
X2639292Y1760000D02*
D03*
X2745590D02*
D03*
X2345590Y2080000D02*
D03*
X2239292D02*
D03*
X2205590Y2200000D02*
D03*
X2099292D02*
D03*
D39*
X1373070Y1333150D02*
D03*
X1506930D02*
D03*
X2306300Y1900000D02*
D03*
X2172442D02*
D03*
D41*
X1387560Y1686300D02*
D03*
X1332440D02*
D03*
X2004882Y1280000D02*
D03*
X2060000D02*
D03*
X2555708Y2465512D02*
D03*
X2500590D02*
D03*
X1452442Y2860000D02*
D03*
X1507560D02*
D03*
X1995118Y2380000D02*
D03*
X1940000D02*
D03*
X2040000Y2740000D02*
D03*
X2095118D02*
D03*
X2780000Y2020000D02*
D03*
X2724882D02*
D03*
X2304882Y2000000D02*
D03*
X2360000D02*
D03*
X2380000Y2240000D02*
D03*
X2324882D02*
D03*
X2252442Y2000000D02*
D03*
X2197322D02*
D03*
X2560000Y2240000D02*
D03*
X2504882D02*
D03*
X2320000Y2160000D02*
D03*
X2264882D02*
D03*
D42*
X2660000Y2612442D02*
D03*
Y2667560D02*
D03*
X1340000Y2707560D02*
D03*
Y2652440D02*
D03*
X1847560Y2412442D02*
D03*
Y2467560D02*
D03*
X2840000Y2207560D02*
D03*
Y2152442D02*
D03*
D43*
X2120000Y1473150D02*
D03*
Y1366850D02*
D03*
X1260000Y1699448D02*
D03*
Y1593150D02*
D03*
Y1513150D02*
D03*
Y1406850D02*
D03*
X1600000Y1340000D02*
D03*
Y1446300D02*
D03*
X1640000Y1513150D02*
D03*
Y1619448D02*
D03*
X2360000Y2686850D02*
D03*
Y2793150D02*
D03*
Y2613150D02*
D03*
Y2506850D02*
D03*
X1640000Y2633150D02*
D03*
Y2526850D02*
D03*
Y2706850D02*
D03*
Y2813150D02*
D03*
X1847560Y2653150D02*
D03*
Y2546850D02*
D03*
X2167560Y2646850D02*
D03*
Y2753150D02*
D03*
Y2466850D02*
D03*
Y2573150D02*
D03*
X2739370Y1846850D02*
D03*
Y1953150D02*
D03*
X2752442Y2086850D02*
D03*
Y2193150D02*
D03*
X2112442Y2093150D02*
D03*
Y1986850D02*
D03*
D44*
X1100000Y1100000D02*
D03*
X2900000D02*
D03*
Y2900000D02*
D03*
X1100000D02*
D03*
D45*
X1140000Y1680000D02*
D03*
Y1360000D02*
D03*
X2860000Y1800000D02*
D03*
D46*
X1140000Y1780000D02*
D03*
Y1460000D02*
D03*
X2860000Y1700000D02*
D03*
Y1600000D02*
D03*
X2520000Y1140000D02*
D03*
X2420000D02*
D03*
X2320000D02*
D03*
X2220000D02*
D03*
X2120000D02*
D03*
X2191850Y2854488D02*
D03*
X2091850D02*
D03*
X1991850D02*
D03*
X1891850D02*
D03*
X1560000Y1140000D02*
D03*
D47*
X2620000D02*
D03*
X1791850Y2854488D02*
D03*
X1660000Y1140000D02*
D03*
D48*
X2820000Y2330000D02*
D03*
Y2630000D02*
D03*
X1060000Y2370000D02*
D03*
Y2670000D02*
D03*
X2920000Y2330000D02*
D03*
Y2630000D02*
D03*
X1060000Y2190000D02*
D03*
Y1890000D02*
D03*
X2920000Y1930000D02*
D03*
Y2230000D02*
D03*
X1140000Y2190000D02*
D03*
Y1890000D02*
D03*
D49*
X1235000Y2340000D02*
D03*
X1895000Y1020000D02*
D03*
X1910000Y1135000D02*
D03*
X1410000Y1015000D02*
D03*
X1425000Y1135000D02*
D03*
X2640000Y1470000D02*
D03*
X2450000D02*
D03*
X2650000Y2625000D02*
D03*
X2245000Y2605000D02*
D03*
X1240000Y2585000D02*
D03*
X1735000Y2645000D02*
D03*
X2270000Y2755000D02*
D03*
X1400000Y1880000D02*
D03*
Y2010000D02*
D03*
X1345000Y2710000D02*
D03*
X2090000Y2465000D02*
D03*
X2040000Y2735000D02*
D03*
X2305000Y2000000D02*
D03*
X2785000Y2020000D02*
D03*
X2740000Y1840000D02*
D03*
X2745000Y1760000D02*
D03*
X1820000Y1610000D02*
D03*
X1970000Y1615000D02*
D03*
X1843308Y1928780D02*
D03*
X1633440Y1806220D02*
D03*
X1466000Y2253070D02*
D03*
X2258000Y2433000D02*
D03*
X2412000Y2358024D02*
D03*
X1482000Y1647000D02*
D03*
X2443000Y2480000D02*
D03*
X1426000Y2936000D02*
D03*
X1300000Y1757000D02*
D03*
X1664000Y2290000D02*
D03*
X1813000Y1985000D02*
D03*
X2291000Y2088000D02*
D03*
X2655000Y2544000D02*
D03*
X2598000Y2221000D02*
D03*
X2528000Y2051000D02*
D03*
X2562000Y2000000D02*
D03*
D51*
X1837322Y1381614D02*
D03*
Y1407204D02*
D03*
Y1432796D02*
D03*
Y1458386D02*
D03*
X2002678Y1381614D02*
D03*
Y1407204D02*
D03*
Y1432796D02*
D03*
Y1458386D02*
D03*
X1545354Y1596220D02*
D03*
Y1570630D02*
D03*
Y1545040D02*
D03*
Y1519448D02*
D03*
X1380000Y1596220D02*
D03*
Y1570630D02*
D03*
Y1545040D02*
D03*
Y1519448D02*
D03*
D52*
X2595000Y2545512D02*
D03*
X2545000D02*
D03*
X2495000D02*
D03*
X2445000D02*
D03*
X2595000Y2734488D02*
D03*
X2545000D02*
D03*
X2495000D02*
D03*
X2445000D02*
D03*
X1405000Y2774488D02*
D03*
X1455000D02*
D03*
X1505000D02*
D03*
X1555000D02*
D03*
X1405000Y2585512D02*
D03*
X1455000D02*
D03*
X1505000D02*
D03*
X1555000D02*
D03*
X2089410Y2465512D02*
D03*
X2039410D02*
D03*
X1989410D02*
D03*
X1939410D02*
D03*
X2089410Y2654488D02*
D03*
X2039410D02*
D03*
X1989410D02*
D03*
X1939410D02*
D03*
%TF.MD5,01399964b9f95676a4e2ac4a0f09c29c*%
M02*
