G04 Layer_Color=32896*
%FSLAX26Y26*%
%MOIN*%
%TF.FileFunction,Legend,Bot*%
%TF.Part,Single*%
G01*
G75*
%TA.AperFunction,NonConductor*%
%ADD27C,0.009842*%
%ADD29C,0.007874*%
%ADD31C,0.003000*%
%ADD45C,0.023622*%
%ADD46C,0.010000*%
D27*
X2244921Y2043976D02*
G03*
X2244921Y2043976I-4921J0D01*
G01*
D29*
X2192756Y1678819D02*
Y2029213D01*
X1842362Y1678819D02*
Y2029213D01*
X2192756D01*
X1842362Y1678819D02*
X2192756D01*
X2041811Y1563543D02*
X2073307D01*
X2041811Y1504488D02*
X2073307D01*
D31*
X2076000Y1527000D02*
Y1541995D01*
X2068502D01*
X2066003Y1539496D01*
Y1534498D01*
X2068502Y1531998D01*
X2076000D01*
X2071002D02*
X2066003Y1527000D01*
X2061005D02*
X2056006D01*
X2058506D01*
Y1541995D01*
X2061005Y1539496D01*
X2038512Y1527000D02*
X2048509D01*
X2038512Y1536997D01*
Y1539496D01*
X2041011Y1541995D01*
X2046010D01*
X2048509Y1539496D01*
D45*
X2165197Y1989842D02*
G03*
X2165197Y1989842I-11811J0D01*
G01*
D46*
X2068000Y1883981D02*
Y1833997D01*
X2058003Y1824000D01*
X2038010D01*
X2028013Y1833997D01*
Y1883981D01*
X1968032D02*
X1988026Y1873984D01*
X2008019Y1853990D01*
Y1833997D01*
X1998023Y1824000D01*
X1978029D01*
X1968032Y1833997D01*
Y1843994D01*
X1978029Y1853990D01*
X2008019D01*
%TF.MD5,73b659c75a6dcc3ff3ea30aeef770537*%
M02*
