G04 Layer_Color=8388736*
%FSLAX26Y26*%
%MOIN*%
%TF.FileFunction,Soldermask,Top*%
%TF.Part,Single*%
G01*
G75*
%TA.AperFunction,SMDPad,CuDef*%
%ADD35O,0.094614X0.031622*%
%ADD36R,0.051307X0.074929*%
%ADD37O,0.070992X0.029654*%
%ADD38O,0.029654X0.070992*%
%ADD39R,0.070992X0.041465*%
%ADD40R,0.041465X0.070992*%
%ADD41R,0.039496X0.043433*%
%ADD42R,0.043433X0.039496*%
%ADD43R,0.074929X0.051307*%
%TA.AperFunction,ViaPad*%
%ADD44C,0.108000*%
%TA.AperFunction,ComponentPad*%
%ADD45R,0.067055X0.067055*%
%ADD46C,0.067055*%
%ADD47R,0.067055X0.067055*%
%ADD48C,0.063118*%
%TA.AperFunction,ViaPad*%
%ADD49C,0.033000*%
D35*
X2322834Y2630000D02*
D03*
Y2580000D02*
D03*
Y2530000D02*
D03*
Y2480000D02*
D03*
Y2430000D02*
D03*
Y2380000D02*
D03*
Y2330000D02*
D03*
X2511812Y2630000D02*
D03*
Y2580000D02*
D03*
Y2530000D02*
D03*
Y2480000D02*
D03*
Y2430000D02*
D03*
Y2380000D02*
D03*
Y2330000D02*
D03*
X1481024Y2603070D02*
D03*
Y2553070D02*
D03*
Y2503070D02*
D03*
Y2453070D02*
D03*
Y2403070D02*
D03*
Y2353070D02*
D03*
Y2303070D02*
D03*
X1670000Y2603070D02*
D03*
Y2553070D02*
D03*
Y2503070D02*
D03*
Y2453070D02*
D03*
Y2403070D02*
D03*
Y2353070D02*
D03*
Y2303070D02*
D03*
X1539844Y1763070D02*
D03*
Y1713070D02*
D03*
Y1663070D02*
D03*
Y1613070D02*
D03*
Y1563070D02*
D03*
Y1513070D02*
D03*
Y1463070D02*
D03*
X1728820Y1763070D02*
D03*
Y1713070D02*
D03*
Y1663070D02*
D03*
Y1613070D02*
D03*
Y1563070D02*
D03*
Y1513070D02*
D03*
Y1463070D02*
D03*
D36*
X2274408Y1390000D02*
D03*
X2380708D02*
D03*
X2365590Y2720000D02*
D03*
X2471890D02*
D03*
X2211890Y2540000D02*
D03*
X2105590D02*
D03*
X2331890Y2240000D02*
D03*
X2225590D02*
D03*
X2651890Y2720000D02*
D03*
X2545590D02*
D03*
X2724960Y2620000D02*
D03*
X2618662D02*
D03*
X1523780Y2693070D02*
D03*
X1630080D02*
D03*
X1810080D02*
D03*
X1703780D02*
D03*
X1983780Y2213070D02*
D03*
X2090080D02*
D03*
X1883150Y2593070D02*
D03*
X1776850D02*
D03*
X1490080Y2213070D02*
D03*
X1383780D02*
D03*
X1370080Y2513070D02*
D03*
X1263780D02*
D03*
X1962600Y1813070D02*
D03*
X2068900D02*
D03*
X1822600Y1693070D02*
D03*
X1928900D02*
D03*
X1649450Y1393070D02*
D03*
X1755750D02*
D03*
X1521340Y1893070D02*
D03*
X1415040D02*
D03*
X1955750Y1413070D02*
D03*
X1849450D02*
D03*
X1528900Y1373070D02*
D03*
X1422600D02*
D03*
D37*
X2730708Y1847480D02*
D03*
Y1815984D02*
D03*
Y1784488D02*
D03*
Y1752992D02*
D03*
Y1721496D02*
D03*
Y1690000D02*
D03*
Y1658504D02*
D03*
Y1627008D02*
D03*
Y1595512D02*
D03*
Y1564016D02*
D03*
Y1532520D02*
D03*
X2285826D02*
D03*
Y1564016D02*
D03*
Y1595512D02*
D03*
Y1627008D02*
D03*
Y1658504D02*
D03*
Y1690000D02*
D03*
Y1721496D02*
D03*
Y1752992D02*
D03*
Y1784488D02*
D03*
Y1815984D02*
D03*
Y1847480D02*
D03*
D38*
X2665748Y1467560D02*
D03*
X2634250D02*
D03*
X2602754D02*
D03*
X2571258D02*
D03*
X2539762D02*
D03*
X2508266D02*
D03*
X2476770D02*
D03*
X2445274D02*
D03*
X2413778D02*
D03*
X2382282D02*
D03*
X2350786D02*
D03*
Y1912442D02*
D03*
X2382282D02*
D03*
X2413778D02*
D03*
X2445274D02*
D03*
X2476770D02*
D03*
X2508266D02*
D03*
X2539762D02*
D03*
X2571258D02*
D03*
X2602754D02*
D03*
X2634250D02*
D03*
X2665748D02*
D03*
D39*
X1896930Y2233070D02*
D03*
X1763072D02*
D03*
X2738740Y2260000D02*
D03*
X2604882D02*
D03*
X1861892Y1513070D02*
D03*
X1995750D02*
D03*
D40*
X1850000Y2480000D02*
D03*
Y2346140D02*
D03*
X2691812Y2506930D02*
D03*
Y2373070D02*
D03*
D41*
X2226300Y2460000D02*
D03*
X2171182D02*
D03*
Y2400000D02*
D03*
X2226300D02*
D03*
X2542676Y1390000D02*
D03*
X2487558D02*
D03*
X2498740Y2220000D02*
D03*
X2443622D02*
D03*
X1384488Y2433070D02*
D03*
X1329370D02*
D03*
X1656930Y2193070D02*
D03*
X1601812D02*
D03*
X1329370Y2373070D02*
D03*
X1384488D02*
D03*
X1268190Y1833070D02*
D03*
X1323308D02*
D03*
X1848190Y1773070D02*
D03*
X1903308D02*
D03*
X1788190Y1853070D02*
D03*
X1843308D02*
D03*
X1608190D02*
D03*
X1663308D02*
D03*
X1388190Y1633070D02*
D03*
X1443308D02*
D03*
X1970158Y1613070D02*
D03*
X1915040D02*
D03*
X1815042D02*
D03*
X1870160D02*
D03*
X2475118Y1975000D02*
D03*
X2420000D02*
D03*
D42*
X2165590Y2272440D02*
D03*
Y2327560D02*
D03*
X2598740Y2492440D02*
D03*
Y2547560D02*
D03*
X1323780Y2245512D02*
D03*
Y2300630D02*
D03*
X1756930Y2465512D02*
D03*
Y2520630D02*
D03*
D43*
X2840000Y2253150D02*
D03*
Y2146850D02*
D03*
X1988740Y2466850D02*
D03*
Y2573150D02*
D03*
X1196930Y2259920D02*
D03*
Y2366220D02*
D03*
X1428820Y1459920D02*
D03*
Y1566220D02*
D03*
X2055750Y1706220D02*
D03*
Y1599920D02*
D03*
X1415750Y1699920D02*
D03*
Y1806220D02*
D03*
D44*
X1100000Y1100000D02*
D03*
X2900000D02*
D03*
Y2900000D02*
D03*
X1100000D02*
D03*
D45*
X1140000Y1680000D02*
D03*
Y1360000D02*
D03*
X2860000Y1800000D02*
D03*
D46*
X1140000Y1780000D02*
D03*
Y1460000D02*
D03*
X2860000Y1700000D02*
D03*
Y1600000D02*
D03*
X2520000Y1140000D02*
D03*
X2420000D02*
D03*
X2320000D02*
D03*
X2220000D02*
D03*
X2120000D02*
D03*
X2191850Y2854488D02*
D03*
X2091850D02*
D03*
X1991850D02*
D03*
X1891850D02*
D03*
X1560000Y1140000D02*
D03*
D47*
X2620000D02*
D03*
X1791850Y2854488D02*
D03*
X1660000Y1140000D02*
D03*
D48*
X2820000Y2330000D02*
D03*
Y2630000D02*
D03*
X1060000Y2370000D02*
D03*
Y2670000D02*
D03*
X2920000Y2330000D02*
D03*
Y2630000D02*
D03*
X1060000Y2190000D02*
D03*
Y1890000D02*
D03*
X2920000Y1930000D02*
D03*
Y2230000D02*
D03*
X1140000Y2190000D02*
D03*
Y1890000D02*
D03*
D49*
X1900000Y1975000D02*
D03*
X2040000Y2440000D02*
D03*
X2940000Y1820000D02*
D03*
X2680000Y1830000D02*
D03*
X1330000Y1350000D02*
D03*
X1385000Y1440000D02*
D03*
X1380000Y1635000D02*
D03*
X2165000Y1805000D02*
D03*
X2125000Y1590000D02*
D03*
X1780000Y1615000D02*
D03*
X1385000Y2165000D02*
D03*
X1985000Y2390000D02*
D03*
X2075000Y2015000D02*
D03*
X2215000Y2595000D02*
D03*
X2295000Y2755000D02*
D03*
X2410000Y2575000D02*
D03*
X2045000Y2555000D02*
D03*
X2090000Y2270000D02*
D03*
X1905000Y2450000D02*
D03*
X1740000Y2625000D02*
D03*
X1855000Y2655000D02*
D03*
X2570000Y2455000D02*
D03*
X2840000Y2040000D02*
D03*
X1930000Y2398000D02*
D03*
X2094410Y2767000D02*
D03*
X2520000Y2026000D02*
D03*
X1658000Y1950000D02*
D03*
X2381000Y2213000D02*
D03*
X1474000Y1844000D02*
D03*
X1903000Y1863000D02*
D03*
X2781000Y2123000D02*
D03*
X2417000Y1863000D02*
D03*
X2329000Y2050000D02*
D03*
X1315000Y2470000D02*
D03*
X1741000Y2350000D02*
D03*
X2284000Y2252000D02*
D03*
X2660000Y2446000D02*
D03*
X1653000Y1904000D02*
D03*
X2292000Y1969000D02*
D03*
X1429000Y1505000D02*
D03*
X1367000Y2265000D02*
D03*
X1465000Y2708000D02*
D03*
X1530000Y2202000D02*
D03*
X2258000Y2460000D02*
D03*
X2054000Y1323000D02*
D03*
X2417000Y2465512D02*
D03*
X2476770Y1810000D02*
D03*
X1697000Y1830000D02*
D03*
X1646000Y1760000D02*
D03*
X1607000Y2453070D02*
D03*
X1815000Y2355000D02*
D03*
X2656000Y2505000D02*
D03*
X1484000Y1373000D02*
D03*
X1262000Y1369000D02*
D03*
%TF.MD5,9bbd7ae11754901dcb3b91eb52626a94*%
M02*
