G04 Layer_Color=128*
%FSLAX26Y26*%
%MOIN*%
%TF.FileFunction,Paste,Bot*%
%TF.Part,Single*%
G01*
G75*
%TA.AperFunction,SMDPad,CuDef*%
%ADD11R,0.043307X0.066929*%
%ADD14R,0.035433X0.031496*%
%ADD25O,0.021654X0.062992*%
%ADD26O,0.062992X0.021654*%
D11*
X2004409Y1534016D02*
D03*
X2110709D02*
D03*
D14*
X2317559Y1861575D02*
D03*
Y1806457D02*
D03*
D25*
X2175039Y2076457D02*
D03*
X2143543D02*
D03*
X2112047D02*
D03*
X2080551D02*
D03*
X2049055D02*
D03*
X2017559D02*
D03*
X1986063D02*
D03*
X1954567D02*
D03*
X1923071D02*
D03*
X1891575D02*
D03*
X1860079D02*
D03*
Y1631575D02*
D03*
X1891575D02*
D03*
X1923071D02*
D03*
X1954567D02*
D03*
X1986063D02*
D03*
X2017559D02*
D03*
X2049055D02*
D03*
X2080551D02*
D03*
X2112047D02*
D03*
X2143543D02*
D03*
X2175039D02*
D03*
D26*
X1795118Y2011496D02*
D03*
Y1980000D02*
D03*
Y1948504D02*
D03*
Y1917008D02*
D03*
Y1885512D02*
D03*
Y1854016D02*
D03*
Y1822520D02*
D03*
Y1791024D02*
D03*
Y1759528D02*
D03*
Y1728032D02*
D03*
Y1696535D02*
D03*
X2240000D02*
D03*
Y1728032D02*
D03*
Y1759528D02*
D03*
Y1791024D02*
D03*
Y1822520D02*
D03*
Y1854016D02*
D03*
Y1885512D02*
D03*
Y1917008D02*
D03*
Y1948504D02*
D03*
Y1980000D02*
D03*
Y2011496D02*
D03*
%TF.MD5,44cf325d0f6c62a73c83048ef2d655cd*%
M02*
