G04 Layer_Color=128*
%FSLAX26Y26*%
%MOIN*%
%TF.FileFunction,Paste,Bot*%
%TF.Part,Single*%
G01*
G75*
%TA.AperFunction,SMDPad,CuDef*%
%ADD13R,0.043307X0.055118*%
%ADD17O,0.086614X0.023622*%
%ADD18R,0.043307X0.066929*%
%ADD19R,0.066929X0.043307*%
%ADD22R,0.033465X0.062992*%
%ADD31R,0.055118X0.043307*%
%TA.AperFunction,ConnectorPad*%
%ADD32R,0.033465X0.062992*%
%TA.AperFunction,SMDPad,CuDef*%
%ADD33R,0.062992X0.033465*%
D13*
X1761568Y2391000D02*
D03*
X1702512D02*
D03*
X1132512Y2351000D02*
D03*
X1191566D02*
D03*
X1832512Y2546000D02*
D03*
X1891566D02*
D03*
X1702512D02*
D03*
X1761566D02*
D03*
X1267512Y2351000D02*
D03*
X1326566D02*
D03*
X2219528Y2475000D02*
D03*
X2160472D02*
D03*
X2226568Y2296000D02*
D03*
X2167512D02*
D03*
X2593418Y2141000D02*
D03*
X2534362D02*
D03*
X2052890Y2389000D02*
D03*
X1993834D02*
D03*
X2084528Y2475000D02*
D03*
X2025472D02*
D03*
X1762678Y1525000D02*
D03*
X1703622D02*
D03*
X1133622Y1485000D02*
D03*
X1192678D02*
D03*
X1833622Y1680000D02*
D03*
X1892678D02*
D03*
X1703622D02*
D03*
X1762678D02*
D03*
X1268622Y1485000D02*
D03*
X1327678D02*
D03*
X2219528Y1610000D02*
D03*
X2160472D02*
D03*
X2227678Y1430000D02*
D03*
X2168622D02*
D03*
X2594528Y1275000D02*
D03*
X2535472D02*
D03*
X2054000Y1523000D02*
D03*
X1994944D02*
D03*
X2035472Y1610000D02*
D03*
X2094528D02*
D03*
D17*
X1610000Y2545000D02*
D03*
Y2495000D02*
D03*
Y2445000D02*
D03*
Y2395000D02*
D03*
Y2345000D02*
D03*
Y2295000D02*
D03*
Y2245000D02*
D03*
X1421024Y2545000D02*
D03*
Y2495000D02*
D03*
Y2445000D02*
D03*
Y2395000D02*
D03*
Y2345000D02*
D03*
Y2295000D02*
D03*
Y2245000D02*
D03*
X2312552Y2296000D02*
D03*
Y2346000D02*
D03*
Y2396000D02*
D03*
Y2446000D02*
D03*
Y2496000D02*
D03*
Y2546000D02*
D03*
Y2596000D02*
D03*
X2501528Y2296000D02*
D03*
Y2346000D02*
D03*
Y2396000D02*
D03*
Y2446000D02*
D03*
Y2496000D02*
D03*
Y2546000D02*
D03*
Y2596000D02*
D03*
X1611110Y1679000D02*
D03*
Y1629000D02*
D03*
Y1579000D02*
D03*
Y1529000D02*
D03*
Y1479000D02*
D03*
Y1429000D02*
D03*
Y1379000D02*
D03*
X1422134Y1679000D02*
D03*
Y1629000D02*
D03*
Y1579000D02*
D03*
Y1529000D02*
D03*
Y1479000D02*
D03*
Y1429000D02*
D03*
Y1379000D02*
D03*
X2313662Y1430000D02*
D03*
Y1480000D02*
D03*
Y1530000D02*
D03*
Y1580000D02*
D03*
Y1630000D02*
D03*
Y1680000D02*
D03*
Y1730000D02*
D03*
X2502638Y1430000D02*
D03*
Y1480000D02*
D03*
Y1530000D02*
D03*
Y1580000D02*
D03*
Y1630000D02*
D03*
Y1680000D02*
D03*
Y1730000D02*
D03*
D18*
X1134362Y2521000D02*
D03*
X1240662D02*
D03*
X1699362Y2296000D02*
D03*
X1805662D02*
D03*
X1330190Y2436000D02*
D03*
X1223890D02*
D03*
X1700740Y2206000D02*
D03*
X1807040D02*
D03*
X1703890Y2466000D02*
D03*
X1810190D02*
D03*
X2224662Y2564000D02*
D03*
X2118362D02*
D03*
X2524662Y2219000D02*
D03*
X2418362D02*
D03*
X2588362Y2554000D02*
D03*
X2694662D02*
D03*
X2225190Y2391000D02*
D03*
X2118890D02*
D03*
X1135472Y1655000D02*
D03*
X1241772D02*
D03*
X1700472Y1430000D02*
D03*
X1806772D02*
D03*
X1331300Y1570000D02*
D03*
X1225000D02*
D03*
X1701850Y1340000D02*
D03*
X1808150D02*
D03*
X1705000Y1600000D02*
D03*
X1811300D02*
D03*
X2225772Y1698000D02*
D03*
X2119472D02*
D03*
X2525772Y1353000D02*
D03*
X2419472D02*
D03*
X2589472Y1688000D02*
D03*
X2695772D02*
D03*
X2226300Y1525000D02*
D03*
X2120000D02*
D03*
D19*
X1317040Y2507850D02*
D03*
Y2614150D02*
D03*
X1887040Y2474150D02*
D03*
Y2367850D02*
D03*
X2711512Y2242150D02*
D03*
Y2135850D02*
D03*
X2598362Y2322150D02*
D03*
Y2215850D02*
D03*
X1996512Y2190850D02*
D03*
Y2297150D02*
D03*
X2008890Y2547850D02*
D03*
Y2654150D02*
D03*
X2088362Y2190850D02*
D03*
Y2297150D02*
D03*
X1318150Y1641850D02*
D03*
Y1748150D02*
D03*
X1888150Y1608150D02*
D03*
Y1501850D02*
D03*
X2712622Y1376150D02*
D03*
Y1269850D02*
D03*
X2599472Y1456150D02*
D03*
Y1349850D02*
D03*
X1997622Y1324850D02*
D03*
Y1431150D02*
D03*
X2010000Y1681850D02*
D03*
Y1788150D02*
D03*
X2089472Y1324850D02*
D03*
Y1431150D02*
D03*
D22*
X2706512Y2322070D02*
D03*
Y2455930D02*
D03*
X2707622Y1456072D02*
D03*
Y1589930D02*
D03*
D31*
X1911512Y2214472D02*
D03*
Y2273528D02*
D03*
X2593362Y2389472D02*
D03*
Y2448528D02*
D03*
X1912622Y1348472D02*
D03*
Y1407528D02*
D03*
X2594472Y1523472D02*
D03*
Y1582528D02*
D03*
D32*
X1052040Y2389070D02*
D03*
Y2522930D02*
D03*
X1053150Y1523070D02*
D03*
Y1656930D02*
D03*
D33*
X1330078Y1390000D02*
D03*
X1196220D02*
D03*
X1328968Y2256000D02*
D03*
X1195110D02*
D03*
%TF.MD5,c727b22a03abb011ab4eac2a8cec5b53*%
M02*
