G04 Layer_Color=16711935*
%FSLAX26Y26*%
%MOIN*%
%TF.FileFunction,Soldermask,Bot*%
%TF.Part,Single*%
G01*
G75*
%TA.AperFunction,SMDPad,CuDef*%
%ADD35R,0.043433X0.039496*%
%ADD36R,0.039496X0.043433*%
%ADD37O,0.094614X0.031622*%
%ADD38R,0.051307X0.074929*%
%ADD39R,0.074929X0.051307*%
%ADD41R,0.041465X0.070992*%
%TA.AperFunction,ComponentPad*%
%ADD44R,0.067055X0.067055*%
%ADD45C,0.067055*%
%ADD46R,0.067055X0.067055*%
%TA.AperFunction,ViaPad*%
%ADD47C,0.108000*%
%TA.AperFunction,ComponentPad*%
%ADD48C,0.063118*%
%TA.AperFunction,ViaPad*%
%ADD49C,0.033000*%
%TA.AperFunction,SMDPad,CuDef*%
%ADD51R,0.070992X0.041465*%
%TA.AperFunction,ConnectorPad*%
%ADD52R,0.074929X0.051307*%
D35*
X1362150Y1603118D02*
D03*
Y1548000D02*
D03*
X1369000Y2506528D02*
D03*
Y2451410D02*
D03*
D36*
X1889708Y1758000D02*
D03*
X1834590D02*
D03*
X1774708D02*
D03*
X1719590D02*
D03*
X2644708Y1468000D02*
D03*
X2589590D02*
D03*
X2164590Y1358000D02*
D03*
X2219708D02*
D03*
X2519708Y1738000D02*
D03*
X2464590D02*
D03*
X2314708Y1713000D02*
D03*
X2259590D02*
D03*
X2644708Y1533000D02*
D03*
X2589590D02*
D03*
X2109708Y1838000D02*
D03*
X2054590D02*
D03*
X1896560Y2661410D02*
D03*
X1841442D02*
D03*
X1781560D02*
D03*
X1726442D02*
D03*
X2651560Y2371410D02*
D03*
X2596442D02*
D03*
X2171442Y2261410D02*
D03*
X2226560D02*
D03*
X2526560Y2641410D02*
D03*
X2471442D02*
D03*
X2321560Y2616410D02*
D03*
X2266442D02*
D03*
X2651560Y2436410D02*
D03*
X2596442D02*
D03*
X2116560Y2741410D02*
D03*
X2061442D02*
D03*
X1714590Y1598000D02*
D03*
X1769708D02*
D03*
X1394708Y1393000D02*
D03*
X1339590D02*
D03*
X2649708Y1598000D02*
D03*
X2594590D02*
D03*
X1721442Y2501410D02*
D03*
X1776560D02*
D03*
X1401560Y2296410D02*
D03*
X1346442D02*
D03*
X2656560Y2501410D02*
D03*
X2601442D02*
D03*
D37*
X1633488Y1753000D02*
D03*
Y1703000D02*
D03*
Y1653000D02*
D03*
Y1603000D02*
D03*
Y1553000D02*
D03*
Y1503000D02*
D03*
Y1453000D02*
D03*
X1444512Y1753000D02*
D03*
Y1703000D02*
D03*
Y1653000D02*
D03*
Y1603000D02*
D03*
Y1553000D02*
D03*
Y1503000D02*
D03*
Y1453000D02*
D03*
X2501126Y1618000D02*
D03*
Y1568000D02*
D03*
Y1518000D02*
D03*
Y1468000D02*
D03*
Y1418000D02*
D03*
Y1368000D02*
D03*
Y1318000D02*
D03*
X2312150Y1618000D02*
D03*
Y1568000D02*
D03*
Y1518000D02*
D03*
Y1468000D02*
D03*
Y1418000D02*
D03*
Y1368000D02*
D03*
Y1318000D02*
D03*
X1640338Y2656410D02*
D03*
Y2606410D02*
D03*
Y2556410D02*
D03*
Y2506410D02*
D03*
Y2456410D02*
D03*
Y2406410D02*
D03*
Y2356410D02*
D03*
X1451362Y2656410D02*
D03*
Y2606410D02*
D03*
Y2556410D02*
D03*
Y2506410D02*
D03*
Y2456410D02*
D03*
Y2406410D02*
D03*
Y2356410D02*
D03*
X2507976Y2521410D02*
D03*
Y2471410D02*
D03*
Y2421410D02*
D03*
Y2371410D02*
D03*
Y2321410D02*
D03*
Y2271410D02*
D03*
Y2221410D02*
D03*
X2319000Y2521410D02*
D03*
Y2471410D02*
D03*
Y2421410D02*
D03*
Y2371410D02*
D03*
Y2321410D02*
D03*
Y2271410D02*
D03*
Y2221410D02*
D03*
D38*
X1334000Y1833000D02*
D03*
X1440300D02*
D03*
X1244000Y1708000D02*
D03*
X1350300D02*
D03*
X1724000Y1503000D02*
D03*
X1830300D02*
D03*
X1679000Y1368000D02*
D03*
X1785300D02*
D03*
X1724000Y1683000D02*
D03*
X1830300D02*
D03*
X1874000Y1368000D02*
D03*
X1980300D02*
D03*
X2254000Y1808000D02*
D03*
X2360300D02*
D03*
X2034000Y1738000D02*
D03*
X2140300D02*
D03*
X1564000Y1833000D02*
D03*
X1670300D02*
D03*
X1895300D02*
D03*
X1789000D02*
D03*
X1250850Y2611410D02*
D03*
X1357150D02*
D03*
X1340850Y2736410D02*
D03*
X1447150D02*
D03*
X1730850Y2406410D02*
D03*
X1837150D02*
D03*
X1685850Y2271410D02*
D03*
X1792150D02*
D03*
X1730850Y2586410D02*
D03*
X1837150D02*
D03*
X1880850Y2271410D02*
D03*
X1987150D02*
D03*
X2040850Y2641410D02*
D03*
X2147150D02*
D03*
X2260850Y2711410D02*
D03*
X2367150D02*
D03*
X1902150Y2736410D02*
D03*
X1795850D02*
D03*
X1570850D02*
D03*
X1677150D02*
D03*
D39*
X1912150Y1676150D02*
D03*
Y1569850D02*
D03*
X2072150Y1406150D02*
D03*
Y1299850D02*
D03*
X2052150Y1509850D02*
D03*
Y1616150D02*
D03*
X2627150Y1289850D02*
D03*
Y1396150D02*
D03*
X2737150Y1676150D02*
D03*
Y1569850D02*
D03*
X1919000Y2579560D02*
D03*
Y2473260D02*
D03*
X2079000Y2309560D02*
D03*
Y2203260D02*
D03*
X2059000Y2413260D02*
D03*
Y2519560D02*
D03*
X2634000Y2193260D02*
D03*
Y2299560D02*
D03*
X2744000Y2579560D02*
D03*
Y2473260D02*
D03*
D41*
X1277150Y1614930D02*
D03*
Y1481070D02*
D03*
X2172150D02*
D03*
Y1614930D02*
D03*
X1284000Y2518338D02*
D03*
Y2384480D02*
D03*
X2179000D02*
D03*
Y2518338D02*
D03*
D44*
X2150000Y1150000D02*
D03*
X2200000Y2850000D02*
D03*
X1350000Y1150000D02*
D03*
D45*
X2250000D02*
D03*
X2350000D02*
D03*
X2450000D02*
D03*
X2550000D02*
D03*
X2650000D02*
D03*
X1800000Y2850000D02*
D03*
X1900000D02*
D03*
X2000000D02*
D03*
X2100000D02*
D03*
X2850000Y1600000D02*
D03*
Y1700000D02*
D03*
Y2500000D02*
D03*
Y2100000D02*
D03*
X1450000Y1150000D02*
D03*
D46*
X2850000Y1500000D02*
D03*
Y2400000D02*
D03*
Y2000000D02*
D03*
D47*
X1100000Y1100000D02*
D03*
X2900000D02*
D03*
Y2900000D02*
D03*
X1100000D02*
D03*
D48*
X1150000Y1300000D02*
D03*
X1450000D02*
D03*
X1250000Y2150000D02*
D03*
X1550000D02*
D03*
X2400000Y2000000D02*
D03*
X2700000D02*
D03*
Y2100000D02*
D03*
X2400000D02*
D03*
X1250000Y2050000D02*
D03*
X1550000D02*
D03*
X1250000Y1950000D02*
D03*
X1550000D02*
D03*
D49*
X2591000Y1460000D02*
D03*
X1364000Y1602000D02*
D03*
X2268000Y2077000D02*
D03*
X1716000Y1596000D02*
D03*
X2597000Y2371000D02*
D03*
X1723000Y2502000D02*
D03*
X1484000Y2287000D02*
D03*
X2114000Y2349000D02*
D03*
X1653000Y1126000D02*
D03*
X2294000Y1846000D02*
D03*
X1686000Y1781000D02*
D03*
X1906000Y1528000D02*
D03*
X1941000Y1845000D02*
D03*
X1830000Y1840000D02*
D03*
X1370000Y2506000D02*
D03*
X1896000Y2663000D02*
D03*
X2686000Y2767000D02*
D03*
X2384000Y2486000D02*
D03*
X2216000Y2369000D02*
D03*
X2417000Y2555000D02*
D03*
X2486000Y2589000D02*
D03*
X2449000Y2491000D02*
D03*
X2683000Y1453000D02*
D03*
X1734000Y2789000D02*
D03*
X2345000Y2567000D02*
D03*
X2418000Y2694000D02*
D03*
X2423000Y2635000D02*
D03*
X1961000Y1738000D02*
D03*
X1399000Y2692000D02*
D03*
X2557000Y1592000D02*
D03*
X2230000Y1616000D02*
D03*
D51*
X1214078Y1393000D02*
D03*
X1080220D02*
D03*
X1220930Y2296410D02*
D03*
X1087072D02*
D03*
D52*
X1167150Y1616150D02*
D03*
Y1509850D02*
D03*
X1174000Y2519560D02*
D03*
Y2413260D02*
D03*
%TF.MD5,ee2a4b662df0df0c900fb5db1ba0876c*%
M02*
