G04 Layer_Color=8388736*
%FSLAX26Y26*%
%MOIN*%
%TF.FileFunction,Soldermask,Top*%
%TF.Part,Single*%
G01*
G75*
%TA.AperFunction,SMDPad,CuDef*%
%ADD35R,0.043433X0.039496*%
%ADD36R,0.039496X0.043433*%
%ADD37O,0.094614X0.031622*%
%ADD38R,0.051307X0.074929*%
%ADD39R,0.074929X0.051307*%
%ADD40O,0.074929X0.025716*%
%ADD41R,0.041465X0.070992*%
%ADD42O,0.029654X0.070992*%
%ADD43O,0.070992X0.029654*%
%TA.AperFunction,ComponentPad*%
%ADD44R,0.067055X0.067055*%
%ADD45C,0.067055*%
%ADD46R,0.067055X0.067055*%
%TA.AperFunction,ViaPad*%
%ADD47C,0.108000*%
%TA.AperFunction,ComponentPad*%
%ADD48C,0.063118*%
%TA.AperFunction,ViaPad*%
%ADD49C,0.033000*%
D35*
X2270000Y1907560D02*
D03*
Y1852440D02*
D03*
X1705000Y2710590D02*
D03*
Y2765708D02*
D03*
X2685000Y2710590D02*
D03*
Y2765708D02*
D03*
X1485000Y2232442D02*
D03*
Y2287560D02*
D03*
X2090000Y2232442D02*
D03*
Y2287560D02*
D03*
X1690000Y1882560D02*
D03*
Y1827440D02*
D03*
X2385000Y2432442D02*
D03*
Y2487560D02*
D03*
X1780000Y2432442D02*
D03*
Y2487560D02*
D03*
X1545000Y1219292D02*
D03*
Y1274410D02*
D03*
D36*
X1542560Y2633150D02*
D03*
X1487440D02*
D03*
X2522560D02*
D03*
X2467440D02*
D03*
X2287442Y1233072D02*
D03*
X2342560D02*
D03*
D37*
X2304488Y2350000D02*
D03*
Y2400000D02*
D03*
Y2450000D02*
D03*
Y2500000D02*
D03*
X2115512Y2350000D02*
D03*
Y2400000D02*
D03*
Y2450000D02*
D03*
Y2500000D02*
D03*
X1699488Y2350000D02*
D03*
Y2400000D02*
D03*
Y2450000D02*
D03*
Y2500000D02*
D03*
X1510512Y2350000D02*
D03*
Y2400000D02*
D03*
Y2450000D02*
D03*
Y2500000D02*
D03*
X2599488Y2693150D02*
D03*
Y2743150D02*
D03*
Y2793150D02*
D03*
Y2843150D02*
D03*
X2410512Y2693150D02*
D03*
Y2743150D02*
D03*
Y2793150D02*
D03*
Y2843150D02*
D03*
X1619488Y2693150D02*
D03*
Y2743150D02*
D03*
Y2793150D02*
D03*
Y2843150D02*
D03*
X1430512Y2693150D02*
D03*
Y2743150D02*
D03*
Y2793150D02*
D03*
Y2843150D02*
D03*
D38*
X2008150Y1560000D02*
D03*
X1901850D02*
D03*
X2161850Y2265000D02*
D03*
X2268150D02*
D03*
X2401850Y2350000D02*
D03*
X2508150D02*
D03*
X2346850Y2265000D02*
D03*
X2453150D02*
D03*
X1556850D02*
D03*
X1663150D02*
D03*
X1796850Y2350000D02*
D03*
X1903150D02*
D03*
X1741850Y2265000D02*
D03*
X1848150D02*
D03*
X2556850Y2930000D02*
D03*
X2663150D02*
D03*
X2443150D02*
D03*
X2336850D02*
D03*
X1463150D02*
D03*
X1356850D02*
D03*
X1576850D02*
D03*
X1683150D02*
D03*
X1651850Y1366850D02*
D03*
X1758150D02*
D03*
X1651850Y1126850D02*
D03*
X1758150D02*
D03*
X2581850Y1253070D02*
D03*
X2688150D02*
D03*
X2301850Y1513070D02*
D03*
X2408150D02*
D03*
X2508150Y1253070D02*
D03*
X2401850D02*
D03*
X2588150Y1513070D02*
D03*
X2481850D02*
D03*
D39*
X2310000Y2711850D02*
D03*
Y2818150D02*
D03*
X1330000Y2711850D02*
D03*
Y2818150D02*
D03*
X1885000Y1193700D02*
D03*
Y1300000D02*
D03*
X2675000Y1339922D02*
D03*
Y1446220D02*
D03*
X2315000Y1299922D02*
D03*
Y1406220D02*
D03*
D40*
X1787678Y1208464D02*
D03*
Y1234056D02*
D03*
Y1259646D02*
D03*
Y1285236D02*
D03*
X1622322Y1208464D02*
D03*
Y1234056D02*
D03*
Y1259646D02*
D03*
Y1285236D02*
D03*
X2577678Y1354686D02*
D03*
Y1380276D02*
D03*
Y1405866D02*
D03*
Y1431456D02*
D03*
X2412322Y1354686D02*
D03*
Y1380276D02*
D03*
Y1405866D02*
D03*
Y1431456D02*
D03*
D41*
X2215000Y1326142D02*
D03*
Y1460000D02*
D03*
D42*
X1822520Y2092440D02*
D03*
X1854016D02*
D03*
X1885512D02*
D03*
X1917008D02*
D03*
X1948504D02*
D03*
X1980000D02*
D03*
X2011496D02*
D03*
X2042992D02*
D03*
X2074488D02*
D03*
X2105984D02*
D03*
X2137480D02*
D03*
Y1647560D02*
D03*
X2105984D02*
D03*
X2074488D02*
D03*
X2042992D02*
D03*
X2011496D02*
D03*
X1980000D02*
D03*
X1948504D02*
D03*
X1917008D02*
D03*
X1885512D02*
D03*
X1854016D02*
D03*
X1822520D02*
D03*
D43*
X2202442Y2027480D02*
D03*
Y1995984D02*
D03*
Y1964488D02*
D03*
Y1932992D02*
D03*
Y1901496D02*
D03*
Y1870000D02*
D03*
Y1838504D02*
D03*
Y1807008D02*
D03*
Y1775512D02*
D03*
Y1744016D02*
D03*
Y1712520D02*
D03*
X1757560D02*
D03*
Y1744016D02*
D03*
Y1775512D02*
D03*
Y1807008D02*
D03*
Y1838504D02*
D03*
Y1870000D02*
D03*
Y1901496D02*
D03*
Y1932992D02*
D03*
Y1964488D02*
D03*
Y1995984D02*
D03*
Y2027480D02*
D03*
D44*
X2150000Y1150000D02*
D03*
X2200000Y2850000D02*
D03*
X1350000Y1150000D02*
D03*
D45*
X2250000D02*
D03*
X2350000D02*
D03*
X2450000D02*
D03*
X2550000D02*
D03*
X2650000D02*
D03*
X1800000Y2850000D02*
D03*
X1900000D02*
D03*
X2000000D02*
D03*
X2100000D02*
D03*
X2850000Y1600000D02*
D03*
Y1700000D02*
D03*
Y2500000D02*
D03*
Y2100000D02*
D03*
X1450000Y1150000D02*
D03*
D46*
X2850000Y1500000D02*
D03*
Y2400000D02*
D03*
Y2000000D02*
D03*
D47*
X1100000Y1100000D02*
D03*
X2900000D02*
D03*
Y2900000D02*
D03*
X1100000D02*
D03*
D48*
X1150000Y1300000D02*
D03*
X1450000D02*
D03*
X1250000Y2150000D02*
D03*
X1550000D02*
D03*
X2400000Y2000000D02*
D03*
X2700000D02*
D03*
Y2100000D02*
D03*
X2400000D02*
D03*
X1250000Y2050000D02*
D03*
X1550000D02*
D03*
X1250000Y1950000D02*
D03*
X1550000D02*
D03*
D49*
X2591000Y1460000D02*
D03*
X1364000Y1602000D02*
D03*
X2268000Y2077000D02*
D03*
X1716000Y1596000D02*
D03*
X2597000Y2371000D02*
D03*
X1723000Y2502000D02*
D03*
X1484000Y2287000D02*
D03*
X2114000Y2349000D02*
D03*
X1653000Y1126000D02*
D03*
X2294000Y1846000D02*
D03*
X1686000Y1781000D02*
D03*
X1906000Y1528000D02*
D03*
X1941000Y1845000D02*
D03*
X1830000Y1840000D02*
D03*
X1370000Y2506000D02*
D03*
X1896000Y2663000D02*
D03*
X2686000Y2767000D02*
D03*
X2384000Y2486000D02*
D03*
X2216000Y2369000D02*
D03*
X2417000Y2555000D02*
D03*
X2486000Y2589000D02*
D03*
X2449000Y2491000D02*
D03*
X2683000Y1453000D02*
D03*
X1734000Y2789000D02*
D03*
X2345000Y2567000D02*
D03*
X2418000Y2694000D02*
D03*
X2423000Y2635000D02*
D03*
X1961000Y1738000D02*
D03*
X1399000Y2692000D02*
D03*
X2557000Y1592000D02*
D03*
X2230000Y1616000D02*
D03*
%TF.MD5,f4b9aa8d389ef1e248ad5f308ea8654a*%
M02*
