G04 Layer_Color=8388736*
%FSLAX26Y26*%
%MOIN*%
%TF.FileFunction,Soldermask,Top*%
%TF.Part,Single*%
G01*
G75*
%TA.AperFunction,SMDPad,CuDef*%
G04:AMPARAMS|DCode=41|XSize=29.654mil|YSize=70.992mil|CornerRadius=0mil|HoleSize=0mil|Usage=FLASHONLY|Rotation=45.000|XOffset=0mil|YOffset=0mil|HoleType=Round|Shape=Round|*
%AMOVALD41*
21,1,0.041339,0.029654,0.000000,0.000000,135.0*
1,1,0.029654,0.014615,-0.014615*
1,1,0.029654,-0.014615,0.014615*
%
%ADD41OVALD41*%

G04:AMPARAMS|DCode=42|XSize=29.654mil|YSize=70.992mil|CornerRadius=0mil|HoleSize=0mil|Usage=FLASHONLY|Rotation=135.000|XOffset=0mil|YOffset=0mil|HoleType=Round|Shape=Round|*
%AMOVALD42*
21,1,0.041339,0.029654,0.000000,0.000000,225.0*
1,1,0.029654,0.014615,0.014615*
1,1,0.029654,-0.014615,-0.014615*
%
%ADD42OVALD42*%

G04:AMPARAMS|DCode=43|XSize=74.929mil|YSize=51.307mil|CornerRadius=0mil|HoleSize=0mil|Usage=FLASHONLY|Rotation=135.000|XOffset=0mil|YOffset=0mil|HoleType=Round|Shape=Rectangle|*
%AMROTATEDRECTD43*
4,1,4,0.044631,-0.008352,0.008352,-0.044631,-0.044631,0.008352,-0.008352,0.044631,0.044631,-0.008352,0.0*
%
%ADD43ROTATEDRECTD43*%

%ADD44R,0.051307X0.063118*%
%ADD45R,0.043433X0.039496*%
%ADD46R,0.039496X0.043433*%
G04:AMPARAMS|DCode=47|XSize=63.118mil|YSize=51.307mil|CornerRadius=0mil|HoleSize=0mil|Usage=FLASHONLY|Rotation=45.000|XOffset=0mil|YOffset=0mil|HoleType=Round|Shape=Rectangle|*
%AMROTATEDRECTD47*
4,1,4,-0.004176,-0.040456,-0.040456,-0.004176,0.004176,0.040456,0.040456,0.004176,-0.004176,-0.040456,0.0*
%
%ADD47ROTATEDRECTD47*%

%ADD48O,0.094614X0.031622*%
%ADD49R,0.051307X0.074929*%
%ADD50R,0.074929X0.051307*%
%ADD51O,0.025716X0.074929*%
%ADD52O,0.074929X0.025716*%
%ADD53R,0.041465X0.070992*%
%ADD54O,0.031622X0.094614*%
%TA.AperFunction,ViaPad*%
%ADD55C,0.108000*%
%TA.AperFunction,ComponentPad*%
%ADD56R,0.067055X0.067055*%
%ADD57C,0.067055*%
%ADD58R,0.067055X0.067055*%
%ADD59C,0.063118*%
%TA.AperFunction,ViaPad*%
%ADD60C,0.033000*%
D41*
X1723420Y2038254D02*
D03*
X1745692Y2060526D02*
D03*
X1767964Y2082796D02*
D03*
X1790234Y2105068D02*
D03*
X1812506Y2127338D02*
D03*
X1834776Y2149610D02*
D03*
X1857048Y2171880D02*
D03*
X1879318Y2194152D02*
D03*
X1901590Y2216422D02*
D03*
X1923860Y2238694D02*
D03*
X1946132Y2260966D02*
D03*
X2260710Y1946386D02*
D03*
X2238440Y1924114D02*
D03*
X2216168Y1901844D02*
D03*
X2193898Y1879572D02*
D03*
X2171626Y1857302D02*
D03*
X2149356Y1835030D02*
D03*
X2127084Y1812760D02*
D03*
X2104814Y1790488D02*
D03*
X2082542Y1768218D02*
D03*
X2060272Y1745946D02*
D03*
X2038000Y1723676D02*
D03*
D42*
Y2260964D02*
D03*
X2060272Y2238694D02*
D03*
X2082542Y2216422D02*
D03*
X2104814Y2194152D02*
D03*
X2127084Y2171880D02*
D03*
X2149356Y2149610D02*
D03*
X2171626Y2127338D02*
D03*
X2193898Y2105068D02*
D03*
X2216168Y2082796D02*
D03*
X2238440Y2060526D02*
D03*
X2260710Y2038254D02*
D03*
X1946132Y1723676D02*
D03*
X1923860Y1745946D02*
D03*
X1901590Y1768218D02*
D03*
X1879318Y1790488D02*
D03*
X1857048Y1812760D02*
D03*
X1834776Y1835030D02*
D03*
X1812506Y1857302D02*
D03*
X1790234Y1879572D02*
D03*
X1767964Y1901844D02*
D03*
X1745692Y1924114D02*
D03*
X1723420Y1946386D02*
D03*
D43*
X2237583Y1807583D02*
D03*
X2162417Y1732417D02*
D03*
D44*
X1504528Y2465000D02*
D03*
X1445472D02*
D03*
X1415472Y2865000D02*
D03*
X1474528D02*
D03*
X2495472Y2861850D02*
D03*
X2554528D02*
D03*
X2584528Y2461850D02*
D03*
X2525472D02*
D03*
X2158622Y2620000D02*
D03*
X2217678D02*
D03*
X1820000Y2405000D02*
D03*
X1879056D02*
D03*
D45*
X1121614Y1644764D02*
D03*
Y1699882D02*
D03*
D46*
X1664292Y1488150D02*
D03*
X1719410D02*
D03*
D47*
X2220000Y2195000D02*
D03*
X2178242Y2236758D02*
D03*
X1800000Y1750000D02*
D03*
X1758242Y1791758D02*
D03*
D48*
X2072638Y2470000D02*
D03*
Y2520000D02*
D03*
Y2570000D02*
D03*
Y2620000D02*
D03*
X1883662Y2470000D02*
D03*
Y2520000D02*
D03*
Y2570000D02*
D03*
Y2620000D02*
D03*
D49*
X1845000Y2710000D02*
D03*
X1951300D02*
D03*
X2015000D02*
D03*
X2121300D02*
D03*
X1188464Y1712322D02*
D03*
X1294764D02*
D03*
Y1352322D02*
D03*
X1188464D02*
D03*
X1536850Y1270000D02*
D03*
X1643150D02*
D03*
X1446850Y1515000D02*
D03*
X1553150D02*
D03*
X1711850Y1270000D02*
D03*
X1818150D02*
D03*
X2453150Y2466850D02*
D03*
X2346850D02*
D03*
X1546850Y2860000D02*
D03*
X1653150D02*
D03*
D50*
X2183150Y2553150D02*
D03*
Y2446850D02*
D03*
X1121614Y1575472D02*
D03*
Y1469174D02*
D03*
X1456850Y1441300D02*
D03*
Y1335000D02*
D03*
X1895000Y1538150D02*
D03*
Y1431850D02*
D03*
Y1368150D02*
D03*
Y1261850D02*
D03*
X2360000Y2713700D02*
D03*
Y2820000D02*
D03*
Y2650000D02*
D03*
Y2543700D02*
D03*
X1640000Y2676850D02*
D03*
Y2783150D02*
D03*
Y2613150D02*
D03*
Y2506850D02*
D03*
D51*
X1203228Y1449646D02*
D03*
X1228818D02*
D03*
X1254410D02*
D03*
X1280000D02*
D03*
X1203228Y1615000D02*
D03*
X1228818D02*
D03*
X1254410D02*
D03*
X1280000D02*
D03*
D52*
X1544174Y1426536D02*
D03*
Y1400944D02*
D03*
Y1375354D02*
D03*
Y1349764D02*
D03*
X1709528Y1426536D02*
D03*
Y1400944D02*
D03*
Y1375354D02*
D03*
Y1349764D02*
D03*
D53*
X1800000Y1486930D02*
D03*
Y1353070D02*
D03*
D54*
X2591472Y2767338D02*
D03*
X2541472D02*
D03*
X2491472D02*
D03*
X2441472D02*
D03*
X2591472Y2578362D02*
D03*
X2541472D02*
D03*
X2491472D02*
D03*
X2441472D02*
D03*
X1408528Y2559512D02*
D03*
X1458528D02*
D03*
X1508528D02*
D03*
X1558528D02*
D03*
X1408528Y2748488D02*
D03*
X1458528D02*
D03*
X1508528D02*
D03*
X1558528D02*
D03*
D55*
X1100000Y1100000D02*
D03*
X2900000D02*
D03*
Y2900000D02*
D03*
X1100000D02*
D03*
D56*
X2150000Y1150000D02*
D03*
X2200000Y2850000D02*
D03*
X1350000Y1150000D02*
D03*
D57*
X2250000D02*
D03*
X2350000D02*
D03*
X2450000D02*
D03*
X2550000D02*
D03*
X2650000D02*
D03*
X1800000Y2850000D02*
D03*
X1900000D02*
D03*
X2000000D02*
D03*
X2100000D02*
D03*
X1450000Y1150000D02*
D03*
X2850000Y1600000D02*
D03*
Y1700000D02*
D03*
Y2100000D02*
D03*
Y2400000D02*
D03*
D58*
Y1500000D02*
D03*
Y2000000D02*
D03*
Y2300000D02*
D03*
D59*
X1635000Y1145000D02*
D03*
X1935000D02*
D03*
X1150000Y1985000D02*
D03*
X1450000D02*
D03*
X2430000Y1885000D02*
D03*
X2730000D02*
D03*
X2145000Y1255000D02*
D03*
X2445000D02*
D03*
X2730000Y2020000D02*
D03*
X2430000D02*
D03*
X2693934Y2731066D02*
D03*
X2906066Y2518934D02*
D03*
D60*
X1190000Y1715000D02*
D03*
X1120000Y1575000D02*
D03*
X1895000Y1260000D02*
D03*
X1710000Y1270000D02*
D03*
X1640000Y1265000D02*
D03*
X1805000Y1750000D02*
D03*
X2220000Y2195000D02*
D03*
X2495000Y2860000D02*
D03*
X2585000Y2490000D02*
D03*
X2160000Y2620000D02*
D03*
X1820000Y2405000D02*
D03*
X1505000Y2465000D02*
D03*
X1415000Y2870000D02*
D03*
X1700000Y1525000D02*
D03*
X1330000Y1485000D02*
D03*
X2220000Y1610000D02*
D03*
X2235000Y2485000D02*
D03*
X1705000Y2390000D02*
D03*
X1325000Y2350000D02*
D03*
X2711000Y2857000D02*
D03*
X2336000Y2187000D02*
D03*
X1542000Y2499000D02*
D03*
X2578000Y2260000D02*
D03*
X1354000Y2742000D02*
D03*
X2241000Y2707000D02*
D03*
X1589000Y2592000D02*
D03*
X2041302Y1984000D02*
D03*
X2798000Y1198000D02*
D03*
X2712622Y1335000D02*
D03*
X1233000Y1863000D02*
D03*
X2486000Y1966000D02*
D03*
X2715000Y2125000D02*
D03*
X2595000Y1585000D02*
D03*
X1775000Y2200000D02*
D03*
X2025000Y2095000D02*
D03*
X2505000Y2450000D02*
D03*
X2235000Y2640000D02*
D03*
X2185000Y2730000D02*
D03*
X2165000Y1730000D02*
D03*
%TF.MD5,7eab0ddab7b2d6924ecb23c7adf3faed*%
M02*
