G04 Layer_Color=255*
%FSLAX26Y26*%
%MOIN*%
%TF.FileFunction,Pads,Top*%
%TF.Part,Single*%
G01*
G75*
%TA.AperFunction,SMDPad,CuDef*%
%ADD10R,0.043307X0.066929*%
%ADD11R,0.066929X0.043307*%
%ADD12O,0.086614X0.023622*%
%ADD13R,0.062992X0.033465*%
%ADD14R,0.031496X0.035433*%
%ADD15R,0.035433X0.031496*%
%ADD16R,0.033465X0.062992*%
%ADD17O,0.021654X0.062992*%
%ADD18O,0.062992X0.021654*%
%TA.AperFunction,ComponentPad*%
%ADD23C,0.055118*%
%TA.AperFunction,ViaPad*%
%ADD24C,0.160000*%
%TA.AperFunction,ComponentPad*%
%ADD25C,0.059055*%
%ADD26R,0.059055X0.059055*%
%ADD27R,0.059055X0.059055*%
D10*
X1422600Y1373070D02*
D03*
X1528900D02*
D03*
X1849450Y1413070D02*
D03*
X1955750D02*
D03*
X1415040Y1893070D02*
D03*
X1521340D02*
D03*
X1755750Y1393070D02*
D03*
X1649450D02*
D03*
X1928900Y1693070D02*
D03*
X1822600D02*
D03*
X2068900Y1813070D02*
D03*
X1962600D02*
D03*
X1313780Y2333070D02*
D03*
X1420080D02*
D03*
X1433780Y2033070D02*
D03*
X1540080D02*
D03*
X1826850Y2413070D02*
D03*
X1933150D02*
D03*
X2140080Y2033070D02*
D03*
X2033780D02*
D03*
X1753780Y2513070D02*
D03*
X1860080D02*
D03*
X1680080D02*
D03*
X1573780D02*
D03*
X2618662Y2620000D02*
D03*
X2724960D02*
D03*
X2545590Y2720000D02*
D03*
X2651890D02*
D03*
X2225590Y2240000D02*
D03*
X2331890D02*
D03*
X2105590Y2540000D02*
D03*
X2211890D02*
D03*
X2471890Y2720000D02*
D03*
X2365590D02*
D03*
X2413150Y1260000D02*
D03*
X2306850D02*
D03*
D11*
X1415750Y1806220D02*
D03*
Y1699920D02*
D03*
X2055750Y1599920D02*
D03*
Y1706220D02*
D03*
X1428820Y1566220D02*
D03*
Y1459920D02*
D03*
X1246930Y2186220D02*
D03*
Y2079920D02*
D03*
X2038740Y2393150D02*
D03*
Y2286850D02*
D03*
X2840000Y2146850D02*
D03*
Y2253150D02*
D03*
D12*
X1728820Y1463070D02*
D03*
Y1513070D02*
D03*
Y1563070D02*
D03*
Y1613070D02*
D03*
Y1663070D02*
D03*
Y1713070D02*
D03*
Y1763070D02*
D03*
X1539844Y1463070D02*
D03*
Y1513070D02*
D03*
Y1563070D02*
D03*
Y1613070D02*
D03*
Y1663070D02*
D03*
Y1713070D02*
D03*
Y1763070D02*
D03*
X1720000Y2123070D02*
D03*
Y2173070D02*
D03*
Y2223070D02*
D03*
Y2273070D02*
D03*
Y2323070D02*
D03*
Y2373070D02*
D03*
Y2423070D02*
D03*
X1531024Y2123070D02*
D03*
Y2173070D02*
D03*
Y2223070D02*
D03*
Y2273070D02*
D03*
Y2323070D02*
D03*
Y2373070D02*
D03*
Y2423070D02*
D03*
X2511812Y2330000D02*
D03*
Y2380000D02*
D03*
Y2430000D02*
D03*
Y2480000D02*
D03*
Y2530000D02*
D03*
Y2580000D02*
D03*
Y2630000D02*
D03*
X2322834Y2330000D02*
D03*
Y2380000D02*
D03*
Y2430000D02*
D03*
Y2480000D02*
D03*
Y2530000D02*
D03*
Y2580000D02*
D03*
Y2630000D02*
D03*
D13*
X1995750Y1513070D02*
D03*
X1861892D02*
D03*
X2604882Y2260000D02*
D03*
X2738740D02*
D03*
X1813072Y2053070D02*
D03*
X1946930D02*
D03*
D14*
X1870160Y1613070D02*
D03*
X1815042D02*
D03*
X1915040D02*
D03*
X1970158D02*
D03*
X1443308Y1633070D02*
D03*
X1388190D02*
D03*
X1663308Y1853070D02*
D03*
X1608190D02*
D03*
X1843308D02*
D03*
X1788190D02*
D03*
X1903308Y1773070D02*
D03*
X1848190D02*
D03*
X1323308Y1833070D02*
D03*
X1268190D02*
D03*
X1434488Y2193070D02*
D03*
X1379370D02*
D03*
X1651812Y2013070D02*
D03*
X1706930D02*
D03*
X1379370Y2253070D02*
D03*
X1434488D02*
D03*
X2443622Y2220000D02*
D03*
X2498740D02*
D03*
X2520000Y1260000D02*
D03*
X2575118D02*
D03*
X2226300Y2400000D02*
D03*
X2171182D02*
D03*
Y2460000D02*
D03*
X2226300D02*
D03*
D15*
X1806930Y2340630D02*
D03*
Y2285512D02*
D03*
X1373780Y2120630D02*
D03*
Y2065512D02*
D03*
X2598740Y2547560D02*
D03*
Y2492440D02*
D03*
X2165590Y2327560D02*
D03*
Y2272440D02*
D03*
D16*
X2691812Y2373070D02*
D03*
Y2506930D02*
D03*
X1900000Y2166140D02*
D03*
Y2300000D02*
D03*
D17*
X2698190Y1782442D02*
D03*
X2666692D02*
D03*
X2635196D02*
D03*
X2603700D02*
D03*
X2572204D02*
D03*
X2540708D02*
D03*
X2509212D02*
D03*
X2477716D02*
D03*
X2446220D02*
D03*
X2414724D02*
D03*
X2383228D02*
D03*
Y1337560D02*
D03*
X2414724D02*
D03*
X2446220D02*
D03*
X2477716D02*
D03*
X2509212D02*
D03*
X2540708D02*
D03*
X2572204D02*
D03*
X2603700D02*
D03*
X2635196D02*
D03*
X2666692D02*
D03*
X2698190D02*
D03*
D18*
X2318268Y1717480D02*
D03*
Y1685984D02*
D03*
Y1654488D02*
D03*
Y1622992D02*
D03*
Y1591496D02*
D03*
Y1560000D02*
D03*
Y1528504D02*
D03*
Y1497008D02*
D03*
Y1465512D02*
D03*
Y1434016D02*
D03*
Y1402520D02*
D03*
X2763150D02*
D03*
Y1434016D02*
D03*
Y1465512D02*
D03*
Y1497008D02*
D03*
Y1528504D02*
D03*
Y1560000D02*
D03*
Y1591496D02*
D03*
Y1622992D02*
D03*
Y1654488D02*
D03*
Y1685984D02*
D03*
Y1717480D02*
D03*
D23*
X1140000Y1890000D02*
D03*
Y2190000D02*
D03*
X2920000Y2230000D02*
D03*
Y1930000D02*
D03*
X1060000Y1890000D02*
D03*
Y2190000D02*
D03*
X2920000Y2630000D02*
D03*
Y2330000D02*
D03*
X1060000Y2670000D02*
D03*
Y2370000D02*
D03*
X2820000Y2630000D02*
D03*
Y2330000D02*
D03*
D24*
X1100000Y2900000D02*
D03*
X2900000D02*
D03*
Y1100000D02*
D03*
X1100000D02*
D03*
D25*
X1560000Y1140000D02*
D03*
X1891850Y2854488D02*
D03*
X1991850D02*
D03*
X2091850D02*
D03*
X2191850D02*
D03*
X2120000Y1140000D02*
D03*
X2220000D02*
D03*
X2320000D02*
D03*
X2420000D02*
D03*
X2520000D02*
D03*
X2860000Y1600000D02*
D03*
Y1700000D02*
D03*
X1140000Y1460000D02*
D03*
Y1780000D02*
D03*
D26*
X1660000Y1140000D02*
D03*
X1791850Y2854488D02*
D03*
X2620000Y1140000D02*
D03*
D27*
X2860000Y1800000D02*
D03*
X1140000Y1360000D02*
D03*
Y1680000D02*
D03*
%TF.MD5,94c73dcf0970ba6d2d1a10c4d9a9844c*%
M02*
