G04 Layer_Physical_Order=4*
G04 Layer_Color=16711680*
%FSLAX26Y26*%
%MOIN*%
%TF.FileFunction,Copper,L4,Bot,Signal*%
%TF.Part,Single*%
G01*
G75*
%TA.AperFunction,SMDPad,CuDef*%
%ADD15R,0.043307X0.055118*%
%ADD18O,0.086614X0.023622*%
%ADD19R,0.043307X0.066929*%
%ADD20R,0.066929X0.043307*%
%ADD22R,0.033465X0.062992*%
%TA.AperFunction,Conductor*%
%ADD24C,0.010000*%
%TA.AperFunction,ViaPad*%
%ADD25C,0.100000*%
%TA.AperFunction,ComponentPad*%
%ADD26R,0.059055X0.059055*%
%ADD27C,0.059055*%
%ADD28R,0.059055X0.059055*%
%ADD29C,0.055118*%
%TA.AperFunction,ViaPad*%
%ADD30C,0.025000*%
%ADD31C,0.019685*%
%TA.AperFunction,SMDPad,CuDef*%
%ADD38R,0.055118X0.043307*%
%ADD39R,0.062992X0.033465*%
G36*
X3000000Y1000000D02*
X1000000D01*
Y3000000D01*
X3000000D01*
Y1000000D01*
D02*
G37*
%LPC*%
G36*
X1162126Y1693465D02*
X1108819D01*
Y1665196D01*
X1098629D01*
X1096902Y1666350D01*
X1093000Y1667126D01*
X1074882D01*
Y1693426D01*
X1031418D01*
Y1620434D01*
X1074882D01*
Y1646734D01*
X1089301D01*
X1091028Y1645580D01*
X1094930Y1644804D01*
X1108819D01*
Y1616535D01*
X1125276D01*
Y1598206D01*
X1126052Y1594304D01*
X1128262Y1590996D01*
X1179063Y1540196D01*
X1176992Y1535196D01*
X1139223D01*
X1102210Y1572210D01*
X1098902Y1574420D01*
X1095000Y1575196D01*
X1026000D01*
X1022098Y1574420D01*
X1018790Y1572210D01*
X1016580Y1568902D01*
X1015804Y1565000D01*
Y1376000D01*
X1016580Y1372098D01*
X1018790Y1368790D01*
X1056790Y1330790D01*
X1060098Y1328580D01*
X1064000Y1327804D01*
X1456000D01*
X1459902Y1328580D01*
X1463210Y1330790D01*
X1484210Y1351790D01*
X1486420Y1355098D01*
X1487196Y1359000D01*
Y1429000D01*
X1486420Y1432902D01*
X1484210Y1436210D01*
X1480902Y1438420D01*
X1477000Y1439196D01*
X1467036D01*
X1465750Y1441120D01*
X1460189Y1444836D01*
X1453630Y1446140D01*
X1390638D01*
X1384079Y1444836D01*
X1378518Y1441120D01*
X1374802Y1435559D01*
X1373498Y1429000D01*
X1374802Y1422441D01*
X1378518Y1416880D01*
X1384079Y1413164D01*
X1390638Y1411860D01*
X1453630D01*
X1460189Y1413164D01*
X1461804Y1414243D01*
X1466804Y1411571D01*
Y1396429D01*
X1461804Y1393757D01*
X1460189Y1394836D01*
X1453630Y1396140D01*
X1390638D01*
X1384079Y1394836D01*
X1378518Y1391120D01*
X1374802Y1385559D01*
X1374135Y1382204D01*
X1371554Y1380479D01*
X1366574Y1382882D01*
Y1411732D01*
X1293582D01*
Y1400196D01*
X1276223D01*
X1260777Y1415642D01*
X1261843Y1421000D01*
X1260485Y1427828D01*
X1256617Y1433617D01*
X1250828Y1437485D01*
X1244000Y1438843D01*
X1237172Y1437485D01*
X1231383Y1433617D01*
X1227515Y1427828D01*
X1226157Y1421000D01*
X1227006Y1416732D01*
X1223590Y1411732D01*
X1179166D01*
X1177649Y1416732D01*
X1181617Y1419383D01*
X1185485Y1425172D01*
X1186843Y1432000D01*
X1185485Y1438828D01*
X1181617Y1444617D01*
X1177390Y1447441D01*
X1178907Y1452441D01*
X1219332D01*
Y1517559D01*
X1202874D01*
Y1541000D01*
X1202098Y1544902D01*
X1199888Y1548210D01*
X1145668Y1602429D01*
Y1616535D01*
X1162126D01*
Y1693465D01*
D02*
G37*
G36*
X1730275Y1712559D02*
X1676968D01*
Y1689510D01*
X1676516Y1689420D01*
X1676181Y1689196D01*
X1656012D01*
X1654726Y1691120D01*
X1649165Y1694836D01*
X1642606Y1696140D01*
X1579614D01*
X1573055Y1694836D01*
X1567494Y1691120D01*
X1563778Y1685559D01*
X1562474Y1679000D01*
X1563778Y1672441D01*
X1567494Y1666880D01*
X1573055Y1663164D01*
X1579614Y1661860D01*
X1600914D01*
Y1646140D01*
X1579614D01*
X1573055Y1644836D01*
X1567494Y1641120D01*
X1566208Y1639196D01*
X1557000D01*
X1553098Y1638420D01*
X1549790Y1636210D01*
X1547580Y1632902D01*
X1546804Y1629000D01*
Y1488000D01*
X1547580Y1484098D01*
X1549790Y1480790D01*
X1558790Y1471790D01*
X1562098Y1469580D01*
X1566000Y1468804D01*
X1566208D01*
X1567494Y1466880D01*
X1573055Y1463164D01*
X1579614Y1461860D01*
X1642606D01*
X1649165Y1463164D01*
X1654726Y1466880D01*
X1656012Y1468804D01*
X1668959D01*
X1673818Y1468464D01*
X1673819Y1463804D01*
Y1440196D01*
X1656000D01*
X1655421Y1440081D01*
X1654726Y1441120D01*
X1649165Y1444836D01*
X1642606Y1446140D01*
X1579614D01*
X1573055Y1444836D01*
X1567494Y1441120D01*
X1563778Y1435559D01*
X1562474Y1429000D01*
X1563778Y1422441D01*
X1567494Y1416880D01*
X1573055Y1413164D01*
X1579614Y1411860D01*
X1642606D01*
X1649165Y1413164D01*
X1654726Y1416880D01*
X1656167Y1419036D01*
X1658902Y1419580D01*
X1659237Y1419804D01*
X1673819D01*
Y1391535D01*
X1712517D01*
X1720588Y1383465D01*
X1718517Y1378465D01*
X1675197D01*
Y1360756D01*
X1670577Y1358842D01*
X1657856Y1371564D01*
X1658442Y1372441D01*
X1659746Y1379000D01*
X1658442Y1385559D01*
X1654726Y1391120D01*
X1649165Y1394836D01*
X1642606Y1396140D01*
X1579614D01*
X1573055Y1394836D01*
X1567494Y1391120D01*
X1561950Y1391469D01*
X1559196Y1394223D01*
Y1402000D01*
X1558420Y1405902D01*
X1556210Y1409210D01*
X1479210Y1486210D01*
X1475902Y1488420D01*
X1472000Y1489196D01*
X1467036D01*
X1465750Y1491120D01*
X1460189Y1494836D01*
X1453630Y1496140D01*
X1390638D01*
X1384079Y1494836D01*
X1378518Y1491120D01*
X1374802Y1485559D01*
X1373498Y1479000D01*
X1374802Y1472441D01*
X1378518Y1466880D01*
X1384079Y1463164D01*
X1390638Y1461860D01*
X1453630D01*
X1460189Y1463164D01*
X1465750Y1466880D01*
X1470937Y1465643D01*
X1538804Y1397777D01*
Y1390000D01*
X1539580Y1386098D01*
X1541790Y1382790D01*
X1552790Y1371790D01*
X1556098Y1369580D01*
X1560000Y1368804D01*
X1566208D01*
X1567494Y1366880D01*
X1573055Y1363164D01*
X1579614Y1361860D01*
X1600804D01*
Y1212000D01*
X1601580Y1208098D01*
X1603790Y1204790D01*
X1624804Y1183777D01*
Y1176018D01*
X1618580Y1173440D01*
X1611779Y1168221D01*
X1606560Y1161420D01*
X1603279Y1153500D01*
X1602160Y1145000D01*
X1603279Y1136500D01*
X1606560Y1128580D01*
X1611779Y1121779D01*
X1618580Y1116560D01*
X1626500Y1113279D01*
X1635000Y1112160D01*
X1643500Y1113279D01*
X1651420Y1116560D01*
X1658221Y1121779D01*
X1663440Y1128580D01*
X1666721Y1136500D01*
X1667840Y1145000D01*
X1666721Y1153500D01*
X1663440Y1161420D01*
X1658221Y1168221D01*
X1651420Y1173440D01*
X1645196Y1176018D01*
Y1188000D01*
X1644420Y1191902D01*
X1642210Y1195210D01*
X1621196Y1216223D01*
Y1252643D01*
X1626196Y1254160D01*
X1627383Y1252383D01*
X1633172Y1248515D01*
X1640000Y1247157D01*
X1646828Y1248515D01*
X1652617Y1252383D01*
X1656485Y1258172D01*
X1657843Y1265000D01*
X1656485Y1271828D01*
X1652617Y1277617D01*
X1646828Y1281485D01*
X1640000Y1282843D01*
X1633172Y1281485D01*
X1627383Y1277617D01*
X1626196Y1275840D01*
X1621196Y1277357D01*
Y1361860D01*
X1638721D01*
X1667790Y1332790D01*
X1671098Y1330580D01*
X1675000Y1329804D01*
X1675197D01*
Y1301535D01*
X1723804D01*
Y1287837D01*
X1718804Y1285164D01*
X1716828Y1286485D01*
X1710000Y1287843D01*
X1703172Y1286485D01*
X1697383Y1282617D01*
X1693515Y1276828D01*
X1692157Y1270000D01*
X1693515Y1263172D01*
X1697383Y1257383D01*
X1703172Y1253515D01*
X1710000Y1252157D01*
X1716828Y1253515D01*
X1718804Y1254836D01*
X1723804Y1252163D01*
Y1184000D01*
X1724580Y1180098D01*
X1726790Y1176790D01*
X1765790Y1137790D01*
X1769098Y1135580D01*
X1773000Y1134804D01*
X1903982D01*
X1906560Y1128580D01*
X1911779Y1121779D01*
X1918580Y1116560D01*
X1926500Y1113279D01*
X1935000Y1112160D01*
X1943500Y1113279D01*
X1951420Y1116560D01*
X1958221Y1121779D01*
X1963440Y1128580D01*
X1966721Y1136500D01*
X1967840Y1145000D01*
X1966721Y1153500D01*
X1963440Y1161420D01*
X1958221Y1168221D01*
X1951420Y1173440D01*
X1943500Y1176721D01*
X1935000Y1177840D01*
X1926500Y1176721D01*
X1918580Y1173440D01*
X1911779Y1168221D01*
X1906560Y1161420D01*
X1903982Y1155196D01*
X1777223D01*
X1744196Y1188223D01*
Y1384472D01*
X1743420Y1388374D01*
X1741210Y1391682D01*
X1727126Y1405766D01*
X1727126Y1468464D01*
X1731985Y1468804D01*
X1851000D01*
X1854902Y1469580D01*
X1858210Y1471790D01*
X1861616Y1475197D01*
X1926614D01*
Y1528504D01*
X1849686D01*
Y1492105D01*
X1846777Y1489196D01*
X1733931D01*
X1730275Y1492441D01*
Y1557559D01*
X1730276Y1557559D01*
X1731654Y1561536D01*
X1731654D01*
X1731653Y1561988D01*
Y1638465D01*
X1678347D01*
Y1610196D01*
X1668000D01*
X1664098Y1609420D01*
X1660790Y1607210D01*
X1648541Y1594960D01*
X1642606Y1596140D01*
X1579614D01*
X1573055Y1594836D01*
X1572196Y1594262D01*
X1567196Y1596934D01*
Y1611066D01*
X1572196Y1613738D01*
X1573055Y1613164D01*
X1579614Y1611860D01*
X1642606D01*
X1649165Y1613164D01*
X1654726Y1616880D01*
X1658442Y1622441D01*
X1659746Y1629000D01*
X1658442Y1635559D01*
X1654726Y1641120D01*
X1649165Y1644836D01*
X1642606Y1646140D01*
X1621306D01*
Y1661860D01*
X1642606D01*
X1649165Y1663164D01*
X1654726Y1666880D01*
X1656012Y1668804D01*
X1676968D01*
Y1647441D01*
X1730275D01*
Y1712559D01*
D02*
G37*
G36*
X1268426Y1693465D02*
X1215119D01*
Y1616535D01*
X1268426D01*
Y1638084D01*
X1273426Y1640155D01*
X1278940Y1634640D01*
X1279686Y1634142D01*
Y1615197D01*
X1356614D01*
Y1626745D01*
X1361614Y1628816D01*
X1368640Y1621790D01*
X1371948Y1619580D01*
X1375850Y1618804D01*
X1377232D01*
X1378518Y1616880D01*
X1384079Y1613164D01*
X1390638Y1611860D01*
X1453630D01*
X1460189Y1613164D01*
X1465750Y1616880D01*
X1469466Y1622441D01*
X1470770Y1629000D01*
X1469466Y1635559D01*
X1465750Y1641120D01*
X1460189Y1644836D01*
X1453630Y1646140D01*
X1390638D01*
X1384079Y1644836D01*
X1378518Y1641120D01*
X1378182Y1641087D01*
X1370210Y1649060D01*
X1366902Y1651270D01*
X1363000Y1652046D01*
X1356614D01*
Y1668504D01*
X1279686D01*
Y1668116D01*
X1274685Y1664861D01*
X1273000Y1665196D01*
X1268426D01*
Y1693465D01*
D02*
G37*
G36*
X2850000Y1734825D02*
X2840986Y1733639D01*
X2832587Y1730160D01*
X2825375Y1724625D01*
X2819840Y1717413D01*
X2816361Y1709014D01*
X2815175Y1700000D01*
X2816361Y1690986D01*
X2819840Y1682587D01*
X2825375Y1675375D01*
X2832587Y1669840D01*
X2840986Y1666361D01*
X2850000Y1665175D01*
X2859014Y1666361D01*
X2867413Y1669840D01*
X2874625Y1675375D01*
X2880160Y1682587D01*
X2883639Y1690986D01*
X2884825Y1700000D01*
X2883639Y1709014D01*
X2880160Y1717413D01*
X2874625Y1724625D01*
X2867413Y1730160D01*
X2859014Y1733639D01*
X2850000Y1734825D01*
D02*
G37*
G36*
X2165000Y1747843D02*
X2158172Y1746485D01*
X2152383Y1742617D01*
X2148515Y1736828D01*
X2147157Y1730000D01*
X2148515Y1723172D01*
X2152383Y1717383D01*
X2158172Y1713515D01*
X2165000Y1712157D01*
X2171828Y1713515D01*
X2177617Y1717383D01*
X2181485Y1723172D01*
X2182843Y1730000D01*
X2181485Y1736828D01*
X2177617Y1742617D01*
X2171828Y1746485D01*
X2165000Y1747843D01*
D02*
G37*
G36*
X2884528Y2034527D02*
X2815472D01*
Y1965473D01*
X2884528D01*
Y2034527D01*
D02*
G37*
G36*
Y2334528D02*
X2815472D01*
Y2265472D01*
X2884528D01*
Y2334528D01*
D02*
G37*
G36*
X1805000Y1767843D02*
X1798172Y1766485D01*
X1792383Y1762617D01*
X1788515Y1756828D01*
X1787157Y1750000D01*
X1788515Y1743172D01*
X1792383Y1737383D01*
X1798172Y1733515D01*
X1805000Y1732157D01*
X1811828Y1733515D01*
X1817617Y1737383D01*
X1821485Y1743172D01*
X1822843Y1750000D01*
X1821485Y1756828D01*
X1817617Y1762617D01*
X1811828Y1766485D01*
X1805000Y1767843D01*
D02*
G37*
G36*
X2048465Y1814803D02*
X1971535D01*
Y1798346D01*
X1617150D01*
X1613248Y1797570D01*
X1609940Y1795360D01*
X1503777Y1689196D01*
X1467036D01*
X1465750Y1691120D01*
X1460189Y1694836D01*
X1453630Y1696140D01*
X1390638D01*
X1390061Y1696025D01*
X1386196Y1699198D01*
Y1724150D01*
X1385420Y1728052D01*
X1383210Y1731360D01*
X1359210Y1755360D01*
X1356614Y1757094D01*
Y1774803D01*
X1279686D01*
Y1721496D01*
X1356614D01*
Y1722583D01*
X1361234Y1724497D01*
X1365804Y1719927D01*
Y1679000D01*
X1366580Y1675098D01*
X1368790Y1671790D01*
X1372098Y1669580D01*
X1376000Y1668804D01*
X1377232D01*
X1378518Y1666880D01*
X1384079Y1663164D01*
X1390638Y1661860D01*
X1453630D01*
X1460189Y1663164D01*
X1465750Y1666880D01*
X1467036Y1668804D01*
X1508000D01*
X1511902Y1669580D01*
X1515210Y1671790D01*
X1621373Y1777954D01*
X1971535D01*
Y1761496D01*
X2048465D01*
Y1814803D01*
D02*
G37*
G36*
X1384527Y1184527D02*
X1315473D01*
Y1115473D01*
X1384527D01*
Y1184527D01*
D02*
G37*
G36*
X2184528D02*
X2115472D01*
Y1115473D01*
X2184528D01*
Y1184527D01*
D02*
G37*
G36*
X1100000Y1155475D02*
X1085642Y1153584D01*
X1072263Y1148042D01*
X1060774Y1139226D01*
X1051958Y1127737D01*
X1046416Y1114358D01*
X1044525Y1100000D01*
X1046416Y1085642D01*
X1051958Y1072263D01*
X1060774Y1060774D01*
X1072263Y1051958D01*
X1085642Y1046416D01*
X1100000Y1044525D01*
X1114358Y1046416D01*
X1127737Y1051958D01*
X1139226Y1060774D01*
X1148042Y1072263D01*
X1153584Y1085642D01*
X1155475Y1100000D01*
X1153584Y1114358D01*
X1148042Y1127737D01*
X1139226Y1139226D01*
X1127737Y1148042D01*
X1114358Y1153584D01*
X1100000Y1155475D01*
D02*
G37*
G36*
X2900000D02*
X2885642Y1153584D01*
X2872263Y1148042D01*
X2860773Y1139226D01*
X2851958Y1127737D01*
X2846416Y1114358D01*
X2844525Y1100000D01*
X2846416Y1085642D01*
X2851958Y1072263D01*
X2860773Y1060774D01*
X2872263Y1051958D01*
X2885642Y1046416D01*
X2900000Y1044525D01*
X2914358Y1046416D01*
X2927737Y1051958D01*
X2939227Y1060774D01*
X2948042Y1072263D01*
X2953584Y1085642D01*
X2955475Y1100000D01*
X2953584Y1114358D01*
X2948042Y1127737D01*
X2939227Y1139226D01*
X2927737Y1148042D01*
X2914358Y1153584D01*
X2900000Y1155475D01*
D02*
G37*
G36*
X1895000Y1277843D02*
X1888172Y1276485D01*
X1882383Y1272617D01*
X1878515Y1266828D01*
X1877157Y1260000D01*
X1878515Y1253172D01*
X1882383Y1247383D01*
X1888172Y1243515D01*
X1895000Y1242157D01*
X1901828Y1243515D01*
X1907617Y1247383D01*
X1911485Y1253172D01*
X1912843Y1260000D01*
X1911485Y1266828D01*
X1907617Y1272617D01*
X1901828Y1276485D01*
X1895000Y1277843D01*
D02*
G37*
G36*
X1453630Y1546140D02*
X1390638D01*
X1384079Y1544836D01*
X1378518Y1541120D01*
X1374802Y1535559D01*
X1373498Y1529000D01*
X1373677Y1528097D01*
X1358951Y1513370D01*
X1354332Y1515284D01*
Y1517559D01*
X1301024D01*
Y1452441D01*
X1354332D01*
Y1480867D01*
X1357210Y1482790D01*
X1387002Y1512583D01*
X1390638Y1511860D01*
X1453630D01*
X1460189Y1513164D01*
X1465750Y1516880D01*
X1469466Y1522441D01*
X1470770Y1529000D01*
X1469466Y1535559D01*
X1465750Y1541120D01*
X1460189Y1544836D01*
X1453630Y1546140D01*
D02*
G37*
G36*
X1357954Y1608465D02*
X1304647D01*
Y1581089D01*
X1299647Y1579572D01*
X1299617Y1579617D01*
X1293828Y1583485D01*
X1287000Y1584843D01*
X1280172Y1583485D01*
X1274383Y1579617D01*
X1270515Y1573828D01*
X1269157Y1567000D01*
X1270515Y1560172D01*
X1274383Y1554383D01*
X1280172Y1550515D01*
X1287000Y1549157D01*
X1293828Y1550515D01*
X1299617Y1554383D01*
X1299647Y1554428D01*
X1304647Y1552911D01*
Y1531535D01*
X1339613D01*
X1340383Y1530383D01*
X1346172Y1526515D01*
X1353000Y1525157D01*
X1359828Y1526515D01*
X1365617Y1530383D01*
X1369485Y1536172D01*
X1370843Y1543000D01*
X1369485Y1549828D01*
X1366160Y1554804D01*
X1367079Y1557856D01*
X1368350Y1559804D01*
X1372000D01*
X1375902Y1560580D01*
X1379210Y1562790D01*
X1381384Y1564965D01*
X1384079Y1563164D01*
X1390638Y1561860D01*
X1453630D01*
X1460189Y1563164D01*
X1465750Y1566880D01*
X1469466Y1572441D01*
X1470770Y1579000D01*
X1469466Y1585559D01*
X1465750Y1591120D01*
X1460189Y1594836D01*
X1453630Y1596140D01*
X1390638D01*
X1384079Y1594836D01*
X1378518Y1591120D01*
X1376403Y1587956D01*
X1373790Y1586210D01*
X1367777Y1580196D01*
X1357954D01*
Y1608465D01*
D02*
G37*
G36*
X2552425Y1391465D02*
X2499119D01*
Y1314535D01*
X2552425D01*
Y1339654D01*
X2561008D01*
Y1323197D01*
X2589276D01*
Y1318167D01*
X2587318Y1316210D01*
X2585108Y1312902D01*
X2584332Y1309000D01*
Y1307559D01*
X2567874D01*
Y1242441D01*
X2621182D01*
Y1307559D01*
X2612788D01*
X2609392Y1312559D01*
X2609668Y1313944D01*
Y1323197D01*
X2637936D01*
Y1376504D01*
X2561008D01*
Y1360046D01*
X2552425D01*
Y1391465D01*
D02*
G37*
G36*
X2884528Y1534527D02*
X2815472D01*
Y1465473D01*
X2884528D01*
Y1534527D01*
D02*
G37*
G36*
X1900000Y2884825D02*
X1890986Y2883639D01*
X1882587Y2880160D01*
X1875375Y2874625D01*
X1869840Y2867413D01*
X1866361Y2859014D01*
X1865175Y2850000D01*
X1866361Y2840986D01*
X1869840Y2832587D01*
X1875375Y2825375D01*
X1882587Y2819840D01*
X1890986Y2816361D01*
X1900000Y2815175D01*
X1909014Y2816361D01*
X1917413Y2819840D01*
X1924625Y2825375D01*
X1930160Y2832587D01*
X1933639Y2840986D01*
X1934825Y2850000D01*
X1933639Y2859014D01*
X1930160Y2867413D01*
X1924625Y2874625D01*
X1917413Y2880160D01*
X1909014Y2883639D01*
X1900000Y2884825D01*
D02*
G37*
G36*
X2000000D02*
X1990986Y2883639D01*
X1982587Y2880160D01*
X1975375Y2874625D01*
X1969840Y2867413D01*
X1966361Y2859014D01*
X1965175Y2850000D01*
X1966361Y2840986D01*
X1969840Y2832587D01*
X1975375Y2825375D01*
X1982587Y2819840D01*
X1990986Y2816361D01*
X2000000Y2815175D01*
X2009014Y2816361D01*
X2017413Y2819840D01*
X2024625Y2825375D01*
X2030160Y2832587D01*
X2033639Y2840986D01*
X2034825Y2850000D01*
X2033639Y2859014D01*
X2030160Y2867413D01*
X2024625Y2874625D01*
X2017413Y2880160D01*
X2009014Y2883639D01*
X2000000Y2884825D01*
D02*
G37*
G36*
X2100000D02*
X2090986Y2883639D01*
X2082587Y2880160D01*
X2075375Y2874625D01*
X2069840Y2867413D01*
X2066361Y2859014D01*
X2065175Y2850000D01*
X2066361Y2840986D01*
X2069840Y2832587D01*
X2075375Y2825375D01*
X2082587Y2819840D01*
X2090986Y2816361D01*
X2100000Y2815175D01*
X2109014Y2816361D01*
X2117413Y2819840D01*
X2124625Y2825375D01*
X2130160Y2832587D01*
X2133639Y2840986D01*
X2134825Y2850000D01*
X2133639Y2859014D01*
X2130160Y2867413D01*
X2124625Y2874625D01*
X2117413Y2880160D01*
X2109014Y2883639D01*
X2100000Y2884825D01*
D02*
G37*
G36*
X2241000Y2724843D02*
X2234172Y2723485D01*
X2228383Y2719617D01*
X2224515Y2713828D01*
X2223157Y2707000D01*
X2224515Y2700172D01*
X2228383Y2694383D01*
X2234172Y2690515D01*
X2241000Y2689157D01*
X2247828Y2690515D01*
X2253617Y2694383D01*
X2257485Y2700172D01*
X2258843Y2707000D01*
X2257485Y2713828D01*
X2253617Y2719617D01*
X2247828Y2723485D01*
X2241000Y2724843D01*
D02*
G37*
G36*
X1354000Y2759843D02*
X1347172Y2758485D01*
X1341383Y2754617D01*
X1337515Y2748828D01*
X1336157Y2742000D01*
X1337515Y2735172D01*
X1341383Y2729383D01*
X1347172Y2725515D01*
X1354000Y2724157D01*
X1360828Y2725515D01*
X1366617Y2729383D01*
X1370485Y2735172D01*
X1371843Y2742000D01*
X1370485Y2748828D01*
X1366617Y2754617D01*
X1360828Y2758485D01*
X1354000Y2759843D01*
D02*
G37*
G36*
X1800000Y2884825D02*
X1790986Y2883639D01*
X1782587Y2880160D01*
X1775375Y2874625D01*
X1769840Y2867413D01*
X1766361Y2859014D01*
X1765175Y2850000D01*
X1766361Y2840986D01*
X1769840Y2832587D01*
X1775375Y2825375D01*
X1782587Y2819840D01*
X1790986Y2816361D01*
X1800000Y2815175D01*
X1809014Y2816361D01*
X1817413Y2819840D01*
X1824625Y2825375D01*
X1830160Y2832587D01*
X1833639Y2840986D01*
X1834825Y2850000D01*
X1833639Y2859014D01*
X1830160Y2867413D01*
X1824625Y2874625D01*
X1817413Y2880160D01*
X1809014Y2883639D01*
X1800000Y2884825D01*
D02*
G37*
G36*
X1100000Y2955475D02*
X1085642Y2953584D01*
X1072263Y2948042D01*
X1060774Y2939227D01*
X1051958Y2927737D01*
X1046416Y2914358D01*
X1044525Y2900000D01*
X1046416Y2885642D01*
X1051958Y2872263D01*
X1060774Y2860773D01*
X1072263Y2851958D01*
X1085642Y2846416D01*
X1100000Y2844525D01*
X1114358Y2846416D01*
X1127737Y2851958D01*
X1139226Y2860773D01*
X1148042Y2872263D01*
X1153584Y2885642D01*
X1155475Y2900000D01*
X1153584Y2914358D01*
X1148042Y2927737D01*
X1139226Y2939227D01*
X1127737Y2948042D01*
X1114358Y2953584D01*
X1100000Y2955475D01*
D02*
G37*
G36*
X2900000D02*
X2885642Y2953584D01*
X2872263Y2948042D01*
X2860773Y2939227D01*
X2851958Y2927737D01*
X2846416Y2914358D01*
X2844525Y2900000D01*
X2846416Y2885642D01*
X2851958Y2872263D01*
X2860773Y2860773D01*
X2872263Y2851958D01*
X2885642Y2846416D01*
X2900000Y2844525D01*
X2914358Y2846416D01*
X2927737Y2851958D01*
X2939227Y2860773D01*
X2948042Y2872263D01*
X2953584Y2885642D01*
X2955475Y2900000D01*
X2953584Y2914358D01*
X2948042Y2927737D01*
X2939227Y2939227D01*
X2927737Y2948042D01*
X2914358Y2953584D01*
X2900000Y2955475D01*
D02*
G37*
G36*
X1415000Y2887843D02*
X1408172Y2886485D01*
X1402383Y2882617D01*
X1398515Y2876828D01*
X1397157Y2870000D01*
X1398515Y2863172D01*
X1402383Y2857383D01*
X1408172Y2853515D01*
X1415000Y2852157D01*
X1421828Y2853515D01*
X1427617Y2857383D01*
X1431485Y2863172D01*
X1432843Y2870000D01*
X1431485Y2876828D01*
X1427617Y2882617D01*
X1421828Y2886485D01*
X1415000Y2887843D01*
D02*
G37*
G36*
X2234528Y2884528D02*
X2165472D01*
Y2815472D01*
X2234528D01*
Y2884528D01*
D02*
G37*
G36*
X2711000Y2874843D02*
X2704172Y2873485D01*
X2698383Y2869617D01*
X2694515Y2863828D01*
X2693157Y2857000D01*
X2694515Y2850172D01*
X2698383Y2844383D01*
X2704172Y2840515D01*
X2711000Y2839157D01*
X2717828Y2840515D01*
X2723617Y2844383D01*
X2727485Y2850172D01*
X2728843Y2857000D01*
X2727485Y2863828D01*
X2723617Y2869617D01*
X2717828Y2873485D01*
X2711000Y2874843D01*
D02*
G37*
G36*
X2495000Y2877843D02*
X2488172Y2876485D01*
X2482383Y2872617D01*
X2478515Y2866828D01*
X2477157Y2860000D01*
X2478515Y2853172D01*
X2482383Y2847383D01*
X2488172Y2843515D01*
X2495000Y2842157D01*
X2501828Y2843515D01*
X2507617Y2847383D01*
X2511485Y2853172D01*
X2512843Y2860000D01*
X2511485Y2866828D01*
X2507617Y2872617D01*
X2501828Y2876485D01*
X2495000Y2877843D01*
D02*
G37*
G36*
X1267315Y2559465D02*
X1214008D01*
Y2482535D01*
X1267315D01*
Y2504194D01*
X1272315Y2506265D01*
X1277940Y2500640D01*
X1278575Y2500216D01*
Y2481197D01*
X1355505D01*
Y2492855D01*
X1360505Y2494926D01*
X1367640Y2487790D01*
X1370948Y2485580D01*
X1374850Y2484804D01*
X1376122D01*
X1377408Y2482880D01*
X1382969Y2479164D01*
X1389528Y2477860D01*
X1452520D01*
X1459079Y2479164D01*
X1464640Y2482880D01*
X1468356Y2488441D01*
X1469660Y2495000D01*
X1468356Y2501559D01*
X1464640Y2507120D01*
X1459079Y2510836D01*
X1452520Y2512140D01*
X1389528D01*
X1382969Y2510836D01*
X1377408Y2507120D01*
X1377172Y2507097D01*
X1369210Y2515060D01*
X1365902Y2517270D01*
X1362000Y2518046D01*
X1355505D01*
Y2534503D01*
X1278575D01*
Y2534189D01*
X1273575Y2530883D01*
X1272000Y2531196D01*
X1267315D01*
Y2559465D01*
D02*
G37*
G36*
X2721316Y2592465D02*
X2668008D01*
Y2515535D01*
X2684466D01*
Y2510850D01*
X2685242Y2506948D01*
X2687452Y2503640D01*
X2693667Y2497426D01*
X2691596Y2492426D01*
X2684780D01*
Y2419434D01*
X2728244D01*
Y2492426D01*
X2716708D01*
Y2499000D01*
X2715932Y2502902D01*
X2713722Y2506210D01*
X2709396Y2510535D01*
X2711467Y2515535D01*
X2721316D01*
Y2592465D01*
D02*
G37*
G36*
X1820000Y2422843D02*
X1813172Y2421485D01*
X1807383Y2417617D01*
X1803515Y2411828D01*
X1802157Y2405000D01*
X1803515Y2398172D01*
X1807383Y2392383D01*
X1813172Y2388515D01*
X1820000Y2387157D01*
X1826828Y2388515D01*
X1832617Y2392383D01*
X1836485Y2398172D01*
X1837843Y2405000D01*
X1836485Y2411828D01*
X1832617Y2417617D01*
X1826828Y2421485D01*
X1820000Y2422843D01*
D02*
G37*
G36*
X2731000Y2779196D02*
X2508000D01*
X2504098Y2778420D01*
X2500790Y2776210D01*
X2376790Y2652210D01*
X2374580Y2648902D01*
X2373804Y2645000D01*
Y2616223D01*
X2363777Y2606196D01*
X2357454D01*
X2356168Y2608120D01*
X2350607Y2611836D01*
X2344048Y2613140D01*
X2281056D01*
X2274497Y2611836D01*
X2268936Y2608120D01*
X2265220Y2602559D01*
X2263916Y2596000D01*
X2265220Y2589441D01*
X2268936Y2583880D01*
X2274497Y2580164D01*
X2281056Y2578860D01*
X2344048D01*
X2350607Y2580164D01*
X2356168Y2583880D01*
X2357454Y2585804D01*
X2368000D01*
X2371902Y2586580D01*
X2375210Y2588790D01*
X2391210Y2604790D01*
X2391804Y2605680D01*
X2396804Y2604163D01*
Y2589223D01*
X2363777Y2556196D01*
X2357454D01*
X2356168Y2558120D01*
X2350607Y2561836D01*
X2344048Y2563140D01*
X2281056D01*
X2275403Y2562016D01*
X2266210Y2571210D01*
X2262902Y2573420D01*
X2259000Y2574196D01*
X2251316D01*
Y2602465D01*
X2198008D01*
Y2525536D01*
X2193563Y2524196D01*
X2047354D01*
Y2574503D01*
X1970426D01*
Y2521197D01*
X1982804D01*
Y2437000D01*
X1983580Y2433098D01*
X1985790Y2429790D01*
X1989098Y2427580D01*
X1993000Y2426804D01*
X2084528D01*
X2087285Y2427353D01*
X2090925Y2425305D01*
X2092236Y2424110D01*
Y2352535D01*
X2145544D01*
Y2429465D01*
X2118845D01*
X2109625Y2438684D01*
X2111182Y2442441D01*
X2111182D01*
Y2503804D01*
X2192874D01*
Y2442441D01*
X2236856D01*
X2241506Y2437790D01*
X2244814Y2435580D01*
X2248716Y2434804D01*
X2268318D01*
X2268936Y2433880D01*
X2274497Y2430164D01*
X2281056Y2428860D01*
X2344048D01*
X2350607Y2430164D01*
X2356168Y2433880D01*
X2359884Y2439441D01*
X2364804Y2438548D01*
Y2403452D01*
X2359884Y2402559D01*
X2356168Y2408120D01*
X2350607Y2411836D01*
X2344048Y2413140D01*
X2281056D01*
X2274497Y2411836D01*
X2268936Y2408120D01*
X2267137Y2405427D01*
X2267098Y2405420D01*
X2263790Y2403210D01*
X2261777Y2401196D01*
X2251843D01*
Y2429465D01*
X2198537D01*
Y2352536D01*
X2198536D01*
X2200525Y2347535D01*
X2198684Y2345196D01*
X2080223D01*
X2073598Y2351822D01*
X2075511Y2356441D01*
X2079544D01*
Y2421559D01*
X2026236D01*
Y2356441D01*
X2043026D01*
X2043470Y2354208D01*
X2045680Y2350900D01*
X2067777Y2328803D01*
X2066636Y2324820D01*
X2065899Y2323803D01*
X2049898D01*
Y2270497D01*
X2126827D01*
Y2284718D01*
X2128150Y2285804D01*
X2140858D01*
Y2263441D01*
X2157825D01*
X2158092Y2262098D01*
X2160302Y2258790D01*
X2169302Y2249790D01*
X2172610Y2247580D01*
X2176512Y2246804D01*
X2386000D01*
X2386708Y2246945D01*
X2391709Y2243232D01*
Y2233782D01*
X2386709Y2231711D01*
X2380210Y2238210D01*
X2376902Y2240420D01*
X2373000Y2241196D01*
X2008000D01*
X2004098Y2240420D01*
X2000790Y2238210D01*
X1988790Y2226210D01*
X1986580Y2222902D01*
X1985804Y2219000D01*
Y2217503D01*
X1958048D01*
Y2217504D01*
X1954753Y2216139D01*
X1949210Y2221682D01*
X1945902Y2223892D01*
X1944071Y2224256D01*
Y2241126D01*
X1878953D01*
Y2187818D01*
X1900804D01*
Y1991000D01*
X1901580Y1987098D01*
X1903790Y1983790D01*
X1963790Y1923790D01*
X1967098Y1921580D01*
X1971000Y1920804D01*
X2077000D01*
X2080902Y1921580D01*
X2084210Y1923790D01*
X2123223Y1962804D01*
X2452000D01*
X2455902Y1963580D01*
X2459210Y1965790D01*
X2463963Y1970544D01*
X2468571Y1968081D01*
X2468157Y1966000D01*
X2468725Y1963144D01*
X2453337Y1947756D01*
X2259560D01*
X2255658Y1946980D01*
X2252350Y1944770D01*
X2045777Y1738196D01*
X1908678D01*
X1904776Y1737420D01*
X1901468Y1735210D01*
X1885468Y1719210D01*
X1883258Y1715902D01*
X1882593Y1712559D01*
X1866024D01*
Y1659726D01*
X1861024Y1657091D01*
X1860275Y1657604D01*
Y1712559D01*
X1806968D01*
Y1678150D01*
X1789332D01*
Y1712559D01*
X1736024D01*
Y1647441D01*
X1789332D01*
Y1657758D01*
X1806968D01*
Y1647441D01*
X1838527D01*
X1846767Y1638404D01*
X1849685Y1634803D01*
X1849685D01*
X1849686Y1634803D01*
Y1581496D01*
X1926614D01*
Y1634803D01*
X1877646D01*
X1870294Y1642867D01*
X1872313Y1647441D01*
X1919332D01*
Y1712559D01*
X1919332D01*
X1917265Y1717559D01*
X1917428Y1717804D01*
X2050000D01*
X2053902Y1718580D01*
X2057210Y1720790D01*
X2263783Y1927364D01*
X2380412D01*
X2382325Y1922745D01*
X2355790Y1896210D01*
X2353580Y1892902D01*
X2352804Y1889000D01*
Y1750665D01*
X2347804Y1746614D01*
X2345158Y1747140D01*
X2282166D01*
X2275607Y1745836D01*
X2270046Y1742120D01*
X2266330Y1736559D01*
X2265026Y1730000D01*
X2266330Y1723441D01*
X2270046Y1717880D01*
X2275607Y1714164D01*
X2282166Y1712860D01*
X2345158D01*
X2351717Y1714164D01*
X2357278Y1717880D01*
X2358564Y1719804D01*
X2363000D01*
X2366902Y1720580D01*
X2370210Y1722790D01*
X2372420Y1726098D01*
X2373196Y1730000D01*
Y1884777D01*
X2399965Y1911546D01*
X2403320Y1911081D01*
X2405108Y1906044D01*
X2401560Y1901420D01*
X2398279Y1893500D01*
X2397160Y1885000D01*
X2398279Y1876500D01*
X2401560Y1868580D01*
X2406779Y1861779D01*
X2413580Y1856560D01*
X2419804Y1853982D01*
Y1736901D01*
X2373099Y1690196D01*
X2358564D01*
X2357278Y1692120D01*
X2351717Y1695836D01*
X2345158Y1697140D01*
X2282166D01*
X2276421Y1695998D01*
X2267210Y1705210D01*
X2263902Y1707420D01*
X2260000Y1708196D01*
X2252425D01*
Y1736465D01*
X2199119D01*
Y1663196D01*
X2199118Y1659536D01*
X2194673Y1658196D01*
X2102528D01*
X2098626Y1657420D01*
X2095318Y1655210D01*
X2087318Y1647210D01*
X2085108Y1643902D01*
X2084841Y1642559D01*
X2067874D01*
Y1577441D01*
X2121182D01*
Y1637804D01*
X2192874D01*
Y1577441D01*
X2235856D01*
X2240506Y1572790D01*
X2243814Y1570580D01*
X2247716Y1569804D01*
X2268760D01*
X2270046Y1567880D01*
X2275607Y1564164D01*
X2282166Y1562860D01*
X2345158D01*
X2351717Y1564164D01*
X2352394Y1564617D01*
X2356804Y1562260D01*
Y1547740D01*
X2352394Y1545383D01*
X2351717Y1545836D01*
X2345158Y1547140D01*
X2282166D01*
X2275607Y1545836D01*
X2270046Y1542120D01*
X2268264Y1539453D01*
X2268098Y1539420D01*
X2264790Y1537210D01*
X2262777Y1535196D01*
X2252954D01*
Y1563465D01*
X2199646D01*
Y1491196D01*
X2146653D01*
Y1563465D01*
X2125773D01*
X2121028Y1568210D01*
X2117720Y1570420D01*
X2113818Y1571196D01*
X2055336D01*
X2054473Y1572441D01*
X2057090Y1577441D01*
X2062126D01*
Y1642559D01*
X2040332D01*
X2032314Y1650577D01*
X2034228Y1655197D01*
X2048465D01*
Y1708504D01*
X1971535D01*
Y1655197D01*
X2000456D01*
X2000580Y1654570D01*
X2002790Y1651262D01*
X2007083Y1646969D01*
X2008818Y1642559D01*
X2008818D01*
X2008819Y1642559D01*
Y1577441D01*
X2025276D01*
Y1573528D01*
X2026052Y1569626D01*
X2028262Y1566318D01*
X2034402Y1560178D01*
X2032489Y1555559D01*
X2027347D01*
Y1490441D01*
X2043915D01*
X2044580Y1487098D01*
X2046790Y1483790D01*
X2056790Y1473790D01*
X2060098Y1471580D01*
X2064000Y1470804D01*
X2216000D01*
X2219902Y1471580D01*
X2223210Y1473790D01*
X2233510Y1484090D01*
X2235143Y1486535D01*
X2252954D01*
Y1514804D01*
X2267000D01*
X2270902Y1515580D01*
X2272195Y1516444D01*
X2275607Y1514164D01*
X2282166Y1512860D01*
X2345158D01*
X2351717Y1514164D01*
X2352394Y1514617D01*
X2356804Y1512260D01*
Y1497740D01*
X2352394Y1495383D01*
X2351717Y1495836D01*
X2345158Y1497140D01*
X2282166D01*
X2275607Y1495836D01*
X2270046Y1492120D01*
X2266330Y1486559D01*
X2265026Y1480000D01*
X2266330Y1473441D01*
X2270046Y1467880D01*
X2275607Y1464164D01*
X2282166Y1462860D01*
X2303466D01*
Y1447140D01*
X2282166D01*
X2275607Y1445836D01*
X2270046Y1442120D01*
X2268760Y1440196D01*
X2254331D01*
Y1462559D01*
X2201024D01*
Y1397441D01*
X2254331D01*
Y1419804D01*
X2268760D01*
X2270046Y1417880D01*
X2275607Y1414164D01*
X2282166Y1412860D01*
X2345158D01*
X2347918Y1413409D01*
X2350381Y1408801D01*
X2331777Y1390196D01*
X2194127D01*
X2192373Y1392441D01*
X2194813Y1397441D01*
X2195276D01*
Y1462559D01*
X2141968D01*
Y1440196D01*
X2132461D01*
X2131902Y1440570D01*
X2128000Y1441346D01*
X2127936D01*
Y1457803D01*
X2051008D01*
Y1404496D01*
X2127936D01*
Y1418808D01*
X2129150Y1419804D01*
X2141968D01*
Y1397441D01*
X2158935D01*
X2159202Y1396098D01*
X2161412Y1392790D01*
X2181412Y1372790D01*
X2182302Y1372196D01*
X2180785Y1367196D01*
X2046000D01*
X2042098Y1366420D01*
X2038790Y1364210D01*
X2036580Y1360902D01*
X2035804Y1357000D01*
Y1351504D01*
X1959158D01*
Y1351504D01*
X1955785Y1350107D01*
X1950210Y1355682D01*
X1946902Y1357892D01*
X1945181Y1358234D01*
Y1375126D01*
X1880063D01*
Y1321819D01*
X1945181D01*
Y1325339D01*
X1949800Y1327252D01*
X1959158Y1317895D01*
Y1298197D01*
X2036086D01*
Y1314900D01*
X2038752Y1315430D01*
X2042060Y1317640D01*
X2053210Y1328790D01*
X2055420Y1332098D01*
X2056196Y1336000D01*
Y1346804D01*
X2220777D01*
X2221790Y1345790D01*
X2225098Y1343580D01*
X2229000Y1342804D01*
X2392818D01*
Y1314535D01*
X2446126D01*
Y1391465D01*
X2441352D01*
X2438701Y1396465D01*
X2439477Y1397610D01*
X2674157D01*
Y1349496D01*
X2695248D01*
X2697920Y1344496D01*
X2696137Y1341828D01*
X2694779Y1335000D01*
X2696137Y1328172D01*
X2700005Y1322383D01*
X2705794Y1318515D01*
X2712622Y1317157D01*
X2719450Y1318515D01*
X2725239Y1322383D01*
X2729107Y1328172D01*
X2730465Y1335000D01*
X2729107Y1341828D01*
X2727324Y1344496D01*
X2729996Y1349496D01*
X2751086D01*
Y1402803D01*
X2707378D01*
X2705464Y1407423D01*
X2714832Y1416790D01*
X2716693Y1419576D01*
X2729354D01*
Y1492568D01*
X2685890D01*
Y1419576D01*
X2681542Y1418002D01*
X2656575D01*
X2652997Y1423002D01*
X2653196Y1424000D01*
Y1473777D01*
X2692223Y1512804D01*
X2744777D01*
X2760894Y1496687D01*
Y1250313D01*
X2734777Y1224196D01*
X2557695D01*
X2545668Y1236223D01*
Y1242441D01*
X2562126D01*
Y1307559D01*
X2508818D01*
Y1285196D01*
X2465000D01*
X2461098Y1284420D01*
X2460316Y1283897D01*
X2453500Y1286721D01*
X2445000Y1287840D01*
X2436500Y1286721D01*
X2428580Y1283440D01*
X2421779Y1278221D01*
X2416560Y1271420D01*
X2413279Y1263500D01*
X2412160Y1255000D01*
X2413279Y1246500D01*
X2416560Y1238580D01*
X2421779Y1231779D01*
X2428580Y1226560D01*
X2436500Y1223279D01*
X2445000Y1222160D01*
X2453500Y1223279D01*
X2461420Y1226560D01*
X2468221Y1231779D01*
X2473440Y1238580D01*
X2476721Y1246500D01*
X2477840Y1255000D01*
X2477207Y1259804D01*
X2481302Y1264804D01*
X2508818D01*
Y1242441D01*
X2525276D01*
Y1232000D01*
X2526052Y1228098D01*
X2528262Y1224790D01*
X2540238Y1212815D01*
X2538324Y1208196D01*
X2206223D01*
X2174143Y1240276D01*
X2176721Y1246500D01*
X2177840Y1255000D01*
X2176721Y1263500D01*
X2173440Y1271420D01*
X2168221Y1278221D01*
X2161420Y1283440D01*
X2153500Y1286721D01*
X2145000Y1287840D01*
X2136500Y1286721D01*
X2128580Y1283440D01*
X2121779Y1278221D01*
X2116560Y1271420D01*
X2113279Y1263500D01*
X2112160Y1255000D01*
X2113279Y1246500D01*
X2116560Y1238580D01*
X2121779Y1231779D01*
X2128580Y1226560D01*
X2136500Y1223279D01*
X2145000Y1222160D01*
X2153500Y1223279D01*
X2159724Y1225857D01*
X2194790Y1190790D01*
X2198098Y1188580D01*
X2202000Y1187804D01*
X2237977D01*
X2238971Y1182804D01*
X2232587Y1180160D01*
X2225375Y1174625D01*
X2219840Y1167413D01*
X2216361Y1159014D01*
X2215175Y1150000D01*
X2216361Y1140986D01*
X2219840Y1132587D01*
X2225375Y1125375D01*
X2232587Y1119840D01*
X2240986Y1116361D01*
X2250000Y1115175D01*
X2259014Y1116361D01*
X2267413Y1119840D01*
X2274625Y1125375D01*
X2280160Y1132587D01*
X2283639Y1140986D01*
X2284825Y1150000D01*
X2283639Y1159014D01*
X2280160Y1167413D01*
X2274625Y1174625D01*
X2267413Y1180160D01*
X2261029Y1182804D01*
X2262023Y1187804D01*
X2437977D01*
X2438971Y1182804D01*
X2432587Y1180160D01*
X2425375Y1174625D01*
X2419840Y1167413D01*
X2416361Y1159014D01*
X2415175Y1150000D01*
X2416361Y1140986D01*
X2419840Y1132587D01*
X2425375Y1125375D01*
X2432587Y1119840D01*
X2440986Y1116361D01*
X2450000Y1115175D01*
X2459014Y1116361D01*
X2467413Y1119840D01*
X2474625Y1125375D01*
X2480160Y1132587D01*
X2483639Y1140986D01*
X2484825Y1150000D01*
X2483639Y1159014D01*
X2480160Y1167413D01*
X2474625Y1174625D01*
X2467413Y1180160D01*
X2461029Y1182804D01*
X2462023Y1187804D01*
X2537977D01*
X2538971Y1182804D01*
X2532587Y1180160D01*
X2525375Y1174625D01*
X2519840Y1167413D01*
X2516361Y1159014D01*
X2515175Y1150000D01*
X2516361Y1140986D01*
X2519840Y1132587D01*
X2525375Y1125375D01*
X2532587Y1119840D01*
X2540986Y1116361D01*
X2550000Y1115175D01*
X2559014Y1116361D01*
X2567413Y1119840D01*
X2574625Y1125375D01*
X2580160Y1132587D01*
X2583639Y1140986D01*
X2584825Y1150000D01*
X2583639Y1159014D01*
X2580160Y1167413D01*
X2574625Y1174625D01*
X2567413Y1180160D01*
X2561029Y1182804D01*
X2562023Y1187804D01*
X2637977D01*
X2638971Y1182804D01*
X2632587Y1180160D01*
X2625375Y1174625D01*
X2619840Y1167413D01*
X2616361Y1159014D01*
X2615175Y1150000D01*
X2616361Y1140986D01*
X2619840Y1132587D01*
X2625375Y1125375D01*
X2632587Y1119840D01*
X2640986Y1116361D01*
X2650000Y1115175D01*
X2659014Y1116361D01*
X2667413Y1119840D01*
X2674625Y1125375D01*
X2680160Y1132587D01*
X2683639Y1140986D01*
X2684825Y1150000D01*
X2683639Y1159014D01*
X2680160Y1167413D01*
X2674625Y1174625D01*
X2667413Y1180160D01*
X2661029Y1182804D01*
X2662023Y1187804D01*
X2783766D01*
X2785383Y1185383D01*
X2791172Y1181515D01*
X2798000Y1180157D01*
X2804828Y1181515D01*
X2810617Y1185383D01*
X2814485Y1191172D01*
X2815843Y1198000D01*
X2814485Y1204828D01*
X2810617Y1210617D01*
X2804828Y1214485D01*
X2798000Y1215843D01*
X2792174Y1214684D01*
X2789691Y1217777D01*
X2789227Y1218808D01*
X2793300Y1222880D01*
X2795510Y1226188D01*
X2796286Y1230090D01*
Y1513910D01*
X2795510Y1517812D01*
X2793300Y1521120D01*
X2759210Y1555210D01*
X2755902Y1557420D01*
X2752000Y1558196D01*
X2729354D01*
Y1626426D01*
X2717818D01*
Y1633000D01*
X2717042Y1636902D01*
X2714832Y1640210D01*
X2710506Y1644535D01*
X2712577Y1649535D01*
X2722425D01*
Y1726465D01*
X2669119D01*
Y1649535D01*
X2685576D01*
Y1644850D01*
X2686352Y1640948D01*
X2688562Y1637640D01*
X2694777Y1631426D01*
X2692706Y1626426D01*
X2685890D01*
Y1590062D01*
X2681270Y1588149D01*
X2647210Y1622210D01*
X2643902Y1624420D01*
X2640000Y1625196D01*
X2630148D01*
X2628235Y1629815D01*
X2655210Y1656790D01*
X2657420Y1660098D01*
X2658196Y1664000D01*
Y1798777D01*
X2715276Y1855857D01*
X2721500Y1853279D01*
X2730000Y1852160D01*
X2738500Y1853279D01*
X2746420Y1856560D01*
X2753221Y1861779D01*
X2758440Y1868580D01*
X2761721Y1876500D01*
X2762840Y1885000D01*
X2761721Y1893500D01*
X2758440Y1901420D01*
X2753221Y1908221D01*
X2746420Y1913440D01*
X2738500Y1916721D01*
X2730000Y1917840D01*
X2721500Y1916721D01*
X2715276Y1914143D01*
X2699650Y1929770D01*
X2696342Y1931980D01*
X2692440Y1932756D01*
X2473708D01*
X2471794Y1937375D01*
X2483144Y1948725D01*
X2486000Y1948157D01*
X2492828Y1949515D01*
X2498617Y1953383D01*
X2502485Y1959172D01*
X2503843Y1966000D01*
X2503153Y1969469D01*
X2506507Y1974930D01*
X2506751Y1975057D01*
X2508294Y1975286D01*
X2508790Y1974790D01*
X2512098Y1972580D01*
X2516000Y1971804D01*
X2752000D01*
X2755902Y1972580D01*
X2759210Y1974790D01*
X2775210Y1990790D01*
X2777420Y1994098D01*
X2778196Y1998000D01*
Y2272000D01*
X2777420Y2275902D01*
X2775210Y2279210D01*
X2759210Y2295210D01*
X2755902Y2297420D01*
X2752000Y2298196D01*
X2728244D01*
Y2358566D01*
X2684780D01*
Y2285574D01*
X2696799D01*
X2697092Y2284098D01*
X2699302Y2280790D01*
X2702610Y2278580D01*
X2706512Y2277804D01*
X2747777D01*
X2750162Y2275418D01*
X2750168Y2273612D01*
X2745395Y2268804D01*
X2673048Y2268803D01*
Y2258905D01*
X2668428Y2256991D01*
X2634542Y2290877D01*
X2636456Y2295497D01*
X2636827D01*
Y2348803D01*
X2608558D01*
Y2353000D01*
X2607782Y2356902D01*
X2607169Y2357818D01*
X2609842Y2362818D01*
X2625921D01*
Y2416126D01*
X2564638Y2416126D01*
X2564523D01*
D01*
X2563616Y2416126D01*
X2562974Y2417674D01*
X2561545Y2421126D01*
X2562210Y2421790D01*
X2564420Y2425098D01*
X2565196Y2429000D01*
Y2479140D01*
X2570196Y2480657D01*
X2572383Y2477383D01*
X2578172Y2473515D01*
X2585000Y2472157D01*
X2591828Y2473515D01*
X2597617Y2477383D01*
X2601485Y2483172D01*
X2602843Y2490000D01*
X2601485Y2496828D01*
X2597617Y2502617D01*
X2591828Y2506485D01*
X2585000Y2507843D01*
X2578172Y2506485D01*
X2572383Y2502617D01*
X2570196Y2499343D01*
X2565196Y2500860D01*
Y2515535D01*
X2615015D01*
Y2592465D01*
X2561709D01*
Y2578244D01*
X2557089Y2576330D01*
X2546905Y2586515D01*
X2548860Y2589441D01*
X2550164Y2596000D01*
X2548860Y2602559D01*
X2545144Y2608120D01*
X2539583Y2611836D01*
X2533024Y2613140D01*
X2476631D01*
X2474559Y2618140D01*
X2486223Y2629804D01*
X2668000D01*
X2671902Y2630580D01*
X2675210Y2632790D01*
X2739210Y2696790D01*
X2741420Y2700098D01*
X2742196Y2704000D01*
Y2736852D01*
X2746815Y2738765D01*
X2895870Y2589711D01*
Y2549952D01*
X2889646Y2547374D01*
X2882845Y2542155D01*
X2877626Y2535354D01*
X2874345Y2527434D01*
X2873226Y2518934D01*
X2874345Y2510434D01*
X2877626Y2502514D01*
X2882845Y2495713D01*
X2889646Y2490494D01*
X2897566Y2487213D01*
X2906066Y2486094D01*
X2914566Y2487213D01*
X2922486Y2490494D01*
X2929287Y2495713D01*
X2934506Y2502514D01*
X2937787Y2510434D01*
X2938906Y2518934D01*
X2937787Y2527434D01*
X2934506Y2535354D01*
X2929287Y2542155D01*
X2922486Y2547374D01*
X2916262Y2549952D01*
Y2593934D01*
X2915486Y2597836D01*
X2913276Y2601144D01*
X2738210Y2776210D01*
X2734902Y2778420D01*
X2731000Y2779196D01*
D02*
G37*
G36*
X2160000Y2637843D02*
X2153172Y2636485D01*
X2147383Y2632617D01*
X2143515Y2626828D01*
X2142157Y2620000D01*
X2143515Y2613172D01*
X2147383Y2607383D01*
X2153172Y2603515D01*
X2160000Y2602157D01*
X2166828Y2603515D01*
X2172617Y2607383D01*
X2176485Y2613172D01*
X2177843Y2620000D01*
X2176485Y2626828D01*
X2172617Y2632617D01*
X2166828Y2636485D01*
X2160000Y2637843D01*
D02*
G37*
G36*
X2047354Y2680803D02*
X1970426D01*
Y2664346D01*
X1616150D01*
X1612248Y2663570D01*
X1608940Y2661360D01*
X1502777Y2555196D01*
X1465926D01*
X1464640Y2557120D01*
X1459079Y2560836D01*
X1452520Y2562140D01*
X1389528D01*
X1382969Y2560836D01*
X1377942Y2557477D01*
X1369196Y2566223D01*
Y2614150D01*
X1368420Y2618052D01*
X1366210Y2621360D01*
X1362902Y2623570D01*
X1359000Y2624346D01*
X1355505D01*
Y2640803D01*
X1278575D01*
Y2587497D01*
X1348804D01*
Y2562000D01*
X1349580Y2558098D01*
X1351790Y2554790D01*
X1368790Y2537790D01*
X1372098Y2535580D01*
X1376000Y2534804D01*
X1376122D01*
X1377408Y2532880D01*
X1382969Y2529164D01*
X1389528Y2527860D01*
X1452520D01*
X1459079Y2529164D01*
X1464640Y2532880D01*
X1465926Y2534804D01*
X1507000D01*
X1510902Y2535580D01*
X1514210Y2537790D01*
X1566451Y2590032D01*
X1571876Y2588386D01*
X1572515Y2585172D01*
X1576383Y2579383D01*
X1582172Y2575515D01*
X1589000Y2574157D01*
X1595828Y2575515D01*
X1601617Y2579383D01*
X1603234Y2581804D01*
X1672203D01*
X1675858Y2578559D01*
X1675859Y2576804D01*
Y2556196D01*
X1656000D01*
X1654441Y2555886D01*
X1653616Y2557120D01*
X1648055Y2560836D01*
X1641496Y2562140D01*
X1578504D01*
X1571945Y2560836D01*
X1566384Y2557120D01*
X1565098Y2555196D01*
X1550000D01*
X1546098Y2554420D01*
X1542790Y2552210D01*
X1474790Y2484210D01*
X1472580Y2480902D01*
X1471804Y2477000D01*
Y2455398D01*
X1466804Y2453881D01*
X1464640Y2457120D01*
X1459079Y2460836D01*
X1452520Y2462140D01*
X1389528D01*
X1382969Y2460836D01*
X1377408Y2457120D01*
X1375205Y2453823D01*
X1372790Y2452210D01*
X1366777Y2446196D01*
X1356843D01*
Y2474465D01*
X1303536D01*
Y2399196D01*
X1235000D01*
X1231098Y2398420D01*
X1227790Y2396210D01*
X1225580Y2392902D01*
X1224804Y2389000D01*
Y2292000D01*
X1225580Y2288098D01*
X1227790Y2284790D01*
X1229849Y2282732D01*
X1227777Y2277732D01*
X1158614D01*
Y2266196D01*
X1152735D01*
X1142708Y2276223D01*
Y2318441D01*
X1159166D01*
Y2383559D01*
X1105859D01*
Y2361196D01*
X1094333D01*
X1073772Y2381757D01*
Y2425566D01*
X1041056D01*
X1038985Y2430566D01*
X1059250Y2450830D01*
X1061460Y2454138D01*
X1062236Y2458040D01*
Y2486434D01*
X1073772D01*
Y2512734D01*
X1088301D01*
X1090028Y2511580D01*
X1093930Y2510804D01*
X1107708D01*
Y2482535D01*
X1124166D01*
Y2464204D01*
X1124942Y2460302D01*
X1127152Y2456994D01*
X1181370Y2402777D01*
Y2383559D01*
X1164912D01*
Y2318441D01*
X1218219D01*
Y2383559D01*
X1201762D01*
Y2407000D01*
X1200986Y2410902D01*
X1198776Y2414210D01*
X1144558Y2468427D01*
Y2482535D01*
X1161015D01*
Y2559465D01*
X1107708D01*
Y2531196D01*
X1097629D01*
X1095902Y2532350D01*
X1092000Y2533126D01*
X1073772D01*
Y2559426D01*
X1030308D01*
Y2486434D01*
X1041844D01*
Y2462263D01*
X1017790Y2438210D01*
X1015580Y2434902D01*
X1014804Y2431000D01*
Y2272000D01*
X1015580Y2268098D01*
X1017790Y2264790D01*
X1106790Y2175790D01*
X1110098Y2173580D01*
X1114000Y2172804D01*
X1426000D01*
X1429902Y2173580D01*
X1433210Y2175790D01*
X1487210Y2229790D01*
X1489420Y2233098D01*
X1490196Y2237000D01*
Y2289000D01*
X1489420Y2292902D01*
X1487210Y2296210D01*
X1481210Y2302210D01*
X1477902Y2304420D01*
X1474000Y2305196D01*
X1465926D01*
X1464640Y2307120D01*
X1459079Y2310836D01*
X1452520Y2312140D01*
X1389528D01*
X1382969Y2310836D01*
X1377408Y2307120D01*
X1373692Y2301559D01*
X1372388Y2295000D01*
X1373692Y2288441D01*
X1377408Y2282880D01*
X1382969Y2279164D01*
X1389528Y2277860D01*
X1452520D01*
X1459079Y2279164D01*
X1464640Y2282880D01*
X1464804Y2283125D01*
X1469804Y2281609D01*
Y2258391D01*
X1464804Y2256875D01*
X1464640Y2257120D01*
X1459079Y2260836D01*
X1452520Y2262140D01*
X1389528D01*
X1382969Y2260836D01*
X1377408Y2257120D01*
X1373692Y2251559D01*
X1373173Y2248946D01*
X1370278Y2246966D01*
X1365464Y2249235D01*
Y2277732D01*
X1292472D01*
Y2266196D01*
X1275223D01*
X1245196Y2296223D01*
Y2378804D01*
X1299912D01*
Y2318441D01*
X1353219D01*
Y2358800D01*
X1377309Y2382890D01*
X1377408Y2382880D01*
X1382969Y2379164D01*
X1389528Y2377860D01*
X1452520D01*
X1459079Y2379164D01*
X1464640Y2382880D01*
X1466804Y2386119D01*
X1471804Y2384602D01*
Y2360749D01*
X1467465Y2356404D01*
X1465066Y2356483D01*
X1464640Y2357120D01*
X1459079Y2360836D01*
X1452520Y2362140D01*
X1389528D01*
X1382969Y2360836D01*
X1377408Y2357120D01*
X1373692Y2351559D01*
X1372388Y2345000D01*
X1373692Y2338441D01*
X1377408Y2332880D01*
X1382969Y2329164D01*
X1389528Y2327860D01*
X1452520D01*
X1459079Y2329164D01*
X1464640Y2332880D01*
X1470327Y2333253D01*
X1552790Y2250790D01*
X1553381Y2250396D01*
X1553853Y2249865D01*
X1555020Y2249300D01*
X1556098Y2248580D01*
X1556795Y2248442D01*
X1557434Y2248132D01*
X1561763Y2247007D01*
X1561364Y2245000D01*
X1562668Y2238441D01*
X1566384Y2232880D01*
X1571945Y2229164D01*
X1578504Y2227860D01*
X1637721D01*
X1666790Y2198790D01*
X1670098Y2196580D01*
X1674000Y2195804D01*
X1674086D01*
Y2167535D01*
X1690544D01*
Y1953963D01*
X1659777Y1923196D01*
X1226223D01*
X1179143Y1970276D01*
X1181721Y1976500D01*
X1182840Y1985000D01*
X1181721Y1993500D01*
X1178440Y2001420D01*
X1173221Y2008221D01*
X1166420Y2013440D01*
X1158500Y2016721D01*
X1150000Y2017840D01*
X1141500Y2016721D01*
X1133580Y2013440D01*
X1130658Y2011198D01*
X1124743Y2012962D01*
X1124550Y2013514D01*
X1124645Y2014226D01*
X1151223Y2040804D01*
X1379777D01*
X1420857Y1999724D01*
X1418279Y1993500D01*
X1417160Y1985000D01*
X1418279Y1976500D01*
X1421560Y1968580D01*
X1426779Y1961779D01*
X1433580Y1956560D01*
X1441500Y1953279D01*
X1450000Y1952160D01*
X1458500Y1953279D01*
X1466420Y1956560D01*
X1473221Y1961779D01*
X1478440Y1968580D01*
X1481721Y1976500D01*
X1482840Y1985000D01*
X1481721Y1993500D01*
X1478440Y2001420D01*
X1473221Y2008221D01*
X1466420Y2013440D01*
X1458500Y2016721D01*
X1450000Y2017840D01*
X1441500Y2016721D01*
X1435276Y2014143D01*
X1391210Y2058210D01*
X1387902Y2060420D01*
X1384000Y2061196D01*
X1147000D01*
X1143098Y2060420D01*
X1139790Y2058210D01*
X1104790Y2023210D01*
X1102580Y2019902D01*
X1101804Y2016000D01*
Y1837000D01*
X1102580Y1833098D01*
X1104790Y1829790D01*
X1144790Y1789790D01*
X1148098Y1787580D01*
X1152000Y1786804D01*
X1299000D01*
X1302902Y1787580D01*
X1306210Y1789790D01*
X1374223Y1857804D01*
X1696000D01*
X1699902Y1858580D01*
X1703210Y1860790D01*
X1846210Y2003790D01*
X1848420Y2007098D01*
X1849196Y2011000D01*
Y2243300D01*
X1848420Y2247202D01*
X1846210Y2250510D01*
X1836975Y2259745D01*
X1833667Y2261955D01*
X1829765Y2262731D01*
X1784090D01*
X1744611Y2302210D01*
X1741303Y2304420D01*
X1737402Y2305196D01*
X1726015D01*
Y2334464D01*
X1730875Y2334804D01*
X1875000D01*
X1878902Y2335580D01*
X1882210Y2337790D01*
X1884420Y2341098D01*
X1884439Y2341197D01*
X1925505D01*
Y2394503D01*
X1848575D01*
Y2355196D01*
X1732821D01*
X1729166Y2358441D01*
X1729166Y2423106D01*
X1730544Y2427535D01*
X1730543Y2427988D01*
Y2504465D01*
X1677236D01*
Y2476196D01*
X1667000D01*
X1663098Y2475420D01*
X1659790Y2473210D01*
X1647522Y2460942D01*
X1641496Y2462140D01*
X1578504D01*
X1571945Y2460836D01*
X1566384Y2457120D01*
X1562668Y2451559D01*
X1561364Y2445000D01*
X1562668Y2438441D01*
X1566384Y2432880D01*
X1571945Y2429164D01*
X1578504Y2427860D01*
X1641496D01*
X1648055Y2429164D01*
X1653616Y2432880D01*
X1657332Y2438441D01*
X1658194Y2442774D01*
X1671223Y2455804D01*
X1677236D01*
X1677236Y2427988D01*
X1675858Y2423559D01*
X1675859Y2423106D01*
Y2405196D01*
X1654902D01*
X1653616Y2407120D01*
X1648055Y2410836D01*
X1641496Y2412140D01*
X1578504D01*
X1571945Y2410836D01*
X1566384Y2407120D01*
X1565396Y2407023D01*
X1552196Y2420223D01*
Y2484766D01*
X1554617Y2486383D01*
X1557208Y2490262D01*
X1562516Y2489206D01*
X1562668Y2488441D01*
X1566384Y2482880D01*
X1571945Y2479164D01*
X1578504Y2477860D01*
X1641496D01*
X1648055Y2479164D01*
X1653616Y2482880D01*
X1657332Y2488441D01*
X1658636Y2495000D01*
X1657332Y2501559D01*
X1653616Y2507120D01*
X1648055Y2510836D01*
X1641496Y2512140D01*
X1620196D01*
Y2527860D01*
X1641496D01*
X1648055Y2529164D01*
X1653616Y2532880D01*
X1654902Y2534804D01*
X1655000D01*
X1658902Y2535580D01*
X1659237Y2535804D01*
X1675859D01*
Y2513441D01*
X1729166D01*
Y2574789D01*
X1732039Y2576448D01*
X1734912Y2574789D01*
Y2513441D01*
X1788219D01*
Y2535804D01*
X1805859D01*
Y2513441D01*
X1833330D01*
X1848575Y2498195D01*
Y2447497D01*
X1925505D01*
Y2500803D01*
X1874806D01*
X1867168Y2508441D01*
X1869239Y2513441D01*
X1918219D01*
Y2578559D01*
X1901253D01*
X1900986Y2579902D01*
X1898776Y2583210D01*
X1882776Y2599210D01*
X1879468Y2601420D01*
X1875566Y2602196D01*
X1603234D01*
X1601617Y2604617D01*
X1595828Y2608485D01*
X1592614Y2609124D01*
X1590968Y2614549D01*
X1620373Y2643954D01*
X1970426D01*
Y2627497D01*
X2047354D01*
Y2680803D01*
D02*
G37*
%LPD*%
G36*
X2454754Y2403394D02*
X2454196Y2402559D01*
X2452892Y2396000D01*
X2454196Y2389441D01*
X2457912Y2383880D01*
X2463473Y2380164D01*
X2470032Y2378860D01*
X2533024D01*
X2539583Y2380164D01*
X2543080Y2382501D01*
X2543318Y2382262D01*
X2546626Y2380052D01*
X2550528Y2379276D01*
X2560803D01*
Y2362818D01*
X2583166D01*
Y2358000D01*
X2583942Y2354098D01*
X2584139Y2353803D01*
X2581466Y2348803D01*
X2559898D01*
X2559898Y2348804D01*
Y2348804D01*
X2555251Y2350064D01*
X2552106Y2353210D01*
X2548798Y2355420D01*
X2546665Y2355844D01*
X2545144Y2358120D01*
X2539583Y2361836D01*
X2533024Y2363140D01*
X2470032D01*
X2463473Y2361836D01*
X2457912Y2358120D01*
X2454196Y2352559D01*
X2452892Y2346000D01*
X2454196Y2339441D01*
X2457912Y2333880D01*
X2463473Y2330164D01*
X2470032Y2328860D01*
X2533024D01*
X2539583Y2330164D01*
X2539700Y2330242D01*
X2544700Y2327570D01*
Y2313720D01*
X2540290Y2311363D01*
X2539583Y2311836D01*
X2533024Y2313140D01*
X2470032D01*
X2463473Y2311836D01*
X2457912Y2308120D01*
X2454196Y2302559D01*
X2452892Y2296000D01*
X2454196Y2289441D01*
X2457912Y2283880D01*
X2463473Y2280164D01*
X2470032Y2278860D01*
X2482804D01*
Y2160000D01*
X2483580Y2156098D01*
X2485790Y2152790D01*
X2504790Y2133790D01*
X2507709Y2131841D01*
Y2108441D01*
X2524166D01*
Y2062585D01*
X2491777Y2030196D01*
X2461018D01*
X2458440Y2036420D01*
X2453221Y2043221D01*
X2446420Y2048440D01*
X2438500Y2051721D01*
X2430000Y2052840D01*
X2421500Y2051721D01*
X2413580Y2048440D01*
X2406779Y2043221D01*
X2401560Y2036420D01*
X2398982Y2030196D01*
X2077302D01*
X2073400Y2029420D01*
X2070092Y2027210D01*
X2044158Y2001275D01*
X2041302Y2001843D01*
X2034474Y2000485D01*
X2028685Y1996617D01*
X2024817Y1990828D01*
X2023459Y1984000D01*
X2024817Y1977172D01*
X2028685Y1971383D01*
X2034474Y1967515D01*
X2041302Y1966157D01*
X2048130Y1967515D01*
X2053919Y1971383D01*
X2057787Y1977172D01*
X2059145Y1984000D01*
X2058577Y1986856D01*
X2081525Y2009804D01*
X2398982D01*
X2401560Y2003580D01*
X2406779Y1996779D01*
X2413580Y1991560D01*
X2421500Y1988279D01*
X2422131Y1988196D01*
X2421804Y1983196D01*
X2119000D01*
X2115098Y1982420D01*
X2111790Y1980210D01*
X2072777Y1941196D01*
X1975223D01*
X1921196Y1995223D01*
Y2187818D01*
X1944071D01*
Y2191449D01*
X1948690Y2193362D01*
X1958047Y2184005D01*
Y2164197D01*
X2034976D01*
Y2217503D01*
X2038609Y2220804D01*
X2368777D01*
X2377790Y2211790D01*
X2381098Y2209580D01*
X2385000Y2208804D01*
X2391709D01*
Y2180535D01*
X2445015D01*
Y2257465D01*
X2428558D01*
Y2395777D01*
X2440585Y2407804D01*
X2452397D01*
X2454754Y2403394D01*
D02*
G37*
G36*
X2669804Y1570777D02*
Y1548000D01*
X2670580Y1544098D01*
X2672790Y1540790D01*
X2676098Y1538580D01*
X2680000Y1537804D01*
X2685538D01*
X2686030Y1532804D01*
X2684098Y1532420D01*
X2680790Y1530210D01*
X2635790Y1485210D01*
X2634183Y1482803D01*
X2609668D01*
Y1487000D01*
X2608892Y1490902D01*
X2608279Y1491819D01*
X2610952Y1496819D01*
X2627031D01*
Y1550126D01*
X2561913D01*
Y1533668D01*
X2555751D01*
X2552210Y1537210D01*
X2548902Y1539420D01*
X2547929Y1539613D01*
X2546254Y1542120D01*
X2540693Y1545836D01*
X2534134Y1547140D01*
X2471142D01*
X2464583Y1545836D01*
X2463606Y1545183D01*
X2459196Y1547540D01*
Y1587777D01*
X2466223Y1594804D01*
X2547000D01*
X2550902Y1595580D01*
X2554210Y1597790D01*
X2561223Y1604804D01*
X2635777D01*
X2669804Y1570777D01*
D02*
G37*
G36*
X2665494Y2714646D02*
X2670713Y2707845D01*
X2677514Y2702626D01*
X2685434Y2699345D01*
X2693934Y2698226D01*
X2702434Y2699345D01*
X2708274Y2701764D01*
X2711106Y2697525D01*
X2663777Y2650196D01*
X2482000D01*
X2478098Y2649420D01*
X2474790Y2647210D01*
X2428790Y2601210D01*
X2426580Y2597902D01*
X2425804Y2594000D01*
Y2512000D01*
X2426580Y2508098D01*
X2428790Y2504790D01*
X2444790Y2488790D01*
X2448098Y2486580D01*
X2452000Y2485804D01*
X2456626D01*
X2457912Y2483880D01*
X2463473Y2480164D01*
X2470032Y2478860D01*
X2533024D01*
X2539583Y2480164D01*
X2540394Y2480706D01*
X2544804Y2478349D01*
Y2433223D01*
X2539777Y2428196D01*
X2436362D01*
X2432460Y2427420D01*
X2429152Y2425210D01*
X2411152Y2407210D01*
X2408942Y2403902D01*
X2408166Y2400000D01*
Y2257465D01*
X2403097D01*
X2400196Y2261000D01*
Y2484226D01*
X2399420Y2488128D01*
X2397210Y2491436D01*
X2385436Y2503210D01*
X2382128Y2505420D01*
X2378226Y2506196D01*
X2357454D01*
X2356168Y2508120D01*
X2350607Y2511836D01*
X2344048Y2513140D01*
X2281056D01*
X2274497Y2511836D01*
X2271717Y2509978D01*
X2265435Y2511016D01*
X2265220Y2511193D01*
X2265210Y2511210D01*
X2255210Y2521210D01*
X2254342Y2521789D01*
X2251316Y2525536D01*
Y2550194D01*
X2256316Y2552265D01*
X2264247Y2544334D01*
X2265220Y2539441D01*
X2268936Y2533880D01*
X2274497Y2530164D01*
X2281056Y2528860D01*
X2344048D01*
X2350607Y2530164D01*
X2356168Y2533880D01*
X2357454Y2535804D01*
X2368000D01*
X2371902Y2536580D01*
X2375210Y2538790D01*
X2414210Y2577790D01*
X2416420Y2581098D01*
X2417196Y2585000D01*
Y2619777D01*
X2518289Y2720870D01*
X2662916D01*
X2665494Y2714646D01*
D02*
G37*
G36*
X2756591Y2268990D02*
X2757804Y2267777D01*
Y2044777D01*
X2756029Y2044174D01*
X2752804Y2043542D01*
X2746420Y2048440D01*
X2738500Y2051721D01*
X2730000Y2052840D01*
X2721500Y2051721D01*
X2715276Y2049143D01*
X2674196Y2090223D01*
Y2160777D01*
X2718722Y2205302D01*
X2720932Y2208610D01*
X2721708Y2212512D01*
Y2215497D01*
X2749977D01*
Y2263811D01*
X2749977Y2264222D01*
X2754785Y2268995D01*
X2756591Y2268990D01*
D02*
G37*
%LPC*%
G36*
X2336000Y2204843D02*
X2329172Y2203485D01*
X2323383Y2199617D01*
X2319515Y2193828D01*
X2318157Y2187000D01*
X2319515Y2180172D01*
X2323383Y2174383D01*
X2329172Y2170515D01*
X2336000Y2169157D01*
X2342828Y2170515D01*
X2348617Y2174383D01*
X2352485Y2180172D01*
X2353843Y2187000D01*
X2352485Y2193828D01*
X2348617Y2199617D01*
X2342828Y2203485D01*
X2336000Y2204843D01*
D02*
G37*
G36*
X2220000Y2212843D02*
X2213172Y2211485D01*
X2207383Y2207617D01*
X2203515Y2201828D01*
X2202157Y2195000D01*
X2203515Y2188172D01*
X2207383Y2182383D01*
X2213172Y2178515D01*
X2220000Y2177157D01*
X2226828Y2178515D01*
X2232617Y2182383D01*
X2236485Y2188172D01*
X2237843Y2195000D01*
X2236485Y2201828D01*
X2232617Y2207617D01*
X2226828Y2211485D01*
X2220000Y2212843D01*
D02*
G37*
%LPD*%
G36*
X1672708Y2334464D02*
Y2306196D01*
X1655000D01*
X1654323Y2306061D01*
X1653616Y2307120D01*
X1648055Y2310836D01*
X1641496Y2312140D01*
X1578504D01*
X1571945Y2310836D01*
X1566384Y2307120D01*
X1562668Y2301559D01*
X1561364Y2295000D01*
X1562668Y2288441D01*
X1566384Y2282880D01*
X1571945Y2279164D01*
X1578504Y2277860D01*
X1641496D01*
X1648055Y2279164D01*
X1653616Y2282880D01*
X1655040Y2285011D01*
X1657902Y2285580D01*
X1658237Y2285804D01*
X1672708D01*
Y2257535D01*
X1726015D01*
Y2284804D01*
X1733178D01*
X1772657Y2245326D01*
X1775965Y2243116D01*
X1779866Y2242340D01*
X1825542D01*
X1828804Y2239077D01*
Y2015223D01*
X1691777Y1878196D01*
X1370000D01*
X1366098Y1877420D01*
X1362790Y1875210D01*
X1294777Y1807196D01*
X1156223D01*
X1122196Y1841223D01*
Y1960223D01*
X1123971Y1960826D01*
X1127196Y1961458D01*
X1133580Y1956560D01*
X1141500Y1953279D01*
X1150000Y1952160D01*
X1158500Y1953279D01*
X1164724Y1955857D01*
X1214790Y1905790D01*
X1218098Y1903580D01*
X1222000Y1902804D01*
X1664000D01*
X1667902Y1903580D01*
X1671210Y1905790D01*
X1707950Y1942530D01*
X1710160Y1945838D01*
X1710936Y1949740D01*
Y2167535D01*
X1727393D01*
Y2244465D01*
X1674086D01*
Y2226866D01*
X1669467Y2224952D01*
X1656790Y2237630D01*
X1657332Y2238441D01*
X1658636Y2245000D01*
X1657332Y2251559D01*
X1653616Y2257120D01*
X1648055Y2260836D01*
X1641496Y2262140D01*
X1584594D01*
X1565249Y2267170D01*
X1502235Y2330185D01*
X1504148Y2334804D01*
X1565098D01*
X1566384Y2332880D01*
X1571945Y2329164D01*
X1578504Y2327860D01*
X1641496D01*
X1648055Y2329164D01*
X1653616Y2332880D01*
X1654902Y2334804D01*
X1667849D01*
X1672708Y2334464D01*
D02*
G37*
D15*
X1327678Y1485000D02*
D03*
X1268622D02*
D03*
X1192678D02*
D03*
X1133622D02*
D03*
X1703622Y1525000D02*
D03*
X1762678D02*
D03*
X1833622Y1680000D02*
D03*
X1892678D02*
D03*
X1994944Y1523000D02*
D03*
X2054000D02*
D03*
X2168622Y1430000D02*
D03*
X2227678D02*
D03*
X2219528Y1610000D02*
D03*
X2160472D02*
D03*
X2094528D02*
D03*
X2035472D02*
D03*
X1762678Y1680000D02*
D03*
X1703622D02*
D03*
X2226568Y2296000D02*
D03*
X2167512D02*
D03*
X2052890Y2389000D02*
D03*
X2160472Y2475000D02*
D03*
X2219528D02*
D03*
X2084528D02*
D03*
X2025472D02*
D03*
X1993834Y2389000D02*
D03*
X1891566Y2546000D02*
D03*
X1832512D02*
D03*
X1761566D02*
D03*
X1702512D02*
D03*
Y2391000D02*
D03*
X1761568D02*
D03*
X1326566Y2351000D02*
D03*
X1267512D02*
D03*
X1191566D02*
D03*
X1132512D02*
D03*
X2535472Y1275000D02*
D03*
X2594528D02*
D03*
X2593418Y2141000D02*
D03*
X2534362D02*
D03*
D18*
X1422134Y1379000D02*
D03*
Y1429000D02*
D03*
Y1479000D02*
D03*
Y1529000D02*
D03*
Y1579000D02*
D03*
Y1629000D02*
D03*
Y1679000D02*
D03*
X1611110Y1479000D02*
D03*
Y1429000D02*
D03*
Y1379000D02*
D03*
Y1529000D02*
D03*
Y1579000D02*
D03*
Y1629000D02*
D03*
Y1679000D02*
D03*
X1610000Y2245000D02*
D03*
Y2295000D02*
D03*
Y2345000D02*
D03*
Y2395000D02*
D03*
Y2445000D02*
D03*
Y2495000D02*
D03*
Y2545000D02*
D03*
X1421024D02*
D03*
Y2495000D02*
D03*
Y2445000D02*
D03*
Y2395000D02*
D03*
Y2345000D02*
D03*
Y2295000D02*
D03*
Y2245000D02*
D03*
X2313662Y1480000D02*
D03*
Y1430000D02*
D03*
Y1530000D02*
D03*
Y1580000D02*
D03*
Y1630000D02*
D03*
Y1680000D02*
D03*
Y1730000D02*
D03*
X2502638Y1580000D02*
D03*
Y1530000D02*
D03*
Y1480000D02*
D03*
Y1430000D02*
D03*
Y1630000D02*
D03*
Y1680000D02*
D03*
Y1730000D02*
D03*
X2501528Y2296000D02*
D03*
Y2346000D02*
D03*
Y2396000D02*
D03*
Y2446000D02*
D03*
Y2496000D02*
D03*
Y2546000D02*
D03*
Y2596000D02*
D03*
X2312552D02*
D03*
Y2546000D02*
D03*
Y2496000D02*
D03*
Y2446000D02*
D03*
Y2396000D02*
D03*
Y2346000D02*
D03*
Y2296000D02*
D03*
D19*
X1331300Y1570000D02*
D03*
X1241772Y1655000D02*
D03*
X1225000Y1570000D02*
D03*
X1135472Y1655000D02*
D03*
X1701850Y1340000D02*
D03*
X1808150D02*
D03*
X1806772Y1430000D02*
D03*
X1700472D02*
D03*
X1811300Y1600000D02*
D03*
X1705000D02*
D03*
X2120000Y1525000D02*
D03*
X2226300D02*
D03*
X2225772Y1698000D02*
D03*
X2119472D02*
D03*
X2419472Y1353000D02*
D03*
X2525772D02*
D03*
X2695772Y1688000D02*
D03*
X2589472D02*
D03*
X2524662Y2219000D02*
D03*
X2418362D02*
D03*
X2225190Y2391000D02*
D03*
X2118890D02*
D03*
X2224662Y2564000D02*
D03*
X2118362D02*
D03*
X1810190Y2466000D02*
D03*
X1703890D02*
D03*
X1699362Y2296000D02*
D03*
X1700740Y2206000D02*
D03*
X1807040D02*
D03*
X1805662Y2296000D02*
D03*
X1330190Y2436000D02*
D03*
X1240662Y2521000D02*
D03*
X1223890Y2436000D02*
D03*
X1134362Y2521000D02*
D03*
X2588362Y2554000D02*
D03*
X2694662D02*
D03*
D20*
X1318150Y1641850D02*
D03*
Y1748150D02*
D03*
X1888150Y1501850D02*
D03*
X1997622Y1431150D02*
D03*
Y1324850D02*
D03*
X2089472D02*
D03*
Y1431150D02*
D03*
X2010000Y1681850D02*
D03*
Y1788150D02*
D03*
X1888150Y1608150D02*
D03*
X2088362Y2190850D02*
D03*
Y2297150D02*
D03*
X1996512D02*
D03*
Y2190850D02*
D03*
X1887040Y2367850D02*
D03*
Y2474150D02*
D03*
X2008890Y2547850D02*
D03*
Y2654150D02*
D03*
X2598362Y2215850D02*
D03*
Y2322150D02*
D03*
X2711512Y2135850D02*
D03*
Y2242150D02*
D03*
X2599472Y1456150D02*
D03*
Y1349850D02*
D03*
X2712622Y1269850D02*
D03*
Y1376150D02*
D03*
X1317040Y2614150D02*
D03*
Y2507850D02*
D03*
D22*
X1053150Y1523070D02*
D03*
Y1656930D02*
D03*
X1052040Y2389070D02*
D03*
Y2522930D02*
D03*
X2707622Y1456072D02*
D03*
Y1589930D02*
D03*
X2706512Y2322070D02*
D03*
Y2455930D02*
D03*
D24*
X1330078Y1390000D02*
X1272000D01*
X1240000Y1422000D01*
X1247000Y1390000D02*
X1278000Y1359000D01*
X1366000D01*
X1386000Y1379000D01*
X1422134D01*
X1477000Y1359000D02*
Y1429000D01*
X1422134D01*
Y1479000D02*
X1472000D01*
X1549000Y1402000D01*
Y1390000D01*
X1560000Y1379000D01*
X1611000D01*
X1611110D01*
X1636000D01*
X1675000Y1340000D01*
X1701850D01*
X1734000Y1384472D02*
X1700472Y1418000D01*
Y1430000D01*
X1656000D01*
X1655000Y1429000D01*
X1611110D01*
Y1479000D02*
X1851000D01*
X1873850Y1501850D01*
X1888150D01*
Y1608150D02*
X1833622Y1667954D01*
Y1680000D01*
Y1667954D02*
X1762678D01*
Y1680000D01*
X1703622D02*
X1680418D01*
X1679418Y1679000D01*
X1611110D01*
Y1629000D01*
X1557000D01*
Y1488000D01*
X1566000Y1479000D01*
X1611110D01*
X1611000Y1379000D02*
Y1212000D01*
X1635000Y1188000D01*
Y1145000D01*
X1734000Y1184000D02*
Y1384472D01*
Y1184000D02*
X1773000Y1145000D01*
X1935000D01*
X2145000Y1255000D02*
X2202000Y1198000D01*
X2754000D01*
X2786090Y1230090D01*
Y1513910D01*
X2752000Y1548000D01*
X2680000D01*
Y1575000D01*
X2640000Y1615000D01*
X2557000D01*
X2547000Y1605000D01*
X2462000D01*
X2449000Y1592000D01*
Y1488000D01*
X2457000Y1480000D01*
X2502638D01*
Y1430000D02*
X2547000D01*
X2553000Y1424000D01*
X2643000D01*
Y1478000D01*
X2688000Y1523000D01*
X2749000D01*
X2771090Y1500910D01*
Y1246090D01*
X2739000Y1214000D01*
X2553472D01*
X2535472Y1232000D01*
Y1275000D01*
X2465000D01*
X2445000Y1255000D01*
X2594528Y1275000D02*
Y1309000D01*
X2599472Y1313944D01*
Y1349850D01*
X2525772D01*
Y1353000D01*
X2691428Y1407806D02*
X2707622Y1424000D01*
Y1456072D01*
X2712622Y1376150D02*
Y1335000D01*
X2691428Y1407806D02*
X2432000D01*
X2419472Y1395278D01*
Y1663472D01*
X2436000Y1680000D01*
X2502638D01*
Y1630000D02*
X2614000D01*
X2648000Y1664000D01*
Y1803000D01*
X2730000Y1885000D01*
X2692440Y1922560D01*
X2396560D01*
X2363000Y1889000D01*
Y1730000D01*
X2313662D01*
Y1680000D02*
X2377322D01*
X2430000Y1732678D01*
Y1885000D01*
X2502638Y1730000D02*
X2576284D01*
X2589472Y1716812D01*
Y1688000D01*
X2594472Y1523472D02*
Y1492000D01*
X2599472Y1487000D01*
Y1456150D01*
X2594472Y1523472D02*
X2551528D01*
X2545000Y1530000D01*
X2502638D01*
X2695772Y1644850D02*
X2707622Y1633000D01*
Y1589930D01*
X2695772Y1644850D02*
Y1688000D01*
X2419472Y1395278D02*
Y1353000D01*
X2229000D01*
X2225000Y1357000D01*
X2046000D01*
Y1336000D01*
X2034850Y1324850D01*
X1997622D01*
X1966622D01*
X1943000Y1348472D01*
X1912622D01*
X2089472Y1431150D02*
X2128000D01*
X2129150Y1430000D01*
X2168622D01*
Y1400000D01*
X2188622Y1380000D01*
X2336000D01*
X2383000Y1427000D01*
Y1616000D01*
X2369000Y1630000D01*
X2313662D01*
Y1680000D02*
X2278000D01*
X2260000Y1698000D01*
X2225772D01*
X2252000Y1648000D02*
Y1628000D01*
X2272000Y1608000D01*
X2359000D01*
X2367000Y1600000D01*
Y1488000D01*
X2359000Y1480000D01*
X2313662D01*
Y1430000D01*
X2227678D01*
X2226300Y1491300D02*
Y1525000D01*
X2267000D01*
X2272000Y1530000D01*
X2313662D01*
Y1580000D02*
X2315000D01*
X2313662D02*
X2247716D01*
X2219528Y1608190D01*
Y1610000D01*
X2252000Y1648000D02*
X2102528D01*
X2094528Y1640000D01*
Y1610000D01*
X2035472D02*
Y1633000D01*
X2010000Y1658472D01*
Y1681850D01*
X2035472Y1610000D02*
Y1573528D01*
X2048000Y1561000D01*
X2113818D01*
X2120000Y1554818D01*
Y1525000D01*
X2216000Y1481000D02*
X2226300Y1491300D01*
X2216000Y1481000D02*
X2064000D01*
X2054000Y1491000D01*
Y1523000D01*
X2050000Y1728000D02*
X2259560Y1937560D01*
X2457560D01*
X2486000Y1966000D01*
X2452000Y1973000D02*
X2468000Y1989000D01*
X2509000D01*
X2516000Y1982000D01*
X2752000D01*
X2768000Y1998000D01*
Y2272000D01*
X2752000Y2288000D01*
X2706512D01*
Y2322070D01*
X2711512Y2242150D02*
X2668850D01*
X2621000Y2290000D01*
X2554896D01*
Y2336000D01*
X2544896Y2346000D01*
X2501528D01*
Y2396000D02*
X2544000D01*
X2550528Y2389472D01*
X2593362D01*
Y2358000D01*
X2598362Y2353000D01*
Y2322150D01*
Y2215850D02*
X2562150D01*
X2559000Y2219000D01*
X2524662D01*
X2598362Y2215850D02*
Y2179944D01*
X2593418Y2175000D01*
Y2141000D01*
X2534362D02*
X2512000D01*
X2493000Y2160000D01*
Y2296000D01*
X2501528D01*
X2534362Y2141000D02*
Y2058362D01*
X2496000Y2020000D01*
X2430000D01*
X2077302D01*
X2041302Y1984000D01*
X2077000Y1931000D02*
X2119000Y1973000D01*
X2452000D01*
X2664000Y2086000D02*
X2730000Y2020000D01*
X2664000Y2165000D02*
X2711512Y2212512D01*
Y2242150D01*
X2664000Y2165000D02*
Y2086000D01*
X2418362Y2219000D02*
Y2400000D01*
X2436362Y2418000D01*
X2544000D01*
X2555000Y2429000D01*
Y2524000D01*
X2533000Y2546000D01*
X2501528D01*
Y2596000D02*
X2523000D01*
X2565000Y2554000D01*
X2588362D01*
X2501528Y2496000D02*
X2452000D01*
X2436000Y2512000D01*
Y2594000D01*
X2482000Y2640000D01*
X2668000D01*
X2732000Y2704000D01*
Y2752000D01*
X2715000Y2769000D01*
X2731000D01*
X2906066Y2593934D01*
Y2518934D01*
X2715000Y2769000D02*
X2508000D01*
X2384000Y2645000D01*
Y2612000D01*
X2368000Y2596000D01*
X2312552D01*
Y2546000D02*
X2368000D01*
X2407000Y2585000D01*
Y2624000D01*
X2514066Y2731066D01*
X2693934D01*
X2694662Y2554000D02*
Y2510850D01*
X2706512Y2499000D01*
Y2455930D01*
X2418362Y2219000D02*
X2385000D01*
X2373000Y2231000D01*
X2008000D01*
X1996000Y2219000D01*
Y2190850D01*
X1996512D01*
X1996000D02*
X1965622D01*
X1942000Y2214472D01*
X1911512D01*
X1911000D01*
Y1991000D01*
X1971000Y1931000D01*
X2077000D01*
X1908678Y1728000D02*
X2050000D01*
X2010000Y1788150D02*
X1617150D01*
X1508000Y1679000D01*
X1422134D01*
X1376000D01*
Y1724150D01*
X1352000Y1748150D01*
X1318150D01*
Y1641850D02*
X1363000D01*
X1375850Y1629000D01*
X1422134D01*
Y1579000D02*
X1381000D01*
X1372000Y1570000D01*
X1331300D01*
X1329000Y1571000D02*
Y1567000D01*
X1353000Y1543000D01*
X1389000Y1529000D02*
X1422134D01*
X1318150Y1641850D02*
X1286150D01*
X1273000Y1655000D01*
X1241772D01*
X1389000Y1529000D02*
X1350000Y1490000D01*
X1330000D01*
X1456000Y1338000D02*
X1477000Y1359000D01*
X1456000Y1338000D02*
X1064000D01*
X1026000Y1376000D01*
Y1565000D01*
X1095000D01*
X1135000Y1525000D01*
X1184000D01*
X1192678Y1516322D01*
Y1541000D01*
X1135472Y1598206D01*
Y1655000D01*
X1094930D01*
X1093000Y1656930D01*
X1053150D01*
Y1523070D02*
X1091220Y1485000D01*
X1133622D01*
Y1408000D01*
X1151622Y1390000D01*
X1196220D01*
X1247000D01*
X1192678Y1485000D02*
Y1516322D01*
X1299000Y1797000D02*
X1370000Y1868000D01*
X1696000D01*
X1839000Y2011000D01*
Y2243300D01*
X1829765Y2252535D01*
X1779866D01*
X1737402Y2295000D01*
X1699362D01*
Y2296000D01*
X1655000D01*
X1654000Y2295000D01*
X1610000D01*
Y2245000D02*
X1635000D01*
X1674000Y2206000D01*
X1700740D01*
Y1949740D01*
X1664000Y1913000D01*
X1222000D01*
X1150000Y1985000D01*
X1112000Y1837000D02*
Y2016000D01*
X1147000Y2051000D01*
X1384000D01*
X1450000Y1985000D01*
X1426000Y2183000D02*
X1480000Y2237000D01*
Y2289000D01*
X1474000Y2295000D01*
X1421024D01*
Y2245000D02*
X1384000D01*
X1364000Y2225000D01*
X1277000D01*
X1246000Y2256000D01*
X1195110D01*
X1148512D01*
X1132512Y2272000D01*
Y2351000D01*
X1090110D01*
X1052040Y2389070D01*
X1025000Y2272000D02*
X1114000Y2183000D01*
X1426000D01*
X1560000Y2258000D02*
X1610000Y2245000D01*
X1705000Y2395000D02*
X1610000D01*
X1563000D01*
X1542000Y2416000D01*
Y2499000D01*
X1610000Y2345000D02*
X1875000D01*
Y2367850D01*
X1887040D01*
X1993000Y2437000D02*
X2084528D01*
Y2449362D01*
X2118890Y2415000D01*
Y2391000D01*
X2127000Y2297150D02*
X2128150Y2296000D01*
X2167512D01*
Y2266000D01*
X2176512Y2257000D01*
X2386000D01*
X2390000Y2261000D01*
Y2484226D01*
X2378226Y2496000D01*
X2312552D01*
Y2446000D02*
X2296000D01*
Y2445000D01*
X2310000D01*
X2352000Y2471000D02*
X2375000Y2448000D01*
Y2360000D01*
X2361000Y2346000D01*
X2312552D01*
Y2296000D01*
X2226568D01*
X2312552Y2396000D02*
X2271000D01*
X2266000Y2391000D01*
X2225190D01*
Y2356190D01*
X2204000Y2335000D01*
X2076000D01*
X2052890Y2358110D01*
Y2389000D01*
X2088362Y2297150D02*
X2127000D01*
X2352000Y2471000D02*
X2267000D01*
X2258000Y2480000D01*
Y2504000D01*
X2248000Y2514000D01*
X2035472D01*
X2025472Y2504000D01*
Y2475000D01*
X2084528D02*
Y2449362D01*
X2008890Y2547850D02*
X1993000D01*
Y2437000D01*
X1891566Y2546000D02*
Y2576000D01*
X1875566Y2592000D01*
X1589000D01*
X1550000Y2545000D02*
X1610000D01*
X1655000D01*
X1656000Y2546000D01*
X1702512D01*
X1761566D02*
X1832512D01*
Y2528678D01*
X1887040Y2474150D01*
X1703890Y2466000D02*
X1667000D01*
X1646000Y2445000D01*
X1610000D01*
Y2495000D02*
Y2545000D01*
X1616150Y2654150D02*
X2008890D01*
X2219528Y2475000D02*
Y2474190D01*
X2248716Y2445000D01*
X2296000D01*
X2312552Y2546000D02*
X2277000D01*
X2259000Y2564000D01*
X2224662D01*
X1616150Y2654150D02*
X1507000Y2545000D01*
X1421024D01*
X1376000D01*
X1359000Y2562000D01*
Y2614150D01*
X1317040D01*
Y2507850D02*
X1362000D01*
X1374850Y2495000D01*
X1421024D01*
Y2445000D02*
X1380000D01*
X1371000Y2436000D01*
X1330190D01*
Y2399190D01*
X1320000Y2389000D01*
X1235000D01*
Y2292000D01*
X1271000Y2256000D01*
X1328968D01*
X1421024Y2345000D02*
X1473000D01*
X1560000Y2258000D01*
X1610000Y2345000D02*
X1495000D01*
X1482000Y2358000D01*
Y2477000D01*
X1550000Y2545000D01*
X1421024Y2395000D02*
X1375000D01*
X1330000Y2350000D01*
X1317040Y2507850D02*
X1285150D01*
X1272000Y2521000D01*
X1240662D01*
X1134362D02*
X1093930D01*
X1092000Y2522930D01*
X1052040D01*
Y2458040D01*
X1025000Y2431000D01*
Y2272000D01*
X1191566Y2351000D02*
Y2407000D01*
X1134362Y2464204D01*
Y2521000D01*
X1112000Y1837000D02*
X1152000Y1797000D01*
X1299000D01*
X1611110Y1579000D02*
X1647000D01*
X1668000Y1600000D01*
X1705000D01*
X1700000Y1525000D02*
X1630000D01*
X1626000Y1529000D01*
Y1530000D01*
X1625000D01*
X1626000Y1529000D01*
X1611110D01*
X1892678Y1680000D02*
Y1712000D01*
X1908678Y1728000D01*
X2754000Y1198000D02*
X2798000D01*
D25*
X1100000Y1100000D02*
D03*
X2900000D02*
D03*
Y2900000D02*
D03*
X1100000D02*
D03*
D26*
X1350000Y1150000D02*
D03*
X2150000D02*
D03*
X2200000Y2850000D02*
D03*
D27*
X1450000Y1150000D02*
D03*
X2250000D02*
D03*
X2350000D02*
D03*
X2450000D02*
D03*
X2550000D02*
D03*
X2650000D02*
D03*
X2850000Y1600000D02*
D03*
Y1700000D02*
D03*
Y2100000D02*
D03*
Y2400000D02*
D03*
X2100000Y2850000D02*
D03*
X2000000D02*
D03*
X1900000D02*
D03*
X1800000D02*
D03*
D28*
X2850000Y1500000D02*
D03*
Y2000000D02*
D03*
Y2300000D02*
D03*
D29*
X1635000Y1145000D02*
D03*
X1935000D02*
D03*
X2145000Y1255000D02*
D03*
X2445000D02*
D03*
X2730000Y1885000D02*
D03*
Y2020000D02*
D03*
X2430000D02*
D03*
Y1885000D02*
D03*
X2906066Y2518934D02*
D03*
X2693934Y2731066D02*
D03*
X1450000Y1985000D02*
D03*
X1150000D02*
D03*
D30*
X1330000Y1485000D02*
D03*
X1353000Y1543000D02*
D03*
X1287000Y1567000D02*
D03*
X1244000Y1421000D02*
D03*
X1169000Y1432000D02*
D03*
X1640000Y1265000D02*
D03*
X1710000Y1270000D02*
D03*
X1895000Y1260000D02*
D03*
X1700000Y1525000D02*
D03*
X1805000Y1750000D02*
D03*
X2041302Y1984000D02*
D03*
X2025000Y2095000D02*
D03*
X2220000Y2195000D02*
D03*
X2336000Y2187000D02*
D03*
X2486000Y1966000D02*
D03*
X2220000Y1610000D02*
D03*
X2165000Y1730000D02*
D03*
X2595000Y1585000D02*
D03*
X2712622Y1335000D02*
D03*
X2798000Y1198000D02*
D03*
X2715000Y2125000D02*
D03*
X2578000Y2260000D02*
D03*
X2585000Y2490000D02*
D03*
X2505000Y2450000D02*
D03*
X2241000Y2707000D02*
D03*
X2235000Y2640000D02*
D03*
X2185000Y2730000D02*
D03*
X2160000Y2620000D02*
D03*
X2235000Y2485000D02*
D03*
X2495000Y2860000D02*
D03*
X2711000Y2857000D02*
D03*
X1820000Y2405000D02*
D03*
X1705000Y2390000D02*
D03*
X1775000Y2200000D02*
D03*
X1542000Y2499000D02*
D03*
X1505000Y2465000D02*
D03*
X1589000Y2592000D02*
D03*
X1354000Y2742000D02*
D03*
X1415000Y2870000D02*
D03*
X1325000Y2350000D02*
D03*
D31*
X1233252Y1494000D02*
D03*
X1264748D02*
D03*
D38*
X1912622Y1348472D02*
D03*
Y1407528D02*
D03*
X2594472Y1523472D02*
D03*
Y1582528D02*
D03*
X1911512Y2214472D02*
D03*
Y2273528D02*
D03*
X2593362Y2389472D02*
D03*
Y2448528D02*
D03*
D39*
X1330078Y1390000D02*
D03*
X1196220D02*
D03*
X1328968Y2256000D02*
D03*
X1195110D02*
D03*
%TF.MD5,3a1f7c3e8ace50175557e48333fce9a0*%
M02*
