G04 Layer_Physical_Order=2*
G04 Layer_Color=16711680*
%FSLAX26Y26*%
%MOIN*%
%TF.FileFunction,Copper,L2,Bot,Signal*%
%TF.Part,Single*%
G01*
G75*
%TA.AperFunction,SMDPad,CuDef*%
%ADD11R,0.043307X0.066929*%
%ADD12R,0.066929X0.043307*%
%ADD13R,0.033465X0.062992*%
%ADD15O,0.086614X0.023622*%
%ADD17R,0.043307X0.055118*%
%TA.AperFunction,Conductor*%
%ADD24C,0.010000*%
%TA.AperFunction,ComponentPad*%
%ADD25C,0.055118*%
%ADD26C,0.059055*%
%ADD27R,0.059055X0.059055*%
%ADD28R,0.059055X0.059055*%
%TA.AperFunction,ViaPad*%
%ADD29C,0.100000*%
%ADD30C,0.025000*%
%TA.AperFunction,SMDPad,CuDef*%
%ADD31R,0.062992X0.033465*%
%ADD32R,0.055118X0.043307*%
G36*
X3000000Y1000000D02*
X1000000D01*
Y3000000D01*
X3000000D01*
Y1000000D01*
D02*
G37*
%LPC*%
G36*
X2887028Y2037027D02*
X2812972D01*
Y1962973D01*
X2887028D01*
Y2037027D01*
D02*
G37*
G36*
X1100000Y1157996D02*
X1084989Y1156020D01*
X1071002Y1150226D01*
X1058991Y1141009D01*
X1049774Y1128998D01*
X1043980Y1115011D01*
X1042004Y1100000D01*
X1043980Y1084989D01*
X1049774Y1071002D01*
X1058991Y1058991D01*
X1071002Y1049774D01*
X1084989Y1043980D01*
X1100000Y1042004D01*
X1115011Y1043980D01*
X1128998Y1049774D01*
X1141009Y1058991D01*
X1150226Y1071002D01*
X1156020Y1084989D01*
X1157996Y1100000D01*
X1156020Y1115011D01*
X1150226Y1128998D01*
X1141009Y1141009D01*
X1128998Y1150226D01*
X1115011Y1156020D01*
X1100000Y1157996D01*
D02*
G37*
G36*
X2900000D02*
X2884990Y1156020D01*
X2871002Y1150226D01*
X2858990Y1141009D01*
X2849774Y1128998D01*
X2843980Y1115011D01*
X2842004Y1100000D01*
X2843980Y1084989D01*
X2849774Y1071002D01*
X2858990Y1058991D01*
X2871002Y1049774D01*
X2884990Y1043980D01*
X2900000Y1042004D01*
X2915010Y1043980D01*
X2928998Y1049774D01*
X2941010Y1058991D01*
X2950226Y1071002D01*
X2956020Y1084989D01*
X2957996Y1100000D01*
X2956020Y1115011D01*
X2950226Y1128998D01*
X2941010Y1141009D01*
X2928998Y1150226D01*
X2915010Y1156020D01*
X2900000Y1157996D01*
D02*
G37*
G36*
X2145000Y1290361D02*
X2135848Y1289157D01*
X2127319Y1285624D01*
X2119996Y1280004D01*
X2114376Y1272681D01*
X2110843Y1264152D01*
X2109639Y1255000D01*
X2110843Y1245848D01*
X2114376Y1237319D01*
X2119996Y1229996D01*
X2127319Y1224376D01*
X2135848Y1220843D01*
X2145000Y1219639D01*
X2154152Y1220843D01*
X2162681Y1224376D01*
X2170004Y1229996D01*
X2175624Y1237319D01*
X2179157Y1245848D01*
X2180361Y1255000D01*
X2179157Y1264152D01*
X2175624Y1272681D01*
X2170004Y1280004D01*
X2162681Y1285624D01*
X2154152Y1289157D01*
X2145000Y1290361D01*
D02*
G37*
G36*
X2850000Y1737347D02*
X2840334Y1736074D01*
X2831327Y1732343D01*
X2823592Y1726408D01*
X2817657Y1718674D01*
X2813926Y1709666D01*
X2812653Y1700000D01*
X2813926Y1690334D01*
X2817657Y1681326D01*
X2823592Y1673592D01*
X2831327Y1667657D01*
X2840334Y1663926D01*
X2850000Y1662653D01*
X2859666Y1663926D01*
X2868673Y1667657D01*
X2876408Y1673592D01*
X2882343Y1681326D01*
X2886074Y1690334D01*
X2887347Y1700000D01*
X2886074Y1709666D01*
X2882343Y1718674D01*
X2876408Y1726408D01*
X2868673Y1732343D01*
X2859666Y1736074D01*
X2850000Y1737347D01*
D02*
G37*
G36*
X1387027Y1187027D02*
X1312973D01*
Y1112973D01*
X1387027D01*
Y1187027D01*
D02*
G37*
G36*
X2887028Y2337028D02*
X2812972D01*
Y2262972D01*
X2887028D01*
Y2337028D01*
D02*
G37*
G36*
X1100000Y2957996D02*
X1084989Y2956020D01*
X1071002Y2950226D01*
X1058991Y2941010D01*
X1049774Y2928998D01*
X1043980Y2915010D01*
X1042004Y2900000D01*
X1043980Y2884990D01*
X1049774Y2871002D01*
X1058991Y2858990D01*
X1071002Y2849774D01*
X1084989Y2843980D01*
X1100000Y2842004D01*
X1115011Y2843980D01*
X1128998Y2849774D01*
X1141009Y2858990D01*
X1150226Y2871002D01*
X1156020Y2884990D01*
X1157996Y2900000D01*
X1156020Y2915010D01*
X1150226Y2928998D01*
X1141009Y2941010D01*
X1128998Y2950226D01*
X1115011Y2956020D01*
X1100000Y2957996D01*
D02*
G37*
G36*
X2900000D02*
X2884990Y2956020D01*
X2871002Y2950226D01*
X2858990Y2941010D01*
X2849774Y2928998D01*
X2843980Y2915010D01*
X2842004Y2900000D01*
X2843980Y2884990D01*
X2849774Y2871002D01*
X2858990Y2858990D01*
X2871002Y2849774D01*
X2884990Y2843980D01*
X2900000Y2842004D01*
X2915010Y2843980D01*
X2928998Y2849774D01*
X2941010Y2858990D01*
X2950226Y2871002D01*
X2956020Y2884990D01*
X2957996Y2900000D01*
X2956020Y2915010D01*
X2950226Y2928998D01*
X2941010Y2941010D01*
X2928998Y2950226D01*
X2915010Y2956020D01*
X2900000Y2957996D01*
D02*
G37*
G36*
X2495472Y2938392D02*
X2487668Y2936840D01*
X2481053Y2932419D01*
X2479934Y2930745D01*
X2108564D01*
X2103687Y2929775D01*
X2099552Y2927012D01*
X2048960Y2876420D01*
X2046198Y2872286D01*
X2045227Y2867408D01*
Y2832592D01*
X2046198Y2827714D01*
X2048960Y2823580D01*
X2073580Y2798960D01*
X2077714Y2796198D01*
X2082592Y2795227D01*
X2092749D01*
X2153001Y2734975D01*
X2152608Y2733000D01*
X2154160Y2725196D01*
X2158581Y2718581D01*
X2165196Y2714160D01*
X2173000Y2712608D01*
X2180804Y2714160D01*
X2187419Y2718581D01*
X2191840Y2725196D01*
X2193392Y2733000D01*
X2191840Y2740804D01*
X2187419Y2747419D01*
X2180804Y2751840D01*
X2173000Y2753392D01*
X2171025Y2752999D01*
X2116633Y2807391D01*
X2118049Y2813046D01*
X2118725Y2813251D01*
X2133988Y2797988D01*
X2138123Y2795225D01*
X2143000Y2794255D01*
X2261000D01*
X2265877Y2795225D01*
X2270012Y2797988D01*
X2272279Y2800255D01*
X2684939D01*
X2686304Y2795255D01*
X2681310Y2788747D01*
X2679265Y2783811D01*
X2438066D01*
X2433189Y2782841D01*
X2429054Y2780078D01*
X2397988Y2749012D01*
X2395225Y2744877D01*
X2394255Y2740000D01*
Y2598279D01*
X2356728Y2560752D01*
X2351583Y2564191D01*
X2344048Y2565689D01*
X2281056D01*
X2276284Y2564740D01*
X2268012Y2573012D01*
X2263877Y2575775D01*
X2259000Y2576745D01*
X2258340D01*
X2257659Y2578708D01*
X2258528Y2580396D01*
X2261373Y2583255D01*
X2266347D01*
X2267133Y2582078D01*
X2273521Y2577809D01*
X2281056Y2576311D01*
X2344048D01*
X2351583Y2577809D01*
X2357970Y2582078D01*
X2362239Y2588465D01*
X2363737Y2596000D01*
X2362239Y2603535D01*
X2357970Y2609922D01*
X2351583Y2614191D01*
X2344048Y2615689D01*
X2281056D01*
X2277068Y2614896D01*
X2271775Y2615877D01*
X2269012Y2620012D01*
X2264877Y2622775D01*
X2260000Y2623745D01*
X2190000D01*
X2185123Y2622775D01*
X2180988Y2620012D01*
X2178225Y2615877D01*
X2177255Y2611000D01*
Y2517000D01*
X2178225Y2512123D01*
X2180988Y2507988D01*
X2185123Y2505225D01*
X2190000Y2504255D01*
X2190374D01*
Y2439941D01*
X2236018D01*
X2238783Y2436654D01*
X2237153Y2431965D01*
X2196037D01*
Y2396061D01*
X2189975Y2389999D01*
X2188000Y2390392D01*
X2180196Y2388840D01*
X2173581Y2384419D01*
X2169160Y2377804D01*
X2167608Y2370000D01*
X2169160Y2362196D01*
X2169856Y2361155D01*
X2167499Y2356745D01*
X2148044D01*
Y2431965D01*
X2119950D01*
X2115990Y2435923D01*
X2113682Y2439941D01*
X2113682D01*
X2113682Y2439941D01*
Y2510059D01*
X2097273D01*
Y2516000D01*
X2096303Y2520877D01*
X2093540Y2525012D01*
X2061690Y2556862D01*
X2057555Y2559625D01*
X2052678Y2560595D01*
X2049854D01*
Y2577003D01*
X2038560D01*
X2036647Y2581623D01*
X2065012Y2609988D01*
X2067775Y2614123D01*
X2068745Y2619000D01*
Y2694000D01*
X2067775Y2698877D01*
X2065012Y2703012D01*
X2060877Y2705775D01*
X2056000Y2706745D01*
X1486000D01*
X1481123Y2705775D01*
X1476988Y2703012D01*
X1460503Y2686527D01*
X1458528Y2686920D01*
X1450724Y2685368D01*
X1444109Y2680947D01*
X1439688Y2674332D01*
X1438136Y2666528D01*
X1439688Y2658724D01*
X1444109Y2652109D01*
X1450724Y2647688D01*
X1455620Y2646715D01*
X1457265Y2641289D01*
X1411988Y2596012D01*
X1409225Y2591877D01*
X1408255Y2587000D01*
Y2564689D01*
X1389528D01*
X1381993Y2563191D01*
X1375831Y2559073D01*
X1374094Y2560088D01*
X1371745Y2561899D01*
Y2614150D01*
X1370775Y2619027D01*
X1368012Y2623162D01*
X1363877Y2625925D01*
X1359000Y2626895D01*
X1358005D01*
Y2643303D01*
X1276075D01*
Y2584997D01*
X1346255D01*
Y2556000D01*
X1347225Y2551123D01*
X1349988Y2546988D01*
X1354973Y2542003D01*
X1352901Y2537003D01*
X1276076D01*
Y2537004D01*
X1271285Y2537511D01*
X1269815Y2538206D01*
Y2561965D01*
X1211508D01*
Y2480035D01*
X1269815D01*
Y2494073D01*
X1274815Y2496685D01*
X1276075Y2495809D01*
Y2478697D01*
X1296754D01*
X1301036Y2476964D01*
X1301036Y2473696D01*
Y2395035D01*
X1312224D01*
X1314440Y2390890D01*
X1312460Y2386059D01*
X1297412D01*
Y2315941D01*
X1355719D01*
Y2339788D01*
X1359012Y2341988D01*
X1365415Y2348391D01*
X1370023Y2345928D01*
X1369839Y2345000D01*
X1371337Y2337465D01*
X1375605Y2331078D01*
X1381993Y2326809D01*
X1389528Y2325311D01*
X1452520D01*
X1454090Y2325623D01*
X1456656Y2323057D01*
X1457756Y2321254D01*
X1458276Y2318642D01*
X1454024Y2314390D01*
X1452520Y2314689D01*
X1389528D01*
X1381993Y2313191D01*
X1375605Y2308922D01*
X1374819Y2307745D01*
X1221845D01*
X1218268Y2311322D01*
X1220182Y2315941D01*
X1220719D01*
Y2386059D01*
X1204311D01*
Y2392000D01*
X1203341Y2396877D01*
X1200578Y2401012D01*
X1147107Y2454483D01*
Y2480035D01*
X1163515D01*
Y2561965D01*
X1105208D01*
Y2533745D01*
X1098314D01*
X1096877Y2534705D01*
X1092000Y2535675D01*
X1076272D01*
Y2561926D01*
X1027808D01*
Y2483934D01*
X1076272D01*
Y2510185D01*
X1087616D01*
X1089053Y2509225D01*
X1093930Y2508255D01*
X1105208D01*
Y2480035D01*
X1121617D01*
Y2449204D01*
X1122587Y2444327D01*
X1125350Y2440192D01*
X1174483Y2391059D01*
X1172412Y2386059D01*
X1162413D01*
Y2386059D01*
X1161665D01*
Y2386059D01*
X1103359D01*
Y2363745D01*
X1095389D01*
X1076272Y2382862D01*
Y2428066D01*
X1027808D01*
Y2350074D01*
X1073012D01*
X1081098Y2341988D01*
X1085233Y2339225D01*
X1090110Y2338255D01*
X1103359D01*
Y2315941D01*
X1119767D01*
Y2280000D01*
X1120737Y2275123D01*
X1123500Y2270988D01*
X1147500Y2246988D01*
X1151635Y2244225D01*
X1156114Y2243334D01*
Y2231768D01*
X1234106D01*
Y2243255D01*
X1243721D01*
X1269988Y2216988D01*
X1274123Y2214225D01*
X1279000Y2213255D01*
X1392000D01*
X1396877Y2214225D01*
X1401012Y2216988D01*
X1403775Y2221123D01*
X1404608Y2225311D01*
X1452520D01*
X1460055Y2226809D01*
X1463255Y2228948D01*
X1468255Y2226275D01*
Y2021279D01*
X1464088Y2017112D01*
X1459152Y2019157D01*
X1450000Y2020361D01*
X1440848Y2019157D01*
X1432319Y2015624D01*
X1424996Y2010004D01*
X1419376Y2002681D01*
X1415843Y1994152D01*
X1414639Y1985000D01*
X1415843Y1975848D01*
X1419376Y1967319D01*
X1423653Y1961745D01*
X1421387Y1956745D01*
X1196279D01*
X1182112Y1970912D01*
X1184157Y1975848D01*
X1185361Y1985000D01*
X1184157Y1994152D01*
X1180624Y2002681D01*
X1175004Y2010004D01*
X1167681Y2015624D01*
X1159152Y2019157D01*
X1150000Y2020361D01*
X1140848Y2019157D01*
X1132319Y2015624D01*
X1124996Y2010004D01*
X1119376Y2002681D01*
X1115843Y1994152D01*
X1114639Y1985000D01*
X1115843Y1975848D01*
X1119376Y1967319D01*
X1124996Y1959996D01*
X1132319Y1954376D01*
X1140848Y1950843D01*
X1150000Y1949639D01*
X1159152Y1950843D01*
X1164088Y1952888D01*
X1181988Y1934988D01*
X1186123Y1932225D01*
X1191000Y1931255D01*
X1491000D01*
X1495877Y1932225D01*
X1500012Y1934988D01*
X1709752Y2144728D01*
X1712515Y2148863D01*
X1713485Y2153740D01*
Y2165035D01*
X1729893D01*
Y2246965D01*
X1671586D01*
Y2232970D01*
X1666967Y2231057D01*
X1659831Y2238193D01*
X1661185Y2245000D01*
X1659687Y2252535D01*
X1655418Y2258922D01*
X1649031Y2263191D01*
X1641496Y2264689D01*
X1578504D01*
X1570969Y2263191D01*
X1564582Y2258922D01*
X1559283Y2258741D01*
X1553999Y2264025D01*
X1554392Y2266000D01*
X1552840Y2273804D01*
X1550533Y2277255D01*
X1553206Y2282255D01*
X1563795D01*
X1564582Y2281078D01*
X1570969Y2276809D01*
X1578504Y2275311D01*
X1641496D01*
X1649031Y2276809D01*
X1655418Y2281078D01*
X1656543Y2282761D01*
X1658877Y2283225D01*
X1658922Y2283255D01*
X1670208D01*
Y2255035D01*
X1728515D01*
Y2332255D01*
X1850000D01*
X1854877Y2333225D01*
X1859012Y2335988D01*
X1861720Y2338697D01*
X1928005D01*
Y2397003D01*
X1846075D01*
Y2359099D01*
X1844721Y2357745D01*
X1731666D01*
Y2425035D01*
X1733043D01*
Y2505941D01*
X1733044Y2506965D01*
X1735514Y2510941D01*
X1736666Y2510941D01*
X1790719D01*
Y2533255D01*
X1803359D01*
Y2510941D01*
X1832225D01*
X1846075Y2497090D01*
Y2444997D01*
X1928005D01*
Y2503303D01*
X1876407D01*
X1874014Y2506269D01*
X1876056Y2510941D01*
X1920719D01*
Y2570255D01*
X1967926D01*
Y2518697D01*
X2049854D01*
Y2526117D01*
X2054474Y2528030D01*
X2067445Y2515059D01*
X2065374Y2510059D01*
X2055375D01*
Y2510059D01*
X2054625D01*
Y2510059D01*
X1996319D01*
Y2487745D01*
X1969388D01*
X1964511Y2486775D01*
X1960376Y2484012D01*
X1945376Y2469012D01*
X1942613Y2464877D01*
X1941643Y2460000D01*
Y2360000D01*
X1942613Y2355123D01*
X1945376Y2350988D01*
X1961376Y2334988D01*
X1965511Y2332225D01*
X1970388Y2331255D01*
X2047281D01*
X2047397Y2326303D01*
X2047398D01*
Y2267997D01*
X2129327D01*
Y2283255D01*
X2138358D01*
Y2260941D01*
X2156853D01*
X2158500Y2258476D01*
X2168231Y2248745D01*
X2166160Y2243745D01*
X2007000D01*
X2002123Y2242775D01*
X1997988Y2240012D01*
X1986988Y2229012D01*
X1984225Y2224877D01*
X1983256Y2220003D01*
X1955548D01*
X1955548Y2220004D01*
Y2220004D01*
X1951787Y2222709D01*
X1951012Y2223484D01*
X1946877Y2226247D01*
X1946571Y2226308D01*
Y2243626D01*
X1876453D01*
Y2185318D01*
X1946571D01*
Y2185344D01*
X1951190Y2187258D01*
X1955547Y2182901D01*
Y2161697D01*
X1983767D01*
Y2138488D01*
X1984737Y2133611D01*
X1987500Y2129476D01*
X2030988Y2085988D01*
X2035123Y2083225D01*
X2040000Y2082255D01*
X2620000D01*
X2624877Y2083225D01*
X2629012Y2085988D01*
X2654012Y2110988D01*
X2655255Y2112848D01*
X2660255Y2111331D01*
Y2077000D01*
X2661225Y2072123D01*
X2663988Y2067988D01*
X2694231Y2037745D01*
X2692160Y2032745D01*
X2539846D01*
X2538840Y2037804D01*
X2534419Y2044419D01*
X2527804Y2048840D01*
X2520000Y2050392D01*
X2512196Y2048840D01*
X2505581Y2044419D01*
X2501160Y2037804D01*
X2499608Y2030000D01*
X2501160Y2022196D01*
X2505581Y2015581D01*
X2506832Y2014745D01*
X2505315Y2009745D01*
X2468854D01*
X2464670Y2014745D01*
X2465361Y2020000D01*
X2464157Y2029152D01*
X2460624Y2037681D01*
X2455004Y2045004D01*
X2447681Y2050624D01*
X2439152Y2054157D01*
X2430000Y2055361D01*
X2420848Y2054157D01*
X2412319Y2050624D01*
X2404996Y2045004D01*
X2399376Y2037681D01*
X2395843Y2029152D01*
X2394639Y2020000D01*
X2395843Y2010848D01*
X2399376Y2002319D01*
X2403653Y1996745D01*
X2401387Y1991745D01*
X2079000D01*
X2074123Y1990775D01*
X2069988Y1988012D01*
X2063975Y1981999D01*
X2062000Y1982392D01*
X2054196Y1980840D01*
X2047581Y1976419D01*
X2043160Y1969804D01*
X2041608Y1962000D01*
X2043160Y1954196D01*
X2047581Y1947581D01*
X2054196Y1943160D01*
X2062000Y1941608D01*
X2069804Y1943160D01*
X2076419Y1947581D01*
X2080840Y1954196D01*
X2082392Y1962000D01*
X2082384Y1962040D01*
X2086031Y1966255D01*
X2253331D01*
X2254848Y1961255D01*
X2252988Y1960012D01*
X2036255Y1743279D01*
X1913534D01*
X1908657Y1742309D01*
X1904522Y1739546D01*
X1883666Y1718690D01*
X1881240Y1715059D01*
X1863525D01*
X1863525Y1715059D01*
X1862775D01*
Y1715059D01*
X1858524Y1715059D01*
X1804468D01*
Y1692745D01*
X1791832D01*
Y1715059D01*
X1737776D01*
X1733524Y1715059D01*
X1728524Y1715059D01*
X1674468D01*
Y1691745D01*
X1665412D01*
X1664636Y1692740D01*
X1663197Y1696745D01*
X1666840Y1702196D01*
X1668392Y1710000D01*
X1666840Y1717804D01*
X1662419Y1724419D01*
X1655804Y1728840D01*
X1648000Y1730392D01*
X1640196Y1728840D01*
X1633581Y1724419D01*
X1629160Y1717804D01*
X1627608Y1710000D01*
X1628863Y1703689D01*
X1625948Y1698689D01*
X1579614D01*
X1572079Y1697190D01*
X1565691Y1692922D01*
X1561423Y1686535D01*
X1559925Y1679000D01*
X1561423Y1671465D01*
X1565691Y1665078D01*
X1572079Y1660810D01*
X1579614Y1659311D01*
X1598365D01*
Y1648689D01*
X1579614D01*
X1572079Y1647190D01*
X1565691Y1642922D01*
X1564905Y1641745D01*
X1554000D01*
X1549123Y1640775D01*
X1544988Y1638012D01*
X1542225Y1633877D01*
X1541255Y1629000D01*
Y1490000D01*
X1542225Y1485123D01*
X1544988Y1480988D01*
X1555988Y1469988D01*
X1560123Y1467225D01*
X1564890Y1466277D01*
X1565691Y1465078D01*
X1572079Y1460810D01*
X1579614Y1459311D01*
X1642606D01*
X1650141Y1460810D01*
X1656528Y1465078D01*
X1660797Y1471465D01*
X1662295Y1479000D01*
X1660797Y1486535D01*
X1656528Y1492922D01*
X1650141Y1497190D01*
X1642606Y1498689D01*
X1579614D01*
X1572079Y1497190D01*
X1571745Y1496967D01*
X1566745Y1499640D01*
Y1509070D01*
X1571155Y1511427D01*
X1572079Y1510810D01*
X1579614Y1509311D01*
X1642606D01*
X1650141Y1510810D01*
X1653939Y1513348D01*
X1654123Y1513225D01*
X1659000Y1512255D01*
X1674468D01*
Y1489941D01*
X1690877D01*
Y1484000D01*
X1691847Y1479123D01*
X1693957Y1475965D01*
X1692807Y1472458D01*
X1691743Y1470965D01*
X1671319D01*
Y1442745D01*
X1656647D01*
X1656528Y1442922D01*
X1650141Y1447190D01*
X1642606Y1448689D01*
X1579614D01*
X1572079Y1447190D01*
X1565691Y1442922D01*
X1561423Y1436535D01*
X1559925Y1429000D01*
X1561423Y1421465D01*
X1565691Y1415078D01*
X1572079Y1410810D01*
X1579614Y1409311D01*
X1642606D01*
X1650141Y1410810D01*
X1656528Y1415078D01*
X1657670Y1416786D01*
X1659877Y1417225D01*
X1659922Y1417255D01*
X1671319D01*
Y1389035D01*
X1711412D01*
X1724255Y1376193D01*
Y1340965D01*
X1692060D01*
X1660923Y1372101D01*
X1662295Y1379000D01*
X1660797Y1386535D01*
X1656528Y1392922D01*
X1650141Y1397190D01*
X1642606Y1398689D01*
X1579614D01*
X1572079Y1397190D01*
X1565691Y1392922D01*
X1561423Y1386535D01*
X1559925Y1379000D01*
X1561423Y1371465D01*
X1565691Y1365078D01*
X1572079Y1360810D01*
X1579614Y1359311D01*
X1598255D01*
Y1157745D01*
X1588014D01*
X1471409Y1267395D01*
X1471493Y1267756D01*
X1472488Y1268443D01*
X1477059Y1269593D01*
X1482196Y1266160D01*
X1490000Y1264608D01*
X1497804Y1266160D01*
X1504419Y1270581D01*
X1508840Y1277196D01*
X1510392Y1285000D01*
X1509335Y1290311D01*
X1527012Y1307988D01*
X1529775Y1312123D01*
X1530745Y1317000D01*
Y1541000D01*
X1529775Y1545877D01*
X1527012Y1550012D01*
X1489012Y1588012D01*
X1484877Y1590775D01*
X1480000Y1591745D01*
X1468339D01*
X1467553Y1592922D01*
X1461165Y1597190D01*
X1453630Y1598689D01*
X1390638D01*
X1383103Y1597190D01*
X1376716Y1592922D01*
X1374601Y1589758D01*
X1371988Y1588012D01*
X1366721Y1582745D01*
X1360454D01*
X1360454Y1610965D01*
X1359114Y1615410D01*
Y1621179D01*
X1363734Y1623092D01*
X1366838Y1619988D01*
X1370973Y1617225D01*
X1375850Y1616255D01*
X1375929D01*
X1376716Y1615078D01*
X1383103Y1610810D01*
X1390638Y1609311D01*
X1453630D01*
X1461165Y1610810D01*
X1467553Y1615078D01*
X1471821Y1621465D01*
X1473319Y1629000D01*
X1471821Y1636535D01*
X1467553Y1642922D01*
X1461165Y1647190D01*
X1453630Y1648689D01*
X1390638D01*
X1383103Y1647190D01*
X1378655Y1644219D01*
X1372012Y1650862D01*
X1367877Y1653625D01*
X1363000Y1654595D01*
X1359114D01*
Y1665226D01*
X1364114Y1667899D01*
X1365123Y1667225D01*
X1370000Y1666255D01*
X1375929D01*
X1376716Y1665078D01*
X1383103Y1660810D01*
X1390638Y1659311D01*
X1453630D01*
X1461165Y1660810D01*
X1467553Y1665078D01*
X1468339Y1666255D01*
X1508000D01*
X1512877Y1667225D01*
X1517012Y1669988D01*
X1624429Y1777405D01*
X1950035D01*
Y1760996D01*
X2031965D01*
Y1819303D01*
X1950035D01*
Y1802895D01*
X1619150D01*
X1614273Y1801925D01*
X1610138Y1799162D01*
X1502721Y1691745D01*
X1468339D01*
X1467553Y1692922D01*
X1461165Y1697190D01*
X1453630Y1698689D01*
X1390638D01*
X1383103Y1697190D01*
X1377362Y1693354D01*
X1374452Y1694577D01*
X1372745Y1695825D01*
Y1748150D01*
X1371775Y1753027D01*
X1369012Y1757162D01*
X1364877Y1759925D01*
X1360000Y1760895D01*
X1359114D01*
Y1777303D01*
X1277186D01*
Y1718996D01*
X1347255D01*
Y1689000D01*
X1348225Y1684123D01*
X1350988Y1679988D01*
X1354973Y1676004D01*
X1352901Y1671004D01*
X1277186D01*
Y1671004D01*
X1272388Y1671492D01*
X1270926Y1672184D01*
Y1695965D01*
X1212619D01*
Y1614035D01*
X1270926D01*
Y1627957D01*
X1275926Y1630573D01*
X1277186Y1629699D01*
Y1612697D01*
X1297864D01*
X1302146Y1610964D01*
X1302147Y1607696D01*
Y1529035D01*
X1355940D01*
X1358012Y1524035D01*
X1354035Y1520059D01*
X1298524D01*
Y1449941D01*
X1356832D01*
Y1488759D01*
X1357555Y1488903D01*
X1361690Y1491666D01*
X1381743Y1511719D01*
X1383103Y1510810D01*
X1390638Y1509311D01*
X1453630D01*
X1461165Y1510810D01*
X1467553Y1515078D01*
X1468339Y1516255D01*
X1476462D01*
X1477581Y1514581D01*
X1484196Y1510160D01*
X1492000Y1508608D01*
X1499804Y1510160D01*
X1500845Y1510857D01*
X1505255Y1508499D01*
Y1478302D01*
X1500636Y1476388D01*
X1489012Y1488012D01*
X1484877Y1490775D01*
X1480000Y1491745D01*
X1468339D01*
X1467553Y1492922D01*
X1461165Y1497190D01*
X1453630Y1498689D01*
X1390638D01*
X1383103Y1497190D01*
X1376716Y1492922D01*
X1372447Y1486535D01*
X1370949Y1479000D01*
X1372447Y1471465D01*
X1376716Y1465078D01*
X1383103Y1460810D01*
X1390638Y1459311D01*
X1453630D01*
X1461165Y1460810D01*
X1467553Y1465078D01*
X1468339Y1466255D01*
X1474721D01*
X1483697Y1457279D01*
Y1352718D01*
X1446988Y1316009D01*
X1444225Y1311875D01*
X1443255Y1306997D01*
Y1264389D01*
X1443294Y1264194D01*
X1443261Y1263998D01*
X1443778Y1261762D01*
X1444225Y1259512D01*
X1444336Y1259347D01*
X1444381Y1259153D01*
X1445714Y1257285D01*
X1446988Y1255378D01*
X1447153Y1255267D01*
X1447269Y1255105D01*
X1574232Y1135715D01*
X1576178Y1134500D01*
X1578085Y1133225D01*
X1578281Y1133186D01*
X1578449Y1133081D01*
X1580713Y1132703D01*
X1582963Y1132255D01*
X1602332D01*
X1604376Y1127319D01*
X1609996Y1119996D01*
X1617319Y1114376D01*
X1625848Y1110843D01*
X1635000Y1109639D01*
X1644152Y1110843D01*
X1652681Y1114376D01*
X1660004Y1119996D01*
X1665624Y1127319D01*
X1669157Y1135848D01*
X1670361Y1145000D01*
X1669157Y1154152D01*
X1665624Y1162681D01*
X1660004Y1170004D01*
X1652681Y1175624D01*
X1644152Y1179157D01*
X1635000Y1180361D01*
X1628745Y1179538D01*
X1623745Y1183277D01*
Y1359311D01*
X1637665D01*
X1667697Y1329280D01*
Y1259035D01*
X1722255D01*
Y1202000D01*
X1723225Y1197123D01*
X1725988Y1192988D01*
X1782988Y1135988D01*
X1787123Y1133225D01*
X1792000Y1132255D01*
X1902332D01*
X1904376Y1127319D01*
X1909996Y1119996D01*
X1917319Y1114376D01*
X1925848Y1110843D01*
X1935000Y1109639D01*
X1944152Y1110843D01*
X1952681Y1114376D01*
X1960004Y1119996D01*
X1965624Y1127319D01*
X1969157Y1135848D01*
X1970361Y1145000D01*
X1969157Y1154152D01*
X1965624Y1162681D01*
X1960004Y1170004D01*
X1953162Y1175255D01*
X1953189Y1176871D01*
X1954566Y1180255D01*
X2112972D01*
Y1112973D01*
X2187028D01*
Y1180255D01*
X2201721D01*
X2216381Y1165595D01*
X2213926Y1159666D01*
X2212653Y1150000D01*
X2213926Y1140334D01*
X2216381Y1134405D01*
X2165721Y1083745D01*
X1269279D01*
X1035745Y1317279D01*
Y1484074D01*
X1074122D01*
X1081208Y1476988D01*
X1085343Y1474225D01*
X1090220Y1473255D01*
X1093319D01*
Y1450941D01*
X1109727D01*
Y1400000D01*
X1110697Y1395123D01*
X1113460Y1390988D01*
X1171194Y1333254D01*
X1175329Y1330491D01*
X1180206Y1329521D01*
X1381984D01*
X1386861Y1330491D01*
X1390996Y1333254D01*
X1417053Y1359311D01*
X1453630D01*
X1461165Y1360810D01*
X1467553Y1365078D01*
X1471821Y1371465D01*
X1473319Y1379000D01*
X1471821Y1386535D01*
X1467553Y1392922D01*
X1461165Y1397190D01*
X1453630Y1398689D01*
X1390638D01*
X1383103Y1397190D01*
X1376716Y1392922D01*
X1374074Y1388969D01*
X1369074Y1390486D01*
Y1413695D01*
X1378784D01*
X1383103Y1410810D01*
X1390638Y1409311D01*
X1453630D01*
X1461165Y1410810D01*
X1467553Y1415078D01*
X1471821Y1421465D01*
X1473319Y1429000D01*
X1471821Y1436535D01*
X1467553Y1442922D01*
X1461165Y1447190D01*
X1453630Y1448689D01*
X1390638D01*
X1383103Y1447190D01*
X1376716Y1442922D01*
X1375140Y1440564D01*
X1373075Y1439185D01*
X1268612D01*
X1266233Y1440775D01*
X1261355Y1441745D01*
X1197807D01*
X1194273Y1445279D01*
Y1450941D01*
X1210681D01*
Y1521059D01*
X1194273D01*
Y1547000D01*
X1193303Y1551877D01*
X1190540Y1556012D01*
X1148217Y1598335D01*
Y1614035D01*
X1164626D01*
Y1695965D01*
X1106319D01*
Y1667745D01*
X1099314D01*
X1097877Y1668705D01*
X1093000Y1669675D01*
X1077382D01*
Y1695926D01*
X1028918D01*
Y1617934D01*
X1077382D01*
Y1644185D01*
X1088616D01*
X1090053Y1643225D01*
X1094930Y1642255D01*
X1106319D01*
Y1614035D01*
X1122727D01*
Y1593056D01*
X1123697Y1588179D01*
X1126460Y1584044D01*
X1168783Y1541721D01*
Y1524595D01*
X1165247Y1521059D01*
X1152374Y1521059D01*
X1147374Y1521059D01*
X1093319D01*
Y1507458D01*
X1088699Y1505545D01*
X1077382Y1516862D01*
Y1562066D01*
X1049623D01*
X1047709Y1566685D01*
X1054993Y1573969D01*
X1059196Y1571160D01*
X1067000Y1569608D01*
X1074804Y1571160D01*
X1081419Y1575581D01*
X1085840Y1582196D01*
X1087392Y1590000D01*
X1085840Y1597804D01*
X1081419Y1604419D01*
X1074804Y1608840D01*
X1067000Y1610392D01*
X1059196Y1608840D01*
X1052581Y1604419D01*
X1051226Y1602392D01*
X1048123Y1601775D01*
X1043988Y1599012D01*
X1013988Y1569012D01*
X1011225Y1564877D01*
X1010255Y1560000D01*
Y1312000D01*
X1011225Y1307123D01*
X1013988Y1302988D01*
X1254988Y1061988D01*
X1259123Y1059225D01*
X1264000Y1058255D01*
X2171000D01*
X2175877Y1059225D01*
X2180012Y1061988D01*
X2234405Y1116381D01*
X2240334Y1113926D01*
X2250000Y1112653D01*
X2259666Y1113926D01*
X2268673Y1117657D01*
X2276408Y1123592D01*
X2282343Y1131326D01*
X2286074Y1140334D01*
X2287347Y1150000D01*
X2286074Y1159666D01*
X2282343Y1168674D01*
X2276408Y1176408D01*
X2268673Y1182343D01*
X2259666Y1186074D01*
X2250000Y1187347D01*
X2240334Y1186074D01*
X2234405Y1183619D01*
X2216012Y1202012D01*
X2211877Y1204775D01*
X2207000Y1205745D01*
X1881279D01*
X1859745Y1227279D01*
Y1467000D01*
X1859606Y1467696D01*
X1863710Y1472697D01*
X1929114D01*
Y1489105D01*
X1930000D01*
X1934877Y1490075D01*
X1939012Y1492838D01*
X1959012Y1512838D01*
X1961775Y1516973D01*
X1962745Y1521850D01*
Y1563462D01*
X1964419Y1564581D01*
X1968840Y1571196D01*
X1970242Y1578245D01*
X1974740Y1580818D01*
X1994629Y1560929D01*
X1998764Y1558166D01*
X2003641Y1557196D01*
X2024847D01*
Y1487941D01*
X2041665D01*
X2042225Y1485123D01*
X2044988Y1480988D01*
X2056988Y1468988D01*
X2061123Y1466225D01*
X2066000Y1465255D01*
X2065883Y1460303D01*
X2048508D01*
Y1401996D01*
X2130436D01*
Y1417255D01*
X2139468D01*
Y1394941D01*
X2156969D01*
X2159610Y1390988D01*
X2170610Y1379988D01*
X2173967Y1377745D01*
X2173711Y1374348D01*
X2173135Y1372745D01*
X2007000D01*
X2002123Y1371775D01*
X1997988Y1369012D01*
X1987988Y1359012D01*
X1985225Y1354877D01*
X1985051Y1354004D01*
X1956658D01*
Y1354004D01*
X1952298Y1352198D01*
X1945012Y1359484D01*
X1940877Y1362247D01*
X1936059Y1363205D01*
Y1379626D01*
X1865941D01*
Y1321319D01*
X1936059D01*
Y1325856D01*
X1940678Y1327770D01*
X1952610Y1315838D01*
X1956658Y1313133D01*
Y1295697D01*
X2038586D01*
Y1347255D01*
X2390318D01*
Y1312035D01*
X2448626D01*
Y1390255D01*
X2496619D01*
Y1312035D01*
X2502137D01*
X2506318Y1310059D01*
Y1287745D01*
X2465000D01*
X2460123Y1286775D01*
X2460038Y1286718D01*
X2454152Y1289157D01*
X2445000Y1290361D01*
X2435848Y1289157D01*
X2427319Y1285624D01*
X2419996Y1280004D01*
X2414376Y1272681D01*
X2410843Y1264152D01*
X2409639Y1255000D01*
X2410843Y1245848D01*
X2414376Y1237319D01*
X2419996Y1229996D01*
X2427319Y1224376D01*
X2435848Y1220843D01*
X2445000Y1219639D01*
X2454152Y1220843D01*
X2462681Y1224376D01*
X2470004Y1229996D01*
X2475624Y1237319D01*
X2479157Y1245848D01*
X2480361Y1255000D01*
X2479901Y1258496D01*
X2483198Y1262255D01*
X2506318D01*
Y1239941D01*
X2530207D01*
X2533031Y1227235D01*
X2533480Y1226216D01*
X2533697Y1225123D01*
X2534473Y1223962D01*
X2535036Y1222685D01*
X2535841Y1221914D01*
X2536460Y1220988D01*
X2537621Y1220212D01*
X2538630Y1219248D01*
X2539668Y1218844D01*
X2540595Y1218225D01*
X2541964Y1217953D01*
X2543265Y1217448D01*
X2544379Y1217473D01*
X2545472Y1217255D01*
X2640000D01*
X2644877Y1218225D01*
X2649012Y1220988D01*
X2675012Y1246988D01*
X2677775Y1251123D01*
X2678745Y1256000D01*
Y1294721D01*
X2691279Y1307255D01*
X2737596D01*
X2742473Y1308225D01*
X2746608Y1310988D01*
X2766136Y1330516D01*
X2770755Y1328602D01*
Y1237779D01*
X2743721Y1210745D01*
X2498000D01*
X2493123Y1209775D01*
X2488988Y1207012D01*
X2465595Y1183619D01*
X2459666Y1186074D01*
X2450000Y1187347D01*
X2440334Y1186074D01*
X2431327Y1182343D01*
X2423592Y1176408D01*
X2417657Y1168674D01*
X2413926Y1159666D01*
X2412653Y1150000D01*
X2413926Y1140334D01*
X2417657Y1131326D01*
X2423592Y1123592D01*
X2431327Y1117657D01*
X2440334Y1113926D01*
X2450000Y1112653D01*
X2459666Y1113926D01*
X2468673Y1117657D01*
X2476408Y1123592D01*
X2482343Y1131326D01*
X2486074Y1140334D01*
X2487347Y1150000D01*
X2486074Y1159666D01*
X2483619Y1165595D01*
X2503279Y1185255D01*
X2526907D01*
X2528605Y1180255D01*
X2523592Y1176408D01*
X2517657Y1168674D01*
X2513926Y1159666D01*
X2512653Y1150000D01*
X2513926Y1140334D01*
X2517657Y1131326D01*
X2523592Y1123592D01*
X2531327Y1117657D01*
X2537255Y1115201D01*
Y1111000D01*
X2538225Y1106123D01*
X2540988Y1101988D01*
X2550988Y1091988D01*
X2555123Y1089225D01*
X2560000Y1088255D01*
X2713000D01*
X2717877Y1089225D01*
X2722012Y1091988D01*
X2810512Y1180488D01*
X2813275Y1184623D01*
X2814245Y1189500D01*
Y1462973D01*
X2887028D01*
Y1537027D01*
X2814245D01*
Y1615500D01*
X2813275Y1620377D01*
X2810512Y1624512D01*
X2795999Y1639025D01*
X2796392Y1641000D01*
X2794840Y1648804D01*
X2790419Y1655419D01*
X2783804Y1659840D01*
X2776000Y1661392D01*
X2768196Y1659840D01*
X2767155Y1659143D01*
X2762745Y1661501D01*
Y1749462D01*
X2764419Y1750581D01*
X2768840Y1757196D01*
X2770392Y1765000D01*
X2768840Y1772804D01*
X2764419Y1779419D01*
X2757804Y1783840D01*
X2750000Y1785392D01*
X2742196Y1783840D01*
X2735581Y1779419D01*
X2731160Y1772804D01*
X2729608Y1765000D01*
X2731160Y1757196D01*
X2735581Y1750581D01*
X2737255Y1749462D01*
Y1608000D01*
X2738225Y1603123D01*
X2740988Y1598988D01*
X2770755Y1569221D01*
Y1532298D01*
X2765755Y1528194D01*
X2765500Y1528245D01*
X2681500D01*
X2676623Y1527275D01*
X2672488Y1524512D01*
X2663364Y1515388D01*
X2658745Y1517302D01*
Y1575721D01*
X2670012Y1586988D01*
X2672775Y1591123D01*
X2673745Y1596000D01*
Y1647035D01*
X2683027D01*
Y1644850D01*
X2683997Y1639973D01*
X2686760Y1635838D01*
X2689053Y1633545D01*
X2687139Y1628926D01*
X2683390D01*
Y1550934D01*
X2731854D01*
Y1628926D01*
X2720367D01*
Y1633000D01*
X2719397Y1637877D01*
X2716634Y1642012D01*
X2716230Y1642416D01*
X2718143Y1647035D01*
X2724925D01*
Y1728965D01*
X2673745D01*
Y1734721D01*
X2780012Y1840988D01*
X2782775Y1845123D01*
X2783745Y1850000D01*
Y1928000D01*
X2782775Y1932877D01*
X2780012Y1937012D01*
X2754600Y1962424D01*
X2755192Y1966747D01*
X2755787Y1967979D01*
X2759452Y1970428D01*
X2780012Y1990988D01*
X2782775Y1995123D01*
X2783745Y2000000D01*
Y2340000D01*
X2782775Y2344877D01*
X2780012Y2349012D01*
X2754012Y2375012D01*
X2749877Y2377775D01*
X2745000Y2378745D01*
X2680000D01*
X2675123Y2377775D01*
X2670988Y2375012D01*
X2647988Y2352012D01*
X2645225Y2347877D01*
X2644255Y2343000D01*
X2639327Y2343172D01*
Y2351303D01*
X2612946D01*
X2611319Y2356303D01*
X2614061Y2360318D01*
X2628421D01*
Y2418626D01*
X2558303D01*
Y2406792D01*
X2553303Y2404721D01*
X2553012Y2405012D01*
X2548877Y2407775D01*
X2548305Y2407889D01*
X2546947Y2409922D01*
X2540559Y2414191D01*
X2533024Y2415689D01*
X2470032D01*
X2462497Y2414191D01*
X2456110Y2409922D01*
X2451841Y2403535D01*
X2450343Y2396000D01*
X2451841Y2388465D01*
X2456110Y2382078D01*
X2462497Y2377809D01*
X2470032Y2376311D01*
X2533024D01*
X2540559Y2377809D01*
X2543021Y2379454D01*
X2545651Y2377697D01*
X2550528Y2376727D01*
X2558303D01*
Y2360318D01*
X2578668D01*
X2580224Y2355318D01*
X2577247Y2351303D01*
X2557398D01*
Y2348081D01*
X2552398Y2347588D01*
X2552088Y2349145D01*
X2551215Y2353535D01*
X2546947Y2359922D01*
X2540559Y2364191D01*
X2533024Y2365689D01*
X2503532D01*
X2500000Y2366392D01*
X2496468Y2365689D01*
X2470032D01*
X2462497Y2364191D01*
X2456110Y2359922D01*
X2451841Y2353535D01*
X2450343Y2346000D01*
X2451841Y2338465D01*
X2456110Y2332078D01*
X2462497Y2327809D01*
X2470032Y2326311D01*
X2496468D01*
X2500000Y2325608D01*
X2503532Y2326311D01*
X2533024D01*
X2540559Y2327809D01*
X2546947Y2332078D01*
X2551215Y2338465D01*
X2552088Y2342855D01*
X2552398Y2344412D01*
X2557398Y2343919D01*
Y2298081D01*
X2552398Y2297588D01*
X2551215Y2303535D01*
X2546947Y2309922D01*
X2540559Y2314191D01*
X2533024Y2315689D01*
X2470032D01*
X2462497Y2314191D01*
X2456110Y2309922D01*
X2451841Y2303535D01*
X2450343Y2296000D01*
X2451841Y2288465D01*
X2456110Y2282078D01*
X2462497Y2277809D01*
X2470032Y2276311D01*
X2477255D01*
Y2174000D01*
X2478225Y2169123D01*
X2480988Y2164988D01*
X2490988Y2154988D01*
X2495123Y2152225D01*
X2500000Y2151255D01*
X2505209D01*
Y2107745D01*
X2045279D01*
X2009257Y2143767D01*
Y2161697D01*
X2037476D01*
Y2218255D01*
X2267721D01*
X2286488Y2199488D01*
X2290623Y2196725D01*
X2295500Y2195755D01*
X2389209D01*
Y2178035D01*
X2447515D01*
Y2259965D01*
X2431107D01*
Y2519083D01*
X2445279Y2533255D01*
X2455323D01*
X2456110Y2532078D01*
X2462497Y2527809D01*
X2470032Y2526311D01*
X2533024D01*
X2540559Y2527809D01*
X2546947Y2532078D01*
X2551215Y2538465D01*
X2552713Y2546000D01*
X2552169Y2548736D01*
X2556777Y2551199D01*
X2558988Y2548988D01*
X2563123Y2546225D01*
X2568000Y2545255D01*
X2568697D01*
Y2517035D01*
X2615940D01*
X2618012Y2512035D01*
X2614721Y2508745D01*
X2547733D01*
X2546947Y2509922D01*
X2540559Y2514191D01*
X2533024Y2515689D01*
X2470032D01*
X2462497Y2514191D01*
X2456110Y2509922D01*
X2451841Y2503535D01*
X2450343Y2496000D01*
X2451841Y2488465D01*
X2456110Y2482078D01*
X2462497Y2477809D01*
X2470032Y2476311D01*
X2533024D01*
X2540559Y2477809D01*
X2546947Y2482078D01*
X2547733Y2483255D01*
X2627000D01*
X2631877Y2484225D01*
X2636012Y2486988D01*
X2660012Y2510988D01*
X2662775Y2515123D01*
X2663745Y2520000D01*
Y2594721D01*
X2671416Y2602392D01*
X2674996Y2598901D01*
X2674997Y2593991D01*
Y2517035D01*
X2691405D01*
Y2513850D01*
X2692375Y2508973D01*
X2695138Y2504838D01*
X2701431Y2498545D01*
X2699517Y2493926D01*
X2695768D01*
Y2415934D01*
X2744232D01*
Y2493926D01*
X2732745D01*
Y2498000D01*
X2731775Y2502877D01*
X2729012Y2507012D01*
X2723608Y2512416D01*
X2725521Y2517035D01*
X2733303D01*
Y2598965D01*
X2679996D01*
X2675060Y2598965D01*
X2671569Y2602545D01*
X2723279Y2654255D01*
X2810721D01*
X2891954Y2573022D01*
X2889909Y2568086D01*
X2888704Y2558934D01*
X2889909Y2549782D01*
X2893442Y2541253D01*
X2899062Y2533930D01*
X2906385Y2528310D01*
X2914914Y2524777D01*
X2924066Y2523572D01*
X2933218Y2524777D01*
X2941747Y2528310D01*
X2949070Y2533930D01*
X2954690Y2541253D01*
X2958223Y2549782D01*
X2959428Y2558934D01*
X2958223Y2568086D01*
X2954690Y2576615D01*
X2949070Y2583938D01*
X2941747Y2589558D01*
X2933218Y2593091D01*
X2924066Y2594296D01*
X2914914Y2593091D01*
X2909978Y2591046D01*
X2825012Y2676012D01*
X2820877Y2678775D01*
X2816000Y2679745D01*
X2737662D01*
X2736410Y2681749D01*
X2735769Y2684745D01*
X2762012Y2710988D01*
X2764775Y2715123D01*
X2765745Y2720000D01*
Y2800000D01*
X2764775Y2804877D01*
X2762012Y2809012D01*
X2749012Y2822012D01*
X2744877Y2824775D01*
X2740000Y2825745D01*
X2267000D01*
X2262123Y2824775D01*
X2257988Y2822012D01*
X2255721Y2819745D01*
X2237028D01*
Y2887028D01*
X2162972D01*
Y2819745D01*
X2148279D01*
X2133619Y2834405D01*
X2136074Y2840334D01*
X2137347Y2850000D01*
X2136074Y2859666D01*
X2132343Y2868673D01*
X2126408Y2876408D01*
X2118673Y2882343D01*
X2109666Y2886074D01*
X2102656Y2886997D01*
X2100864Y2892276D01*
X2113843Y2905255D01*
X2479934D01*
X2481053Y2903581D01*
X2487668Y2899160D01*
X2495472Y2897608D01*
X2503276Y2899160D01*
X2509891Y2903581D01*
X2514312Y2910196D01*
X2515864Y2918000D01*
X2514312Y2925804D01*
X2509891Y2932419D01*
X2503276Y2936840D01*
X2495472Y2938392D01*
D02*
G37*
G36*
X1800000Y2887347D02*
X1790334Y2886074D01*
X1781326Y2882343D01*
X1773592Y2876408D01*
X1767657Y2868673D01*
X1763926Y2859666D01*
X1762653Y2850000D01*
X1763926Y2840334D01*
X1767657Y2831327D01*
X1773592Y2823592D01*
X1781326Y2817657D01*
X1790334Y2813926D01*
X1800000Y2812653D01*
X1809666Y2813926D01*
X1818674Y2817657D01*
X1826408Y2823592D01*
X1832343Y2831327D01*
X1836074Y2840334D01*
X1837347Y2850000D01*
X1836074Y2859666D01*
X1832343Y2868673D01*
X1826408Y2876408D01*
X1818674Y2882343D01*
X1809666Y2886074D01*
X1800000Y2887347D01*
D02*
G37*
G36*
X1900000D02*
X1890334Y2886074D01*
X1881326Y2882343D01*
X1873592Y2876408D01*
X1867657Y2868673D01*
X1863926Y2859666D01*
X1862653Y2850000D01*
X1863926Y2840334D01*
X1867657Y2831327D01*
X1873592Y2823592D01*
X1881326Y2817657D01*
X1890334Y2813926D01*
X1900000Y2812653D01*
X1909666Y2813926D01*
X1918674Y2817657D01*
X1926408Y2823592D01*
X1932343Y2831327D01*
X1936074Y2840334D01*
X1937347Y2850000D01*
X1936074Y2859666D01*
X1932343Y2868673D01*
X1926408Y2876408D01*
X1918674Y2882343D01*
X1909666Y2886074D01*
X1900000Y2887347D01*
D02*
G37*
G36*
X2000000D02*
X1990334Y2886074D01*
X1981326Y2882343D01*
X1973592Y2876408D01*
X1967657Y2868673D01*
X1963926Y2859666D01*
X1962653Y2850000D01*
X1963926Y2840334D01*
X1967657Y2831327D01*
X1973592Y2823592D01*
X1981326Y2817657D01*
X1990334Y2813926D01*
X2000000Y2812653D01*
X2009666Y2813926D01*
X2018674Y2817657D01*
X2026408Y2823592D01*
X2032343Y2831327D01*
X2036074Y2840334D01*
X2037347Y2850000D01*
X2036074Y2859666D01*
X2032343Y2868673D01*
X2026408Y2876408D01*
X2018674Y2882343D01*
X2009666Y2886074D01*
X2000000Y2887347D01*
D02*
G37*
%LPD*%
G36*
X1834255Y1461721D02*
Y1222000D01*
X1835225Y1217123D01*
X1837988Y1212988D01*
X1866988Y1183988D01*
X1871123Y1181225D01*
X1876000Y1180255D01*
X1915434D01*
X1916811Y1176871D01*
X1916838Y1175255D01*
X1909996Y1170004D01*
X1904376Y1162681D01*
X1902332Y1157745D01*
X1797279D01*
X1747745Y1207279D01*
Y1273031D01*
X1748775Y1274573D01*
X1749745Y1279450D01*
Y1381472D01*
X1748775Y1386349D01*
X1746012Y1390484D01*
X1729626Y1406870D01*
Y1470964D01*
X1734505Y1471255D01*
X1824721D01*
X1834255Y1461721D01*
D02*
G37*
G36*
X1513984Y2267889D02*
X1513608Y2266000D01*
X1515160Y2258196D01*
X1519581Y2251581D01*
X1526196Y2247160D01*
X1534000Y2245608D01*
X1535975Y2246001D01*
X1545988Y2235988D01*
X1550123Y2233225D01*
X1555000Y2232255D01*
X1563795D01*
X1564582Y2231078D01*
X1570969Y2226809D01*
X1578504Y2225311D01*
X1636665D01*
X1664988Y2196988D01*
X1669123Y2194225D01*
X1671586Y2193735D01*
Y2165035D01*
X1687995D01*
Y2159019D01*
X1485721Y1956745D01*
X1478613D01*
X1476347Y1961745D01*
X1480624Y1967319D01*
X1484157Y1975848D01*
X1485361Y1985000D01*
X1484157Y1994152D01*
X1482112Y1999088D01*
X1490012Y2006988D01*
X1492775Y2011123D01*
X1493745Y2016000D01*
Y2254721D01*
X1509376Y2270352D01*
X1513984Y2267889D01*
D02*
G37*
G36*
X2758255Y2048613D02*
X2753255Y2046347D01*
X2747681Y2050624D01*
X2739152Y2054157D01*
X2730000Y2055361D01*
X2720848Y2054157D01*
X2715912Y2052112D01*
X2685745Y2082279D01*
Y2159721D01*
X2733012Y2206988D01*
X2735775Y2211123D01*
X2736545Y2214997D01*
X2758255D01*
Y2048613D01*
D02*
G37*
G36*
X1972196Y2426160D02*
X1980000Y2424608D01*
X1981975Y2425001D01*
X1983988Y2422988D01*
X1988123Y2420225D01*
X1993000Y2419255D01*
X2023736D01*
Y2356745D01*
X1975667D01*
X1967133Y2365279D01*
Y2424240D01*
X1971543Y2426597D01*
X1972196Y2426160D01*
D02*
G37*
G36*
X1804468Y1644941D02*
X1833335D01*
X1847186Y1631091D01*
Y1578996D01*
X1924898D01*
X1929114Y1578996D01*
X1930490Y1574567D01*
X1931160Y1571196D01*
X1935581Y1564581D01*
X1937255Y1563462D01*
Y1527129D01*
X1933734Y1523608D01*
X1929114Y1525521D01*
Y1531004D01*
X1847186D01*
Y1491371D01*
X1842566Y1489458D01*
X1839012Y1493012D01*
X1834877Y1495775D01*
X1830000Y1496745D01*
X1732775D01*
Y1559035D01*
X1734153D01*
Y1639941D01*
X1734154Y1640965D01*
X1736624Y1644941D01*
X1737776Y1644941D01*
X1791832D01*
Y1667255D01*
X1804468D01*
Y1644941D01*
D02*
G37*
G36*
X2560318Y1674150D02*
Y1647036D01*
X2560318D01*
X2558606Y1642745D01*
X2548843D01*
X2548057Y1643922D01*
X2541669Y1648190D01*
X2534134Y1649689D01*
X2471142D01*
X2463607Y1648190D01*
X2457220Y1643922D01*
X2452951Y1637535D01*
X2451453Y1630000D01*
X2452951Y1622465D01*
X2457220Y1616078D01*
X2463607Y1611810D01*
X2471142Y1610311D01*
X2534134D01*
X2541669Y1611810D01*
X2548057Y1616078D01*
X2548843Y1617255D01*
X2620000D01*
X2624877Y1618225D01*
X2629012Y1620988D01*
X2643636Y1635612D01*
X2648255Y1633698D01*
Y1601279D01*
X2636988Y1590012D01*
X2634225Y1585877D01*
X2633255Y1581000D01*
Y1555706D01*
X2629531Y1552626D01*
X2559413D01*
Y1540682D01*
X2554413Y1538611D01*
X2554012Y1539012D01*
X2549877Y1541775D01*
X2549432Y1541863D01*
X2548057Y1543922D01*
X2541669Y1548190D01*
X2534134Y1549689D01*
X2471142D01*
X2463607Y1548190D01*
X2457220Y1543922D01*
X2452951Y1537535D01*
X2451453Y1530000D01*
X2452951Y1522465D01*
X2457220Y1516078D01*
X2463607Y1511810D01*
X2471142Y1510311D01*
X2534134D01*
X2541669Y1511810D01*
X2544076Y1513418D01*
X2546651Y1511697D01*
X2551528Y1510727D01*
X2559413D01*
Y1494319D01*
X2579778D01*
X2581334Y1489319D01*
X2578357Y1485303D01*
X2558508D01*
Y1482081D01*
X2553508Y1481588D01*
X2552325Y1487535D01*
X2548057Y1493922D01*
X2541669Y1498190D01*
X2534134Y1499689D01*
X2471142D01*
X2463607Y1498190D01*
X2457220Y1493922D01*
X2456039Y1492156D01*
X2454123Y1491775D01*
X2449988Y1489012D01*
X2449121Y1488145D01*
X2445855Y1489426D01*
X2444311Y1490406D01*
X2442840Y1497804D01*
X2438419Y1504419D01*
X2436745Y1505538D01*
Y1659249D01*
X2444751Y1667255D01*
X2456433D01*
X2457220Y1666078D01*
X2463607Y1661810D01*
X2471142Y1660311D01*
X2534134D01*
X2541669Y1661810D01*
X2548057Y1666078D01*
X2552325Y1672465D01*
X2552652Y1674111D01*
X2555098Y1675771D01*
X2557955Y1676371D01*
X2560318Y1674150D01*
D02*
G37*
G36*
X2387231Y1933255D02*
X2370988Y1917012D01*
X2368225Y1912877D01*
X2367255Y1908000D01*
Y1755279D01*
X2357173Y1745197D01*
X2352693Y1748190D01*
X2345158Y1749689D01*
X2282166D01*
X2274631Y1748190D01*
X2268244Y1743922D01*
X2263975Y1737535D01*
X2262477Y1730000D01*
X2263975Y1722465D01*
X2268244Y1716078D01*
X2274631Y1711810D01*
X2282166Y1710311D01*
X2345158D01*
X2352693Y1711810D01*
X2359081Y1716078D01*
X2359867Y1717255D01*
X2360000D01*
X2364877Y1718225D01*
X2369012Y1720988D01*
X2389012Y1740988D01*
X2391775Y1745123D01*
X2392745Y1750000D01*
Y1870263D01*
X2397745Y1871257D01*
X2399376Y1867319D01*
X2404996Y1859996D01*
X2412319Y1854376D01*
X2417255Y1852332D01*
Y1743279D01*
X2366721Y1692745D01*
X2359867D01*
X2359081Y1693922D01*
X2352693Y1698190D01*
X2345158Y1699689D01*
X2282166D01*
X2277302Y1698722D01*
X2269012Y1707012D01*
X2264877Y1709775D01*
X2260000Y1710745D01*
X2254925D01*
Y1738965D01*
X2196619D01*
Y1663745D01*
X2190422D01*
X2189392Y1665000D01*
X2187840Y1672804D01*
X2183419Y1679419D01*
X2176804Y1683840D01*
X2169000Y1685392D01*
X2161196Y1683840D01*
X2154581Y1679419D01*
X2150160Y1672804D01*
X2148608Y1665000D01*
X2150160Y1657196D01*
X2154581Y1650581D01*
X2161196Y1646160D01*
X2169000Y1644608D01*
X2170975Y1645001D01*
X2173988Y1641988D01*
X2178123Y1639225D01*
X2183000Y1638255D01*
X2190374D01*
Y1574941D01*
X2236563D01*
X2240516Y1570988D01*
X2240551Y1570965D01*
X2239034Y1565965D01*
X2197146D01*
Y1490745D01*
X2149153D01*
Y1565965D01*
X2137745D01*
Y1651000D01*
X2136775Y1655877D01*
X2134012Y1660012D01*
X2129877Y1662775D01*
X2125000Y1663745D01*
X2056129D01*
X2031965Y1687909D01*
Y1712789D01*
X2031965Y1713004D01*
X2032482Y1717789D01*
X2041534D01*
X2046411Y1718759D01*
X2050546Y1721522D01*
X2267279Y1938255D01*
X2385160D01*
X2387231Y1933255D01*
D02*
G37*
D11*
X1331300Y1570000D02*
D03*
X1241772Y1655000D02*
D03*
X1225000Y1570000D02*
D03*
X1135472Y1655000D02*
D03*
X1696850Y1300000D02*
D03*
X1700472Y1430000D02*
D03*
X1803150Y1300000D02*
D03*
X1806772Y1430000D02*
D03*
X1811300Y1600000D02*
D03*
X1705000D02*
D03*
X2120000Y1525000D02*
D03*
X2226300D02*
D03*
X2225772Y1698000D02*
D03*
X2119472D02*
D03*
X2419472Y1353000D02*
D03*
X2525772D02*
D03*
X2695772Y1688000D02*
D03*
X2589472D02*
D03*
X2524662Y2219000D02*
D03*
X2418362D02*
D03*
X2225190Y2391000D02*
D03*
X2118890D02*
D03*
X2224662Y2564000D02*
D03*
X2118362D02*
D03*
X1810190Y2466000D02*
D03*
X1703890D02*
D03*
X1699362Y2296000D02*
D03*
X1700740Y2206000D02*
D03*
X1807040D02*
D03*
X1805662Y2296000D02*
D03*
X1330190Y2436000D02*
D03*
X1240662Y2521000D02*
D03*
X1223890Y2436000D02*
D03*
X1134362Y2521000D02*
D03*
X2597850Y2558000D02*
D03*
X2704150D02*
D03*
D12*
X1318150Y1641850D02*
D03*
Y1748150D02*
D03*
X1888150Y1501850D02*
D03*
X1997622Y1431150D02*
D03*
Y1324850D02*
D03*
X2089472D02*
D03*
Y1431150D02*
D03*
X1991000Y1683850D02*
D03*
Y1790150D02*
D03*
X1888150Y1608150D02*
D03*
X2088362Y2190850D02*
D03*
Y2297150D02*
D03*
X1996512D02*
D03*
Y2190850D02*
D03*
X1887040Y2367850D02*
D03*
Y2474150D02*
D03*
X2008890Y2547850D02*
D03*
Y2654150D02*
D03*
X2598362Y2215850D02*
D03*
Y2322150D02*
D03*
X2724000Y2137850D02*
D03*
Y2244150D02*
D03*
X2599472Y1456150D02*
D03*
Y1349850D02*
D03*
X2712622Y1269850D02*
D03*
Y1376150D02*
D03*
X1317040Y2614150D02*
D03*
Y2507850D02*
D03*
D13*
X1053150Y1523070D02*
D03*
Y1656930D02*
D03*
X1052040Y2389070D02*
D03*
Y2522930D02*
D03*
X2707622Y1456072D02*
D03*
Y1589930D02*
D03*
X2720000Y2321070D02*
D03*
Y2454930D02*
D03*
D15*
X1422134Y1379000D02*
D03*
Y1429000D02*
D03*
Y1479000D02*
D03*
Y1529000D02*
D03*
Y1579000D02*
D03*
Y1629000D02*
D03*
Y1679000D02*
D03*
X1611110Y1479000D02*
D03*
Y1429000D02*
D03*
Y1379000D02*
D03*
Y1529000D02*
D03*
Y1579000D02*
D03*
Y1629000D02*
D03*
Y1679000D02*
D03*
X1610000Y2245000D02*
D03*
Y2295000D02*
D03*
Y2345000D02*
D03*
Y2395000D02*
D03*
Y2445000D02*
D03*
Y2495000D02*
D03*
Y2545000D02*
D03*
X1421024D02*
D03*
Y2495000D02*
D03*
Y2445000D02*
D03*
Y2395000D02*
D03*
Y2345000D02*
D03*
Y2295000D02*
D03*
Y2245000D02*
D03*
X2313662Y1480000D02*
D03*
Y1430000D02*
D03*
Y1530000D02*
D03*
Y1580000D02*
D03*
Y1630000D02*
D03*
Y1680000D02*
D03*
Y1730000D02*
D03*
X2502638Y1580000D02*
D03*
Y1530000D02*
D03*
Y1480000D02*
D03*
Y1430000D02*
D03*
Y1630000D02*
D03*
Y1680000D02*
D03*
Y1730000D02*
D03*
X2501528Y2296000D02*
D03*
Y2346000D02*
D03*
Y2396000D02*
D03*
Y2446000D02*
D03*
Y2496000D02*
D03*
Y2546000D02*
D03*
Y2596000D02*
D03*
X2312552D02*
D03*
Y2546000D02*
D03*
Y2496000D02*
D03*
Y2446000D02*
D03*
Y2396000D02*
D03*
Y2346000D02*
D03*
Y2296000D02*
D03*
D17*
X1327678Y1485000D02*
D03*
X1268622D02*
D03*
X1181528Y1486000D02*
D03*
X1122472D02*
D03*
X1703622Y1525000D02*
D03*
X1762678D02*
D03*
X1833622Y1680000D02*
D03*
X1892678D02*
D03*
X1994944Y1523000D02*
D03*
X2054000D02*
D03*
X2168622Y1430000D02*
D03*
X2227678D02*
D03*
X2219528Y1610000D02*
D03*
X2160472D02*
D03*
X2089528D02*
D03*
X2030472D02*
D03*
X1762678Y1680000D02*
D03*
X1703622D02*
D03*
X2226568Y2296000D02*
D03*
X2167512D02*
D03*
X2052890Y2389000D02*
D03*
X2160472Y2475000D02*
D03*
X2219528D02*
D03*
X2084528D02*
D03*
X2025472D02*
D03*
X1993834Y2389000D02*
D03*
X1891566Y2546000D02*
D03*
X1832512D02*
D03*
X1761566D02*
D03*
X1702512D02*
D03*
Y2391000D02*
D03*
X1761568D02*
D03*
X1326566Y2351000D02*
D03*
X1267512D02*
D03*
X1191566D02*
D03*
X1132512D02*
D03*
X2535472Y1275000D02*
D03*
X2594528D02*
D03*
X2593418Y2141000D02*
D03*
X2534362D02*
D03*
D24*
X1264000Y1071000D02*
X2171000D01*
X2250000Y1150000D01*
X2207000Y1193000D01*
X1876000D01*
X1847000Y1222000D01*
Y1467000D01*
X1830000Y1484000D01*
X1703622D01*
Y1525000D01*
X1659000D01*
X1655000Y1529000D01*
X1611110D01*
Y1579000D02*
X1647000D01*
X1668000Y1600000D01*
X1705000D01*
X1703622Y1680000D02*
X1685968D01*
X1686968Y1679000D01*
X1648000D01*
Y1710000D01*
X1619150Y1790150D02*
X1991000D01*
X1913534Y1730534D02*
X2041534D01*
X2262000Y1951000D01*
X2580000D01*
X2696018Y1954422D02*
X2744578D01*
X2771000Y1928000D01*
Y1850000D01*
X2661000Y1740000D01*
Y1596000D01*
X2646000Y1581000D01*
Y1480000D01*
X2681500Y1515500D01*
X2765500D01*
Y1347904D01*
X2737596Y1320000D01*
X2686000D01*
X2666000Y1300000D01*
Y1256000D01*
X2640000Y1230000D01*
X2545472D01*
X2535472Y1275000D01*
X2465000D01*
X2445000Y1255000D01*
X2498000Y1198000D02*
X2749000D01*
X2783500Y1232500D01*
Y1574500D01*
X2750000Y1608000D01*
Y1765000D01*
X2776000Y1641000D02*
X2801500Y1615500D01*
Y1189500D01*
X2713000Y1101000D01*
X2560000D01*
X2550000Y1111000D01*
Y1150000D01*
X2594528Y1275000D02*
Y1309000D01*
X2599472Y1313944D01*
Y1349850D01*
X2564150D01*
X2561000Y1353000D01*
X2525772D01*
X2646000Y1421000D02*
Y1480000D01*
Y1421000D02*
X2556000D01*
X2547000Y1430000D01*
X2502638D01*
Y1480000D02*
X2459000D01*
X2439000Y1460000D01*
Y1412000D01*
X2448000Y1403000D01*
X2674150D01*
X2701000Y1376150D01*
X2712622D01*
X2707622Y1456072D02*
Y1490000D01*
X2740000D01*
X2707622Y1589930D02*
Y1633000D01*
X2695772Y1644850D01*
Y1688000D01*
X2643000Y1653000D02*
Y1798000D01*
X2730000Y1885000D01*
X2495000D01*
X2452000Y1928000D01*
X2400000D01*
X2380000Y1908000D01*
Y1750000D01*
X2360000Y1730000D01*
X2313662D01*
Y1680000D02*
X2372000D01*
X2430000Y1738000D01*
Y1885000D01*
X2502638Y1730000D02*
X2525000D01*
X2567000Y1688000D01*
X2589472D01*
X2502638Y1680000D02*
X2439472D01*
X2424000Y1664528D01*
X2419472Y1660000D01*
Y1436534D01*
X2413330Y1430392D01*
Y1385534D01*
X2419472D01*
Y1360000D01*
X2007000D01*
X1997000Y1350000D01*
Y1324850D01*
X1997622D01*
X1997000D02*
X1961622D01*
X1936000Y1350472D01*
X1901000D01*
X2089472Y1431150D02*
X2128000D01*
X2129150Y1430000D01*
X2168622D01*
Y1400000D01*
X2179622Y1389000D01*
X2379330D01*
X2395330Y1405000D01*
Y1454534D01*
X2398000Y1457204D01*
Y1594000D01*
X2362000Y1630000D01*
X2313662D01*
Y1680000D02*
X2278000D01*
X2260000Y1698000D01*
X2225772D01*
X2208528Y1651000D02*
X2219528Y1610000D01*
X2249528Y1580000D01*
X2313662D01*
Y1530000D02*
X2272000D01*
X2267000Y1525000D01*
X2226300D01*
Y1490000D01*
X2214300Y1478000D01*
X2066000D01*
X2054000Y1490000D01*
Y1523000D01*
X2079469Y1569941D02*
X2089528Y1580000D01*
Y1610000D01*
X2030472D02*
Y1627000D01*
X1991000Y1666472D01*
Y1683850D01*
X2018000D01*
X2050850Y1651000D01*
X2125000D01*
Y1564000D01*
X2120000Y1559000D01*
Y1525000D01*
X2227678Y1430000D02*
X2313662D01*
Y1480000D01*
X2364000D01*
X2372000Y1472000D01*
X2419472Y1360000D02*
Y1353000D01*
X2599472Y1456150D02*
Y1487000D01*
X2594472Y1492000D01*
Y1523472D01*
X2551528D01*
X2545000Y1530000D01*
X2502638D01*
X2620000Y1630000D02*
X2643000Y1653000D01*
X2620000Y1630000D02*
X2502638D01*
X2424000Y1664528D02*
Y1490000D01*
X2208528Y1651000D02*
X2183000D01*
X2169000Y1665000D01*
X2079469Y1569941D02*
X2003641D01*
X1975000Y1598582D01*
Y1632000D01*
X1950000Y1579000D02*
Y1521850D01*
X1930000Y1501850D01*
X1888150D01*
Y1608150D02*
X1833622Y1662678D01*
Y1680000D01*
X1762678D01*
X1892678D02*
Y1709678D01*
X1913534Y1730534D01*
X2062000Y1962000D02*
X2079000Y1979000D01*
X2671440D01*
X2696018Y1954422D01*
X2690000Y1997000D02*
X2707560Y1979440D01*
X2750440D01*
X2771000Y2000000D01*
Y2340000D01*
X2745000Y2366000D01*
X2680000D01*
X2657000Y2343000D01*
Y2300000D01*
X2637000Y2280000D01*
X2501528D01*
Y2296000D01*
X2490000D01*
Y2174000D01*
X2500000Y2164000D01*
X2534362D01*
Y2141000D01*
X2593418D02*
Y2175000D01*
X2598362Y2179944D01*
Y2215850D01*
X2562150D01*
X2559000Y2219000D01*
X2524662D01*
X2673000Y2165000D02*
X2724000Y2216000D01*
Y2244150D01*
X2720000Y2285000D02*
Y2321070D01*
Y2285000D02*
X2690000D01*
X2645000Y2240000D01*
Y2120000D01*
X2620000Y2095000D01*
X2040000D01*
X1996512Y2138488D01*
Y2190850D01*
X1996000D01*
Y2220000D01*
X2007000Y2231000D01*
X2273000D01*
X2295500Y2208500D01*
X2418362D01*
Y2219000D01*
Y2524362D01*
X2440000Y2546000D01*
X2501528D01*
Y2596000D02*
X2530000D01*
X2568000Y2558000D01*
X2597850D01*
X2501528Y2496000D02*
X2620000D01*
X2627000D01*
X2651000Y2520000D01*
Y2600000D01*
X2718000Y2667000D01*
X2816000D01*
X2924066Y2558934D01*
X2753000Y2720000D02*
Y2800000D01*
X2740000Y2813000D01*
X2267000D01*
X2261000Y2807000D01*
X2143000D01*
X2100000Y2850000D01*
X2173000Y2733000D02*
X2098028Y2807972D01*
X2082592D01*
X2057972Y2832592D01*
Y2867408D01*
X2108564Y2918000D01*
X2495472D01*
X2438066Y2771066D02*
X2711934D01*
X2753000Y2720000D02*
X2726000Y2693000D01*
X2504000D01*
X2633000Y2509000D02*
Y2605000D01*
X2602000Y2636000D01*
X2460000D01*
X2435000Y2611000D01*
Y2591000D01*
X2365000Y2521000D01*
X2263000D01*
X2259000Y2517000D01*
X2190000D01*
Y2611000D01*
X2260000D01*
Y2596000D01*
X2312552D01*
Y2546000D02*
X2360000D01*
X2407000Y2593000D01*
Y2740000D01*
X2438066Y2771066D01*
X2312552Y2546000D02*
X2277000D01*
X2259000Y2564000D01*
X2224662D01*
X2219528Y2475000D02*
X2248528Y2446000D01*
X2312552D01*
X2369000D01*
Y2283468D01*
X2349000Y2263468D01*
Y2252000D01*
X2361500Y2226500D02*
X2383706Y2248706D01*
Y2266000D01*
X2392000Y2274294D01*
Y2464000D01*
X2360000Y2496000D01*
X2312552D01*
Y2396000D02*
X2271000D01*
X2214000D01*
X2188000Y2370000D01*
X2118890Y2391000D02*
Y2415000D01*
X2084528Y2449362D01*
Y2475000D01*
Y2516000D01*
X2052678Y2547850D01*
X2008890D01*
X2020000Y2583000D02*
X2056000Y2619000D01*
Y2694000D01*
X1486000D01*
X1458528Y2666528D01*
X1488150Y2654150D02*
X2008890D01*
X2020000Y2583000D02*
X1891566D01*
Y2546000D01*
X1832512D02*
Y2528678D01*
X1887040Y2474150D01*
Y2367850D02*
X1872850D01*
X1850000Y2345000D01*
X1610000D01*
X1560000D01*
X1550500Y2354500D01*
Y2485500D01*
X1560000Y2495000D01*
X1610000D01*
Y2545000D01*
X1655000D01*
X1656000Y2546000D01*
X1702512D01*
X1761566D02*
X1832512D01*
X1969388Y2475000D02*
X2025472D01*
X2040890Y2432000D02*
X2052890Y2420000D01*
Y2389000D01*
X2088362Y2297150D02*
X2127000D01*
X2128150Y2296000D01*
X2167512D01*
Y2267488D01*
X2180000Y2255000D01*
X2294500D01*
X2323000Y2226500D01*
X2361500D01*
X2312552Y2296000D02*
Y2346000D01*
Y2296000D02*
X2226568D01*
Y2323000D01*
X2205568Y2344000D01*
X1970388D01*
X1954388Y2360000D01*
Y2460000D01*
X1969388Y2475000D01*
X1980000Y2445000D02*
X1993000Y2432000D01*
X2040890D01*
X1942000Y2214472D02*
X1965622Y2190850D01*
X1996000D01*
X1942000Y2214472D02*
X1911512D01*
X1702512Y2413000D02*
X1665000D01*
X1646000Y2445000D02*
X1667000Y2466000D01*
X1703890D01*
X1702512Y2413000D02*
Y2391000D01*
X1658000D01*
X1654000Y2395000D01*
X1610000D01*
Y2295000D02*
X1654000D01*
X1655000Y2296000D01*
X1699362D01*
X1610000Y2295000D02*
X1516000D01*
X1481000Y2260000D01*
Y2016000D01*
X1450000Y1985000D01*
X1491000Y1944000D02*
X1700740Y2153740D01*
Y2206000D01*
X1674000D01*
X1635000Y2245000D01*
X1610000D01*
X1555000D01*
X1534000Y2266000D01*
X1532500Y2338500D02*
Y2380000D01*
X1467500Y2445000D01*
X1421024D01*
X1380000D01*
X1371000Y2436000D01*
X1330190D01*
X1374850Y2495000D02*
X1421024D01*
Y2395000D02*
X1380000D01*
X1370000Y2385000D01*
X1326566D01*
Y2351000D01*
X1350000D01*
X1369000Y2370000D01*
X1495332D01*
X1505332Y2360000D01*
X1532500Y2338500D02*
X1464000Y2270000D01*
X1377000D01*
X1363000Y2256000D01*
X1328968D01*
X1392000Y2245000D02*
X1421024D01*
Y2295000D02*
X1216566D01*
X1191566Y2320000D01*
Y2351000D01*
Y2392000D01*
X1134362Y2449204D01*
Y2521000D01*
X1093930D01*
X1092000Y2522930D01*
X1052040D01*
Y2389070D02*
X1090110Y2351000D01*
X1132512D01*
Y2280000D01*
X1156512Y2256000D01*
X1195110D01*
X1249000D01*
X1279000Y2226000D01*
X1392000D01*
Y2245000D01*
X1421024Y2345000D02*
X1478000D01*
Y2322000D01*
X1374850Y2495000D02*
X1362000Y2507850D01*
X1317040D01*
X1285150D01*
X1272000Y2521000D01*
X1240662D01*
X1370000Y2545000D02*
X1421000D01*
Y2587000D01*
X1488150Y2654150D01*
X1421024Y2545000D02*
X1421000D01*
X1359000Y2614150D02*
Y2556000D01*
X1370000Y2545000D01*
X1359000Y2614150D02*
X1317040D01*
X1610000Y2445000D02*
X1646000D01*
X1491000Y1944000D02*
X1191000D01*
X1150000Y1985000D01*
X1318150Y1748150D02*
X1360000D01*
Y1689000D01*
X1370000Y1679000D01*
X1422134D01*
X1508000D01*
X1619150Y1790150D01*
X1611110Y1679000D02*
X1648000D01*
X1611110D02*
Y1629000D01*
X1554000D01*
Y1490000D01*
X1565000Y1479000D01*
X1611110D01*
Y1429000D02*
X1655000D01*
X1656000Y1430000D01*
X1700472D01*
Y1418000D01*
X1737000Y1381472D01*
Y1279450D01*
X1735000Y1277450D01*
Y1202000D01*
X1792000Y1145000D01*
X1935000D01*
X1829000Y1206000D02*
X1774000Y1261000D01*
X1759000D01*
X1726000Y1100000D02*
X1510000D01*
X1450000Y1160000D01*
X1582963Y1145000D02*
X1611000D01*
Y1379000D01*
X1611110D01*
X1636000D01*
X1697500Y1317500D01*
X1518000Y1317000D02*
Y1541000D01*
X1480000Y1579000D01*
X1422134D01*
X1381000D01*
X1372000Y1570000D01*
X1331300D01*
X1327678Y1500678D02*
X1352678D01*
X1381000Y1529000D01*
X1422134D01*
X1492000D01*
X1480000Y1479000D02*
X1496442Y1462558D01*
Y1347439D01*
X1456000Y1306997D01*
Y1264389D01*
X1582963Y1145000D01*
X1611000D02*
X1635000D01*
X1829000Y1186000D02*
Y1206000D01*
X1518000Y1317000D02*
X1490000Y1289000D01*
Y1285000D01*
X1478442Y1354188D02*
Y1440000D01*
X1464630Y1453812D01*
X1375372D01*
X1366000Y1444440D01*
X1293000D01*
X1268686Y1468754D01*
Y1494000D01*
X1263915Y1426440D02*
X1380332D01*
Y1429000D01*
X1422134D01*
Y1479000D02*
X1480000D01*
X1422134Y1379000D02*
X1418718D01*
X1381984Y1342266D01*
X1180206D01*
X1122472Y1400000D01*
Y1420000D01*
X1152472Y1390000D01*
X1196220D01*
X1261355Y1429000D02*
X1263915Y1426440D01*
X1261355Y1429000D02*
X1192528D01*
X1181528Y1440000D01*
Y1486000D01*
Y1547000D01*
X1135472Y1593056D01*
Y1655000D01*
X1094930D01*
X1093000Y1656930D01*
X1053150D01*
X1053000Y1590000D02*
X1067000D01*
X1053000D02*
X1023000Y1560000D01*
Y1312000D01*
X1264000Y1071000D01*
X1331078Y1389000D02*
X1332078Y1390000D01*
X1347000D01*
X1330078D02*
X1331078Y1389000D01*
X1327678Y1485000D02*
Y1500678D01*
X1422134Y1629000D02*
X1375850D01*
X1363000Y1641850D01*
X1318150D01*
X1286150D01*
X1273000Y1655000D01*
X1241772D01*
X1122472Y1486000D02*
X1090220D01*
X1053150Y1523070D01*
X1122472Y1486000D02*
Y1420000D01*
X1685418Y1680000D02*
X1685968D01*
X2225190Y2391000D02*
X2266000D01*
X2271000Y2396000D01*
X2430000Y2020000D02*
X2453000Y1997000D01*
X2690000D01*
X2730000Y2020000D02*
X2673000Y2077000D01*
Y2165000D01*
X2730000Y2020000D02*
X2530000D01*
X2520000Y2030000D01*
X2501528Y2346000D02*
X2500000D01*
X2501528Y2396000D02*
X2544000D01*
X2550528Y2389472D01*
X2593362D01*
Y2358000D01*
X2598362Y2353000D01*
Y2322150D01*
X2620000Y2496000D02*
X2633000Y2509000D01*
X2720000Y2498000D02*
X2704150Y2513850D01*
Y2558000D01*
X2720000Y2498000D02*
Y2454930D01*
X2498000Y1198000D02*
X2450000Y1150000D01*
D25*
X1635000Y1145000D02*
D03*
X1935000D02*
D03*
X2145000Y1255000D02*
D03*
X2445000D02*
D03*
X2730000Y1885000D02*
D03*
Y2020000D02*
D03*
X2430000D02*
D03*
Y1885000D02*
D03*
X2924066Y2558934D02*
D03*
X2711934Y2771066D02*
D03*
X1450000Y1985000D02*
D03*
X1150000D02*
D03*
D26*
X1450000Y1150000D02*
D03*
X2250000D02*
D03*
X2350000D02*
D03*
X2450000D02*
D03*
X2550000D02*
D03*
X2650000D02*
D03*
X2850000Y1600000D02*
D03*
Y1700000D02*
D03*
Y2100000D02*
D03*
Y2400000D02*
D03*
X2100000Y2850000D02*
D03*
X2000000D02*
D03*
X1900000D02*
D03*
X1800000D02*
D03*
D27*
X2850000Y1500000D02*
D03*
Y2000000D02*
D03*
Y2300000D02*
D03*
D28*
X1350000Y1150000D02*
D03*
X2150000D02*
D03*
X2200000Y2850000D02*
D03*
D29*
X1100000Y1100000D02*
D03*
X2900000D02*
D03*
Y2900000D02*
D03*
X1100000D02*
D03*
D30*
X1347000Y1390000D02*
D03*
X1490000Y1285000D02*
D03*
X1268686Y1494000D02*
D03*
X1229316D02*
D03*
X1492000Y1529000D02*
D03*
X1648000Y1710000D02*
D03*
X1747000Y1830000D02*
D03*
X1975000Y1632000D02*
D03*
X1950000Y1579000D02*
D03*
X1815000Y1545000D02*
D03*
X1770000Y1375000D02*
D03*
X1726000Y1100000D02*
D03*
X1829000Y1186000D02*
D03*
X2372000Y1472000D02*
D03*
X2424000Y1490000D02*
D03*
X2439000Y1412000D02*
D03*
X2499000Y1580000D02*
D03*
X2308000Y1779000D02*
D03*
X2580000Y1951000D02*
D03*
X2520000Y2030000D02*
D03*
X2724000Y2134000D02*
D03*
X2500000Y2346000D02*
D03*
X2349000Y2252000D02*
D03*
X2188000Y2370000D02*
D03*
X2056000Y2137000D02*
D03*
X2062000Y1962000D02*
D03*
X2169000Y1665000D02*
D03*
X2740000Y1490000D02*
D03*
X2776000Y1641000D02*
D03*
X2750000Y1765000D02*
D03*
X1980000Y2445000D02*
D03*
X1986000Y2376000D02*
D03*
X2204000Y2680000D02*
D03*
X2173000Y2733000D02*
D03*
X2495472Y2918000D02*
D03*
X2504000Y2693000D02*
D03*
X1665000Y2413000D02*
D03*
X1505332Y2360000D02*
D03*
X1534000Y2266000D02*
D03*
X1552000Y2125000D02*
D03*
X1565000Y1923000D02*
D03*
X1478000Y2322000D02*
D03*
X1458528Y2666528D02*
D03*
X1067000Y1590000D02*
D03*
D31*
X1330078Y1390000D02*
D03*
X1196220D02*
D03*
X1328968Y2256000D02*
D03*
X1195110D02*
D03*
D32*
X1901000Y1350472D02*
D03*
Y1409528D02*
D03*
X2594472Y1523472D02*
D03*
Y1582528D02*
D03*
X1911512Y2214472D02*
D03*
Y2273528D02*
D03*
X2593362Y2389472D02*
D03*
Y2448528D02*
D03*
%TF.MD5,2db8852ccba7597013fc1d2d40e8ee9c*%
M02*
