G04 Layer_Physical_Order=2*
G04 Layer_Color=16711680*
%FSLAX26Y26*%
%MOIN*%
%TF.FileFunction,Copper,L2,Bot,Signal*%
%TF.Part,Single*%
G01*
G75*
%TA.AperFunction,SMDPad,CuDef*%
%ADD10O,0.086614X0.023622*%
%ADD11R,0.043307X0.066929*%
%ADD14R,0.062992X0.033465*%
%ADD16R,0.031496X0.035433*%
%ADD17R,0.035433X0.031496*%
%ADD18R,0.066929X0.043307*%
%TA.AperFunction,Conductor*%
%ADD19C,0.010000*%
%ADD20C,0.020000*%
%TA.AperFunction,ViaPad*%
%ADD21C,0.160000*%
%TA.AperFunction,ComponentPad*%
%ADD22R,0.059055X0.059055*%
%ADD23C,0.059055*%
%ADD24R,0.059055X0.059055*%
%ADD25C,0.055118*%
%TA.AperFunction,ViaPad*%
%ADD26C,0.025000*%
%TA.AperFunction,SMDPad,CuDef*%
%ADD27O,0.066929X0.017716*%
%ADD28O,0.023622X0.086614*%
G36*
X2145804Y2504777D02*
Y2493503D01*
X2129095D01*
Y2440197D01*
X2199325D01*
X2200777Y2435197D01*
X2187777Y2422196D01*
X2057034D01*
X2054677Y2426606D01*
X2055246Y2427457D01*
X2056550Y2434016D01*
Y2497008D01*
X2055246Y2503567D01*
X2051530Y2509128D01*
X2051479Y2509649D01*
X2059633Y2517804D01*
X2132777D01*
X2145804Y2504777D01*
D02*
G37*
G36*
X2284706Y2617665D02*
Y2490000D01*
X2285870Y2484147D01*
X2289186Y2479186D01*
X2294147Y2475870D01*
X2296419Y2475419D01*
X2296870Y2473147D01*
X2300186Y2468186D01*
X2309186Y2459186D01*
X2314147Y2455870D01*
X2320000Y2454706D01*
X2433000D01*
X2438853Y2455870D01*
X2443814Y2459186D01*
X2447726Y2463097D01*
X2449828Y2463515D01*
X2455617Y2467383D01*
X2459485Y2473172D01*
X2460843Y2480000D01*
X2459485Y2486828D01*
X2455617Y2492617D01*
X2453702Y2493896D01*
X2453925Y2499761D01*
X2457120Y2501896D01*
X2460836Y2507457D01*
X2462140Y2514016D01*
Y2577008D01*
X2460836Y2583567D01*
X2457120Y2589128D01*
X2451559Y2592844D01*
X2449044Y2593344D01*
X2447398Y2598769D01*
X2494335Y2645706D01*
X2593000D01*
X2598853Y2646870D01*
X2603814Y2650186D01*
X2605895Y2652266D01*
X2637284D01*
Y2646812D01*
X2677706D01*
Y2596294D01*
X2637335D01*
X2602814Y2630814D01*
X2597853Y2634130D01*
X2592000Y2635294D01*
X2518000D01*
X2512147Y2634130D01*
X2507186Y2630814D01*
X2484186Y2607814D01*
X2480870Y2602853D01*
X2479706Y2597000D01*
Y2584378D01*
X2479164Y2583567D01*
X2477860Y2577008D01*
Y2514016D01*
X2479164Y2507457D01*
X2479974Y2506246D01*
X2480870Y2501737D01*
X2484186Y2496776D01*
X2485296Y2495665D01*
Y2488229D01*
X2479842D01*
Y2455560D01*
X2476800Y2448294D01*
X2266610D01*
X2264828Y2449485D01*
X2258000Y2450843D01*
X2251172Y2449485D01*
X2245383Y2445617D01*
X2241515Y2439828D01*
X2240157Y2433000D01*
X2241515Y2426172D01*
X2245383Y2420383D01*
X2251172Y2416515D01*
X2258000Y2415157D01*
X2264828Y2416515D01*
X2266610Y2417706D01*
X2485296D01*
Y2371925D01*
X2475665Y2362294D01*
X2428994D01*
X2428485Y2364852D01*
X2424617Y2370641D01*
X2418828Y2374509D01*
X2412000Y2375867D01*
X2405172Y2374509D01*
X2399383Y2370641D01*
X2395515Y2364852D01*
X2395006Y2362294D01*
X1970335D01*
X1960748Y2371881D01*
Y2402716D01*
X1955294D01*
Y2421410D01*
X1955274Y2421512D01*
X1955293Y2421615D01*
X1955215Y2427411D01*
X1955246Y2427457D01*
X1956550Y2434016D01*
Y2453498D01*
X1961170Y2455411D01*
X1972270Y2444311D01*
Y2434016D01*
X1973574Y2427457D01*
X1977290Y2421896D01*
X1982851Y2418180D01*
X1989410Y2416876D01*
X1995969Y2418180D01*
X1997427Y2419154D01*
X2011790Y2404790D01*
X2015098Y2402580D01*
X2019000Y2401804D01*
X2192000D01*
X2195902Y2402580D01*
X2199210Y2404790D01*
X2219210Y2424790D01*
X2221420Y2428098D01*
X2222196Y2432000D01*
Y2573150D01*
X2221420Y2577052D01*
X2219210Y2580360D01*
X2215902Y2582570D01*
X2212000Y2583346D01*
X2206024D01*
Y2599803D01*
X2177756D01*
Y2620197D01*
X2206024D01*
Y2668706D01*
X2233665D01*
X2284706Y2617665D01*
D02*
G37*
G36*
X1780000Y1460000D02*
X1797261D01*
X1798586Y1458386D01*
X1799662Y1452979D01*
X1802725Y1448395D01*
X1807309Y1445332D01*
X1812716Y1444256D01*
X1861928D01*
X1867335Y1445332D01*
X1871919Y1448395D01*
X1874982Y1452979D01*
X1875000Y1453067D01*
X1880000Y1452575D01*
Y1387425D01*
X1875000Y1386933D01*
X1874982Y1387021D01*
X1871919Y1391605D01*
X1867335Y1394668D01*
X1861928Y1395744D01*
X1812716D01*
X1807309Y1394668D01*
X1802725Y1391605D01*
X1799662Y1387021D01*
X1798586Y1381614D01*
X1797261Y1380000D01*
X1760000D01*
Y1080000D01*
X1600000D01*
X1600000Y1300000D01*
X1680000D01*
Y1480000D01*
Y1520000D01*
X1583980D01*
X1583014Y1524855D01*
X1579951Y1529439D01*
X1575368Y1532502D01*
X1569960Y1533578D01*
X1520748D01*
X1520000Y1534191D01*
Y1580000D01*
X1680000Y1580000D01*
X1680000Y1640000D01*
X1685000Y1640000D01*
X1780000D01*
X1780000Y1460000D01*
D02*
G37*
G36*
X2873804Y2032777D02*
Y1966000D01*
X2874580Y1962098D01*
X2876790Y1958790D01*
X2890857Y1944724D01*
X2888279Y1938500D01*
X2887160Y1930000D01*
X2887868Y1924622D01*
X2883132Y1922287D01*
X2810210Y1995210D01*
X2806902Y1997420D01*
X2803000Y1998196D01*
X2762638D01*
Y2060197D01*
X2790907D01*
Y2108804D01*
X2797777D01*
X2873804Y2032777D01*
D02*
G37*
G36*
X2339252Y2020440D02*
Y1982196D01*
X2218070D01*
Y1990415D01*
X2218902Y1990580D01*
X2222210Y1992790D01*
X2224420Y1996098D01*
X2225196Y2000000D01*
Y2011777D01*
X2235223Y2021804D01*
X2337590D01*
X2339252Y2020440D01*
D02*
G37*
G36*
X2031636Y1414950D02*
X2035030Y1411555D01*
X2035896Y1407204D01*
X2035030Y1402853D01*
X2035097Y1402519D01*
X2034588Y1401290D01*
Y1398957D01*
X2029588Y1395285D01*
X2027284Y1395744D01*
X1978072D01*
X1972665Y1394668D01*
X1968081Y1391605D01*
X1965018Y1387021D01*
X1963942Y1381614D01*
X1965018Y1376207D01*
X1968081Y1371623D01*
X1972665Y1368560D01*
X1974174Y1368260D01*
X1974588Y1367484D01*
Y1320000D01*
X1976173Y1316173D01*
X1980000Y1314588D01*
X2034588D01*
Y1245412D01*
X1939803Y1245412D01*
Y1298465D01*
X1925412D01*
Y1414588D01*
X1972278D01*
X1973337Y1415026D01*
X1973720Y1414950D01*
X1978605Y1415922D01*
X2026751D01*
X2031636Y1414950D01*
D02*
G37*
G36*
X2180000Y1200000D02*
X1880000D01*
Y1381987D01*
X1880531Y1382039D01*
X1882140Y1382900D01*
X1883827Y1383598D01*
X1883935Y1383859D01*
X1884184Y1383992D01*
X1884713Y1385739D01*
X1885412Y1387425D01*
Y1420000D01*
X1920000Y1420000D01*
Y1240000D01*
X2040000Y1240000D01*
Y1320000D01*
X1980000D01*
Y1367484D01*
X2027284D01*
X2032691Y1368560D01*
X2036969Y1371418D01*
X2048777D01*
X2060554Y1359640D01*
X2063862Y1357430D01*
X2067764Y1356654D01*
X2081535D01*
Y1340197D01*
X2158465D01*
Y1393504D01*
X2081535D01*
Y1377046D01*
X2071987D01*
X2060210Y1388824D01*
X2056902Y1391034D01*
X2053000Y1391810D01*
X2040000D01*
Y1401290D01*
X2040338Y1401797D01*
X2041414Y1407204D01*
X2040338Y1412611D01*
X2040000Y1413118D01*
Y1420000D01*
X2033078D01*
X2032691Y1420258D01*
X2027284Y1421334D01*
X1978072D01*
X1972665Y1420258D01*
X1972278Y1420000D01*
X1885412D01*
Y1440000D01*
X2040000D01*
Y1452472D01*
X2040338Y1452979D01*
X2041414Y1458386D01*
X2040338Y1463793D01*
X2040000Y1464300D01*
Y1520000D01*
X2180000D01*
Y1200000D01*
D02*
G37*
G36*
X2703790Y1884790D02*
X2707098Y1882580D01*
X2711000Y1881804D01*
X2863217D01*
X2874790Y1870230D01*
X2878098Y1868020D01*
X2882000Y1867244D01*
X2961754D01*
X2962256Y1866690D01*
X2964156Y1862575D01*
X2957777Y1856196D01*
X2819000D01*
X2815098Y1855420D01*
X2811790Y1853210D01*
X2772777Y1814196D01*
X2692196D01*
Y1889314D01*
X2693820Y1890546D01*
X2696974Y1891607D01*
X2703790Y1884790D01*
D02*
G37*
G36*
X2969656Y1833075D02*
X2896777Y1760196D01*
X2848000D01*
X2844098Y1759420D01*
X2840790Y1757210D01*
X2759777Y1676196D01*
X2660223D01*
X2619884Y1716535D01*
X2621955Y1721535D01*
X2665945D01*
Y1749804D01*
X2666000D01*
X2669902Y1750580D01*
X2673210Y1752790D01*
X2689210Y1768790D01*
X2691420Y1772098D01*
X2692196Y1776000D01*
Y1793804D01*
X2777000D01*
X2780902Y1794580D01*
X2784210Y1796790D01*
X2820472Y1833053D01*
X2825472Y1830982D01*
Y1765473D01*
X2894528D01*
Y1830804D01*
X2894528Y1834527D01*
X2898999Y1835804D01*
X2962000D01*
X2965902Y1836580D01*
X2966469Y1836959D01*
X2969656Y1833075D01*
D02*
G37*
G36*
X1820000Y1658465D02*
X1806496D01*
Y1640000D01*
X1785412D01*
X1783827Y1643827D01*
X1780000Y1645412D01*
X1753504D01*
Y1658465D01*
X1700197D01*
Y1645412D01*
X1685000D01*
X1680000Y1645412D01*
X1676173Y1643827D01*
X1676173Y1643826D01*
X1676173Y1643826D01*
X1674588Y1640000D01*
X1674588Y1585412D01*
X1520000Y1585412D01*
X1516280Y1583871D01*
X1515341Y1583684D01*
X1510756Y1580621D01*
X1507694Y1576037D01*
X1506618Y1570630D01*
X1507694Y1565223D01*
X1510756Y1560639D01*
Y1555031D01*
X1507694Y1550447D01*
X1506618Y1545040D01*
X1507694Y1539633D01*
X1510756Y1535049D01*
X1515341Y1531986D01*
X1515516Y1531951D01*
X1516173Y1530364D01*
X1516434Y1530256D01*
X1516567Y1530008D01*
X1517314Y1529394D01*
X1519062Y1528864D01*
X1520000Y1528475D01*
Y1520000D01*
X1578462D01*
X1578672Y1518944D01*
X1579549Y1517631D01*
X1580153Y1516173D01*
X1580665Y1515961D01*
X1580973Y1515500D01*
X1582522Y1515192D01*
X1583980Y1514588D01*
X1601535D01*
Y1486496D01*
X1674588D01*
Y1480000D01*
Y1305412D01*
X1600000D01*
X1596173Y1303827D01*
X1594588Y1300000D01*
X1460000Y1300000D01*
X1460000Y1479048D01*
X1464619Y1480961D01*
X1482790Y1462790D01*
X1486098Y1460580D01*
X1490000Y1459804D01*
X1515777D01*
X1542790Y1432790D01*
X1546098Y1430580D01*
X1550000Y1429804D01*
X1561535D01*
Y1419647D01*
X1638465D01*
Y1472954D01*
X1561535D01*
Y1450196D01*
X1554223D01*
X1527210Y1477210D01*
X1523902Y1479420D01*
X1520000Y1480196D01*
X1494223D01*
X1467624Y1506796D01*
X1464316Y1509006D01*
X1463749Y1509119D01*
X1460000Y1512867D01*
Y1642271D01*
X1465000Y1642764D01*
X1465515Y1640172D01*
X1469383Y1634383D01*
X1475172Y1630515D01*
X1482000Y1629157D01*
X1488828Y1630515D01*
X1494617Y1634383D01*
X1498485Y1640172D01*
X1499843Y1647000D01*
X1498485Y1653828D01*
X1497294Y1655610D01*
Y1720000D01*
X1520000Y1720000D01*
X1820000Y1720000D01*
Y1658465D01*
D02*
G37*
G36*
X1393790Y2702790D02*
X1397098Y2700580D01*
X1401000Y2699804D01*
X1507000D01*
X1510902Y2700580D01*
X1514210Y2702790D01*
X1539197Y2727777D01*
X1540398Y2728787D01*
X1546153Y2728685D01*
X1548441Y2727156D01*
X1554467Y2725958D01*
X1555624Y2724065D01*
X1556666Y2721085D01*
X1525777Y2690196D01*
X1312000D01*
X1307196Y2694338D01*
Y2715777D01*
X1333223Y2741804D01*
X1354777D01*
X1393790Y2702790D01*
D02*
G37*
G36*
X1422706Y1645448D02*
X1423870Y1639595D01*
X1427186Y1634634D01*
X1453186Y1608633D01*
X1454588Y1607697D01*
Y1560000D01*
X1340000D01*
Y1586024D01*
X1345709D01*
X1349986Y1583166D01*
X1355394Y1582090D01*
X1404606D01*
X1410014Y1583166D01*
X1414598Y1586229D01*
X1417660Y1590813D01*
X1418736Y1596220D01*
X1417660Y1601627D01*
X1414598Y1606211D01*
X1410014Y1609274D01*
X1404606Y1610350D01*
X1400000D01*
Y1660000D01*
X1360000D01*
Y1720000D01*
X1422706D01*
Y1645448D01*
D02*
G37*
G36*
X3000000Y2647952D02*
X2995381Y2646039D01*
X2966210Y2675210D01*
X2962902Y2677420D01*
X2959000Y2678196D01*
X2894000D01*
X2890098Y2677420D01*
X2886790Y2675210D01*
X2874790Y2663210D01*
X2872580Y2659902D01*
X2871804Y2656000D01*
Y2368000D01*
X2872580Y2364098D01*
X2874790Y2360790D01*
X2890857Y2344724D01*
X2888279Y2338500D01*
X2887160Y2330000D01*
X2888279Y2321500D01*
X2891560Y2313580D01*
X2896779Y2306779D01*
X2903580Y2301560D01*
X2911500Y2298279D01*
X2920000Y2297160D01*
X2928500Y2298279D01*
X2936420Y2301560D01*
X2943221Y2306779D01*
X2948440Y2313580D01*
X2951721Y2321500D01*
X2952840Y2330000D01*
X2951721Y2338500D01*
X2948440Y2346420D01*
X2943221Y2353221D01*
X2936420Y2358440D01*
X2928500Y2361721D01*
X2920000Y2362840D01*
X2911500Y2361721D01*
X2905276Y2359143D01*
X2892196Y2372223D01*
Y2605223D01*
X2893971Y2605826D01*
X2897196Y2606458D01*
X2903580Y2601560D01*
X2911500Y2598279D01*
X2920000Y2597160D01*
X2928500Y2598279D01*
X2934724Y2600857D01*
X2977804Y2557777D01*
Y2193148D01*
X2973185Y2191235D01*
X2949143Y2215276D01*
X2951721Y2221500D01*
X2952840Y2230000D01*
X2951721Y2238500D01*
X2948440Y2246420D01*
X2943221Y2253221D01*
X2936420Y2258440D01*
X2928500Y2261721D01*
X2920000Y2262840D01*
X2911500Y2261721D01*
X2903580Y2258440D01*
X2896779Y2253221D01*
X2891560Y2246420D01*
X2891468Y2246198D01*
X2888902Y2245420D01*
X2885000Y2246196D01*
X2665945D01*
Y2318465D01*
X2612639D01*
Y2241535D01*
X2629727D01*
X2629872Y2240806D01*
X2632082Y2237498D01*
X2640790Y2228790D01*
X2644098Y2226580D01*
X2648000Y2225804D01*
X2880777D01*
X2883790Y2222790D01*
X2887098Y2220580D01*
X2888800Y2220242D01*
X2891560Y2213580D01*
X2896779Y2206779D01*
X2903580Y2201560D01*
X2911500Y2198279D01*
X2920000Y2197160D01*
X2928500Y2198279D01*
X2934724Y2200857D01*
X2962364Y2173217D01*
Y2041588D01*
X2957745Y2039675D01*
X2862716Y2134703D01*
Y2173190D01*
X2817284D01*
Y2131694D01*
X2836887D01*
X2947364Y2021217D01*
Y1955285D01*
X2942364Y1953879D01*
X2936420Y1958440D01*
X2928500Y1961721D01*
X2920000Y1962840D01*
X2911500Y1961721D01*
X2905276Y1959143D01*
X2894196Y1970223D01*
Y2037000D01*
X2893420Y2040902D01*
X2891210Y2044210D01*
X2809210Y2126210D01*
X2805902Y2128420D01*
X2802000Y2129196D01*
X2704000D01*
X2700098Y2128420D01*
X2696790Y2126210D01*
X2679849Y2109268D01*
X2675684Y2109027D01*
X2673676Y2109555D01*
X2671962Y2112120D01*
X2666401Y2115836D01*
X2659842Y2117140D01*
X2638542D01*
Y2132860D01*
X2659842D01*
X2666401Y2134164D01*
X2671962Y2137880D01*
X2675678Y2143441D01*
X2676982Y2150000D01*
X2675678Y2156559D01*
X2671962Y2162120D01*
X2666401Y2165836D01*
X2659842Y2167140D01*
X2596850D01*
X2590291Y2165836D01*
X2584730Y2162120D01*
X2583444Y2160196D01*
X2565105D01*
X2547347Y2177954D01*
X2549418Y2182954D01*
X2713977D01*
Y2166497D01*
X2790907D01*
Y2219803D01*
X2713977D01*
Y2203346D01*
X2612078D01*
X2610561Y2208346D01*
X2610617Y2208383D01*
X2614485Y2214172D01*
X2615843Y2221000D01*
X2614485Y2227828D01*
X2610617Y2233617D01*
X2604828Y2237485D01*
X2598000Y2238843D01*
X2595144Y2238275D01*
X2586210Y2247210D01*
X2582902Y2249420D01*
X2580748Y2249848D01*
Y2262716D01*
X2544196D01*
Y2267718D01*
X2548338Y2272522D01*
X2553718D01*
X2557620Y2273298D01*
X2560928Y2275508D01*
X2662210Y2376790D01*
X2664420Y2380098D01*
X2665196Y2384000D01*
Y2529766D01*
X2667617Y2531383D01*
X2671485Y2537172D01*
X2672843Y2544000D01*
X2671485Y2550828D01*
X2667617Y2556617D01*
X2661828Y2560485D01*
X2660715Y2560706D01*
X2661207Y2565706D01*
X2693000D01*
X2698853Y2566870D01*
X2703814Y2570186D01*
X2707130Y2575147D01*
X2708294Y2581000D01*
Y2896000D01*
X2707130Y2901853D01*
X2703814Y2906814D01*
X2666814Y2943814D01*
X2661853Y2947130D01*
X2656000Y2948294D01*
X1547000D01*
X1541147Y2947130D01*
X1536186Y2943814D01*
X1496746Y2904374D01*
X1493430Y2899413D01*
X1492266Y2893560D01*
Y2882716D01*
X1486812D01*
Y2837284D01*
X1492266D01*
Y2822942D01*
X1490870Y2820853D01*
X1489706Y2815000D01*
Y2813354D01*
X1489164Y2812543D01*
X1487860Y2805984D01*
Y2742992D01*
X1489164Y2736433D01*
X1492880Y2730872D01*
X1497862Y2727543D01*
X1498615Y2726477D01*
X1499817Y2721785D01*
X1498639Y2720196D01*
X1405223D01*
X1366210Y2759210D01*
X1362902Y2761420D01*
X1359000Y2762196D01*
X1329000D01*
X1325098Y2761420D01*
X1321790Y2759210D01*
X1289790Y2727210D01*
X1287580Y2723902D01*
X1286804Y2720000D01*
Y2560000D01*
X1287580Y2556098D01*
X1289790Y2552790D01*
X1332586Y2509994D01*
X1335894Y2507784D01*
X1339796Y2507008D01*
X1400197D01*
Y2441535D01*
X1453504D01*
Y2507495D01*
X1454956Y2507784D01*
X1458264Y2509994D01*
X1462210Y2513940D01*
X1464420Y2517248D01*
X1465196Y2521150D01*
Y2540610D01*
X1467120Y2541896D01*
X1470836Y2547457D01*
X1472140Y2554016D01*
Y2617008D01*
X1470836Y2623567D01*
X1470403Y2624214D01*
X1472760Y2628624D01*
X1486530D01*
X1489202Y2623624D01*
X1489164Y2623567D01*
X1487860Y2617008D01*
Y2554016D01*
X1489164Y2547457D01*
X1492880Y2541896D01*
X1498441Y2538180D01*
X1498578Y2538153D01*
X1513647Y2523084D01*
X1511733Y2518465D01*
X1506496D01*
Y2441535D01*
X1559803D01*
Y2512421D01*
X1564150Y2516654D01*
X1601535D01*
Y2500197D01*
X1673706D01*
Y2401335D01*
X1591665Y2319294D01*
X1470000D01*
X1464147Y2318130D01*
X1459186Y2314814D01*
X1427186Y2282814D01*
X1423870Y2277853D01*
X1422706Y2272000D01*
Y1725412D01*
X1360000D01*
X1356173Y1723827D01*
X1354588Y1720000D01*
Y1660000D01*
X1356173Y1656173D01*
X1360000Y1654588D01*
X1394588D01*
Y1610350D01*
X1355394D01*
X1349986Y1609274D01*
X1345709Y1606416D01*
X1321070D01*
X1317168Y1605640D01*
X1313860Y1603430D01*
X1313777Y1603346D01*
X1298465D01*
Y1619803D01*
X1221535D01*
Y1566496D01*
X1298465D01*
Y1582954D01*
X1318000D01*
X1321902Y1583730D01*
X1325210Y1585940D01*
X1325293Y1586024D01*
X1334588D01*
Y1560000D01*
X1336173Y1556173D01*
X1340000Y1554588D01*
X1454588D01*
Y1524812D01*
X1449968Y1522899D01*
X1446210Y1526658D01*
X1442902Y1528868D01*
X1439000Y1529644D01*
X1414291D01*
X1410014Y1532502D01*
X1404606Y1533578D01*
X1355394D01*
X1349986Y1532502D01*
X1345402Y1529439D01*
X1342340Y1524855D01*
X1341264Y1519448D01*
X1342340Y1514041D01*
X1344804Y1510352D01*
Y1444223D01*
X1317627Y1417046D01*
X1298465D01*
Y1433504D01*
X1221535D01*
Y1380197D01*
X1298465D01*
Y1396654D01*
X1321850D01*
X1325752Y1397430D01*
X1329060Y1399640D01*
X1362210Y1432790D01*
X1364420Y1436098D01*
X1365196Y1440000D01*
Y1505318D01*
X1404606D01*
X1410014Y1506394D01*
X1414291Y1509252D01*
X1434777D01*
X1451652Y1492376D01*
X1454960Y1490166D01*
X1456997Y1485636D01*
X1456173Y1482875D01*
X1455761Y1481880D01*
X1455000Y1481119D01*
Y1480043D01*
X1454588Y1479048D01*
X1454588Y1300000D01*
X1456173Y1296173D01*
X1460000Y1294588D01*
X1594588Y1294588D01*
X1594588Y1080000D01*
X1596173Y1076173D01*
X1600000Y1074588D01*
X1760000D01*
X1763827Y1076173D01*
X1765412Y1080000D01*
Y1374588D01*
X1797261D01*
X1797522Y1374696D01*
X1797792Y1374614D01*
X1799402Y1375475D01*
X1801088Y1376173D01*
X1801196Y1376434D01*
X1801445Y1376567D01*
X1802770Y1378181D01*
X1803156Y1379453D01*
X1803894Y1380558D01*
X1804760Y1384910D01*
X1806626Y1387703D01*
X1809420Y1389570D01*
X1813249Y1390332D01*
X1861395D01*
X1865224Y1389570D01*
X1868018Y1387703D01*
X1870483Y1384014D01*
X1871117Y1383591D01*
X1871567Y1382749D01*
X1871837Y1382667D01*
X1871994Y1382432D01*
X1873213Y1382190D01*
X1873926Y1381713D01*
X1874588Y1376872D01*
Y1200000D01*
X1876173Y1196173D01*
X1880000Y1194588D01*
X2180000D01*
X2183827Y1196173D01*
X2185412Y1200000D01*
Y1264706D01*
X2373665D01*
X2487239Y1151132D01*
X2486361Y1149014D01*
X2485175Y1140000D01*
X2486361Y1130986D01*
X2489840Y1122587D01*
X2495375Y1115375D01*
X2502587Y1109840D01*
X2510986Y1106361D01*
X2520000Y1105175D01*
X2529014Y1106361D01*
X2537413Y1109840D01*
X2544625Y1115375D01*
X2550160Y1122587D01*
X2553639Y1130986D01*
X2554825Y1140000D01*
X2553639Y1149014D01*
X2550160Y1157413D01*
X2544625Y1164625D01*
X2537413Y1170160D01*
X2529014Y1173639D01*
X2520000Y1174825D01*
X2510986Y1173639D01*
X2508868Y1172761D01*
X2390814Y1290814D01*
X2385853Y1294130D01*
X2380000Y1295294D01*
X2185412D01*
Y1520000D01*
X2183827Y1523827D01*
X2180000Y1525412D01*
X2040000D01*
X2036173Y1523827D01*
X2034588Y1520000D01*
Y1464300D01*
X2035097Y1463071D01*
X2035030Y1462737D01*
X2035896Y1458386D01*
X2035030Y1454035D01*
X2035097Y1453701D01*
X2034588Y1452472D01*
Y1450183D01*
X2034560Y1450118D01*
X2029588Y1446467D01*
X2027284Y1446926D01*
X1978072D01*
X1972665Y1445850D01*
X1972009Y1445412D01*
X1885412D01*
Y1452575D01*
X1884713Y1454261D01*
X1884184Y1456008D01*
X1883935Y1456141D01*
X1883827Y1456402D01*
X1882140Y1457100D01*
X1880531Y1457961D01*
X1875531Y1458453D01*
X1874564Y1458160D01*
X1873927Y1458287D01*
X1873213Y1457810D01*
X1871994Y1457568D01*
X1871837Y1457333D01*
X1871567Y1457251D01*
X1871117Y1456409D01*
X1870483Y1455986D01*
X1868018Y1452297D01*
X1865224Y1450430D01*
X1861395Y1449668D01*
X1813249D01*
X1809420Y1450430D01*
X1806626Y1452297D01*
X1804760Y1455090D01*
X1803894Y1459442D01*
X1803156Y1460547D01*
X1802770Y1461819D01*
X1801445Y1463433D01*
X1801196Y1463566D01*
X1801088Y1463827D01*
X1799402Y1464525D01*
X1797792Y1465386D01*
X1797522Y1465304D01*
X1797261Y1465412D01*
X1785412D01*
X1785412Y1634588D01*
X1806496D01*
X1810323Y1636173D01*
X1811909Y1640000D01*
Y1653053D01*
X1820000D01*
X1823827Y1654638D01*
X1825412Y1658465D01*
Y1720000D01*
X1823827Y1723827D01*
X1820000Y1725412D01*
X1520000Y1725412D01*
X1497294Y1725412D01*
Y1875665D01*
X1955960Y2334332D01*
X1958147Y2332870D01*
X1964000Y2331706D01*
X2482000D01*
X2487853Y2332870D01*
X2492814Y2336186D01*
X2511404Y2354776D01*
X2514720Y2359737D01*
X2515884Y2365590D01*
Y2442796D01*
X2521338D01*
Y2488229D01*
X2515884D01*
Y2502000D01*
X2514720Y2507853D01*
X2511787Y2512241D01*
X2512140Y2514016D01*
Y2577008D01*
X2510836Y2583567D01*
X2510294Y2584378D01*
Y2590665D01*
X2524335Y2604706D01*
X2585665D01*
X2620186Y2570186D01*
X2625147Y2566870D01*
X2631000Y2565706D01*
X2648793D01*
X2649285Y2560706D01*
X2648172Y2560485D01*
X2642383Y2556617D01*
X2638515Y2550828D01*
X2637157Y2544000D01*
X2638515Y2537172D01*
X2642383Y2531383D01*
X2644804Y2529766D01*
Y2388223D01*
X2549495Y2292914D01*
X2535415D01*
X2533898Y2297914D01*
X2535210Y2298790D01*
X2589210Y2352790D01*
X2591420Y2356098D01*
X2592196Y2360000D01*
Y2494000D01*
X2591420Y2497902D01*
X2589210Y2501210D01*
X2569210Y2521210D01*
X2565902Y2523420D01*
X2562140Y2524168D01*
Y2577008D01*
X2560836Y2583567D01*
X2557120Y2589128D01*
X2551559Y2592844D01*
X2545000Y2594148D01*
X2538441Y2592844D01*
X2532880Y2589128D01*
X2529164Y2583567D01*
X2527860Y2577008D01*
Y2514016D01*
X2529164Y2507457D01*
X2532880Y2501896D01*
X2538441Y2498180D01*
X2545000Y2496876D01*
X2551559Y2498180D01*
X2557120Y2501896D01*
X2559455Y2502126D01*
X2571804Y2489777D01*
Y2364223D01*
X2523777Y2316196D01*
X2134000D01*
X2130098Y2315420D01*
X2126790Y2313210D01*
X1815856Y2002275D01*
X1813000Y2002843D01*
X1806172Y2001485D01*
X1800383Y1997617D01*
X1796515Y1991828D01*
X1795157Y1985000D01*
X1796515Y1978172D01*
X1800383Y1972383D01*
X1806172Y1968515D01*
X1813000Y1967157D01*
X1819828Y1968515D01*
X1825617Y1972383D01*
X1829485Y1978172D01*
X1830843Y1985000D01*
X1830275Y1987856D01*
X2068019Y2225600D01*
X2072639Y2223686D01*
Y2161535D01*
X2125945D01*
Y2224234D01*
X2174233Y2272522D01*
X2339662D01*
X2343804Y2267718D01*
Y2262716D01*
X2304134D01*
Y2250196D01*
X2242872D01*
X2238970Y2249420D01*
X2235662Y2247210D01*
X2226917Y2238465D01*
X2178936D01*
Y2161535D01*
X2232244D01*
Y2214952D01*
X2247095Y2229804D01*
X2304134D01*
Y2217284D01*
X2345630D01*
Y2229804D01*
X2346000D01*
X2349902Y2230580D01*
X2353210Y2232790D01*
X2354633Y2234213D01*
X2359252Y2232300D01*
Y2217284D01*
X2400748D01*
Y2229804D01*
X2484134D01*
Y2217284D01*
X2494686D01*
Y2206000D01*
X2495462Y2202098D01*
X2497672Y2198790D01*
X2553672Y2142790D01*
X2556980Y2140580D01*
X2560882Y2139804D01*
X2583444D01*
X2584730Y2137880D01*
X2590291Y2134164D01*
X2596850Y2132860D01*
X2618150D01*
Y2117140D01*
X2596850D01*
X2590291Y2115836D01*
X2584730Y2112120D01*
X2581014Y2106559D01*
X2579710Y2100000D01*
X2581014Y2093441D01*
X2583182Y2090196D01*
X2580510Y2085196D01*
X2575223D01*
X2503210Y2157210D01*
X2499902Y2159420D01*
X2496000Y2160196D01*
X2484272D01*
X2482986Y2162120D01*
X2477425Y2165836D01*
X2470866Y2167140D01*
X2407874D01*
X2401315Y2165836D01*
X2395754Y2162120D01*
X2394468Y2160196D01*
X2388223D01*
X2381210Y2167210D01*
X2377902Y2169420D01*
X2374000Y2170196D01*
X2340748D01*
Y2182716D01*
X2299252D01*
Y2170196D01*
X2299000D01*
X2295098Y2169420D01*
X2291790Y2167210D01*
X2290249Y2165669D01*
X2285630Y2167582D01*
Y2182716D01*
X2244134D01*
Y2137284D01*
X2248085D01*
X2250156Y2132284D01*
X2236337Y2118465D01*
X2212639D01*
Y2090196D01*
X2186373D01*
X2176210Y2100360D01*
X2172902Y2102570D01*
X2169000Y2103346D01*
X2150907D01*
Y2119803D01*
X2073977D01*
Y2066497D01*
X2150907D01*
Y2082954D01*
X2164777D01*
X2174940Y2072790D01*
X2178248Y2070580D01*
X2182150Y2069804D01*
X2212639D01*
Y2041535D01*
X2219045D01*
X2221116Y2036535D01*
X2207790Y2023210D01*
X2207461Y2022716D01*
X2176574D01*
Y1982196D01*
X2150907D01*
Y2013504D01*
X2073977D01*
Y1960197D01*
X2150907D01*
Y1961804D01*
X2347102D01*
X2348685Y1956804D01*
X2313613Y1921732D01*
X2269804D01*
Y1878268D01*
X2296104D01*
Y1842570D01*
X2295394Y1839000D01*
Y1818465D01*
X2278936D01*
Y1746554D01*
X2273936Y1744483D01*
X2270196Y1748223D01*
Y1848000D01*
X2269420Y1851902D01*
X2267210Y1855210D01*
X2215210Y1907210D01*
X2211902Y1909420D01*
X2208938Y1910009D01*
Y1921732D01*
X2135946D01*
Y1878268D01*
X2208938D01*
Y1878268D01*
X2213446Y1880135D01*
X2249804Y1843777D01*
Y1744000D01*
X2250580Y1740098D01*
X2252790Y1736790D01*
X2276790Y1712790D01*
X2280098Y1710580D01*
X2284000Y1709804D01*
X2419292D01*
X2423194Y1710580D01*
X2426502Y1712790D01*
X2428712Y1716098D01*
X2429488Y1720000D01*
Y1721535D01*
X2445945D01*
Y1798465D01*
X2392639D01*
Y1730196D01*
X2288223D01*
X2281884Y1736535D01*
X2283955Y1741535D01*
X2332244D01*
Y1818465D01*
X2315786D01*
Y1836140D01*
X2316496Y1839710D01*
Y1878268D01*
X2342796D01*
Y1889804D01*
X2394468D01*
X2395754Y1887880D01*
X2401315Y1884164D01*
X2407874Y1882860D01*
X2470866D01*
X2477425Y1884164D01*
X2482986Y1887880D01*
X2486702Y1893441D01*
X2488006Y1900000D01*
X2486702Y1906559D01*
X2482986Y1912120D01*
X2477425Y1915836D01*
X2470866Y1917140D01*
X2407874D01*
X2401315Y1915836D01*
X2395754Y1912120D01*
X2394468Y1910196D01*
X2342796D01*
Y1921732D01*
X2342796Y1921732D01*
X2342796D01*
X2345941Y1925222D01*
X2367210Y1946490D01*
X2369420Y1949798D01*
X2370196Y1953700D01*
Y1977284D01*
X2380748D01*
Y2022716D01*
X2349797D01*
X2347726Y2027716D01*
X2352800Y2032790D01*
X2355010Y2036098D01*
X2355786Y2040000D01*
Y2041535D01*
X2370258D01*
X2371688Y2040580D01*
X2375590Y2039804D01*
X2394468D01*
X2395754Y2037880D01*
X2401315Y2034164D01*
X2407874Y2032860D01*
X2470866D01*
X2477425Y2034164D01*
X2482986Y2037880D01*
X2486702Y2043441D01*
X2488006Y2050000D01*
X2486702Y2056559D01*
X2482986Y2062120D01*
X2477425Y2065836D01*
X2470866Y2067140D01*
X2407874D01*
X2401315Y2065836D01*
X2395754Y2062120D01*
X2394468Y2060196D01*
X2379813D01*
X2372244Y2067766D01*
Y2118465D01*
X2318936D01*
Y2042196D01*
X2265945D01*
Y2118464D01*
X2265946Y2118464D01*
X2265946D01*
X2268827Y2122116D01*
X2272092Y2125380D01*
X2274302Y2128688D01*
X2275078Y2132590D01*
Y2137284D01*
X2280804D01*
Y2102234D01*
X2278383Y2100617D01*
X2274515Y2094828D01*
X2273157Y2088000D01*
X2274515Y2081172D01*
X2278383Y2075383D01*
X2284172Y2071515D01*
X2291000Y2070157D01*
X2297828Y2071515D01*
X2303617Y2075383D01*
X2307485Y2081172D01*
X2308843Y2088000D01*
X2307485Y2094828D01*
X2303617Y2100617D01*
X2301196Y2102234D01*
Y2137284D01*
X2340748D01*
Y2149804D01*
X2369777D01*
X2376790Y2142790D01*
X2380098Y2140580D01*
X2384000Y2139804D01*
X2394468D01*
X2395754Y2137880D01*
X2401315Y2134164D01*
X2407874Y2132860D01*
X2470866D01*
X2477425Y2134164D01*
X2482986Y2137880D01*
X2484272Y2139804D01*
X2491777D01*
X2563790Y2067790D01*
X2567098Y2065580D01*
X2571000Y2064804D01*
X2580510D01*
X2583182Y2059804D01*
X2581014Y2056559D01*
X2579710Y2050000D01*
X2581014Y2043441D01*
X2584730Y2037880D01*
X2590291Y2034164D01*
X2596850Y2032860D01*
X2659842D01*
X2666401Y2034164D01*
X2671962Y2037880D01*
X2673592Y2040320D01*
X2674902Y2040580D01*
X2678210Y2042790D01*
X2708977Y2073558D01*
X2713977Y2071487D01*
Y2060197D01*
X2742246D01*
Y2042716D01*
X2704134D01*
Y2035294D01*
X2686000D01*
X2680147Y2034130D01*
X2675186Y2030814D01*
X2661235Y2016863D01*
X2659842Y2017140D01*
X2596850D01*
X2590291Y2015836D01*
X2589480Y2015294D01*
X2570610D01*
X2568828Y2016485D01*
X2562000Y2017843D01*
X2555172Y2016485D01*
X2549383Y2012617D01*
X2545515Y2006828D01*
X2544157Y2000000D01*
X2545515Y1993172D01*
X2549383Y1987383D01*
X2555172Y1983515D01*
X2562000Y1982157D01*
X2568828Y1983515D01*
X2570610Y1984706D01*
X2589480D01*
X2590291Y1984164D01*
X2596850Y1982860D01*
X2659842D01*
X2666401Y1984164D01*
X2667726Y1985049D01*
X2671853Y1985870D01*
X2676814Y1989186D01*
X2692335Y2004706D01*
X2704134D01*
Y1997284D01*
X2742246D01*
Y1988000D01*
X2742882Y1984804D01*
X2742136Y1982887D01*
X2739878Y1979803D01*
X2700905D01*
Y1963346D01*
X2685150D01*
X2681248Y1962570D01*
X2677940Y1960360D01*
X2677928Y1960347D01*
X2672957Y1960631D01*
X2671962Y1962120D01*
X2666401Y1965836D01*
X2659842Y1967140D01*
X2596850D01*
X2590291Y1965836D01*
X2584730Y1962120D01*
X2583444Y1960196D01*
X2566223D01*
X2538196Y1988223D01*
Y2036766D01*
X2540617Y2038383D01*
X2544485Y2044172D01*
X2545843Y2051000D01*
X2544485Y2057828D01*
X2540617Y2063617D01*
X2534828Y2067485D01*
X2528000Y2068843D01*
X2521172Y2067485D01*
X2520196Y2066832D01*
X2515196Y2069505D01*
Y2080000D01*
X2514420Y2083902D01*
X2512210Y2087210D01*
X2492210Y2107210D01*
X2488902Y2109420D01*
X2485000Y2110196D01*
X2484272D01*
X2482986Y2112120D01*
X2477425Y2115836D01*
X2470866Y2117140D01*
X2407874D01*
X2401315Y2115836D01*
X2395754Y2112120D01*
X2392038Y2106559D01*
X2390734Y2100000D01*
X2392038Y2093441D01*
X2395754Y2087880D01*
X2401315Y2084164D01*
X2407874Y2082860D01*
X2470866D01*
X2477425Y2084164D01*
X2482815Y2087766D01*
X2494804Y2075777D01*
Y1984000D01*
X2495580Y1980098D01*
X2497790Y1976790D01*
X2554790Y1919790D01*
X2558098Y1917580D01*
X2562000Y1916804D01*
X2582740D01*
X2584152Y1913479D01*
X2584519Y1911804D01*
X2581014Y1906559D01*
X2579710Y1900000D01*
X2581014Y1893441D01*
X2584730Y1887880D01*
X2590291Y1884164D01*
X2596850Y1882860D01*
X2659842D01*
X2666401Y1884164D01*
X2666804Y1884433D01*
X2671804Y1881761D01*
Y1867529D01*
X2667394Y1865172D01*
X2666401Y1865836D01*
X2659842Y1867140D01*
X2596850D01*
X2590291Y1865836D01*
X2585671Y1862749D01*
X2491210Y1957210D01*
X2487902Y1959420D01*
X2484313Y1960134D01*
X2482986Y1962120D01*
X2477425Y1965836D01*
X2470866Y1967140D01*
X2407874D01*
X2401315Y1965836D01*
X2395754Y1962120D01*
X2392038Y1956559D01*
X2390734Y1950000D01*
X2392038Y1943441D01*
X2395754Y1937880D01*
X2401315Y1934164D01*
X2407874Y1932860D01*
X2470866D01*
X2477425Y1934164D01*
X2482216Y1937365D01*
X2569581Y1850000D01*
X2567790Y1848210D01*
X2565580Y1844902D01*
X2564804Y1841000D01*
Y1060196D01*
X1239223D01*
X1235196Y1064223D01*
Y1160000D01*
X1234420Y1163902D01*
X1232210Y1167210D01*
X1060196Y1339223D01*
Y1580777D01*
X1124892Y1645473D01*
X1174527D01*
Y1714527D01*
X1105473D01*
Y1654892D01*
X1042790Y1592210D01*
X1040580Y1588902D01*
X1039804Y1585000D01*
Y1335000D01*
X1040580Y1331098D01*
X1042790Y1327790D01*
X1214804Y1155777D01*
Y1060000D01*
X1215580Y1056098D01*
X1217790Y1052790D01*
X1227790Y1042790D01*
X1231098Y1040580D01*
X1235000Y1039804D01*
X2575000D01*
X2578902Y1040580D01*
X2582210Y1042790D01*
X2584420Y1046098D01*
X2585196Y1050000D01*
Y1100587D01*
X2585473Y1105472D01*
X2590196Y1105473D01*
X2654528D01*
Y1174527D01*
X2585473Y1174528D01*
X2585196Y1179413D01*
Y1831555D01*
X2590196Y1834228D01*
X2590291Y1834164D01*
X2596850Y1832860D01*
X2606908D01*
X2608821Y1828240D01*
X2599790Y1819210D01*
X2597580Y1815902D01*
X2596804Y1812000D01*
Y1715000D01*
X2597580Y1711098D01*
X2599790Y1707790D01*
X2648790Y1658790D01*
X2652098Y1656580D01*
X2656000Y1655804D01*
X2764000D01*
X2767902Y1656580D01*
X2771210Y1658790D01*
X2852223Y1739804D01*
X2901000D01*
X2904902Y1740580D01*
X2908210Y1742790D01*
X2995381Y1829961D01*
X3000000Y1828048D01*
Y1000000D01*
X1000000Y1000000D01*
X1000000Y3000000D01*
X3000000Y3000000D01*
Y2647952D01*
D02*
G37*
G36*
X2677706Y2889665D02*
Y2688308D01*
X2637284D01*
Y2682854D01*
X2621775D01*
X2610294Y2694335D01*
Y2695622D01*
X2610836Y2696433D01*
X2612140Y2702992D01*
Y2765984D01*
X2610836Y2772543D01*
X2607120Y2778104D01*
X2601559Y2781820D01*
X2595000Y2783124D01*
X2588441Y2781820D01*
X2587756Y2781362D01*
X2583346Y2783719D01*
Y2801535D01*
X2599803D01*
Y2878465D01*
X2546497D01*
Y2801535D01*
X2552583D01*
X2554497Y2796916D01*
X2539639Y2782058D01*
X2538441Y2781820D01*
X2532880Y2778104D01*
X2529164Y2772543D01*
X2527860Y2765984D01*
Y2721129D01*
X2516760Y2710029D01*
X2512140Y2711942D01*
Y2765984D01*
X2510836Y2772543D01*
X2507120Y2778104D01*
X2501559Y2781820D01*
X2500361Y2782058D01*
X2498384Y2784035D01*
Y2811534D01*
X2497608Y2815436D01*
X2495398Y2818744D01*
X2493503Y2820009D01*
Y2878465D01*
X2447443D01*
X2419698Y2906210D01*
X2416390Y2908420D01*
X2412488Y2909196D01*
X2164000D01*
X2160098Y2908420D01*
X2156790Y2906210D01*
X2125781Y2875200D01*
X2119144Y2875635D01*
X2116475Y2879113D01*
X2109263Y2884648D01*
X2100863Y2888127D01*
X2091850Y2889313D01*
X2082836Y2888127D01*
X2074437Y2884648D01*
X2067225Y2879113D01*
X2061690Y2871901D01*
X2058211Y2863501D01*
X2057025Y2854488D01*
X2058211Y2845474D01*
X2061690Y2837075D01*
X2067225Y2829863D01*
X2074437Y2824328D01*
X2082836Y2820849D01*
X2091850Y2819663D01*
X2100863Y2820849D01*
X2109263Y2824328D01*
X2116475Y2829863D01*
X2122010Y2837075D01*
X2125489Y2845474D01*
X2125633Y2846567D01*
X2126698Y2847278D01*
X2167346Y2887927D01*
X2169958Y2887513D01*
X2171298Y2882239D01*
X2167225Y2879113D01*
X2161690Y2871901D01*
X2158211Y2863501D01*
X2157025Y2854488D01*
X2158211Y2845474D01*
X2161690Y2837075D01*
X2167225Y2829863D01*
X2174437Y2824328D01*
X2182505Y2820987D01*
X2184640Y2817790D01*
X2187948Y2815580D01*
X2191850Y2814804D01*
X2321535D01*
Y2766497D01*
X2373934D01*
X2413640Y2726790D01*
X2416948Y2724580D01*
X2420850Y2723804D01*
X2427860D01*
Y2702992D01*
X2429164Y2696433D01*
X2432880Y2690872D01*
X2438441Y2687156D01*
X2445000Y2685852D01*
X2451559Y2687156D01*
X2456804Y2690661D01*
X2459086Y2690162D01*
X2460968Y2689482D01*
X2461850Y2688951D01*
X2462580Y2685278D01*
X2464790Y2681970D01*
X2472790Y2673970D01*
X2473113Y2667742D01*
X2403084Y2597713D01*
X2398465Y2599626D01*
Y2639803D01*
X2370196D01*
Y2660197D01*
X2398465D01*
Y2713503D01*
X2321535D01*
Y2707417D01*
X2316916Y2705503D01*
X2311210Y2711210D01*
X2307902Y2713420D01*
X2304000Y2714196D01*
X2144223D01*
X2136923Y2721497D01*
X2138994Y2726497D01*
X2206024D01*
Y2779803D01*
X2143766D01*
X2113360Y2810210D01*
X2110052Y2812420D01*
X2106150Y2813196D01*
X2047561D01*
X2022499Y2838258D01*
X2025489Y2845474D01*
X2026675Y2854488D01*
X2025489Y2863501D01*
X2022010Y2871901D01*
X2016475Y2879113D01*
X2009263Y2884648D01*
X2000863Y2888127D01*
X1991850Y2889313D01*
X1982836Y2888127D01*
X1974437Y2884648D01*
X1967225Y2879113D01*
X1961690Y2871901D01*
X1958211Y2863501D01*
X1957025Y2854488D01*
X1958211Y2845474D01*
X1961690Y2837075D01*
X1967225Y2829863D01*
X1974437Y2824328D01*
X1982836Y2820849D01*
X1991850Y2819663D01*
X2000863Y2820849D01*
X2008080Y2823838D01*
X2036128Y2795790D01*
X2039436Y2793580D01*
X2043338Y2792804D01*
X2101927D01*
X2107535Y2787196D01*
X2105464Y2782196D01*
X2069000D01*
X2065098Y2781420D01*
X2061790Y2779210D01*
X2059580Y2775902D01*
X2058804Y2772000D01*
Y2722813D01*
X2039042Y2703051D01*
X2032851Y2701820D01*
X2027290Y2698104D01*
X2023574Y2692543D01*
X2022270Y2685984D01*
Y2623231D01*
X2019098Y2622600D01*
X2015790Y2620390D01*
X2011379Y2615978D01*
X2010283Y2616129D01*
X2006299Y2621726D01*
X2006550Y2622992D01*
Y2685984D01*
X2005246Y2692543D01*
X2001530Y2698104D01*
X1995969Y2701820D01*
X1989410Y2703124D01*
X1982851Y2701820D01*
X1977290Y2698104D01*
X1973574Y2692543D01*
X1972270Y2685984D01*
Y2664684D01*
X1956550D01*
Y2685984D01*
X1955246Y2692543D01*
X1951530Y2698104D01*
X1945969Y2701820D01*
X1939410Y2703124D01*
X1932851Y2701820D01*
X1927290Y2698104D01*
X1923574Y2692543D01*
X1922270Y2685984D01*
Y2664684D01*
X1894381D01*
X1890972Y2668094D01*
X1887664Y2670304D01*
X1886024Y2670630D01*
Y2679803D01*
X1809095D01*
Y2631196D01*
X1678465D01*
Y2659803D01*
X1650196D01*
Y2680197D01*
X1678465D01*
Y2733503D01*
X1609600D01*
X1606927Y2738503D01*
X1607796Y2739804D01*
X1687362D01*
X1691264Y2740580D01*
X1694572Y2742790D01*
X1771742Y2819961D01*
X1826378D01*
Y2884804D01*
X1847115D01*
X1861200Y2870718D01*
X1858211Y2863501D01*
X1857025Y2854488D01*
X1858211Y2845474D01*
X1861690Y2837075D01*
X1867225Y2829863D01*
X1874437Y2824328D01*
X1882836Y2820849D01*
X1891850Y2819663D01*
X1900863Y2820849D01*
X1909263Y2824328D01*
X1916475Y2829863D01*
X1922010Y2837075D01*
X1925489Y2845474D01*
X1926675Y2854488D01*
X1925489Y2863501D01*
X1922010Y2871901D01*
X1916475Y2879113D01*
X1909263Y2884648D01*
X1900863Y2888127D01*
X1891850Y2889313D01*
X1882836Y2888127D01*
X1875620Y2885137D01*
X1858548Y2902210D01*
X1855240Y2904420D01*
X1851338Y2905196D01*
X1599000D01*
X1595098Y2904420D01*
X1591790Y2902210D01*
X1532927Y2843347D01*
X1528308Y2845260D01*
Y2882716D01*
X1524040D01*
X1523345Y2887716D01*
X1553335Y2917706D01*
X2649665D01*
X2677706Y2889665D01*
D02*
G37*
%LPC*%
G36*
X2120000Y1174825D02*
X2110986Y1173639D01*
X2102587Y1170160D01*
X2095375Y1164625D01*
X2089840Y1157413D01*
X2086361Y1149014D01*
X2085175Y1140000D01*
X2086361Y1130986D01*
X2089840Y1122587D01*
X2095375Y1115375D01*
X2102587Y1109840D01*
X2110986Y1106361D01*
X2120000Y1105175D01*
X2129014Y1106361D01*
X2137413Y1109840D01*
X2144625Y1115375D01*
X2150160Y1122587D01*
X2153639Y1130986D01*
X2154825Y1140000D01*
X2153639Y1149014D01*
X2150160Y1157413D01*
X2144625Y1164625D01*
X2137413Y1170160D01*
X2129014Y1173639D01*
X2120000Y1174825D01*
D02*
G37*
G36*
X2900000Y1185411D02*
X2883337Y1183770D01*
X2867314Y1178910D01*
X2852548Y1171017D01*
X2839605Y1160395D01*
X2828983Y1147452D01*
X2821090Y1132686D01*
X2816230Y1116663D01*
X2814589Y1100000D01*
X2816230Y1083337D01*
X2821090Y1067314D01*
X2828983Y1052548D01*
X2839605Y1039605D01*
X2852548Y1028983D01*
X2867314Y1021090D01*
X2883337Y1016230D01*
X2900000Y1014589D01*
X2916663Y1016230D01*
X2932686Y1021090D01*
X2947452Y1028983D01*
X2960395Y1039605D01*
X2971017Y1052548D01*
X2978910Y1067314D01*
X2983770Y1083337D01*
X2985411Y1100000D01*
X2983770Y1116663D01*
X2978910Y1132686D01*
X2971017Y1147452D01*
X2960395Y1160395D01*
X2947452Y1171017D01*
X2932686Y1178910D01*
X2916663Y1183770D01*
X2900000Y1185411D01*
D02*
G37*
G36*
X1100000D02*
X1083337Y1183770D01*
X1067314Y1178910D01*
X1052548Y1171017D01*
X1039605Y1160395D01*
X1028983Y1147452D01*
X1021090Y1132686D01*
X1016230Y1116663D01*
X1014589Y1100000D01*
X1016230Y1083337D01*
X1021090Y1067314D01*
X1028983Y1052548D01*
X1039605Y1039605D01*
X1052548Y1028983D01*
X1067314Y1021090D01*
X1083337Y1016230D01*
X1100000Y1014589D01*
X1116663Y1016230D01*
X1132686Y1021090D01*
X1147452Y1028983D01*
X1160395Y1039605D01*
X1171017Y1052548D01*
X1178910Y1067314D01*
X1183770Y1083337D01*
X1185411Y1100000D01*
X1183770Y1116663D01*
X1178910Y1132686D01*
X1171017Y1147452D01*
X1160395Y1160395D01*
X1147452Y1171017D01*
X1132686Y1178910D01*
X1116663Y1183770D01*
X1100000Y1185411D01*
D02*
G37*
G36*
X2220000Y1174825D02*
X2210986Y1173639D01*
X2202587Y1170160D01*
X2195375Y1164625D01*
X2189840Y1157413D01*
X2186361Y1149014D01*
X2185175Y1140000D01*
X2186361Y1130986D01*
X2189840Y1122587D01*
X2195375Y1115375D01*
X2202587Y1109840D01*
X2210986Y1106361D01*
X2220000Y1105175D01*
X2229014Y1106361D01*
X2237413Y1109840D01*
X2244625Y1115375D01*
X2250160Y1122587D01*
X2253639Y1130986D01*
X2254825Y1140000D01*
X2253639Y1149014D01*
X2250160Y1157413D01*
X2244625Y1164625D01*
X2237413Y1170160D01*
X2229014Y1173639D01*
X2220000Y1174825D01*
D02*
G37*
G36*
X2860000Y1634825D02*
X2850986Y1633639D01*
X2842587Y1630160D01*
X2835375Y1624625D01*
X2829840Y1617413D01*
X2826361Y1609014D01*
X2825175Y1600000D01*
X2826361Y1590986D01*
X2829840Y1582587D01*
X2835375Y1575375D01*
X2842587Y1569840D01*
X2850986Y1566361D01*
X2860000Y1565175D01*
X2869014Y1566361D01*
X2877413Y1569840D01*
X2884625Y1575375D01*
X2890160Y1582587D01*
X2893639Y1590986D01*
X2894825Y1600000D01*
X2893639Y1609014D01*
X2890160Y1617413D01*
X2884625Y1624625D01*
X2877413Y1630160D01*
X2869014Y1633639D01*
X2860000Y1634825D01*
D02*
G37*
G36*
X1174527Y1394527D02*
X1105473D01*
Y1325473D01*
X1174527D01*
Y1394527D01*
D02*
G37*
G36*
X2320000Y1174825D02*
X2310986Y1173639D01*
X2302587Y1170160D01*
X2295375Y1164625D01*
X2289840Y1157413D01*
X2286361Y1149014D01*
X2285175Y1140000D01*
X2286361Y1130986D01*
X2289840Y1122587D01*
X2295375Y1115375D01*
X2302587Y1109840D01*
X2310986Y1106361D01*
X2320000Y1105175D01*
X2329014Y1106361D01*
X2337413Y1109840D01*
X2344625Y1115375D01*
X2350160Y1122587D01*
X2353639Y1130986D01*
X2354825Y1140000D01*
X2353639Y1149014D01*
X2350160Y1157413D01*
X2344625Y1164625D01*
X2337413Y1170160D01*
X2329014Y1173639D01*
X2320000Y1174825D01*
D02*
G37*
G36*
X2470866Y1867140D02*
X2407874D01*
X2401315Y1865836D01*
X2395754Y1862120D01*
X2392038Y1856559D01*
X2390734Y1850000D01*
X2392038Y1843441D01*
X2395754Y1837880D01*
X2401315Y1834164D01*
X2407874Y1832860D01*
X2470866D01*
X2477425Y1834164D01*
X2482986Y1837880D01*
X2484272Y1839804D01*
X2495367D01*
X2515394Y1819777D01*
Y1798465D01*
X2498936D01*
Y1721535D01*
X2552244D01*
Y1798465D01*
X2535786D01*
Y1824000D01*
X2535010Y1827902D01*
X2532800Y1831210D01*
X2506800Y1857210D01*
X2503492Y1859420D01*
X2499590Y1860196D01*
X2484272D01*
X2482986Y1862120D01*
X2477425Y1865836D01*
X2470866Y1867140D01*
D02*
G37*
G36*
X1060000Y2702840D02*
X1051500Y2701721D01*
X1043580Y2698440D01*
X1036779Y2693221D01*
X1031560Y2686420D01*
X1028279Y2678500D01*
X1027160Y2670000D01*
X1028279Y2661500D01*
X1031560Y2653580D01*
X1036779Y2646779D01*
X1043580Y2641560D01*
X1051500Y2638279D01*
X1060000Y2637160D01*
X1068500Y2638279D01*
X1076420Y2641560D01*
X1083221Y2646779D01*
X1088440Y2653580D01*
X1091721Y2661500D01*
X1092840Y2670000D01*
X1091721Y2678500D01*
X1088440Y2686420D01*
X1083221Y2693221D01*
X1076420Y2698440D01*
X1068500Y2701721D01*
X1060000Y2702840D01*
D02*
G37*
G36*
X2820000Y2662840D02*
X2811500Y2661721D01*
X2803580Y2658440D01*
X2796779Y2653221D01*
X2791560Y2646420D01*
X2788279Y2638500D01*
X2787160Y2630000D01*
X2788279Y2621500D01*
X2791560Y2613580D01*
X2796779Y2606779D01*
X2803580Y2601560D01*
X2811500Y2598279D01*
X2820000Y2597160D01*
X2828500Y2598279D01*
X2836420Y2601560D01*
X2843221Y2606779D01*
X2848440Y2613580D01*
X2851721Y2621500D01*
X2852840Y2630000D01*
X2851721Y2638500D01*
X2848440Y2646420D01*
X2843221Y2653221D01*
X2836420Y2658440D01*
X2828500Y2661721D01*
X2820000Y2662840D01*
D02*
G37*
G36*
X1060000Y2402840D02*
X1051500Y2401721D01*
X1043580Y2398440D01*
X1036779Y2393221D01*
X1031560Y2386420D01*
X1028279Y2378500D01*
X1027160Y2370000D01*
X1028279Y2361500D01*
X1031560Y2353580D01*
X1036779Y2346779D01*
X1043580Y2341560D01*
X1051500Y2338279D01*
X1060000Y2337160D01*
X1068500Y2338279D01*
X1076420Y2341560D01*
X1083221Y2346779D01*
X1088440Y2353580D01*
X1091721Y2361500D01*
X1092840Y2370000D01*
X1091721Y2378500D01*
X1088440Y2386420D01*
X1083221Y2393221D01*
X1076420Y2398440D01*
X1068500Y2401721D01*
X1060000Y2402840D01*
D02*
G37*
G36*
X2900000Y2985411D02*
X2883337Y2983770D01*
X2867314Y2978910D01*
X2852548Y2971017D01*
X2839605Y2960395D01*
X2828983Y2947452D01*
X2821090Y2932686D01*
X2816230Y2916663D01*
X2814589Y2900000D01*
X2816230Y2883337D01*
X2821090Y2867314D01*
X2828983Y2852548D01*
X2839605Y2839605D01*
X2852548Y2828983D01*
X2867314Y2821090D01*
X2883337Y2816230D01*
X2900000Y2814589D01*
X2916663Y2816230D01*
X2932686Y2821090D01*
X2947452Y2828983D01*
X2960395Y2839605D01*
X2971017Y2852548D01*
X2978910Y2867314D01*
X2983770Y2883337D01*
X2985411Y2900000D01*
X2983770Y2916663D01*
X2978910Y2932686D01*
X2971017Y2947452D01*
X2960395Y2960395D01*
X2947452Y2971017D01*
X2932686Y2978910D01*
X2916663Y2983770D01*
X2900000Y2985411D01*
D02*
G37*
G36*
X1100000D02*
X1083337Y2983770D01*
X1067314Y2978910D01*
X1052548Y2971017D01*
X1039605Y2960395D01*
X1028983Y2947452D01*
X1021090Y2932686D01*
X1016230Y2916663D01*
X1014589Y2900000D01*
X1016230Y2883337D01*
X1021090Y2867314D01*
X1028983Y2852548D01*
X1039605Y2839605D01*
X1052548Y2828983D01*
X1067314Y2821090D01*
X1083337Y2816230D01*
X1100000Y2814589D01*
X1116663Y2816230D01*
X1132686Y2821090D01*
X1147452Y2828983D01*
X1160395Y2839605D01*
X1171017Y2852548D01*
X1178910Y2867314D01*
X1183770Y2883337D01*
X1185411Y2900000D01*
X1183770Y2916663D01*
X1178910Y2932686D01*
X1171017Y2947452D01*
X1160395Y2960395D01*
X1147452Y2971017D01*
X1132686Y2978910D01*
X1116663Y2983770D01*
X1100000Y2985411D01*
D02*
G37*
G36*
X1426000Y2953843D02*
X1419172Y2952485D01*
X1413383Y2948617D01*
X1409515Y2942828D01*
X1408157Y2936000D01*
X1409515Y2929172D01*
X1413383Y2923383D01*
X1415804Y2921766D01*
Y2829000D01*
X1416580Y2825098D01*
X1418790Y2821790D01*
X1430790Y2809790D01*
X1434098Y2807580D01*
X1437860Y2805984D01*
Y2742992D01*
X1439164Y2736433D01*
X1442880Y2730872D01*
X1448441Y2727156D01*
X1455000Y2725852D01*
X1461559Y2727156D01*
X1467120Y2730872D01*
X1470836Y2736433D01*
X1472140Y2742992D01*
Y2805984D01*
X1470836Y2812543D01*
X1467120Y2818104D01*
X1464648Y2819756D01*
X1464420Y2820902D01*
X1462210Y2824210D01*
X1458902Y2826420D01*
X1455000Y2827196D01*
X1442223D01*
X1436196Y2833223D01*
Y2921766D01*
X1438617Y2923383D01*
X1442485Y2929172D01*
X1443843Y2936000D01*
X1442485Y2942828D01*
X1438617Y2948617D01*
X1432828Y2952485D01*
X1426000Y2953843D01*
D02*
G37*
G36*
X1843308Y1946623D02*
X1836480Y1945265D01*
X1830691Y1941397D01*
X1829074Y1938976D01*
X1756000D01*
X1752098Y1938200D01*
X1748790Y1935990D01*
X1636296Y1823495D01*
X1633440Y1824063D01*
X1626612Y1822705D01*
X1620823Y1818837D01*
X1616955Y1813048D01*
X1615597Y1806220D01*
X1616955Y1799392D01*
X1620823Y1793603D01*
X1626612Y1789735D01*
X1633440Y1788377D01*
X1640268Y1789735D01*
X1646057Y1793603D01*
X1649925Y1799392D01*
X1651283Y1806220D01*
X1650715Y1809076D01*
X1760223Y1918584D01*
X1829074D01*
X1830691Y1916163D01*
X1836480Y1912295D01*
X1843308Y1910937D01*
X1850136Y1912295D01*
X1855925Y1916163D01*
X1859793Y1921952D01*
X1861151Y1928780D01*
X1859793Y1935608D01*
X1855925Y1941397D01*
X1850136Y1945265D01*
X1843308Y1946623D01*
D02*
G37*
G36*
X1140000Y1922840D02*
X1131500Y1921721D01*
X1123580Y1918440D01*
X1116779Y1913221D01*
X1111560Y1906420D01*
X1108279Y1898500D01*
X1107160Y1890000D01*
X1108279Y1881500D01*
X1111560Y1873580D01*
X1116779Y1866779D01*
X1123580Y1861560D01*
X1131500Y1858279D01*
X1140000Y1857160D01*
X1148500Y1858279D01*
X1156420Y1861560D01*
X1163221Y1866779D01*
X1168440Y1873580D01*
X1171721Y1881500D01*
X1172840Y1890000D01*
X1171721Y1898500D01*
X1168440Y1906420D01*
X1163221Y1913221D01*
X1156420Y1918440D01*
X1148500Y1921721D01*
X1140000Y1922840D01*
D02*
G37*
G36*
X1060000D02*
X1051500Y1921721D01*
X1043580Y1918440D01*
X1036779Y1913221D01*
X1031560Y1906420D01*
X1028279Y1898500D01*
X1027160Y1890000D01*
X1028279Y1881500D01*
X1031560Y1873580D01*
X1036779Y1866779D01*
X1043580Y1861560D01*
X1051500Y1858279D01*
X1060000Y1857160D01*
X1068500Y1858279D01*
X1074724Y1860857D01*
X1110790Y1824790D01*
X1114098Y1822580D01*
X1118000Y1821804D01*
X1220777D01*
X1282725Y1759856D01*
X1282157Y1757000D01*
X1283515Y1750172D01*
X1287383Y1744383D01*
X1293172Y1740515D01*
X1300000Y1739157D01*
X1306828Y1740515D01*
X1312617Y1744383D01*
X1316485Y1750172D01*
X1317843Y1757000D01*
X1316485Y1763828D01*
X1312617Y1769617D01*
X1306828Y1773485D01*
X1300000Y1774843D01*
X1297144Y1774275D01*
X1232210Y1839210D01*
X1228902Y1841420D01*
X1225000Y1842196D01*
X1122223D01*
X1089143Y1875276D01*
X1091721Y1881500D01*
X1092840Y1890000D01*
X1091721Y1898500D01*
X1088440Y1906420D01*
X1083221Y1913221D01*
X1076420Y1918440D01*
X1068500Y1921721D01*
X1060000Y1922840D01*
D02*
G37*
G36*
X2820000Y2362840D02*
X2811500Y2361721D01*
X2803580Y2358440D01*
X2796779Y2353221D01*
X2791560Y2346420D01*
X2788279Y2338500D01*
X2787160Y2330000D01*
X2788279Y2321500D01*
X2791560Y2313580D01*
X2796779Y2306779D01*
X2803580Y2301560D01*
X2811500Y2298279D01*
X2820000Y2297160D01*
X2828500Y2298279D01*
X2836420Y2301560D01*
X2843221Y2306779D01*
X2848440Y2313580D01*
X2851721Y2321500D01*
X2852840Y2330000D01*
X2851721Y2338500D01*
X2848440Y2346420D01*
X2843221Y2353221D01*
X2836420Y2358440D01*
X2828500Y2361721D01*
X2820000Y2362840D01*
D02*
G37*
G36*
X1140000Y2222840D02*
X1131500Y2221721D01*
X1123580Y2218440D01*
X1116779Y2213221D01*
X1111560Y2206420D01*
X1108279Y2198500D01*
X1107160Y2190000D01*
X1108279Y2181500D01*
X1111560Y2173580D01*
X1116779Y2166779D01*
X1123580Y2161560D01*
X1131500Y2158279D01*
X1140000Y2157160D01*
X1148500Y2158279D01*
X1156420Y2161560D01*
X1163221Y2166779D01*
X1168440Y2173580D01*
X1171721Y2181500D01*
X1172840Y2190000D01*
X1171721Y2198500D01*
X1168440Y2206420D01*
X1163221Y2213221D01*
X1156420Y2218440D01*
X1148500Y2221721D01*
X1140000Y2222840D01*
D02*
G37*
G36*
X1060000D02*
X1051500Y2221721D01*
X1043580Y2218440D01*
X1036779Y2213221D01*
X1031560Y2206420D01*
X1028279Y2198500D01*
X1027160Y2190000D01*
X1028279Y2181500D01*
X1031560Y2173580D01*
X1036779Y2166779D01*
X1043580Y2161560D01*
X1051500Y2158279D01*
X1060000Y2157160D01*
X1068500Y2158279D01*
X1076420Y2161560D01*
X1083221Y2166779D01*
X1088440Y2173580D01*
X1091721Y2181500D01*
X1092840Y2190000D01*
X1091721Y2198500D01*
X1088440Y2206420D01*
X1083221Y2213221D01*
X1076420Y2218440D01*
X1068500Y2221721D01*
X1060000Y2222840D01*
D02*
G37*
%LPD*%
D10*
X2628346Y2150000D02*
D03*
Y2100000D02*
D03*
Y2050000D02*
D03*
Y2000000D02*
D03*
Y1950000D02*
D03*
Y1900000D02*
D03*
Y1850000D02*
D03*
X2439370Y2150000D02*
D03*
Y2100000D02*
D03*
Y2050000D02*
D03*
Y2000000D02*
D03*
Y1950000D02*
D03*
Y1900000D02*
D03*
Y1850000D02*
D03*
D11*
X1386850Y1426300D02*
D03*
X1493150D02*
D03*
X1913150Y1260000D02*
D03*
X1806850D02*
D03*
X1833150Y1620000D02*
D03*
X1726850D02*
D03*
Y1520000D02*
D03*
X1833150D02*
D03*
X2573150Y2840000D02*
D03*
X2466850D02*
D03*
X1426850Y2480000D02*
D03*
X1533150D02*
D03*
X2525590Y1760000D02*
D03*
X2419292D02*
D03*
X2305590Y1780000D02*
D03*
X2199292D02*
D03*
X2639292Y2280000D02*
D03*
X2745590D02*
D03*
X2639292Y1760000D02*
D03*
X2745590D02*
D03*
X2345590Y2080000D02*
D03*
X2239292D02*
D03*
X2205590Y2200000D02*
D03*
X2099292D02*
D03*
D14*
X1373070Y1333150D02*
D03*
X1506930D02*
D03*
X2306300Y1900000D02*
D03*
X2172442D02*
D03*
D16*
X1387560Y1686300D02*
D03*
X1332440D02*
D03*
X2004882Y1280000D02*
D03*
X2060000D02*
D03*
X2555708Y2465512D02*
D03*
X2500590D02*
D03*
X1452442Y2860000D02*
D03*
X1507560D02*
D03*
X1995118Y2380000D02*
D03*
X1940000D02*
D03*
X2040000Y2740000D02*
D03*
X2095118D02*
D03*
X2780000Y2020000D02*
D03*
X2724882D02*
D03*
X2304882Y2000000D02*
D03*
X2360000D02*
D03*
X2380000Y2240000D02*
D03*
X2324882D02*
D03*
X2252442Y2000000D02*
D03*
X2197322D02*
D03*
X2560000Y2240000D02*
D03*
X2504882D02*
D03*
X2320000Y2160000D02*
D03*
X2264882D02*
D03*
D17*
X2660000Y2612442D02*
D03*
Y2667560D02*
D03*
X1340000Y2707560D02*
D03*
Y2652440D02*
D03*
X1847560Y2412442D02*
D03*
Y2467560D02*
D03*
X2840000Y2207560D02*
D03*
Y2152442D02*
D03*
D18*
X2120000Y1473150D02*
D03*
Y1366850D02*
D03*
X1260000Y1699448D02*
D03*
Y1593150D02*
D03*
Y1513150D02*
D03*
Y1406850D02*
D03*
X1600000Y1340000D02*
D03*
Y1446300D02*
D03*
X1640000Y1513150D02*
D03*
Y1619448D02*
D03*
X2360000Y2686850D02*
D03*
Y2793150D02*
D03*
Y2613150D02*
D03*
Y2506850D02*
D03*
X1640000Y2633150D02*
D03*
Y2526850D02*
D03*
Y2706850D02*
D03*
Y2813150D02*
D03*
X1847560Y2653150D02*
D03*
Y2546850D02*
D03*
X2167560Y2646850D02*
D03*
Y2753150D02*
D03*
Y2466850D02*
D03*
Y2573150D02*
D03*
X2739370Y1846850D02*
D03*
Y1953150D02*
D03*
X2752442Y2086850D02*
D03*
Y2193150D02*
D03*
X2112442Y2093150D02*
D03*
Y1986850D02*
D03*
D19*
X1135000Y1670000D02*
X1140000D01*
X1050000Y1585000D02*
X1135000Y1670000D01*
X1050000Y1335000D02*
Y1585000D01*
Y1335000D02*
X1225000Y1160000D01*
Y1060000D02*
Y1160000D01*
Y1060000D02*
X1235000Y1050000D01*
X2575000D01*
X1355000Y1440000D02*
Y1519448D01*
X1550000Y1440000D02*
X1590000D01*
X1520000Y1470000D02*
X1550000Y1440000D01*
X1490000Y1470000D02*
X1520000D01*
X1460414Y1499586D02*
X1490000Y1470000D01*
X1458862Y1499586D02*
X1460414D01*
X1439000Y1519448D02*
X1458862Y1499586D01*
X1380000Y1519448D02*
X1439000D01*
X1596300Y1446300D02*
X1600000D01*
X1588000D02*
X1596300D01*
X1590000Y1440000D02*
X1596300Y1446300D01*
X2420850Y2734000D02*
X2445000D01*
X2682000Y1804000D02*
Y1890000D01*
Y1776000D02*
Y1804000D01*
X2777000D01*
X2648000D02*
X2682000D01*
X2156000Y2466850D02*
Y2509000D01*
X1847560Y2496000D02*
X1885380Y2533820D01*
X1847560Y2467560D02*
Y2496000D01*
X1977449Y2453551D02*
X2019000Y2412000D01*
X1962000Y2469000D02*
X1977449Y2453551D01*
X2215000Y2000000D02*
Y2016000D01*
X2023000Y2613180D02*
X2039410D01*
X2573150Y2752000D02*
Y2801150D01*
X2517000Y2695850D02*
X2573150Y2752000D01*
X2191850Y2825000D02*
X2397796D01*
X1426850Y2517204D02*
X1451054D01*
X1339796D02*
X1426850D01*
X2466850Y2811534D02*
X2488188D01*
X2360000Y1980000D02*
Y2000000D01*
Y1953700D02*
Y1980000D01*
X2137000Y1972000D02*
Y1986850D01*
X2545000Y2514000D02*
X2562000D01*
X1438000Y2817000D02*
X1455000D01*
X1593662Y2813150D02*
X1640000D01*
X1555000Y2774488D02*
X1593662Y2813150D01*
X1977449Y2453551D02*
X1989410Y2465512D01*
X1901000Y2518820D02*
X1952000D01*
X1888000Y2428442D02*
Y2505820D01*
X1872000Y2412442D02*
X1888000Y2428442D01*
X1847560Y2412442D02*
X1872000D01*
X1756000Y1928780D02*
X1843308D01*
X1633440Y1806220D02*
X1756000Y1928780D01*
X2752442Y1988000D02*
Y2086850D01*
Y1988000D02*
X2803000D01*
X2898560Y1892440D01*
X2946000D01*
X2957560Y1904000D01*
Y2025440D01*
X2840000Y2143000D02*
X2957560Y2025440D01*
X2840000Y2143000D02*
Y2152442D01*
X2375590Y2050000D02*
X2439370D01*
X2345590Y2080000D02*
X2375590Y2050000D01*
X1505000Y2585512D02*
Y2629820D01*
X1496000Y2638820D02*
X1505000Y2629820D01*
X1433000Y2638820D02*
X1496000D01*
X1433000Y2541204D02*
Y2638820D01*
X1424000Y2532204D02*
X1433000Y2541204D01*
X1383000Y2532204D02*
X1424000D01*
X1312000Y2603204D02*
X1383000Y2532204D01*
X1312000Y2603204D02*
Y2680000D01*
X1530000D01*
X1600000Y2750000D01*
X1687362D01*
X1791850Y2854488D01*
X2575000Y1050000D02*
Y1841000D01*
X2584000Y1850000D01*
X2628346D01*
X1455000Y2774488D02*
Y2817000D01*
X1426000Y2829000D02*
X1438000Y2817000D01*
X1426000Y2829000D02*
Y2936000D01*
X2628346Y1833346D02*
Y1850000D01*
X2607000Y1812000D02*
X2628346Y1833346D01*
X2607000Y1715000D02*
Y1812000D01*
Y1715000D02*
X2656000Y1666000D01*
X2764000D01*
X2848000Y1750000D01*
X2901000D01*
X3003000Y1852000D01*
Y2624000D01*
X2959000Y2668000D02*
X3003000Y2624000D01*
X2894000Y2668000D02*
X2959000D01*
X2882000Y2656000D02*
X2894000Y2668000D01*
X2882000Y2368000D02*
Y2656000D01*
Y2368000D02*
X2920000Y2330000D01*
X1225000Y1832000D02*
X1300000Y1757000D01*
X1118000Y1832000D02*
X1225000D01*
X1060000Y1890000D02*
X1118000Y1832000D01*
X1851338Y2895000D02*
X1891850Y2854488D01*
X1599000Y2895000D02*
X1851338D01*
X1533000Y2829000D02*
X1599000Y2895000D01*
X1533000Y2736000D02*
Y2829000D01*
X1507000Y2710000D02*
X1533000Y2736000D01*
X1401000Y2710000D02*
X1507000D01*
X1359000Y2752000D02*
X1401000Y2710000D01*
X1329000Y2752000D02*
X1359000D01*
X1297000Y2720000D02*
X1329000Y2752000D01*
X1297000Y2560000D02*
Y2720000D01*
Y2560000D02*
X1339796Y2517204D01*
X1455000Y2521150D02*
Y2585512D01*
X1451054Y2517204D02*
X1455000Y2521150D01*
X1426850Y2480000D02*
Y2517204D01*
X2545000Y2514000D02*
Y2545512D01*
X2562000Y2514000D02*
X2582000Y2494000D01*
Y2360000D02*
Y2494000D01*
X2528000Y2306000D02*
X2582000Y2360000D01*
X2134000Y2306000D02*
X2528000D01*
X1813000Y1985000D02*
X2134000Y2306000D01*
X2920000Y2630000D02*
X2988000Y2562000D01*
Y1872000D02*
Y2562000D01*
X2962000Y1846000D02*
X2988000Y1872000D01*
X2819000Y1846000D02*
X2962000D01*
X2777000Y1804000D02*
X2819000Y1846000D01*
X2639292Y1795292D02*
X2648000Y1804000D01*
X2639292Y1760000D02*
Y1795292D01*
X2920000Y2230000D02*
X2972560Y2177440D01*
Y1888000D02*
Y2177440D01*
X2962000Y1877440D02*
X2972560Y1888000D01*
X2882000Y1877440D02*
X2962000D01*
X2867440Y1892000D02*
X2882000Y1877440D01*
X2711000Y1892000D02*
X2867440D01*
X2676000Y1927000D02*
X2711000Y1892000D01*
X2562000Y1927000D02*
X2676000D01*
X2505000Y1984000D02*
X2562000Y1927000D01*
X2505000Y1984000D02*
Y2080000D01*
X2485000Y2100000D02*
X2505000Y2080000D01*
X2439370Y2100000D02*
X2485000D01*
X2299000Y2160000D02*
X2320000D01*
X2291000Y2152000D02*
X2299000Y2160000D01*
X2291000Y2088000D02*
Y2152000D01*
X2321150Y2686850D02*
X2360000D01*
X2304000Y2704000D02*
X2321150Y2686850D01*
X2140000Y2704000D02*
X2304000D01*
X2124000Y2720000D02*
X2140000Y2704000D01*
X2124000Y2720000D02*
Y2760000D01*
X2112000Y2772000D02*
X2124000Y2760000D01*
X2069000Y2772000D02*
X2112000D01*
X2069000Y2718590D02*
Y2772000D01*
X2039410Y2689000D02*
X2069000Y2718590D01*
X2039410Y2654488D02*
Y2689000D01*
X1991850Y2854488D02*
X2043338Y2803000D01*
X2106150D01*
X2156000Y2753150D01*
X2167560D01*
X2655000Y2384000D02*
Y2544000D01*
X2553718Y2282718D02*
X2655000Y2384000D01*
X2170010Y2282718D02*
X2553718D01*
X2099292Y2212000D02*
X2170010Y2282718D01*
X2099292Y2200000D02*
Y2212000D01*
X2560882Y2150000D02*
X2628346D01*
X2504882Y2206000D02*
X2560882Y2150000D01*
X2504882Y2206000D02*
Y2240000D01*
X2544000Y2193150D02*
X2752442D01*
X2534000Y2203150D02*
X2544000Y2193150D01*
X2534000Y2203150D02*
Y2267718D01*
X2354000D02*
X2534000D01*
X2354000Y2248000D02*
Y2267718D01*
X2346000Y2240000D02*
X2354000Y2248000D01*
X2324882Y2240000D02*
X2346000D01*
X2560000D02*
X2579000D01*
X2598000Y2221000D01*
X2528000Y1984000D02*
Y2051000D01*
Y1984000D02*
X2562000Y1950000D01*
X2628346D01*
X1888000Y2505820D02*
X1901000Y2518820D01*
X1952000D02*
X1962000Y2508820D01*
Y2469000D02*
Y2508820D01*
X2019000Y2412000D02*
X2192000D01*
X2212000Y2432000D01*
Y2573150D01*
X2167560D02*
X2212000D01*
X2242872Y2240000D02*
X2324882D01*
X2205590Y2202718D02*
X2242872Y2240000D01*
X2205590Y2200000D02*
Y2202718D01*
X2172442Y1900000D02*
X2208000D01*
X2260000Y1848000D01*
Y1744000D02*
Y1848000D01*
Y1744000D02*
X2284000Y1720000D01*
X2419292D01*
Y1760000D01*
X2484000Y1950000D02*
X2584000Y1850000D01*
X2439370Y1950000D02*
X2484000D01*
X2306300Y1900000D02*
X2360000Y1953700D01*
X1885380Y2533820D02*
X2017590D01*
X2039410Y2512000D01*
X2525590Y1760000D02*
Y1824000D01*
X2499590Y1850000D02*
X2525590Y1824000D01*
X2439370Y1850000D02*
X2499590D01*
X1355000Y1519448D02*
X1380000D01*
X1321850Y1406850D02*
X1355000Y1440000D01*
X1260000Y1406850D02*
X1321850D01*
X2445000Y2734000D02*
Y2734488D01*
X2361700Y2793150D02*
X2420850Y2734000D01*
X2360000Y2793150D02*
X2361700D01*
X1564150Y2526850D02*
X1640000D01*
X1555000Y2536000D02*
X1564150Y2526850D01*
X1555000Y2536000D02*
Y2585512D01*
X2197322Y2000000D02*
X2215000D01*
Y2016000D02*
X2231000Y2032000D01*
X2337590D01*
X2345590Y2040000D01*
Y2080000D01*
X2707850Y2086850D02*
X2752442D01*
X2671000Y2050000D02*
X2707850Y2086850D01*
X2628346Y2050000D02*
X2671000D01*
X2884000Y1966000D02*
X2920000Y1930000D01*
X2884000Y1966000D02*
Y2037000D01*
X2802000Y2119000D02*
X2884000Y2037000D01*
X2704000Y2119000D02*
X2802000D01*
X2686000Y2101000D02*
X2704000Y2119000D01*
X2686000Y2088000D02*
Y2101000D01*
X2673000Y2075000D02*
X2686000Y2088000D01*
X2571000Y2075000D02*
X2673000D01*
X2496000Y2150000D02*
X2571000Y2075000D01*
X2439370Y2150000D02*
X2496000D01*
X2639292Y2244708D02*
Y2280000D01*
Y2244708D02*
X2648000Y2236000D01*
X2885000D01*
X2891000Y2230000D01*
X2920000D01*
X2639292Y1760000D02*
X2666000D01*
X2682000Y1776000D01*
X2672000Y1900000D02*
X2682000Y1890000D01*
X2628346Y1900000D02*
X2672000D01*
X2039410Y2613180D02*
Y2654488D01*
X2011000Y2601180D02*
X2023000Y2613180D01*
X1928000Y2601180D02*
X2011000D01*
X1908180Y2621000D02*
X1928000Y2601180D01*
X1652150Y2621000D02*
X1908180D01*
X1640000Y2633150D02*
X1652150Y2621000D01*
X2112442Y1986850D02*
X2137000D01*
Y1972000D02*
X2352000D01*
X2360000Y1980000D01*
X2091850Y2854488D02*
X2119488D01*
X2164000Y2899000D01*
X2412488D01*
X2466850Y2844638D01*
Y2840000D02*
Y2844638D01*
Y2811534D02*
Y2840000D01*
X2488188Y2779812D02*
Y2811534D01*
Y2779812D02*
X2495000Y2773000D01*
Y2734488D02*
Y2773000D01*
X2191850Y2825000D02*
Y2854488D01*
X2397796Y2825000D02*
X2435000Y2787796D01*
X2464000D01*
X2472000Y2779796D01*
Y2689180D02*
Y2779796D01*
Y2689180D02*
X2480000Y2681180D01*
X2517000D01*
Y2695850D01*
X2156000Y2466850D02*
X2167560D01*
X2137000Y2528000D02*
X2156000Y2509000D01*
X2055410Y2528000D02*
X2137000D01*
X2039410Y2512000D02*
X2055410Y2528000D01*
X2039410Y2465512D02*
Y2512000D01*
X1890158Y2654488D02*
X1939410D01*
X1883762Y2660884D02*
X1890158Y2654488D01*
X1876028Y2653150D02*
X1883762Y2660884D01*
X1847560Y2653150D02*
X1876028D01*
X1321070Y1596220D02*
X1380000D01*
X1318000Y1593150D02*
X1321070Y1596220D01*
X1260000Y1593150D02*
X1318000D01*
X2067764Y1366850D02*
X2120000D01*
X2053000Y1381614D02*
X2067764Y1366850D01*
X2002678Y1381614D02*
X2053000D01*
X2421662Y2545512D02*
X2445000D01*
X2383000Y2506850D02*
X2421662Y2545512D01*
X2360000Y2506850D02*
X2383000D01*
X1939410Y2654488D02*
X1989410D01*
X1847560Y2496000D02*
Y2546850D01*
X2167560Y2573150D02*
Y2646850D01*
X2182150Y2080000D02*
X2239292D01*
X2169000Y2093150D02*
X2182150Y2080000D01*
X2112442Y2093150D02*
X2169000D01*
X2264882Y2132590D02*
Y2160000D01*
X2239292Y2107000D02*
X2264882Y2132590D01*
X2239292Y2080000D02*
Y2107000D01*
X2685150Y1953150D02*
X2739370D01*
X2682000Y1950000D02*
X2685150Y1953150D01*
X2628346Y1950000D02*
X2682000D01*
X2628346Y2100000D02*
Y2150000D01*
X2380000Y2240000D02*
X2504882D01*
X2360000Y2613150D02*
Y2686850D01*
X1640000Y2633150D02*
Y2706850D01*
X2573150Y2801150D02*
Y2840000D01*
X2545000Y2773000D02*
X2573150Y2801150D01*
X2545000Y2734488D02*
Y2773000D01*
X1505000Y2546150D02*
Y2585512D01*
Y2546150D02*
X1533150Y2518000D01*
Y2480000D02*
Y2518000D01*
X2306300Y1900000D02*
X2439370D01*
X2306300Y1839710D02*
Y1900000D01*
X2305590Y1839000D02*
X2306300Y1839710D01*
X2305590Y1780000D02*
Y1839000D01*
X2384000Y2150000D02*
X2439370D01*
X2374000Y2160000D02*
X2384000Y2150000D01*
X2320000Y2160000D02*
X2374000D01*
X1686850Y1520000D02*
X1726850D01*
X1680000Y1513150D02*
X1686850Y1520000D01*
X1640000Y1513150D02*
X1680000D01*
D20*
X1939410Y2371590D02*
X1955500Y2355500D01*
X1939410Y2380000D02*
X1940000D01*
X1840930D02*
X1939410D01*
X2095118Y2684000D02*
X2240000D01*
X2615440Y2667560D02*
X2660000D01*
X2599560D02*
X2615440D01*
X2089410Y2603410D02*
Y2606410D01*
X2064180Y2581180D02*
X2089410Y2606410D01*
X2064000Y2581000D02*
X2064180Y2581180D01*
X2067180D01*
X1907018D02*
X2064180D01*
X2311000Y2490000D02*
Y2539000D01*
X1689000Y2315000D02*
Y2395000D01*
X1714000Y2253070D02*
X1840930Y2380000D01*
X1466000Y2253070D02*
X1714000D01*
X2258000Y2433000D02*
X2486976D01*
X2500590Y2465512D01*
X2412000Y2347000D02*
Y2358024D01*
X2500590Y2365590D02*
Y2465512D01*
X1940000Y2380000D02*
Y2421410D01*
X1939410Y2465512D02*
X1940000Y2421410D01*
X1482000Y1647000D02*
Y1882000D01*
X1955500Y2355500D01*
X1964000Y2347000D01*
X2482000D02*
X2500590Y2365590D01*
X2593000Y2661000D02*
X2599560Y2667560D01*
X2488000Y2661000D02*
X2593000D01*
X2375000Y2548000D02*
X2488000Y2661000D01*
X2320000Y2548000D02*
X2375000D01*
X2311000Y2539000D02*
X2320000Y2548000D01*
X2433000Y2470000D02*
X2443000Y2480000D01*
X2089410Y2654488D02*
Y2684000D01*
X2240000D02*
X2300000Y2624000D01*
Y2490000D02*
Y2624000D01*
Y2490000D02*
X2311000D01*
Y2479000D02*
Y2490000D01*
Y2479000D02*
X2320000Y2470000D01*
X2433000D01*
X2095118Y2684000D02*
Y2740000D01*
X2089410Y2654488D02*
X2095118Y2684000D01*
X1897000Y2581000D02*
X2064000D01*
X1894000Y2584000D02*
X1897000Y2581000D01*
X1717000Y2584000D02*
X1894000D01*
X1689000Y2395000D02*
Y2556000D01*
X1598000Y2304000D02*
X1689000Y2395000D01*
X1470000Y2304000D02*
X1598000D01*
X1438000Y2272000D02*
X1470000Y2304000D01*
X1438000Y1645448D02*
Y2272000D01*
Y1645448D02*
X1464000Y1619448D01*
X1640000D01*
X1384488Y2585512D02*
X1405000D01*
X1340000Y2630000D02*
X1384488Y2585512D01*
X1340000Y2630000D02*
Y2652440D01*
X2089410Y2606410D02*
Y2654488D01*
X1689000Y2556000D02*
X1717000Y2584000D01*
X1664000Y2290000D02*
X1689000Y2315000D01*
X1507560Y2860000D02*
Y2893560D01*
X1547000Y2933000D01*
X2656000D01*
X2693000Y2896000D01*
Y2581000D02*
Y2896000D01*
X2631000Y2581000D02*
X2693000D01*
X2592000Y2620000D02*
X2631000Y2581000D01*
X2518000Y2620000D02*
X2592000D01*
X2495000Y2597000D02*
X2518000Y2620000D01*
X2495000Y2545512D02*
Y2597000D01*
X2060000Y1280000D02*
X2380000D01*
X2520000Y1140000D01*
X2562000Y2000000D02*
X2628346D01*
X2595000Y2688000D02*
X2615440Y2667560D01*
X2595000Y2688000D02*
Y2734488D01*
X2067180Y2581180D02*
X2089410Y2603410D01*
X1894198Y2594000D02*
X1907018Y2581180D01*
X1600000Y2594000D02*
X1894198D01*
X1587000Y2607000D02*
X1600000Y2594000D01*
X1587000Y2607000D02*
Y2633440D01*
X1561620Y2658820D02*
X1587000Y2633440D01*
X1369568Y2658820D02*
X1561620D01*
X1363188Y2652440D02*
X1369568Y2658820D01*
X1340000Y2652440D02*
X1363188D01*
X2686000Y2020000D02*
X2724882D01*
X2666000Y2000000D02*
X2686000Y2020000D01*
X2628346Y2000000D02*
X2666000D01*
X1507560Y2817560D02*
Y2860000D01*
X1505000Y2815000D02*
X1507560Y2817560D01*
X1505000Y2774488D02*
Y2815000D01*
X2495000Y2507590D02*
Y2545512D01*
Y2507590D02*
X2500590Y2502000D01*
Y2465512D02*
Y2502000D01*
X1939410Y2371590D02*
Y2380000D01*
Y2465512D01*
X1964000Y2347000D02*
X2412000D01*
X2482000D01*
X2089410Y2684000D02*
X2095118D01*
D21*
X1100000Y1100000D02*
D03*
X2900000D02*
D03*
Y2900000D02*
D03*
X1100000D02*
D03*
D22*
X1140000Y1680000D02*
D03*
Y1360000D02*
D03*
X2860000Y1800000D02*
D03*
D23*
X1140000Y1780000D02*
D03*
Y1460000D02*
D03*
X2860000Y1700000D02*
D03*
Y1600000D02*
D03*
X2520000Y1140000D02*
D03*
X2420000D02*
D03*
X2320000D02*
D03*
X2220000D02*
D03*
X2120000D02*
D03*
X2191850Y2854488D02*
D03*
X2091850D02*
D03*
X1991850D02*
D03*
X1891850D02*
D03*
X1560000Y1140000D02*
D03*
D24*
X2620000D02*
D03*
X1791850Y2854488D02*
D03*
X1660000Y1140000D02*
D03*
D25*
X2820000Y2330000D02*
D03*
Y2630000D02*
D03*
X1060000Y2370000D02*
D03*
Y2670000D02*
D03*
X2920000Y2330000D02*
D03*
Y2630000D02*
D03*
X1060000Y2190000D02*
D03*
Y1890000D02*
D03*
X2920000Y1930000D02*
D03*
Y2230000D02*
D03*
X1140000Y2190000D02*
D03*
Y1890000D02*
D03*
D26*
X1235000Y2340000D02*
D03*
X1895000Y1020000D02*
D03*
X1910000Y1135000D02*
D03*
X1410000Y1015000D02*
D03*
X1425000Y1135000D02*
D03*
X2640000Y1470000D02*
D03*
X2450000D02*
D03*
X2650000Y2625000D02*
D03*
X2245000Y2605000D02*
D03*
X1240000Y2585000D02*
D03*
X1735000Y2645000D02*
D03*
X2270000Y2755000D02*
D03*
X1400000Y1880000D02*
D03*
Y2010000D02*
D03*
X1345000Y2710000D02*
D03*
X2090000Y2465000D02*
D03*
X2040000Y2735000D02*
D03*
X2305000Y2000000D02*
D03*
X2785000Y2020000D02*
D03*
X2740000Y1840000D02*
D03*
X2745000Y1760000D02*
D03*
X1820000Y1610000D02*
D03*
X1970000Y1615000D02*
D03*
X1843308Y1928780D02*
D03*
X1633440Y1806220D02*
D03*
X1466000Y2253070D02*
D03*
X2258000Y2433000D02*
D03*
X2412000Y2358024D02*
D03*
X1482000Y1647000D02*
D03*
X2443000Y2480000D02*
D03*
X1426000Y2936000D02*
D03*
X1300000Y1757000D02*
D03*
X1664000Y2290000D02*
D03*
X1813000Y1985000D02*
D03*
X2291000Y2088000D02*
D03*
X2655000Y2544000D02*
D03*
X2598000Y2221000D02*
D03*
X2528000Y2051000D02*
D03*
X2562000Y2000000D02*
D03*
D27*
X1837322Y1381614D02*
D03*
Y1407204D02*
D03*
Y1432796D02*
D03*
Y1458386D02*
D03*
X2002678Y1381614D02*
D03*
Y1407204D02*
D03*
Y1432796D02*
D03*
Y1458386D02*
D03*
X1545354Y1596220D02*
D03*
Y1570630D02*
D03*
Y1545040D02*
D03*
Y1519448D02*
D03*
X1380000Y1596220D02*
D03*
Y1570630D02*
D03*
Y1545040D02*
D03*
Y1519448D02*
D03*
D28*
X2595000Y2545512D02*
D03*
X2545000D02*
D03*
X2495000D02*
D03*
X2445000D02*
D03*
X2595000Y2734488D02*
D03*
X2545000D02*
D03*
X2495000D02*
D03*
X2445000D02*
D03*
X1405000Y2774488D02*
D03*
X1455000D02*
D03*
X1505000D02*
D03*
X1555000D02*
D03*
X1405000Y2585512D02*
D03*
X1455000D02*
D03*
X1505000D02*
D03*
X1555000D02*
D03*
X2089410Y2465512D02*
D03*
X2039410D02*
D03*
X1989410D02*
D03*
X1939410D02*
D03*
X2089410Y2654488D02*
D03*
X2039410D02*
D03*
X1989410D02*
D03*
X1939410D02*
D03*
%TF.MD5,10c2d99dade7ceb5a3eb0ec57c100ff8*%
M02*
