G04 Layer_Color=128*
%FSLAX26Y26*%
%MOIN*%
%TF.FileFunction,Paste,Bot*%
%TF.Part,Single*%
G01*
G75*
%TA.AperFunction,SMDPad,CuDef*%
%ADD10R,0.035433X0.031496*%
%ADD11R,0.031496X0.035433*%
%ADD12O,0.086614X0.023622*%
%ADD13R,0.043307X0.066929*%
%ADD14R,0.066929X0.043307*%
%ADD16R,0.033465X0.062992*%
%ADD26R,0.062992X0.033465*%
%TA.AperFunction,ConnectorPad*%
%ADD27R,0.066929X0.043307*%
D10*
X1362150Y1603118D02*
D03*
Y1548000D02*
D03*
X1369000Y2506528D02*
D03*
Y2451410D02*
D03*
D11*
X1889708Y1758000D02*
D03*
X1834590D02*
D03*
X1774708D02*
D03*
X1719590D02*
D03*
X2644708Y1468000D02*
D03*
X2589590D02*
D03*
X2164590Y1358000D02*
D03*
X2219708D02*
D03*
X2519708Y1738000D02*
D03*
X2464590D02*
D03*
X2314708Y1713000D02*
D03*
X2259590D02*
D03*
X2644708Y1533000D02*
D03*
X2589590D02*
D03*
X2109708Y1838000D02*
D03*
X2054590D02*
D03*
X1896560Y2661410D02*
D03*
X1841442D02*
D03*
X1781560D02*
D03*
X1726442D02*
D03*
X2651560Y2371410D02*
D03*
X2596442D02*
D03*
X2171442Y2261410D02*
D03*
X2226560D02*
D03*
X2526560Y2641410D02*
D03*
X2471442D02*
D03*
X2321560Y2616410D02*
D03*
X2266442D02*
D03*
X2651560Y2436410D02*
D03*
X2596442D02*
D03*
X2116560Y2741410D02*
D03*
X2061442D02*
D03*
X1714590Y1598000D02*
D03*
X1769708D02*
D03*
X1394708Y1393000D02*
D03*
X1339590D02*
D03*
X2649708Y1598000D02*
D03*
X2594590D02*
D03*
X1721442Y2501410D02*
D03*
X1776560D02*
D03*
X1401560Y2296410D02*
D03*
X1346442D02*
D03*
X2656560Y2501410D02*
D03*
X2601442D02*
D03*
D12*
X1633488Y1753000D02*
D03*
Y1703000D02*
D03*
Y1653000D02*
D03*
Y1603000D02*
D03*
Y1553000D02*
D03*
Y1503000D02*
D03*
Y1453000D02*
D03*
X1444512Y1753000D02*
D03*
Y1703000D02*
D03*
Y1653000D02*
D03*
Y1603000D02*
D03*
Y1553000D02*
D03*
Y1503000D02*
D03*
Y1453000D02*
D03*
X2501126Y1618000D02*
D03*
Y1568000D02*
D03*
Y1518000D02*
D03*
Y1468000D02*
D03*
Y1418000D02*
D03*
Y1368000D02*
D03*
Y1318000D02*
D03*
X2312150Y1618000D02*
D03*
Y1568000D02*
D03*
Y1518000D02*
D03*
Y1468000D02*
D03*
Y1418000D02*
D03*
Y1368000D02*
D03*
Y1318000D02*
D03*
X1640338Y2656410D02*
D03*
Y2606410D02*
D03*
Y2556410D02*
D03*
Y2506410D02*
D03*
Y2456410D02*
D03*
Y2406410D02*
D03*
Y2356410D02*
D03*
X1451362Y2656410D02*
D03*
Y2606410D02*
D03*
Y2556410D02*
D03*
Y2506410D02*
D03*
Y2456410D02*
D03*
Y2406410D02*
D03*
Y2356410D02*
D03*
X2507976Y2521410D02*
D03*
Y2471410D02*
D03*
Y2421410D02*
D03*
Y2371410D02*
D03*
Y2321410D02*
D03*
Y2271410D02*
D03*
Y2221410D02*
D03*
X2319000Y2521410D02*
D03*
Y2471410D02*
D03*
Y2421410D02*
D03*
Y2371410D02*
D03*
Y2321410D02*
D03*
Y2271410D02*
D03*
Y2221410D02*
D03*
D13*
X1334000Y1833000D02*
D03*
X1440300D02*
D03*
X1244000Y1708000D02*
D03*
X1350300D02*
D03*
X1724000Y1503000D02*
D03*
X1830300D02*
D03*
X1679000Y1368000D02*
D03*
X1785300D02*
D03*
X1724000Y1683000D02*
D03*
X1830300D02*
D03*
X1874000Y1368000D02*
D03*
X1980300D02*
D03*
X2254000Y1808000D02*
D03*
X2360300D02*
D03*
X2034000Y1738000D02*
D03*
X2140300D02*
D03*
X1564000Y1833000D02*
D03*
X1670300D02*
D03*
X1895300D02*
D03*
X1789000D02*
D03*
X1250850Y2611410D02*
D03*
X1357150D02*
D03*
X1340850Y2736410D02*
D03*
X1447150D02*
D03*
X1730850Y2406410D02*
D03*
X1837150D02*
D03*
X1685850Y2271410D02*
D03*
X1792150D02*
D03*
X1730850Y2586410D02*
D03*
X1837150D02*
D03*
X1880850Y2271410D02*
D03*
X1987150D02*
D03*
X2040850Y2641410D02*
D03*
X2147150D02*
D03*
X2260850Y2711410D02*
D03*
X2367150D02*
D03*
X1902150Y2736410D02*
D03*
X1795850D02*
D03*
X1570850D02*
D03*
X1677150D02*
D03*
D14*
X1912150Y1676150D02*
D03*
Y1569850D02*
D03*
X2072150Y1406150D02*
D03*
Y1299850D02*
D03*
X2052150Y1509850D02*
D03*
Y1616150D02*
D03*
X2627150Y1289850D02*
D03*
Y1396150D02*
D03*
X2737150Y1676150D02*
D03*
Y1569850D02*
D03*
X1919000Y2579560D02*
D03*
Y2473260D02*
D03*
X2079000Y2309560D02*
D03*
Y2203260D02*
D03*
X2059000Y2413260D02*
D03*
Y2519560D02*
D03*
X2634000Y2193260D02*
D03*
Y2299560D02*
D03*
X2744000Y2579560D02*
D03*
Y2473260D02*
D03*
D16*
X1277150Y1614930D02*
D03*
Y1481070D02*
D03*
X2172150D02*
D03*
Y1614930D02*
D03*
X1284000Y2518338D02*
D03*
Y2384480D02*
D03*
X2179000D02*
D03*
Y2518338D02*
D03*
D26*
X1214078Y1393000D02*
D03*
X1080220D02*
D03*
X1220930Y2296410D02*
D03*
X1087072D02*
D03*
D27*
X1167150Y1616150D02*
D03*
Y1509850D02*
D03*
X1174000Y2519560D02*
D03*
Y2413260D02*
D03*
%TF.MD5,99017a6fdd85d7338a1b76ac9d98a167*%
M02*
