G04 Layer_Color=255*
%FSLAX26Y26*%
%MOIN*%
%TF.FileFunction,Pads,Top*%
%TF.Part,Single*%
G01*
G75*
%TA.AperFunction,SMDPad,CuDef*%
%ADD10O,0.023622X0.086614*%
%ADD11R,0.043307X0.066929*%
%ADD12R,0.066929X0.043307*%
%ADD13R,0.033465X0.062992*%
%ADD14O,0.066929X0.017716*%
%ADD15O,0.086614X0.023622*%
G04:AMPARAMS|DCode=16|XSize=55.118mil|YSize=43.307mil|CornerRadius=0mil|HoleSize=0mil|Usage=FLASHONLY|Rotation=45.000|XOffset=0mil|YOffset=0mil|HoleType=Round|Shape=Rectangle|*
%AMROTATEDRECTD16*
4,1,4,-0.004176,-0.034799,-0.034799,-0.004176,0.004176,0.034799,0.034799,0.004176,-0.004176,-0.034799,0.0*
%
%ADD16ROTATEDRECTD16*%

%ADD17R,0.043307X0.055118*%
%ADD18R,0.031496X0.035433*%
G04:AMPARAMS|DCode=19|XSize=66.929mil|YSize=43.307mil|CornerRadius=0mil|HoleSize=0mil|Usage=FLASHONLY|Rotation=135.000|XOffset=0mil|YOffset=0mil|HoleType=Round|Shape=Rectangle|*
%AMROTATEDRECTD19*
4,1,4,0.038974,-0.008352,0.008352,-0.038974,-0.038974,0.008352,-0.008352,0.038974,0.038974,-0.008352,0.0*
%
%ADD19ROTATEDRECTD19*%

G04:AMPARAMS|DCode=20|XSize=21.654mil|YSize=62.992mil|CornerRadius=0mil|HoleSize=0mil|Usage=FLASHONLY|Rotation=135.000|XOffset=0mil|YOffset=0mil|HoleType=Round|Shape=Round|*
%AMOVALD20*
21,1,0.041339,0.021654,0.000000,0.000000,225.0*
1,1,0.021654,0.014615,0.014615*
1,1,0.021654,-0.014615,-0.014615*
%
%ADD20OVALD20*%

G04:AMPARAMS|DCode=21|XSize=21.654mil|YSize=62.992mil|CornerRadius=0mil|HoleSize=0mil|Usage=FLASHONLY|Rotation=45.000|XOffset=0mil|YOffset=0mil|HoleType=Round|Shape=Round|*
%AMOVALD21*
21,1,0.041339,0.021654,0.000000,0.000000,135.0*
1,1,0.021654,0.014615,-0.014615*
1,1,0.021654,-0.014615,0.014615*
%
%ADD21OVALD21*%

%ADD22R,0.011024X0.019685*%
%ADD23R,0.062992X0.035433*%
%TA.AperFunction,ComponentPad*%
%ADD25C,0.055118*%
%ADD26C,0.059055*%
%ADD27R,0.059055X0.059055*%
%ADD28R,0.059055X0.059055*%
%TA.AperFunction,ViaPad*%
%ADD29C,0.100000*%
D10*
X2541472Y2578362D02*
D03*
X2591472D02*
D03*
X2491472D02*
D03*
X2441472D02*
D03*
X2541472Y2767338D02*
D03*
X2591472D02*
D03*
X2491472D02*
D03*
X2441472D02*
D03*
X1558528Y2748488D02*
D03*
X1508528D02*
D03*
X1458528D02*
D03*
X1408528D02*
D03*
Y2559512D02*
D03*
X1458528D02*
D03*
X1508528D02*
D03*
X1558528D02*
D03*
D11*
X1294764Y1352322D02*
D03*
X1158150Y1490000D02*
D03*
X1188464Y1352322D02*
D03*
X1051852Y1490000D02*
D03*
X1198850Y1609000D02*
D03*
X1305150D02*
D03*
X1446850Y1515000D02*
D03*
X1553150D02*
D03*
X1536850Y1270000D02*
D03*
X1643150D02*
D03*
X1711850D02*
D03*
X1818150D02*
D03*
X2453150Y2466850D02*
D03*
X2346850D02*
D03*
X2121300Y2710000D02*
D03*
X2015000D02*
D03*
X1951300D02*
D03*
X1845000D02*
D03*
X1653150Y2860000D02*
D03*
X1546850D02*
D03*
D12*
X1456850Y1335000D02*
D03*
Y1441300D02*
D03*
X1895000Y1261850D02*
D03*
Y1368150D02*
D03*
Y1431850D02*
D03*
Y1538150D02*
D03*
X2183150Y2446850D02*
D03*
Y2553150D02*
D03*
X2360000Y2543700D02*
D03*
Y2650000D02*
D03*
Y2713700D02*
D03*
Y2820000D02*
D03*
X1640000Y2783150D02*
D03*
Y2676850D02*
D03*
Y2613150D02*
D03*
Y2506850D02*
D03*
D13*
X1800000Y1353070D02*
D03*
Y1486930D02*
D03*
D14*
X1544174Y1349764D02*
D03*
Y1375354D02*
D03*
Y1400944D02*
D03*
Y1426536D02*
D03*
X1709528Y1375354D02*
D03*
Y1349764D02*
D03*
Y1400944D02*
D03*
Y1426536D02*
D03*
D15*
X2072638Y2470000D02*
D03*
Y2520000D02*
D03*
Y2570000D02*
D03*
Y2620000D02*
D03*
X1883662D02*
D03*
Y2570000D02*
D03*
Y2520000D02*
D03*
Y2470000D02*
D03*
D16*
X1758242Y1791758D02*
D03*
X1800000Y1750000D02*
D03*
X2220000Y2195000D02*
D03*
X2178242Y2236758D02*
D03*
D17*
X1820000Y2405000D02*
D03*
X1879056D02*
D03*
X2158622Y2620000D02*
D03*
X2217678D02*
D03*
X2495472Y2861850D02*
D03*
X2554528D02*
D03*
X2525472Y2461850D02*
D03*
X2584528D02*
D03*
X1504528Y2465000D02*
D03*
X1445472D02*
D03*
X1474528Y2865000D02*
D03*
X1415472D02*
D03*
D18*
X1664292Y1488150D02*
D03*
X1719410D02*
D03*
X1335558Y1686000D02*
D03*
X1280440D02*
D03*
D19*
X2162418Y1732416D02*
D03*
X2237584Y1807582D02*
D03*
D20*
X1879318Y1790488D02*
D03*
X1901590Y1768218D02*
D03*
X1923860Y1745946D02*
D03*
X1946132Y1723676D02*
D03*
X1857048Y1812760D02*
D03*
X1834776Y1835030D02*
D03*
X1812506Y1857302D02*
D03*
X1767964Y1901844D02*
D03*
X1745692Y1924114D02*
D03*
X1723420Y1946386D02*
D03*
X1790234Y1879572D02*
D03*
X2171626Y2127338D02*
D03*
X2193898Y2105068D02*
D03*
X2149356Y2149610D02*
D03*
X2127084Y2171880D02*
D03*
X2104814Y2194152D02*
D03*
X2216168Y2082796D02*
D03*
X2238440Y2060526D02*
D03*
X2260710Y2038254D02*
D03*
X2082542Y2216422D02*
D03*
X2060272Y2238694D02*
D03*
X2038000Y2260964D02*
D03*
D21*
X2038000Y1723676D02*
D03*
X2060272Y1745946D02*
D03*
X2082542Y1768218D02*
D03*
X2104814Y1790488D02*
D03*
X2127084Y1812760D02*
D03*
X2149356Y1835030D02*
D03*
X2171626Y1857302D02*
D03*
X2193898Y1879572D02*
D03*
X2216168Y1901844D02*
D03*
X2238440Y1924114D02*
D03*
X2260710Y1946386D02*
D03*
X1901590Y2216422D02*
D03*
X1923860Y2238694D02*
D03*
X1946132Y2260966D02*
D03*
X1879318Y2194152D02*
D03*
X1857048Y2171880D02*
D03*
X1834776Y2149610D02*
D03*
X1812506Y2127338D02*
D03*
X1790234Y2105068D02*
D03*
X1767964Y2082796D02*
D03*
X1745692Y2060526D02*
D03*
X1723420Y2038254D02*
D03*
D22*
X1219472Y1456598D02*
D03*
X1239158D02*
D03*
X1258842D02*
D03*
X1278528D02*
D03*
Y1531402D02*
D03*
X1258842D02*
D03*
X1239158D02*
D03*
X1219472D02*
D03*
D23*
X1249000Y1494000D02*
D03*
D25*
X1635000Y1145000D02*
D03*
X1935000D02*
D03*
X2145000Y1255000D02*
D03*
X2445000D02*
D03*
X2730000Y1885000D02*
D03*
Y2020000D02*
D03*
X2430000D02*
D03*
Y1885000D02*
D03*
X2906066Y2518934D02*
D03*
X2693934Y2731066D02*
D03*
X1450000Y1985000D02*
D03*
X1150000D02*
D03*
D26*
X1450000Y1150000D02*
D03*
X2250000D02*
D03*
X2350000D02*
D03*
X2450000D02*
D03*
X2550000D02*
D03*
X2650000D02*
D03*
X2850000Y1600000D02*
D03*
Y1700000D02*
D03*
Y2100000D02*
D03*
Y2400000D02*
D03*
X2100000Y2850000D02*
D03*
X2000000D02*
D03*
X1900000D02*
D03*
X1800000D02*
D03*
D27*
X2850000Y1500000D02*
D03*
Y2000000D02*
D03*
Y2300000D02*
D03*
D28*
X1350000Y1150000D02*
D03*
X2150000D02*
D03*
X2200000Y2850000D02*
D03*
D29*
X1100000Y1100000D02*
D03*
X2900000D02*
D03*
Y2900000D02*
D03*
X1100000D02*
D03*
%TF.MD5,f70b4cf294aaeca1975b19110dd52690*%
M02*
