G04 Layer_Physical_Order=1*
G04 Layer_Color=255*
%FSLAX26Y26*%
%MOIN*%
%TF.FileFunction,Copper,L1,Top,Signal*%
%TF.Part,Single*%
G01*
G75*
%TA.AperFunction,SMDPad,CuDef*%
%ADD10R,0.031496X0.035433*%
%ADD11R,0.043307X0.066929*%
%ADD12R,0.066929X0.043307*%
%ADD13O,0.086614X0.023622*%
%ADD14R,0.035433X0.031496*%
%ADD15R,0.033465X0.062992*%
%ADD16O,0.066929X0.017716*%
%TA.AperFunction,Conductor*%
%ADD17C,0.010000*%
%ADD18C,0.020000*%
%TA.AperFunction,ViaPad*%
%ADD19C,0.160000*%
%TA.AperFunction,ComponentPad*%
%ADD20R,0.059055X0.059055*%
%ADD21C,0.059055*%
%ADD22R,0.059055X0.059055*%
%ADD23C,0.055118*%
%TA.AperFunction,ViaPad*%
%ADD24C,0.050000*%
G36*
X2278291Y2334275D02*
X2285506Y2329454D01*
X2294016Y2327762D01*
X2311317D01*
X2314147Y2325870D01*
X2320000Y2324706D01*
X2325853Y2325870D01*
X2328683Y2327762D01*
X2357008D01*
X2363525Y2329058D01*
X2368525Y2325908D01*
Y2295229D01*
X2361778Y2288483D01*
X2360000D01*
X2354147Y2287319D01*
X2350358Y2284787D01*
X2348378Y2284155D01*
X2344077Y2284963D01*
X2343884Y2285069D01*
X2343299Y2285460D01*
X2342692Y2286098D01*
X2341660Y2286555D01*
X2340723Y2287182D01*
X2339860Y2287353D01*
X2339055Y2287710D01*
X2337927Y2287738D01*
X2336821Y2287958D01*
X2295020D01*
X2287767Y2289400D01*
X2287265Y2289608D01*
X2286261Y2289608D01*
X2285276Y2289804D01*
X2268469D01*
X2267809Y2289673D01*
X2267138Y2289717D01*
X2265876Y2289288D01*
X2264568Y2289028D01*
X2264008Y2288654D01*
X2263371Y2288438D01*
X2262369Y2287559D01*
X2261260Y2286818D01*
X2260886Y2286258D01*
X2260380Y2285815D01*
X2257691Y2282309D01*
X2252509Y2278334D01*
X2246475Y2275834D01*
X2240000Y2274982D01*
X2233525Y2275834D01*
X2227491Y2278334D01*
X2224834Y2280372D01*
X2223638Y2280962D01*
X2222529Y2281703D01*
X2221869Y2281834D01*
X2221266Y2282132D01*
X2219935Y2282219D01*
X2218627Y2282479D01*
X2212007D01*
Y2317521D01*
X2218627D01*
X2219935Y2317781D01*
X2221266Y2317868D01*
X2221869Y2318165D01*
X2222529Y2318297D01*
X2223638Y2319038D01*
X2224834Y2319627D01*
X2227491Y2321666D01*
X2228576Y2322116D01*
X2229411Y2322673D01*
X2230339Y2323058D01*
X2231049Y2323768D01*
X2231884Y2324326D01*
X2232442Y2325161D01*
X2233152Y2325871D01*
X2233536Y2326799D01*
X2234094Y2327634D01*
X2234290Y2328619D01*
X2234674Y2329546D01*
Y2330551D01*
X2234870Y2331535D01*
X2237547Y2336535D01*
X2264803D01*
Y2340000D01*
X2274466D01*
X2278291Y2334275D01*
D02*
G37*
G36*
X2576535Y2355197D02*
X2612799D01*
X2617521Y2353307D01*
Y2312007D01*
X2610649D01*
X2606748Y2311231D01*
X2603440Y2309021D01*
X2596109Y2301689D01*
X2592014Y2298954D01*
X2588169Y2298189D01*
X2572284D01*
Y2297993D01*
X2564062D01*
X2563077Y2297797D01*
X2562073D01*
X2561146Y2297413D01*
X2560161Y2297217D01*
X2559326Y2296659D01*
X2558398Y2296275D01*
X2557688Y2295565D01*
X2556853Y2295007D01*
X2556295Y2294172D01*
X2555585Y2293462D01*
X2554358Y2291626D01*
X2550516Y2289059D01*
X2549204Y2288798D01*
X2548879Y2288663D01*
X2548528Y2288639D01*
X2547052Y2287906D01*
X2545529Y2287275D01*
X2545280Y2287026D01*
X2544965Y2286870D01*
X2543881Y2285628D01*
X2542716Y2284462D01*
X2542581Y2284137D01*
X2542350Y2283872D01*
X2541064Y2281630D01*
X2540798Y2280841D01*
X2540360Y2280134D01*
X2540170Y2278974D01*
X2539795Y2277859D01*
X2539838Y2277238D01*
X2539818Y2276824D01*
X2539718Y2276208D01*
X2537111Y2273155D01*
X2535950Y2272385D01*
X2535549Y2272238D01*
X2502560D01*
X2500977Y2273233D01*
X2500352Y2273765D01*
X2498487Y2276073D01*
X2498371Y2277484D01*
X2498418Y2278898D01*
X2498210Y2279450D01*
X2498162Y2280038D01*
X2497531Y2281265D01*
X2497452Y2281664D01*
X2497280Y2281920D01*
X2497017Y2282622D01*
X2496691Y2283145D01*
X2496413Y2283442D01*
X2496344Y2283577D01*
X2496066Y2283812D01*
X2495892Y2283999D01*
X2495242Y2284971D01*
X2494545Y2285437D01*
X2493972Y2286049D01*
X2492907Y2286532D01*
X2491934Y2287182D01*
X2491112Y2287345D01*
X2490348Y2287691D01*
X2489180Y2287729D01*
X2488032Y2287958D01*
X2483996D01*
X2478460Y2289059D01*
X2474618Y2291626D01*
X2472051Y2295468D01*
X2471149Y2300000D01*
X2472051Y2304532D01*
X2474618Y2308374D01*
X2478460Y2310941D01*
X2483996Y2312042D01*
X2488032D01*
X2489180Y2312271D01*
X2490348Y2312309D01*
X2491112Y2312655D01*
X2491934Y2312818D01*
X2492907Y2313468D01*
X2493972Y2313951D01*
X2494545Y2314563D01*
X2495242Y2315029D01*
X2495892Y2316001D01*
X2496067Y2316188D01*
X2496344Y2316423D01*
X2496413Y2316558D01*
X2496691Y2316855D01*
X2497017Y2317378D01*
X2497280Y2318080D01*
X2497452Y2318336D01*
X2497531Y2318735D01*
X2498162Y2319962D01*
X2498210Y2320550D01*
X2498418Y2321102D01*
X2498371Y2322516D01*
X2498487Y2323927D01*
X2500352Y2326235D01*
X2500977Y2326767D01*
X2502560Y2327762D01*
X2545984D01*
X2554494Y2329454D01*
X2561709Y2334275D01*
X2566530Y2341490D01*
X2568223Y2350000D01*
X2567228Y2355000D01*
X2571090Y2360000D01*
X2576535D01*
Y2355197D01*
D02*
G37*
G36*
X1278291Y2334275D02*
X1285505Y2329454D01*
X1294016Y2327762D01*
X1311317D01*
X1314147Y2325870D01*
X1320000Y2324706D01*
X1325853Y2325870D01*
X1328683Y2327762D01*
X1357008D01*
X1363525Y2329058D01*
X1368525Y2325908D01*
Y2295229D01*
X1361778Y2288483D01*
X1360000D01*
X1354147Y2287319D01*
X1349186Y2284003D01*
X1345870Y2279042D01*
X1344706Y2273189D01*
Y2272238D01*
X1294016D01*
X1285505Y2270546D01*
X1284943Y2270170D01*
X1284838Y2270196D01*
X1281523Y2274235D01*
X1281132Y2274556D01*
X1280851Y2274977D01*
X1279606Y2275809D01*
X1278448Y2276759D01*
X1277964Y2276906D01*
X1277544Y2277187D01*
X1276074Y2277479D01*
X1274641Y2277914D01*
X1274138Y2277864D01*
X1273642Y2277963D01*
X1272173Y2277671D01*
X1270682Y2277524D01*
X1270236Y2277285D01*
X1269740Y2277187D01*
X1266475Y2275834D01*
X1260000Y2274982D01*
X1253525Y2275834D01*
X1247491Y2278334D01*
X1244834Y2280372D01*
X1243638Y2280962D01*
X1242529Y2281703D01*
X1241869Y2281834D01*
X1241266Y2282132D01*
X1239935Y2282219D01*
X1238627Y2282479D01*
X1212007D01*
Y2317521D01*
X1238627D01*
X1239935Y2317781D01*
X1241266Y2317868D01*
X1241869Y2318165D01*
X1242529Y2318297D01*
X1243638Y2319038D01*
X1244834Y2319627D01*
X1247491Y2321666D01*
X1248576Y2322116D01*
X1249411Y2322673D01*
X1250339Y2323058D01*
X1251049Y2323768D01*
X1251884Y2324326D01*
X1252442Y2325161D01*
X1253152Y2325871D01*
X1253536Y2326799D01*
X1254094Y2327634D01*
X1254290Y2328619D01*
X1254674Y2329546D01*
Y2330551D01*
X1254870Y2331535D01*
X1257547Y2336535D01*
X1264803D01*
Y2340000D01*
X1274466D01*
X1278291Y2334275D01*
D02*
G37*
G36*
X1576535Y2355197D02*
X1612799D01*
X1617521Y2353307D01*
Y2312007D01*
X1610649D01*
X1606748Y2311231D01*
X1603440Y2309021D01*
X1596109Y2301689D01*
X1592014Y2298954D01*
X1588169Y2298189D01*
X1572284D01*
Y2297885D01*
X1568927Y2297217D01*
X1565620Y2295007D01*
X1563409Y2291699D01*
X1561666Y2287491D01*
X1557690Y2282309D01*
X1554943Y2280201D01*
X1554390Y2279570D01*
X1553708Y2279082D01*
X1553091Y2278089D01*
X1552320Y2277210D01*
X1552050Y2276416D01*
X1551607Y2275704D01*
X1548114Y2272705D01*
X1546186Y2272218D01*
X1546115Y2272212D01*
X1545984Y2272238D01*
X1522560D01*
X1520977Y2273233D01*
X1520352Y2273765D01*
X1518487Y2276073D01*
X1518371Y2277484D01*
X1518418Y2278898D01*
X1518210Y2279450D01*
X1518162Y2280038D01*
X1517531Y2281265D01*
X1517452Y2281664D01*
X1517280Y2281920D01*
X1517016Y2282622D01*
X1516691Y2283145D01*
X1516413Y2283442D01*
X1516344Y2283577D01*
X1516066Y2283812D01*
X1515892Y2283999D01*
X1515242Y2284971D01*
X1514545Y2285437D01*
X1513972Y2286049D01*
X1512907Y2286532D01*
X1511934Y2287182D01*
X1511112Y2287345D01*
X1510348Y2287691D01*
X1509179Y2287729D01*
X1508032Y2287958D01*
X1483996D01*
X1478460Y2289059D01*
X1474618Y2291626D01*
X1472051Y2295468D01*
X1471149Y2300000D01*
X1472051Y2304532D01*
X1474618Y2308374D01*
X1478460Y2310941D01*
X1483996Y2312042D01*
X1495232D01*
X1495974Y2312190D01*
X1496729Y2312153D01*
X1497907Y2312574D01*
X1499134Y2312818D01*
X1499763Y2313239D01*
X1500475Y2313494D01*
X1501402Y2314334D01*
X1502442Y2315029D01*
X1502862Y2315657D01*
X1503422Y2316165D01*
X1503811Y2316689D01*
X1504438Y2318016D01*
X1504652Y2318336D01*
X1504677Y2318460D01*
X1505302Y2319563D01*
X1505348Y2319941D01*
X1505511Y2320285D01*
X1505590Y2321903D01*
X1505789Y2323512D01*
X1507035Y2325454D01*
X1509424Y2327601D01*
X1509801Y2327762D01*
X1545984D01*
X1554495Y2329454D01*
X1561709Y2334275D01*
X1566530Y2341490D01*
X1568223Y2350000D01*
X1567228Y2355000D01*
X1571090Y2360000D01*
X1576535D01*
Y2355197D01*
D02*
G37*
G36*
X1189804Y3011186D02*
X1190580Y3007284D01*
X1191911Y3005292D01*
X1192790Y3003976D01*
X1193439Y2999893D01*
X1193007Y2997818D01*
X1136390Y2941201D01*
X1133075Y2936239D01*
X1131911Y2930387D01*
Y2793895D01*
X1133075Y2788042D01*
X1136390Y2783080D01*
X1152096Y2767375D01*
X1154831Y2765547D01*
X1153470Y2763510D01*
X1151777Y2755000D01*
X1151964Y2754061D01*
X1148792Y2750196D01*
X1100000D01*
X1096098Y2749420D01*
X1092790Y2747210D01*
X1090580Y2743902D01*
X1089804Y2740000D01*
Y2680000D01*
X1090580Y2676098D01*
X1092790Y2672790D01*
X1096098Y2670580D01*
X1100000Y2669804D01*
X1161858D01*
X1162349Y2669428D01*
X1170863Y2665901D01*
X1180000Y2664698D01*
X1189137Y2665901D01*
X1197651Y2669428D01*
X1198142Y2669804D01*
X1260000D01*
X1261378Y2670078D01*
X1263841Y2665470D01*
X1243174Y2644803D01*
X1196535D01*
Y2581496D01*
X1283465D01*
Y2641836D01*
X1286335Y2644706D01*
X1466693D01*
Y2632284D01*
X1491241D01*
X1493154Y2627664D01*
X1469248Y2603758D01*
X1398984D01*
X1393131Y2602594D01*
X1388169Y2599279D01*
X1379382Y2590492D01*
X1376067Y2585530D01*
X1374903Y2579678D01*
Y2536532D01*
X1320000Y2481629D01*
X1283964Y2517665D01*
X1283465Y2517999D01*
Y2538504D01*
X1196535D01*
Y2475197D01*
X1278512D01*
X1280495Y2472922D01*
X1279655Y2466636D01*
X1278291Y2465725D01*
X1273470Y2458510D01*
X1271777Y2450000D01*
X1273470Y2441490D01*
X1278291Y2434275D01*
X1285505Y2429454D01*
X1294016Y2427762D01*
X1310218D01*
Y2422238D01*
X1294016D01*
X1285505Y2420546D01*
X1278291Y2415725D01*
X1273470Y2408510D01*
X1271777Y2400000D01*
X1273074Y2393483D01*
X1269924Y2388483D01*
X1264803D01*
Y2423465D01*
X1201496D01*
Y2336535D01*
X1243679D01*
X1244674Y2331535D01*
X1242349Y2330572D01*
X1238627Y2327716D01*
X1201811D01*
Y2272283D01*
X1238627D01*
X1242349Y2269428D01*
X1250863Y2265901D01*
X1260000Y2264698D01*
X1269137Y2265901D01*
X1273642Y2267767D01*
X1276957Y2263728D01*
X1273470Y2258510D01*
X1271777Y2250000D01*
X1273470Y2241490D01*
X1278291Y2234275D01*
X1285505Y2229454D01*
X1294016Y2227762D01*
X1357008D01*
X1365518Y2229454D01*
X1372733Y2234275D01*
X1377553Y2241490D01*
X1379246Y2250000D01*
X1377553Y2258510D01*
X1376193Y2260547D01*
X1378928Y2262375D01*
X1394633Y2278080D01*
X1397949Y2283042D01*
X1399113Y2288895D01*
Y2361105D01*
X1397949Y2366958D01*
X1394633Y2371920D01*
X1378928Y2387625D01*
X1376193Y2389453D01*
X1377553Y2391490D01*
X1379246Y2400000D01*
X1377553Y2408510D01*
X1372733Y2415725D01*
X1365518Y2420546D01*
X1357008Y2422238D01*
X1340806D01*
Y2427762D01*
X1357008D01*
X1365518Y2429454D01*
X1372733Y2434275D01*
X1377553Y2441490D01*
X1379246Y2450000D01*
X1377553Y2458510D01*
X1372733Y2465725D01*
X1365518Y2470546D01*
X1360286Y2471586D01*
X1358640Y2477012D01*
X1390578Y2508949D01*
X1395197Y2507035D01*
Y2496535D01*
X1411556D01*
Y2418225D01*
X1412721Y2412373D01*
X1416036Y2407411D01*
X1461072Y2362375D01*
X1463807Y2360547D01*
X1462447Y2358510D01*
X1460754Y2350000D01*
X1462447Y2341490D01*
X1467267Y2334275D01*
X1474482Y2329454D01*
X1482992Y2327762D01*
X1493104D01*
X1495620Y2322762D01*
X1495232Y2322238D01*
X1482992D01*
X1474482Y2320546D01*
X1467267Y2315725D01*
X1462447Y2308510D01*
X1460754Y2300000D01*
X1462447Y2291490D01*
X1467267Y2284275D01*
X1474482Y2279454D01*
X1482992Y2277762D01*
X1508032D01*
X1508358Y2277238D01*
X1505579Y2272238D01*
X1482992D01*
X1474482Y2270546D01*
X1467267Y2265725D01*
X1462447Y2258510D01*
X1460754Y2250000D01*
X1462447Y2241490D01*
X1463807Y2239453D01*
X1461072Y2237625D01*
X1445367Y2221920D01*
X1442051Y2216958D01*
X1440887Y2211105D01*
Y2165294D01*
X1373021D01*
X1372733Y2165725D01*
X1365518Y2170546D01*
X1357008Y2172238D01*
X1332966D01*
X1332578Y2172762D01*
X1335095Y2177762D01*
X1357008D01*
X1365518Y2179454D01*
X1372733Y2184275D01*
X1377553Y2191490D01*
X1379246Y2200000D01*
X1377553Y2208510D01*
X1372733Y2215725D01*
X1365518Y2220546D01*
X1357008Y2222238D01*
X1294016D01*
X1285505Y2220546D01*
X1278291Y2215725D01*
X1273470Y2208510D01*
X1272840Y2205341D01*
X1267415Y2203695D01*
X1251831Y2219279D01*
X1246869Y2222594D01*
X1241016Y2223758D01*
X1185283D01*
X1179430Y2222594D01*
X1174468Y2219279D01*
X1165682Y2210492D01*
X1162366Y2205530D01*
X1161202Y2199678D01*
Y2120322D01*
X1162366Y2114470D01*
X1165682Y2109508D01*
X1167105Y2108084D01*
X1165192Y2103465D01*
X1161496D01*
Y2016535D01*
X1224803D01*
Y2044706D01*
X1245681D01*
X1247192Y2041058D01*
X1253213Y2033213D01*
X1261058Y2027192D01*
X1270195Y2023408D01*
X1280000Y2022117D01*
X1289805Y2023408D01*
X1298942Y2027192D01*
X1306787Y2033213D01*
X1312808Y2041058D01*
X1316592Y2050195D01*
X1317883Y2060000D01*
X1316592Y2069805D01*
X1312808Y2078942D01*
X1306787Y2086787D01*
X1298942Y2092808D01*
X1289805Y2096592D01*
X1280000Y2097883D01*
X1270195Y2096592D01*
X1261058Y2092808D01*
X1253213Y2086787D01*
X1247192Y2078942D01*
X1245681Y2075294D01*
X1224803D01*
Y2083174D01*
X1228484Y2086855D01*
X1231799Y2091817D01*
X1232963Y2097669D01*
X1231799Y2103522D01*
X1228484Y2108484D01*
X1225052Y2111916D01*
X1226965Y2116535D01*
X1244803D01*
Y2144706D01*
X1272830D01*
X1273470Y2141490D01*
X1278291Y2134275D01*
X1285505Y2129454D01*
X1294016Y2127762D01*
X1331317D01*
X1334147Y2125870D01*
X1340000Y2124706D01*
X1345853Y2125870D01*
X1348683Y2127762D01*
X1357008D01*
X1365518Y2129454D01*
X1372733Y2134275D01*
X1373021Y2134706D01*
X1438741D01*
X1461072Y2112375D01*
X1466034Y2109059D01*
X1471887Y2107895D01*
X1510476D01*
X1544919Y2073453D01*
X1543408Y2069805D01*
X1542117Y2060000D01*
X1543408Y2050195D01*
X1547192Y2041058D01*
X1553213Y2033213D01*
X1559017Y2028758D01*
X1557320Y2023758D01*
X1538984D01*
X1533131Y2022594D01*
X1528169Y2019279D01*
X1519382Y2010492D01*
X1516067Y2005531D01*
X1514903Y1999678D01*
Y1973973D01*
X1478307Y1937377D01*
X1473307Y1939448D01*
Y1947717D01*
X1421811D01*
Y1947717D01*
X1418189D01*
Y1947717D01*
X1366693D01*
Y1935294D01*
X1300000D01*
X1294147Y1934130D01*
X1289186Y1930814D01*
X1246088Y1887717D01*
X1223189D01*
X1221811Y1887717D01*
X1218189D01*
X1216811Y1887717D01*
X1166693D01*
Y1855881D01*
X1155909Y1845097D01*
X1140322D01*
X1134469Y1843933D01*
X1129508Y1840618D01*
X1120721Y1831831D01*
X1117406Y1826869D01*
X1116242Y1821016D01*
Y1779527D01*
X1040473D01*
Y1700473D01*
X1065203D01*
X1065870Y1697119D01*
X1069186Y1692157D01*
X1125541Y1635801D01*
X1125870Y1634147D01*
X1129186Y1629186D01*
X1132147Y1626224D01*
Y1496015D01*
X1127528Y1494101D01*
X1108899Y1512730D01*
X1114527Y1520066D01*
X1118510Y1529681D01*
X1119869Y1540000D01*
X1118510Y1550319D01*
X1114527Y1559934D01*
X1108191Y1568191D01*
X1099934Y1574527D01*
X1090319Y1578510D01*
X1080000Y1579869D01*
X1069681Y1578510D01*
X1060066Y1574527D01*
X1051809Y1568191D01*
X1045473Y1559934D01*
X1041490Y1550319D01*
X1040131Y1540000D01*
X1041490Y1529681D01*
X1045473Y1520066D01*
X1051809Y1511809D01*
X1060066Y1505473D01*
X1069681Y1501490D01*
X1077973Y1500398D01*
X1117147Y1461224D01*
Y1436158D01*
X1118311Y1430306D01*
X1121627Y1425344D01*
X1132155Y1414815D01*
X1130242Y1410196D01*
X1000000Y1410196D01*
Y3100000D01*
X1189804D01*
Y3011186D01*
D02*
G37*
G36*
X2781496Y2389975D02*
X2740240Y2348719D01*
X2677055D01*
X2671202Y2347555D01*
X2666240Y2344240D01*
X2657453Y2335453D01*
X2654138Y2330491D01*
X2652974Y2324638D01*
Y2238787D01*
X2654138Y2232934D01*
X2657453Y2227972D01*
X2684706Y2200720D01*
Y2194567D01*
X2673268D01*
Y2168365D01*
X2587165D01*
X2567904Y2187625D01*
X2565169Y2189453D01*
X2566530Y2191490D01*
X2568223Y2200000D01*
X2566530Y2208510D01*
X2561709Y2215725D01*
X2554494Y2220546D01*
X2545984Y2222238D01*
X2543179D01*
X2540013Y2227238D01*
X2540260Y2227762D01*
X2545984D01*
X2554494Y2229454D01*
X2561709Y2234275D01*
X2566530Y2241490D01*
X2568223Y2250000D01*
X2566530Y2258510D01*
X2561709Y2265725D01*
X2554494Y2270546D01*
X2552457Y2270951D01*
X2549908Y2276556D01*
X2551194Y2278798D01*
X2554494Y2279454D01*
X2561709Y2284275D01*
X2564062Y2287797D01*
X2588189D01*
X2595993Y2289349D01*
X2602608Y2293770D01*
X2610649Y2301811D01*
X2627717D01*
Y2353307D01*
X2631934Y2355197D01*
X2663465D01*
Y2371557D01*
X2675197D01*
Y2356535D01*
X2738504D01*
Y2433171D01*
X2781496D01*
Y2389975D01*
D02*
G37*
G36*
X1781496D02*
X1740240Y2348719D01*
X1677054D01*
X1671202Y2347555D01*
X1666240Y2344240D01*
X1657453Y2335453D01*
X1654138Y2330491D01*
X1652974Y2324638D01*
Y2238787D01*
X1654138Y2232934D01*
X1657453Y2227972D01*
X1684706Y2200720D01*
Y2194567D01*
X1673268D01*
Y2168365D01*
X1587165D01*
X1567904Y2187625D01*
X1565169Y2189453D01*
X1566530Y2191490D01*
X1568223Y2200000D01*
X1566530Y2208510D01*
X1561709Y2215725D01*
X1554495Y2220546D01*
X1545984Y2222238D01*
X1543179D01*
X1540013Y2227238D01*
X1540261Y2227762D01*
X1545984D01*
X1554495Y2229454D01*
X1561709Y2234275D01*
X1566530Y2241490D01*
X1568223Y2250000D01*
X1566530Y2258510D01*
X1561709Y2265725D01*
X1561351Y2265964D01*
X1561150Y2272112D01*
X1564962Y2275038D01*
X1570572Y2282349D01*
X1572829Y2287797D01*
X1588189D01*
X1595993Y2289349D01*
X1602608Y2293770D01*
X1610649Y2301811D01*
X1627717D01*
Y2353307D01*
X1631934Y2355197D01*
X1663465D01*
Y2371557D01*
X1675197D01*
Y2356535D01*
X1738504D01*
Y2433171D01*
X1781496D01*
Y2389975D01*
D02*
G37*
G36*
X1180000Y1200000D02*
X1208485D01*
X1212717Y1199158D01*
X1261929D01*
X1266161Y1200000D01*
X1280000D01*
Y1160000D01*
X1266162D01*
X1261929Y1160842D01*
X1212717D01*
X1208484Y1160000D01*
X1180000D01*
Y1120000D01*
X1100000D01*
Y1098504D01*
X1096535D01*
Y1035197D01*
X1183465D01*
Y1040000D01*
X1355197Y1040000D01*
Y1016535D01*
X1418504D01*
Y1040000D01*
X1461496D01*
Y1016535D01*
X1524803D01*
Y1040000D01*
X2100000Y1040000D01*
Y1220000D01*
X2548485Y1220000D01*
X2552717Y1219158D01*
X2601929D01*
X2606161Y1220000D01*
X2620000D01*
Y1180000D01*
X2606162D01*
X2601929Y1180842D01*
X2552717D01*
X2548484Y1180000D01*
X2540000D01*
Y1175798D01*
X2539121Y1175210D01*
X2534952Y1168972D01*
X2533489Y1161614D01*
X2534952Y1154256D01*
X2539121Y1148018D01*
X2540000Y1147431D01*
Y1000000D01*
X2400000Y1000000D01*
X1000000D01*
Y1260000D01*
X1180000D01*
Y1200000D01*
D02*
G37*
G36*
X1146970Y1400000D02*
X1155344Y1391627D01*
X1160306Y1388311D01*
X1166158Y1387147D01*
X1472236D01*
X1474147Y1385870D01*
X1480000Y1384706D01*
X1749804D01*
Y1190196D01*
X1623465D01*
X1619563Y1189420D01*
X1616255Y1187210D01*
X1614045Y1183902D01*
X1613269Y1180000D01*
Y1180000D01*
X1546731D01*
Y1217274D01*
X1547210Y1217593D01*
X1549420Y1220901D01*
X1550196Y1224803D01*
Y1256535D01*
X1578504D01*
Y1343465D01*
X1549507D01*
X1549420Y1343902D01*
X1547210Y1347210D01*
X1543902Y1349420D01*
X1540000Y1350196D01*
X1398504D01*
X1394602Y1349420D01*
X1391294Y1347210D01*
X1389084Y1343902D01*
X1388997Y1343465D01*
X1344704D01*
X1344617Y1343902D01*
X1342407Y1347210D01*
X1339099Y1349420D01*
X1335197Y1350196D01*
X1320000D01*
X1316098Y1349420D01*
X1312790Y1347210D01*
X1310580Y1343902D01*
X1309804Y1340000D01*
Y1130196D01*
X1190196D01*
Y1149804D01*
X1204815D01*
X1205359Y1149441D01*
X1212717Y1147977D01*
X1261929D01*
X1269287Y1149441D01*
X1269831Y1149804D01*
X1280000D01*
X1283902Y1150580D01*
X1287210Y1152790D01*
X1289420Y1156098D01*
X1290196Y1160000D01*
Y1200000D01*
X1289420Y1203902D01*
X1287210Y1207210D01*
X1283902Y1209420D01*
X1280000Y1210196D01*
X1269831D01*
X1269287Y1210559D01*
X1261929Y1212023D01*
X1212717D01*
X1205359Y1210559D01*
X1204814Y1210196D01*
X1190196D01*
Y1260000D01*
X1189420Y1263902D01*
X1187210Y1267210D01*
X1183902Y1269420D01*
X1180000Y1270196D01*
X1000000D01*
Y1400000D01*
X1146970Y1400000D01*
D02*
G37*
G36*
X2680000D02*
Y1239561D01*
X2678919Y1234126D01*
Y1151732D01*
X2680083Y1145879D01*
X2683398Y1140918D01*
X2697374Y1126942D01*
X2702336Y1123626D01*
X2708189Y1122462D01*
X2715197D01*
Y1036535D01*
X2778504D01*
Y1123465D01*
X2755294D01*
Y1137756D01*
X2754130Y1143609D01*
X2750814Y1148570D01*
X2745853Y1151886D01*
X2740000Y1153050D01*
X2714523D01*
X2709507Y1158067D01*
Y1164691D01*
X2714507Y1168686D01*
X2718071Y1167977D01*
X2767284D01*
X2774642Y1169441D01*
X2780880Y1173609D01*
X2785048Y1179847D01*
X2785078Y1180000D01*
X2800000D01*
Y1000000D01*
X2550196D01*
Y1147431D01*
X2550000Y1148416D01*
Y1149420D01*
X2549616Y1150348D01*
X2549420Y1151332D01*
X2548862Y1152167D01*
X2548477Y1153095D01*
X2547767Y1153806D01*
X2547209Y1154640D01*
X2546756Y1154944D01*
X2544557Y1158234D01*
X2543885Y1161614D01*
X2544557Y1164994D01*
X2546756Y1168285D01*
X2547209Y1168588D01*
X2547495Y1169016D01*
X2552717Y1167977D01*
X2601929D01*
X2609287Y1169441D01*
X2609831Y1169804D01*
X2620000D01*
X2623902Y1170580D01*
X2627210Y1172790D01*
X2629420Y1176098D01*
X2630196Y1180000D01*
Y1220000D01*
X2629420Y1223902D01*
X2627210Y1227210D01*
X2623902Y1229420D01*
X2620000Y1230196D01*
X2609831D01*
X2609287Y1230559D01*
X2601929Y1232023D01*
X2552717D01*
X2545358Y1230559D01*
X2544814Y1230196D01*
X2100000Y1230196D01*
X2096098Y1229420D01*
X2092790Y1227209D01*
X2090580Y1223902D01*
X2089804Y1220000D01*
Y1050196D01*
X1524803Y1050196D01*
Y1071556D01*
X1536535D01*
Y1055197D01*
X1623465D01*
Y1118504D01*
X1536535D01*
Y1102144D01*
X1524803D01*
Y1103465D01*
X1462456D01*
X1440613Y1125308D01*
X1440880Y1128018D01*
X1445048Y1134256D01*
X1446511Y1141614D01*
X1445048Y1148972D01*
X1440880Y1155210D01*
X1434642Y1159378D01*
X1427284Y1160842D01*
X1378071D01*
X1370713Y1159378D01*
X1364475Y1155210D01*
X1360307Y1148972D01*
X1358843Y1141614D01*
X1360307Y1134256D01*
X1364475Y1128018D01*
X1370713Y1123850D01*
X1378071Y1122387D01*
X1400276D01*
X1461496Y1061166D01*
Y1050196D01*
X1418504D01*
X1414602Y1049420D01*
X1411294Y1047209D01*
X1409084Y1043902D01*
X1408308Y1040000D01*
X1365393D01*
X1364617Y1043902D01*
X1362407Y1047209D01*
X1359099Y1049420D01*
X1355197Y1050196D01*
X1183465Y1050196D01*
X1179563Y1049420D01*
X1176255Y1047210D01*
X1175041Y1045393D01*
X1106731D01*
Y1090975D01*
X1107210Y1091294D01*
X1109420Y1094602D01*
X1110196Y1098504D01*
Y1109804D01*
X1180000D01*
X1183902Y1110580D01*
X1187210Y1112790D01*
X1189420Y1116098D01*
X1190196Y1120000D01*
X1320000D01*
Y1340000D01*
X1335197D01*
Y1256535D01*
X1381836D01*
X1387383Y1250988D01*
Y1237614D01*
X1378071D01*
X1370713Y1236150D01*
X1364475Y1231982D01*
X1360307Y1225744D01*
X1358843Y1218386D01*
X1360307Y1211028D01*
X1363940Y1205591D01*
X1360307Y1200153D01*
X1358843Y1192795D01*
X1360307Y1185437D01*
X1364475Y1179199D01*
X1370713Y1175031D01*
X1378071Y1173568D01*
X1427284D01*
X1434642Y1175031D01*
X1437808Y1177147D01*
X1452284D01*
Y1161811D01*
X1507717D01*
Y1213307D01*
X1452284D01*
Y1210982D01*
X1449198Y1210124D01*
X1445679Y1214201D01*
X1446511Y1218386D01*
X1445048Y1225744D01*
X1440880Y1231982D01*
X1434642Y1236150D01*
X1427284Y1237614D01*
X1417971D01*
Y1257323D01*
X1416807Y1263176D01*
X1413492Y1268137D01*
X1398504Y1283125D01*
Y1340000D01*
X1540000D01*
Y1224803D01*
X1536535D01*
Y1161496D01*
X1623465D01*
Y1180000D01*
X1760000D01*
Y1384706D01*
X2440000D01*
X2445853Y1385870D01*
X2450814Y1389186D01*
X2461629Y1400000D01*
X2680000D01*
D02*
G37*
G36*
X3000000Y1000000D02*
X2810196D01*
Y1180000D01*
X2809420Y1183902D01*
X2807210Y1187210D01*
X2803902Y1189420D01*
X2800000Y1190196D01*
X2785078D01*
X2784093Y1190000D01*
X2783089Y1190000D01*
X2782161Y1189616D01*
X2781176Y1189420D01*
X2780341Y1188862D01*
X2779414Y1188478D01*
X2778704Y1187768D01*
X2777869Y1187210D01*
X2777311Y1186375D01*
X2776601Y1185665D01*
X2776483Y1185381D01*
X2773529Y1180960D01*
X2772093Y1180000D01*
X2771516D01*
X2767284Y1180842D01*
X2718071D01*
X2714507Y1180133D01*
X2709507Y1181901D01*
Y1190281D01*
X2714507Y1194277D01*
X2718071Y1193568D01*
X2767284D01*
X2774642Y1195031D01*
X2780880Y1199199D01*
X2780903Y1199234D01*
X2787520D01*
X2793373Y1200398D01*
X2798334Y1203713D01*
X2804209Y1209588D01*
X2812284D01*
Y1199134D01*
X2867716D01*
Y1250630D01*
X2812284D01*
Y1240176D01*
X2797874D01*
X2792021Y1239012D01*
X2791242Y1238491D01*
X2785992Y1240996D01*
X2785048Y1245744D01*
X2780880Y1251982D01*
X2774642Y1256150D01*
X2767284Y1257614D01*
X2718071D01*
X2710713Y1256150D01*
X2704475Y1251982D01*
X2704452Y1251947D01*
X2696740D01*
X2695196Y1251640D01*
X2690196Y1255744D01*
Y1400000D01*
X2690196Y1400000D01*
X3000000D01*
Y1000000D01*
D02*
G37*
G36*
X2346871Y1732254D02*
X2348292Y1731446D01*
X2351221Y1728021D01*
X2351336Y1727391D01*
X2351581Y1725877D01*
X2352225Y1724151D01*
X2352816Y1722409D01*
X2352918Y1722294D01*
X2352971Y1722150D01*
X2354227Y1720801D01*
X2355439Y1719418D01*
X2357690Y1717691D01*
X2360380Y1714185D01*
X2360886Y1713742D01*
X2361260Y1713182D01*
X2362369Y1712441D01*
X2363371Y1711562D01*
X2364008Y1711346D01*
X2364568Y1710972D01*
X2365875Y1710712D01*
X2367138Y1710283D01*
X2367810Y1710327D01*
X2368469Y1710196D01*
X2370787D01*
X2371772Y1710392D01*
X2372777Y1710392D01*
X2373278Y1710600D01*
X2380532Y1712042D01*
X2441515D01*
X2447052Y1710941D01*
X2450894Y1708374D01*
X2453461Y1704532D01*
X2454362Y1700000D01*
X2453461Y1695468D01*
X2450894Y1691626D01*
X2447052Y1689059D01*
X2441515Y1687958D01*
X2380532D01*
X2373278Y1689400D01*
X2372777Y1689608D01*
X2371772Y1689608D01*
X2370787Y1689804D01*
X2368469D01*
X2367809Y1689673D01*
X2367138Y1689717D01*
X2365876Y1689288D01*
X2364568Y1689028D01*
X2364008Y1688654D01*
X2363371Y1688438D01*
X2362369Y1687559D01*
X2361260Y1686818D01*
X2360886Y1686258D01*
X2360380Y1685815D01*
X2357691Y1682310D01*
X2354681Y1680000D01*
X2325319D01*
X2324834Y1680373D01*
X2323638Y1680962D01*
X2322529Y1681703D01*
X2321869Y1681835D01*
X2321266Y1682132D01*
X2319935Y1682219D01*
X2318627Y1682479D01*
X2312007D01*
Y1727284D01*
X2312007Y1727285D01*
X2313057Y1732284D01*
X2346642D01*
X2346871Y1732254D01*
D02*
G37*
G36*
X1346871D02*
X1348292Y1731446D01*
X1351221Y1728021D01*
X1351336Y1727391D01*
X1351582Y1725877D01*
X1352225Y1724151D01*
X1352816Y1722409D01*
X1352918Y1722294D01*
X1352971Y1722150D01*
X1354227Y1720801D01*
X1355439Y1719418D01*
X1357690Y1717691D01*
X1360380Y1714185D01*
X1360886Y1713742D01*
X1361260Y1713182D01*
X1362369Y1712441D01*
X1363371Y1711562D01*
X1364008Y1711346D01*
X1364568Y1710972D01*
X1365875Y1710712D01*
X1367138Y1710283D01*
X1367810Y1710327D01*
X1368469Y1710196D01*
X1370787D01*
X1371772Y1710392D01*
X1372777Y1710392D01*
X1373278Y1710600D01*
X1380532Y1712042D01*
X1441515D01*
X1447052Y1710941D01*
X1450894Y1708374D01*
X1453461Y1704532D01*
X1454362Y1700000D01*
X1453461Y1695468D01*
X1450894Y1691626D01*
X1447052Y1689059D01*
X1441515Y1687958D01*
X1380532D01*
X1373278Y1689400D01*
X1372777Y1689608D01*
X1371772Y1689608D01*
X1370787Y1689804D01*
X1368469D01*
X1367809Y1689673D01*
X1367138Y1689717D01*
X1365876Y1689288D01*
X1364568Y1689028D01*
X1364008Y1688654D01*
X1363371Y1688438D01*
X1362369Y1687559D01*
X1361260Y1686818D01*
X1360886Y1686258D01*
X1360380Y1685815D01*
X1357690Y1682310D01*
X1354681Y1680000D01*
X1325319D01*
X1324834Y1680373D01*
X1323638Y1680962D01*
X1322529Y1681703D01*
X1321869Y1681835D01*
X1321266Y1682132D01*
X1319935Y1682219D01*
X1318627Y1682479D01*
X1312007D01*
Y1727284D01*
X1312007Y1727285D01*
X1313057Y1732284D01*
X1346642D01*
X1346871Y1732254D01*
D02*
G37*
G36*
X1266949Y1629186D02*
X1271910Y1625870D01*
X1277068Y1624844D01*
X1281496Y1623464D01*
Y1573125D01*
X1203453Y1495081D01*
X1199805Y1496592D01*
X1190000Y1497883D01*
X1180195Y1496592D01*
X1171058Y1492808D01*
X1167735Y1490257D01*
X1162735Y1492723D01*
Y1632559D01*
X1161571Y1638412D01*
X1158255Y1643373D01*
X1154459Y1647170D01*
X1154130Y1648824D01*
X1153213Y1650197D01*
X1155885Y1655197D01*
X1223465D01*
Y1665599D01*
X1228465Y1667670D01*
X1266949Y1629186D01*
D02*
G37*
G36*
X1960927Y2986045D02*
X1960131Y2980000D01*
X1961490Y2969681D01*
X1965473Y2960066D01*
X1971809Y2951809D01*
X1980066Y2945473D01*
X1989681Y2941490D01*
X2000000Y2940131D01*
X2010319Y2941490D01*
X2014959Y2943412D01*
X2043556Y2914815D01*
X2041642Y2910196D01*
X2040000D01*
X2036098Y2909420D01*
X2032790Y2907210D01*
X2030580Y2903902D01*
X2029804Y2900000D01*
Y2861273D01*
X2027958Y2858510D01*
X2026266Y2850000D01*
X2027958Y2841490D01*
X2030165Y2838188D01*
X2030580Y2836098D01*
X2032790Y2832790D01*
X2036098Y2830580D01*
X2039246Y2829954D01*
X2039994Y2829454D01*
X2048504Y2827762D01*
X2062640D01*
X2063089Y2827238D01*
X2060787Y2822238D01*
X2048504D01*
X2039994Y2820546D01*
X2032779Y2815725D01*
X2027958Y2808510D01*
X2026266Y2800000D01*
X2027958Y2791490D01*
X2032779Y2784275D01*
X2039994Y2779454D01*
X2048504Y2777762D01*
X2076476D01*
X2076826Y2777238D01*
X2074153Y2772238D01*
X2048504D01*
X2039994Y2770546D01*
X2032779Y2765725D01*
X2030826Y2765533D01*
X1964625Y2831734D01*
Y2861105D01*
X1963460Y2866958D01*
X1960145Y2871920D01*
X1944439Y2887625D01*
X1939478Y2890941D01*
X1933625Y2892105D01*
X1848422D01*
X1842569Y2890941D01*
X1837608Y2887625D01*
X1828084Y2878102D01*
X1823465Y2880015D01*
Y2904803D01*
X1736535D01*
Y2841496D01*
X1790025D01*
X1795839Y2835682D01*
X1800801Y2832366D01*
X1806653Y2831202D01*
X1818107D01*
X1823960Y2832366D01*
X1828922Y2835682D01*
X1834348Y2841108D01*
X1840111Y2839800D01*
X1843803Y2834275D01*
X1851017Y2829454D01*
X1859527Y2827762D01*
X1865938D01*
X1866287Y2827238D01*
X1863615Y2822238D01*
X1859527D01*
X1851017Y2820546D01*
X1843803Y2815725D01*
X1838982Y2808510D01*
X1837289Y2800000D01*
X1838091Y2795970D01*
X1834919Y2792105D01*
X1823465D01*
Y2798504D01*
X1736535D01*
Y2735197D01*
X1823465D01*
Y2761517D01*
X1828559D01*
X1829804Y2760000D01*
Y2730196D01*
X1780000D01*
X1776098Y2729420D01*
X1772790Y2727210D01*
X1770580Y2723902D01*
X1769804Y2720000D01*
Y2680000D01*
X1770580Y2676098D01*
X1772790Y2672790D01*
X1776098Y2670580D01*
X1780000Y2669804D01*
X1786340D01*
X1789428Y2662349D01*
X1795038Y2655038D01*
X1802349Y2649428D01*
X1810863Y2645901D01*
X1820000Y2644698D01*
X1829137Y2645901D01*
X1837651Y2649428D01*
X1844962Y2655038D01*
X1850572Y2662349D01*
X1853660Y2669804D01*
X1949804D01*
Y2600000D01*
X1950580Y2596098D01*
X1952790Y2592791D01*
X1956098Y2590580D01*
X1960000Y2589804D01*
X2357221D01*
X2359806Y2584804D01*
X2358856Y2583465D01*
X2315197D01*
Y2496535D01*
X2378504D01*
Y2556875D01*
X2409800Y2588171D01*
X2420787D01*
X2421496Y2583464D01*
X2421496D01*
Y2523125D01*
X2367555Y2469184D01*
X2365518Y2470546D01*
X2357008Y2472238D01*
X2294016D01*
X2285506Y2470546D01*
X2278291Y2465725D01*
X2273470Y2458510D01*
X2271777Y2450000D01*
X2273470Y2441490D01*
X2278291Y2434275D01*
X2285506Y2429454D01*
X2294016Y2427762D01*
X2310218D01*
Y2422238D01*
X2294016D01*
X2285506Y2420546D01*
X2278291Y2415725D01*
X2273470Y2408510D01*
X2271777Y2400000D01*
X2273074Y2393483D01*
X2269924Y2388483D01*
X2264803D01*
Y2423465D01*
X2201496D01*
Y2336535D01*
X2223680D01*
X2224674Y2331535D01*
X2222349Y2330572D01*
X2218627Y2327716D01*
X2201811D01*
Y2272283D01*
X2218627D01*
X2222349Y2269428D01*
X2230863Y2265901D01*
X2240000Y2264698D01*
X2249137Y2265901D01*
X2257651Y2269428D01*
X2264962Y2275038D01*
X2268469Y2279608D01*
X2285276D01*
X2285506Y2279454D01*
X2294016Y2277762D01*
X2336821D01*
X2339987Y2272762D01*
X2339740Y2272238D01*
X2294016D01*
X2285506Y2270546D01*
X2278291Y2265725D01*
X2273470Y2258510D01*
X2271777Y2250000D01*
X2273470Y2241490D01*
X2278291Y2234275D01*
X2285506Y2229454D01*
X2294016Y2227762D01*
X2357008D01*
X2365518Y2229454D01*
X2372733Y2234275D01*
X2377553Y2241490D01*
X2379246Y2250000D01*
X2377553Y2258510D01*
X2376193Y2260547D01*
X2378928Y2262375D01*
X2394633Y2278080D01*
X2397949Y2283042D01*
X2399113Y2288895D01*
Y2361105D01*
X2397949Y2366958D01*
X2394633Y2371920D01*
X2378928Y2387625D01*
X2376193Y2389453D01*
X2377553Y2391490D01*
X2379246Y2400000D01*
X2377553Y2408510D01*
X2372733Y2415725D01*
X2365518Y2420546D01*
X2357008Y2422238D01*
X2340806D01*
Y2427762D01*
X2357008D01*
X2365518Y2429454D01*
X2372733Y2434275D01*
X2373484Y2435399D01*
X2375853Y2435870D01*
X2380814Y2439186D01*
X2438164Y2496535D01*
X2463450D01*
X2465363Y2491916D01*
X2445367Y2471920D01*
X2442051Y2466958D01*
X2440887Y2461105D01*
Y2388895D01*
X2442051Y2383042D01*
X2445367Y2378080D01*
X2461072Y2362375D01*
X2463807Y2360547D01*
X2462447Y2358510D01*
X2460754Y2350000D01*
X2462447Y2341490D01*
X2467267Y2334275D01*
X2474482Y2329454D01*
X2482992Y2327762D01*
X2485579D01*
X2488358Y2322762D01*
X2488032Y2322238D01*
X2482992D01*
X2474482Y2320546D01*
X2467267Y2315725D01*
X2462447Y2308510D01*
X2460754Y2300000D01*
X2462447Y2291490D01*
X2467267Y2284275D01*
X2474482Y2279454D01*
X2482992Y2277762D01*
X2488032D01*
X2488358Y2277238D01*
X2485579Y2272238D01*
X2482992D01*
X2474482Y2270546D01*
X2467267Y2265725D01*
X2462447Y2258510D01*
X2460754Y2250000D01*
X2462447Y2241490D01*
X2463807Y2239453D01*
X2461072Y2237625D01*
X2445367Y2221920D01*
X2442051Y2216958D01*
X2440887Y2211105D01*
Y2165294D01*
X2373021D01*
X2372733Y2165725D01*
X2365518Y2170546D01*
X2357008Y2172238D01*
X2332966D01*
X2332578Y2172762D01*
X2335095Y2177762D01*
X2357008D01*
X2365518Y2179454D01*
X2372733Y2184275D01*
X2377553Y2191490D01*
X2379246Y2200000D01*
X2377553Y2208510D01*
X2372733Y2215725D01*
X2365518Y2220546D01*
X2357008Y2222238D01*
X2294016D01*
X2285506Y2220546D01*
X2278291Y2215725D01*
X2273470Y2208510D01*
X2272840Y2205341D01*
X2267414Y2203695D01*
X2251831Y2219279D01*
X2246869Y2222594D01*
X2241016Y2223758D01*
X2185283D01*
X2179430Y2222594D01*
X2174468Y2219279D01*
X2165682Y2210492D01*
X2162366Y2205530D01*
X2161202Y2199678D01*
Y2120322D01*
X2162366Y2114470D01*
X2165682Y2109508D01*
X2167106Y2108084D01*
X2165192Y2103465D01*
X2161496D01*
Y2016535D01*
X2224803D01*
Y2044706D01*
X2245681D01*
X2247192Y2041058D01*
X2253213Y2033213D01*
X2261058Y2027192D01*
X2270195Y2023408D01*
X2280000Y2022117D01*
X2289805Y2023408D01*
X2298942Y2027192D01*
X2306787Y2033213D01*
X2312808Y2041058D01*
X2316592Y2050195D01*
X2317883Y2060000D01*
X2316592Y2069805D01*
X2312808Y2078942D01*
X2306787Y2086787D01*
X2298942Y2092808D01*
X2289805Y2096592D01*
X2280000Y2097883D01*
X2270195Y2096592D01*
X2261058Y2092808D01*
X2253213Y2086787D01*
X2247192Y2078942D01*
X2245681Y2075294D01*
X2224803D01*
Y2083174D01*
X2228484Y2086855D01*
X2231799Y2091817D01*
X2232963Y2097669D01*
X2231799Y2103522D01*
X2228484Y2108484D01*
X2225052Y2111916D01*
X2226965Y2116535D01*
X2244803D01*
Y2144706D01*
X2272830D01*
X2273470Y2141490D01*
X2278291Y2134275D01*
X2285506Y2129454D01*
X2294016Y2127762D01*
X2331317D01*
X2334147Y2125870D01*
X2340000Y2124706D01*
X2345853Y2125870D01*
X2348683Y2127762D01*
X2357008D01*
X2365518Y2129454D01*
X2372733Y2134275D01*
X2373021Y2134706D01*
X2438741D01*
X2461072Y2112375D01*
X2466034Y2109059D01*
X2471887Y2107895D01*
X2510476D01*
X2544919Y2073453D01*
X2543408Y2069805D01*
X2542117Y2060000D01*
X2543408Y2050195D01*
X2547192Y2041058D01*
X2553213Y2033213D01*
X2559017Y2028758D01*
X2557320Y2023758D01*
X2538984D01*
X2533131Y2022594D01*
X2528169Y2019279D01*
X2519382Y2010492D01*
X2516067Y2005531D01*
X2514903Y1999678D01*
Y1973973D01*
X2478307Y1937377D01*
X2473307Y1939448D01*
Y1947717D01*
X2421811D01*
Y1947717D01*
X2418189D01*
Y1947717D01*
X2366693D01*
Y1935294D01*
X2300000D01*
X2294147Y1934130D01*
X2289186Y1930814D01*
X2246088Y1887717D01*
X2223189D01*
X2221811Y1887717D01*
X2218189D01*
X2216811Y1887717D01*
X2166693D01*
Y1855881D01*
X2155909Y1845097D01*
X2140322D01*
X2134470Y1843933D01*
X2129508Y1840618D01*
X2120721Y1831831D01*
X2117406Y1826869D01*
X2116242Y1821016D01*
Y1756496D01*
X2117406Y1750643D01*
X2120721Y1745682D01*
X2142899Y1723504D01*
X2140828Y1718504D01*
X2136535D01*
Y1655197D01*
X2223465D01*
Y1665599D01*
X2228465Y1667670D01*
X2266949Y1629186D01*
X2271910Y1625870D01*
X2277068Y1624844D01*
X2277950Y1624570D01*
X2281496Y1621978D01*
X2281496Y1619706D01*
Y1573125D01*
X2203453Y1495081D01*
X2199805Y1496592D01*
X2190000Y1497883D01*
X2180195Y1496592D01*
X2171058Y1492808D01*
X2163213Y1486787D01*
X2157192Y1478942D01*
X2153408Y1469805D01*
X2152117Y1460000D01*
X2153408Y1450195D01*
X2157192Y1441058D01*
X2163213Y1433213D01*
X2171058Y1427192D01*
X2180195Y1423408D01*
X2190000Y1422117D01*
X2199805Y1423408D01*
X2208942Y1427192D01*
X2216787Y1433213D01*
X2222808Y1441058D01*
X2226592Y1450195D01*
X2227883Y1460000D01*
X2226592Y1469805D01*
X2225081Y1473453D01*
X2288164Y1536535D01*
X2344803D01*
Y1564706D01*
X2357818D01*
X2360175Y1560296D01*
X2358982Y1558510D01*
X2357289Y1550000D01*
X2358982Y1541490D01*
X2363803Y1534275D01*
X2371017Y1529455D01*
X2379528Y1527762D01*
X2411633D01*
X2458608Y1480787D01*
X2457192Y1478942D01*
X2453408Y1469805D01*
X2452117Y1460000D01*
X2453408Y1450195D01*
X2457192Y1441058D01*
X2458164Y1439793D01*
X2433665Y1415294D01*
X1485322D01*
X1483412Y1416571D01*
X1477559Y1417735D01*
X1251503D01*
X1249590Y1422354D01*
X1271942Y1444706D01*
X1455681D01*
X1457192Y1441058D01*
X1463213Y1433213D01*
X1471058Y1427192D01*
X1480195Y1423408D01*
X1490000Y1422117D01*
X1499805Y1423408D01*
X1508942Y1427192D01*
X1516787Y1433213D01*
X1522808Y1441058D01*
X1526592Y1450195D01*
X1527883Y1460000D01*
X1526592Y1469805D01*
X1522808Y1478942D01*
X1516787Y1486787D01*
X1508942Y1492808D01*
X1499805Y1496592D01*
X1490000Y1497883D01*
X1485378Y1497275D01*
X1455116Y1527536D01*
X1455606Y1532512D01*
X1458245Y1534275D01*
X1462958Y1541329D01*
X1554652Y1633024D01*
X1559994Y1629455D01*
X1568504Y1627762D01*
X1631496D01*
X1640006Y1629455D01*
X1647221Y1634275D01*
X1652042Y1641490D01*
X1653734Y1650000D01*
X1652042Y1658510D01*
X1647221Y1665725D01*
X1640006Y1670545D01*
X1631496Y1672238D01*
X1588683D01*
X1585853Y1674130D01*
X1580000Y1675294D01*
X1560000D01*
X1554147Y1674130D01*
X1549186Y1670814D01*
X1468378Y1590007D01*
X1463354Y1591533D01*
X1463134Y1591833D01*
X1464758Y1600000D01*
X1463065Y1608510D01*
X1458245Y1615725D01*
X1451030Y1620545D01*
X1442520Y1622238D01*
X1415095D01*
X1412578Y1627238D01*
X1412966Y1627762D01*
X1442520D01*
X1451030Y1629455D01*
X1458245Y1634275D01*
X1463065Y1641490D01*
X1464758Y1650000D01*
X1463065Y1658510D01*
X1458245Y1665725D01*
X1451030Y1670545D01*
X1442520Y1672238D01*
X1379527D01*
X1371017Y1670545D01*
X1363803Y1665725D01*
X1358982Y1658510D01*
X1358342Y1655294D01*
X1284098D01*
X1241727Y1697665D01*
X1236765Y1700980D01*
X1230913Y1702144D01*
X1223465D01*
Y1718504D01*
X1175294D01*
Y1728031D01*
X1174130Y1733884D01*
X1170814Y1738846D01*
X1146829Y1762831D01*
Y1814509D01*
X1162244D01*
X1168097Y1815674D01*
X1173059Y1818989D01*
X1186353Y1832284D01*
X1216811D01*
X1218189Y1832284D01*
X1221811D01*
X1223189Y1832284D01*
X1273307D01*
Y1871678D01*
X1306335Y1904706D01*
X1366693D01*
Y1892284D01*
X1377147D01*
Y1871765D01*
X1371017Y1870545D01*
X1363803Y1865725D01*
X1358982Y1858510D01*
X1357289Y1850000D01*
X1358982Y1841490D01*
X1363803Y1834275D01*
X1371017Y1829455D01*
X1377147Y1828235D01*
Y1827559D01*
X1378256Y1821985D01*
X1371017Y1820545D01*
X1363803Y1815725D01*
X1358982Y1808510D01*
X1357289Y1800000D01*
X1358982Y1791490D01*
X1363803Y1784275D01*
X1371017Y1779455D01*
X1379527Y1777762D01*
X1396821D01*
X1399987Y1772762D01*
X1399739Y1772238D01*
X1379527D01*
X1371017Y1770545D01*
X1363803Y1765725D01*
X1363515Y1765294D01*
X1356335D01*
X1353307Y1768322D01*
Y1787717D01*
X1301811D01*
Y1732284D01*
X1301811Y1732284D01*
Y1727716D01*
X1301811D01*
X1301811Y1727284D01*
Y1672284D01*
X1318627D01*
X1322349Y1669428D01*
X1330863Y1665901D01*
X1340000Y1664698D01*
X1349137Y1665901D01*
X1357651Y1669428D01*
X1364962Y1675038D01*
X1368469Y1679608D01*
X1370787D01*
X1371017Y1679455D01*
X1379527Y1677762D01*
X1442520D01*
X1451030Y1679455D01*
X1458245Y1684275D01*
X1463065Y1691490D01*
X1464758Y1700000D01*
X1463065Y1708510D01*
X1458245Y1715725D01*
X1451030Y1720545D01*
X1442520Y1722238D01*
X1379527D01*
X1371017Y1720545D01*
X1370787Y1720392D01*
X1368469D01*
X1364962Y1724962D01*
X1361646Y1727507D01*
X1361401Y1729021D01*
X1362610Y1733070D01*
X1364901Y1733541D01*
X1371017Y1729455D01*
X1379527Y1727762D01*
X1442520D01*
X1451030Y1729455D01*
X1458245Y1734275D01*
X1463065Y1741490D01*
X1464758Y1750000D01*
X1463065Y1758510D01*
X1461704Y1760547D01*
X1464439Y1762375D01*
X1480145Y1778080D01*
X1483460Y1783042D01*
X1484625Y1788895D01*
Y1856145D01*
X1545015Y1916535D01*
X1598504D01*
Y1993171D01*
X1641496D01*
Y1916535D01*
X1704803D01*
Y1963174D01*
X1713185Y1971556D01*
X1856535D01*
Y1955197D01*
X1943465D01*
Y2018504D01*
X1856535D01*
Y2002144D01*
X1706850D01*
X1706497Y2002074D01*
X1704803Y2003465D01*
Y2003465D01*
X1678164D01*
X1674639Y2006990D01*
X1676710Y2011990D01*
X1714402D01*
X1720255Y2013154D01*
X1725217Y2016469D01*
X1734004Y2025256D01*
X1737319Y2030218D01*
X1737730Y2032284D01*
X1773307D01*
Y2051678D01*
X1810814Y2089186D01*
X1811438Y2090119D01*
X1816438Y2088603D01*
Y2085086D01*
X1817603Y2079233D01*
X1820918Y2074271D01*
X1849508Y2045682D01*
X1854469Y2042366D01*
X1860322Y2041202D01*
X1939678D01*
X1945531Y2042366D01*
X1950492Y2045682D01*
X1959279Y2054468D01*
X1962594Y2059430D01*
X1963758Y2065283D01*
Y2362230D01*
X1962594Y2368082D01*
X1959279Y2373044D01*
X1791705Y2540618D01*
X1786744Y2543933D01*
X1780891Y2545097D01*
X1580322D01*
X1574469Y2543933D01*
X1569508Y2540618D01*
X1558989Y2530099D01*
X1555674Y2525137D01*
X1554509Y2519284D01*
Y2506829D01*
X1511618D01*
X1467633Y2550814D01*
X1462671Y2554130D01*
X1458504Y2554959D01*
Y2573171D01*
X1475583D01*
X1481436Y2574335D01*
X1486398Y2577650D01*
X1534004Y2625256D01*
X1537319Y2630218D01*
X1537730Y2632284D01*
X1573307D01*
Y2666693D01*
X1627717D01*
Y2716811D01*
X1627717Y2718189D01*
Y2721811D01*
X1627717Y2723189D01*
Y2773307D01*
X1607084D01*
X1605853Y2774130D01*
X1600000Y2775294D01*
X1594147Y2774130D01*
X1592916Y2773307D01*
X1572284D01*
Y2770294D01*
X1511555D01*
X1508882Y2775294D01*
X1509420Y2776098D01*
X1510196Y2780000D01*
Y2820000D01*
X1509420Y2823902D01*
X1507210Y2827210D01*
X1503902Y2829420D01*
X1500000Y2830196D01*
X1478142D01*
X1477651Y2830572D01*
X1469137Y2834099D01*
X1460000Y2835302D01*
X1450863Y2834099D01*
X1442349Y2830572D01*
X1441858Y2830196D01*
X1436764D01*
X1435604Y2835196D01*
X1441709Y2839275D01*
X1446530Y2846490D01*
X1448223Y2855000D01*
X1446530Y2863510D01*
X1441709Y2870725D01*
X1434495Y2875546D01*
X1425984Y2877238D01*
X1404391D01*
X1375294Y2906335D01*
Y2915197D01*
X1403465D01*
Y2968210D01*
X1760473D01*
Y2940472D01*
X1839527D01*
Y2963726D01*
X1844527Y2966398D01*
X1845318Y2965870D01*
X1851171Y2964706D01*
X1863551D01*
X1865473Y2960066D01*
X1871809Y2951809D01*
X1880066Y2945473D01*
X1889681Y2941490D01*
X1900000Y2940131D01*
X1910319Y2941490D01*
X1919934Y2945473D01*
X1928191Y2951809D01*
X1934527Y2960066D01*
X1938510Y2969681D01*
X1939869Y2980000D01*
X1939073Y2986045D01*
X1942370Y2989804D01*
X1957630D01*
X1960927Y2986045D01*
D02*
G37*
G36*
X3000000Y1410196D02*
X2690196D01*
X2688593Y1409877D01*
X2686972Y1409673D01*
X2686653Y1409491D01*
X2686294Y1409420D01*
X2684935Y1408512D01*
X2683515Y1407703D01*
X2683291Y1407413D01*
X2682986Y1407210D01*
X2682078Y1405851D01*
X2681076Y1404560D01*
X2680980Y1404206D01*
X2680776Y1403902D01*
X2680457Y1402299D01*
X2680026Y1400723D01*
X2675077Y1400000D01*
X2468162D01*
X2466248Y1404619D01*
X2484473Y1422844D01*
X2490000Y1422117D01*
X2499805Y1423408D01*
X2508942Y1427192D01*
X2516787Y1433213D01*
X2522808Y1441058D01*
X2526592Y1450195D01*
X2527883Y1460000D01*
X2526592Y1469805D01*
X2522808Y1478942D01*
X2516787Y1486787D01*
X2508942Y1492808D01*
X2499805Y1496592D01*
X2490000Y1497883D01*
X2485378Y1497275D01*
X2455116Y1527536D01*
X2455606Y1532512D01*
X2458245Y1534275D01*
X2462958Y1541329D01*
X2554652Y1633024D01*
X2559994Y1629455D01*
X2568504Y1627762D01*
X2631496D01*
X2640006Y1629455D01*
X2647221Y1634275D01*
X2652042Y1641490D01*
X2653734Y1650000D01*
X2652042Y1658510D01*
X2647221Y1665725D01*
X2640006Y1670545D01*
X2631496Y1672238D01*
X2588683D01*
X2585853Y1674130D01*
X2580000Y1675294D01*
X2560000D01*
X2554147Y1674130D01*
X2549186Y1670814D01*
X2468378Y1590007D01*
X2463354Y1591533D01*
X2463134Y1591833D01*
X2464758Y1600000D01*
X2463065Y1608510D01*
X2458245Y1615725D01*
X2451030Y1620545D01*
X2442520Y1622238D01*
X2415095D01*
X2412578Y1627238D01*
X2412966Y1627762D01*
X2442520D01*
X2451030Y1629455D01*
X2458245Y1634275D01*
X2463065Y1641490D01*
X2464758Y1650000D01*
X2463065Y1658510D01*
X2458245Y1665725D01*
X2451030Y1670545D01*
X2442520Y1672238D01*
X2379528D01*
X2371017Y1670545D01*
X2363803Y1665725D01*
X2358982Y1658510D01*
X2358342Y1655294D01*
X2284098D01*
X2241727Y1697665D01*
X2236765Y1700980D01*
X2230913Y1702144D01*
X2223465D01*
Y1718504D01*
X2175294D01*
Y1728031D01*
X2174130Y1733884D01*
X2170814Y1738846D01*
X2146829Y1762831D01*
Y1814509D01*
X2162244D01*
X2168097Y1815674D01*
X2173059Y1818989D01*
X2186353Y1832284D01*
X2216811D01*
X2218189Y1832284D01*
X2221811D01*
X2223189Y1832284D01*
X2273307D01*
Y1871678D01*
X2306335Y1904706D01*
X2366693D01*
Y1892284D01*
X2377147D01*
Y1871765D01*
X2371017Y1870545D01*
X2363803Y1865725D01*
X2358982Y1858510D01*
X2357289Y1850000D01*
X2358982Y1841490D01*
X2363803Y1834275D01*
X2371017Y1829455D01*
X2377147Y1828235D01*
Y1827559D01*
X2378256Y1821985D01*
X2371017Y1820545D01*
X2363803Y1815725D01*
X2358982Y1808510D01*
X2357289Y1800000D01*
X2358982Y1791490D01*
X2363803Y1784275D01*
X2371017Y1779455D01*
X2379528Y1777762D01*
X2396821D01*
X2399987Y1772762D01*
X2399740Y1772238D01*
X2379528D01*
X2371017Y1770545D01*
X2363803Y1765725D01*
X2363515Y1765294D01*
X2356335D01*
X2353307Y1768322D01*
Y1787717D01*
X2301811D01*
Y1732284D01*
X2301811Y1732284D01*
Y1727716D01*
X2301811D01*
X2301811Y1727284D01*
Y1672284D01*
X2318627D01*
X2322349Y1669428D01*
X2330863Y1665901D01*
X2340000Y1664698D01*
X2349137Y1665901D01*
X2357651Y1669428D01*
X2364962Y1675038D01*
X2368469Y1679608D01*
X2370787D01*
X2371017Y1679455D01*
X2379528Y1677762D01*
X2442520D01*
X2451030Y1679455D01*
X2458245Y1684275D01*
X2463065Y1691490D01*
X2464758Y1700000D01*
X2463065Y1708510D01*
X2458245Y1715725D01*
X2451030Y1720545D01*
X2442520Y1722238D01*
X2379528D01*
X2371017Y1720545D01*
X2370787Y1720392D01*
X2368469D01*
X2364962Y1724962D01*
X2361646Y1727507D01*
X2361401Y1729021D01*
X2362610Y1733070D01*
X2364901Y1733541D01*
X2371017Y1729455D01*
X2379528Y1727762D01*
X2442520D01*
X2451030Y1729455D01*
X2458245Y1734275D01*
X2463065Y1741490D01*
X2464758Y1750000D01*
X2463065Y1758510D01*
X2461704Y1760547D01*
X2464439Y1762375D01*
X2480145Y1778080D01*
X2483460Y1783042D01*
X2484625Y1788895D01*
Y1856145D01*
X2545015Y1916535D01*
X2598504D01*
Y1993171D01*
X2641496D01*
Y1916535D01*
X2704803D01*
Y1963174D01*
X2713185Y1971556D01*
X2856535D01*
Y1955197D01*
X2943465D01*
Y2018504D01*
X2856535D01*
Y2002144D01*
X2706850D01*
X2706497Y2002074D01*
X2704803Y2003465D01*
Y2003465D01*
X2678164D01*
X2674639Y2006990D01*
X2676710Y2011990D01*
X2714402D01*
X2720255Y2013154D01*
X2725217Y2016469D01*
X2734003Y2025256D01*
X2737319Y2030218D01*
X2737730Y2032284D01*
X2773307D01*
Y2051678D01*
X2810814Y2089186D01*
X2811438Y2090119D01*
X2816438Y2088603D01*
Y2085086D01*
X2817603Y2079233D01*
X2820918Y2074271D01*
X2849508Y2045682D01*
X2854470Y2042366D01*
X2860322Y2041202D01*
X2939678D01*
X2945530Y2042366D01*
X2950492Y2045682D01*
X2959279Y2054468D01*
X2962594Y2059430D01*
X2963758Y2065283D01*
Y2362230D01*
X2962594Y2368082D01*
X2959279Y2373044D01*
X2861081Y2471242D01*
X2863153Y2476242D01*
X2898654D01*
X2904507Y2477406D01*
X2909469Y2480721D01*
X2934003Y2505256D01*
X2937319Y2510218D01*
X2937730Y2512284D01*
X2973307D01*
Y2567717D01*
X2935846D01*
X2933174Y2572717D01*
X2934130Y2574147D01*
X2935294Y2580000D01*
Y2626693D01*
X2947717D01*
Y2678189D01*
X2947717D01*
Y2681811D01*
X2947717D01*
Y2733307D01*
X2892284D01*
Y2722853D01*
X2878776D01*
X2851280Y2750349D01*
X2852042Y2751490D01*
X2853734Y2760000D01*
X2852042Y2768510D01*
X2847221Y2775725D01*
X2840006Y2780546D01*
X2831496Y2782238D01*
X2768504D01*
X2759994Y2780546D01*
X2755196Y2777340D01*
X2750196Y2780012D01*
Y2788510D01*
X2755196Y2791183D01*
X2756098Y2790580D01*
X2759246Y2789954D01*
X2759994Y2789454D01*
X2768504Y2787762D01*
X2831496D01*
X2840006Y2789454D01*
X2840530Y2789804D01*
X2861858D01*
X2862349Y2789428D01*
X2870863Y2785901D01*
X2880000Y2784698D01*
X2889137Y2785901D01*
X2897651Y2789428D01*
X2898142Y2789804D01*
X2900000D01*
X2903902Y2790580D01*
X2907210Y2792790D01*
X2909420Y2796098D01*
X2910196Y2800000D01*
Y2801858D01*
X2910572Y2802349D01*
X2914099Y2810863D01*
X2915302Y2820000D01*
X2914099Y2829137D01*
X2910572Y2837651D01*
X2910196Y2838142D01*
Y2840000D01*
X2909420Y2843902D01*
X2907210Y2847210D01*
X2903902Y2849420D01*
X2900000Y2850196D01*
X2898142D01*
X2897651Y2850572D01*
X2889137Y2854099D01*
X2880000Y2855302D01*
X2870863Y2854099D01*
X2862349Y2850572D01*
X2861858Y2850196D01*
X2856733D01*
X2852779Y2855196D01*
X2853734Y2860000D01*
X2852042Y2868510D01*
X2847221Y2875725D01*
X2840006Y2880546D01*
X2831496Y2882238D01*
X2799391D01*
X2775294Y2906335D01*
Y2915197D01*
X2803465D01*
Y2978504D01*
X2750196D01*
Y3009804D01*
X2800000Y3009804D01*
X2803902Y3010580D01*
X2807210Y3012790D01*
X2809420Y3016098D01*
X2810196Y3020000D01*
Y3100000D01*
X3000000D01*
Y1410196D01*
D02*
G37*
G36*
X2800000Y3020000D02*
X2740000Y3020000D01*
Y2978504D01*
X2716535D01*
Y2915197D01*
X2740000D01*
Y2618758D01*
X2403465D01*
X2397612Y2617594D01*
X2392650Y2614279D01*
X2378371Y2600000D01*
X1960000D01*
Y2720000D01*
X1931846D01*
X1931030Y2720546D01*
X1922520Y2722238D01*
X1859527D01*
X1851017Y2720546D01*
X1850787Y2720392D01*
X1840000D01*
Y2760000D01*
X1993101D01*
X2020000Y2733101D01*
Y2660000D01*
X2680000Y2660000D01*
Y2915197D01*
X2703465D01*
Y2978504D01*
X2680000D01*
Y3000000D01*
X2385079D01*
X2349737Y3035342D01*
X2344775Y3038657D01*
X2338923Y3039822D01*
X2181556D01*
X2175703Y3038657D01*
X2170742Y3035342D01*
X2138444Y3003044D01*
X2131829Y3003451D01*
X2128191Y3008191D01*
X2119934Y3014527D01*
X2110319Y3018510D01*
X2100000Y3019869D01*
X2089681Y3018510D01*
X2080066Y3014527D01*
X2071809Y3008191D01*
X2065523Y3000000D01*
X2034477D01*
X2028191Y3008191D01*
X2019934Y3014527D01*
X2010319Y3018510D01*
X2000000Y3019869D01*
X1989681Y3018510D01*
X1980066Y3014527D01*
X1971809Y3008191D01*
X1965523Y3000000D01*
X1934477D01*
X1928191Y3008191D01*
X1919934Y3014527D01*
X1910319Y3018510D01*
X1900000Y3019869D01*
X1889681Y3018510D01*
X1880066Y3014527D01*
X1871809Y3008191D01*
X1865523Y3000000D01*
X1859822D01*
Y3015741D01*
X1858657Y3021593D01*
X1855342Y3026555D01*
X1846555Y3035342D01*
X1841593Y3038657D01*
X1835741Y3039822D01*
X1764259D01*
X1758407Y3038657D01*
X1753445Y3035342D01*
X1731901Y3013798D01*
X1215322D01*
X1209469Y3012634D01*
X1205000Y3009647D01*
X1201797Y3010441D01*
X1200000Y3011186D01*
Y3100000D01*
X2800000D01*
Y3020000D01*
D02*
G37*
G36*
X2180000Y2860000D02*
X2120000D01*
Y2840000D01*
X2040000D01*
Y2900000D01*
X2180000D01*
Y2860000D01*
D02*
G37*
G36*
X2900000Y2800000D02*
X2760000D01*
Y2835512D01*
X2763865Y2838684D01*
X2768504Y2837762D01*
X2831496D01*
X2840006Y2839454D01*
X2840823Y2840000D01*
X2900000D01*
Y2800000D01*
D02*
G37*
G36*
X2258430Y2869423D02*
X2256516Y2864803D01*
X2196535D01*
Y2818164D01*
X2171678Y2793307D01*
X2136344D01*
X2133172Y2797172D01*
X2133734Y2800000D01*
X2132042Y2808510D01*
X2127221Y2815725D01*
X2120006Y2820546D01*
X2111496Y2822238D01*
X2099213D01*
X2096911Y2827238D01*
X2097360Y2827762D01*
X2111496D01*
X2120006Y2829454D01*
X2120754Y2829954D01*
X2123902Y2830580D01*
X2127210Y2832790D01*
X2129420Y2836098D01*
X2129836Y2838188D01*
X2132042Y2841490D01*
X2133695Y2849804D01*
X2180000D01*
X2183902Y2850580D01*
X2187210Y2852790D01*
X2189420Y2856098D01*
X2190196Y2860000D01*
Y2900000D01*
X2192669Y2903013D01*
X2224839D01*
X2258430Y2869423D01*
D02*
G37*
G36*
X1500000Y2780000D02*
X1340000D01*
Y2820000D01*
X1500000D01*
Y2780000D01*
D02*
G37*
G36*
X1344706Y2900000D02*
X1345870Y2894147D01*
X1349186Y2889186D01*
X1357691Y2880680D01*
X1356240Y2875895D01*
X1354482Y2875546D01*
X1347267Y2870725D01*
X1342447Y2863510D01*
X1340754Y2855000D01*
X1342447Y2846490D01*
X1347267Y2839275D01*
X1353372Y2835196D01*
X1352213Y2830196D01*
X1340000D01*
X1336098Y2829420D01*
X1332790Y2827210D01*
X1330580Y2823902D01*
X1329804Y2820000D01*
Y2780000D01*
X1330580Y2776098D01*
X1332790Y2772790D01*
X1336098Y2770580D01*
X1340000Y2769804D01*
X1341349D01*
X1343706Y2765394D01*
X1342447Y2763510D01*
X1340754Y2755000D01*
X1342447Y2746490D01*
X1347267Y2739275D01*
X1354482Y2734454D01*
X1362992Y2732762D01*
X1425984D01*
X1434495Y2734454D01*
X1441709Y2739275D01*
X1441997Y2739706D01*
X1572284D01*
Y2723189D01*
X1572284Y2721811D01*
Y2718189D01*
X1572284Y2716811D01*
Y2708011D01*
X1512717D01*
X1506864Y2706846D01*
X1501902Y2703531D01*
X1486088Y2687717D01*
X1466693D01*
Y2675294D01*
X1280000D01*
X1274147Y2674130D01*
X1273676Y2673814D01*
X1272163Y2674626D01*
X1269623Y2677120D01*
X1270196Y2680000D01*
Y2740000D01*
X1269420Y2743902D01*
X1267210Y2747210D01*
X1263902Y2749420D01*
X1263260Y2749548D01*
X1259196Y2754746D01*
X1259246Y2755000D01*
X1257553Y2763510D01*
X1252733Y2770725D01*
X1245518Y2775546D01*
X1238339Y2776974D01*
X1238250Y2776996D01*
X1237651Y2778178D01*
X1239753Y2783308D01*
X1245518Y2784454D01*
X1245895Y2784706D01*
X1280000D01*
X1285853Y2785870D01*
X1290814Y2789186D01*
X1322350Y2820721D01*
X1325665Y2825683D01*
X1326829Y2831535D01*
Y2915197D01*
X1344706D01*
Y2900000D01*
D02*
G37*
G36*
X2759994Y2739454D02*
X2768504Y2737762D01*
X2820610D01*
X2861627Y2696745D01*
X2866588Y2693429D01*
X2872441Y2692265D01*
X2892284D01*
Y2681811D01*
X2892283D01*
Y2678189D01*
X2892284D01*
Y2626693D01*
X2904706D01*
Y2586335D01*
X2886088Y2567717D01*
X2866693D01*
X2865097Y2572056D01*
Y2579678D01*
X2863933Y2585530D01*
X2860618Y2590492D01*
X2836831Y2614279D01*
X2831869Y2617594D01*
X2826016Y2618758D01*
X2750196D01*
Y2739988D01*
X2755196Y2742660D01*
X2759994Y2739454D01*
D02*
G37*
G36*
X2834509Y2573343D02*
Y2542102D01*
X2835673Y2536250D01*
X2838989Y2531288D01*
X2841091Y2529186D01*
X2846053Y2525870D01*
X2851905Y2524706D01*
X2866693D01*
Y2512284D01*
X2885719D01*
X2888392Y2507284D01*
X2888088Y2506829D01*
X2791618D01*
X2758798Y2539649D01*
Y2579678D01*
X2758103Y2583171D01*
X2761425Y2588171D01*
X2819682D01*
X2834509Y2573343D01*
D02*
G37*
G36*
X1830580Y2716490D02*
X1832790Y2713182D01*
X1836098Y2710972D01*
X1840000Y2710196D01*
X1850787D01*
X1851772Y2710392D01*
X1852776Y2710392D01*
X1853277Y2710599D01*
X1860532Y2712042D01*
X1911572D01*
X1914213Y2711517D01*
X1924156D01*
X1927554Y2710841D01*
X1927944Y2710580D01*
X1928929Y2710385D01*
X1929857Y2710000D01*
X1930861D01*
X1931846Y2709804D01*
X1949804D01*
Y2680000D01*
X1780000D01*
Y2720000D01*
X1829882D01*
X1830580Y2716490D01*
D02*
G37*
G36*
X1260000Y2680000D02*
X1100000D01*
Y2740000D01*
X1157806D01*
X1158291Y2739275D01*
X1165505Y2734454D01*
X1174016Y2732762D01*
X1237008D01*
X1245518Y2734454D01*
X1252733Y2739275D01*
X1253217Y2740000D01*
X1260000D01*
Y2680000D01*
D02*
G37*
G36*
X2669804Y2670196D02*
X2440000D01*
Y2740000D01*
X2570201D01*
X2571017Y2739454D01*
X2579528Y2737762D01*
X2642520D01*
X2651030Y2739454D01*
X2651846Y2740000D01*
X2669804D01*
Y2670196D01*
D02*
G37*
G36*
X2060927Y2986045D02*
X2060131Y2980000D01*
X2061490Y2969681D01*
X2065473Y2960066D01*
X2071809Y2951809D01*
X2080066Y2945473D01*
X2089681Y2941490D01*
X2100000Y2940131D01*
X2110319Y2941490D01*
X2119934Y2945473D01*
X2128191Y2951809D01*
X2134527Y2960066D01*
X2136449Y2964706D01*
X2137028D01*
X2142881Y2965870D01*
X2147843Y2969186D01*
X2155503Y2976846D01*
X2160782Y2975054D01*
X2161490Y2969681D01*
X2165473Y2960066D01*
X2171809Y2951809D01*
X2180066Y2945473D01*
X2189681Y2941490D01*
X2200000Y2940131D01*
X2210319Y2941490D01*
X2219934Y2945473D01*
X2228191Y2951809D01*
X2234527Y2960066D01*
X2236449Y2964706D01*
X2355902D01*
X2548234Y2772375D01*
X2553195Y2769059D01*
X2558867Y2767931D01*
X2557289Y2760000D01*
X2558245Y2755196D01*
X2554291Y2750196D01*
X2440000D01*
X2436098Y2749420D01*
X2432790Y2747210D01*
X2430580Y2743902D01*
X2429804Y2740000D01*
Y2670196D01*
X2030196Y2670196D01*
Y2721667D01*
X2034061Y2724839D01*
X2034730Y2724706D01*
X2080000D01*
X2085853Y2725870D01*
X2088683Y2727762D01*
X2091317D01*
X2094147Y2725870D01*
X2100000Y2724706D01*
X2126106D01*
X2132284Y2718529D01*
Y2686693D01*
X2187717D01*
Y2711557D01*
X2196535D01*
Y2695197D01*
X2283465D01*
Y2758504D01*
X2196535D01*
Y2742144D01*
X2187717D01*
Y2766088D01*
X2223125Y2801496D01*
X2250025D01*
X2296535Y2754985D01*
Y2695197D01*
X2383465D01*
Y2758504D01*
X2336274D01*
X2298282Y2796496D01*
X2300353Y2801496D01*
X2383465D01*
Y2864803D01*
X2303005D01*
X2302594Y2866869D01*
X2299279Y2871831D01*
X2241988Y2929122D01*
X2237026Y2932437D01*
X2231174Y2933601D01*
X2068028D01*
X2036588Y2965041D01*
X2038510Y2969681D01*
X2039869Y2980000D01*
X2039073Y2986045D01*
X2042370Y2989804D01*
X2057630D01*
X2060927Y2986045D01*
D02*
G37*
%LPC*%
G36*
X2040000Y1359869D02*
X2029681Y1358510D01*
X2020066Y1354527D01*
X2011809Y1348191D01*
X2005473Y1339934D01*
X2001490Y1330319D01*
X2000131Y1320000D01*
X2001490Y1309681D01*
X2005473Y1300066D01*
X2011809Y1291809D01*
X2020066Y1285473D01*
X2029681Y1281490D01*
X2040000Y1280131D01*
X2050319Y1281490D01*
X2059934Y1285473D01*
X2068191Y1291809D01*
X2074527Y1300066D01*
X2078510Y1309681D01*
X2079869Y1320000D01*
X2078510Y1330319D01*
X2074527Y1339934D01*
X2068191Y1348191D01*
X2059934Y1354527D01*
X2050319Y1358510D01*
X2040000Y1359869D01*
D02*
G37*
G36*
X1940000D02*
X1929681Y1358510D01*
X1920066Y1354527D01*
X1911809Y1348191D01*
X1905473Y1339934D01*
X1901490Y1330319D01*
X1900131Y1320000D01*
X1901490Y1309681D01*
X1905473Y1300066D01*
X1911809Y1291809D01*
X1920066Y1285473D01*
X1929681Y1281490D01*
X1940000Y1280131D01*
X1950319Y1281490D01*
X1959934Y1285473D01*
X1968191Y1291809D01*
X1974527Y1300066D01*
X1978510Y1309681D01*
X1979869Y1320000D01*
X1978510Y1330319D01*
X1974527Y1339934D01*
X1968191Y1348191D01*
X1959934Y1354527D01*
X1950319Y1358510D01*
X1940000Y1359869D01*
D02*
G37*
G36*
X1840000D02*
X1829681Y1358510D01*
X1820066Y1354527D01*
X1811809Y1348191D01*
X1805473Y1339934D01*
X1801490Y1330319D01*
X1800131Y1320000D01*
X1801490Y1309681D01*
X1805473Y1300066D01*
X1811809Y1291809D01*
X1820066Y1285473D01*
X1829681Y1281490D01*
X1840000Y1280131D01*
X1850319Y1281490D01*
X1859934Y1285473D01*
X1868191Y1291809D01*
X1874527Y1300066D01*
X1878510Y1309681D01*
X1879869Y1320000D01*
X1878510Y1330319D01*
X1874527Y1339934D01*
X1868191Y1348191D01*
X1859934Y1354527D01*
X1850319Y1358510D01*
X1840000Y1359869D01*
D02*
G37*
G36*
X2240000D02*
X2229681Y1358510D01*
X2220066Y1354527D01*
X2211809Y1348191D01*
X2205473Y1339934D01*
X2201490Y1330319D01*
X2200131Y1320000D01*
X2201490Y1309681D01*
X2205473Y1300066D01*
X2211809Y1291809D01*
X2220066Y1285473D01*
X2229681Y1281490D01*
X2240000Y1280131D01*
X2250319Y1281490D01*
X2259934Y1285473D01*
X2268191Y1291809D01*
X2274527Y1300066D01*
X2278510Y1309681D01*
X2279869Y1320000D01*
X2278510Y1330319D01*
X2274527Y1339934D01*
X2268191Y1348191D01*
X2259934Y1354527D01*
X2250319Y1358510D01*
X2240000Y1359869D01*
D02*
G37*
G36*
X2379528Y1359527D02*
X2300472D01*
Y1280473D01*
X2379528D01*
Y1359527D01*
D02*
G37*
G36*
X1631496Y1872238D02*
X1568504D01*
X1559994Y1870545D01*
X1552779Y1865725D01*
X1547958Y1858510D01*
X1546266Y1850000D01*
X1547958Y1841490D01*
X1552779Y1834275D01*
X1559994Y1829455D01*
X1565791Y1828301D01*
X1564898Y1821521D01*
X1559994Y1820545D01*
X1552779Y1815725D01*
X1547958Y1808510D01*
X1546266Y1800000D01*
X1547958Y1791490D01*
X1552779Y1784275D01*
X1559994Y1779455D01*
X1568504Y1777762D01*
X1631496D01*
X1640006Y1779455D01*
X1647221Y1784275D01*
X1652042Y1791490D01*
X1653734Y1800000D01*
X1652042Y1808510D01*
X1647221Y1815725D01*
X1640006Y1820545D01*
X1635102Y1821521D01*
X1634209Y1828301D01*
X1640006Y1829455D01*
X1647221Y1834275D01*
X1652042Y1841490D01*
X1653734Y1850000D01*
X1652042Y1858510D01*
X1647221Y1865725D01*
X1640006Y1870545D01*
X1631496Y1872238D01*
D02*
G37*
G36*
X1822946Y1788719D02*
X1762819D01*
X1756966Y1787555D01*
X1752004Y1784240D01*
X1733059Y1765294D01*
X1647509D01*
X1647221Y1765725D01*
X1640006Y1770545D01*
X1631496Y1772238D01*
X1568504D01*
X1559994Y1770545D01*
X1552779Y1765725D01*
X1547958Y1758510D01*
X1546266Y1750000D01*
X1547958Y1741490D01*
X1552779Y1734275D01*
X1559994Y1729455D01*
X1568504Y1727762D01*
X1631496D01*
X1640006Y1729455D01*
X1647221Y1734275D01*
X1647509Y1734706D01*
X1726544D01*
X1728458Y1730087D01*
X1723174Y1724803D01*
X1656535D01*
Y1661496D01*
X1743465D01*
Y1701836D01*
X1753264Y1711635D01*
X1773268D01*
Y1685433D01*
X1816438D01*
Y1648268D01*
X1817603Y1642415D01*
X1819506Y1639567D01*
X1816923Y1634567D01*
X1773268D01*
Y1551575D01*
X1784706D01*
Y1538776D01*
X1753647Y1507717D01*
X1741471D01*
X1715185Y1534003D01*
X1710223Y1537319D01*
X1704370Y1538483D01*
X1659853D01*
X1656902Y1543483D01*
X1657577Y1544706D01*
X1673150D01*
X1679002Y1545870D01*
X1683964Y1549186D01*
X1689975Y1555197D01*
X1743465D01*
Y1618504D01*
X1656535D01*
Y1610099D01*
X1654788Y1609481D01*
X1651535Y1609268D01*
X1647221Y1615725D01*
X1640006Y1620545D01*
X1631496Y1622238D01*
X1568504D01*
X1559994Y1620545D01*
X1552779Y1615725D01*
X1547958Y1608510D01*
X1546266Y1600000D01*
X1547958Y1591490D01*
X1549319Y1589453D01*
X1546584Y1587625D01*
X1530879Y1571920D01*
X1527563Y1566958D01*
X1526399Y1561105D01*
Y1538895D01*
X1527563Y1533042D01*
X1530879Y1528080D01*
X1546584Y1512375D01*
X1551546Y1509059D01*
X1557399Y1507895D01*
X1698035D01*
X1721811Y1484119D01*
Y1452284D01*
X1773307D01*
Y1484119D01*
X1810814Y1521627D01*
X1814130Y1526588D01*
X1815294Y1532441D01*
Y1551575D01*
X1826732D01*
Y1577777D01*
X1856535D01*
Y1541496D01*
X1943465D01*
Y1604803D01*
X1896826D01*
X1847026Y1654603D01*
Y1764638D01*
X1845862Y1770491D01*
X1842547Y1775453D01*
X1833760Y1784240D01*
X1828798Y1787555D01*
X1822946Y1788719D01*
D02*
G37*
G36*
X2822945D02*
X2752819D01*
X2746966Y1787555D01*
X2742004Y1784240D01*
X2723059Y1765294D01*
X2647509D01*
X2647221Y1765725D01*
X2640006Y1770545D01*
X2631496Y1772238D01*
X2568504D01*
X2559994Y1770545D01*
X2552779Y1765725D01*
X2547958Y1758510D01*
X2546266Y1750000D01*
X2547958Y1741490D01*
X2552779Y1734275D01*
X2559994Y1729455D01*
X2568504Y1727762D01*
X2631496D01*
X2640006Y1729455D01*
X2647221Y1734275D01*
X2647509Y1734706D01*
X2726006D01*
X2728077Y1729706D01*
X2723174Y1724803D01*
X2656535D01*
Y1661496D01*
X2743465D01*
Y1701836D01*
X2753264Y1711635D01*
X2773268D01*
Y1685433D01*
X2816438D01*
Y1634567D01*
X2773268D01*
Y1551575D01*
X2784706D01*
Y1538776D01*
X2753647Y1507717D01*
X2741471D01*
X2715185Y1534003D01*
X2710223Y1537319D01*
X2704370Y1538483D01*
X2659854D01*
X2656902Y1543483D01*
X2657577Y1544706D01*
X2673150D01*
X2679002Y1545870D01*
X2683964Y1549186D01*
X2689975Y1555197D01*
X2743465D01*
Y1618504D01*
X2656535D01*
Y1610099D01*
X2654788Y1609481D01*
X2651535Y1609268D01*
X2647221Y1615725D01*
X2640006Y1620545D01*
X2631496Y1622238D01*
X2568504D01*
X2559994Y1620545D01*
X2552779Y1615725D01*
X2547958Y1608510D01*
X2546266Y1600000D01*
X2547958Y1591490D01*
X2549319Y1589453D01*
X2546584Y1587625D01*
X2530878Y1571920D01*
X2527563Y1566958D01*
X2526399Y1561105D01*
Y1538895D01*
X2527563Y1533042D01*
X2530878Y1528080D01*
X2546584Y1512375D01*
X2551546Y1509059D01*
X2557398Y1507895D01*
X2698035D01*
X2721811Y1484119D01*
Y1452284D01*
X2773307D01*
Y1484119D01*
X2810814Y1521627D01*
X2814130Y1526588D01*
X2815294Y1532441D01*
Y1551575D01*
X2826732D01*
Y1577777D01*
X2856535D01*
Y1541496D01*
X2943465D01*
Y1604803D01*
X2876826D01*
X2847026Y1634603D01*
Y1764638D01*
X2845862Y1770491D01*
X2842547Y1775453D01*
X2833760Y1784240D01*
X2828798Y1787555D01*
X2822945Y1788719D01*
D02*
G37*
G36*
X2631496Y1872238D02*
X2568504D01*
X2559994Y1870545D01*
X2552779Y1865725D01*
X2547958Y1858510D01*
X2546266Y1850000D01*
X2547958Y1841490D01*
X2552779Y1834275D01*
X2559994Y1829455D01*
X2565791Y1828301D01*
X2564898Y1821521D01*
X2559994Y1820545D01*
X2552779Y1815725D01*
X2547958Y1808510D01*
X2546266Y1800000D01*
X2547958Y1791490D01*
X2552779Y1784275D01*
X2559994Y1779455D01*
X2568504Y1777762D01*
X2631496D01*
X2640006Y1779455D01*
X2647221Y1784275D01*
X2652042Y1791490D01*
X2653734Y1800000D01*
X2652042Y1808510D01*
X2647221Y1815725D01*
X2640006Y1820545D01*
X2635102Y1821521D01*
X2634209Y1828301D01*
X2640006Y1829455D01*
X2647221Y1834275D01*
X2652042Y1841490D01*
X2653734Y1850000D01*
X2652042Y1858510D01*
X2647221Y1865725D01*
X2640006Y1870545D01*
X2631496Y1872238D01*
D02*
G37*
%LPD*%
G36*
X2636028Y1860941D02*
X2639870Y1858374D01*
X2642437Y1854532D01*
X2643339Y1850000D01*
X2642437Y1845468D01*
X2639870Y1841626D01*
X2636028Y1839059D01*
X2632220Y1838301D01*
X2630685Y1837666D01*
X2629111Y1837131D01*
X2628857Y1836908D01*
X2628545Y1836779D01*
X2627369Y1835604D01*
X2626120Y1834508D01*
X2625971Y1834205D01*
X2625731Y1833966D01*
X2625095Y1832430D01*
X2624361Y1830940D01*
X2624338Y1830603D01*
X2624209Y1830291D01*
Y1828629D01*
X2624100Y1826971D01*
X2624993Y1820190D01*
X2625102Y1819870D01*
Y1819532D01*
X2625737Y1817997D01*
X2626272Y1816423D01*
X2626495Y1816169D01*
X2626624Y1815857D01*
X2627799Y1814681D01*
X2628895Y1813432D01*
X2629198Y1813283D01*
X2629437Y1813043D01*
X2630973Y1812407D01*
X2632463Y1811673D01*
X2632800Y1811650D01*
X2633113Y1811521D01*
X2636028Y1810941D01*
X2639870Y1808374D01*
X2642437Y1804532D01*
X2643339Y1800000D01*
X2642437Y1795468D01*
X2639870Y1791626D01*
X2636028Y1789059D01*
X2630492Y1787958D01*
X2569508D01*
X2563972Y1789059D01*
X2560130Y1791626D01*
X2557563Y1795468D01*
X2556661Y1800000D01*
X2557563Y1804532D01*
X2560130Y1808374D01*
X2563972Y1810941D01*
X2566887Y1811521D01*
X2567200Y1811650D01*
X2567537Y1811673D01*
X2569028Y1812408D01*
X2570563Y1813043D01*
X2570802Y1813283D01*
X2571105Y1813432D01*
X2572201Y1814681D01*
X2573376Y1815857D01*
X2573505Y1816169D01*
X2573728Y1816423D01*
X2574263Y1817997D01*
X2574898Y1819532D01*
Y1819870D01*
X2575007Y1820190D01*
X2575900Y1826971D01*
X2575791Y1828629D01*
Y1830291D01*
X2575662Y1830603D01*
X2575639Y1830940D01*
X2574905Y1832430D01*
X2574269Y1833966D01*
X2574029Y1834205D01*
X2573880Y1834508D01*
X2572631Y1835604D01*
X2571455Y1836779D01*
X2571143Y1836908D01*
X2570889Y1837131D01*
X2569315Y1837666D01*
X2567780Y1838301D01*
X2563972Y1839059D01*
X2560130Y1841626D01*
X2557563Y1845468D01*
X2556661Y1850000D01*
X2557563Y1854532D01*
X2560130Y1858374D01*
X2563972Y1860941D01*
X2569508Y1862042D01*
X2630492D01*
X2636028Y1860941D01*
D02*
G37*
D10*
X2692441Y2060000D02*
D03*
X2747559D02*
D03*
X2692441Y1480000D02*
D03*
X2747559D02*
D03*
X1692441D02*
D03*
X1747559D02*
D03*
X1692441Y2060000D02*
D03*
X1747559D02*
D03*
X2227559Y2300000D02*
D03*
X2172441D02*
D03*
X2892441Y2540000D02*
D03*
X2947559D02*
D03*
X2272441Y1700000D02*
D03*
X2327559D02*
D03*
X2192441Y1860000D02*
D03*
X2247559D02*
D03*
X2272441Y1760000D02*
D03*
X2327559D02*
D03*
X2392441Y1920000D02*
D03*
X2447559D02*
D03*
X1227559Y2300000D02*
D03*
X1172441D02*
D03*
X1492441Y2660000D02*
D03*
X1547559D02*
D03*
X1272441Y1700000D02*
D03*
X1327559D02*
D03*
X1192441Y1860000D02*
D03*
X1247559D02*
D03*
X1272441Y1760000D02*
D03*
X1327559D02*
D03*
X1392441Y1920000D02*
D03*
X1447559D02*
D03*
X1527559Y2800000D02*
D03*
X1472441D02*
D03*
X1072441Y2720000D02*
D03*
X1127559D02*
D03*
X1752441Y2700000D02*
D03*
X1807559D02*
D03*
X2935118Y2820000D02*
D03*
X2880000D02*
D03*
D11*
X2233150Y2380000D02*
D03*
X2126850D02*
D03*
X2313150Y1580000D02*
D03*
X2206850D02*
D03*
X2813150Y2400000D02*
D03*
X2706850D02*
D03*
X2566850Y1960000D02*
D03*
X2673150D02*
D03*
X2706850Y2540000D02*
D03*
X2813150D02*
D03*
X2213150Y2160000D02*
D03*
X2106850D02*
D03*
X1313150Y1580000D02*
D03*
X1206850D02*
D03*
X1566850Y1960000D02*
D03*
X1673150D02*
D03*
X1426850Y2540000D02*
D03*
X1533150D02*
D03*
X1813150Y2400000D02*
D03*
X1706850D02*
D03*
X1213150Y2160000D02*
D03*
X1106850D02*
D03*
X1233150Y2380000D02*
D03*
X1126850D02*
D03*
X2193150Y2060000D02*
D03*
X2086850D02*
D03*
X2346850Y2540000D02*
D03*
X2453150D02*
D03*
X1193150Y2060000D02*
D03*
X1086850D02*
D03*
X1546850Y1300000D02*
D03*
X1653150D02*
D03*
X1386850Y1060000D02*
D03*
X1493150D02*
D03*
X1473150Y1300000D02*
D03*
X1366850D02*
D03*
X2853150Y1080000D02*
D03*
X2746850D02*
D03*
X2733150Y1340000D02*
D03*
X2626850D02*
D03*
D12*
X2620000Y2386850D02*
D03*
Y2493150D02*
D03*
X2900000Y1986850D02*
D03*
Y2093150D02*
D03*
X2180000Y1793150D02*
D03*
Y1686850D02*
D03*
X2700000Y1586850D02*
D03*
Y1693150D02*
D03*
X2900000Y1573150D02*
D03*
Y1466850D02*
D03*
X1180000Y1793150D02*
D03*
Y1686850D02*
D03*
X1700000Y1586850D02*
D03*
Y1693150D02*
D03*
X1900000Y1573150D02*
D03*
Y1466850D02*
D03*
Y1986850D02*
D03*
Y2093150D02*
D03*
X1620000Y2386850D02*
D03*
Y2493150D02*
D03*
X1240000Y2613150D02*
D03*
Y2506850D02*
D03*
X1140000Y1066850D02*
D03*
Y1173150D02*
D03*
Y1226850D02*
D03*
Y1333150D02*
D03*
X1580000Y1193150D02*
D03*
Y1086850D02*
D03*
X2480000Y1146850D02*
D03*
Y1253150D02*
D03*
X2240000Y2726850D02*
D03*
Y2833150D02*
D03*
X2340000Y2726850D02*
D03*
Y2833150D02*
D03*
X1780000Y2766850D02*
D03*
Y2873150D02*
D03*
X1360000Y3053150D02*
D03*
Y2946850D02*
D03*
X1240000Y3053150D02*
D03*
Y2946850D02*
D03*
X2760000Y3053150D02*
D03*
Y2946850D02*
D03*
X2660000Y3053150D02*
D03*
Y2946850D02*
D03*
D13*
X2325512Y2450000D02*
D03*
Y2400000D02*
D03*
Y2350000D02*
D03*
Y2300000D02*
D03*
Y2250000D02*
D03*
Y2200000D02*
D03*
Y2150000D02*
D03*
X2514488Y2450000D02*
D03*
Y2400000D02*
D03*
Y2350000D02*
D03*
Y2300000D02*
D03*
Y2250000D02*
D03*
Y2200000D02*
D03*
Y2150000D02*
D03*
X2411024Y1850000D02*
D03*
Y1800000D02*
D03*
Y1750000D02*
D03*
Y1700000D02*
D03*
Y1650000D02*
D03*
Y1600000D02*
D03*
Y1550000D02*
D03*
X2600000Y1850000D02*
D03*
Y1800000D02*
D03*
Y1750000D02*
D03*
Y1700000D02*
D03*
Y1650000D02*
D03*
Y1600000D02*
D03*
Y1550000D02*
D03*
X1394488Y2705000D02*
D03*
Y2755000D02*
D03*
Y2805000D02*
D03*
Y2855000D02*
D03*
X1205512Y2705000D02*
D03*
Y2755000D02*
D03*
Y2805000D02*
D03*
Y2855000D02*
D03*
X2080000Y2700000D02*
D03*
Y2750000D02*
D03*
Y2800000D02*
D03*
Y2850000D02*
D03*
X1891024Y2700000D02*
D03*
Y2750000D02*
D03*
Y2800000D02*
D03*
Y2850000D02*
D03*
X2800000Y2710000D02*
D03*
Y2760000D02*
D03*
Y2810000D02*
D03*
Y2860000D02*
D03*
X2611024Y2710000D02*
D03*
Y2760000D02*
D03*
Y2810000D02*
D03*
Y2860000D02*
D03*
X1325512Y2450000D02*
D03*
Y2400000D02*
D03*
Y2350000D02*
D03*
Y2300000D02*
D03*
Y2250000D02*
D03*
Y2200000D02*
D03*
Y2150000D02*
D03*
X1514488Y2450000D02*
D03*
Y2400000D02*
D03*
Y2350000D02*
D03*
Y2300000D02*
D03*
Y2250000D02*
D03*
Y2200000D02*
D03*
Y2150000D02*
D03*
X1411024Y1850000D02*
D03*
Y1800000D02*
D03*
Y1750000D02*
D03*
Y1700000D02*
D03*
Y1650000D02*
D03*
Y1600000D02*
D03*
Y1550000D02*
D03*
X1600000Y1850000D02*
D03*
Y1800000D02*
D03*
Y1750000D02*
D03*
Y1700000D02*
D03*
Y1650000D02*
D03*
Y1600000D02*
D03*
Y1550000D02*
D03*
D14*
X2920000Y2707559D02*
D03*
Y2652441D02*
D03*
X2600000Y2327559D02*
D03*
Y2272441D02*
D03*
X1600000Y2747559D02*
D03*
Y2692441D02*
D03*
Y2327559D02*
D03*
Y2272441D02*
D03*
X2160000Y2832441D02*
D03*
Y2887559D02*
D03*
X2520000Y2767559D02*
D03*
Y2712441D02*
D03*
X2840000Y1224882D02*
D03*
Y1280000D02*
D03*
X1480000Y1187559D02*
D03*
Y1132441D02*
D03*
X2160000Y2767559D02*
D03*
Y2712441D02*
D03*
D15*
X2700000Y2286929D02*
D03*
Y2153071D02*
D03*
X2800000Y2286929D02*
D03*
Y2153071D02*
D03*
Y1593071D02*
D03*
Y1726929D02*
D03*
X1700000Y2286929D02*
D03*
Y2153071D02*
D03*
X1800000Y2286929D02*
D03*
Y2153071D02*
D03*
Y1593071D02*
D03*
Y1726929D02*
D03*
X1720000Y1113071D02*
D03*
Y1246929D02*
D03*
D16*
X2577323Y1238386D02*
D03*
Y1212795D02*
D03*
Y1187205D02*
D03*
Y1161614D02*
D03*
X2742677Y1238386D02*
D03*
Y1212795D02*
D03*
Y1187205D02*
D03*
Y1161614D02*
D03*
X1237323Y1218386D02*
D03*
Y1192795D02*
D03*
Y1167205D02*
D03*
Y1141614D02*
D03*
X1402677Y1218386D02*
D03*
Y1192795D02*
D03*
Y1167205D02*
D03*
Y1141614D02*
D03*
D17*
X2700000Y2060000D02*
Y2153071D01*
Y2060000D02*
Y2060000D01*
X1700000D02*
Y2153071D01*
Y2060000D02*
Y2060000D01*
X2415512Y1804488D02*
X2420000Y1800000D01*
X2392441Y1827559D02*
X2415512Y1804488D01*
X2392441Y1850000D02*
Y1920000D01*
Y1827559D02*
Y1850000D01*
X2243780Y1863780D02*
X2300000Y1920000D01*
X2240000Y1860000D02*
X2243780Y1863780D01*
X1415512Y1804488D02*
X1420000Y1800000D01*
X1392441Y1827559D02*
X1415512Y1804488D01*
X1392441Y1850000D02*
Y1920000D01*
Y1827559D02*
Y1850000D01*
X1243780Y1863780D02*
X1300000Y1920000D01*
X1240000Y1860000D02*
X1243780Y1863780D01*
X2456575Y2536575D02*
X2460000Y2540000D01*
X2370000Y2450000D02*
X2456575Y2536575D01*
X2332756Y2407244D02*
X2340000Y2400000D01*
X2325512Y2414488D02*
X2332756Y2407244D01*
X1332756D02*
X1340000Y2400000D01*
X1325512Y2414488D02*
X1332756Y2407244D01*
X2327756Y2152244D02*
X2330000Y2150000D01*
X2320000Y2160000D02*
X2327756Y2152244D01*
X1327756D02*
X1330000Y2150000D01*
X1320000Y2160000D02*
X1327756Y2152244D01*
X2880000Y1580000D02*
X2900000D01*
X1411024Y1550000D02*
X1495512Y1465512D01*
X2495512D02*
X2500000Y1461024D01*
X2411024Y1550000D02*
X2495512Y1465512D01*
X2500000Y1460000D02*
Y1461024D01*
X1200256Y2760256D02*
X1218189Y2778189D01*
X1200000Y2760000D02*
X1200256Y2760256D01*
X2615512Y2764488D02*
X2620000Y2760000D01*
X2596811Y2783189D02*
X2615512Y2764488D01*
X1402677Y1192441D02*
X1480000D01*
X1402087D02*
X1402677D01*
X2742677Y1214528D02*
X2787520D01*
X2740000D02*
X2742677D01*
X1480000Y1060000D02*
Y1064291D01*
X2163780Y2763780D02*
X2233150Y2833150D01*
X2333150Y2740000D02*
X2340000D01*
X2103189Y2776811D02*
X2160000D01*
X2034730Y2740000D02*
X2080000D01*
X1512717Y2692717D02*
X1600000D01*
X1486220Y2666220D02*
X1512717Y2692717D01*
X1480000Y2660000D02*
X1486220Y2666220D01*
X2886220Y2546220D02*
X2920000Y2580000D01*
X2880000Y2540000D02*
X2886220Y2546220D01*
X2343425Y2543425D02*
X2403465Y2603465D01*
X2340000Y2540000D02*
X2343425Y2543425D01*
X1160000Y1686850D02*
Y1728031D01*
Y1680000D02*
Y1686850D01*
X2160000D02*
Y1728031D01*
Y1680000D02*
Y1686850D01*
X1706575Y1686575D02*
X1746929Y1726929D01*
X1700000Y1680000D02*
X1706575Y1686575D01*
X2706575D02*
X2746929Y1726929D01*
X2700000Y1680000D02*
X2706575Y1686575D01*
X1363425Y1296575D02*
X1402677Y1257323D01*
X1360000Y1300000D02*
X1363425Y1296575D01*
X2740000Y1238386D02*
Y1240000D01*
Y1236653D02*
Y1238386D01*
X1399744Y2860256D02*
X1400000Y2860000D01*
X1360000Y2900000D02*
X1399744Y2860256D01*
X1880512Y2839488D02*
X1891024Y2828976D01*
X1880000Y2840000D02*
X1880512Y2839488D01*
X1780000Y2776811D02*
X1856811D01*
X1317756Y2342244D02*
X1320000Y2340000D01*
X1286811Y2373189D02*
X1317756Y2342244D01*
X1233150Y2373189D02*
X1286811D01*
X2317756Y2342244D02*
X2320000Y2340000D01*
X2286811Y2373189D02*
X2317756Y2342244D01*
X2233150Y2373189D02*
X2286811D01*
X1300000Y1570000D02*
Y1580000D01*
X2300000Y1570000D02*
Y1580000D01*
X1713425Y2393425D02*
X1720000Y2400000D01*
X1706850Y2386850D02*
X1713425Y2393425D01*
X1620000Y2386850D02*
X1706850D01*
X2713425Y2393425D02*
X2720000Y2400000D01*
X2706850Y2386850D02*
X2713425Y2393425D01*
X2620000Y2386850D02*
X2706850D01*
X1140000Y1640000D02*
X1147441Y1632559D01*
X1080000Y1702972D02*
Y1720000D01*
Y1702972D02*
X1140000Y1642972D01*
Y1640000D02*
Y1642972D01*
X1080000Y1520000D02*
X1132441Y1467559D01*
Y1436158D02*
Y1467559D01*
Y1436158D02*
X1166158Y1402441D01*
X1477559D01*
X1480000Y1400000D01*
X1147441Y1442371D02*
Y1632559D01*
Y1442371D02*
X1172371Y1417441D01*
X1223047D01*
X1265607Y1460000D01*
X1490000D01*
X2440000Y1400000D02*
X2480000Y1440000D01*
X1480000Y1400000D02*
X2440000D01*
X2743504Y2533314D02*
X2785283Y2491535D01*
X2898654D01*
X2923189Y2516070D01*
Y2540000D01*
X2947559D01*
X2820000Y2760000D02*
X2872441Y2707559D01*
X2920000D01*
Y2580000D02*
Y2652441D01*
X2500000Y2360000D02*
Y2373189D01*
X2471887D02*
X2500000D01*
X2456181Y2388895D02*
X2471887Y2373189D01*
X2456181Y2388895D02*
Y2461105D01*
X2535076Y2540000D01*
X2706850D01*
X2700000Y2260000D02*
X2800000Y2160000D01*
Y2100000D02*
Y2153071D01*
X2700000Y2260000D02*
Y2286929D01*
X2760000Y2060000D02*
X2800000Y2100000D01*
Y1532441D02*
Y1580000D01*
X2747559Y1480000D02*
X2800000Y1532441D01*
X2200000Y2060000D02*
X2280000D01*
X2746575Y2333425D02*
X2813150Y2400000D01*
X2677055Y2333425D02*
X2746575D01*
X2668268Y2238787D02*
Y2324638D01*
X2700000Y2160000D02*
Y2207055D01*
X2668268Y2324638D02*
X2677055Y2333425D01*
X2668268Y2238787D02*
X2700000Y2207055D01*
X2651535Y2008465D02*
X2680000Y1980000D01*
X2538984Y2008465D02*
X2651535D01*
X2530197Y1999678D02*
X2538984Y2008465D01*
X2530197Y1967638D02*
Y1999678D01*
X2482559Y1920000D02*
X2530197Y1967638D01*
X2447559Y1920000D02*
X2482559D01*
X2706850Y1986850D02*
X2900000D01*
X2680000Y1960000D02*
X2706850Y1986850D01*
X2691535Y2448465D02*
X2841016D01*
X2900000Y2389481D01*
X2640000Y2500000D02*
X2691535Y2448465D01*
X2900000Y2093150D02*
Y2389481D01*
X2162244Y1829803D02*
X2192441Y1860000D01*
X2131535Y1821016D02*
X2140322Y1829803D01*
X2162244D01*
X2131535Y1756496D02*
Y1821016D01*
X2746929Y1726929D02*
X2800000D01*
X2325512Y2414488D02*
Y2450000D01*
X2233150Y2373189D02*
Y2380000D01*
X2368113Y2376811D02*
X2383819Y2361105D01*
Y2288895D02*
Y2361105D01*
X2368113Y2273189D02*
X2383819Y2288895D01*
X2360000Y2273189D02*
X2368113D01*
X2360000Y2260000D02*
Y2273189D01*
X2348701Y2376811D02*
X2368113D01*
X2325512Y2400000D02*
X2348701Y2376811D01*
X2303189Y2183189D02*
X2320000Y2200000D01*
X2241016Y2208465D02*
X2266292Y2183189D01*
X2303189D01*
X2203803Y2111535D02*
X2217669Y2097669D01*
X2193150Y2073150D02*
X2217669Y2097669D01*
X2185283Y2208465D02*
X2241016D01*
X2185283Y2111535D02*
X2203803D01*
X2176496Y2199678D02*
X2185283Y2208465D01*
X2176496Y2120322D02*
Y2199678D01*
X2193150Y2060000D02*
Y2073150D01*
X2330000Y2150000D02*
X2340000Y2140000D01*
X2213150Y2160000D02*
X2320000D01*
X2586850Y2460000D02*
X2620000Y2493150D01*
X2520000Y2460000D02*
X2586850D01*
X2540000Y2400000D02*
X2553150Y2386850D01*
X2620000D01*
X2471887Y2226811D02*
X2520000D01*
Y2240000D01*
X2456181Y2211105D02*
X2471887Y2226811D01*
X2516811Y2123189D02*
X2580000Y2060000D01*
X2456181Y2138895D02*
Y2211105D01*
X2471887Y2123189D02*
X2516811D01*
X2330000Y2150000D02*
X2445076D01*
X2456181Y2138895D01*
X2471887Y2123189D01*
X2520000Y2200000D02*
X2543189Y2176811D01*
X2557090D02*
X2580830Y2153071D01*
X2700000D01*
X2543189Y2176811D02*
X2557090D01*
X2723189Y2060000D02*
X2747559D01*
X2723189Y2036070D02*
Y2060000D01*
X2714402Y2027284D02*
X2723189Y2036070D01*
X2560000Y2140000D02*
X2597441Y2102559D01*
X2597628D01*
X2540000Y2140000D02*
X2560000D01*
X2661693Y2036070D02*
X2670480Y2027284D01*
X2714402D01*
X2597628Y2102559D02*
X2661693Y2038495D01*
Y2036070D02*
Y2038495D01*
X2469331Y1862480D02*
X2566850Y1960000D01*
X2469331Y1788895D02*
Y1862480D01*
X2453625Y1773189D02*
X2469331Y1788895D01*
X2420000Y1760000D02*
Y1773189D01*
X2453625D01*
X2350000Y1750000D02*
X2411024D01*
X2340000Y1760000D02*
X2350000Y1750000D01*
X2180000Y1686850D02*
X2230913D01*
X2380000Y1580000D02*
X2400000Y1600000D01*
X2313150Y1580000D02*
X2380000D01*
X2560000Y1660000D02*
X2580000D01*
X2450000Y1550000D02*
X2560000Y1660000D01*
X2411024Y1550000D02*
X2450000D01*
X2673150Y1560000D02*
X2700000Y1586850D01*
X2620000Y1560000D02*
X2673150D01*
X1651535Y2008465D02*
X1680000Y1980000D01*
X1538984Y2008465D02*
X1651535D01*
X1530197Y1999678D02*
X1538984Y2008465D01*
X1530197Y1967638D02*
Y1999678D01*
X1482559Y1920000D02*
X1530197Y1967638D01*
X1447559Y1920000D02*
X1482559D01*
X1340000Y1760000D02*
X1350000Y1750000D01*
X1411024D01*
X1420000Y1760000D02*
Y1773189D01*
X1453625D01*
X1469331Y1788895D01*
Y1862480D01*
X1566850Y1960000D01*
X1620000Y1560000D02*
X1673150D01*
X1700000Y1586850D01*
X1746929Y1726929D02*
X1800000D01*
X1560000Y1660000D02*
X1580000D01*
X1450000Y1550000D02*
X1560000Y1660000D01*
X1411024Y1550000D02*
X1450000D01*
X1190000Y1460000D02*
X1300000Y1570000D01*
X1380000Y1580000D02*
X1400000Y1600000D01*
X1313150Y1580000D02*
X1380000D01*
X1180000Y1686850D02*
X1230913D01*
X1131535Y1756496D02*
X1160000Y1728031D01*
X1131535Y1756496D02*
Y1821016D01*
X1140322Y1829803D01*
X1162244D01*
X1192441Y1860000D01*
X1233150Y2373189D02*
Y2380000D01*
X1303189Y2183189D02*
X1320000Y2200000D01*
X1266292Y2183189D02*
X1303189D01*
X1241016Y2208465D02*
X1266292Y2183189D01*
X1185283Y2208465D02*
X1241016D01*
X1176496Y2199678D02*
X1185283Y2208465D01*
X1176496Y2120322D02*
Y2199678D01*
Y2120322D02*
X1185283Y2111535D01*
X1203803D01*
X1217669Y2097669D01*
X1193150Y2073150D02*
X1217669Y2097669D01*
X1193150Y2060000D02*
Y2073150D01*
X1200000Y2060000D02*
X1280000D01*
X1330000Y2150000D02*
X1445076D01*
X1330000D02*
X1340000Y2140000D01*
X1213150Y2160000D02*
X1320000D01*
X1456181Y2138895D02*
X1471887Y2123189D01*
X1445076Y2150000D02*
X1456181Y2138895D01*
X1520000Y2226811D02*
Y2240000D01*
X1471887Y2226811D02*
X1520000D01*
X1456181Y2211105D02*
X1471887Y2226811D01*
X1456181Y2138895D02*
Y2211105D01*
X1471887Y2123189D02*
X1516811D01*
X1580000Y2060000D01*
X1680000Y1960000D02*
X1706850Y1986850D01*
X1900000D01*
X1640000Y2500000D02*
X1691535Y2448465D01*
X1841016D01*
X1900000Y2389481D01*
Y2093150D02*
Y2389481D01*
X1540000Y2140000D02*
X1560000D01*
X1597441Y2102559D01*
X1597629D01*
X1661693Y2038495D01*
Y2036070D02*
Y2038495D01*
Y2036070D02*
X1670480Y2027284D01*
X1714402D01*
X1723189Y2036070D01*
Y2060000D01*
X1747559D01*
X1580830Y2153071D02*
X1700000D01*
Y2160000D02*
Y2207055D01*
X1668268Y2238787D02*
X1700000Y2207055D01*
X1668268Y2238787D02*
Y2324638D01*
X1677054Y2333425D01*
X1746575D01*
X1813150Y2400000D01*
X1520000Y2200000D02*
X1543189Y2176811D01*
X1557090D01*
X1580830Y2153071D01*
X1800000Y2100000D02*
Y2153071D01*
X1700000Y2260000D02*
X1800000Y2160000D01*
X1700000Y2260000D02*
Y2286929D01*
X1540000Y2400000D02*
X1553150Y2386850D01*
X1620000D01*
X1520000Y2460000D02*
X1586850D01*
X1620000Y2493150D01*
X1506811Y2373189D02*
X1520000Y2360000D01*
X1471887Y2373189D02*
X1506811D01*
X1426850Y2418225D02*
X1471887Y2373189D01*
X1426850Y2418225D02*
Y2540000D01*
X1360000Y2260000D02*
Y2273189D01*
X1368113D01*
X1383819Y2288895D01*
Y2361105D01*
X1368113Y2376811D02*
X1383819Y2361105D01*
X1348701Y2376811D02*
X1368113D01*
X1325512Y2400000D02*
X1348701Y2376811D01*
X1325512Y2414488D02*
Y2450000D01*
X1273150Y2506850D02*
X1320000Y2460000D01*
X1240000Y2506850D02*
X1273150D01*
X1320000Y2460000D02*
X1390197Y2530197D01*
Y2579678D01*
X1398984Y2588465D01*
X1475583D01*
X1523189Y2636070D01*
Y2660000D01*
X1547559D01*
X1480000D02*
X1492441D01*
X1280000D02*
X1480000D01*
X1240000Y2620000D02*
X1280000Y2660000D01*
X1600000Y2692441D02*
Y2692717D01*
X1595000Y2755000D02*
X1600000Y2760000D01*
X1394488Y2755000D02*
X1595000D01*
X1400000Y1194528D02*
X1402087Y1192441D01*
X1506850Y1086850D02*
X1560000D01*
X1500000Y1080000D02*
X1506850Y1086850D01*
X1402677Y1141614D02*
X1480000Y1064291D01*
X1402677Y1218386D02*
Y1257323D01*
X2797874Y1224882D02*
X2840000D01*
X2787520Y1214528D02*
X2797874Y1224882D01*
X2740000Y1086850D02*
X2746850Y1080000D01*
X2740000Y1086850D02*
Y1137756D01*
X2708189D02*
X2740000D01*
X2694213Y1151732D02*
X2708189Y1137756D01*
X2694213Y1151732D02*
Y1234126D01*
X2696740Y1236653D01*
X2740000D01*
X1240000Y2880000D02*
Y2946850D01*
X1220000Y2860000D02*
X1240000Y2880000D01*
X1360000Y2900000D02*
Y2946850D01*
X2660000Y2900000D02*
Y2946850D01*
X2620000Y2860000D02*
X2660000Y2900000D01*
X2760000D02*
Y2946850D01*
Y2900000D02*
X2800000Y2860000D01*
X1780000Y2873150D02*
X1806653Y2846496D01*
X1818107D01*
X1848422Y2876811D01*
X1933625D01*
X1949331Y2861105D01*
Y2825399D02*
Y2861105D01*
Y2825399D02*
X2034730Y2740000D01*
X1891024Y2800000D02*
Y2828976D01*
X2240000Y2833150D02*
X2333150Y2740000D01*
X2233150Y2833150D02*
X2240000D01*
X2160000Y2767559D02*
Y2776811D01*
X2080000Y2800000D02*
X2103189Y2776811D01*
X2288465Y2833150D02*
X2340000D01*
X2288465D02*
Y2861016D01*
X2231174Y2918307D02*
X2288465Y2861016D01*
X2061693Y2918307D02*
X2231174D01*
X2000000Y2980000D02*
X2061693Y2918307D01*
X2166850Y2726850D02*
X2240000D01*
X2160000Y2720000D02*
X2166850Y2726850D01*
X2132441Y2740000D02*
X2160000Y2712441D01*
X2100000Y2740000D02*
X2132441D01*
X1891024Y2750000D02*
X1914213Y2726811D01*
X1933625D01*
X2040436Y2620000D02*
X2720000D01*
Y2910519D01*
X2711535Y2918984D02*
X2720000Y2910519D01*
X2711535Y2918984D02*
Y2983182D01*
X2720000Y2991646D01*
Y3040000D01*
X2700000Y3060000D02*
X2720000Y3040000D01*
X1340000Y3060000D02*
X1346850Y3053150D01*
X1360000D01*
X2660000D01*
X2200000Y2980000D02*
X2362237D01*
X2559048Y2783189D01*
X2596811D01*
X2100000Y2980000D02*
X2137028D01*
X2181556Y3024528D01*
X2338923D01*
X2530261Y2833189D01*
X2586811D01*
X2600000Y2820000D01*
X1796496Y2983504D02*
X1800000Y2980000D01*
X1320322Y2983504D02*
X1796496D01*
X1311535Y2974717D02*
X1320322Y2983504D01*
X1280000Y2800000D02*
X1311535Y2831535D01*
X1220000Y2800000D02*
X1280000D01*
X1311535Y2831535D02*
Y2974717D01*
X1851171Y2980000D02*
X1900000D01*
X1844528Y2986643D02*
X1851171Y2980000D01*
X1844528Y2986643D02*
Y3015741D01*
X1835741Y3024528D02*
X1844528Y3015741D01*
X1764259Y3024528D02*
X1835741D01*
X1738236Y2998504D02*
X1764259Y3024528D01*
X1215322Y2998504D02*
X1738236D01*
X1147205Y2930387D02*
X1215322Y2998504D01*
X1147205Y2793895D02*
Y2930387D01*
Y2793895D02*
X1162910Y2778189D01*
X1218189D01*
X1763504Y2323425D02*
X1800000Y2286929D01*
X1763504Y2259008D02*
Y2323425D01*
Y2259008D02*
X1831732Y2190780D01*
Y2085086D02*
Y2190780D01*
Y2085086D02*
X1860322Y2056496D01*
X1939678D02*
X1948465Y2065283D01*
X1780891Y2529803D02*
X1948465Y2362230D01*
X1580322Y2529803D02*
X1780891D01*
X1569803Y2519284D02*
X1580322Y2529803D01*
X1569803Y2500322D02*
Y2519284D01*
X1561016Y2491535D02*
X1569803Y2500322D01*
X1505283Y2491535D02*
X1561016D01*
X1456818Y2540000D02*
X1505283Y2491535D01*
X1440000Y2540000D02*
X1456818D01*
X2800000Y2222512D02*
Y2286929D01*
Y2222512D02*
X2831732Y2190780D01*
Y2085086D02*
Y2190780D01*
Y2085086D02*
X2860322Y2056496D01*
X2939678D01*
X2948465Y2065283D01*
Y2362230D01*
X2847230Y2463465D02*
X2948465Y2362230D01*
X2776535Y2463465D02*
X2847230D01*
X2720000Y2520000D02*
X2776535Y2463465D01*
X2325512Y2450000D02*
X2370000D01*
X2513863Y2540000D02*
X2562327Y2588465D01*
X2734717D01*
X2743504Y2579678D01*
Y2533314D02*
Y2579678D01*
X2453150Y2540000D02*
X2460000D01*
X2513863D01*
X2849803Y2542102D02*
X2851905Y2540000D01*
X2849803Y2542102D02*
Y2579678D01*
X2826016Y2603465D02*
X2849803Y2579678D01*
X2403465Y2603465D02*
X2826016D01*
X2851905Y2540000D02*
X2880000D01*
X2892441D01*
X2880000Y2540000D02*
X2880000Y2540000D01*
X1600000Y1750000D02*
X1739393D01*
X1762819Y1773425D01*
X1822946D01*
X1831732Y1764638D01*
Y1648268D02*
Y1764638D01*
X1886929Y1593071D02*
X1900000Y1580000D01*
X1704370Y1523189D02*
X1747559Y1480000D01*
X1557399Y1523189D02*
X1704370D01*
X1541693Y1538895D02*
X1557399Y1523189D01*
X1541693Y1538895D02*
Y1561105D01*
X1557399Y1576811D01*
X1632081D01*
X1641415Y1586145D01*
X1627559Y1600000D02*
X1641415Y1586145D01*
X1580000Y1600000D02*
X1600000D01*
X1627559D01*
X2600000Y1750000D02*
X2729393D01*
X2752819Y1773425D01*
X2822945D01*
X2831732Y1764638D01*
Y1628268D02*
Y1764638D01*
Y1628268D02*
X2866929Y1593071D01*
X2880000Y1580000D01*
X2800000Y1593071D02*
X2866929D01*
X2704370Y1523189D02*
X2747559Y1480000D01*
X2557398Y1523189D02*
X2704370D01*
X2541693Y1538895D02*
X2557398Y1523189D01*
X2541693Y1538895D02*
Y1561105D01*
X2557398Y1576811D01*
X2632081D01*
X2641415Y1586145D01*
X2627559Y1600000D02*
X2641415Y1586145D01*
X2600000Y1600000D02*
X2627559D01*
X2580000D02*
X2600000D01*
X2230913Y1686850D02*
X2277763Y1640000D01*
X2400000D01*
X1230913Y1686850D02*
X1277763Y1640000D01*
X1400000D01*
X2600000Y1800000D02*
Y1820000D01*
Y1850000D01*
X1600000Y1800000D02*
Y1820000D01*
Y1850000D01*
X1831732Y1648268D02*
X1886929Y1593071D01*
X1800000D02*
X1886929D01*
X2131535Y1756496D02*
X2160000Y1728031D01*
X2176496Y2120322D02*
X2185283Y2111535D01*
X2300000Y1920000D02*
X2392441D01*
X2392441Y1920000D01*
X1300000Y1920000D02*
X1392441D01*
X1392441Y1920000D01*
X1747559Y1480000D02*
X1800000Y1532441D01*
Y1580000D01*
X2190000Y1460000D02*
X2300000Y1570000D01*
X1760000Y2060000D02*
X1800000Y2100000D01*
X1948465Y2065283D02*
Y2362230D01*
X1860322Y2056496D02*
X1939678D01*
X1780000Y2766850D02*
Y2776811D01*
X1856811D02*
X1880000Y2800000D01*
D18*
X1476220Y2803780D02*
X1480000Y2800000D01*
X1475000Y2805000D02*
X1476220Y2803780D01*
X1472441Y2805000D02*
X1475000D01*
X1460000D02*
X1472441D01*
X1394488D02*
X1460000D01*
X1820000Y2700000D02*
X1880000D01*
X1807559D02*
X1820000D01*
X2520000Y2308189D02*
X2588189D01*
X2514488D02*
X2520000D01*
X2514488Y2300000D02*
Y2308189D01*
X1540000D02*
X1588189D01*
X1514488D02*
X1540000D01*
X1123780Y2716220D02*
X1135000Y2705000D01*
X1120000Y2720000D02*
X1123780Y2716220D01*
X1180000Y2705000D02*
X1205512D01*
X1135000D02*
X1180000D01*
X1514488Y2300000D02*
Y2308189D01*
X2240000Y2300000D02*
X2325512D01*
X2588189Y2308189D02*
X2600000Y2320000D01*
X2340000Y1700000D02*
X2411024D01*
X1588189Y2308189D02*
X1600000Y2320000D01*
X1340000Y1700000D02*
X1411024D01*
X1880000Y2700000D02*
X1880000Y2700000D01*
X2107559Y2887559D02*
X2160000D01*
X2080000Y2860000D02*
X2107559Y2887559D01*
X2800000Y2820000D02*
X2800000Y2820000D01*
X1240000Y2300000D02*
X1260000D01*
X1325512D01*
D19*
X2900000Y3200000D02*
D03*
X1100000D02*
D03*
D20*
X2340000Y1320000D02*
D03*
X1800000Y2980000D02*
D03*
X2140000Y1120000D02*
D03*
D21*
X2240000Y1320000D02*
D03*
X2140000D02*
D03*
X2040000D02*
D03*
X1940000D02*
D03*
X1840000D02*
D03*
X1080000Y1440000D02*
D03*
Y1540000D02*
D03*
Y1640000D02*
D03*
X2200000Y2980000D02*
D03*
X2100000D02*
D03*
X2000000D02*
D03*
X1900000D02*
D03*
X2040000Y1120000D02*
D03*
D22*
X1080000Y1740000D02*
D03*
D23*
X2580000Y2060000D02*
D03*
X2280000D02*
D03*
X2490000Y1460000D02*
D03*
X2190000D02*
D03*
X1580000Y2060000D02*
D03*
X1280000D02*
D03*
X1490000Y1460000D02*
D03*
X1190000D02*
D03*
D24*
X2940000Y1340000D02*
D03*
Y1240000D02*
D03*
X2840000Y1340000D02*
D03*
X2940000Y1140000D02*
D03*
Y1040000D02*
D03*
X2340000Y1700000D02*
D03*
X1340000D02*
D03*
X2600000Y1820000D02*
D03*
X1600000D02*
D03*
X2320000Y1860000D02*
D03*
X1260000Y2300000D02*
D03*
X1620000Y2220000D02*
D03*
X1060000Y1320000D02*
D03*
X1540000Y2300000D02*
D03*
X1160000Y2280000D02*
D03*
X1200000Y1580000D02*
D03*
X1220000Y1780000D02*
D03*
X1180000Y1960000D02*
D03*
Y2700000D02*
D03*
X2600000D02*
D03*
X2520000Y2300000D02*
D03*
X1820000Y2680000D02*
D03*
X1460000Y2800000D02*
D03*
X2880000Y2820000D02*
D03*
X2080000Y2860000D02*
D03*
X2160000Y2820000D02*
D03*
X2420000Y2780000D02*
D03*
X2080000Y2700000D02*
D03*
Y2540000D02*
D03*
X1580000Y2600000D02*
D03*
X1420000Y2700000D02*
D03*
X2240000Y2300000D02*
D03*
X2960000Y3000000D02*
D03*
X2800000Y2680000D02*
D03*
Y2540000D02*
D03*
X2620000Y2240000D02*
D03*
X1600000Y1460000D02*
D03*
X1700000Y1100000D02*
D03*
%TF.MD5,c4831031dc3e7f3fe8cae8e5beafeb5a*%
M02*
