G04 Layer_Color=8388736*
%FSLAX26Y26*%
%MOIN*%
%TF.FileFunction,Soldermask,Top*%
%TF.Part,Single*%
G01*
G75*
%TA.AperFunction,SMDPad,CuDef*%
%ADD35R,0.039496X0.043433*%
%ADD36R,0.051307X0.074929*%
%ADD37R,0.074929X0.051307*%
%ADD38O,0.094614X0.031622*%
%ADD39R,0.070992X0.041465*%
%ADD40R,0.043433X0.039496*%
%ADD41R,0.041465X0.070992*%
%ADD42O,0.029654X0.070992*%
%ADD43O,0.070992X0.029654*%
%TA.AperFunction,ComponentPad*%
%ADD44C,0.063118*%
%TA.AperFunction,ViaPad*%
%ADD45C,0.168000*%
%TA.AperFunction,ComponentPad*%
%ADD46C,0.067055*%
%ADD47R,0.067055X0.067055*%
%ADD48R,0.067055X0.067055*%
%TA.AperFunction,ViaPad*%
%ADD49C,0.033000*%
D35*
X2452441Y1845000D02*
D03*
X2507559D02*
D03*
X1870160Y1613070D02*
D03*
X1815042D02*
D03*
X1915040D02*
D03*
X1970158D02*
D03*
X1443308Y1633070D02*
D03*
X1388190D02*
D03*
X1663308Y1853070D02*
D03*
X1608190D02*
D03*
X1843308D02*
D03*
X1788190D02*
D03*
X1903308Y1773070D02*
D03*
X1848190D02*
D03*
X1323308Y1833070D02*
D03*
X1268190D02*
D03*
X1434488Y2193070D02*
D03*
X1379370D02*
D03*
X1651812Y2013070D02*
D03*
X1706930D02*
D03*
X1379370Y2253070D02*
D03*
X1434488D02*
D03*
X2443622Y2220000D02*
D03*
X2498740D02*
D03*
X2520000Y1260000D02*
D03*
X2575118D02*
D03*
X2226300Y2400000D02*
D03*
X2171182D02*
D03*
Y2460000D02*
D03*
X2226300D02*
D03*
D36*
X1422600Y1373070D02*
D03*
X1528900D02*
D03*
X1849450Y1413070D02*
D03*
X1955750D02*
D03*
X1415040Y1893070D02*
D03*
X1521340D02*
D03*
X1755750Y1393070D02*
D03*
X1649450D02*
D03*
X1928900Y1693070D02*
D03*
X1822600D02*
D03*
X2068900Y1813070D02*
D03*
X1962600D02*
D03*
X1313780Y2333070D02*
D03*
X1420080D02*
D03*
X1433780Y2033070D02*
D03*
X1540080D02*
D03*
X1826850Y2413070D02*
D03*
X1933150D02*
D03*
X2140080Y2033070D02*
D03*
X2033780D02*
D03*
X1753780Y2513070D02*
D03*
X1860080D02*
D03*
X1680080D02*
D03*
X1573780D02*
D03*
X2618662Y2620000D02*
D03*
X2724960D02*
D03*
X2545590Y2720000D02*
D03*
X2651890D02*
D03*
X2225590Y2240000D02*
D03*
X2331890D02*
D03*
X2105590Y2540000D02*
D03*
X2211890D02*
D03*
X2471890Y2720000D02*
D03*
X2365590D02*
D03*
X2413150Y1260000D02*
D03*
X2306850D02*
D03*
D37*
X1415750Y1806220D02*
D03*
Y1699920D02*
D03*
X2055750Y1599920D02*
D03*
Y1706220D02*
D03*
X1428820Y1566220D02*
D03*
Y1459920D02*
D03*
X1246930Y2186220D02*
D03*
Y2079920D02*
D03*
X2038740Y2393150D02*
D03*
Y2286850D02*
D03*
X2840000Y2146850D02*
D03*
Y2253150D02*
D03*
D38*
X1728820Y1463070D02*
D03*
Y1513070D02*
D03*
Y1563070D02*
D03*
Y1613070D02*
D03*
Y1663070D02*
D03*
Y1713070D02*
D03*
Y1763070D02*
D03*
X1539844Y1463070D02*
D03*
Y1513070D02*
D03*
Y1563070D02*
D03*
Y1613070D02*
D03*
Y1663070D02*
D03*
Y1713070D02*
D03*
Y1763070D02*
D03*
X1720000Y2123070D02*
D03*
Y2173070D02*
D03*
Y2223070D02*
D03*
Y2273070D02*
D03*
Y2323070D02*
D03*
Y2373070D02*
D03*
Y2423070D02*
D03*
X1531024Y2123070D02*
D03*
Y2173070D02*
D03*
Y2223070D02*
D03*
Y2273070D02*
D03*
Y2323070D02*
D03*
Y2373070D02*
D03*
Y2423070D02*
D03*
X2511812Y2330000D02*
D03*
Y2380000D02*
D03*
Y2430000D02*
D03*
Y2480000D02*
D03*
Y2530000D02*
D03*
Y2580000D02*
D03*
Y2630000D02*
D03*
X2322834Y2330000D02*
D03*
Y2380000D02*
D03*
Y2430000D02*
D03*
Y2480000D02*
D03*
Y2530000D02*
D03*
Y2580000D02*
D03*
Y2630000D02*
D03*
D39*
X1995750Y1513070D02*
D03*
X1861892D02*
D03*
X2604882Y2260000D02*
D03*
X2738740D02*
D03*
X1813072Y2053070D02*
D03*
X1946930D02*
D03*
D40*
X1806930Y2340630D02*
D03*
Y2285512D02*
D03*
X1373780Y2120630D02*
D03*
Y2065512D02*
D03*
X2598740Y2547560D02*
D03*
Y2492440D02*
D03*
X2165590Y2327560D02*
D03*
Y2272440D02*
D03*
D41*
X2691812Y2373070D02*
D03*
Y2506930D02*
D03*
X1900000Y2166140D02*
D03*
Y2300000D02*
D03*
D42*
X2698190Y1782442D02*
D03*
X2666692D02*
D03*
X2635196D02*
D03*
X2603700D02*
D03*
X2572204D02*
D03*
X2540708D02*
D03*
X2509212D02*
D03*
X2477716D02*
D03*
X2446220D02*
D03*
X2414724D02*
D03*
X2383228D02*
D03*
Y1337560D02*
D03*
X2414724D02*
D03*
X2446220D02*
D03*
X2477716D02*
D03*
X2509212D02*
D03*
X2540708D02*
D03*
X2572204D02*
D03*
X2603700D02*
D03*
X2635196D02*
D03*
X2666692D02*
D03*
X2698190D02*
D03*
D43*
X2318268Y1717480D02*
D03*
Y1685984D02*
D03*
Y1654488D02*
D03*
Y1622992D02*
D03*
Y1591496D02*
D03*
Y1560000D02*
D03*
Y1528504D02*
D03*
Y1497008D02*
D03*
Y1465512D02*
D03*
Y1434016D02*
D03*
Y1402520D02*
D03*
X2763150D02*
D03*
Y1434016D02*
D03*
Y1465512D02*
D03*
Y1497008D02*
D03*
Y1528504D02*
D03*
Y1560000D02*
D03*
Y1591496D02*
D03*
Y1622992D02*
D03*
Y1654488D02*
D03*
Y1685984D02*
D03*
Y1717480D02*
D03*
D44*
X1140000Y1890000D02*
D03*
Y2190000D02*
D03*
X2920000Y2230000D02*
D03*
Y1930000D02*
D03*
X1060000Y1890000D02*
D03*
Y2190000D02*
D03*
X2920000Y2630000D02*
D03*
Y2330000D02*
D03*
X1060000Y2670000D02*
D03*
Y2370000D02*
D03*
X2820000Y2630000D02*
D03*
Y2330000D02*
D03*
D45*
X1100000Y2900000D02*
D03*
X2900000D02*
D03*
Y1100000D02*
D03*
X1100000D02*
D03*
D46*
X1560000Y1140000D02*
D03*
X1891850Y2854488D02*
D03*
X1991850D02*
D03*
X2091850D02*
D03*
X2191850D02*
D03*
X2120000Y1140000D02*
D03*
X2220000D02*
D03*
X2320000D02*
D03*
X2420000D02*
D03*
X2520000D02*
D03*
X2860000Y1600000D02*
D03*
Y1700000D02*
D03*
X1140000Y1460000D02*
D03*
Y1780000D02*
D03*
D47*
X1660000Y1140000D02*
D03*
X1791850Y2854488D02*
D03*
X2620000Y1140000D02*
D03*
D48*
X2860000Y1800000D02*
D03*
X1140000Y1360000D02*
D03*
Y1680000D02*
D03*
D49*
X2562000Y2000000D02*
D03*
X2528000Y2051000D02*
D03*
X2598000Y2221000D02*
D03*
X2655000Y2544000D02*
D03*
X2291000Y2088000D02*
D03*
X1813000Y1985000D02*
D03*
X1664000Y2290000D02*
D03*
X1300000Y1757000D02*
D03*
X1426000Y2936000D02*
D03*
X2443000Y2480000D02*
D03*
X1482000Y1647000D02*
D03*
X2412000Y2358024D02*
D03*
X2258000Y2433000D02*
D03*
X1466000Y2253070D02*
D03*
X1633440Y1806220D02*
D03*
X1843308Y1928780D02*
D03*
X1970000Y1615000D02*
D03*
X1820000Y1610000D02*
D03*
X2745000Y1760000D02*
D03*
X2740000Y1840000D02*
D03*
X2785000Y2020000D02*
D03*
X2305000Y2000000D02*
D03*
X2040000Y2735000D02*
D03*
X2090000Y2465000D02*
D03*
X1345000Y2710000D02*
D03*
X1400000Y2010000D02*
D03*
Y1880000D02*
D03*
X2270000Y2755000D02*
D03*
X1735000Y2645000D02*
D03*
X1240000Y2585000D02*
D03*
X2245000Y2605000D02*
D03*
X2650000Y2625000D02*
D03*
X2450000Y1470000D02*
D03*
X2640000D02*
D03*
X1425000Y1135000D02*
D03*
X1410000Y1015000D02*
D03*
X1910000Y1135000D02*
D03*
X1895000Y1020000D02*
D03*
X1235000Y2340000D02*
D03*
%TF.MD5,c525f33a4b7d0a6a359c1bb61b1fe61b*%
M02*
