G04 Layer_Color=65535*
%FSLAX26Y26*%
%MOIN*%
%TF.FileFunction,Legend,Top*%
%TF.Part,Single*%
G01*
G75*
%TA.AperFunction,NonConductor*%
%ADD34C,0.023622*%
%ADD35C,0.009842*%
%ADD36C,0.015748*%
%ADD37C,0.007874*%
%ADD38C,0.005000*%
%ADD39C,0.015000*%
%ADD40C,0.010000*%
D34*
X1811789Y1992320D02*
G03*
X1811789Y1992320I-11811J0D01*
G01*
D35*
X1705375Y1969353D02*
G03*
X1705375Y1969353I-4921J0D01*
G01*
X1888583Y2653465D02*
G03*
X1888583Y2653465I-4921J0D01*
G01*
X1177638Y1449646D02*
G03*
X1177638Y1449646I-4921J0D01*
G01*
X1549095Y1457047D02*
G03*
X1549095Y1457047I-4921J0D01*
G01*
X2412929Y2578362D02*
G03*
X2412929Y2578362I-4921J0D01*
G01*
X1596913Y2748488D02*
G03*
X1596913Y2748488I-4921J0D01*
G01*
D36*
X1982087Y2611929D02*
G03*
X1982087Y2611929I-7874J0D01*
G01*
X2457417Y2668914D02*
G03*
X2457417Y2668914I-7874J0D01*
G01*
X1558331Y2657937D02*
G03*
X1558331Y2657937I-7874J0D01*
G01*
D37*
X1992066Y1744554D02*
X2239832Y1992320D01*
X1744300D02*
X1992066Y2240086D01*
X2239832Y1992320D01*
X1744300D02*
X1992066Y1744554D01*
X2209743Y1737985D02*
X2232015Y1760257D01*
X2167985Y1779743D02*
X2190257Y1802015D01*
X1107834Y1727440D02*
X1135394D01*
X1746968Y1474370D02*
Y1501930D01*
X1942716Y2446574D02*
X2013582D01*
X1942716Y2643426D02*
X2013582D01*
Y2446574D02*
Y2643426D01*
X1942716Y2446574D02*
Y2643426D01*
X1882402Y2739528D02*
X1913898D01*
X1882402Y2680472D02*
X1913898D01*
X2212678Y2484252D02*
Y2515748D01*
X2153622Y2484252D02*
Y2515748D01*
X2052402Y2739528D02*
X2083898D01*
X2052402Y2680472D02*
X2083898D01*
X1180590Y1498858D02*
X1302638D01*
X1180590Y1565788D02*
X1302638D01*
X1180590Y1498858D02*
Y1565788D01*
X1302638Y1498858D02*
Y1565788D01*
X1225866Y1741850D02*
X1257362D01*
X1225866Y1682796D02*
X1257362D01*
X1225866Y1322796D02*
X1257362D01*
X1225866Y1381850D02*
X1257362D01*
X1151142Y1506574D02*
Y1538070D01*
X1092086Y1506574D02*
Y1538070D01*
X1593386Y1327126D02*
Y1449174D01*
X1660316Y1327126D02*
Y1449174D01*
X1593386D02*
X1660316D01*
X1593386Y1327126D02*
X1660316D01*
X1486378Y1372402D02*
Y1403898D01*
X1427322Y1372402D02*
Y1403898D01*
X1924528Y1469252D02*
Y1500748D01*
X1865472Y1469252D02*
Y1500748D01*
X1574252Y1299528D02*
X1605748D01*
X1574252Y1240472D02*
X1605748D01*
X1924528Y1299252D02*
Y1330748D01*
X1865472Y1299252D02*
Y1330748D01*
X1484252Y1544528D02*
X1515748D01*
X1484252Y1485472D02*
X1515748D01*
X1827560Y1362914D02*
X1835434D01*
X1827560Y1477086D02*
X1835434D01*
X1764566D02*
X1772442D01*
X1764566Y1362914D02*
X1772442D01*
X1764566Y1400316D02*
X1835434D01*
X1764566Y1362914D02*
Y1477086D01*
X1835434Y1362914D02*
Y1477086D01*
X1749252Y1299528D02*
X1780748D01*
X1749252Y1240472D02*
X1780748D01*
X2614898Y2637418D02*
Y2708284D01*
X2418048Y2637418D02*
Y2708284D01*
X2614898D01*
X2418048Y2637418D02*
X2614898D01*
X2384252Y2437322D02*
X2415748D01*
X2384252Y2496378D02*
X2415748D01*
X2330472Y2751102D02*
Y2782598D01*
X2389528Y2751102D02*
Y2782598D01*
Y2581102D02*
Y2612598D01*
X2330472Y2581102D02*
Y2612598D01*
X1610472Y2714252D02*
Y2745748D01*
X1669528Y2714252D02*
Y2745748D01*
Y2544252D02*
Y2575748D01*
X1610472Y2544252D02*
Y2575748D01*
X1584252Y2889528D02*
X1615748D01*
X1584252Y2830472D02*
X1615748D01*
X1385102Y2618566D02*
Y2689434D01*
X1581952Y2618566D02*
Y2689434D01*
X1385102Y2618566D02*
X1581952D01*
X1385102Y2689434D02*
X1581952D01*
X2700000Y1100000D02*
Y1200000D01*
X2100000Y1100000D02*
Y1200000D01*
X2700000D01*
X2100000Y1100000D02*
X2700000D01*
X2250000Y2800000D02*
Y2900000D01*
X1750000Y2800000D02*
X2250000D01*
X1750000Y2900000D02*
X2250000D01*
X1750000Y2800000D02*
Y2900000D01*
X1500000Y1100000D02*
Y1200000D01*
X1300000Y1100000D02*
X1500000D01*
X1300000D02*
Y1200000D01*
X1500000D01*
X2900000Y1450000D02*
Y1750000D01*
X2800000D02*
X2900000D01*
X2800000Y1450000D02*
Y1750000D01*
Y1450000D02*
X2900000D01*
X2800000Y2150000D02*
X2900000D01*
Y1950000D02*
Y2150000D01*
X2800000Y1950000D02*
X2900000D01*
X2800000D02*
Y2150000D01*
Y2450000D02*
X2900000D01*
Y2250000D02*
Y2450000D01*
X2800000Y2250000D02*
X2900000D01*
X2800000D02*
Y2450000D01*
X1685000Y1115000D02*
Y1145000D01*
Y1115000D02*
X1885000D01*
Y1175000D01*
X1685000D02*
X1885000D01*
X1685000Y1145000D02*
Y1175000D01*
X1885000Y1145000D02*
X1894000D01*
X1676000D02*
X1685000D01*
X1200000Y1955000D02*
Y1985000D01*
Y1955000D02*
X1400000D01*
Y2015000D01*
X1200000D02*
X1400000D01*
X1200000Y1985000D02*
Y2015000D01*
X1400000Y1985000D02*
X1409000D01*
X1191000D02*
X1200000D01*
X2480000Y1855000D02*
Y1885000D01*
Y1855000D02*
X2680000D01*
Y1915000D01*
X2480000D02*
X2680000D01*
X2480000Y1885000D02*
Y1915000D01*
X2680000Y1885000D02*
X2689000D01*
X2471000D02*
X2480000D01*
X2195000Y1225000D02*
Y1255000D01*
Y1225000D02*
X2395000D01*
Y1285000D01*
X2195000D02*
X2395000D01*
X2195000Y1255000D02*
Y1285000D01*
X2395000Y1255000D02*
X2404000D01*
X2186000D02*
X2195000D01*
X2680000Y2020000D02*
Y2050000D01*
X2480000D02*
X2680000D01*
X2480000Y1990000D02*
Y2050000D01*
Y1990000D02*
X2680000D01*
Y2020000D01*
X2471000D02*
X2480000D01*
X2680000D02*
X2689000D01*
X2708076Y2674498D02*
X2729290Y2695710D01*
X2708076Y2674498D02*
X2849498Y2533076D01*
X2891924Y2575502D01*
X2750502Y2716924D02*
X2891924Y2575502D01*
X2729290Y2695710D02*
X2750502Y2716924D01*
X2870710Y2554290D02*
X2877074Y2547926D01*
X2722926Y2702074D02*
X2729290Y2695710D01*
D38*
X1614850Y1399145D02*
Y1386649D01*
X1617350Y1384150D01*
X1622348D01*
X1624847Y1386649D01*
Y1399145D01*
X1629846D02*
X1639842D01*
Y1396646D01*
X1629846Y1386649D01*
Y1384150D01*
X1222000Y1541994D02*
Y1525332D01*
X1225332Y1522000D01*
X1231997D01*
X1235329Y1525332D01*
Y1541994D01*
X1255322D02*
X1248658Y1538661D01*
X1241994Y1531997D01*
Y1525332D01*
X1245326Y1522000D01*
X1251990D01*
X1255322Y1525332D01*
Y1528665D01*
X1251990Y1531997D01*
X1241994D01*
X1471000Y2663994D02*
Y2647332D01*
X1474332Y2644000D01*
X1480997D01*
X1484329Y2647332D01*
Y2663994D01*
X1500990Y2644000D02*
Y2663994D01*
X1490994Y2653997D01*
X1504322D01*
X2495000Y2682994D02*
Y2666332D01*
X2498332Y2663000D01*
X2504997D01*
X2508329Y2666332D01*
Y2682994D01*
X2524990Y2663000D02*
Y2682994D01*
X2514994Y2672997D01*
X2528323D01*
X1961150Y2559994D02*
Y2543332D01*
X1964482Y2540000D01*
X1971146D01*
X1974479Y2543332D01*
Y2559994D01*
X1981143Y2556661D02*
X1984475Y2559994D01*
X1991140D01*
X1994472Y2556661D01*
Y2553329D01*
X1991140Y2549997D01*
X1987808D01*
X1991140D01*
X1994472Y2546664D01*
Y2543332D01*
X1991140Y2540000D01*
X1984475D01*
X1981143Y2543332D01*
X1758000Y1135000D02*
Y1154994D01*
X1767997D01*
X1771329Y1151661D01*
Y1144997D01*
X1767997Y1141665D01*
X1758000D01*
X1764665D02*
X1771329Y1135000D01*
X1777994Y1151661D02*
X1781326Y1154994D01*
X1787990D01*
X1791322Y1151661D01*
Y1148329D01*
X1787990Y1144997D01*
X1784658D01*
X1787990D01*
X1791322Y1141665D01*
Y1138332D01*
X1787990Y1135000D01*
X1781326D01*
X1777994Y1138332D01*
X1797987Y1151661D02*
X1801319Y1154994D01*
X1807984D01*
X1811316Y1151661D01*
Y1148329D01*
X1807984Y1144997D01*
X1804651D01*
X1807984D01*
X1811316Y1141665D01*
Y1138332D01*
X1807984Y1135000D01*
X1801319D01*
X1797987Y1138332D01*
X1273000Y1975000D02*
Y1994994D01*
X1282997D01*
X1286329Y1991661D01*
Y1984997D01*
X1282997Y1981665D01*
X1273000D01*
X1279665D02*
X1286329Y1975000D01*
X1292994Y1991661D02*
X1296326Y1994994D01*
X1302990D01*
X1306322Y1991661D01*
Y1988329D01*
X1302990Y1984997D01*
X1299658D01*
X1302990D01*
X1306322Y1981665D01*
Y1978332D01*
X1302990Y1975000D01*
X1296326D01*
X1292994Y1978332D01*
X1326316Y1975000D02*
X1312987D01*
X1326316Y1988329D01*
Y1991661D01*
X1322984Y1994994D01*
X1316319D01*
X1312987Y1991661D01*
X2557000Y1875000D02*
Y1894994D01*
X2566997D01*
X2570329Y1891661D01*
Y1884997D01*
X2566997Y1881665D01*
X2557000D01*
X2563664D02*
X2570329Y1875000D01*
X2576994Y1891661D02*
X2580326Y1894994D01*
X2586990D01*
X2590323Y1891661D01*
Y1888329D01*
X2586990Y1884997D01*
X2583658D01*
X2586990D01*
X2590323Y1881665D01*
Y1878332D01*
X2586990Y1875000D01*
X2580326D01*
X2576994Y1878332D01*
X2596987Y1875000D02*
X2603651D01*
X2600319D01*
Y1894994D01*
X2596987Y1891661D01*
X2845000Y2660000D02*
Y2679994D01*
X2854997D01*
X2858329Y2676661D01*
Y2669997D01*
X2854997Y2666664D01*
X2845000D01*
X2851664D02*
X2858329Y2660000D01*
X2864994Y2676661D02*
X2868326Y2679994D01*
X2874990D01*
X2878323Y2676661D01*
Y2673329D01*
X2874990Y2669997D01*
X2871658D01*
X2874990D01*
X2878323Y2666664D01*
Y2663332D01*
X2874990Y2660000D01*
X2868326D01*
X2864994Y2663332D01*
X2884987Y2676661D02*
X2888319Y2679994D01*
X2894984D01*
X2898316Y2676661D01*
Y2663332D01*
X2894984Y2660000D01*
X2888319D01*
X2884987Y2663332D01*
Y2676661D01*
X2268000Y1245000D02*
Y1264994D01*
X2277997D01*
X2281329Y1261661D01*
Y1254997D01*
X2277997Y1251665D01*
X2268000D01*
X2274664D02*
X2281329Y1245000D01*
X2301323D02*
X2287994D01*
X2301323Y1258329D01*
Y1261661D01*
X2297990Y1264994D01*
X2291326D01*
X2287994Y1261661D01*
X2307987Y1248332D02*
X2311319Y1245000D01*
X2317984D01*
X2321316Y1248332D01*
Y1261661D01*
X2317984Y1264994D01*
X2311319D01*
X2307987Y1261661D01*
Y1258329D01*
X2311319Y1254997D01*
X2321316D01*
X2553000Y2010000D02*
Y2029994D01*
X2562997D01*
X2566329Y2026661D01*
Y2019997D01*
X2562997Y2016665D01*
X2553000D01*
X2559664D02*
X2566329Y2010000D01*
X2586323D02*
X2572994D01*
X2586323Y2023329D01*
Y2026661D01*
X2582990Y2029994D01*
X2576326D01*
X2572994Y2026661D01*
X2592987D02*
X2596319Y2029994D01*
X2602984D01*
X2606316Y2026661D01*
Y2023329D01*
X2602984Y2019997D01*
X2606316Y2016665D01*
Y2013332D01*
X2602984Y2010000D01*
X2596319D01*
X2592987Y2013332D01*
Y2016665D01*
X2596319Y2019997D01*
X2592987Y2023329D01*
Y2026661D01*
X2596319Y2019997D02*
X2602984D01*
X1745000Y1263000D02*
Y1277995D01*
X1752498D01*
X1754997Y1275496D01*
Y1270498D01*
X1752498Y1267998D01*
X1745000D01*
X1749998D02*
X1754997Y1263000D01*
X1769992D02*
X1759995D01*
X1769992Y1272997D01*
Y1275496D01*
X1767493Y1277995D01*
X1762494D01*
X1759995Y1275496D01*
X1774990Y1277995D02*
X1784987D01*
Y1275496D01*
X1774990Y1265499D01*
Y1263000D01*
X1480000Y1508000D02*
Y1522995D01*
X1487498D01*
X1489997Y1520496D01*
Y1515498D01*
X1487498Y1512998D01*
X1480000D01*
X1484998D02*
X1489997Y1508000D01*
X1504992D02*
X1494995D01*
X1504992Y1517997D01*
Y1520496D01*
X1502493Y1522995D01*
X1497494D01*
X1494995Y1520496D01*
X1519987Y1522995D02*
X1514989Y1520496D01*
X1509990Y1515498D01*
Y1510499D01*
X1512490Y1508000D01*
X1517488D01*
X1519987Y1510499D01*
Y1512998D01*
X1517488Y1515498D01*
X1509990D01*
X1875000Y1478000D02*
Y1492995D01*
X1882498D01*
X1884997Y1490496D01*
Y1485498D01*
X1882498Y1482998D01*
X1875000D01*
X1879998D02*
X1884997Y1478000D01*
X1899992D02*
X1889995D01*
X1899992Y1487997D01*
Y1490496D01*
X1897493Y1492995D01*
X1892494D01*
X1889995Y1490496D01*
X1914987Y1492995D02*
X1904990D01*
Y1485498D01*
X1909989Y1487997D01*
X1912488D01*
X1914987Y1485498D01*
Y1480499D01*
X1912488Y1478000D01*
X1907490D01*
X1904990Y1480499D01*
X1222000Y1705000D02*
Y1719995D01*
X1229498D01*
X1231997Y1717496D01*
Y1712498D01*
X1229498Y1709998D01*
X1222000D01*
X1226998D02*
X1231997Y1705000D01*
X1246992D02*
X1236995D01*
X1246992Y1714997D01*
Y1717496D01*
X1244493Y1719995D01*
X1239494D01*
X1236995Y1717496D01*
X1259488Y1705000D02*
Y1719995D01*
X1251990Y1712498D01*
X1261987D01*
X2180055Y1763000D02*
Y1777995D01*
X2187553D01*
X2190052Y1775496D01*
Y1770498D01*
X2187553Y1767998D01*
X2180055D01*
X2185053D02*
X2190052Y1763000D01*
X2205047D02*
X2195050D01*
X2205047Y1772997D01*
Y1775496D01*
X2202548Y1777995D01*
X2197550D01*
X2195050Y1775496D01*
X2210046D02*
X2212545Y1777995D01*
X2217543D01*
X2220042Y1775496D01*
Y1772997D01*
X2217543Y1770498D01*
X2215044D01*
X2217543D01*
X2220042Y1767998D01*
Y1765499D01*
X2217543Y1763000D01*
X2212545D01*
X2210046Y1765499D01*
X1580000Y2853000D02*
Y2867995D01*
X1587498D01*
X1589997Y2865496D01*
Y2860498D01*
X1587498Y2857998D01*
X1580000D01*
X1584998D02*
X1589997Y2853000D01*
X1604992D02*
X1594995D01*
X1604992Y2862997D01*
Y2865496D01*
X1602493Y2867995D01*
X1597494D01*
X1594995Y2865496D01*
X1619987Y2853000D02*
X1609990D01*
X1619987Y2862997D01*
Y2865496D01*
X1617488Y2867995D01*
X1612490D01*
X1609990Y2865496D01*
X2380000Y2459000D02*
Y2473995D01*
X2387498D01*
X2389997Y2471496D01*
Y2466498D01*
X2387498Y2463998D01*
X2380000D01*
X2384998D02*
X2389997Y2459000D01*
X2404992D02*
X2394995D01*
X2404992Y2468997D01*
Y2471496D01*
X2402493Y2473995D01*
X2397494D01*
X2394995Y2471496D01*
X2419987Y2459000D02*
X2409990D01*
X2419987Y2468997D01*
Y2471496D01*
X2417488Y2473995D01*
X2412490D01*
X2409990Y2471496D01*
X1623000Y2553000D02*
Y2567995D01*
X1630498D01*
X1632997Y2565496D01*
Y2560498D01*
X1630498Y2557998D01*
X1623000D01*
X1627998D02*
X1632997Y2553000D01*
X1647992D02*
X1637995D01*
X1647992Y2562997D01*
Y2565496D01*
X1645493Y2567995D01*
X1640494D01*
X1637995Y2565496D01*
X1652990Y2553000D02*
X1657989D01*
X1655490D01*
Y2567995D01*
X1652990Y2565496D01*
X2343000Y2759000D02*
Y2773995D01*
X2350498D01*
X2352997Y2771496D01*
Y2766498D01*
X2350498Y2763998D01*
X2343000D01*
X2347998D02*
X2352997Y2759000D01*
X2367992D02*
X2357995D01*
X2367992Y2768997D01*
Y2771496D01*
X2365493Y2773995D01*
X2360494D01*
X2357995Y2771496D01*
X2372990Y2759000D02*
X2377989D01*
X2375490D01*
Y2773995D01*
X2372990Y2771496D01*
X1620000Y2723000D02*
Y2737995D01*
X1627498D01*
X1629997Y2735496D01*
Y2730498D01*
X1627498Y2727998D01*
X1620000D01*
X1624998D02*
X1629997Y2723000D01*
X1644992D02*
X1634995D01*
X1644992Y2732997D01*
Y2735496D01*
X1642493Y2737995D01*
X1637494D01*
X1634995Y2735496D01*
X1649990D02*
X1652490Y2737995D01*
X1657488D01*
X1659987Y2735496D01*
Y2725499D01*
X1657488Y2723000D01*
X1652490D01*
X1649990Y2725499D01*
Y2735496D01*
X2340000Y2589000D02*
Y2603995D01*
X2347498D01*
X2349997Y2601496D01*
Y2596498D01*
X2347498Y2593998D01*
X2340000D01*
X2344998D02*
X2349997Y2589000D01*
X2364992D02*
X2354995D01*
X2364992Y2598997D01*
Y2601496D01*
X2362493Y2603995D01*
X2357494D01*
X2354995Y2601496D01*
X2369990D02*
X2372490Y2603995D01*
X2377488D01*
X2379987Y2601496D01*
Y2591499D01*
X2377488Y2589000D01*
X2372490D01*
X2369990Y2591499D01*
Y2601496D01*
X2049150Y2703000D02*
Y2717995D01*
X2056647D01*
X2059146Y2715496D01*
Y2710498D01*
X2056647Y2707998D01*
X2049150D01*
X2054148D02*
X2059146Y2703000D01*
X2064145D02*
X2069143D01*
X2066644D01*
Y2717995D01*
X2064145Y2715496D01*
X2076641Y2705499D02*
X2079140Y2703000D01*
X2084138D01*
X2086638Y2705499D01*
Y2715496D01*
X2084138Y2717995D01*
X2079140D01*
X2076641Y2715496D01*
Y2712997D01*
X2079140Y2710498D01*
X2086638D01*
X2164150Y2493000D02*
Y2507995D01*
X2171647D01*
X2174146Y2505496D01*
Y2500498D01*
X2171647Y2497998D01*
X2164150D01*
X2169148D02*
X2174146Y2493000D01*
X2179145D02*
X2184143D01*
X2181644D01*
Y2507995D01*
X2179145Y2505496D01*
X2191641D02*
X2194140Y2507995D01*
X2199138D01*
X2201638Y2505496D01*
Y2502997D01*
X2199138Y2500498D01*
X2201638Y2497998D01*
Y2495499D01*
X2199138Y2493000D01*
X2194140D01*
X2191641Y2495499D01*
Y2497998D01*
X2194140Y2500498D01*
X2191641Y2502997D01*
Y2505496D01*
X2194140Y2500498D02*
X2199138D01*
X1879150Y2703000D02*
Y2717995D01*
X1886647D01*
X1889146Y2715496D01*
Y2710498D01*
X1886647Y2707998D01*
X1879150D01*
X1884148D02*
X1889146Y2703000D01*
X1894145D02*
X1899143D01*
X1896644D01*
Y2717995D01*
X1894145Y2715496D01*
X1906641Y2717995D02*
X1916638D01*
Y2715496D01*
X1906641Y2705499D01*
Y2703000D01*
X1783000Y1429994D02*
Y1410000D01*
X1792997D01*
X1796329Y1413332D01*
Y1426661D01*
X1792997Y1429994D01*
X1783000D01*
X1812990Y1410000D02*
Y1429994D01*
X1802994Y1419997D01*
X1816322D01*
X1884997Y1320496D02*
X1882498Y1322995D01*
X1877499D01*
X1875000Y1320496D01*
Y1310499D01*
X1877499Y1308000D01*
X1882498D01*
X1884997Y1310499D01*
X1899992Y1308000D02*
X1889995D01*
X1899992Y1317997D01*
Y1320496D01*
X1897493Y1322995D01*
X1892494D01*
X1889995Y1320496D01*
X1904990D02*
X1907490Y1322995D01*
X1912488D01*
X1914987Y1320496D01*
Y1317997D01*
X1912488Y1315498D01*
X1909989D01*
X1912488D01*
X1914987Y1312998D01*
Y1310499D01*
X1912488Y1308000D01*
X1907490D01*
X1904990Y1310499D01*
X1579997Y1275496D02*
X1577498Y1277995D01*
X1572499D01*
X1570000Y1275496D01*
Y1265499D01*
X1572499Y1263000D01*
X1577498D01*
X1579997Y1265499D01*
X1594992Y1263000D02*
X1584995D01*
X1594992Y1272997D01*
Y1275496D01*
X1592493Y1277995D01*
X1587494D01*
X1584995Y1275496D01*
X1609987Y1263000D02*
X1599990D01*
X1609987Y1272997D01*
Y1275496D01*
X1607488Y1277995D01*
X1602490D01*
X1599990Y1275496D01*
X1449847Y1393646D02*
X1447348Y1396145D01*
X1442350D01*
X1439850Y1393646D01*
Y1383649D01*
X1442350Y1381150D01*
X1447348D01*
X1449847Y1383649D01*
X1464842Y1381150D02*
X1454846D01*
X1464842Y1391146D01*
Y1393646D01*
X1462343Y1396145D01*
X1457345D01*
X1454846Y1393646D01*
X1469841Y1381150D02*
X1474839D01*
X1472340D01*
Y1396145D01*
X1469841Y1393646D01*
X1111997Y1527496D02*
X1109498Y1529995D01*
X1104499D01*
X1102000Y1527496D01*
Y1517499D01*
X1104499Y1515000D01*
X1109498D01*
X1111997Y1517499D01*
X1126992Y1515000D02*
X1116995D01*
X1126992Y1524997D01*
Y1527496D01*
X1124493Y1529995D01*
X1119494D01*
X1116995Y1527496D01*
X1131990D02*
X1134490Y1529995D01*
X1139488D01*
X1141987Y1527496D01*
Y1517499D01*
X1139488Y1515000D01*
X1134490D01*
X1131990Y1517499D01*
Y1527496D01*
X1232997Y1357496D02*
X1230498Y1359995D01*
X1225499D01*
X1223000Y1357496D01*
Y1347499D01*
X1225499Y1345000D01*
X1230498D01*
X1232997Y1347499D01*
X1237995Y1345000D02*
X1242994D01*
X1240494D01*
Y1359995D01*
X1237995Y1357496D01*
X1250491Y1347499D02*
X1252990Y1345000D01*
X1257989D01*
X1260488Y1347499D01*
Y1357496D01*
X1257989Y1359995D01*
X1252990D01*
X1250491Y1357496D01*
Y1354997D01*
X1252990Y1352498D01*
X1260488D01*
D39*
X1845066Y1951879D02*
Y2031853D01*
X1871724Y2005195D01*
X1898382Y2031853D01*
Y1951879D01*
X1925040Y2031853D02*
Y2018524D01*
X1951698Y1991866D01*
X1978356Y2018524D01*
Y2031853D01*
X1951698Y1991866D02*
Y1951879D01*
X2045001Y2031853D02*
X2018343D01*
X2005014Y2018524D01*
Y1965208D01*
X2018343Y1951879D01*
X2045001D01*
X2058330Y1965208D01*
Y2018524D01*
X2045001Y2031853D01*
X2084988Y1951879D02*
Y2031853D01*
X2138304Y1951879D01*
Y2031853D01*
D40*
X2350000Y1006000D02*
Y1065981D01*
X2379990D01*
X2389987Y1055984D01*
Y1035990D01*
X2379990Y1025994D01*
X2350000D01*
X2449968Y1065981D02*
X2429974Y1055984D01*
X2409981Y1035990D01*
Y1015997D01*
X2419977Y1006000D01*
X2439971D01*
X2449968Y1015997D01*
Y1025994D01*
X2439971Y1035990D01*
X2409981D01*
X2050000Y2994000D02*
Y2934019D01*
X2020010D01*
X2010013Y2944016D01*
Y2964010D01*
X2020010Y2974006D01*
X2050000D01*
X1950032Y2934019D02*
X1990019D01*
Y2964010D01*
X1970026Y2954013D01*
X1960029D01*
X1950032Y2964010D01*
Y2984003D01*
X1960029Y2994000D01*
X1980023D01*
X1990019Y2984003D01*
X2994000Y1550000D02*
X2934019D01*
Y1579990D01*
X2944016Y1589987D01*
X2964010D01*
X2974006Y1579990D01*
Y1550000D01*
X2994000Y1639971D02*
X2934019D01*
X2964010Y1609981D01*
Y1649968D01*
X2994000Y2000000D02*
X2934019D01*
Y2029990D01*
X2944016Y2039987D01*
X2964010D01*
X2974006Y2029990D01*
Y2000000D01*
X2944016Y2059981D02*
X2934019Y2069977D01*
Y2089971D01*
X2944016Y2099968D01*
X2954013D01*
X2964010Y2089971D01*
Y2079974D01*
Y2089971D01*
X2974006Y2099968D01*
X2984003D01*
X2994000Y2089971D01*
Y2069977D01*
X2984003Y2059981D01*
X2994000Y2300000D02*
X2934019D01*
Y2329990D01*
X2944016Y2339987D01*
X2964010D01*
X2974006Y2329990D01*
Y2300000D01*
X2994000Y2399968D02*
Y2359981D01*
X2954013Y2399968D01*
X2944016D01*
X2934019Y2389971D01*
Y2369977D01*
X2944016Y2359981D01*
X1360000Y1006000D02*
Y1065981D01*
X1389990D01*
X1399987Y1055984D01*
Y1035990D01*
X1389990Y1025994D01*
X1360000D01*
X1419981Y1006000D02*
X1439974D01*
X1429977D01*
Y1065981D01*
X1419981Y1055984D01*
%TF.MD5,cc052885a6a1d6f95a4627c38ed0570e*%
M02*
