G04 Layer_Physical_Order=1*
G04 Layer_Color=255*
%FSLAX26Y26*%
%MOIN*%
%TF.FileFunction,Copper,L1,Top,Signal*%
%TF.Part,Single*%
G01*
G75*
%TA.AperFunction,SMDPad,CuDef*%
%ADD10O,0.086614X0.023622*%
%ADD11R,0.043307X0.066929*%
%ADD12O,0.062992X0.021654*%
%ADD13O,0.021654X0.062992*%
%ADD14R,0.062992X0.033465*%
%ADD15R,0.033465X0.062992*%
%ADD16R,0.031496X0.035433*%
%ADD17R,0.035433X0.031496*%
%ADD18R,0.066929X0.043307*%
%TA.AperFunction,Conductor*%
%ADD19C,0.020000*%
%ADD20C,0.010000*%
%TA.AperFunction,ViaPad*%
%ADD21C,0.100000*%
%TA.AperFunction,ComponentPad*%
%ADD22R,0.059055X0.059055*%
%ADD23C,0.059055*%
%ADD24R,0.059055X0.059055*%
%ADD25C,0.055118*%
%TA.AperFunction,ViaPad*%
%ADD26C,0.025000*%
G36*
X3000000Y1000000D02*
X1000000Y1000000D01*
X1000000Y3000000D01*
X3000000Y3000000D01*
X3000000Y1000000D01*
D02*
G37*
%LPC*%
G36*
X1694527Y1174527D02*
X1625473D01*
Y1105473D01*
X1694527D01*
Y1174527D01*
D02*
G37*
G36*
X2900000Y1155475D02*
X2885642Y1153584D01*
X2872263Y1148042D01*
X2860773Y1139226D01*
X2851958Y1127737D01*
X2846416Y1114358D01*
X2844525Y1100000D01*
X2846416Y1085642D01*
X2851958Y1072263D01*
X2860773Y1060774D01*
X2872263Y1051958D01*
X2885642Y1046416D01*
X2900000Y1044525D01*
X2914358Y1046416D01*
X2927737Y1051958D01*
X2939227Y1060774D01*
X2948042Y1072263D01*
X2953584Y1085642D01*
X2955475Y1100000D01*
X2953584Y1114358D01*
X2948042Y1127737D01*
X2939227Y1139226D01*
X2927737Y1148042D01*
X2914358Y1153584D01*
X2900000Y1155475D01*
D02*
G37*
G36*
X1100000D02*
X1085642Y1153584D01*
X1072263Y1148042D01*
X1060774Y1139226D01*
X1051958Y1127737D01*
X1046416Y1114358D01*
X1044525Y1100000D01*
X1046416Y1085642D01*
X1051958Y1072263D01*
X1060774Y1060774D01*
X1072263Y1051958D01*
X1085642Y1046416D01*
X1100000Y1044525D01*
X1114358Y1046416D01*
X1127737Y1051958D01*
X1139226Y1060774D01*
X1148042Y1072263D01*
X1153584Y1085642D01*
X1155475Y1100000D01*
X1153584Y1114358D01*
X1148042Y1127737D01*
X1139226Y1139226D01*
X1127737Y1148042D01*
X1114358Y1153584D01*
X1100000Y1155475D01*
D02*
G37*
G36*
X2665748Y1504366D02*
X2659573Y1503138D01*
X2654338Y1499640D01*
X2653006Y1497647D01*
X2646992D01*
X2645660Y1499640D01*
X2640425Y1503138D01*
X2634250Y1504366D01*
X2628075Y1503138D01*
X2622840Y1499640D01*
X2621509Y1497648D01*
X2615495D01*
X2614164Y1499640D01*
X2608929Y1503138D01*
X2602754Y1504366D01*
X2596579Y1503138D01*
X2591344Y1499640D01*
X2590013Y1497648D01*
X2583999D01*
X2582668Y1499640D01*
X2577433Y1503138D01*
X2571258Y1504366D01*
X2565083Y1503138D01*
X2559848Y1499640D01*
X2556349Y1494405D01*
X2555121Y1488229D01*
Y1446891D01*
X2556349Y1440715D01*
X2559848Y1435480D01*
X2565083Y1431982D01*
X2571258Y1430754D01*
X2577433Y1431982D01*
X2582668Y1435480D01*
X2583999Y1437472D01*
X2590013D01*
X2591344Y1435480D01*
X2596579Y1431982D01*
X2602754Y1430754D01*
X2608929Y1431982D01*
X2614164Y1435480D01*
X2615495Y1437472D01*
X2621509D01*
X2622840Y1435480D01*
X2628075Y1431982D01*
X2634250Y1430754D01*
X2640425Y1431982D01*
X2645660Y1435480D01*
X2646992Y1437473D01*
X2653006D01*
X2654338Y1435480D01*
X2659573Y1431982D01*
X2665748Y1430754D01*
X2671923Y1431982D01*
X2677158Y1435480D01*
X2680657Y1440715D01*
X2681885Y1446891D01*
Y1488229D01*
X2680657Y1494405D01*
X2677158Y1499640D01*
X2671923Y1503138D01*
X2665748Y1504366D01*
D02*
G37*
G36*
Y1949248D02*
X2659573Y1948020D01*
X2654338Y1944522D01*
X2653006Y1942529D01*
X2646992D01*
X2645660Y1944522D01*
X2640425Y1948020D01*
X2634250Y1949248D01*
X2628075Y1948020D01*
X2622840Y1944522D01*
X2621509Y1942530D01*
X2615495D01*
X2614164Y1944522D01*
X2608929Y1948020D01*
X2602754Y1949248D01*
X2596579Y1948020D01*
X2591344Y1944522D01*
X2590013Y1942530D01*
X2583999D01*
X2582668Y1944522D01*
X2577433Y1948020D01*
X2571258Y1949248D01*
X2565083Y1948020D01*
X2559848Y1944522D01*
X2558517Y1942530D01*
X2552503D01*
X2551172Y1944522D01*
X2545937Y1948020D01*
X2539762Y1949248D01*
X2533587Y1948020D01*
X2528352Y1944522D01*
X2524854Y1939287D01*
X2523625Y1933111D01*
Y1891773D01*
X2524854Y1885597D01*
X2528352Y1880362D01*
X2533587Y1876864D01*
X2539762Y1875636D01*
X2545937Y1876864D01*
X2551172Y1880362D01*
X2552503Y1882354D01*
X2558517D01*
X2559848Y1880362D01*
X2565083Y1876864D01*
X2571258Y1875636D01*
X2577433Y1876864D01*
X2582668Y1880362D01*
X2583999Y1882354D01*
X2590013D01*
X2591344Y1880362D01*
X2596579Y1876864D01*
X2602754Y1875636D01*
X2608929Y1876864D01*
X2614164Y1880362D01*
X2615495Y1882354D01*
X2621509D01*
X2622840Y1880362D01*
X2628075Y1876864D01*
X2634250Y1875636D01*
X2640425Y1876864D01*
X2645660Y1880362D01*
X2646992Y1882355D01*
X2653006D01*
X2654338Y1880362D01*
X2659573Y1876864D01*
X2665748Y1875636D01*
X2671923Y1876864D01*
X2677158Y1880362D01*
X2680657Y1885597D01*
X2681885Y1891773D01*
Y1902804D01*
X2811777D01*
X2849804Y1864777D01*
Y1834527D01*
X2825472D01*
Y1826960D01*
X2820853Y1825046D01*
X2791210Y1854690D01*
X2787902Y1856900D01*
X2784000Y1857676D01*
X2763599D01*
X2762788Y1858890D01*
X2757553Y1862389D01*
X2751377Y1863617D01*
X2710039D01*
X2703863Y1862389D01*
X2698628Y1858890D01*
X2695130Y1853655D01*
X2693902Y1847480D01*
X2695130Y1841305D01*
X2698628Y1836070D01*
X2700620Y1834739D01*
Y1828725D01*
X2698628Y1827394D01*
X2695130Y1822159D01*
X2693902Y1815984D01*
X2695130Y1809809D01*
X2698628Y1804574D01*
X2700620Y1803243D01*
Y1797229D01*
X2698628Y1795898D01*
X2695130Y1790663D01*
X2693902Y1784488D01*
X2695130Y1778313D01*
X2698628Y1773078D01*
X2700620Y1771747D01*
Y1765733D01*
X2698628Y1764402D01*
X2695130Y1759167D01*
X2693902Y1752992D01*
X2695130Y1746817D01*
X2698628Y1741582D01*
X2700620Y1740251D01*
Y1734237D01*
X2698628Y1732906D01*
X2695130Y1727671D01*
X2693902Y1721496D01*
X2695130Y1715321D01*
X2698628Y1710086D01*
X2700620Y1708755D01*
Y1702741D01*
X2698628Y1701410D01*
X2695130Y1696175D01*
X2693902Y1690000D01*
X2695130Y1683825D01*
X2698628Y1678590D01*
X2700620Y1677259D01*
Y1671245D01*
X2698628Y1669914D01*
X2695130Y1664679D01*
X2693902Y1658504D01*
X2695130Y1652329D01*
X2698628Y1647094D01*
X2700620Y1645763D01*
Y1639749D01*
X2698628Y1638418D01*
X2695130Y1633183D01*
X2693902Y1627008D01*
X2695130Y1620833D01*
X2698628Y1615598D01*
X2700620Y1614267D01*
Y1608253D01*
X2698628Y1606922D01*
X2695130Y1601687D01*
X2693902Y1595512D01*
X2695130Y1589337D01*
X2698628Y1584102D01*
X2700620Y1582771D01*
Y1576757D01*
X2698628Y1575426D01*
X2695130Y1570191D01*
X2693902Y1564016D01*
X2695130Y1557841D01*
X2698628Y1552606D01*
X2700620Y1551275D01*
Y1545261D01*
X2698628Y1543930D01*
X2695130Y1538695D01*
X2693902Y1532520D01*
X2695130Y1526345D01*
X2698628Y1521110D01*
X2703863Y1517611D01*
X2710039Y1516383D01*
X2751377D01*
X2757553Y1517611D01*
X2762788Y1521110D01*
X2766286Y1526345D01*
X2767514Y1532520D01*
X2766286Y1538695D01*
X2762788Y1543930D01*
X2760796Y1545261D01*
Y1551275D01*
X2762788Y1552606D01*
X2766286Y1557841D01*
X2767514Y1564016D01*
X2766286Y1570191D01*
X2762788Y1575426D01*
X2760796Y1576757D01*
Y1582771D01*
X2762788Y1584102D01*
X2766286Y1589337D01*
X2767514Y1595512D01*
X2766286Y1601687D01*
X2762788Y1606922D01*
X2760796Y1608253D01*
Y1614267D01*
X2762788Y1615598D01*
X2766286Y1620833D01*
X2767514Y1627008D01*
X2766286Y1633183D01*
X2762788Y1638418D01*
X2760796Y1639749D01*
Y1645763D01*
X2762788Y1647094D01*
X2766286Y1652329D01*
X2767514Y1658504D01*
X2766286Y1664679D01*
X2762788Y1669914D01*
X2760796Y1671245D01*
Y1677259D01*
X2762788Y1678590D01*
X2766286Y1683825D01*
X2767514Y1690000D01*
X2766286Y1696175D01*
X2762788Y1701410D01*
X2760796Y1702741D01*
Y1708755D01*
X2762788Y1710086D01*
X2766286Y1715321D01*
X2767514Y1721496D01*
X2766286Y1727671D01*
X2762788Y1732906D01*
X2760796Y1734237D01*
Y1740251D01*
X2762788Y1741582D01*
X2766286Y1746817D01*
X2767514Y1752992D01*
X2766286Y1759167D01*
X2762788Y1764402D01*
X2760796Y1765733D01*
Y1771747D01*
X2762788Y1773078D01*
X2766286Y1778313D01*
X2767514Y1784488D01*
X2766286Y1790663D01*
X2762788Y1795898D01*
X2760796Y1797229D01*
Y1803243D01*
X2762788Y1804574D01*
X2766286Y1809809D01*
X2767514Y1815984D01*
X2766286Y1822159D01*
X2762788Y1827394D01*
X2760796Y1828725D01*
Y1833445D01*
X2764742Y1837284D01*
X2779777D01*
X2809804Y1807257D01*
Y1608000D01*
X2810580Y1604098D01*
X2812790Y1600790D01*
X2820790Y1592790D01*
X2824098Y1590580D01*
X2826748Y1590053D01*
X2829840Y1582587D01*
X2835375Y1575375D01*
X2842587Y1569840D01*
X2850986Y1566361D01*
X2860000Y1565175D01*
X2869014Y1566361D01*
X2877413Y1569840D01*
X2884625Y1575375D01*
X2890160Y1582587D01*
X2893639Y1590986D01*
X2894825Y1600000D01*
X2893639Y1609014D01*
X2890160Y1617413D01*
X2884625Y1624625D01*
X2877413Y1630160D01*
X2869014Y1633639D01*
X2860000Y1634825D01*
X2850986Y1633639D01*
X2842587Y1630160D01*
X2835375Y1624625D01*
X2834931Y1624046D01*
X2830196Y1625654D01*
Y1765473D01*
X2894528D01*
Y1834527D01*
X2870196D01*
Y1869000D01*
X2869420Y1872902D01*
X2867210Y1876210D01*
X2823210Y1920210D01*
X2819902Y1922420D01*
X2816000Y1923196D01*
X2681885D01*
Y1933111D01*
X2680657Y1939287D01*
X2677158Y1944522D01*
X2671923Y1948020D01*
X2665748Y1949248D01*
D02*
G37*
G36*
X2920000Y1962840D02*
X2911500Y1961721D01*
X2903580Y1958440D01*
X2896779Y1953221D01*
X2891560Y1946420D01*
X2888279Y1938500D01*
X2887160Y1930000D01*
X2888279Y1921500D01*
X2891560Y1913580D01*
X2896779Y1906779D01*
X2903580Y1901560D01*
X2911500Y1898279D01*
X2920000Y1897160D01*
X2928500Y1898279D01*
X2936420Y1901560D01*
X2943221Y1906779D01*
X2948440Y1913580D01*
X2951721Y1921500D01*
X2952840Y1930000D01*
X2951721Y1938500D01*
X2948440Y1946420D01*
X2943221Y1953221D01*
X2936420Y1958440D01*
X2928500Y1961721D01*
X2920000Y1962840D01*
D02*
G37*
G36*
Y2362840D02*
X2911500Y2361721D01*
X2903580Y2358440D01*
X2896779Y2353221D01*
X2891560Y2346420D01*
X2888279Y2338500D01*
X2887160Y2330000D01*
X2888279Y2321500D01*
X2891560Y2313580D01*
X2896779Y2306779D01*
X2903580Y2301560D01*
X2911500Y2298279D01*
X2920000Y2297160D01*
X2928500Y2298279D01*
X2936420Y2301560D01*
X2943221Y2306779D01*
X2948440Y2313580D01*
X2951721Y2321500D01*
X2952840Y2330000D01*
X2951721Y2338500D01*
X2948440Y2346420D01*
X2943221Y2353221D01*
X2936420Y2358440D01*
X2928500Y2361721D01*
X2920000Y2362840D01*
D02*
G37*
G36*
Y2262840D02*
X2911500Y2261721D01*
X2903580Y2258440D01*
X2896779Y2253221D01*
X2891560Y2246420D01*
X2888279Y2238500D01*
X2887160Y2230000D01*
X2888279Y2221500D01*
X2891560Y2213580D01*
X2896779Y2206779D01*
X2903580Y2201560D01*
X2911500Y2198279D01*
X2920000Y2197160D01*
X2928500Y2198279D01*
X2936420Y2201560D01*
X2943221Y2206779D01*
X2948440Y2213580D01*
X2951721Y2221500D01*
X2952840Y2230000D01*
X2951721Y2238500D01*
X2948440Y2246420D01*
X2943221Y2253221D01*
X2936420Y2258440D01*
X2928500Y2261721D01*
X2920000Y2262840D01*
D02*
G37*
G36*
X2191850Y2889313D02*
X2182836Y2888127D01*
X2174437Y2884648D01*
X2167225Y2879113D01*
X2161690Y2871901D01*
X2158211Y2863501D01*
X2157025Y2854488D01*
X2158211Y2845474D01*
X2161690Y2837075D01*
X2167225Y2829863D01*
X2174437Y2824328D01*
X2182836Y2820849D01*
X2191850Y2819663D01*
X2200863Y2820849D01*
X2209263Y2824328D01*
X2216475Y2829863D01*
X2222010Y2837075D01*
X2225489Y2845474D01*
X2226675Y2854488D01*
X2225489Y2863501D01*
X2222010Y2871901D01*
X2216475Y2879113D01*
X2209263Y2884648D01*
X2200863Y2888127D01*
X2191850Y2889313D01*
D02*
G37*
G36*
X2091850D02*
X2082836Y2888127D01*
X2074437Y2884648D01*
X2067225Y2879113D01*
X2061690Y2871901D01*
X2058211Y2863501D01*
X2057025Y2854488D01*
X2058211Y2845474D01*
X2061690Y2837075D01*
X2067225Y2829863D01*
X2074437Y2824328D01*
X2082836Y2820849D01*
X2091850Y2819663D01*
X2100863Y2820849D01*
X2109263Y2824328D01*
X2116475Y2829863D01*
X2122010Y2837075D01*
X2125489Y2845474D01*
X2126675Y2854488D01*
X2125489Y2863501D01*
X2122010Y2871901D01*
X2116475Y2879113D01*
X2109263Y2884648D01*
X2100863Y2888127D01*
X2091850Y2889313D01*
D02*
G37*
G36*
X2900000Y2955475D02*
X2885642Y2953584D01*
X2872263Y2948042D01*
X2860773Y2939227D01*
X2851958Y2927737D01*
X2846416Y2914358D01*
X2844525Y2900000D01*
X2846416Y2885642D01*
X2851958Y2872263D01*
X2860773Y2860773D01*
X2872263Y2851958D01*
X2885642Y2846416D01*
X2900000Y2844525D01*
X2914358Y2846416D01*
X2927737Y2851958D01*
X2939227Y2860773D01*
X2948042Y2872263D01*
X2953584Y2885642D01*
X2955475Y2900000D01*
X2953584Y2914358D01*
X2948042Y2927737D01*
X2939227Y2939227D01*
X2927737Y2948042D01*
X2914358Y2953584D01*
X2900000Y2955475D01*
D02*
G37*
G36*
X1100000D02*
X1085642Y2953584D01*
X1072263Y2948042D01*
X1060774Y2939227D01*
X1051958Y2927737D01*
X1046416Y2914358D01*
X1044525Y2900000D01*
X1046416Y2885642D01*
X1051958Y2872263D01*
X1060774Y2860773D01*
X1072263Y2851958D01*
X1085642Y2846416D01*
X1100000Y2844525D01*
X1114358Y2846416D01*
X1127737Y2851958D01*
X1139226Y2860773D01*
X1148042Y2872263D01*
X1153584Y2885642D01*
X1155475Y2900000D01*
X1153584Y2914358D01*
X1148042Y2927737D01*
X1139226Y2939227D01*
X1127737Y2948042D01*
X1114358Y2953584D01*
X1100000Y2955475D01*
D02*
G37*
G36*
X1991850Y2889313D02*
X1982836Y2888127D01*
X1974437Y2884648D01*
X1967225Y2879113D01*
X1961690Y2871901D01*
X1958211Y2863501D01*
X1957025Y2854488D01*
X1958211Y2845474D01*
X1961690Y2837075D01*
X1967225Y2829863D01*
X1974437Y2824328D01*
X1982836Y2820849D01*
X1991850Y2819663D01*
X2000863Y2820849D01*
X2009263Y2824328D01*
X2016475Y2829863D01*
X2022010Y2837075D01*
X2025489Y2845474D01*
X2026675Y2854488D01*
X2025489Y2863501D01*
X2022010Y2871901D01*
X2016475Y2879113D01*
X2009263Y2884648D01*
X2000863Y2888127D01*
X1991850Y2889313D01*
D02*
G37*
G36*
X1826378Y2889015D02*
X1757322D01*
Y2864684D01*
X1353488D01*
X1349586Y2863908D01*
X1346278Y2861698D01*
X1307790Y2823210D01*
X1305580Y2819902D01*
X1304804Y2816000D01*
Y2484234D01*
X1302383Y2482617D01*
X1298515Y2476828D01*
X1297157Y2470000D01*
X1298515Y2463172D01*
X1302383Y2457383D01*
X1308172Y2453515D01*
X1315000Y2452157D01*
X1321828Y2453515D01*
X1327617Y2457383D01*
X1327898Y2457804D01*
X1334098Y2459580D01*
X1338000Y2458804D01*
X1339777D01*
X1345804Y2452777D01*
Y2413266D01*
X1294070D01*
X1290168Y2412490D01*
X1286860Y2410280D01*
X1252997Y2376416D01*
X1235395D01*
Y2392874D01*
X1158466D01*
Y2339566D01*
X1235395D01*
Y2356024D01*
X1257220D01*
X1261122Y2356800D01*
X1264430Y2359010D01*
X1298293Y2392874D01*
X1308622D01*
Y2350354D01*
X1319174D01*
Y2343813D01*
X1316570Y2341210D01*
X1314360Y2337902D01*
X1313584Y2334000D01*
Y2321378D01*
X1301063D01*
Y2310826D01*
X1280710D01*
X1276808Y2310050D01*
X1273500Y2307840D01*
X1240395Y2274734D01*
X1235395Y2276805D01*
Y2286573D01*
X1158466D01*
Y2233267D01*
X1235395D01*
Y2249724D01*
X1240000D01*
X1243902Y2250500D01*
X1247210Y2252710D01*
X1284933Y2290434D01*
X1301063D01*
Y2279882D01*
X1321709D01*
X1322202Y2274882D01*
X1319878Y2274420D01*
X1316570Y2272210D01*
X1314360Y2268902D01*
X1313835Y2266260D01*
X1301063D01*
Y2224764D01*
X1346496D01*
Y2254804D01*
X1352766D01*
X1354383Y2252383D01*
X1360172Y2248515D01*
X1367000Y2247157D01*
X1373828Y2248515D01*
X1379617Y2252383D01*
X1383485Y2258172D01*
X1384843Y2265000D01*
X1383485Y2271828D01*
X1379617Y2277617D01*
X1373828Y2281485D01*
X1367000Y2282843D01*
X1360172Y2281485D01*
X1354383Y2277617D01*
X1352766Y2275196D01*
X1347254D01*
X1346497Y2279882D01*
X1346496Y2280196D01*
Y2321378D01*
X1333976D01*
Y2329777D01*
X1336580Y2332380D01*
X1338790Y2335688D01*
X1339566Y2339590D01*
Y2350354D01*
X1350118D01*
Y2368930D01*
X1354737Y2370843D01*
X1359720Y2365860D01*
X1363028Y2363650D01*
X1363740Y2363509D01*
Y2350354D01*
X1405236D01*
Y2362874D01*
X1417000D01*
X1420902Y2363650D01*
X1424210Y2365860D01*
X1445150Y2386801D01*
X1449528Y2385930D01*
X1512520D01*
X1519079Y2387234D01*
X1524640Y2390950D01*
X1528356Y2396511D01*
X1529660Y2403070D01*
X1528356Y2409629D01*
X1524640Y2415190D01*
X1519079Y2418906D01*
X1512520Y2420210D01*
X1449528D01*
X1442969Y2418906D01*
X1437408Y2415190D01*
X1436122Y2413266D01*
X1424955D01*
X1424462Y2418266D01*
X1427853Y2418940D01*
X1432814Y2422256D01*
X1446993Y2436434D01*
X1449528Y2435930D01*
X1512520D01*
X1519079Y2437234D01*
X1519890Y2437776D01*
X1524287D01*
X1536398Y2425665D01*
Y2230027D01*
X1525274Y2218903D01*
X1523172Y2218485D01*
X1521734Y2217523D01*
X1516734Y2220196D01*
Y2251535D01*
X1500276D01*
Y2253000D01*
X1499500Y2256902D01*
X1497290Y2260210D01*
X1491220Y2266279D01*
Y2285930D01*
X1512520D01*
X1519079Y2287234D01*
X1524640Y2290950D01*
X1528356Y2296511D01*
X1529660Y2303070D01*
X1528356Y2309629D01*
X1524640Y2315190D01*
X1519079Y2318906D01*
X1512520Y2320210D01*
X1449528D01*
X1442969Y2318906D01*
X1442196Y2318389D01*
X1437196Y2321062D01*
Y2335078D01*
X1442196Y2337751D01*
X1442969Y2337234D01*
X1449528Y2335930D01*
X1512520D01*
X1519079Y2337234D01*
X1524640Y2340950D01*
X1528356Y2346511D01*
X1529660Y2353070D01*
X1528356Y2359629D01*
X1524640Y2365190D01*
X1519079Y2368906D01*
X1512520Y2370210D01*
X1449528D01*
X1442969Y2368906D01*
X1437408Y2365190D01*
X1436122Y2363266D01*
X1436070D01*
X1432168Y2362490D01*
X1428860Y2360280D01*
X1419790Y2351210D01*
X1417580Y2347902D01*
X1416804Y2344000D01*
Y2174223D01*
X1371777Y2129196D01*
X1156223D01*
X1132287Y2153132D01*
X1134622Y2157868D01*
X1140000Y2157160D01*
X1148500Y2158279D01*
X1156420Y2161560D01*
X1163221Y2166779D01*
X1168440Y2173580D01*
X1171721Y2181500D01*
X1172840Y2190000D01*
X1171721Y2198500D01*
X1168440Y2206420D01*
X1163221Y2213221D01*
X1156420Y2218440D01*
X1148500Y2221721D01*
X1140000Y2222840D01*
X1131500Y2221721D01*
X1123580Y2218440D01*
X1116779Y2213221D01*
X1115196Y2211159D01*
X1110196Y2212856D01*
Y2360000D01*
X1109420Y2363902D01*
X1107210Y2367210D01*
X1097210Y2377210D01*
X1093902Y2379420D01*
X1091110Y2379975D01*
X1088440Y2386420D01*
X1083221Y2393221D01*
X1076420Y2398440D01*
X1068500Y2401721D01*
X1060000Y2402840D01*
X1051500Y2401721D01*
X1043580Y2398440D01*
X1037196Y2393542D01*
X1033971Y2394174D01*
X1032196Y2394777D01*
Y2645223D01*
X1033971Y2645826D01*
X1037196Y2646458D01*
X1043580Y2641560D01*
X1051500Y2638279D01*
X1060000Y2637160D01*
X1068500Y2638279D01*
X1076420Y2641560D01*
X1083221Y2646779D01*
X1088440Y2653580D01*
X1091721Y2661500D01*
X1092840Y2670000D01*
X1091721Y2678500D01*
X1088440Y2686420D01*
X1083221Y2693221D01*
X1076420Y2698440D01*
X1068500Y2701721D01*
X1060000Y2702840D01*
X1051500Y2701721D01*
X1043580Y2698440D01*
X1036779Y2693221D01*
X1031560Y2686420D01*
X1028711Y2679542D01*
X1028098Y2679420D01*
X1024790Y2677210D01*
X1014790Y2667210D01*
X1012580Y2663902D01*
X1011804Y2660000D01*
Y2121000D01*
X1012580Y2117098D01*
X1014790Y2113790D01*
X1048790Y2079790D01*
X1052098Y2077580D01*
X1056000Y2076804D01*
X1440000D01*
X1443902Y2077580D01*
X1447210Y2079790D01*
X1472210Y2104790D01*
X1474420Y2108098D01*
X1475196Y2112000D01*
Y2174606D01*
X1516734D01*
Y2183804D01*
X1521734Y2186477D01*
X1523172Y2185515D01*
X1525274Y2185097D01*
X1546706Y2163665D01*
Y1931534D01*
X1494687D01*
Y1911266D01*
X1490067Y1909352D01*
X1451210Y1948210D01*
X1447902Y1950420D01*
X1444000Y1951196D01*
X1303000D01*
X1299098Y1950420D01*
X1295790Y1948210D01*
X1247777Y1900196D01*
X1171018D01*
X1168440Y1906420D01*
X1163221Y1913221D01*
X1156420Y1918440D01*
X1149975Y1921110D01*
X1149420Y1923902D01*
X1147210Y1927210D01*
X1139210Y1935210D01*
X1135902Y1937420D01*
X1132000Y1938196D01*
X1040000D01*
X1036098Y1937420D01*
X1032790Y1935210D01*
X1014790Y1917210D01*
X1012580Y1913902D01*
X1011804Y1910000D01*
Y1418000D01*
X1012580Y1414098D01*
X1014790Y1410790D01*
X1032790Y1392790D01*
X1036098Y1390580D01*
X1040000Y1389804D01*
X1105473D01*
Y1325473D01*
X1129804D01*
Y1312000D01*
X1130580Y1308098D01*
X1132790Y1304790D01*
X1164790Y1272790D01*
X1168098Y1270580D01*
X1172000Y1269804D01*
X1787000D01*
X1790902Y1270580D01*
X1794210Y1272790D01*
X1810210Y1288790D01*
X1812420Y1292098D01*
X1813196Y1296000D01*
Y1472000D01*
X1812420Y1475902D01*
X1810210Y1479210D01*
X1792210Y1497210D01*
X1791215Y1497874D01*
X1792732Y1502874D01*
X1825396D01*
Y1491338D01*
X1865993D01*
X1929097Y1428234D01*
Y1374605D01*
X1982403D01*
Y1437804D01*
X2005000D01*
X2008902Y1438580D01*
X2012210Y1440790D01*
X2051210Y1479790D01*
X2053420Y1483098D01*
X2054196Y1487000D01*
Y1573266D01*
X2094215D01*
Y1626573D01*
X2017285D01*
Y1610116D01*
X2010568D01*
X2006666Y1609340D01*
X2003358Y1607130D01*
X1991777Y1595548D01*
X1935788D01*
Y1635786D01*
X1925072D01*
X1924460Y1638862D01*
X1922250Y1642170D01*
X1914814Y1649605D01*
X1916885Y1654605D01*
X1955553D01*
Y1682874D01*
X1985000D01*
X1988902Y1683650D01*
X1992210Y1685860D01*
X2002373Y1696024D01*
X2017285D01*
Y1679566D01*
X2094215D01*
Y1732873D01*
X2017285D01*
Y1716416D01*
X1998150D01*
X1994248Y1715640D01*
X1990940Y1713430D01*
X1980777Y1703266D01*
X1955553D01*
Y1731534D01*
X1931785D01*
X1917966Y1745353D01*
X1920037Y1750353D01*
X1924056D01*
Y1795786D01*
X1882560D01*
Y1750353D01*
X1893112D01*
Y1745592D01*
X1893888Y1741690D01*
X1896098Y1738382D01*
X1899339Y1735142D01*
X1902246Y1731534D01*
X1902246D01*
X1902246Y1731534D01*
Y1656196D01*
X1849254D01*
Y1731534D01*
X1795947D01*
Y1703266D01*
X1790000D01*
X1786098Y1702490D01*
X1782790Y1700280D01*
X1762322Y1679811D01*
X1760316Y1680210D01*
X1697324D01*
X1690765Y1678906D01*
X1685204Y1675190D01*
X1681488Y1669629D01*
X1680184Y1663070D01*
X1681488Y1656511D01*
X1685204Y1650950D01*
X1690765Y1647234D01*
X1697324Y1645930D01*
X1760316D01*
X1766875Y1647234D01*
X1772436Y1650950D01*
X1776152Y1656511D01*
X1777456Y1663070D01*
X1776953Y1665603D01*
X1790947Y1679597D01*
X1795947Y1677526D01*
Y1654605D01*
X1812562D01*
X1813180Y1651498D01*
X1815390Y1648190D01*
X1824790Y1638790D01*
X1828098Y1636580D01*
X1832000Y1635804D01*
X1844419D01*
X1849412Y1635786D01*
Y1595196D01*
X1669000D01*
X1666192Y1594637D01*
X1665925Y1594761D01*
X1663309Y1597012D01*
X1662257Y1598535D01*
X1662654Y1600528D01*
Y1691777D01*
X1673751Y1702874D01*
X1683918D01*
X1685204Y1700950D01*
X1690765Y1697234D01*
X1697324Y1695930D01*
X1760316D01*
X1766875Y1697234D01*
X1772436Y1700950D01*
X1776152Y1706511D01*
X1777456Y1713070D01*
X1776152Y1719629D01*
X1772436Y1725190D01*
X1766875Y1728906D01*
X1760316Y1730210D01*
X1697324D01*
X1690765Y1728906D01*
X1685204Y1725190D01*
X1683918Y1723266D01*
X1675756D01*
X1673685Y1728266D01*
X1679210Y1733790D01*
X1681420Y1737098D01*
X1682196Y1741000D01*
Y1747137D01*
X1687196Y1749619D01*
X1690765Y1747234D01*
X1697324Y1745930D01*
X1760316D01*
X1766875Y1747234D01*
X1772436Y1750950D01*
X1773722Y1752874D01*
X1783000D01*
X1786902Y1753650D01*
X1790210Y1755860D01*
X1797223Y1762874D01*
X1827442D01*
Y1750353D01*
X1868938D01*
Y1795786D01*
X1827442D01*
X1827196Y1800685D01*
Y1830353D01*
X1864056D01*
Y1842874D01*
X1877503D01*
X1895470Y1823195D01*
X1895660Y1823056D01*
X1895790Y1822860D01*
X1912790Y1805860D01*
X1916098Y1803650D01*
X1920000Y1802874D01*
X1935947D01*
Y1774605D01*
X1989254D01*
Y1781258D01*
X1994254Y1783327D01*
X2031798Y1745782D01*
X2035106Y1743572D01*
X2039008Y1742796D01*
X2252935D01*
X2253746Y1741582D01*
X2255738Y1740251D01*
Y1735531D01*
X2251792Y1731692D01*
X2236496D01*
X2232594Y1730916D01*
X2229286Y1728706D01*
X2152790Y1652210D01*
X2150580Y1648902D01*
X2149804Y1645000D01*
Y1409223D01*
X2130777Y1390196D01*
X2030000D01*
X2026098Y1389420D01*
X2022790Y1387210D01*
X1994290Y1358710D01*
X1992080Y1355402D01*
X1991304Y1351500D01*
Y1216000D01*
X1992080Y1212098D01*
X1994290Y1208790D01*
X2026290Y1176790D01*
X2027766Y1175804D01*
X2029198Y1174756D01*
X2029414Y1174704D01*
X2029598Y1174580D01*
X2031340Y1174234D01*
X2033063Y1173813D01*
X2095637Y1171129D01*
X2097239Y1166056D01*
X2095375Y1164625D01*
X2089840Y1157413D01*
X2086361Y1149014D01*
X2085175Y1140000D01*
X2086361Y1130986D01*
X2089840Y1122587D01*
X2095375Y1115375D01*
X2102587Y1109840D01*
X2110986Y1106361D01*
X2120000Y1105175D01*
X2129014Y1106361D01*
X2137413Y1109840D01*
X2144625Y1115375D01*
X2150160Y1122587D01*
X2153639Y1130986D01*
X2154825Y1140000D01*
X2153639Y1149014D01*
X2150160Y1157413D01*
X2145103Y1164003D01*
X2146368Y1168953D01*
X2190927Y1167042D01*
X2193310Y1161935D01*
X2189840Y1157413D01*
X2186361Y1149014D01*
X2185175Y1140000D01*
X2186361Y1130986D01*
X2189840Y1122587D01*
X2195375Y1115375D01*
X2202587Y1109840D01*
X2210986Y1106361D01*
X2220000Y1105175D01*
X2229014Y1106361D01*
X2237413Y1109840D01*
X2244625Y1115375D01*
X2250160Y1122587D01*
X2253639Y1130986D01*
X2254825Y1140000D01*
X2253639Y1149014D01*
X2250160Y1157413D01*
X2244625Y1164625D01*
X2237413Y1170160D01*
X2230196Y1173149D01*
Y1176000D01*
X2229850Y1177741D01*
X2229578Y1179495D01*
X2229463Y1179684D01*
X2229420Y1179902D01*
X2228434Y1181378D01*
X2227512Y1182894D01*
X2227333Y1183025D01*
X2227210Y1183210D01*
X2225733Y1184196D01*
X2224302Y1185244D01*
X2224086Y1185296D01*
X2223902Y1185420D01*
X2222160Y1185766D01*
X2220437Y1186187D01*
X2037903Y1194016D01*
X2011696Y1220223D01*
Y1231852D01*
X2016315Y1233765D01*
X2040290Y1209790D01*
X2043598Y1207580D01*
X2047500Y1206804D01*
X2282777D01*
X2309804Y1179777D01*
Y1173149D01*
X2302587Y1170160D01*
X2295375Y1164625D01*
X2289840Y1157413D01*
X2286361Y1149014D01*
X2285175Y1140000D01*
X2286361Y1130986D01*
X2289840Y1122587D01*
X2295375Y1115375D01*
X2302587Y1109840D01*
X2310986Y1106361D01*
X2320000Y1105175D01*
X2329014Y1106361D01*
X2337413Y1109840D01*
X2344625Y1115375D01*
X2350160Y1122587D01*
X2353639Y1130986D01*
X2354825Y1140000D01*
X2353639Y1149014D01*
X2350160Y1157413D01*
X2344625Y1164625D01*
X2337413Y1170160D01*
X2330196Y1173149D01*
Y1184000D01*
X2329420Y1187902D01*
X2327210Y1191210D01*
X2294210Y1224210D01*
X2290902Y1226420D01*
X2287000Y1227196D01*
X2051723D01*
X2026696Y1252223D01*
Y1263852D01*
X2031315Y1265765D01*
X2061290Y1235790D01*
X2064598Y1233580D01*
X2068500Y1232804D01*
X2427777D01*
X2459804Y1200777D01*
Y1115000D01*
X2460580Y1111098D01*
X2462790Y1107790D01*
X2492790Y1077790D01*
X2496098Y1075580D01*
X2500000Y1074804D01*
X2601000D01*
X2604902Y1075580D01*
X2608210Y1077790D01*
X2627210Y1096790D01*
X2629420Y1100098D01*
X2630196Y1104000D01*
Y1105473D01*
X2654528D01*
Y1174527D01*
X2585472D01*
Y1105473D01*
X2600520D01*
X2602434Y1100853D01*
X2596777Y1095196D01*
X2504223D01*
X2480196Y1119223D01*
Y1205000D01*
X2479420Y1208902D01*
X2477210Y1212210D01*
X2439210Y1250210D01*
X2435902Y1252420D01*
X2432000Y1253196D01*
X2072723D01*
X2041696Y1284223D01*
Y1304871D01*
X2046105Y1307228D01*
X2047172Y1306515D01*
X2054000Y1305157D01*
X2060828Y1306515D01*
X2062610Y1307706D01*
X2359708D01*
X2365561Y1308870D01*
X2370522Y1312186D01*
X2391522Y1333186D01*
X2394838Y1338147D01*
X2396002Y1344000D01*
Y1351535D01*
X2407361D01*
Y1374706D01*
X2466810D01*
Y1367284D01*
X2472264D01*
Y1280442D01*
X2473428Y1274589D01*
X2476744Y1269628D01*
X2504706Y1241665D01*
Y1171037D01*
X2502587Y1170160D01*
X2495375Y1164625D01*
X2489840Y1157413D01*
X2486361Y1149014D01*
X2485175Y1140000D01*
X2486361Y1130986D01*
X2489840Y1122587D01*
X2495375Y1115375D01*
X2502587Y1109840D01*
X2510986Y1106361D01*
X2520000Y1105175D01*
X2529014Y1106361D01*
X2537413Y1109840D01*
X2544625Y1115375D01*
X2550160Y1122587D01*
X2553639Y1130986D01*
X2554825Y1140000D01*
X2553639Y1149014D01*
X2550160Y1157413D01*
X2544625Y1164625D01*
X2537413Y1170160D01*
X2535294Y1171037D01*
Y1248000D01*
X2534130Y1253853D01*
X2530814Y1258814D01*
X2502852Y1286777D01*
Y1367284D01*
X2508306D01*
Y1412716D01*
X2508306D01*
X2507017Y1415830D01*
X2519080Y1427894D01*
X2522396Y1432855D01*
X2523560Y1438708D01*
Y1442653D01*
X2524403Y1446891D01*
Y1488229D01*
X2523560Y1492467D01*
Y1674000D01*
X2522396Y1679853D01*
X2519080Y1684814D01*
X2492064Y1711831D01*
Y1801390D01*
X2493255Y1803172D01*
X2494613Y1810000D01*
X2493255Y1816828D01*
X2492064Y1818610D01*
Y1887535D01*
X2492907Y1891773D01*
Y1933111D01*
X2492064Y1937349D01*
Y1942000D01*
X2491013Y1947283D01*
X2491419Y1948859D01*
X2493188Y1952284D01*
X2495866D01*
Y1995644D01*
X2500866Y1997715D01*
X2502790Y1995790D01*
X2506098Y1993580D01*
X2510000Y1992804D01*
X2693000D01*
X2696902Y1993580D01*
X2700210Y1995790D01*
X2745210Y2040790D01*
X2747420Y2044098D01*
X2748196Y2048000D01*
Y2238268D01*
X2770804D01*
Y2137234D01*
X2768383Y2135617D01*
X2764515Y2129828D01*
X2763157Y2123000D01*
X2764515Y2116172D01*
X2768383Y2110383D01*
X2774172Y2106515D01*
X2781000Y2105157D01*
X2787828Y2106515D01*
X2793617Y2110383D01*
X2797485Y2116172D01*
X2798843Y2123000D01*
X2797485Y2129828D01*
X2793617Y2135617D01*
X2791196Y2137234D01*
Y2305841D01*
X2796196Y2307538D01*
X2796779Y2306779D01*
X2803580Y2301560D01*
X2810242Y2298800D01*
X2810580Y2297098D01*
X2812790Y2293790D01*
X2822158Y2284423D01*
X2820244Y2279803D01*
X2801535D01*
Y2226497D01*
X2878465D01*
Y2279803D01*
X2850196D01*
Y2281000D01*
X2849420Y2284902D01*
X2847210Y2288210D01*
X2838172Y2297247D01*
X2838972Y2303518D01*
X2843221Y2306779D01*
X2848440Y2313580D01*
X2851721Y2321500D01*
X2852840Y2330000D01*
X2851721Y2338500D01*
X2848440Y2346420D01*
X2843221Y2353221D01*
X2836420Y2358440D01*
X2828500Y2361721D01*
X2820000Y2362840D01*
X2811500Y2361721D01*
X2803580Y2358440D01*
X2796779Y2353221D01*
X2796196Y2352462D01*
X2791196Y2354159D01*
Y2605841D01*
X2796196Y2607538D01*
X2796779Y2606779D01*
X2803580Y2601560D01*
X2811500Y2598279D01*
X2820000Y2597160D01*
X2828500Y2598279D01*
X2836420Y2601560D01*
X2843221Y2606779D01*
X2848440Y2613580D01*
X2851721Y2621500D01*
X2852840Y2630000D01*
X2851721Y2638500D01*
X2848440Y2646420D01*
X2843221Y2653221D01*
X2836420Y2658440D01*
X2828500Y2661721D01*
X2820000Y2662840D01*
X2811500Y2661721D01*
X2803580Y2658440D01*
X2796779Y2653221D01*
X2796196Y2652462D01*
X2791196Y2654159D01*
Y2816000D01*
X2790420Y2819902D01*
X2788210Y2823210D01*
X2752210Y2859210D01*
X2748902Y2861420D01*
X2745000Y2862196D01*
X2301000D01*
X2297098Y2861420D01*
X2293790Y2859210D01*
X2257790Y2823210D01*
X2255580Y2819902D01*
X2254804Y2816000D01*
Y2756223D01*
X2228777Y2730196D01*
X2022000D01*
X2018098Y2729420D01*
X2014790Y2727210D01*
X1944815Y2657235D01*
X1940196Y2659148D01*
Y2715777D01*
X1981223Y2756804D01*
X2080176D01*
X2081793Y2754383D01*
X2087582Y2750515D01*
X2094410Y2749157D01*
X2101238Y2750515D01*
X2107027Y2754383D01*
X2110895Y2760172D01*
X2112253Y2767000D01*
X2110895Y2773828D01*
X2107027Y2779617D01*
X2101238Y2783485D01*
X2094410Y2784843D01*
X2087582Y2783485D01*
X2081793Y2779617D01*
X2080176Y2777196D01*
X1977000D01*
X1973098Y2776420D01*
X1969790Y2774210D01*
X1922790Y2727210D01*
X1920580Y2723902D01*
X1919804Y2720000D01*
Y2412234D01*
X1917383Y2410617D01*
X1915032Y2407098D01*
X1909202Y2406823D01*
X1908944Y2407210D01*
X1895944Y2420210D01*
X1892636Y2422420D01*
X1888734Y2423196D01*
X1858223D01*
X1842535Y2438885D01*
X1844448Y2443504D01*
X1871732D01*
Y2516496D01*
X1868448D01*
X1866535Y2521115D01*
X1890360Y2544940D01*
X1892570Y2548248D01*
X1893346Y2552150D01*
Y2554606D01*
X1909803D01*
Y2631535D01*
X1893346D01*
Y2720000D01*
X1892570Y2723902D01*
X1890360Y2727210D01*
X1836360Y2781210D01*
X1833052Y2783420D01*
X1829150Y2784196D01*
X1632000D01*
X1628098Y2783420D01*
X1624790Y2781210D01*
X1590790Y2747210D01*
X1588580Y2743902D01*
X1587804Y2740000D01*
Y2635686D01*
X1582804Y2633615D01*
X1559328Y2657092D01*
X1556020Y2659302D01*
X1552118Y2660078D01*
X1550434D01*
Y2731535D01*
X1497127D01*
Y2664917D01*
X1492507Y2663004D01*
X1480294Y2675217D01*
Y2699390D01*
X1481485Y2701172D01*
X1482843Y2708000D01*
X1481485Y2714828D01*
X1477617Y2720617D01*
X1471828Y2724485D01*
X1465000Y2725843D01*
X1458172Y2724485D01*
X1452383Y2720617D01*
X1448515Y2714828D01*
X1447157Y2708000D01*
X1448515Y2701172D01*
X1449706Y2699390D01*
Y2668882D01*
X1450870Y2663029D01*
X1454186Y2658068D01*
X1487424Y2624830D01*
X1485510Y2620210D01*
X1449528D01*
X1442969Y2618906D01*
X1437408Y2615190D01*
X1433692Y2609629D01*
X1432388Y2603070D01*
X1433692Y2596511D01*
X1437408Y2590950D01*
X1442969Y2587234D01*
X1449528Y2585930D01*
X1470828D01*
Y2570210D01*
X1459557D01*
X1459420Y2570902D01*
X1457210Y2574210D01*
X1453902Y2576420D01*
X1450000Y2577196D01*
X1352000D01*
X1348098Y2576420D01*
X1344790Y2574210D01*
X1330790Y2560210D01*
X1330196Y2559320D01*
X1325196Y2560837D01*
Y2811777D01*
X1357711Y2844292D01*
X1757322D01*
Y2819961D01*
X1826378D01*
Y2889015D01*
D02*
G37*
G36*
X2920000Y2662840D02*
X2911500Y2661721D01*
X2903580Y2658440D01*
X2896779Y2653221D01*
X2891560Y2646420D01*
X2888279Y2638500D01*
X2887160Y2630000D01*
X2888279Y2621500D01*
X2891560Y2613580D01*
X2896779Y2606779D01*
X2903580Y2601560D01*
X2911500Y2598279D01*
X2920000Y2597160D01*
X2928500Y2598279D01*
X2936420Y2601560D01*
X2943221Y2606779D01*
X2948440Y2613580D01*
X2951721Y2621500D01*
X2952840Y2630000D01*
X2951721Y2638500D01*
X2948440Y2646420D01*
X2943221Y2653221D01*
X2936420Y2658440D01*
X2928500Y2661721D01*
X2920000Y2662840D01*
D02*
G37*
G36*
X1891850Y2889313D02*
X1882836Y2888127D01*
X1874437Y2884648D01*
X1867225Y2879113D01*
X1861690Y2871901D01*
X1858211Y2863501D01*
X1857025Y2854488D01*
X1858211Y2845474D01*
X1861690Y2837075D01*
X1867225Y2829863D01*
X1874437Y2824328D01*
X1882836Y2820849D01*
X1891850Y2819663D01*
X1900863Y2820849D01*
X1909263Y2824328D01*
X1916475Y2829863D01*
X1922010Y2837075D01*
X1925489Y2845474D01*
X1926675Y2854488D01*
X1925489Y2863501D01*
X1922010Y2871901D01*
X1916475Y2879113D01*
X1909263Y2884648D01*
X1900863Y2888127D01*
X1891850Y2889313D01*
D02*
G37*
%LPD*%
G36*
X1313112Y1752612D02*
X1313888Y1748710D01*
X1316098Y1745402D01*
X1368790Y1692710D01*
X1372098Y1690500D01*
X1376000Y1689724D01*
X1377285D01*
Y1673266D01*
X1454215D01*
Y1683215D01*
X1459215Y1685286D01*
X1488640Y1655860D01*
X1491948Y1653650D01*
X1494803Y1653082D01*
X1496228Y1650950D01*
X1501789Y1647234D01*
X1508348Y1645930D01*
X1571340D01*
X1576568Y1646969D01*
X1576906Y1646808D01*
X1579778Y1644200D01*
X1580496Y1643041D01*
X1579706Y1639070D01*
Y1633256D01*
X1579705Y1633253D01*
X1575064Y1629469D01*
X1571340Y1630210D01*
X1508348D01*
X1505963Y1629736D01*
X1491814Y1643884D01*
X1486853Y1647200D01*
X1481000Y1648364D01*
X1464056D01*
Y1655786D01*
X1422560D01*
Y1610353D01*
X1464056D01*
Y1617776D01*
X1474665D01*
X1490186Y1602256D01*
X1495147Y1598940D01*
X1500968Y1597782D01*
X1501789Y1597234D01*
X1508348Y1595930D01*
X1571340D01*
X1577899Y1597234D01*
X1578710Y1597776D01*
X1584070D01*
X1589923Y1598940D01*
X1594884Y1602256D01*
X1600185Y1607556D01*
X1604804Y1605642D01*
Y1588223D01*
X1589847Y1573266D01*
X1584746D01*
X1583460Y1575190D01*
X1577899Y1578906D01*
X1571340Y1580210D01*
X1508348D01*
X1501789Y1578906D01*
X1496228Y1575190D01*
X1494942Y1573266D01*
X1489373D01*
X1489210Y1573430D01*
X1485902Y1575640D01*
X1482000Y1576416D01*
X1467284D01*
Y1592873D01*
X1390355D01*
Y1542196D01*
X1337223D01*
X1307196Y1572223D01*
Y1810353D01*
X1313112D01*
Y1752612D01*
D02*
G37*
G36*
X1502246Y1386191D02*
X1497246Y1384674D01*
X1496617Y1385617D01*
X1490828Y1389485D01*
X1484000Y1390843D01*
X1477172Y1389485D01*
X1471383Y1385617D01*
X1469423Y1382683D01*
X1468098Y1382420D01*
X1464790Y1380210D01*
X1447790Y1363210D01*
X1445580Y1359902D01*
X1444804Y1356000D01*
Y1330196D01*
X1315223D01*
X1279275Y1366144D01*
X1279843Y1369000D01*
X1278485Y1375828D01*
X1274617Y1381617D01*
X1268828Y1385485D01*
X1262000Y1386843D01*
X1255172Y1385485D01*
X1249383Y1381617D01*
X1245515Y1375828D01*
X1244645Y1371450D01*
X1239304Y1369719D01*
X1206839Y1402185D01*
X1208752Y1406804D01*
X1502246D01*
Y1386191D01*
D02*
G37*
G36*
X1872954Y2715777D02*
Y2631535D01*
X1856496D01*
Y2554606D01*
X1864653D01*
X1866567Y2549986D01*
X1842790Y2526210D01*
X1840580Y2522902D01*
X1839804Y2519000D01*
Y2516496D01*
X1828268D01*
Y2459684D01*
X1823648Y2457771D01*
X1813196Y2468223D01*
Y2482000D01*
X1812420Y2485902D01*
X1810210Y2489210D01*
X1799210Y2500210D01*
X1795902Y2502420D01*
X1792000Y2503196D01*
X1740223D01*
X1736196Y2507223D01*
Y2512000D01*
X1735420Y2515902D01*
X1733210Y2519210D01*
X1715934Y2536485D01*
X1715925Y2536503D01*
X1717163Y2538964D01*
X1722207Y2540176D01*
X1723098Y2539580D01*
X1727000Y2538804D01*
X1810080D01*
X1813982Y2539580D01*
X1817290Y2541790D01*
X1819500Y2545098D01*
X1820276Y2549000D01*
Y2654606D01*
X1836734D01*
Y2731535D01*
X1819756D01*
X1819500Y2732822D01*
X1817290Y2736130D01*
X1799210Y2754210D01*
X1795902Y2756420D01*
X1792000Y2757196D01*
X1648000D01*
X1644098Y2756420D01*
X1640790Y2754210D01*
X1622870Y2736290D01*
X1620660Y2732982D01*
X1620372Y2731535D01*
X1610025D01*
X1608954Y2736535D01*
X1636223Y2763804D01*
X1824927D01*
X1872954Y2715777D01*
D02*
G37*
G36*
X1783464Y2736535D02*
X1783426Y2731534D01*
X1783427D01*
Y2654606D01*
X1799884D01*
Y2559196D01*
X1731223D01*
X1730140Y2560280D01*
X1726832Y2562490D01*
X1722930Y2563266D01*
X1714902D01*
X1713616Y2565190D01*
X1708055Y2568906D01*
X1701496Y2570210D01*
X1638504D01*
X1631945Y2568906D01*
X1631196Y2568405D01*
X1626196Y2571078D01*
Y2585062D01*
X1631196Y2587735D01*
X1631945Y2587234D01*
X1638504Y2585930D01*
X1701496D01*
X1708055Y2587234D01*
X1713616Y2590950D01*
X1717332Y2596511D01*
X1718636Y2603070D01*
X1717332Y2609629D01*
X1713616Y2615190D01*
X1708055Y2618906D01*
X1701496Y2620210D01*
X1680196D01*
Y2626777D01*
X1708025Y2654606D01*
X1730434D01*
Y2731535D01*
X1677127D01*
Y2654606D01*
X1677126Y2654606D01*
X1677126D01*
X1675044Y2650463D01*
X1662790Y2638210D01*
X1660580Y2634902D01*
X1659804Y2631000D01*
Y2620210D01*
X1638504D01*
X1631945Y2618906D01*
X1626384Y2615190D01*
X1625098Y2613266D01*
X1624000D01*
X1620098Y2612490D01*
X1616790Y2610280D01*
X1613196Y2606685D01*
X1608196Y2608756D01*
Y2654606D01*
X1656734D01*
Y2731534D01*
X1656734D01*
X1656536Y2736535D01*
X1656716Y2736804D01*
X1783284D01*
X1783464Y2736535D01*
D02*
G37*
G36*
X2385765Y2837185D02*
X2358380Y2809800D01*
X2356170Y2806492D01*
X2355394Y2802590D01*
Y2758465D01*
X2338936D01*
Y2681535D01*
X2392244D01*
Y2758465D01*
X2375786D01*
Y2798367D01*
X2404223Y2826804D01*
X2715777D01*
X2746804Y2795777D01*
Y2658465D01*
X2698307D01*
Y2593156D01*
X2683960D01*
X2680058Y2592380D01*
X2676750Y2590170D01*
X2617777Y2531196D01*
X2573223D01*
X2567210Y2537210D01*
X2563902Y2539420D01*
X2560000Y2540196D01*
X2556714D01*
X2555428Y2542120D01*
X2549867Y2545836D01*
X2543308Y2547140D01*
X2480316D01*
X2473757Y2545836D01*
X2468196Y2542120D01*
X2464480Y2536559D01*
X2463176Y2530000D01*
X2464480Y2523441D01*
X2468196Y2517880D01*
X2473757Y2514164D01*
X2480316Y2512860D01*
X2543308D01*
X2549867Y2514164D01*
X2555428Y2517880D01*
X2557497Y2518084D01*
X2561790Y2513790D01*
X2563372Y2512734D01*
X2561855Y2507734D01*
X2561440D01*
X2555587Y2506570D01*
X2550626Y2503254D01*
X2544312Y2496941D01*
X2543308Y2497140D01*
X2480316D01*
X2473757Y2495836D01*
X2468196Y2492120D01*
X2464480Y2486559D01*
X2463176Y2480000D01*
X2464480Y2473441D01*
X2468196Y2467880D01*
X2473757Y2464164D01*
X2480316Y2462860D01*
X2543308D01*
X2549867Y2464164D01*
X2551389Y2465181D01*
X2554853Y2465870D01*
X2559814Y2469186D01*
X2567775Y2477146D01*
X2576023D01*
Y2471692D01*
X2621456D01*
Y2477146D01*
X2643440D01*
X2649293Y2478310D01*
X2654254Y2481626D01*
X2660726Y2488097D01*
X2662828Y2488515D01*
X2665080Y2490020D01*
X2670080Y2487347D01*
Y2470434D01*
X2713544D01*
Y2543426D01*
X2709332D01*
X2707294Y2547992D01*
X2732550Y2576153D01*
X2733426Y2577630D01*
X2734380Y2579058D01*
X2734435Y2579334D01*
X2734578Y2579575D01*
X2734821Y2581276D01*
X2734873Y2581535D01*
X2746804D01*
Y2456223D01*
X2715777Y2425196D01*
X2676392D01*
X2672446Y2429412D01*
X2672617Y2433383D01*
X2676485Y2439172D01*
X2677843Y2446000D01*
X2676485Y2452828D01*
X2672617Y2458617D01*
X2666828Y2462485D01*
X2660000Y2463843D01*
X2653172Y2462485D01*
X2647383Y2458617D01*
X2643515Y2452828D01*
X2642157Y2446000D01*
X2642543Y2444061D01*
X2639371Y2440196D01*
X2556714D01*
X2555428Y2442120D01*
X2549867Y2445836D01*
X2543308Y2447140D01*
X2480316D01*
X2473757Y2445836D01*
X2468196Y2442120D01*
X2464480Y2436559D01*
X2463176Y2430000D01*
X2464480Y2423441D01*
X2468196Y2417880D01*
X2473757Y2414164D01*
X2480316Y2412860D01*
X2543308D01*
X2549867Y2414164D01*
X2555428Y2417880D01*
X2556714Y2419804D01*
X2640852D01*
X2642765Y2415185D01*
X2634777Y2407196D01*
X2511812D01*
X2507910Y2406420D01*
X2504602Y2404210D01*
X2502392Y2400902D01*
X2501644Y2397140D01*
X2480316D01*
X2473757Y2395836D01*
X2468196Y2392120D01*
X2466910Y2390196D01*
X2458000D01*
X2453196Y2394338D01*
Y2604777D01*
X2466469Y2618050D01*
X2468196Y2617880D01*
X2473757Y2614164D01*
X2480316Y2612860D01*
X2543308D01*
X2549867Y2614164D01*
X2555428Y2617880D01*
X2559144Y2623441D01*
X2560448Y2630000D01*
X2559144Y2636559D01*
X2555428Y2642120D01*
X2549867Y2645836D01*
X2543308Y2647140D01*
X2522008D01*
Y2653777D01*
X2549767Y2681535D01*
X2572244D01*
Y2758465D01*
X2518936D01*
Y2681536D01*
X2518936Y2681536D01*
X2518936D01*
X2516812Y2677419D01*
X2504602Y2665210D01*
X2502392Y2661902D01*
X2501616Y2658000D01*
Y2647140D01*
X2480316D01*
X2473757Y2645836D01*
X2468196Y2642120D01*
X2466910Y2640196D01*
X2464000D01*
X2460098Y2639420D01*
X2456790Y2637210D01*
X2435790Y2616210D01*
X2433580Y2612902D01*
X2432804Y2609000D01*
Y2481673D01*
X2427804Y2479340D01*
X2423828Y2481997D01*
X2421726Y2482415D01*
X2413326Y2490814D01*
X2408365Y2494130D01*
X2402512Y2495294D01*
X2361700D01*
X2360889Y2495836D01*
X2354330Y2497140D01*
X2291338D01*
X2284779Y2495836D01*
X2283954Y2495285D01*
X2278147Y2494130D01*
X2273186Y2490814D01*
X2259847Y2477476D01*
X2258000Y2477843D01*
X2252048Y2476659D01*
X2248777Y2478377D01*
X2247048Y2479743D01*
Y2482716D01*
X2209656D01*
X2209420Y2483902D01*
X2207210Y2487210D01*
X2197503Y2496916D01*
X2199417Y2501535D01*
X2238544D01*
Y2529804D01*
X2257777D01*
X2264790Y2522790D01*
X2268098Y2520580D01*
X2272000Y2519804D01*
X2277932D01*
X2279218Y2517880D01*
X2284779Y2514164D01*
X2291338Y2512860D01*
X2354330D01*
X2360889Y2514164D01*
X2366450Y2517880D01*
X2370166Y2523441D01*
X2371470Y2530000D01*
X2370166Y2536559D01*
X2366450Y2542120D01*
X2360889Y2545836D01*
X2354330Y2547140D01*
X2291338D01*
X2284779Y2545836D01*
X2279218Y2542120D01*
X2273720Y2542699D01*
X2269210Y2547210D01*
X2265902Y2549420D01*
X2262000Y2550196D01*
X2238544D01*
Y2578465D01*
X2190196D01*
Y2587777D01*
X2222223Y2619804D01*
X2277932D01*
X2279218Y2617880D01*
X2284779Y2614164D01*
X2291338Y2612860D01*
X2312638D01*
Y2597140D01*
X2291338D01*
X2284779Y2595836D01*
X2279218Y2592120D01*
X2275502Y2586559D01*
X2274198Y2580000D01*
X2275502Y2573441D01*
X2279218Y2567880D01*
X2284779Y2564164D01*
X2291338Y2562860D01*
X2354330D01*
X2360889Y2564164D01*
X2366450Y2567880D01*
X2370166Y2573441D01*
X2371470Y2580000D01*
X2370166Y2586559D01*
X2366450Y2592120D01*
X2360889Y2595836D01*
X2354330Y2597140D01*
X2333030D01*
Y2612860D01*
X2354330D01*
X2360889Y2614164D01*
X2366450Y2617880D01*
X2370166Y2623441D01*
X2371470Y2630000D01*
X2370166Y2636559D01*
X2366450Y2642120D01*
X2360889Y2645836D01*
X2354330Y2647140D01*
X2291338D01*
X2284779Y2645836D01*
X2279218Y2642120D01*
X2277932Y2640196D01*
X2023000D01*
X2019098Y2639420D01*
X2015790Y2637210D01*
X1993790Y2615210D01*
X1991580Y2611902D01*
X1990804Y2608000D01*
Y2599803D01*
X1955196D01*
Y2638777D01*
X2026223Y2709804D01*
X2233000D01*
X2236902Y2710580D01*
X2240210Y2712790D01*
X2272210Y2744790D01*
X2274420Y2748098D01*
X2275196Y2752000D01*
Y2811777D01*
X2305223Y2841804D01*
X2383852D01*
X2385765Y2837185D01*
D02*
G37*
G36*
X2396706Y2460512D02*
Y2234645D01*
X2391706Y2231880D01*
X2391196Y2232200D01*
Y2368000D01*
X2390420Y2371902D01*
X2388210Y2375210D01*
X2376210Y2387210D01*
X2372902Y2389420D01*
X2369000Y2390196D01*
X2367736D01*
X2366450Y2392120D01*
X2360889Y2395836D01*
X2354330Y2397140D01*
X2291338D01*
X2284779Y2395836D01*
X2279218Y2392120D01*
X2275502Y2386559D01*
X2274198Y2380000D01*
X2275502Y2373441D01*
X2279218Y2367880D01*
X2284779Y2364164D01*
X2291338Y2362860D01*
X2354330D01*
X2360889Y2364164D01*
X2366450Y2367880D01*
X2366678Y2367902D01*
X2370804Y2363777D01*
Y2344604D01*
X2368498Y2343288D01*
X2365804Y2342552D01*
X2360889Y2345836D01*
X2354330Y2347140D01*
X2291338D01*
X2284779Y2345836D01*
X2279218Y2342120D01*
X2275502Y2336559D01*
X2274198Y2330000D01*
X2275502Y2323441D01*
X2279218Y2317880D01*
X2284779Y2314164D01*
X2291338Y2312860D01*
X2312638D01*
Y2289056D01*
X2313414Y2285154D01*
X2314543Y2283465D01*
X2312371Y2278465D01*
X2305236D01*
Y2262196D01*
X2298234D01*
X2296617Y2264617D01*
X2290828Y2268485D01*
X2284000Y2269843D01*
X2277172Y2268485D01*
X2271383Y2264617D01*
X2267515Y2258828D01*
X2266157Y2252000D01*
X2267515Y2245172D01*
X2271383Y2239383D01*
X2277172Y2235515D01*
X2284000Y2234157D01*
X2290828Y2235515D01*
X2296617Y2239383D01*
X2298234Y2241804D01*
X2305236D01*
Y2201535D01*
X2358544D01*
Y2210565D01*
X2363544Y2211058D01*
X2364515Y2206172D01*
X2368383Y2200383D01*
X2374172Y2196515D01*
X2381000Y2195157D01*
X2387828Y2196515D01*
X2391706Y2199106D01*
X2396706Y2196692D01*
Y2128000D01*
X2397870Y2122147D01*
X2401186Y2117186D01*
X2459824Y2058547D01*
Y1997716D01*
X2454370D01*
Y1952284D01*
X2456898D01*
X2457399Y1950057D01*
X2452961Y1947010D01*
X2451449Y1948020D01*
X2445274Y1949248D01*
X2439099Y1948020D01*
X2433864Y1944522D01*
X2432533Y1942530D01*
X2426519D01*
X2425188Y1944522D01*
X2419953Y1948020D01*
X2413778Y1949248D01*
X2407603Y1948020D01*
X2402368Y1944522D01*
X2401037Y1942530D01*
X2395023D01*
X2393692Y1944522D01*
X2388457Y1948020D01*
X2382282Y1949248D01*
X2376107Y1948020D01*
X2370872Y1944522D01*
X2369541Y1942530D01*
X2363527D01*
X2362196Y1944522D01*
X2356961Y1948020D01*
X2350786Y1949248D01*
X2344611Y1948020D01*
X2344196Y1947743D01*
X2339196Y1950415D01*
Y2035766D01*
X2341617Y2037383D01*
X2345485Y2043172D01*
X2346843Y2050000D01*
X2345485Y2056828D01*
X2341617Y2062617D01*
X2335828Y2066485D01*
X2329000Y2067843D01*
X2322172Y2066485D01*
X2316383Y2062617D01*
X2312515Y2056828D01*
X2311157Y2050000D01*
X2312515Y2043172D01*
X2316383Y2037383D01*
X2318804Y2035766D01*
Y1872000D01*
X2319580Y1868098D01*
X2321790Y1864790D01*
X2330790Y1855790D01*
X2334098Y1853580D01*
X2338000Y1852804D01*
X2402766D01*
X2404383Y1850383D01*
X2410172Y1846515D01*
X2417000Y1845157D01*
X2423828Y1846515D01*
X2429617Y1850383D01*
X2433485Y1856172D01*
X2434843Y1863000D01*
X2433485Y1869828D01*
X2429617Y1875617D01*
X2429822Y1879653D01*
X2433864Y1880362D01*
X2439099Y1876864D01*
X2445274Y1875636D01*
X2451449Y1876864D01*
X2456476Y1880223D01*
X2457686Y1879980D01*
X2461476Y1878534D01*
Y1818610D01*
X2460285Y1816828D01*
X2458927Y1810000D01*
X2460285Y1803172D01*
X2461476Y1801390D01*
Y1705496D01*
X2462640Y1699643D01*
X2465956Y1694682D01*
X2492972Y1667665D01*
Y1501468D01*
X2489182Y1500022D01*
X2487972Y1499779D01*
X2482945Y1503138D01*
X2476770Y1504366D01*
X2470595Y1503138D01*
X2465360Y1499640D01*
X2464029Y1497648D01*
X2458015D01*
X2456684Y1499640D01*
X2451449Y1503138D01*
X2445274Y1504366D01*
X2439099Y1503138D01*
X2433864Y1499640D01*
X2432533Y1497648D01*
X2426519D01*
X2425188Y1499640D01*
X2419953Y1503138D01*
X2413778Y1504366D01*
X2407603Y1503138D01*
X2402368Y1499640D01*
X2401037Y1497648D01*
X2395023D01*
X2393692Y1499640D01*
X2388457Y1503138D01*
X2382282Y1504366D01*
X2376107Y1503138D01*
X2370872Y1499640D01*
X2369541Y1497648D01*
X2363527D01*
X2362196Y1499640D01*
X2356961Y1503138D01*
X2350786Y1504366D01*
X2344611Y1503138D01*
X2344048Y1502762D01*
X2342531Y1503149D01*
X2339196Y1505533D01*
Y1649504D01*
X2338420Y1653406D01*
X2336210Y1656714D01*
X2327210Y1665714D01*
X2323902Y1667924D01*
X2320000Y1668700D01*
X2318717D01*
X2317906Y1669914D01*
X2315914Y1671245D01*
Y1677259D01*
X2317906Y1678590D01*
X2321404Y1683825D01*
X2322632Y1690000D01*
X2321404Y1696175D01*
X2317906Y1701410D01*
X2315914Y1702741D01*
Y1708755D01*
X2317906Y1710086D01*
X2321404Y1715321D01*
X2322632Y1721496D01*
X2321404Y1727671D01*
X2317906Y1732906D01*
X2315914Y1734237D01*
Y1740251D01*
X2317906Y1741582D01*
X2321404Y1746817D01*
X2322632Y1752992D01*
X2321404Y1759167D01*
X2317906Y1764402D01*
X2315914Y1765733D01*
Y1771747D01*
X2317906Y1773078D01*
X2321404Y1778313D01*
X2322632Y1784488D01*
X2321404Y1790663D01*
X2317906Y1795898D01*
X2315914Y1797229D01*
Y1803243D01*
X2317906Y1804574D01*
X2321404Y1809809D01*
X2322632Y1815984D01*
X2321404Y1822159D01*
X2317906Y1827394D01*
X2315914Y1828725D01*
Y1834739D01*
X2317906Y1836070D01*
X2321404Y1841305D01*
X2322632Y1847480D01*
X2321404Y1853655D01*
X2317906Y1858890D01*
X2312671Y1862389D01*
X2306495Y1863617D01*
X2265157D01*
X2259196Y1862431D01*
X2258310Y1862356D01*
X2254196Y1864961D01*
Y1947777D01*
X2265223Y1958804D01*
X2277766D01*
X2279383Y1956383D01*
X2285172Y1952515D01*
X2292000Y1951157D01*
X2298828Y1952515D01*
X2304617Y1956383D01*
X2308485Y1962172D01*
X2309843Y1969000D01*
X2308485Y1975828D01*
X2304617Y1981617D01*
X2298828Y1985485D01*
X2292000Y1986843D01*
X2285172Y1985485D01*
X2279383Y1981617D01*
X2277766Y1979196D01*
X2261000D01*
X2257098Y1978420D01*
X2253790Y1976210D01*
X2236790Y1959210D01*
X2234580Y1955902D01*
X2233804Y1952000D01*
Y1784488D01*
X2234580Y1780586D01*
X2236790Y1777278D01*
X2240098Y1775068D01*
X2244000Y1774292D01*
X2252935D01*
X2253746Y1773078D01*
X2255738Y1771747D01*
Y1767027D01*
X2251792Y1763188D01*
X2043231D01*
X2010196Y1796223D01*
Y1888000D01*
X2009420Y1891902D01*
X2007210Y1895210D01*
X1975210Y1927210D01*
X1971902Y1929420D01*
X1968000Y1930196D01*
X1849000D01*
X1845098Y1929420D01*
X1841790Y1927210D01*
X1817000Y1902419D01*
X1808210Y1911210D01*
X1804902Y1913420D01*
X1801000Y1914196D01*
X1667234D01*
X1665617Y1916617D01*
X1659828Y1920485D01*
X1653000Y1921843D01*
X1646172Y1920485D01*
X1640383Y1916617D01*
X1636515Y1910828D01*
X1635157Y1904000D01*
X1636515Y1897172D01*
X1640383Y1891383D01*
X1646172Y1887515D01*
X1653000Y1886157D01*
X1659828Y1887515D01*
X1665617Y1891383D01*
X1667234Y1893804D01*
X1796777D01*
X1806804Y1883777D01*
Y1875786D01*
X1767442D01*
Y1863266D01*
X1684056D01*
Y1875786D01*
X1642560D01*
Y1830353D01*
X1672192D01*
X1674105Y1825734D01*
X1670335Y1821964D01*
X1664000D01*
X1658147Y1820800D01*
X1653186Y1817484D01*
X1635186Y1799484D01*
X1634196Y1798003D01*
X1629196Y1799520D01*
Y1824000D01*
X1628927Y1825353D01*
X1628938Y1830353D01*
X1628938Y1830354D01*
X1628938Y1830354D01*
Y1875786D01*
X1587442D01*
Y1830353D01*
X1599141D01*
X1600980Y1827600D01*
X1608804Y1819777D01*
Y1805358D01*
X1604185Y1803444D01*
X1577294Y1830335D01*
Y2167384D01*
X1580959Y2170271D01*
X1582074Y2170354D01*
X1610746D01*
X1611790Y2168790D01*
X1624790Y2155790D01*
X1628098Y2153580D01*
X1632000Y2152804D01*
X1805000D01*
X1808902Y2153580D01*
X1812210Y2155790D01*
X1857210Y2200790D01*
X1859420Y2204098D01*
X1859909Y2206555D01*
X1860196Y2208000D01*
X1860196Y2208005D01*
X1860434Y2211338D01*
X1928706D01*
Y2022335D01*
X1899019Y1992648D01*
X1893172Y1991485D01*
X1887383Y1987617D01*
X1883515Y1981828D01*
X1882157Y1975000D01*
X1883515Y1968172D01*
X1885504Y1965196D01*
X1882831Y1960196D01*
X1672234D01*
X1670617Y1962617D01*
X1664828Y1966485D01*
X1658000Y1967843D01*
X1651172Y1966485D01*
X1645383Y1962617D01*
X1641515Y1956828D01*
X1640157Y1950000D01*
X1641515Y1943172D01*
X1645383Y1937383D01*
X1651172Y1933515D01*
X1658000Y1932157D01*
X1664828Y1933515D01*
X1670617Y1937383D01*
X1672234Y1939804D01*
X1949780D01*
X1953682Y1940580D01*
X1956990Y1942790D01*
X1990990Y1976790D01*
X1993200Y1980098D01*
X1993976Y1984000D01*
Y2174606D01*
X2010433D01*
Y2174605D01*
X2014804Y2173086D01*
Y1891900D01*
X2015580Y1887998D01*
X2017790Y1884690D01*
X2046327Y1856154D01*
X2044413Y1851534D01*
X2042246D01*
Y1774605D01*
X2095553D01*
Y1851534D01*
X2078393D01*
X2078320Y1851902D01*
X2076110Y1855210D01*
X2035196Y1896123D01*
Y2266192D01*
X2034420Y2270094D01*
X2032210Y2273402D01*
X1930205Y2375407D01*
X1932106Y2380576D01*
X1936828Y2381515D01*
X1942617Y2385383D01*
X1946485Y2391172D01*
X1947843Y2398000D01*
X1946485Y2404828D01*
X1942617Y2410617D01*
X1940196Y2412234D01*
Y2423852D01*
X1944815Y2425765D01*
X1960790Y2409790D01*
X1964098Y2407580D01*
X1968000Y2406804D01*
X2011777D01*
X2044804Y2373777D01*
Y2035000D01*
X2045580Y2031098D01*
X2047790Y2027790D01*
X2057725Y2017856D01*
X2057157Y2015000D01*
X2058515Y2008172D01*
X2062383Y2002383D01*
X2068172Y1998515D01*
X2075000Y1997157D01*
X2081828Y1998515D01*
X2087617Y2002383D01*
X2091485Y2008172D01*
X2092843Y2015000D01*
X2091485Y2021828D01*
X2087617Y2027617D01*
X2081828Y2031485D01*
X2075000Y2032843D01*
X2072144Y2032275D01*
X2065196Y2039223D01*
Y2333978D01*
X2070196Y2334470D01*
X2070580Y2332538D01*
X2072790Y2329230D01*
X2136790Y2265230D01*
X2140098Y2263020D01*
X2142874Y2262468D01*
Y2251692D01*
X2188307D01*
Y2293188D01*
X2142874D01*
Y2293188D01*
X2139195Y2291664D01*
X2090196Y2340663D01*
Y2412000D01*
X2089420Y2415902D01*
X2087210Y2419210D01*
X2055210Y2451210D01*
X2054544Y2451654D01*
X2056061Y2456654D01*
X2083927D01*
X2147790Y2392790D01*
X2150434Y2391024D01*
Y2377284D01*
X2160986D01*
Y2369815D01*
X2158380Y2367210D01*
X2156170Y2363902D01*
X2155394Y2360000D01*
Y2348308D01*
X2142874D01*
Y2306812D01*
X2188307D01*
Y2348308D01*
X2175786D01*
Y2355777D01*
X2178392Y2358382D01*
X2180602Y2361690D01*
X2181378Y2365592D01*
Y2377284D01*
X2191930D01*
Y2394580D01*
X2196930Y2396651D01*
X2200790Y2392790D01*
X2204098Y2390580D01*
X2205552Y2390291D01*
Y2377284D01*
X2247048D01*
Y2389804D01*
X2259000D01*
X2262902Y2390580D01*
X2266210Y2392790D01*
X2287118Y2413699D01*
X2291338Y2412860D01*
X2354330D01*
X2360889Y2414164D01*
X2366450Y2417880D01*
X2370166Y2423441D01*
X2371470Y2430000D01*
X2370166Y2436559D01*
X2366450Y2442120D01*
X2360889Y2445836D01*
X2354330Y2447140D01*
X2291338D01*
X2284779Y2445836D01*
X2279218Y2442120D01*
X2275502Y2436559D01*
X2274198Y2430000D01*
X2274261Y2429680D01*
X2254777Y2410196D01*
X2247048D01*
Y2422716D01*
X2210196D01*
Y2437284D01*
X2247048D01*
Y2440257D01*
X2248777Y2441623D01*
X2252048Y2443341D01*
X2258000Y2442157D01*
X2264828Y2443515D01*
X2267717Y2445445D01*
X2269853Y2445870D01*
X2274814Y2449186D01*
X2288961Y2463332D01*
X2291338Y2462860D01*
X2354330D01*
X2360889Y2464164D01*
X2361700Y2464706D01*
X2392518D01*
X2396706Y2460512D01*
D02*
G37*
G36*
X1484720Y1885860D02*
X1488028Y1883650D01*
X1491930Y1882874D01*
X1494687D01*
Y1854605D01*
X1546706D01*
Y1824000D01*
X1547870Y1818147D01*
X1551186Y1813186D01*
X1580591Y1783780D01*
X1580379Y1783122D01*
X1577899Y1778906D01*
X1571340Y1780210D01*
X1508348D01*
X1501789Y1778906D01*
X1496228Y1775190D01*
X1494942Y1773266D01*
X1391796D01*
X1390927Y1774566D01*
X1393600Y1779566D01*
X1454215D01*
Y1796024D01*
X1456220D01*
X1460122Y1796800D01*
X1463430Y1799010D01*
X1481210Y1816790D01*
X1483420Y1820098D01*
X1484196Y1824000D01*
Y1829766D01*
X1486617Y1831383D01*
X1490485Y1837172D01*
X1491843Y1844000D01*
X1490485Y1850828D01*
X1486617Y1856617D01*
X1480828Y1860485D01*
X1474000Y1861843D01*
X1467172Y1860485D01*
X1461383Y1856617D01*
X1457515Y1850828D01*
X1456157Y1844000D01*
X1457515Y1837172D01*
X1461383Y1831383D01*
X1461231Y1827389D01*
X1459215Y1825899D01*
X1454215Y1828421D01*
Y1832873D01*
X1382196D01*
Y1840000D01*
X1381420Y1843902D01*
X1379210Y1847210D01*
X1358210Y1868210D01*
X1354902Y1870420D01*
X1351000Y1871196D01*
X1297000D01*
X1293098Y1870420D01*
X1289790Y1868210D01*
X1287580Y1864902D01*
X1286804Y1861000D01*
Y1568000D01*
X1287580Y1564098D01*
X1289790Y1560790D01*
X1325790Y1524790D01*
X1329098Y1522580D01*
X1333000Y1521804D01*
X1413650D01*
X1414921Y1519856D01*
X1415840Y1516804D01*
X1412515Y1511828D01*
X1411157Y1505000D01*
X1412515Y1498172D01*
X1416383Y1492383D01*
X1422172Y1488515D01*
X1429000Y1487157D01*
X1435828Y1488515D01*
X1441617Y1492383D01*
X1443234Y1494804D01*
X1456777D01*
X1467804Y1483777D01*
Y1472000D01*
X1468052Y1470753D01*
X1468119Y1469485D01*
X1468437Y1468820D01*
X1468580Y1468098D01*
X1469286Y1467041D01*
X1469834Y1465895D01*
X1470381Y1465403D01*
X1470790Y1464790D01*
X1471847Y1464084D01*
X1472792Y1463235D01*
X1473486Y1462989D01*
X1474098Y1462580D01*
X1475345Y1462332D01*
X1476543Y1461909D01*
X1491879Y1459694D01*
X1492512Y1456511D01*
X1496228Y1450950D01*
X1501789Y1447234D01*
X1508348Y1445930D01*
X1539439D01*
X1541511Y1440930D01*
X1525759Y1425179D01*
X1523902Y1426420D01*
X1520000Y1427196D01*
X1119223D01*
X1070196Y1476223D01*
Y1858982D01*
X1076420Y1861560D01*
X1083221Y1866779D01*
X1088440Y1873580D01*
X1091721Y1881500D01*
X1092840Y1890000D01*
X1091721Y1898500D01*
X1088440Y1906420D01*
X1083542Y1912804D01*
X1084174Y1916029D01*
X1084777Y1917804D01*
X1115223D01*
X1115826Y1916029D01*
X1116458Y1912804D01*
X1111560Y1906420D01*
X1108279Y1898500D01*
X1107160Y1890000D01*
X1108279Y1881500D01*
X1111560Y1873580D01*
X1116779Y1866779D01*
X1123580Y1861560D01*
X1131500Y1858279D01*
X1140000Y1857160D01*
X1148500Y1858279D01*
X1156420Y1861560D01*
X1163221Y1866779D01*
X1168440Y1873580D01*
X1171018Y1879804D01*
X1252000D01*
X1255902Y1880580D01*
X1259210Y1882790D01*
X1307223Y1930804D01*
X1439777D01*
X1484720Y1885860D01*
D02*
G37*
G36*
X2188765Y2615185D02*
X2172790Y2599210D01*
X2170580Y2595902D01*
X2169804Y2592000D01*
Y2500000D01*
X2170580Y2496098D01*
X2172790Y2492790D01*
X2189804Y2475777D01*
Y2422716D01*
X2150434D01*
Y2422717D01*
X2147796Y2421624D01*
X2095360Y2474060D01*
X2092052Y2476270D01*
X2088150Y2477046D01*
X2027205D01*
Y2493503D01*
X1955196D01*
Y2546497D01*
X2027205D01*
Y2599803D01*
X2013675D01*
X2012223Y2604803D01*
X2027223Y2619804D01*
X2186852D01*
X2188765Y2615185D01*
D02*
G37*
%LPC*%
G36*
X2629890Y2816196D02*
X2493890D01*
X2489988Y2815420D01*
X2486680Y2813210D01*
X2464680Y2791210D01*
X2462470Y2787902D01*
X2461694Y2784000D01*
Y2758465D01*
X2445236D01*
Y2681535D01*
X2498544D01*
Y2758465D01*
X2482086D01*
Y2779777D01*
X2498113Y2795804D01*
X2625667D01*
X2641694Y2779777D01*
Y2758465D01*
X2625236D01*
Y2689086D01*
X2603890D01*
X2599988Y2688310D01*
X2596680Y2686100D01*
X2568790Y2658210D01*
X2566580Y2654902D01*
X2565804Y2651000D01*
Y2600223D01*
X2557497Y2591916D01*
X2555428Y2592120D01*
X2549867Y2595836D01*
X2543308Y2597140D01*
X2480316D01*
X2473757Y2595836D01*
X2468196Y2592120D01*
X2464480Y2586559D01*
X2463176Y2580000D01*
X2464480Y2573441D01*
X2468196Y2567880D01*
X2473757Y2564164D01*
X2480316Y2562860D01*
X2543308D01*
X2549867Y2564164D01*
X2555428Y2567880D01*
X2556714Y2569804D01*
X2560000D01*
X2563902Y2570580D01*
X2567210Y2572790D01*
X2583210Y2588790D01*
X2585420Y2592098D01*
X2586196Y2596000D01*
Y2646777D01*
X2608113Y2668694D01*
X2651890D01*
X2655792Y2669470D01*
X2659100Y2671680D01*
X2661310Y2674988D01*
X2662086Y2678890D01*
Y2681535D01*
X2678544D01*
Y2758465D01*
X2662086D01*
Y2784000D01*
X2661310Y2787902D01*
X2659100Y2791210D01*
X2637100Y2813210D01*
X2633792Y2815420D01*
X2629890Y2816196D01*
D02*
G37*
G36*
X1174527Y1714527D02*
X1105473D01*
Y1645473D01*
X1174527D01*
Y1714527D01*
D02*
G37*
%LPD*%
D10*
X2322834Y2630000D02*
D03*
Y2580000D02*
D03*
Y2530000D02*
D03*
Y2480000D02*
D03*
Y2430000D02*
D03*
Y2380000D02*
D03*
Y2330000D02*
D03*
X2511812Y2630000D02*
D03*
Y2580000D02*
D03*
Y2530000D02*
D03*
Y2480000D02*
D03*
Y2430000D02*
D03*
Y2380000D02*
D03*
Y2330000D02*
D03*
X1481024Y2603070D02*
D03*
Y2553070D02*
D03*
Y2503070D02*
D03*
Y2453070D02*
D03*
Y2403070D02*
D03*
Y2353070D02*
D03*
Y2303070D02*
D03*
X1670000Y2603070D02*
D03*
Y2553070D02*
D03*
Y2503070D02*
D03*
Y2453070D02*
D03*
Y2403070D02*
D03*
Y2353070D02*
D03*
Y2303070D02*
D03*
X1539844Y1763070D02*
D03*
Y1713070D02*
D03*
Y1663070D02*
D03*
Y1613070D02*
D03*
Y1563070D02*
D03*
Y1513070D02*
D03*
Y1463070D02*
D03*
X1728820Y1763070D02*
D03*
Y1713070D02*
D03*
Y1663070D02*
D03*
Y1613070D02*
D03*
Y1563070D02*
D03*
Y1513070D02*
D03*
Y1463070D02*
D03*
D11*
X2274408Y1390000D02*
D03*
X2380708D02*
D03*
X2365590Y2720000D02*
D03*
X2471890D02*
D03*
X2211890Y2540000D02*
D03*
X2105590D02*
D03*
X2331890Y2240000D02*
D03*
X2225590D02*
D03*
X2651890Y2720000D02*
D03*
X2545590D02*
D03*
X2724960Y2620000D02*
D03*
X2618662D02*
D03*
X1523780Y2693070D02*
D03*
X1630080D02*
D03*
X1810080D02*
D03*
X1703780D02*
D03*
X1983780Y2213070D02*
D03*
X2090080D02*
D03*
X1883150Y2593070D02*
D03*
X1776850D02*
D03*
X1490080Y2213070D02*
D03*
X1383780D02*
D03*
X1370080Y2513070D02*
D03*
X1263780D02*
D03*
X1962600Y1813070D02*
D03*
X2068900D02*
D03*
X1822600Y1693070D02*
D03*
X1928900D02*
D03*
X1649450Y1393070D02*
D03*
X1755750D02*
D03*
X1521340Y1893070D02*
D03*
X1415040D02*
D03*
X1955750Y1413070D02*
D03*
X1849450D02*
D03*
X1528900Y1373070D02*
D03*
X1422600D02*
D03*
D12*
X2730708Y1847480D02*
D03*
Y1815984D02*
D03*
Y1784488D02*
D03*
Y1752992D02*
D03*
Y1721496D02*
D03*
Y1690000D02*
D03*
Y1658504D02*
D03*
Y1627008D02*
D03*
Y1595512D02*
D03*
Y1564016D02*
D03*
Y1532520D02*
D03*
X2285826D02*
D03*
Y1564016D02*
D03*
Y1595512D02*
D03*
Y1627008D02*
D03*
Y1658504D02*
D03*
Y1690000D02*
D03*
Y1721496D02*
D03*
Y1752992D02*
D03*
Y1784488D02*
D03*
Y1815984D02*
D03*
Y1847480D02*
D03*
D13*
X2665748Y1467560D02*
D03*
X2634250D02*
D03*
X2602754D02*
D03*
X2571258D02*
D03*
X2539762D02*
D03*
X2508266D02*
D03*
X2476770D02*
D03*
X2445274D02*
D03*
X2413778D02*
D03*
X2382282D02*
D03*
X2350786D02*
D03*
Y1912442D02*
D03*
X2382282D02*
D03*
X2413778D02*
D03*
X2445274D02*
D03*
X2476770D02*
D03*
X2508266D02*
D03*
X2539762D02*
D03*
X2571258D02*
D03*
X2602754D02*
D03*
X2634250D02*
D03*
X2665748D02*
D03*
D14*
X1896930Y2233070D02*
D03*
X1763072D02*
D03*
X2738740Y2260000D02*
D03*
X2604882D02*
D03*
X1861892Y1513070D02*
D03*
X1995750D02*
D03*
D15*
X1850000Y2480000D02*
D03*
Y2346140D02*
D03*
X2691812Y2506930D02*
D03*
Y2373070D02*
D03*
D16*
X2226300Y2460000D02*
D03*
X2171182D02*
D03*
Y2400000D02*
D03*
X2226300D02*
D03*
X2542676Y1390000D02*
D03*
X2487558D02*
D03*
X2498740Y2220000D02*
D03*
X2443622D02*
D03*
X1384488Y2433070D02*
D03*
X1329370D02*
D03*
X1656930Y2193070D02*
D03*
X1601812D02*
D03*
X1329370Y2373070D02*
D03*
X1384488D02*
D03*
X1268190Y1833070D02*
D03*
X1323308D02*
D03*
X1848190Y1773070D02*
D03*
X1903308D02*
D03*
X1788190Y1853070D02*
D03*
X1843308D02*
D03*
X1608190D02*
D03*
X1663308D02*
D03*
X1388190Y1633070D02*
D03*
X1443308D02*
D03*
X1970158Y1613070D02*
D03*
X1915040D02*
D03*
X1815042D02*
D03*
X1870160D02*
D03*
X2475118Y1975000D02*
D03*
X2420000D02*
D03*
D17*
X2165590Y2272440D02*
D03*
Y2327560D02*
D03*
X2598740Y2492440D02*
D03*
Y2547560D02*
D03*
X1323780Y2245512D02*
D03*
Y2300630D02*
D03*
X1756930Y2465512D02*
D03*
Y2520630D02*
D03*
D18*
X2840000Y2253150D02*
D03*
Y2146850D02*
D03*
X1988740Y2466850D02*
D03*
Y2573150D02*
D03*
X1196930Y2259920D02*
D03*
Y2366220D02*
D03*
X1428820Y1459920D02*
D03*
Y1566220D02*
D03*
X2055750Y1706220D02*
D03*
Y1599920D02*
D03*
X1415750Y1699920D02*
D03*
Y1806220D02*
D03*
D19*
X1694000Y1824000D02*
Y1830000D01*
X2054000Y1323000D02*
X2359708D01*
X2380708Y1344000D01*
X1903000Y1975000D02*
X1944000Y2016000D01*
X1900000Y1975000D02*
X1903000D01*
X2258000Y2460000D02*
X2264000D01*
X2476770Y1705496D02*
Y1810000D01*
X1528402Y2453070D02*
X1530622D01*
X1815000Y2393000D02*
X1872734D01*
X1792000D02*
X1815000D01*
X1501000Y1613070D02*
X1539844D01*
X1481000Y1633070D02*
X1501000Y1613070D01*
X1443308Y1633070D02*
X1481000D01*
X1530000Y2202000D02*
X1551692Y2223692D01*
Y2432000D01*
X1530622Y2453070D02*
X1551692Y2432000D01*
X1481024Y2453070D02*
X1528402D01*
X1539332Y2464000D01*
Y2618550D01*
X1528000Y2629882D02*
X1539332Y2618550D01*
X1504000Y2629882D02*
X1528000D01*
X1465000Y2668882D02*
X1504000Y2629882D01*
X1465000Y2668882D02*
Y2708000D01*
X1539844Y1613070D02*
X1584070D01*
X1595000Y1624000D01*
Y1639070D01*
X1599000Y1643070D01*
Y1787000D01*
X1562000Y1824000D02*
X1599000Y1787000D01*
X1562000Y1824000D02*
Y2170000D01*
X1530000Y2202000D02*
X1562000Y2170000D01*
X1442000Y2453070D02*
X1481024D01*
X1422000Y2433070D02*
X1442000Y2453070D01*
X1384488Y2433070D02*
X1422000D01*
X2226300Y2460000D02*
X2258000D01*
X2322834Y2480000D02*
X2402512D01*
X2417000Y2465512D01*
X2284000Y2480000D02*
X2322834D01*
X2264000Y2460000D02*
X2284000Y2480000D01*
X2380708Y1344000D02*
Y1390000D01*
X2487558Y1280442D02*
Y1390000D01*
Y1280442D02*
X2520000Y1248000D01*
Y1140000D02*
Y1248000D01*
X2380708Y1390000D02*
X2487558D01*
X2508266Y1438708D02*
Y1467560D01*
X2487558Y1418000D02*
X2508266Y1438708D01*
X2487558Y1390000D02*
Y1418000D01*
X2412000Y2460512D02*
X2417000Y2465512D01*
X2412000Y2128000D02*
Y2460512D01*
Y2128000D02*
X2475118Y2064882D01*
Y1975000D02*
Y2064882D01*
X2508266Y1467560D02*
Y1674000D01*
X2476770Y1705496D02*
X2508266Y1674000D01*
X2476770Y1810000D02*
Y1912442D01*
X2475118Y1943652D02*
Y1975000D01*
Y1943652D02*
X2476770Y1942000D01*
Y1912442D02*
Y1942000D01*
X1694000Y1830000D02*
X1697000D01*
X1676670Y1806670D02*
X1694000Y1824000D01*
X1664000Y1806670D02*
X1676670D01*
X1646000Y1788670D02*
X1664000Y1806670D01*
X1646000Y1760000D02*
Y1788670D01*
X1944000Y2016000D02*
Y2276000D01*
X1881734Y2338266D02*
X1944000Y2276000D01*
X1881734Y2338266D02*
Y2384000D01*
X1872734Y2393000D02*
X1881734Y2384000D01*
X1756930Y2428070D02*
X1792000Y2393000D01*
X1756930Y2428070D02*
Y2465512D01*
X1607000Y2453070D02*
X1670000D01*
X1719442Y2465512D02*
X1756930D01*
X1707000Y2453070D02*
X1719442Y2465512D01*
X1670000Y2453070D02*
X1707000D01*
X1815000Y2355000D02*
Y2393000D01*
X1756930Y2428070D02*
X1815000Y2393000D01*
X2561440Y2492440D02*
X2598740D01*
X2549000Y2480000D02*
X2561440Y2492440D01*
X2511812Y2480000D02*
X2549000D01*
X2598740Y2492440D02*
X2643440D01*
X2656000Y2505000D01*
D20*
X2511812Y2430000D02*
X2660000D01*
X2284000Y2252000D02*
X2331890D01*
X2044000Y2440000D02*
X2048000Y2444000D01*
X2040000Y2440000D02*
X2044000D01*
X2048000Y2444000D02*
X2080000Y2412000D01*
X1455000Y1320000D02*
Y1356000D01*
X1311000Y1320000D02*
X1455000D01*
X1262000Y1369000D02*
X1311000Y1320000D01*
X1558396Y1305000D02*
X1617794Y1364398D01*
X1289604Y1305000D02*
X1558396D01*
X1194604Y1400000D02*
X1289604Y1305000D01*
X2160000Y1405000D02*
Y1645000D01*
X2135000Y1380000D02*
X2160000Y1405000D01*
X2030000Y1380000D02*
X2135000D01*
X2001500Y1351500D02*
X2030000Y1380000D01*
X2001500Y1216000D02*
Y1351500D01*
X2160000Y1645000D02*
X2236496Y1721496D01*
X2285826D01*
X2180000Y1400000D02*
Y1640000D01*
X2230000Y1690000D01*
X2285826D01*
X2145000Y1365000D02*
X2180000Y1400000D01*
X2037500Y1365000D02*
X2145000D01*
X2016000Y2417000D02*
X2055000Y2378000D01*
Y2035000D02*
Y2378000D01*
Y2035000D02*
X2075000Y2015000D01*
X1901734Y2389458D02*
X2025000Y2266192D01*
Y1891900D02*
Y2266192D01*
Y1891900D02*
X2068900Y1848000D01*
X2001000Y2573150D02*
Y2608000D01*
X2200000Y2408000D02*
Y2480000D01*
X2180000Y2500000D02*
X2200000Y2480000D01*
X2180000Y2500000D02*
Y2592000D01*
X2208000Y2400000D02*
X2226300D01*
X2665748Y1913000D02*
X2816000D01*
X1528900Y1408100D02*
Y1413900D01*
Y1373070D02*
Y1408100D01*
X2683960Y2582960D02*
X2724960D01*
X1850000Y2312930D02*
Y2346140D01*
Y2312000D02*
Y2312930D01*
Y2208000D02*
Y2312000D01*
X1619000Y2176000D02*
Y2193070D01*
X2738000Y2048000D02*
Y2260000D01*
X1663308Y1853070D02*
X1760000D01*
X1450000Y2553070D02*
Y2567000D01*
X1447000Y2403070D02*
X1481024D01*
X1356000D02*
X1447000D01*
X1294070D02*
X1356000D01*
Y2457000D01*
Y2384000D02*
Y2403070D01*
X2023000Y2630000D02*
X2218000D01*
X1465000Y2112000D02*
Y2303070D01*
X2331890Y2252000D02*
Y2280000D01*
Y2240000D02*
Y2252000D01*
X2044000Y1599920D02*
X2055750D01*
X2010568D02*
X2044000D01*
Y1487000D02*
Y1599920D01*
X1955750Y1448000D02*
X2005000D01*
X1955750Y1416000D02*
Y1448000D01*
X1870160Y1603000D02*
X1889290D01*
X1793000Y1773070D02*
X1827930D01*
X1323780Y2265000D02*
X1367000D01*
X1930000Y2398000D02*
Y2720000D01*
X1977000Y2767000D01*
X2094410D01*
X2068900Y1813070D02*
Y1848000D01*
X1901734Y2389458D02*
Y2400000D01*
X1888734Y2413000D02*
X1901734Y2400000D01*
X1854000Y2413000D02*
X1888734D01*
X1803000Y2464000D02*
X1854000Y2413000D01*
X1803000Y2464000D02*
Y2482000D01*
X1792000Y2493000D02*
X1803000Y2482000D01*
X1736000Y2493000D02*
X1792000D01*
X1726000Y2503000D02*
X1736000Y2493000D01*
X1726000Y2503000D02*
Y2512000D01*
X1707000Y2531000D02*
X1726000Y2512000D01*
X1624000Y2531000D02*
X1707000D01*
X1616000Y2539000D02*
X1624000Y2531000D01*
X1616000Y2539000D02*
Y2595070D01*
X1624000Y2603070D01*
X1670000D01*
X1703780Y2664780D02*
Y2693070D01*
X1670000Y2631000D02*
X1703780Y2664780D01*
X1670000Y2603070D02*
Y2631000D01*
X2464000Y2630000D02*
X2511812D01*
X2443000Y2609000D02*
X2464000Y2630000D01*
X2443000Y2272000D02*
Y2609000D01*
Y2272000D02*
X2470000Y2245000D01*
Y2157000D02*
Y2245000D01*
Y2157000D02*
X2475000D01*
X2520000Y2112000D01*
Y2026000D02*
Y2112000D01*
X2545590Y2691778D02*
Y2720000D01*
X2511812Y2658000D02*
X2545590Y2691778D01*
X2511812Y2630000D02*
Y2658000D01*
X1649450Y1352000D02*
Y1393070D01*
Y1352000D02*
X1657450Y1344000D01*
X1780000D01*
X1788000Y1352000D01*
Y1451070D01*
X1776000Y1463070D02*
X1788000Y1451070D01*
X1728820Y1463070D02*
X1776000D01*
X1520000Y1417000D02*
X1528900Y1408100D01*
X1115000Y1417000D02*
X1520000D01*
X1060000Y1472000D02*
X1115000Y1417000D01*
X1060000Y1472000D02*
Y1890000D01*
X1539844Y1513070D02*
X1584000D01*
X1602794Y1494276D01*
Y1455794D02*
Y1494276D01*
X1584000Y1437000D02*
X1602794Y1455794D01*
X1552000Y1437000D02*
X1584000D01*
X1528900Y1413900D02*
X1552000Y1437000D01*
X1669528Y1713070D02*
X1728820D01*
X1652458Y1696000D02*
X1669528Y1713070D01*
X1652458Y1600528D02*
Y1696000D01*
X1645000Y1593070D02*
X1652458Y1600528D01*
X1645000Y1487206D02*
Y1593070D01*
X1617794Y1460000D02*
X1645000Y1487206D01*
X1617794Y1364398D02*
Y1460000D01*
X1040000Y1400000D02*
X1194604D01*
X1022000Y1418000D02*
X1040000Y1400000D01*
X1022000Y1418000D02*
Y1910000D01*
X1040000Y1928000D01*
X1132000D01*
X1140000Y1920000D01*
Y1890000D02*
Y1920000D01*
X1491930Y1893070D02*
X1521340D01*
X1444000Y1941000D02*
X1491930Y1893070D01*
X1303000Y1941000D02*
X1444000D01*
X1252000Y1890000D02*
X1303000Y1941000D01*
X1140000Y1890000D02*
X1252000D01*
X1430000Y2503070D02*
X1481024D01*
X1420000Y2513070D02*
X1430000Y2503070D01*
X1370080Y2513070D02*
X1420000D01*
X2272000Y2530000D02*
X2322834D01*
X2262000Y2540000D02*
X2272000Y2530000D01*
X2211890Y2540000D02*
X2262000D01*
X1658000Y1950000D02*
X1949780D01*
X1983780Y1984000D01*
Y2213070D01*
X1436070Y2353070D02*
X1481024D01*
X1427000Y2344000D02*
X1436070Y2353070D01*
X1427000Y2170000D02*
Y2344000D01*
X1376000Y2119000D02*
X1427000Y2170000D01*
X1152000Y2119000D02*
X1376000D01*
X1100000Y2171000D02*
X1152000Y2119000D01*
X1100000Y2171000D02*
Y2360000D01*
X1090000Y2370000D02*
X1100000Y2360000D01*
X1060000Y2370000D02*
X1090000D01*
X2322834Y2380000D02*
X2369000D01*
X2381000Y2368000D01*
Y2213000D02*
Y2368000D01*
X2820000Y2301000D02*
Y2330000D01*
Y2301000D02*
X2840000Y2281000D01*
Y2253150D02*
Y2281000D01*
X1810080Y2549000D02*
Y2693070D01*
X1727000Y2549000D02*
X1810080D01*
X1722930Y2553070D02*
X1727000Y2549000D01*
X1670000Y2553070D02*
X1722930D01*
X1630080Y2693070D02*
Y2729080D01*
X1648000Y2747000D01*
X1792000D01*
X1810080Y2728920D01*
Y2693070D02*
Y2728920D01*
X2511812Y2580000D02*
X2560000D01*
X2576000Y2596000D01*
Y2651000D01*
X2603890Y2678890D01*
X2651890D01*
Y2720000D01*
X2471890D02*
Y2784000D01*
X2493890Y2806000D01*
X2629890D01*
X2651890Y2784000D01*
Y2720000D02*
Y2784000D01*
X2220000Y1140000D02*
Y1176000D01*
X2033500Y1184000D02*
X2220000Y1176000D01*
X2001500Y1216000D02*
X2033500Y1184000D01*
X2016500Y1344000D02*
X2037500Y1365000D01*
X2016500Y1248000D02*
Y1344000D01*
Y1248000D02*
X2047500Y1217000D01*
X2287000D01*
X2320000Y1184000D01*
Y1140000D02*
Y1184000D01*
X2828000Y1600000D02*
X2860000D01*
X2820000Y1608000D02*
X2828000Y1600000D01*
X2820000Y1608000D02*
Y1811480D01*
X2784000Y1847480D02*
X2820000Y1811480D01*
X2730708Y1847480D02*
X2784000D01*
X2665748Y1912442D02*
Y1913000D01*
X2816000D02*
X2860000Y1869000D01*
Y1800000D02*
Y1869000D01*
X1931572Y1513070D02*
X1995750D01*
X1859642Y1585000D02*
X1931572Y1513070D01*
X1669000Y1585000D02*
X1859642D01*
X1660000Y1576000D02*
X1669000Y1585000D01*
X1660000Y1461000D02*
Y1576000D01*
Y1461000D02*
X1689000Y1432000D01*
X1755750D01*
Y1393070D02*
Y1432000D01*
X1883150Y2593070D02*
Y2720000D01*
X1829150Y2774000D02*
X1883150Y2720000D01*
X1632000Y2774000D02*
X1829150D01*
X1598000Y2740000D02*
X1632000Y2774000D01*
X1598000Y2521070D02*
Y2740000D01*
Y2521070D02*
X1616000Y2503070D01*
X1670000D01*
X1883150Y2552150D02*
Y2593070D01*
X1850000Y2519000D02*
X1883150Y2552150D01*
X1850000Y2480000D02*
Y2519000D01*
X2511812Y2530000D02*
X2560000D01*
X2569000Y2521000D01*
X2622000D01*
X2683960Y2582960D01*
X2724960D02*
Y2620000D01*
X2691812Y2546000D02*
X2724960Y2582960D01*
X2691812Y2506930D02*
Y2546000D01*
X1415750Y1806220D02*
X1456220D01*
X1474000Y1824000D01*
Y1844000D01*
X1903000Y1830070D02*
Y1863000D01*
X1920000Y1813070D02*
X1962600D01*
X1903000Y1830070D02*
X1920000Y1813070D01*
X1882000Y1853070D02*
X1903000Y1830070D01*
X1843308Y1853070D02*
X1882000D01*
X1968000Y2417000D02*
X2016000D01*
X1945000Y2440000D02*
X1968000Y2417000D01*
X1945000Y2440000D02*
Y2643000D01*
X2022000Y2720000D01*
X2233000D01*
X2265000Y2752000D01*
Y2816000D01*
X2301000Y2852000D01*
X2745000D01*
X2781000Y2816000D01*
Y2123000D02*
Y2816000D01*
X1376000Y1699920D02*
X1415750D01*
X1323308Y1752612D02*
X1376000Y1699920D01*
X1323308Y1752612D02*
Y1833070D01*
X1495850Y1663070D02*
X1539844D01*
X1459000Y1699920D02*
X1495850Y1663070D01*
X1415750Y1699920D02*
X1459000D01*
X1998150Y1706220D02*
X2055750D01*
X1985000Y1693070D02*
X1998150Y1706220D01*
X1928900Y1693070D02*
X1985000D01*
X1903308Y1745592D02*
Y1773070D01*
Y1745592D02*
X1928900Y1720000D01*
Y1693070D02*
Y1720000D01*
X1822600Y1655400D02*
Y1693070D01*
Y1655400D02*
X1832000Y1646000D01*
X1904000D01*
X1915040Y1634960D01*
Y1613070D02*
Y1634960D01*
X1790000Y1693070D02*
X1822600D01*
X1760000Y1663070D02*
X1790000Y1693070D01*
X1728820Y1663070D02*
X1760000D01*
X1539844Y1563070D02*
X1594070D01*
X1615000Y1584000D01*
Y1623070D01*
X1619000Y1627070D01*
Y1824000D01*
X1608190Y1834810D02*
X1619000Y1824000D01*
X1608190Y1834810D02*
Y1853070D01*
X1485150Y1563070D02*
X1539844D01*
X1482000Y1566220D02*
X1485150Y1563070D01*
X1428820Y1566220D02*
X1482000D01*
X1280710Y2300630D02*
X1323780D01*
X1240000Y2259920D02*
X1280710Y2300630D01*
X1196930Y2259920D02*
X1240000D01*
X1329370Y2339590D02*
Y2373070D01*
X1323780Y2334000D02*
X1329370Y2339590D01*
X1323780Y2300630D02*
Y2334000D01*
X2155000Y2400000D02*
X2171182D01*
X2088150Y2466850D02*
X2155000Y2400000D01*
X1988740Y2466850D02*
X2088150D01*
X2171182Y2365592D02*
Y2400000D01*
X2165590Y2360000D02*
X2171182Y2365592D01*
X2165590Y2327560D02*
Y2360000D01*
X1850000Y2312930D02*
X1896930Y2266000D01*
Y2233070D02*
Y2266000D01*
X1670000Y2303070D02*
X1841070D01*
X1850000Y2312000D01*
X1601812Y2193070D02*
X1619000D01*
Y2176000D02*
X1632000Y2163000D01*
X1805000D01*
X1850000Y2208000D01*
X1578000Y2400000D02*
X1624930Y2353070D01*
X1578000Y2400000D02*
Y2624000D01*
X1552118Y2649882D02*
X1578000Y2624000D01*
X1523780Y2649882D02*
X1552118D01*
X1523780D02*
Y2693070D01*
X1624930Y2353070D02*
X1670000D01*
X1606000Y2336000D02*
X1624930Y2353070D01*
X1606000Y2272000D02*
Y2336000D01*
Y2272000D02*
X1656930Y2221070D01*
Y2193070D02*
Y2221070D01*
X1730000Y2233070D02*
X1763072D01*
X1690000Y2193070D02*
X1730000Y2233070D01*
X1656930Y2193070D02*
X1690000D01*
X2691812Y2339928D02*
Y2373070D01*
Y2339928D02*
X2738740Y2293000D01*
Y2260000D02*
Y2293000D01*
X2623070Y2373070D02*
X2691812D01*
X2580000Y2330000D02*
X2623070Y2373070D01*
X2511812Y2330000D02*
X2580000D01*
X2738000Y2260000D02*
X2738740D01*
X2693000Y2003000D02*
X2738000Y2048000D01*
X2510000Y2003000D02*
X2693000D01*
X2497000Y2016000D02*
X2510000Y2003000D01*
X2497000Y2016000D02*
Y2099000D01*
X2443622Y2152378D02*
X2497000Y2099000D01*
X2443622Y2152378D02*
Y2220000D01*
X2511812Y2380000D02*
Y2397000D01*
X2639000D01*
X2657000Y2415000D01*
X2720000D01*
X2757000Y2452000D01*
Y2800000D01*
X2720000Y2837000D02*
X2757000Y2800000D01*
X2400000Y2837000D02*
X2720000D01*
X2365590Y2802590D02*
X2400000Y2837000D01*
X2365590Y2720000D02*
Y2802590D01*
X2458000Y2380000D02*
X2511812D01*
X2458000Y2316000D02*
Y2380000D01*
Y2316000D02*
X2498740Y2275260D01*
Y2220000D02*
Y2275260D01*
X2571000Y2260000D02*
X2604882D01*
X2531000Y2220000D02*
X2571000Y2260000D01*
X2498740Y2220000D02*
X2531000D01*
X1384000Y1763070D02*
X1539844D01*
X1372000Y1775070D02*
X1384000Y1763070D01*
X1372000Y1775070D02*
Y1840000D01*
X1351000Y1861000D02*
X1372000Y1840000D01*
X1297000Y1861000D02*
X1351000D01*
X1297000Y1568000D02*
Y1861000D01*
Y1568000D02*
X1333000Y1532000D01*
X1474000D01*
X1483000Y1541000D01*
X1619000D01*
X1630000Y1552000D01*
Y1608070D01*
X1637458Y1615528D01*
Y1722458D01*
X1648000Y1733000D01*
X1664000D01*
X1672000Y1741000D01*
Y1777000D01*
X1680000Y1785000D01*
X1691930D01*
X1760000Y1853070D01*
X1788190D01*
X1539844Y1713070D02*
Y1763070D01*
X2338000Y1863000D02*
X2417000D01*
X2329000Y1872000D02*
X2338000Y1863000D01*
X2329000Y1872000D02*
Y2050000D01*
X1315000Y2470000D02*
Y2816000D01*
X1353488Y2854488D01*
X1791850D01*
X1481024Y2553070D02*
Y2603070D01*
X1450000Y2553070D02*
X1481024D01*
X1352000Y2567000D02*
X1450000D01*
X1338000Y2553000D02*
X1352000Y2567000D01*
X1338000Y2469000D02*
Y2553000D01*
Y2469000D02*
X1344000D01*
X1356000Y2457000D01*
Y2384000D02*
X1366930Y2373070D01*
X1384488D01*
X1257220Y2366220D02*
X1294070Y2403070D01*
X1196930Y2366220D02*
X1257220D01*
X1417000Y2373070D02*
X1447000Y2403070D01*
X1384488Y2373070D02*
X1417000D01*
X2289000Y2430000D02*
X2322834D01*
X2259000Y2400000D02*
X2289000Y2430000D01*
X2226300Y2400000D02*
X2259000D01*
X2200000Y2408000D02*
X2208000Y2400000D01*
X2180000Y2592000D02*
X2218000Y2630000D01*
X2322834D01*
X1988740Y2573150D02*
X2001000D01*
Y2608000D02*
X2023000Y2630000D01*
X2322834Y2580000D02*
Y2630000D01*
X1465000Y2303070D02*
X1481024D01*
X1440000Y2087000D02*
X1465000Y2112000D01*
X1056000Y2087000D02*
X1440000D01*
X1022000Y2121000D02*
X1056000Y2087000D01*
X1022000Y2121000D02*
Y2660000D01*
X1032000Y2670000D01*
X1060000D01*
X1670000Y2403070D02*
X1701000D01*
X1741000Y2350000D01*
X1481024Y2262056D02*
Y2303070D01*
Y2262056D02*
X1490080Y2253000D01*
Y2213070D02*
Y2253000D01*
X2660000Y2430000D02*
Y2446000D01*
X2322834Y2289056D02*
Y2330000D01*
Y2289056D02*
X2331890Y2280000D01*
X2005000Y1448000D02*
X2044000Y1487000D01*
X1861892Y1509858D02*
Y1513070D01*
Y1509858D02*
X1955750Y1416000D01*
Y1413070D02*
Y1416000D01*
X1728820Y1513070D02*
X1861892D01*
X1870160Y1603000D02*
Y1613070D01*
X1889290Y1585352D02*
Y1603000D01*
Y1585352D02*
X1996000D01*
X2010568Y1599920D01*
X2039008Y1752992D02*
X2285826D01*
X2000000Y1792000D02*
X2039008Y1752992D01*
X2000000Y1792000D02*
Y1888000D01*
X1968000Y1920000D02*
X2000000Y1888000D01*
X1849000Y1920000D02*
X1968000D01*
X1817000Y1888000D02*
X1849000Y1920000D01*
X1817000Y1784000D02*
X1827930Y1773070D01*
X1653000Y1904000D02*
X1801000D01*
X1817000Y1888000D01*
Y1784000D02*
Y1888000D01*
X1827930Y1773070D02*
X1848190D01*
X1728820Y1763070D02*
X1783000D01*
X1793000Y1773070D01*
X2261000Y1969000D02*
X2292000D01*
X2244000Y1952000D02*
X2261000Y1969000D01*
X2244000Y1784488D02*
Y1952000D01*
Y1784488D02*
X2285826D01*
X1429000Y1505000D02*
X1461000D01*
X1478000Y1488000D01*
Y1472000D02*
Y1488000D01*
Y1472000D02*
X1539844Y1463070D01*
X1675000Y1563070D02*
X1728820D01*
X1675000Y1503000D02*
Y1563070D01*
Y1503000D02*
X1688000Y1490000D01*
X1785000D01*
X1803000Y1472000D01*
Y1296000D02*
Y1472000D01*
X1787000Y1280000D02*
X1803000Y1296000D01*
X1172000Y1280000D02*
X1787000D01*
X1140000Y1312000D02*
X1172000Y1280000D01*
X1140000Y1312000D02*
Y1360000D01*
X1323780Y2245512D02*
Y2265000D01*
X2274408Y1355908D02*
Y1390000D01*
X2264000Y1345500D02*
X2274408Y1355908D01*
X2040000Y1345500D02*
X2264000D01*
X2031500Y1337000D02*
X2040000Y1345500D01*
X2031500Y1280000D02*
Y1337000D01*
Y1280000D02*
X2068500Y1243000D01*
X2432000D01*
X2470000Y1205000D01*
Y1115000D02*
Y1205000D01*
Y1115000D02*
X2500000Y1085000D01*
X2601000D01*
X2620000Y1104000D01*
Y1140000D01*
X2285826Y1658504D02*
X2320000D01*
X2329000Y1649504D01*
Y1504000D02*
Y1649504D01*
X2274408Y1449408D02*
X2329000Y1504000D01*
X2274408Y1390000D02*
Y1449408D01*
X1472000Y1373000D02*
X1484000D01*
X1455000Y1356000D02*
X1472000Y1373000D01*
X2144000Y2272440D02*
X2165590D01*
X2080000Y2336440D02*
X2144000Y2272440D01*
X2080000Y2336440D02*
Y2412000D01*
D21*
X1100000Y1100000D02*
D03*
X2900000D02*
D03*
Y2900000D02*
D03*
X1100000D02*
D03*
D22*
X1140000Y1680000D02*
D03*
Y1360000D02*
D03*
X2860000Y1800000D02*
D03*
D23*
X1140000Y1780000D02*
D03*
Y1460000D02*
D03*
X2860000Y1700000D02*
D03*
Y1600000D02*
D03*
X2520000Y1140000D02*
D03*
X2420000D02*
D03*
X2320000D02*
D03*
X2220000D02*
D03*
X2120000D02*
D03*
X2191850Y2854488D02*
D03*
X2091850D02*
D03*
X1991850D02*
D03*
X1891850D02*
D03*
X1560000Y1140000D02*
D03*
D24*
X2620000D02*
D03*
X1791850Y2854488D02*
D03*
X1660000Y1140000D02*
D03*
D25*
X2820000Y2330000D02*
D03*
Y2630000D02*
D03*
X1060000Y2370000D02*
D03*
Y2670000D02*
D03*
X2920000Y2330000D02*
D03*
Y2630000D02*
D03*
X1060000Y2190000D02*
D03*
Y1890000D02*
D03*
X2920000Y1930000D02*
D03*
Y2230000D02*
D03*
X1140000Y2190000D02*
D03*
Y1890000D02*
D03*
D26*
X1900000Y1975000D02*
D03*
X2040000Y2440000D02*
D03*
X2940000Y1820000D02*
D03*
X2680000Y1830000D02*
D03*
X1330000Y1350000D02*
D03*
X1385000Y1440000D02*
D03*
X1380000Y1635000D02*
D03*
X2165000Y1805000D02*
D03*
X2125000Y1590000D02*
D03*
X1780000Y1615000D02*
D03*
X1385000Y2165000D02*
D03*
X1985000Y2390000D02*
D03*
X2075000Y2015000D02*
D03*
X2215000Y2595000D02*
D03*
X2295000Y2755000D02*
D03*
X2410000Y2575000D02*
D03*
X2045000Y2555000D02*
D03*
X2090000Y2270000D02*
D03*
X1905000Y2450000D02*
D03*
X1740000Y2625000D02*
D03*
X1855000Y2655000D02*
D03*
X2570000Y2455000D02*
D03*
X2840000Y2040000D02*
D03*
X1930000Y2398000D02*
D03*
X2094410Y2767000D02*
D03*
X2520000Y2026000D02*
D03*
X1658000Y1950000D02*
D03*
X2381000Y2213000D02*
D03*
X1474000Y1844000D02*
D03*
X1903000Y1863000D02*
D03*
X2781000Y2123000D02*
D03*
X2417000Y1863000D02*
D03*
X2329000Y2050000D02*
D03*
X1315000Y2470000D02*
D03*
X1741000Y2350000D02*
D03*
X2284000Y2252000D02*
D03*
X2660000Y2446000D02*
D03*
X1653000Y1904000D02*
D03*
X2292000Y1969000D02*
D03*
X1429000Y1505000D02*
D03*
X1367000Y2265000D02*
D03*
X1465000Y2708000D02*
D03*
X1530000Y2202000D02*
D03*
X2258000Y2460000D02*
D03*
X2054000Y1323000D02*
D03*
X2417000Y2465512D02*
D03*
X2476770Y1810000D02*
D03*
X1697000Y1830000D02*
D03*
X1646000Y1760000D02*
D03*
X1607000Y2453070D02*
D03*
X1815000Y2355000D02*
D03*
X2656000Y2505000D02*
D03*
X1484000Y1373000D02*
D03*
X1262000Y1369000D02*
D03*
%TF.MD5,cf6c3fc45cca0c471a267394121ae787*%
M02*
