G04 Layer_Color=128*
%FSLAX26Y26*%
%MOIN*%
%TF.FileFunction,Paste,Bot*%
%TF.Part,Single*%
G01*
G75*
%TA.AperFunction,SMDPad,CuDef*%
%ADD10O,0.086614X0.023622*%
%ADD11R,0.043307X0.066929*%
%ADD14R,0.062992X0.033465*%
%ADD16R,0.031496X0.035433*%
%ADD17R,0.035433X0.031496*%
%ADD18R,0.066929X0.043307*%
%ADD27O,0.066929X0.017716*%
%ADD28O,0.023622X0.086614*%
D10*
X2628346Y2150000D02*
D03*
Y2100000D02*
D03*
Y2050000D02*
D03*
Y2000000D02*
D03*
Y1950000D02*
D03*
Y1900000D02*
D03*
Y1850000D02*
D03*
X2439370Y2150000D02*
D03*
Y2100000D02*
D03*
Y2050000D02*
D03*
Y2000000D02*
D03*
Y1950000D02*
D03*
Y1900000D02*
D03*
Y1850000D02*
D03*
D11*
X1386850Y1426300D02*
D03*
X1493150D02*
D03*
X1913150Y1260000D02*
D03*
X1806850D02*
D03*
X1833150Y1620000D02*
D03*
X1726850D02*
D03*
Y1520000D02*
D03*
X1833150D02*
D03*
X2573150Y2840000D02*
D03*
X2466850D02*
D03*
X1426850Y2480000D02*
D03*
X1533150D02*
D03*
X2525590Y1760000D02*
D03*
X2419292D02*
D03*
X2305590Y1780000D02*
D03*
X2199292D02*
D03*
X2639292Y2280000D02*
D03*
X2745590D02*
D03*
X2639292Y1760000D02*
D03*
X2745590D02*
D03*
X2345590Y2080000D02*
D03*
X2239292D02*
D03*
X2205590Y2200000D02*
D03*
X2099292D02*
D03*
D14*
X1373070Y1333150D02*
D03*
X1506930D02*
D03*
X2306300Y1900000D02*
D03*
X2172442D02*
D03*
D16*
X1387560Y1686300D02*
D03*
X1332440D02*
D03*
X2004882Y1280000D02*
D03*
X2060000D02*
D03*
X2555708Y2465512D02*
D03*
X2500590D02*
D03*
X1452442Y2860000D02*
D03*
X1507560D02*
D03*
X1995118Y2380000D02*
D03*
X1940000D02*
D03*
X2040000Y2740000D02*
D03*
X2095118D02*
D03*
X2780000Y2020000D02*
D03*
X2724882D02*
D03*
X2304882Y2000000D02*
D03*
X2360000D02*
D03*
X2380000Y2240000D02*
D03*
X2324882D02*
D03*
X2252442Y2000000D02*
D03*
X2197322D02*
D03*
X2560000Y2240000D02*
D03*
X2504882D02*
D03*
X2320000Y2160000D02*
D03*
X2264882D02*
D03*
D17*
X2660000Y2612442D02*
D03*
Y2667560D02*
D03*
X1340000Y2707560D02*
D03*
Y2652440D02*
D03*
X1847560Y2412442D02*
D03*
Y2467560D02*
D03*
X2840000Y2207560D02*
D03*
Y2152442D02*
D03*
D18*
X2120000Y1473150D02*
D03*
Y1366850D02*
D03*
X1260000Y1699448D02*
D03*
Y1593150D02*
D03*
Y1513150D02*
D03*
Y1406850D02*
D03*
X1600000Y1340000D02*
D03*
Y1446300D02*
D03*
X1640000Y1513150D02*
D03*
Y1619448D02*
D03*
X2360000Y2686850D02*
D03*
Y2793150D02*
D03*
Y2613150D02*
D03*
Y2506850D02*
D03*
X1640000Y2633150D02*
D03*
Y2526850D02*
D03*
Y2706850D02*
D03*
Y2813150D02*
D03*
X1847560Y2653150D02*
D03*
Y2546850D02*
D03*
X2167560Y2646850D02*
D03*
Y2753150D02*
D03*
Y2466850D02*
D03*
Y2573150D02*
D03*
X2739370Y1846850D02*
D03*
Y1953150D02*
D03*
X2752442Y2086850D02*
D03*
Y2193150D02*
D03*
X2112442Y2093150D02*
D03*
Y1986850D02*
D03*
D27*
X1837322Y1381614D02*
D03*
Y1407204D02*
D03*
Y1432796D02*
D03*
Y1458386D02*
D03*
X2002678Y1381614D02*
D03*
Y1407204D02*
D03*
Y1432796D02*
D03*
Y1458386D02*
D03*
X1545354Y1596220D02*
D03*
Y1570630D02*
D03*
Y1545040D02*
D03*
Y1519448D02*
D03*
X1380000Y1596220D02*
D03*
Y1570630D02*
D03*
Y1545040D02*
D03*
Y1519448D02*
D03*
D28*
X2595000Y2545512D02*
D03*
X2545000D02*
D03*
X2495000D02*
D03*
X2445000D02*
D03*
X2595000Y2734488D02*
D03*
X2545000D02*
D03*
X2495000D02*
D03*
X2445000D02*
D03*
X1405000Y2774488D02*
D03*
X1455000D02*
D03*
X1505000D02*
D03*
X1555000D02*
D03*
X1405000Y2585512D02*
D03*
X1455000D02*
D03*
X1505000D02*
D03*
X1555000D02*
D03*
X2089410Y2465512D02*
D03*
X2039410D02*
D03*
X1989410D02*
D03*
X1939410D02*
D03*
X2089410Y2654488D02*
D03*
X2039410D02*
D03*
X1989410D02*
D03*
X1939410D02*
D03*
%TF.MD5,7b00abd27a0ffb25bc637a1091f198e0*%
M02*
