G04 Layer_Color=16711935*
%FSLAX26Y26*%
%MOIN*%
%TF.FileFunction,Soldermask,Bot*%
%TF.Part,Single*%
G01*
G75*
%TA.AperFunction,SMDPad,CuDef*%
%ADD33R,0.051307X0.074929*%
%ADD36R,0.043433X0.039496*%
%TA.AperFunction,ViaPad*%
%ADD39C,0.168000*%
%TA.AperFunction,ComponentPad*%
%ADD40R,0.067055X0.067055*%
%ADD41C,0.067055*%
%ADD42R,0.067055X0.067055*%
%ADD43C,0.063118*%
%TA.AperFunction,ViaPad*%
%ADD44C,0.058000*%
%TA.AperFunction,SMDPad,CuDef*%
%ADD47O,0.029654X0.070992*%
%ADD48O,0.070992X0.029654*%
D33*
X2004409Y1534016D02*
D03*
X2110709D02*
D03*
D36*
X2317559Y1861575D02*
D03*
Y1806457D02*
D03*
D39*
X2900000Y3200000D02*
D03*
X1100000D02*
D03*
D40*
X2340000Y1320000D02*
D03*
X1800000Y2980000D02*
D03*
X2140000Y1120000D02*
D03*
D41*
X2240000Y1320000D02*
D03*
X2140000D02*
D03*
X2040000D02*
D03*
X1940000D02*
D03*
X1840000D02*
D03*
X1080000Y1440000D02*
D03*
Y1540000D02*
D03*
Y1640000D02*
D03*
X2200000Y2980000D02*
D03*
X2100000D02*
D03*
X2000000D02*
D03*
X1900000D02*
D03*
X2040000Y1120000D02*
D03*
D42*
X1080000Y1740000D02*
D03*
D43*
X2580000Y2060000D02*
D03*
X2280000D02*
D03*
X2490000Y1460000D02*
D03*
X2190000D02*
D03*
X1580000Y2060000D02*
D03*
X1280000D02*
D03*
X1490000Y1460000D02*
D03*
X1190000D02*
D03*
D44*
X2940000Y1340000D02*
D03*
Y1240000D02*
D03*
X2840000Y1340000D02*
D03*
X2940000Y1140000D02*
D03*
Y1040000D02*
D03*
X2340000Y1700000D02*
D03*
X1340000D02*
D03*
X2600000Y1820000D02*
D03*
X1600000D02*
D03*
X2320000Y1860000D02*
D03*
X1260000Y2300000D02*
D03*
X1620000Y2220000D02*
D03*
X1060000Y1320000D02*
D03*
X1540000Y2300000D02*
D03*
X1160000Y2280000D02*
D03*
X1200000Y1580000D02*
D03*
X1220000Y1780000D02*
D03*
X1180000Y1960000D02*
D03*
Y2700000D02*
D03*
X2600000D02*
D03*
X2520000Y2300000D02*
D03*
X1820000Y2680000D02*
D03*
X1460000Y2800000D02*
D03*
X2880000Y2820000D02*
D03*
X2080000Y2860000D02*
D03*
X2160000Y2820000D02*
D03*
X2420000Y2780000D02*
D03*
X2080000Y2700000D02*
D03*
Y2540000D02*
D03*
X1580000Y2600000D02*
D03*
X1420000Y2700000D02*
D03*
X2240000Y2300000D02*
D03*
X2960000Y3000000D02*
D03*
X2800000Y2680000D02*
D03*
Y2540000D02*
D03*
X2620000Y2240000D02*
D03*
X1600000Y1460000D02*
D03*
X1700000Y1100000D02*
D03*
D47*
X2175039Y2076457D02*
D03*
X2143543D02*
D03*
X2112047D02*
D03*
X2080551D02*
D03*
X2049055D02*
D03*
X2017559D02*
D03*
X1986063D02*
D03*
X1954567D02*
D03*
X1923071D02*
D03*
X1891575D02*
D03*
X1860079D02*
D03*
Y1631575D02*
D03*
X1891575D02*
D03*
X1923071D02*
D03*
X1954567D02*
D03*
X1986063D02*
D03*
X2017559D02*
D03*
X2049055D02*
D03*
X2080551D02*
D03*
X2112047D02*
D03*
X2143543D02*
D03*
X2175039D02*
D03*
D48*
X1795118Y2011496D02*
D03*
Y1980000D02*
D03*
Y1948504D02*
D03*
Y1917008D02*
D03*
Y1885512D02*
D03*
Y1854016D02*
D03*
Y1822520D02*
D03*
Y1791024D02*
D03*
Y1759528D02*
D03*
Y1728032D02*
D03*
Y1696535D02*
D03*
X2240000D02*
D03*
Y1728032D02*
D03*
Y1759528D02*
D03*
Y1791024D02*
D03*
Y1822520D02*
D03*
Y1854016D02*
D03*
Y1885512D02*
D03*
Y1917008D02*
D03*
Y1948504D02*
D03*
Y1980000D02*
D03*
Y2011496D02*
D03*
%TF.MD5,6773fa041016b0c796ec089f51246324*%
M02*
