M48
;Layer_Color=9474304
;FILE_FORMAT=2:5
INCH,LZ
;TYPE=PLATED
T1F00S00C0.02800
T2F00S00C0.03346
T3F00S00C0.03543
T4F00S00C0.14900
%
T01
X0106Y0132
X016Y0146
X017Y011
X0294Y0114
Y0104
Y0124
Y0134
X0284
X026Y0182
X0232Y0186
X0234Y017
X0224Y023
X0252
X0262Y0224
X028Y0254
Y0268
X0288Y0282
X0296Y03
X026Y027
X0242Y0278
X0216Y0282
X0208Y0286
Y027
Y0254
X0182Y0268
X0158Y026
X0162Y0222
X016Y0182
X0134Y017
X0122Y0178
X0118Y0196
X0116Y0228
X0126Y023
X0154
X0142Y027
X0146Y028
X0118Y027
X012Y0158
T02
X0119Y0146
X0149
X0219
X0249
X0258Y0206
X0228
X0158
X0128
T03
X0108Y0144
Y0154
X0184Y0132
X0194
X0204
X0214
X0224
X0234
X0214Y0112
X0204
X02Y0298
X019
X018
X021
X022
X0108Y0174
Y0164
T04
X011Y032
X029
M30
