M48
;Layer_Color=9474304
;FILE_FORMAT=2:5
INCH,LZ
;TYPE=PLATED
T1F00S00C0.01700
T2F00S00C0.03346
T3F00S00C0.03543
T4F00S00C0.14900
%
T01
X0141Y01015
X01425Y01135
X0191
X01895Y0102
X0245Y0147
X0264
X02745Y0176
X0274Y0184
X02785Y0202
X02562Y02
X02528Y02051
X02598Y02221
X02412Y0235802
X02443Y0248
X02258Y02433
X02245Y02605
X0227Y02755
X0204Y02735
X0209Y02465
X01735Y02645
X01664Y0229
X01813Y01985
X0184331Y0192878
X0163344Y0180622
X0182Y0161
X0197Y01615
X02305Y02
X02291Y02088
X02655Y02544
X0265Y02625
X01345Y0271
X0124Y02585
X01235Y0234
X01466Y0225307
X014Y0201
Y0188
X013Y01757
X01482Y01647
X01426Y02936
T02
X0292Y0193
Y0223
Y0233
X0282
Y0263
X0292
X0106Y0267
Y0237
Y0219
X0114
Y0189
X0106
T03
X0114Y0136
Y0146
X0156Y0114
X0166
X0212
X0222
X0232
X0242
X0252
X0262
X0286Y016
Y017
Y018
X0219185Y0285449
X0209185
X0199185
X0189185
X0179185
X0114Y0178
Y0168
T04
X011Y011
X029
Y029
X011
M30
