M48
;Layer_Color=9474304
;FILE_FORMAT=2:5
INCH,LZ
;TYPE=PLATED
T1F00S00C0.01700
T2F00S00C0.03346
T3F00S00C0.03543
T4F00S00C0.08300
%
T01
X01653Y01126
X01906Y01528
X02591Y0146
X02683Y01453
X02557Y01592
X0223Y01616
X02294Y01846
X02268Y02077
X02216Y02369
X02114Y02349
X02384Y02486
X02449Y02491
X02417Y02555
X02345Y02567
X02423Y02635
X02418Y02694
X02486Y02589
X02597Y02371
X02686Y02767
X01896Y02663
X01734Y02789
X01723Y02502
X01686Y01781
X0183Y0184
X01941Y01845
X01961Y01738
X01716Y01596
X01364Y01602
X01484Y02287
X0137Y02506
X01399Y02692
T02
X0115Y013
X0145
X024Y02
Y021
X027
Y02
X0155Y0205
Y0215
Y0195
X0125
Y0205
Y0215
T03
X0135Y0115
X0145
X0215
X0225
X0235
X0245
X0255
X0265
X0285Y015
Y016
Y017
Y02
Y021
Y024
Y025
X022Y0285
X021
X02
X019
X018
T04
X011Y011
X029
Y029
X011
M30
