M48
;Layer_Color=9474304
;FILE_FORMAT=2:5
INCH,LZ
;TYPE=PLATED
T1F00S00C0.01700
T2F00S00C0.03346
T3F00S00C0.03543
T4F00S00C0.08300
%
T01
X0122932Y01494
X0126869
X01347Y0139
X0149Y01285
X01492Y01529
X01815Y01545
X0177Y01375
X01829Y01186
X01726Y011
X02372Y01472
X02424Y0149
X02439Y01412
X0274Y0149
X02776Y01641
X0275Y01765
X0258Y01951
X0252Y0203
X02724Y02134
X025Y02346
X02349Y02252
X02188Y0237
X01986Y02376
X0198Y02445
X01665Y02413
X01565Y01923
X01747Y0183
X01648Y0171
X01975Y01632
X0195Y01579
X02169Y01665
X02308Y01779
X02499Y0158
X02062Y01962
X02056Y02137
X02204Y0268
X02173Y02733
X02504Y02693
X0249547Y02918
X0145853Y0266653
X0150533Y0236
X01478Y02322
X01534Y02266
X01552Y02125
X01067Y0159
T02
X01635Y01145
X01935
X02145Y01255
X02445
X0243Y01885
Y0202
X0273
Y01885
X0292407Y0255893
X0271193Y0277107
X0145Y01985
X0115
T03
X0135Y0115
X0145
X0215
X0225
X0235
X0245
X0255
X0265
X0285Y015
Y016
Y017
Y02
Y021
Y023
Y024
X022Y0285
X021
X02
X019
X018
T04
X011Y011
X029
Y029
X011
M30
