M48
;Layer_Color=9474304
;FILE_FORMAT=2:5
INCH,LZ
;TYPE=PLATED
T1F00S00C0.01700
T2F00S00C0.03346
T3F00S00C0.03543
T4F00S00C0.08300
%
T01
X0133Y01485
X017Y01525
X0171Y0127
X0164Y01265
X01895Y0126
X0271262Y01335
X02798Y01198
X02595Y01585
X0222Y0161
X02165Y0173
X020413Y01984
X02025Y02095
X0222Y02195
X02336Y02187
X02578Y0226
X02585Y0249
X02505Y0245
X02235Y02485
Y0264
X02241Y02707
X02185Y0273
X0216Y0262
X0182Y02405
X01705Y0239
X01775Y022
X01805Y0175
X02486Y01966
X02715Y02125
X02711Y02857
X02495Y0286
X01589Y02592
X01542Y02499
X01505Y02465
X01325Y0235
X01354Y02742
X01415Y0287
X01233Y01863
X0119Y01715
X0112Y01575
T02
X01635Y01145
X01935
X02145Y01255
X02445
X0243Y01885
Y0202
X0273
Y01885
X0290607Y0251893
X0269393Y0273107
X0145Y01985
X0115
T03
X0135Y0115
X0145
X0215
X0225
X0235
X0245
X0255
X0265
X0285Y015
Y016
Y017
Y02
Y021
Y023
Y024
X022Y0285
X021
X02
X019
X018
T04
X011Y011
X029
Y029
X011
M30
