M48
;Layer_Color=9474304
;FILE_FORMAT=2:5
INCH,LZ
;TYPE=PLATED
T1F00S00C0.01700
T2F00S00C0.03346
T3F00S00C0.03543
T4F00S00C0.14900
%
T01
X0146Y0122
X0136Y0138
X0184Y0114
X0276Y0122
X0278Y0176
X0252558Y02
X0244
X023
X0227Y02245
X0222Y0227
X02317Y02291
X0226Y0245
X02097Y02384
X02153Y02197
X01787Y0220807
X0178Y0216
X0182Y0234
X018Y0238
X01748Y02589
X01691Y02592
X01575Y02255
X01656Y0171307
X0218Y0162
X02595Y02459
X0264Y0253
X0265Y0262
X02465Y0261
X0241827Y02676
X02064Y02773
X02627Y02993
X0146Y024
X0144Y0204
X0132Y02
X01365Y01865
X01486Y01641
T02
X0292Y0193
Y0223
Y0233
X0282
Y0263
X0292
X0106Y0267
Y0237
Y0219
X0114
Y0189
X0106
T03
X0114Y0136
Y0146
X0156Y0114
X0166
X0212
X0222
X0232
X0242
X0252
X0262
X0286Y016
Y017
Y018
X0219185Y0285449
X0209185
X0199185
X0189185
X0179185
X0114Y0178
Y0168
T04
X011Y011
X029
Y029
X011
M30
