M48
;Layer_Color=9474304
;FILE_FORMAT=2:5
INCH,LZ
;TYPE=PLATED
T1F00S00C0.01700
T2F00S00C0.03346
T3F00S00C0.03543
T4F00S00C0.08300
%
T01
X01262Y01369
X0133Y0135
X01385Y0144
X01429Y01505
X01484Y01373
X02054Y01323
X02125Y0159
X02165Y01805
X02292Y01969
X02329Y0205
X0252Y02026
X0247677Y0181
X02417Y01863
X0268Y0183
X0294Y0182
X0284Y0204
X02781Y02123
X0266Y02446
X02656Y02505
X0257Y02455
X02417Y0246551
X0241Y02575
X02215Y02595
X02258Y0246
X02284Y02252
X02381Y02213
X0209Y0227
X0204Y0244
X01985Y0239
X0193Y02398
X01905Y0245
X01815Y02355
X01741Y0235
X01607Y0245307
X0174Y02625
X01855Y02655
X02045Y02555
X0209441Y02767
X02295Y02755
X02075Y02015
X019Y01975
X01903Y01863
X01697Y0183
X01653Y01904
X01658Y0195
X01646Y0176
X0178Y01615
X0138Y01635
X01474Y01844
X01385Y02165
X01367Y02265
X0153Y02202
X01315Y0247
X01465Y02708
T02
X0292Y0193
Y0223
Y0233
X0282
Y0263
X0292
X0106Y0267
Y0237
Y0219
X0114
Y0189
X0106
T03
X0114Y0136
Y0146
X0156Y0114
X0166
X0212
X0222
X0232
X0242
X0252
X0262
X0286Y016
Y017
Y018
X0219185Y0285449
X0209185
X0199185
X0189185
X0179185
X0114Y0178
Y0168
T04
X011Y011
X029
Y029
X011
M30
