M48
;Layer_Color=9474304
;FILE_FORMAT=2:5
INCH,LZ
;TYPE=PLATED
T1F00S00C0.01700
T2F00S00C0.03346
T3F00S00C0.03543
T4F00S00C0.08300
%
T01
X0122932Y01494
X0126868
X01331Y01549
X01513Y01452
X01704Y01538
X01769Y01404
X01938Y01307
X02173Y01312
X02209Y01386
X02131Y0139
X02185Y01496
X02002Y01521
X02444Y01473
X02649Y01264
X0272Y01267
X02692Y01094
X02496
X02299Y01204
X02134Y01607
X02131Y01692
X02073Y01686
X01977Y01605
X01888Y01902
X0172342Y01993
X01703Y02388
X01759Y02392
X01949Y02371
X02254Y02338
X02372Y02373
X02443Y02359
X02587Y02269
X02727Y02133
X02303Y02201
X02128Y0202
X02343Y01815
X02223Y0264
X02099Y02648
X01446Y02641
X01336Y02307
X01385Y01741
X01392Y01579
X01504Y01585
T02
X01635Y01145
X01935
X02145Y01255
X02445
X0243Y01885
Y0202
X0273
Y01885
X0292407Y0255893
X0271193Y0277107
X0145Y01985
X0115
T03
X0135Y0115
X0145
X0215
X0225
X0235
X0245
X0255
X0265
X0285Y015
Y016
Y017
Y02
Y021
Y023
Y024
X022Y0285
X021
X02
X019
X018
T04
X011Y011
X029
Y029
X011
M30
