M48
;Layer_Color=9474304
;FILE_FORMAT=2:5
INCH,LZ
;TYPE=PLATED
T1F00S00C0.00787
T2F00S00C0.01700
T3F00S00C0.03346
T4F00S00C0.03543
T5F00S00C0.08300
%
T01
X0123325Y01494
X0126475
T02
X01524Y01443
X01498Y0153
X01698Y01539
X01658Y01354
X01996Y0143
X02074Y01332
X02252Y01242
X022Y01078
X0242Y01404
X02728Y01272
X02501Y01576
X02158Y01606
X0218942Y01654
X0218666Y01803
X0209Y01856
X02083Y01961
X01905Y02081
X01568Y02094
X01701Y02391
X02157Y02199
X02402Y02096
X02345Y01837
X01992Y01722
X01989Y01638
X02216Y02666
X02286Y02731
X02441Y02884
X01484Y02619
X01421Y02651
X01335Y02296
X0127Y02351
X012815Y0219
X01386Y01921
X01439Y01839
T03
X01635Y01145
X01935
X02145Y01255
X02445
X0243Y01885
Y0202
X0273
Y01885
X0290607Y0251893
X0269393Y0273107
X0145Y01985
X0115
T04
X0135Y0115
X0145
X0215
X0225
X0235
X0245
X0255
X0265
X0285Y015
Y016
Y017
Y02
Y021
Y023
Y024
X022Y0285
X021
X02
X019
X018
T05
X011Y011
X029
Y029
X011
M30
